G04*
G04 #@! TF.GenerationSoftware,Altium Limited,Altium Designer,20.1.11 (218)*
G04*
G04 Layer_Color=16711935*
%FSLAX25Y25*%
%MOIN*%
G70*
G04*
G04 #@! TF.SameCoordinates,6CC8ACCB-2A8E-4504-AA76-58F5339EE6F1*
G04*
G04*
G04 #@! TF.FilePolarity,Negative*
G04*
G01*
G75*
%ADD56R,0.05524X0.03950*%
%ADD71R,0.11417X0.02559*%
%ADD75R,0.03556X0.02769*%
%ADD76R,0.03556X0.03320*%
%ADD79R,0.05524X0.03556*%
%ADD80R,0.03556X0.05524*%
%ADD81R,0.03950X0.05524*%
%ADD82R,0.04737X0.04737*%
%ADD83R,0.08674X0.08674*%
%ADD84C,0.08674*%
%ADD85C,0.06706*%
%ADD86C,0.05918*%
%ADD87R,0.05918X0.05918*%
%ADD88R,0.05918X0.05918*%
%ADD89C,0.06600*%
%ADD90R,0.06312X0.06312*%
%ADD91C,0.06312*%
%ADD92C,0.13595*%
%ADD93C,0.10249*%
%ADD94C,0.10800*%
%ADD127R,0.04147X0.02178*%
%ADD128O,0.06706X0.02375*%
%ADD129R,0.07296X0.01981*%
%ADD130R,0.07099X0.01981*%
%ADD131R,0.01981X0.07099*%
%ADD132R,0.03556X0.02375*%
%ADD133R,0.02769X0.03556*%
%ADD134R,0.03320X0.03556*%
D56*
X125000Y146512D02*
D03*
Y141000D02*
D03*
X260500Y360512D02*
D03*
Y355000D02*
D03*
X276000Y281512D02*
D03*
Y276000D02*
D03*
X208500Y266000D02*
D03*
Y260488D02*
D03*
X206205Y101705D02*
D03*
Y96193D02*
D03*
X265000Y72000D02*
D03*
Y66488D02*
D03*
X-23000Y167500D02*
D03*
Y173012D02*
D03*
D71*
X-49027Y264732D02*
D03*
Y261583D02*
D03*
Y258433D02*
D03*
Y255283D02*
D03*
Y252134D02*
D03*
Y248984D02*
D03*
Y245835D02*
D03*
Y242685D02*
D03*
Y239535D02*
D03*
Y236386D02*
D03*
Y233236D02*
D03*
Y230087D02*
D03*
Y226937D02*
D03*
Y223787D02*
D03*
Y220638D02*
D03*
Y217488D02*
D03*
Y214338D02*
D03*
Y211189D02*
D03*
Y208039D02*
D03*
Y204890D02*
D03*
Y201740D02*
D03*
Y198591D02*
D03*
Y182843D02*
D03*
Y179693D02*
D03*
Y176543D02*
D03*
Y173394D02*
D03*
Y170244D02*
D03*
Y167094D02*
D03*
Y163945D02*
D03*
Y160795D02*
D03*
Y157646D02*
D03*
Y154496D02*
D03*
Y151346D02*
D03*
Y148197D02*
D03*
Y145047D02*
D03*
Y141898D02*
D03*
Y138748D02*
D03*
Y135598D02*
D03*
Y132449D02*
D03*
Y129299D02*
D03*
D75*
X314402Y357069D02*
D03*
Y360219D02*
D03*
X319914Y357069D02*
D03*
Y360219D02*
D03*
X258500Y326209D02*
D03*
Y329358D02*
D03*
X264012Y326209D02*
D03*
Y329358D02*
D03*
X314402Y298569D02*
D03*
Y301719D02*
D03*
X319914Y298569D02*
D03*
Y301719D02*
D03*
X259500Y264709D02*
D03*
Y267858D02*
D03*
X265012Y264709D02*
D03*
Y267858D02*
D03*
X256500Y157209D02*
D03*
Y160358D02*
D03*
X262012Y157209D02*
D03*
Y160358D02*
D03*
X314500Y128709D02*
D03*
Y131858D02*
D03*
X320012Y128709D02*
D03*
Y131858D02*
D03*
X256500Y103709D02*
D03*
Y106858D02*
D03*
X262012Y103709D02*
D03*
Y106858D02*
D03*
X314402Y71069D02*
D03*
Y74219D02*
D03*
X319914Y71069D02*
D03*
Y74219D02*
D03*
D76*
X314402Y353428D02*
D03*
Y363861D02*
D03*
X319914Y353428D02*
D03*
Y363861D02*
D03*
X258500Y322567D02*
D03*
Y333000D02*
D03*
X264012Y322567D02*
D03*
Y333000D02*
D03*
X314402Y294928D02*
D03*
Y305361D02*
D03*
X319914Y294928D02*
D03*
Y305361D02*
D03*
X259500Y261067D02*
D03*
Y271500D02*
D03*
X265012Y261067D02*
D03*
Y271500D02*
D03*
X256500Y153567D02*
D03*
Y164000D02*
D03*
X262012Y153567D02*
D03*
Y164000D02*
D03*
X314500Y125067D02*
D03*
Y135500D02*
D03*
X320012Y125067D02*
D03*
Y135500D02*
D03*
X256500Y100067D02*
D03*
Y110500D02*
D03*
X262012Y100067D02*
D03*
Y110500D02*
D03*
X314402Y67427D02*
D03*
Y77861D02*
D03*
X319914Y67427D02*
D03*
Y77861D02*
D03*
D79*
X187500Y122000D02*
D03*
Y128299D02*
D03*
X168500Y122000D02*
D03*
Y128299D02*
D03*
X169500Y84500D02*
D03*
Y78201D02*
D03*
X188000Y84500D02*
D03*
Y78201D02*
D03*
D80*
X125299Y153500D02*
D03*
X119000D02*
D03*
X125500Y134500D02*
D03*
X119201D02*
D03*
X161000D02*
D03*
X167299D02*
D03*
X161000Y154000D02*
D03*
X167299D02*
D03*
D81*
X314658Y347628D02*
D03*
X320170D02*
D03*
X258756Y316783D02*
D03*
X264268D02*
D03*
X314658Y289144D02*
D03*
X320170D02*
D03*
X259756Y255283D02*
D03*
X265268D02*
D03*
X256756Y147784D02*
D03*
X262268D02*
D03*
X314756Y119283D02*
D03*
X320268D02*
D03*
X256756Y94283D02*
D03*
X262268D02*
D03*
X314658Y61644D02*
D03*
X320170D02*
D03*
X285658Y379644D02*
D03*
X291170D02*
D03*
X229756Y348783D02*
D03*
X235268D02*
D03*
X285658Y321144D02*
D03*
X291170D02*
D03*
X230756Y287283D02*
D03*
X236268D02*
D03*
X227756Y179783D02*
D03*
X233268D02*
D03*
X285756Y151284D02*
D03*
X291268D02*
D03*
X227756Y126284D02*
D03*
X233268D02*
D03*
X285658Y93644D02*
D03*
X291170D02*
D03*
X272158Y377144D02*
D03*
X277670D02*
D03*
X216256Y346284D02*
D03*
X221768D02*
D03*
X272158Y318644D02*
D03*
X277670D02*
D03*
X217256Y284784D02*
D03*
X222768D02*
D03*
X214256Y177284D02*
D03*
X219768D02*
D03*
X272256Y148784D02*
D03*
X277768D02*
D03*
X214256Y123784D02*
D03*
X219768D02*
D03*
X272158Y91144D02*
D03*
X277670D02*
D03*
X180512Y123000D02*
D03*
X175000D02*
D03*
X223500Y308000D02*
D03*
X217988D02*
D03*
X217512Y137787D02*
D03*
X212000D02*
D03*
X277500Y110500D02*
D03*
X271988D02*
D03*
X-3000Y167500D02*
D03*
X2512D02*
D03*
D82*
X277402Y345861D02*
D03*
X272402D02*
D03*
X277402Y350861D02*
D03*
X272402D02*
D03*
X277402Y355861D02*
D03*
X272402D02*
D03*
X216500Y325000D02*
D03*
X221500D02*
D03*
X216500Y320000D02*
D03*
X221500D02*
D03*
X216500Y315000D02*
D03*
X221500D02*
D03*
X277402Y287361D02*
D03*
X272402D02*
D03*
X277402Y292361D02*
D03*
X272402D02*
D03*
X277402Y297361D02*
D03*
X272402D02*
D03*
X217500Y263500D02*
D03*
X222500D02*
D03*
X217500Y258500D02*
D03*
X222500D02*
D03*
X217500Y253500D02*
D03*
X222500D02*
D03*
X219500Y146000D02*
D03*
X214500D02*
D03*
X219500Y151000D02*
D03*
X214500D02*
D03*
X219500Y156000D02*
D03*
X214500D02*
D03*
X272500Y127500D02*
D03*
X277500D02*
D03*
X272500Y122500D02*
D03*
X277500D02*
D03*
X272500Y117500D02*
D03*
X277500D02*
D03*
X219500Y92500D02*
D03*
X214500D02*
D03*
X219500Y97500D02*
D03*
X214500D02*
D03*
X219500Y102500D02*
D03*
X214500D02*
D03*
X272402Y69861D02*
D03*
X277402D02*
D03*
X272402Y64861D02*
D03*
X277402D02*
D03*
X272402Y59861D02*
D03*
X277402D02*
D03*
D83*
X517500Y83000D02*
D03*
D84*
X527500D02*
D03*
X517500Y73000D02*
D03*
X527500D02*
D03*
X517500Y63000D02*
D03*
X527500D02*
D03*
X517500Y53000D02*
D03*
X527500D02*
D03*
X517500Y43000D02*
D03*
X527500D02*
D03*
D85*
X109500Y217000D02*
D03*
D86*
X34500Y294000D02*
D03*
X86500Y378390D02*
D03*
D87*
X20720Y294000D02*
D03*
D88*
X86500Y364610D02*
D03*
D89*
X22500Y324000D02*
D03*
Y334000D02*
D03*
X32500Y324000D02*
D03*
Y334000D02*
D03*
D90*
X536500Y180000D02*
D03*
Y242000D02*
D03*
D91*
X529500Y176000D02*
D03*
X536500Y172000D02*
D03*
X529500Y168000D02*
D03*
X536500Y164000D02*
D03*
X529500Y160000D02*
D03*
X536500Y156000D02*
D03*
X529500Y152000D02*
D03*
Y214000D02*
D03*
X536500Y218000D02*
D03*
X529500Y222000D02*
D03*
X536500Y226000D02*
D03*
X529500Y230000D02*
D03*
X536500Y234000D02*
D03*
X529500Y238000D02*
D03*
D92*
X546500Y141000D02*
D03*
Y253000D02*
D03*
D93*
X533000Y134000D02*
D03*
Y260000D02*
D03*
D94*
X59000Y378000D02*
D03*
X17000Y151000D02*
D03*
X168500Y273000D02*
D03*
X59500Y300000D02*
D03*
X36000Y64500D02*
D03*
X56000Y161500D02*
D03*
X158500Y229500D02*
D03*
X147500Y115000D02*
D03*
X148500Y239000D02*
D03*
X128500Y121500D02*
D03*
X65500Y140000D02*
D03*
D127*
X-16870Y167941D02*
D03*
Y170500D02*
D03*
X-8130Y167941D02*
D03*
Y173059D02*
D03*
X-16870D02*
D03*
D128*
X302729Y314806D02*
D03*
Y312247D02*
D03*
Y309688D02*
D03*
Y307129D02*
D03*
X286627Y314806D02*
D03*
Y312247D02*
D03*
Y309688D02*
D03*
Y307129D02*
D03*
Y365629D02*
D03*
Y368188D02*
D03*
Y370747D02*
D03*
Y373306D02*
D03*
X302729Y365629D02*
D03*
Y368188D02*
D03*
Y370747D02*
D03*
Y373306D02*
D03*
X246827Y342445D02*
D03*
Y339886D02*
D03*
Y337327D02*
D03*
Y334768D02*
D03*
X230725Y342445D02*
D03*
Y339886D02*
D03*
Y337327D02*
D03*
Y334768D02*
D03*
X231725Y273268D02*
D03*
Y275827D02*
D03*
Y278386D02*
D03*
Y280945D02*
D03*
X247827Y273268D02*
D03*
Y275827D02*
D03*
Y278386D02*
D03*
Y280945D02*
D03*
X244827Y173445D02*
D03*
Y170886D02*
D03*
Y168327D02*
D03*
Y165768D02*
D03*
X228725Y173445D02*
D03*
Y170886D02*
D03*
Y168327D02*
D03*
Y165768D02*
D03*
X286725Y137268D02*
D03*
Y139827D02*
D03*
Y142386D02*
D03*
Y144945D02*
D03*
X302827Y137268D02*
D03*
Y139827D02*
D03*
Y142386D02*
D03*
Y144945D02*
D03*
X244827Y119945D02*
D03*
Y117386D02*
D03*
Y114827D02*
D03*
Y112268D02*
D03*
X228725Y119945D02*
D03*
Y117386D02*
D03*
Y114827D02*
D03*
Y112268D02*
D03*
X286627Y79628D02*
D03*
Y82188D02*
D03*
Y84747D02*
D03*
Y87306D02*
D03*
X302729Y79628D02*
D03*
Y82188D02*
D03*
Y84747D02*
D03*
Y87306D02*
D03*
D129*
X285650Y344146D02*
D03*
Y346705D02*
D03*
Y349264D02*
D03*
Y351823D02*
D03*
Y354382D02*
D03*
Y356941D02*
D03*
Y359500D02*
D03*
X307500Y344146D02*
D03*
Y346705D02*
D03*
Y349264D02*
D03*
Y351823D02*
D03*
Y354382D02*
D03*
Y356941D02*
D03*
Y359500D02*
D03*
X251598Y328639D02*
D03*
Y326080D02*
D03*
Y323521D02*
D03*
Y320962D02*
D03*
Y318403D02*
D03*
Y315844D02*
D03*
Y313285D02*
D03*
X229748Y328639D02*
D03*
Y326080D02*
D03*
Y323521D02*
D03*
Y320962D02*
D03*
Y318403D02*
D03*
Y315844D02*
D03*
Y313285D02*
D03*
X285650Y285646D02*
D03*
Y288205D02*
D03*
Y290764D02*
D03*
Y293323D02*
D03*
Y295882D02*
D03*
Y298441D02*
D03*
Y301000D02*
D03*
X307500Y285646D02*
D03*
Y288205D02*
D03*
Y290764D02*
D03*
Y293323D02*
D03*
Y295882D02*
D03*
Y298441D02*
D03*
Y301000D02*
D03*
X252598Y267139D02*
D03*
Y264580D02*
D03*
Y262021D02*
D03*
Y259462D02*
D03*
Y256903D02*
D03*
Y254344D02*
D03*
Y251785D02*
D03*
X230748Y267139D02*
D03*
Y264580D02*
D03*
Y262021D02*
D03*
Y259462D02*
D03*
Y256903D02*
D03*
Y254344D02*
D03*
Y251785D02*
D03*
X227748Y144285D02*
D03*
Y146844D02*
D03*
Y149403D02*
D03*
Y151962D02*
D03*
Y154521D02*
D03*
Y157080D02*
D03*
Y159639D02*
D03*
X249598Y144285D02*
D03*
Y146844D02*
D03*
Y149403D02*
D03*
Y151962D02*
D03*
Y154521D02*
D03*
Y157080D02*
D03*
Y159639D02*
D03*
X307598Y131139D02*
D03*
Y128580D02*
D03*
Y126021D02*
D03*
Y123462D02*
D03*
Y120903D02*
D03*
Y118344D02*
D03*
Y115785D02*
D03*
X285748Y131139D02*
D03*
Y128580D02*
D03*
Y126021D02*
D03*
Y123462D02*
D03*
Y120903D02*
D03*
Y118344D02*
D03*
Y115785D02*
D03*
X227748Y90785D02*
D03*
Y93344D02*
D03*
Y95903D02*
D03*
Y98462D02*
D03*
Y101021D02*
D03*
Y103580D02*
D03*
Y106139D02*
D03*
X249598Y90785D02*
D03*
Y93344D02*
D03*
Y95903D02*
D03*
Y98462D02*
D03*
Y101021D02*
D03*
Y103580D02*
D03*
Y106139D02*
D03*
X307500Y73500D02*
D03*
Y70941D02*
D03*
Y68382D02*
D03*
Y65823D02*
D03*
Y63264D02*
D03*
Y60705D02*
D03*
Y58146D02*
D03*
X285650Y73500D02*
D03*
Y70941D02*
D03*
Y68382D02*
D03*
Y65823D02*
D03*
Y63264D02*
D03*
Y60705D02*
D03*
Y58146D02*
D03*
D130*
X154405Y155831D02*
D03*
Y153272D02*
D03*
Y150713D02*
D03*
Y148154D02*
D03*
Y145595D02*
D03*
Y143035D02*
D03*
Y140477D02*
D03*
Y137917D02*
D03*
Y135358D02*
D03*
Y132799D02*
D03*
X131965Y155831D02*
D03*
Y153272D02*
D03*
Y150713D02*
D03*
Y148154D02*
D03*
Y145595D02*
D03*
Y143035D02*
D03*
Y140477D02*
D03*
Y137917D02*
D03*
Y135358D02*
D03*
Y132799D02*
D03*
D131*
X166446Y114821D02*
D03*
X169005D02*
D03*
X171564D02*
D03*
X174123D02*
D03*
X176682D02*
D03*
X179241D02*
D03*
X181800D02*
D03*
X184359D02*
D03*
X186918D02*
D03*
X189477D02*
D03*
X166446Y92380D02*
D03*
X169005D02*
D03*
X171564D02*
D03*
X174123D02*
D03*
X176682D02*
D03*
X179241D02*
D03*
X181800D02*
D03*
X184359D02*
D03*
X186918D02*
D03*
X189477D02*
D03*
D132*
X271622Y370703D02*
D03*
Y365585D02*
D03*
X279693D02*
D03*
Y368144D02*
D03*
Y370703D02*
D03*
X223791Y339842D02*
D03*
Y337283D02*
D03*
Y334724D02*
D03*
X215721D02*
D03*
Y339842D02*
D03*
X271622Y312203D02*
D03*
Y307085D02*
D03*
X279693D02*
D03*
Y309644D02*
D03*
Y312203D02*
D03*
X224791Y278342D02*
D03*
Y275783D02*
D03*
Y273224D02*
D03*
X216721D02*
D03*
Y278342D02*
D03*
X213721Y170842D02*
D03*
Y165724D02*
D03*
X221791D02*
D03*
Y168283D02*
D03*
Y170842D02*
D03*
X279791Y142342D02*
D03*
Y139783D02*
D03*
Y137224D02*
D03*
X271721D02*
D03*
Y142342D02*
D03*
X213721Y117342D02*
D03*
Y112224D02*
D03*
X221791D02*
D03*
Y114783D02*
D03*
Y117342D02*
D03*
X279693Y84703D02*
D03*
Y82144D02*
D03*
Y79585D02*
D03*
X271622D02*
D03*
Y84703D02*
D03*
D133*
X302008Y338656D02*
D03*
X305158D02*
D03*
X302008Y333144D02*
D03*
X305158D02*
D03*
X246106Y307795D02*
D03*
X249256D02*
D03*
X246106Y302284D02*
D03*
X249256D02*
D03*
X302008Y280156D02*
D03*
X305158D02*
D03*
X302008Y274644D02*
D03*
X305158D02*
D03*
X247106Y246295D02*
D03*
X250256D02*
D03*
X247106Y240784D02*
D03*
X250256D02*
D03*
X244106Y138795D02*
D03*
X247256D02*
D03*
X244106Y133283D02*
D03*
X247256D02*
D03*
X302106Y110295D02*
D03*
X305256D02*
D03*
X302106Y104783D02*
D03*
X305256D02*
D03*
X244106Y85295D02*
D03*
X247256D02*
D03*
X244106Y79783D02*
D03*
X247256D02*
D03*
X302008Y52656D02*
D03*
X305158D02*
D03*
X302008Y47144D02*
D03*
X305158D02*
D03*
D134*
X298366Y338656D02*
D03*
X308800D02*
D03*
X298366Y333144D02*
D03*
X308800D02*
D03*
X242465Y307795D02*
D03*
X252898D02*
D03*
X242465Y302284D02*
D03*
X252898D02*
D03*
X298366Y280156D02*
D03*
X308800D02*
D03*
X298366Y274644D02*
D03*
X308800D02*
D03*
X243465Y246295D02*
D03*
X253898D02*
D03*
X243465Y240784D02*
D03*
X253898D02*
D03*
X240465Y138795D02*
D03*
X250898D02*
D03*
X240465Y133283D02*
D03*
X250898D02*
D03*
X298465Y110295D02*
D03*
X308898D02*
D03*
X298465Y104783D02*
D03*
X308898D02*
D03*
X240465Y85295D02*
D03*
X250898D02*
D03*
X240465Y79783D02*
D03*
X250898D02*
D03*
X298366Y52656D02*
D03*
X308800D02*
D03*
X298366Y47144D02*
D03*
X308800D02*
D03*
M02*
