G04*
G04 #@! TF.GenerationSoftware,Altium Limited,Altium Designer,20.1.11 (218)*
G04*
G04 Layer_Physical_Order=3*
G04 Layer_Color=16737945*
%FSLAX25Y25*%
%MOIN*%
G70*
G04*
G04 #@! TF.SameCoordinates,6CC8ACCB-2A8E-4504-AA76-58F5339EE6F1*
G04*
G04*
G04 #@! TF.FilePolarity,Positive*
G04*
G01*
G75*
%ADD95C,0.01772*%
%ADD100C,0.01400*%
%ADD103C,0.07874*%
%ADD110C,0.05512*%
%ADD115C,0.02362*%
G36*
X66959Y343776D02*
Y287500D01*
X67117Y287117D01*
X67117Y287117D01*
X67500Y286735D01*
Y286000D01*
X94000Y259500D01*
Y256000D01*
X98566Y251434D01*
X98553Y251313D01*
X98004Y250912D01*
X98000Y250913D01*
X97459Y250805D01*
X97001Y250499D01*
X96695Y250041D01*
X96679Y249964D01*
X96256Y249646D01*
X95715Y249753D01*
X95174Y249646D01*
X94716Y249340D01*
X94410Y248881D01*
X94302Y248341D01*
X94410Y247800D01*
X94716Y247341D01*
X95174Y247035D01*
X95715Y246927D01*
X96256Y247035D01*
X96714Y247341D01*
X97021Y247800D01*
X97036Y247876D01*
X97459Y248195D01*
X98000Y248087D01*
X98541Y248195D01*
X98758Y248340D01*
X98982Y248246D01*
X99244Y248063D01*
X99336Y247601D01*
X99643Y247143D01*
X100101Y246836D01*
X100642Y246729D01*
X101182Y246836D01*
X101641Y247143D01*
X101947Y247601D01*
X102055Y248142D01*
X101997Y248432D01*
X102314Y248898D01*
X102682Y248938D01*
X106800Y244821D01*
X133179Y244821D01*
X136500Y241500D01*
X136500Y193000D01*
X132000Y188500D01*
X107000Y188500D01*
X102000Y183500D01*
X100880Y183500D01*
X100831Y184000D01*
X100841Y184002D01*
X101299Y184308D01*
X101606Y184767D01*
X101713Y185308D01*
X101606Y185848D01*
X101299Y186307D01*
X100841Y186613D01*
X100300Y186720D01*
X99759Y186613D01*
X99301Y186307D01*
X98995Y185848D01*
X98887Y185308D01*
X98995Y184767D01*
X99301Y184308D01*
X99759Y184002D01*
X99770Y184000D01*
X99720Y183500D01*
X98000Y183500D01*
X94000Y179500D01*
X94000Y167000D01*
X114359Y146641D01*
X150859Y146641D01*
X161000Y136500D01*
X161000Y124650D01*
X160500Y124498D01*
X160499Y124499D01*
X160041Y124805D01*
X159500Y124913D01*
X158959Y124805D01*
X158501Y124499D01*
X158195Y124041D01*
X158087Y123500D01*
X158195Y122959D01*
X158501Y122501D01*
X158959Y122195D01*
X159500Y122087D01*
X160041Y122195D01*
X160499Y122501D01*
X160500Y122502D01*
X161000Y122351D01*
X161000Y97112D01*
X160500Y96854D01*
X160156Y97084D01*
X159500Y97214D01*
X158844Y97084D01*
X158288Y96712D01*
X157916Y96156D01*
X157786Y95500D01*
X157916Y94844D01*
X158288Y94288D01*
X158844Y93916D01*
X159500Y93786D01*
X160156Y93916D01*
X160500Y94146D01*
X161000Y93888D01*
Y92000D01*
X192488Y60512D01*
X192251Y60156D01*
X192120Y59500D01*
X192251Y58844D01*
X192622Y58288D01*
X193178Y57916D01*
X193834Y57786D01*
X194490Y57916D01*
X194846Y58154D01*
X199000Y54000D01*
X227385Y54000D01*
X227416Y53844D01*
X227788Y53288D01*
X228344Y52916D01*
X229000Y52786D01*
X229347Y52855D01*
X229782Y52503D01*
X229791Y52472D01*
X229916Y51844D01*
X230288Y51288D01*
X230844Y50916D01*
X231500Y50786D01*
X232156Y50916D01*
X232712Y51288D01*
X233084Y51844D01*
X233214Y52500D01*
X233084Y53156D01*
X232854Y53500D01*
X233113Y54000D01*
X458000Y54000D01*
X513138Y109138D01*
X529070D01*
X529119Y108638D01*
X528844Y108584D01*
X528288Y108212D01*
X527916Y107656D01*
X527786Y107000D01*
X527916Y106344D01*
X528288Y105788D01*
X528844Y105416D01*
X529500Y105286D01*
X530156Y105416D01*
X530712Y105788D01*
X531084Y106344D01*
X531214Y107000D01*
X531084Y107656D01*
X530712Y108212D01*
X530156Y108584D01*
X529881Y108638D01*
X529930Y109138D01*
X553709Y109138D01*
Y2039D01*
X2039D01*
X2039Y115437D01*
X1884Y116217D01*
X1442Y116879D01*
X780Y117321D01*
X-0Y117476D01*
X-23933D01*
X-23983Y117466D01*
X-24033Y117474D01*
X-24419Y117455D01*
X-24566Y117418D01*
X-24717D01*
X-25474Y117267D01*
X-25659Y117191D01*
X-25856Y117151D01*
X-26569Y116856D01*
X-26736Y116744D01*
X-26922Y116668D01*
X-27564Y116239D01*
X-27706Y116097D01*
X-27873Y115985D01*
X-28418Y115439D01*
X-28530Y115272D01*
X-28672Y115130D01*
X-29101Y114489D01*
X-29178Y114303D01*
X-29289Y114136D01*
X-29585Y113423D01*
X-29624Y113226D01*
X-29700Y113041D01*
X-29851Y112284D01*
Y112133D01*
X-29888Y111986D01*
X-29907Y111600D01*
X-29899Y111550D01*
X-29909Y111500D01*
Y109602D01*
X-32838D01*
Y121343D01*
X-32848Y121392D01*
X-32841Y121443D01*
X-32860Y121828D01*
X-32896Y121975D01*
Y122126D01*
X-33047Y122883D01*
X-33124Y123069D01*
X-33163Y123266D01*
X-33458Y123979D01*
X-33570Y124146D01*
X-33647Y124331D01*
X-34076Y124973D01*
X-34218Y125115D01*
X-34329Y125282D01*
X-34875Y125828D01*
X-35042Y125939D01*
X-35184Y126081D01*
X-35826Y126510D01*
X-36011Y126587D01*
X-36178Y126699D01*
X-36891Y126994D01*
X-37088Y127033D01*
X-37274Y127110D01*
X-38031Y127260D01*
X-38182D01*
X-38328Y127297D01*
X-38714Y127316D01*
X-38765Y127309D01*
X-38814Y127319D01*
X-56461D01*
Y183969D01*
X-43855D01*
X-43572Y183559D01*
X-43586Y183469D01*
X-43714Y182827D01*
X-43584Y182171D01*
X-43212Y181615D01*
X-42656Y181243D01*
X-42000Y181113D01*
X-41344Y181243D01*
X-40788Y181615D01*
X-40416Y182171D01*
X-40286Y182827D01*
X-40414Y183469D01*
X-40428Y183559D01*
X-40145Y183969D01*
X-38028D01*
X-37961Y183982D01*
X-37894Y183973D01*
X-37278Y184013D01*
X-37084Y184065D01*
X-36883Y184079D01*
X-35692Y184398D01*
X-35453Y184516D01*
X-35200Y184602D01*
X-34132Y185218D01*
X-33931Y185394D01*
X-33710Y185542D01*
X-32838Y186414D01*
X-32689Y186636D01*
X-32513Y186837D01*
X-31897Y187905D01*
X-31811Y188157D01*
X-31693Y188397D01*
X-31374Y189588D01*
X-31356Y189854D01*
X-31304Y190116D01*
Y191349D01*
X-31356Y191611D01*
X-31374Y191877D01*
X-31693Y193068D01*
X-31811Y193307D01*
X-31897Y193560D01*
X-32513Y194628D01*
X-32689Y194828D01*
X-32838Y195050D01*
X-33710Y195922D01*
X-33931Y196071D01*
X-34132Y196246D01*
X-35200Y196863D01*
X-35453Y196949D01*
X-35692Y197067D01*
X-36883Y197386D01*
X-37084Y197399D01*
X-37278Y197451D01*
X-37894Y197492D01*
X-37961Y197483D01*
X-38028Y197496D01*
X-56461D01*
Y266744D01*
X-38814D01*
X-38765Y266754D01*
X-38714Y266747D01*
X-38328Y266766D01*
X-38182Y266803D01*
X-38031D01*
X-37274Y266953D01*
X-37088Y267030D01*
X-36891Y267069D01*
X-36178Y267364D01*
X-36011Y267476D01*
X-35826Y267553D01*
X-35184Y267982D01*
X-35042Y268124D01*
X-34875Y268235D01*
X-34329Y268781D01*
X-34218Y268948D01*
X-34076Y269090D01*
X-33647Y269732D01*
X-33570Y269917D01*
X-33458Y270084D01*
X-33163Y270797D01*
X-33124Y270994D01*
X-33047Y271180D01*
X-32896Y271937D01*
Y272088D01*
X-32860Y272235D01*
X-32841Y272620D01*
X-32848Y272671D01*
X-32838Y272721D01*
Y284461D01*
X-29909D01*
Y282563D01*
X-29899Y282513D01*
X-29907Y282463D01*
X-29888Y282077D01*
X-29851Y281930D01*
Y281779D01*
X-29700Y281022D01*
X-29624Y280837D01*
X-29585Y280640D01*
X-29289Y279927D01*
X-29177Y279760D01*
X-29101Y279574D01*
X-28672Y278932D01*
X-28530Y278790D01*
X-28418Y278624D01*
X-27873Y278078D01*
X-27706Y277966D01*
X-27564Y277824D01*
X-26922Y277395D01*
X-26736Y277319D01*
X-26569Y277207D01*
X-25856Y276912D01*
X-25659Y276872D01*
X-25474Y276796D01*
X-24717Y276645D01*
X-24566D01*
X-24419Y276608D01*
X-24033Y276589D01*
X-23983Y276597D01*
X-23933Y276587D01*
X-75D01*
X705Y276742D01*
X1367Y277184D01*
X1809Y277846D01*
X1964Y278626D01*
X1964Y344459D01*
X66276D01*
X66959Y343776D01*
D02*
G37*
G36*
X553709Y254720D02*
X553209Y254645D01*
X552903Y255652D01*
X552263Y256851D01*
X551401Y257901D01*
X550351Y258763D01*
X549152Y259403D01*
X547852Y259798D01*
X546500Y259931D01*
X545148Y259798D01*
X543848Y259403D01*
X542649Y258763D01*
X541599Y257901D01*
X540737Y256851D01*
X540097Y255652D01*
X539702Y254352D01*
X539569Y253000D01*
X539702Y251648D01*
X540097Y250348D01*
X540737Y249149D01*
X541599Y248099D01*
X542649Y247237D01*
X543848Y246597D01*
X545148Y246202D01*
X546500Y246069D01*
X547852Y246202D01*
X549152Y246597D01*
X550351Y247237D01*
X551401Y248099D01*
X552263Y249149D01*
X552903Y250348D01*
X553209Y251355D01*
X553709Y251280D01*
Y142720D01*
X553209Y142645D01*
X552903Y143652D01*
X552263Y144851D01*
X551401Y145901D01*
X550351Y146763D01*
X549152Y147403D01*
X547852Y147798D01*
X546500Y147931D01*
X545148Y147798D01*
X543848Y147403D01*
X542649Y146763D01*
X541599Y145901D01*
X540737Y144851D01*
X540097Y143652D01*
X539702Y142352D01*
X539569Y141000D01*
X539702Y139648D01*
X540097Y138348D01*
X540737Y137149D01*
X541599Y136099D01*
X542649Y135237D01*
X543848Y134597D01*
X545148Y134202D01*
X546500Y134069D01*
X547852Y134202D01*
X549152Y134597D01*
X550351Y135237D01*
X551401Y136099D01*
X552263Y137149D01*
X552903Y138348D01*
X553209Y139355D01*
X553709Y139280D01*
Y110000D01*
X512500D01*
X457500Y55000D01*
X230615D01*
X230584Y55156D01*
X230212Y55712D01*
X229656Y56084D01*
X229000Y56214D01*
X228653Y56145D01*
X228218Y56497D01*
X228208Y56528D01*
X228084Y57156D01*
X227712Y57712D01*
X227156Y58084D01*
X226500Y58214D01*
X226153Y58145D01*
X225718Y58497D01*
X225709Y58528D01*
X225584Y59156D01*
X225212Y59712D01*
X224656Y60084D01*
X224000Y60214D01*
X223653Y60145D01*
X223218Y60497D01*
X223208Y60528D01*
X223084Y61156D01*
X222712Y61712D01*
X222156Y62084D01*
X221500Y62214D01*
X220844Y62084D01*
X220288Y61712D01*
X219916Y61156D01*
X219786Y60500D01*
X219916Y59844D01*
X220288Y59288D01*
X220844Y58916D01*
X221500Y58786D01*
X221847Y58855D01*
X222282Y58503D01*
X222291Y58472D01*
X222416Y57844D01*
X222788Y57288D01*
X223344Y56916D01*
X224000Y56786D01*
X224347Y56855D01*
X224782Y56503D01*
X224792Y56472D01*
X224916Y55844D01*
X225146Y55500D01*
X224887Y55000D01*
X200000D01*
X195540Y59460D01*
X195548Y59500D01*
X195418Y60156D01*
X195046Y60712D01*
X194605Y61007D01*
X194569Y61155D01*
Y61414D01*
X194605Y61563D01*
X195046Y61857D01*
X195418Y62414D01*
X195548Y63069D01*
X195418Y63725D01*
X195046Y64281D01*
X194605Y64576D01*
X194569Y64724D01*
Y64984D01*
X194605Y65132D01*
X195046Y65427D01*
X195418Y65983D01*
X195548Y66639D01*
X195418Y67295D01*
X195046Y67851D01*
X194605Y68146D01*
X194569Y68294D01*
Y68553D01*
X194605Y68701D01*
X195046Y68996D01*
X195418Y69552D01*
X195548Y70208D01*
X195418Y70864D01*
X195046Y71420D01*
X194490Y71792D01*
X193834Y71922D01*
X193178Y71792D01*
X192622Y71420D01*
X192251Y70864D01*
X192120Y70208D01*
X192251Y69552D01*
X192622Y68996D01*
X193063Y68701D01*
X193099Y68553D01*
Y68294D01*
X193063Y68146D01*
X192622Y67851D01*
X192251Y67295D01*
X192120Y66639D01*
X192251Y65983D01*
X192622Y65427D01*
X193063Y65132D01*
X193099Y64984D01*
Y64724D01*
X193063Y64576D01*
X192622Y64281D01*
X192251Y63725D01*
X192206Y63501D01*
X191663Y63337D01*
X173655Y81345D01*
X173902Y81806D01*
X174000Y81786D01*
X174656Y81916D01*
X175212Y82288D01*
X175584Y82844D01*
X175714Y83500D01*
X175584Y84156D01*
X175212Y84712D01*
X174656Y85084D01*
X174000Y85214D01*
X173344Y85084D01*
X172788Y84712D01*
X172416Y84156D01*
X172286Y83500D01*
X172306Y83402D01*
X171845Y83155D01*
X162500Y92500D01*
Y135570D01*
X163000Y135719D01*
X163288Y135288D01*
X163844Y134916D01*
X164500Y134786D01*
X165156Y134916D01*
X165712Y135288D01*
X166084Y135844D01*
X166214Y136500D01*
X166084Y137156D01*
X165712Y137712D01*
X165156Y138084D01*
X164500Y138214D01*
X163844Y138084D01*
X163288Y137712D01*
X163000Y137281D01*
X162500Y137430D01*
Y137500D01*
X152500Y147500D01*
X118113D01*
X117854Y148000D01*
X118084Y148344D01*
X118214Y149000D01*
X118084Y149656D01*
X117712Y150212D01*
X117156Y150584D01*
X116500Y150714D01*
X115844Y150584D01*
X115288Y150212D01*
X114916Y149656D01*
X114786Y149000D01*
X114916Y148344D01*
X115065Y148122D01*
X114677Y147803D01*
X95000Y167480D01*
Y179000D01*
X98500Y182500D01*
X102550D01*
X106522Y186473D01*
X106967Y186211D01*
X106887Y185808D01*
X106995Y185267D01*
X107301Y184808D01*
X107759Y184502D01*
X108300Y184395D01*
X108841Y184502D01*
X109299Y184808D01*
X109606Y185267D01*
X109713Y185808D01*
X109606Y186348D01*
X109299Y186807D01*
X109010Y187000D01*
X109161Y187500D01*
X121439D01*
X121590Y187000D01*
X121301Y186807D01*
X120995Y186348D01*
X120887Y185808D01*
X120995Y185267D01*
X121301Y184808D01*
X121759Y184502D01*
X122300Y184395D01*
X122841Y184502D01*
X123299Y184808D01*
X123606Y185267D01*
X123713Y185808D01*
X123606Y186348D01*
X123299Y186807D01*
X123010Y187000D01*
X123161Y187500D01*
X132500D01*
X137500Y192500D01*
Y242500D01*
X134000Y246000D01*
X107500D01*
X103500Y250000D01*
X101500Y250000D01*
X95000Y256500D01*
X95000Y260000D01*
X67500Y287500D01*
Y344000D01*
X66500Y345000D01*
X1964D01*
Y392024D01*
X553709D01*
Y254720D01*
D02*
G37*
%LPC*%
G36*
X32500Y337530D02*
X31586Y337410D01*
X30735Y337057D01*
X30004Y336496D01*
X29443Y335765D01*
X29090Y334914D01*
X28970Y334000D01*
X29090Y333086D01*
X29443Y332235D01*
X30004Y331504D01*
X30735Y330943D01*
X31586Y330590D01*
X32500Y330470D01*
X33414Y330590D01*
X34265Y330943D01*
X34996Y331504D01*
X35557Y332235D01*
X35910Y333086D01*
X36030Y334000D01*
X35910Y334914D01*
X35557Y335765D01*
X34996Y336496D01*
X34265Y337057D01*
X33414Y337410D01*
X32500Y337530D01*
D02*
G37*
G36*
X22500D02*
X21586Y337410D01*
X20735Y337057D01*
X20004Y336496D01*
X19443Y335765D01*
X19090Y334914D01*
X18970Y334000D01*
X19090Y333086D01*
X19443Y332235D01*
X20004Y331504D01*
X20735Y330943D01*
X21586Y330590D01*
X22500Y330470D01*
X23414Y330590D01*
X24265Y330943D01*
X24996Y331504D01*
X25557Y332235D01*
X25910Y333086D01*
X26030Y334000D01*
X25910Y334914D01*
X25557Y335765D01*
X24996Y336496D01*
X24265Y337057D01*
X23414Y337410D01*
X22500Y337530D01*
D02*
G37*
G36*
X32500Y327530D02*
X31586Y327410D01*
X30735Y327057D01*
X30004Y326496D01*
X29443Y325765D01*
X29090Y324914D01*
X28970Y324000D01*
X29090Y323086D01*
X29443Y322235D01*
X30004Y321504D01*
X30735Y320943D01*
X31586Y320590D01*
X32500Y320470D01*
X33414Y320590D01*
X34265Y320943D01*
X34996Y321504D01*
X35557Y322235D01*
X35910Y323086D01*
X36030Y324000D01*
X35910Y324914D01*
X35557Y325765D01*
X34996Y326496D01*
X34265Y327057D01*
X33414Y327410D01*
X32500Y327530D01*
D02*
G37*
G36*
X22500D02*
X21586Y327410D01*
X20735Y327057D01*
X20004Y326496D01*
X19443Y325765D01*
X19090Y324914D01*
X18970Y324000D01*
X19090Y323086D01*
X19443Y322235D01*
X20004Y321504D01*
X20735Y320943D01*
X21586Y320590D01*
X22500Y320470D01*
X23414Y320590D01*
X24265Y320943D01*
X24996Y321504D01*
X25557Y322235D01*
X25910Y323086D01*
X26030Y324000D01*
X25910Y324914D01*
X25557Y325765D01*
X24996Y326496D01*
X24265Y327057D01*
X23414Y327410D01*
X22500Y327530D01*
D02*
G37*
G36*
X59500Y305547D02*
X58064Y305358D01*
X56726Y304804D01*
X55577Y303923D01*
X54696Y302774D01*
X54142Y301436D01*
X53952Y300000D01*
X54142Y298564D01*
X54696Y297226D01*
X55577Y296077D01*
X56726Y295196D01*
X58064Y294642D01*
X59500Y294453D01*
X60936Y294642D01*
X62274Y295196D01*
X63423Y296077D01*
X64304Y297226D01*
X64858Y298564D01*
X65048Y300000D01*
X64858Y301436D01*
X64304Y302774D01*
X63423Y303923D01*
X62274Y304804D01*
X60936Y305358D01*
X59500Y305547D01*
D02*
G37*
G36*
X23779Y297059D02*
X17661D01*
Y290941D01*
X23779D01*
Y297059D01*
D02*
G37*
G36*
X34500Y297085D02*
X33701Y296980D01*
X32957Y296672D01*
X32318Y296182D01*
X31828Y295543D01*
X31520Y294799D01*
X31415Y294000D01*
X31520Y293201D01*
X31828Y292457D01*
X32318Y291818D01*
X32957Y291328D01*
X33701Y291020D01*
X34500Y290915D01*
X35299Y291020D01*
X36043Y291328D01*
X36682Y291818D01*
X37172Y292457D01*
X37480Y293201D01*
X37585Y294000D01*
X37480Y294799D01*
X37172Y295543D01*
X36682Y296182D01*
X36043Y296672D01*
X35299Y296980D01*
X34500Y297085D01*
D02*
G37*
G36*
X81000Y266214D02*
X80344Y266084D01*
X79788Y265712D01*
X79416Y265156D01*
X79286Y264500D01*
X79416Y263844D01*
X79788Y263288D01*
X80344Y262916D01*
X81000Y262786D01*
X81656Y262916D01*
X82212Y263288D01*
X82584Y263844D01*
X82714Y264500D01*
X82584Y265156D01*
X82212Y265712D01*
X81656Y266084D01*
X81000Y266214D01*
D02*
G37*
G36*
X66000D02*
X65344Y266084D01*
X64788Y265712D01*
X64416Y265156D01*
X64286Y264500D01*
X64416Y263844D01*
X64788Y263288D01*
X65344Y262916D01*
X66000Y262786D01*
X66656Y262916D01*
X67212Y263288D01*
X67584Y263844D01*
X67714Y264500D01*
X67584Y265156D01*
X67212Y265712D01*
X66656Y266084D01*
X66000Y266214D01*
D02*
G37*
G36*
X-42000Y265192D02*
X-42656Y265061D01*
X-43212Y264690D01*
X-43584Y264134D01*
X-43714Y263478D01*
X-43584Y262822D01*
X-43212Y262266D01*
X-42656Y261894D01*
X-42000Y261764D01*
X-41344Y261894D01*
X-40788Y262266D01*
X-40416Y262822D01*
X-40286Y263478D01*
X-40416Y264134D01*
X-40788Y264690D01*
X-41344Y265061D01*
X-42000Y265192D01*
D02*
G37*
G36*
X81000Y261214D02*
X80344Y261084D01*
X79788Y260712D01*
X79416Y260156D01*
X79286Y259500D01*
X79416Y258844D01*
X79788Y258288D01*
X80344Y257916D01*
X81000Y257786D01*
X81656Y257916D01*
X82212Y258288D01*
X82584Y258844D01*
X82714Y259500D01*
X82584Y260156D01*
X82212Y260712D01*
X81656Y261084D01*
X81000Y261214D01*
D02*
G37*
G36*
X66000D02*
X65344Y261084D01*
X64788Y260712D01*
X64416Y260156D01*
X64286Y259500D01*
X64416Y258844D01*
X64788Y258288D01*
X65344Y257916D01*
X66000Y257786D01*
X66656Y257916D01*
X67212Y258288D01*
X67584Y258844D01*
X67714Y259500D01*
X67584Y260156D01*
X67212Y260712D01*
X66656Y261084D01*
X66000Y261214D01*
D02*
G37*
G36*
X-39500Y260615D02*
X-40310Y260454D01*
X-40996Y259996D01*
X-41454Y259310D01*
X-41615Y258500D01*
X-41454Y257691D01*
X-40996Y257004D01*
X-40310Y256546D01*
X-39500Y256384D01*
X-38690Y256546D01*
X-38004Y257004D01*
X-37546Y257691D01*
X-37385Y258500D01*
X-37546Y259310D01*
X-38004Y259996D01*
X-38690Y260454D01*
X-39500Y260615D01*
D02*
G37*
G36*
X-42000Y256714D02*
X-42656Y256584D01*
X-43212Y256212D01*
X-43584Y255656D01*
X-43714Y255000D01*
X-43584Y254344D01*
X-43212Y253788D01*
X-42656Y253416D01*
X-42000Y253286D01*
X-41344Y253416D01*
X-40788Y253788D01*
X-40416Y254344D01*
X-40286Y255000D01*
X-40416Y255656D01*
X-40788Y256212D01*
X-41344Y256584D01*
X-42000Y256714D01*
D02*
G37*
G36*
X81000Y256214D02*
X80344Y256084D01*
X79788Y255712D01*
X79416Y255156D01*
X79286Y254500D01*
X79416Y253844D01*
X79788Y253288D01*
X80344Y252916D01*
X81000Y252786D01*
X81656Y252916D01*
X82212Y253288D01*
X82584Y253844D01*
X82714Y254500D01*
X82584Y255156D01*
X82212Y255712D01*
X81656Y256084D01*
X81000Y256214D01*
D02*
G37*
G36*
X76000D02*
X75344Y256084D01*
X74788Y255712D01*
X74416Y255156D01*
X74286Y254500D01*
X74416Y253844D01*
X74788Y253288D01*
X75344Y252916D01*
X76000Y252786D01*
X76656Y252916D01*
X77212Y253288D01*
X77584Y253844D01*
X77714Y254500D01*
X77584Y255156D01*
X77212Y255712D01*
X76656Y256084D01*
X76000Y256214D01*
D02*
G37*
G36*
X71000D02*
X70344Y256084D01*
X69788Y255712D01*
X69416Y255156D01*
X69286Y254500D01*
X69416Y253844D01*
X69788Y253288D01*
X70344Y252916D01*
X71000Y252786D01*
X71656Y252916D01*
X72212Y253288D01*
X72584Y253844D01*
X72714Y254500D01*
X72584Y255156D01*
X72212Y255712D01*
X71656Y256084D01*
X71000Y256214D01*
D02*
G37*
G36*
X66000D02*
X65344Y256084D01*
X64788Y255712D01*
X64416Y255156D01*
X64286Y254500D01*
X64416Y253844D01*
X64788Y253288D01*
X65344Y252916D01*
X66000Y252786D01*
X66656Y252916D01*
X67212Y253288D01*
X67584Y253844D01*
X67714Y254500D01*
X67584Y255156D01*
X67212Y255712D01*
X66656Y256084D01*
X66000Y256214D01*
D02*
G37*
G36*
X-42000Y250714D02*
X-42656Y250584D01*
X-43212Y250212D01*
X-43584Y249656D01*
X-43714Y249000D01*
X-43584Y248344D01*
X-43212Y247788D01*
X-42656Y247416D01*
X-42000Y247286D01*
X-41344Y247416D01*
X-40788Y247788D01*
X-40416Y248344D01*
X-40286Y249000D01*
X-40416Y249656D01*
X-40788Y250212D01*
X-41344Y250584D01*
X-42000Y250714D01*
D02*
G37*
G36*
Y244214D02*
X-42656Y244084D01*
X-43212Y243712D01*
X-43584Y243156D01*
X-43714Y242500D01*
X-43584Y241844D01*
X-43212Y241288D01*
X-42656Y240916D01*
X-42000Y240786D01*
X-41344Y240916D01*
X-40788Y241288D01*
X-40416Y241844D01*
X-40286Y242500D01*
X-40416Y243156D01*
X-40788Y243712D01*
X-41344Y244084D01*
X-42000Y244214D01*
D02*
G37*
G36*
X-33696Y233794D02*
X-34237Y233686D01*
X-34695Y233380D01*
X-35002Y232921D01*
X-35109Y232381D01*
X-35389Y232391D01*
X-35500Y232413D01*
X-36041Y232305D01*
X-36499Y231999D01*
X-36805Y231541D01*
X-36913Y231000D01*
X-36805Y230459D01*
X-36499Y230001D01*
X-36041Y229695D01*
X-35500Y229587D01*
X-34959Y229695D01*
X-34501Y230001D01*
X-34195Y230459D01*
X-34087Y231000D01*
X-33807Y230990D01*
X-33696Y230968D01*
X-33155Y231075D01*
X-32697Y231382D01*
X-32391Y231840D01*
X-32283Y232381D01*
X-32391Y232921D01*
X-32697Y233380D01*
X-33155Y233686D01*
X-33696Y233794D01*
D02*
G37*
G36*
X-42000Y235214D02*
X-42656Y235084D01*
X-43212Y234712D01*
X-43584Y234156D01*
X-43714Y233500D01*
X-43584Y232844D01*
X-43212Y232288D01*
X-42656Y231916D01*
X-42000Y231786D01*
X-41344Y231916D01*
X-40788Y232288D01*
X-40416Y232844D01*
X-40286Y233500D01*
X-40416Y234156D01*
X-40788Y234712D01*
X-41344Y235084D01*
X-42000Y235214D01*
D02*
G37*
G36*
X124264Y233177D02*
X123723Y233069D01*
X123265Y232763D01*
X122958Y232305D01*
X122851Y231764D01*
X122958Y231223D01*
X123265Y230765D01*
X123723Y230458D01*
X124264Y230351D01*
X124804Y230458D01*
X125263Y230765D01*
X125569Y231223D01*
X125677Y231764D01*
X125569Y232305D01*
X125263Y232763D01*
X124804Y233069D01*
X124264Y233177D01*
D02*
G37*
G36*
X118358D02*
X117818Y233069D01*
X117359Y232763D01*
X117053Y232305D01*
X116945Y231764D01*
X117053Y231223D01*
X117359Y230765D01*
X117818Y230458D01*
X118358Y230351D01*
X118899Y230458D01*
X119357Y230765D01*
X119664Y231223D01*
X119771Y231764D01*
X119664Y232305D01*
X119357Y232763D01*
X118899Y233069D01*
X118358Y233177D01*
D02*
G37*
G36*
X112453D02*
X111912Y233069D01*
X111454Y232763D01*
X111147Y232305D01*
X111040Y231764D01*
X111147Y231223D01*
X111454Y230765D01*
X111912Y230458D01*
X112453Y230351D01*
X112994Y230458D01*
X113452Y230765D01*
X113758Y231223D01*
X113866Y231764D01*
X113758Y232305D01*
X113452Y232763D01*
X112994Y233069D01*
X112453Y233177D01*
D02*
G37*
G36*
X106547D02*
X106007Y233069D01*
X105548Y232763D01*
X105242Y232305D01*
X105134Y231764D01*
X105242Y231223D01*
X105548Y230765D01*
X106007Y230458D01*
X106547Y230351D01*
X107088Y230458D01*
X107546Y230765D01*
X107853Y231223D01*
X107960Y231764D01*
X107853Y232305D01*
X107546Y232763D01*
X107088Y233069D01*
X106547Y233177D01*
D02*
G37*
G36*
X100642D02*
X100101Y233069D01*
X99643Y232763D01*
X99336Y232305D01*
X99229Y231764D01*
X99336Y231223D01*
X99643Y230765D01*
X100101Y230458D01*
X100642Y230351D01*
X101182Y230458D01*
X101641Y230765D01*
X101947Y231223D01*
X102055Y231764D01*
X101947Y232305D01*
X101641Y232763D01*
X101182Y233069D01*
X100642Y233177D01*
D02*
G37*
G36*
X94736D02*
X94195Y233069D01*
X93737Y232763D01*
X93431Y232305D01*
X93323Y231764D01*
X93431Y231223D01*
X93737Y230765D01*
X94195Y230458D01*
X94736Y230351D01*
X95277Y230458D01*
X95735Y230765D01*
X96042Y231223D01*
X96149Y231764D01*
X96042Y232305D01*
X95735Y232763D01*
X95277Y233069D01*
X94736Y233177D01*
D02*
G37*
G36*
X124264Y227271D02*
X123723Y227164D01*
X123265Y226857D01*
X122958Y226399D01*
X122851Y225858D01*
X122958Y225318D01*
X123265Y224859D01*
X123723Y224553D01*
X124264Y224445D01*
X124804Y224553D01*
X125263Y224859D01*
X125569Y225318D01*
X125677Y225858D01*
X125569Y226399D01*
X125263Y226857D01*
X124804Y227164D01*
X124264Y227271D01*
D02*
G37*
G36*
X118358D02*
X117818Y227164D01*
X117359Y226857D01*
X117053Y226399D01*
X116945Y225858D01*
X117053Y225318D01*
X117359Y224859D01*
X117818Y224553D01*
X118358Y224445D01*
X118899Y224553D01*
X119357Y224859D01*
X119664Y225318D01*
X119771Y225858D01*
X119664Y226399D01*
X119357Y226857D01*
X118899Y227164D01*
X118358Y227271D01*
D02*
G37*
G36*
X112453D02*
X111912Y227164D01*
X111454Y226857D01*
X111147Y226399D01*
X111040Y225858D01*
X111147Y225318D01*
X111454Y224859D01*
X111912Y224553D01*
X112453Y224445D01*
X112994Y224553D01*
X113452Y224859D01*
X113758Y225318D01*
X113866Y225858D01*
X113758Y226399D01*
X113452Y226857D01*
X112994Y227164D01*
X112453Y227271D01*
D02*
G37*
G36*
X106547D02*
X106007Y227164D01*
X105548Y226857D01*
X105242Y226399D01*
X105134Y225858D01*
X105242Y225318D01*
X105548Y224859D01*
X106007Y224553D01*
X106547Y224445D01*
X107088Y224553D01*
X107546Y224859D01*
X107853Y225318D01*
X107960Y225858D01*
X107853Y226399D01*
X107546Y226857D01*
X107088Y227164D01*
X106547Y227271D01*
D02*
G37*
G36*
X100642D02*
X100101Y227164D01*
X99643Y226857D01*
X99336Y226399D01*
X99229Y225858D01*
X99336Y225318D01*
X99643Y224859D01*
X100101Y224553D01*
X100642Y224445D01*
X101182Y224553D01*
X101641Y224859D01*
X101947Y225318D01*
X102055Y225858D01*
X101947Y226399D01*
X101641Y226857D01*
X101182Y227164D01*
X100642Y227271D01*
D02*
G37*
G36*
X94736D02*
X94195Y227164D01*
X93737Y226857D01*
X93431Y226399D01*
X93323Y225858D01*
X93431Y225318D01*
X93737Y224859D01*
X94195Y224553D01*
X94736Y224445D01*
X95277Y224553D01*
X95735Y224859D01*
X96042Y225318D01*
X96149Y225858D01*
X96042Y226399D01*
X95735Y226857D01*
X95277Y227164D01*
X94736Y227271D01*
D02*
G37*
G36*
X78300Y227220D02*
X77759Y227113D01*
X77301Y226807D01*
X76995Y226348D01*
X76887Y225807D01*
X76995Y225267D01*
X77301Y224808D01*
X77759Y224502D01*
X78300Y224394D01*
X78841Y224502D01*
X79299Y224808D01*
X79606Y225267D01*
X79713Y225807D01*
X79606Y226348D01*
X79299Y226807D01*
X78841Y227113D01*
X78300Y227220D01*
D02*
G37*
G36*
X65300D02*
X64759Y227113D01*
X64301Y226807D01*
X63995Y226348D01*
X63887Y225807D01*
X63995Y225267D01*
X64301Y224808D01*
X64759Y224502D01*
X65300Y224394D01*
X65841Y224502D01*
X66299Y224808D01*
X66606Y225267D01*
X66713Y225807D01*
X66606Y226348D01*
X66299Y226807D01*
X65841Y227113D01*
X65300Y227220D01*
D02*
G37*
G36*
X-42000Y225714D02*
X-42656Y225584D01*
X-43212Y225212D01*
X-43584Y224656D01*
X-43714Y224000D01*
X-43584Y223344D01*
X-43212Y222788D01*
X-42656Y222416D01*
X-42000Y222286D01*
X-41344Y222416D01*
X-40788Y222788D01*
X-40416Y223344D01*
X-40286Y224000D01*
X-40416Y224656D01*
X-40788Y225212D01*
X-41344Y225584D01*
X-42000Y225714D01*
D02*
G37*
G36*
X-31996Y221983D02*
X-32537Y221875D01*
X-32995Y221569D01*
X-33301Y221110D01*
X-33308Y221075D01*
X-33459Y220805D01*
X-34000Y220913D01*
X-34541Y220805D01*
X-34999Y220499D01*
X-35305Y220041D01*
X-35413Y219500D01*
X-35305Y218959D01*
X-34999Y218501D01*
X-34541Y218195D01*
X-34000Y218087D01*
X-33459Y218195D01*
X-33001Y218501D01*
X-32695Y218959D01*
X-32688Y218995D01*
X-32537Y219264D01*
X-31996Y219157D01*
X-31455Y219264D01*
X-30997Y219571D01*
X-30691Y220029D01*
X-30583Y220570D01*
X-30691Y221110D01*
X-30997Y221569D01*
X-31455Y221875D01*
X-31996Y221983D01*
D02*
G37*
G36*
X112453Y221366D02*
X111912Y221258D01*
X111454Y220952D01*
X111147Y220494D01*
X111144Y220475D01*
X110703Y220239D01*
X110401Y220364D01*
X109500Y220482D01*
X108599Y220364D01*
X108297Y220239D01*
X107856Y220475D01*
X107853Y220494D01*
X107546Y220952D01*
X107088Y221258D01*
X106547Y221366D01*
X106007Y221258D01*
X105548Y220952D01*
X105242Y220494D01*
X105134Y219953D01*
X105242Y219412D01*
X105548Y218954D01*
X106007Y218647D01*
X106025Y218644D01*
X106261Y218203D01*
X106136Y217901D01*
X106017Y217000D01*
X106136Y216099D01*
X106261Y215797D01*
X106025Y215356D01*
X106007Y215353D01*
X105548Y215046D01*
X105242Y214588D01*
X105134Y214047D01*
X105242Y213507D01*
X105548Y213048D01*
X106007Y212742D01*
X106547Y212634D01*
X107088Y212742D01*
X107546Y213048D01*
X107853Y213507D01*
X107856Y213525D01*
X108297Y213761D01*
X108599Y213636D01*
X109500Y213517D01*
X110401Y213636D01*
X110703Y213761D01*
X111144Y213525D01*
X111147Y213507D01*
X111454Y213048D01*
X111912Y212742D01*
X112453Y212634D01*
X112994Y212742D01*
X113452Y213048D01*
X113758Y213507D01*
X113866Y214047D01*
X113758Y214588D01*
X113452Y215046D01*
X112994Y215353D01*
X112975Y215356D01*
X112739Y215797D01*
X112864Y216099D01*
X112982Y217000D01*
X112864Y217901D01*
X112739Y218203D01*
X112975Y218644D01*
X112994Y218647D01*
X113452Y218954D01*
X113758Y219412D01*
X113866Y219953D01*
X113758Y220494D01*
X113452Y220952D01*
X112994Y221258D01*
X112453Y221366D01*
D02*
G37*
G36*
X124264D02*
X123723Y221258D01*
X123265Y220952D01*
X122958Y220494D01*
X122851Y219953D01*
X122958Y219412D01*
X123265Y218954D01*
X123723Y218647D01*
X124264Y218540D01*
X124804Y218647D01*
X125263Y218954D01*
X125569Y219412D01*
X125677Y219953D01*
X125569Y220494D01*
X125263Y220952D01*
X124804Y221258D01*
X124264Y221366D01*
D02*
G37*
G36*
X118358D02*
X117818Y221258D01*
X117359Y220952D01*
X117053Y220494D01*
X116945Y219953D01*
X117053Y219412D01*
X117359Y218954D01*
X117818Y218647D01*
X118358Y218540D01*
X118899Y218647D01*
X119357Y218954D01*
X119664Y219412D01*
X119771Y219953D01*
X119664Y220494D01*
X119357Y220952D01*
X118899Y221258D01*
X118358Y221366D01*
D02*
G37*
G36*
X100642D02*
X100101Y221258D01*
X99643Y220952D01*
X99336Y220494D01*
X99229Y219953D01*
X99336Y219412D01*
X99643Y218954D01*
X100101Y218647D01*
X100642Y218540D01*
X101182Y218647D01*
X101641Y218954D01*
X101947Y219412D01*
X102055Y219953D01*
X101947Y220494D01*
X101641Y220952D01*
X101182Y221258D01*
X100642Y221366D01*
D02*
G37*
G36*
X94736D02*
X94195Y221258D01*
X93737Y220952D01*
X93431Y220494D01*
X93323Y219953D01*
X93431Y219412D01*
X93737Y218954D01*
X94195Y218647D01*
X94736Y218540D01*
X95277Y218647D01*
X95735Y218954D01*
X96042Y219412D01*
X96149Y219953D01*
X96042Y220494D01*
X95735Y220952D01*
X95277Y221258D01*
X94736Y221366D01*
D02*
G37*
G36*
X-42000Y216214D02*
X-42656Y216084D01*
X-43212Y215712D01*
X-43584Y215156D01*
X-43714Y214500D01*
X-43584Y213844D01*
X-43212Y213288D01*
X-42656Y212916D01*
X-42000Y212786D01*
X-41344Y212916D01*
X-40788Y213288D01*
X-40416Y213844D01*
X-40286Y214500D01*
X-40416Y215156D01*
X-40788Y215712D01*
X-41344Y216084D01*
X-42000Y216214D01*
D02*
G37*
G36*
X124264Y215460D02*
X123723Y215353D01*
X123265Y215046D01*
X122958Y214588D01*
X122851Y214047D01*
X122958Y213507D01*
X123265Y213048D01*
X123723Y212742D01*
X124264Y212634D01*
X124804Y212742D01*
X125263Y213048D01*
X125569Y213507D01*
X125677Y214047D01*
X125569Y214588D01*
X125263Y215046D01*
X124804Y215353D01*
X124264Y215460D01*
D02*
G37*
G36*
X118358D02*
X117818Y215353D01*
X117359Y215046D01*
X117053Y214588D01*
X116945Y214047D01*
X117053Y213507D01*
X117359Y213048D01*
X117818Y212742D01*
X118358Y212634D01*
X118899Y212742D01*
X119357Y213048D01*
X119664Y213507D01*
X119771Y214047D01*
X119664Y214588D01*
X119357Y215046D01*
X118899Y215353D01*
X118358Y215460D01*
D02*
G37*
G36*
X100642D02*
X100101Y215353D01*
X99643Y215046D01*
X99336Y214588D01*
X99229Y214047D01*
X99336Y213507D01*
X99643Y213048D01*
X100101Y212742D01*
X100642Y212634D01*
X101182Y212742D01*
X101641Y213048D01*
X101947Y213507D01*
X102055Y214047D01*
X101947Y214588D01*
X101641Y215046D01*
X101182Y215353D01*
X100642Y215460D01*
D02*
G37*
G36*
X94736D02*
X94195Y215353D01*
X93737Y215046D01*
X93431Y214588D01*
X93323Y214047D01*
X93431Y213507D01*
X93737Y213048D01*
X94195Y212742D01*
X94736Y212634D01*
X95277Y212742D01*
X95735Y213048D01*
X96042Y213507D01*
X96149Y214047D01*
X96042Y214588D01*
X95735Y215046D01*
X95277Y215353D01*
X94736Y215460D01*
D02*
G37*
G36*
X-32394Y214019D02*
X-32934Y213912D01*
X-33393Y213605D01*
X-33699Y213147D01*
X-33753Y212874D01*
X-34000Y212413D01*
X-34541Y212305D01*
X-34999Y211999D01*
X-35305Y211541D01*
X-35413Y211000D01*
X-35305Y210459D01*
X-34999Y210001D01*
X-34541Y209695D01*
X-34000Y209587D01*
X-33459Y209695D01*
X-33001Y210001D01*
X-32695Y210459D01*
X-32640Y210733D01*
X-32394Y211193D01*
X-31853Y211301D01*
X-31395Y211607D01*
X-31088Y212066D01*
X-30981Y212606D01*
X-31088Y213147D01*
X-31395Y213605D01*
X-31853Y213912D01*
X-32394Y214019D01*
D02*
G37*
G36*
X70800Y210720D02*
X70259Y210613D01*
X69801Y210307D01*
X69495Y209848D01*
X69387Y209308D01*
X69495Y208767D01*
X69801Y208308D01*
X70259Y208002D01*
X70800Y207894D01*
X71341Y208002D01*
X71799Y208308D01*
X72106Y208767D01*
X72213Y209308D01*
X72106Y209848D01*
X71799Y210307D01*
X71341Y210613D01*
X70800Y210720D01*
D02*
G37*
G36*
X124264Y209555D02*
X123723Y209447D01*
X123265Y209141D01*
X122958Y208682D01*
X122851Y208142D01*
X122958Y207601D01*
X123265Y207143D01*
X123723Y206836D01*
X124264Y206729D01*
X124804Y206836D01*
X125263Y207143D01*
X125569Y207601D01*
X125677Y208142D01*
X125569Y208682D01*
X125263Y209141D01*
X124804Y209447D01*
X124264Y209555D01*
D02*
G37*
G36*
X118358D02*
X117818Y209447D01*
X117359Y209141D01*
X117053Y208682D01*
X116945Y208142D01*
X117053Y207601D01*
X117359Y207143D01*
X117818Y206836D01*
X118358Y206729D01*
X118899Y206836D01*
X119357Y207143D01*
X119664Y207601D01*
X119771Y208142D01*
X119664Y208682D01*
X119357Y209141D01*
X118899Y209447D01*
X118358Y209555D01*
D02*
G37*
G36*
X112453D02*
X111912Y209447D01*
X111454Y209141D01*
X111147Y208682D01*
X111040Y208142D01*
X111147Y207601D01*
X111454Y207143D01*
X111912Y206836D01*
X112453Y206729D01*
X112994Y206836D01*
X113452Y207143D01*
X113758Y207601D01*
X113866Y208142D01*
X113758Y208682D01*
X113452Y209141D01*
X112994Y209447D01*
X112453Y209555D01*
D02*
G37*
G36*
X106547D02*
X106007Y209447D01*
X105548Y209141D01*
X105242Y208682D01*
X105134Y208142D01*
X105242Y207601D01*
X105548Y207143D01*
X106007Y206836D01*
X106547Y206729D01*
X107088Y206836D01*
X107546Y207143D01*
X107853Y207601D01*
X107960Y208142D01*
X107853Y208682D01*
X107546Y209141D01*
X107088Y209447D01*
X106547Y209555D01*
D02*
G37*
G36*
X100642D02*
X100101Y209447D01*
X99643Y209141D01*
X99336Y208682D01*
X99229Y208142D01*
X99336Y207601D01*
X99643Y207143D01*
X100101Y206836D01*
X100642Y206729D01*
X101182Y206836D01*
X101641Y207143D01*
X101947Y207601D01*
X102055Y208142D01*
X101947Y208682D01*
X101641Y209141D01*
X101182Y209447D01*
X100642Y209555D01*
D02*
G37*
G36*
X94736D02*
X94195Y209447D01*
X93737Y209141D01*
X93431Y208682D01*
X93323Y208142D01*
X93431Y207601D01*
X93737Y207143D01*
X94195Y206836D01*
X94736Y206729D01*
X95277Y206836D01*
X95735Y207143D01*
X96042Y207601D01*
X96149Y208142D01*
X96042Y208682D01*
X95735Y209141D01*
X95277Y209447D01*
X94736Y209555D01*
D02*
G37*
G36*
X78300Y207669D02*
X77759Y207561D01*
X77301Y207255D01*
X76995Y206797D01*
X76887Y206256D01*
X76995Y205715D01*
X77301Y205257D01*
X77759Y204950D01*
X78300Y204843D01*
X78841Y204950D01*
X79299Y205257D01*
X79606Y205715D01*
X79713Y206256D01*
X79606Y206797D01*
X79299Y207255D01*
X78841Y207561D01*
X78300Y207669D01*
D02*
G37*
G36*
X-42000Y206714D02*
X-42656Y206584D01*
X-43212Y206212D01*
X-43584Y205656D01*
X-43714Y205000D01*
X-43584Y204344D01*
X-43212Y203788D01*
X-42656Y203416D01*
X-42000Y203286D01*
X-41344Y203416D01*
X-40788Y203788D01*
X-40416Y204344D01*
X-40286Y205000D01*
X-40416Y205656D01*
X-40788Y206212D01*
X-41344Y206584D01*
X-42000Y206714D01*
D02*
G37*
G36*
X-27912Y202308D02*
X-28453Y202201D01*
X-28911Y201894D01*
X-29075Y201650D01*
X-29331Y201420D01*
X-29742Y201362D01*
X-30000Y201413D01*
X-30541Y201305D01*
X-30999Y200999D01*
X-31305Y200541D01*
X-31413Y200000D01*
X-31305Y199459D01*
X-30999Y199001D01*
X-30541Y198695D01*
X-30000Y198587D01*
X-29459Y198695D01*
X-29001Y199001D01*
X-28837Y199245D01*
X-28581Y199475D01*
X-28170Y199534D01*
X-27912Y199482D01*
X-27371Y199590D01*
X-26913Y199896D01*
X-26607Y200355D01*
X-26499Y200895D01*
X-26607Y201436D01*
X-26913Y201894D01*
X-27371Y202201D01*
X-27912Y202308D01*
D02*
G37*
G36*
X124264Y203649D02*
X123723Y203542D01*
X123265Y203235D01*
X122958Y202777D01*
X122851Y202236D01*
X122958Y201695D01*
X123265Y201237D01*
X123723Y200931D01*
X124264Y200823D01*
X124804Y200931D01*
X125263Y201237D01*
X125569Y201695D01*
X125677Y202236D01*
X125569Y202777D01*
X125263Y203235D01*
X124804Y203542D01*
X124264Y203649D01*
D02*
G37*
G36*
X118358D02*
X117818Y203542D01*
X117359Y203235D01*
X117053Y202777D01*
X116945Y202236D01*
X117053Y201695D01*
X117359Y201237D01*
X117818Y200931D01*
X118358Y200823D01*
X118899Y200931D01*
X119357Y201237D01*
X119664Y201695D01*
X119771Y202236D01*
X119664Y202777D01*
X119357Y203235D01*
X118899Y203542D01*
X118358Y203649D01*
D02*
G37*
G36*
X112453D02*
X111912Y203542D01*
X111454Y203235D01*
X111147Y202777D01*
X111040Y202236D01*
X111147Y201695D01*
X111454Y201237D01*
X111912Y200931D01*
X112453Y200823D01*
X112994Y200931D01*
X113452Y201237D01*
X113758Y201695D01*
X113866Y202236D01*
X113758Y202777D01*
X113452Y203235D01*
X112994Y203542D01*
X112453Y203649D01*
D02*
G37*
G36*
X106547D02*
X106007Y203542D01*
X105548Y203235D01*
X105242Y202777D01*
X105134Y202236D01*
X105242Y201695D01*
X105548Y201237D01*
X106007Y200931D01*
X106547Y200823D01*
X107088Y200931D01*
X107546Y201237D01*
X107853Y201695D01*
X107960Y202236D01*
X107853Y202777D01*
X107546Y203235D01*
X107088Y203542D01*
X106547Y203649D01*
D02*
G37*
G36*
X100642D02*
X100101Y203542D01*
X99643Y203235D01*
X99336Y202777D01*
X99229Y202236D01*
X99336Y201695D01*
X99643Y201237D01*
X100101Y200931D01*
X100642Y200823D01*
X101182Y200931D01*
X101641Y201237D01*
X101947Y201695D01*
X102055Y202236D01*
X101947Y202777D01*
X101641Y203235D01*
X101182Y203542D01*
X100642Y203649D01*
D02*
G37*
G36*
X94736D02*
X94195Y203542D01*
X93737Y203235D01*
X93431Y202777D01*
X93323Y202236D01*
X93431Y201695D01*
X93737Y201237D01*
X94195Y200931D01*
X94736Y200823D01*
X95277Y200931D01*
X95735Y201237D01*
X96042Y201695D01*
X96149Y202236D01*
X96042Y202777D01*
X95735Y203235D01*
X95277Y203542D01*
X94736Y203649D01*
D02*
G37*
G36*
X-22500Y196913D02*
X-23041Y196805D01*
X-23499Y196499D01*
X-23805Y196041D01*
X-23860Y195767D01*
X-24106Y195307D01*
X-24647Y195199D01*
X-25105Y194893D01*
X-25412Y194434D01*
X-25519Y193894D01*
X-25412Y193353D01*
X-25105Y192895D01*
X-24647Y192588D01*
X-24106Y192481D01*
X-23566Y192588D01*
X-23107Y192895D01*
X-22801Y193353D01*
X-22747Y193626D01*
X-22500Y194087D01*
X-21959Y194195D01*
X-21501Y194501D01*
X-21195Y194959D01*
X-21087Y195500D01*
X-21195Y196041D01*
X-21501Y196499D01*
X-21959Y196805D01*
X-22500Y196913D01*
D02*
G37*
G36*
X95800Y187220D02*
X95259Y187113D01*
X94801Y186807D01*
X94495Y186348D01*
X94387Y185808D01*
X94495Y185267D01*
X94801Y184808D01*
X95259Y184502D01*
X95800Y184395D01*
X96341Y184502D01*
X96799Y184808D01*
X97106Y185267D01*
X97213Y185808D01*
X97106Y186348D01*
X96799Y186807D01*
X96341Y187113D01*
X95800Y187220D01*
D02*
G37*
G36*
X-37000Y177964D02*
X-37656Y177834D01*
X-38212Y177462D01*
X-38584Y176906D01*
X-38714Y176250D01*
X-38584Y175594D01*
X-38212Y175038D01*
X-37656Y174666D01*
X-37000Y174536D01*
X-36344Y174666D01*
X-35788Y175038D01*
X-35416Y175594D01*
X-35286Y176250D01*
X-35416Y176906D01*
X-35788Y177462D01*
X-36344Y177834D01*
X-37000Y177964D01*
D02*
G37*
G36*
X-23000Y177714D02*
X-23656Y177584D01*
X-24212Y177212D01*
X-24584Y176656D01*
X-24714Y176000D01*
X-24584Y175344D01*
X-24212Y174788D01*
X-23656Y174416D01*
X-23000Y174286D01*
X-22344Y174416D01*
X-21788Y174788D01*
X-21416Y175344D01*
X-21286Y176000D01*
X-21416Y176656D01*
X-21788Y177212D01*
X-22344Y177584D01*
X-23000Y177714D01*
D02*
G37*
G36*
X-42000Y175214D02*
X-42656Y175084D01*
X-43212Y174712D01*
X-43584Y174156D01*
X-43714Y173500D01*
X-43584Y172844D01*
X-43212Y172288D01*
X-42656Y171916D01*
X-42000Y171786D01*
X-41344Y171916D01*
X-40788Y172288D01*
X-40416Y172844D01*
X-40286Y173500D01*
X-40416Y174156D01*
X-40788Y174712D01*
X-41344Y175084D01*
X-42000Y175214D01*
D02*
G37*
G36*
X58Y172367D02*
X-598Y172237D01*
X-1154Y171865D01*
X-1526Y171309D01*
X-1656Y170653D01*
X-1526Y169997D01*
X-1154Y169441D01*
X-598Y169070D01*
X58Y168939D01*
X714Y169070D01*
X1270Y169441D01*
X1642Y169997D01*
X1772Y170653D01*
X1642Y171309D01*
X1270Y171865D01*
X714Y172237D01*
X58Y172367D01*
D02*
G37*
G36*
X-42000Y165714D02*
X-42656Y165584D01*
X-43212Y165212D01*
X-43584Y164656D01*
X-43714Y164000D01*
X-43584Y163344D01*
X-43212Y162788D01*
X-42656Y162416D01*
X-42000Y162286D01*
X-41344Y162416D01*
X-40788Y162788D01*
X-40416Y163344D01*
X-40286Y164000D01*
X-40416Y164656D01*
X-40788Y165212D01*
X-41344Y165584D01*
X-42000Y165714D01*
D02*
G37*
G36*
X56000Y167048D02*
X54564Y166858D01*
X53226Y166304D01*
X52077Y165423D01*
X51196Y164274D01*
X50642Y162936D01*
X50453Y161500D01*
X50642Y160064D01*
X51196Y158726D01*
X52077Y157577D01*
X53226Y156696D01*
X54564Y156142D01*
X56000Y155953D01*
X57436Y156142D01*
X58774Y156696D01*
X59923Y157577D01*
X60804Y158726D01*
X61358Y160064D01*
X61547Y161500D01*
X61358Y162936D01*
X60804Y164274D01*
X59923Y165423D01*
X58774Y166304D01*
X57436Y166858D01*
X56000Y167048D01*
D02*
G37*
G36*
X98500Y157214D02*
X97844Y157084D01*
X97288Y156712D01*
X96916Y156156D01*
X96786Y155500D01*
X96916Y154844D01*
X97288Y154288D01*
X97844Y153916D01*
X98500Y153786D01*
X99156Y153916D01*
X99712Y154288D01*
X100084Y154844D01*
X100214Y155500D01*
X100084Y156156D01*
X99712Y156712D01*
X99156Y157084D01*
X98500Y157214D01*
D02*
G37*
G36*
X-42000Y156214D02*
X-42656Y156084D01*
X-43212Y155712D01*
X-43584Y155156D01*
X-43714Y154500D01*
X-43584Y153844D01*
X-43212Y153288D01*
X-42656Y152916D01*
X-42000Y152786D01*
X-41344Y152916D01*
X-40788Y153288D01*
X-40416Y153844D01*
X-40286Y154500D01*
X-40416Y155156D01*
X-40788Y155712D01*
X-41344Y156084D01*
X-42000Y156214D01*
D02*
G37*
G36*
X89500Y155714D02*
X88844Y155584D01*
X88288Y155212D01*
X87916Y154656D01*
X87786Y154000D01*
X87916Y153344D01*
X88288Y152788D01*
X88844Y152416D01*
X89500Y152286D01*
X90156Y152416D01*
X90712Y152788D01*
X91084Y153344D01*
X91214Y154000D01*
X91084Y154656D01*
X90712Y155212D01*
X90156Y155584D01*
X89500Y155714D01*
D02*
G37*
G36*
X17000Y156547D02*
X15564Y156358D01*
X14226Y155804D01*
X13077Y154923D01*
X12196Y153774D01*
X11642Y152436D01*
X11452Y151000D01*
X11642Y149564D01*
X12196Y148226D01*
X13077Y147077D01*
X14226Y146196D01*
X15564Y145642D01*
X17000Y145452D01*
X18436Y145642D01*
X19774Y146196D01*
X20923Y147077D01*
X21804Y148226D01*
X22358Y149564D01*
X22547Y151000D01*
X22358Y152436D01*
X21804Y153774D01*
X20923Y154923D01*
X19774Y155804D01*
X18436Y156358D01*
X17000Y156547D01*
D02*
G37*
G36*
X-42000Y146714D02*
X-42656Y146584D01*
X-43212Y146212D01*
X-43584Y145656D01*
X-43714Y145000D01*
X-43584Y144344D01*
X-43212Y143788D01*
X-42656Y143416D01*
X-42000Y143286D01*
X-41344Y143416D01*
X-40788Y143788D01*
X-40416Y144344D01*
X-40286Y145000D01*
X-40416Y145656D01*
X-40788Y146212D01*
X-41344Y146584D01*
X-42000Y146714D01*
D02*
G37*
G36*
X149681Y146029D02*
X149025Y145899D01*
X148469Y145527D01*
X148098Y144971D01*
X147967Y144315D01*
X148098Y143659D01*
X148469Y143103D01*
X149025Y142731D01*
X149681Y142601D01*
X150337Y142731D01*
X150893Y143103D01*
X151265Y143659D01*
X151395Y144315D01*
X151265Y144971D01*
X150893Y145527D01*
X150337Y145899D01*
X149681Y146029D01*
D02*
G37*
G36*
X127992Y143336D02*
X127336Y143206D01*
X126780Y142834D01*
X126409Y142278D01*
X126278Y141622D01*
X126409Y140966D01*
X126780Y140410D01*
X127336Y140039D01*
X127992Y139908D01*
X128648Y140039D01*
X129204Y140410D01*
X129576Y140966D01*
X129706Y141622D01*
X129576Y142278D01*
X129204Y142834D01*
X128648Y143206D01*
X127992Y143336D01*
D02*
G37*
G36*
X143500Y142714D02*
X142844Y142584D01*
X142288Y142212D01*
X141916Y141656D01*
X141786Y141000D01*
X141916Y140344D01*
X142288Y139788D01*
X142844Y139416D01*
X143500Y139286D01*
X144156Y139416D01*
X144712Y139788D01*
X145084Y140344D01*
X145214Y141000D01*
X145084Y141656D01*
X144712Y142212D01*
X144156Y142584D01*
X143500Y142714D01*
D02*
G37*
G36*
X65500Y145547D02*
X64064Y145358D01*
X62726Y144804D01*
X61577Y143923D01*
X60696Y142774D01*
X60142Y141436D01*
X59952Y140000D01*
X60142Y138564D01*
X60696Y137226D01*
X61577Y136077D01*
X62726Y135196D01*
X64064Y134642D01*
X65500Y134452D01*
X66936Y134642D01*
X68274Y135196D01*
X69423Y136077D01*
X70304Y137226D01*
X70858Y138564D01*
X71048Y140000D01*
X70858Y141436D01*
X70304Y142774D01*
X69423Y143923D01*
X68274Y144804D01*
X66936Y145358D01*
X65500Y145547D01*
D02*
G37*
G36*
X-42000Y137214D02*
X-42656Y137084D01*
X-43212Y136712D01*
X-43584Y136156D01*
X-43714Y135500D01*
X-43584Y134844D01*
X-43212Y134288D01*
X-42656Y133916D01*
X-42000Y133786D01*
X-41344Y133916D01*
X-40788Y134288D01*
X-40416Y134844D01*
X-40286Y135500D01*
X-40416Y136156D01*
X-40788Y136712D01*
X-41344Y137084D01*
X-42000Y137214D01*
D02*
G37*
G36*
X-1000Y134214D02*
X-1656Y134084D01*
X-2212Y133712D01*
X-2584Y133156D01*
X-2714Y132500D01*
X-2584Y131844D01*
X-2212Y131288D01*
X-1656Y130916D01*
X-1000Y130786D01*
X-344Y130916D01*
X212Y131288D01*
X584Y131844D01*
X714Y132500D01*
X584Y133156D01*
X212Y133712D01*
X-344Y134084D01*
X-1000Y134214D01*
D02*
G37*
G36*
X-30500Y130714D02*
X-31156Y130584D01*
X-31712Y130212D01*
X-32084Y129656D01*
X-32214Y129000D01*
X-32084Y128344D01*
X-31712Y127788D01*
X-31156Y127416D01*
X-30500Y127286D01*
X-29844Y127416D01*
X-29288Y127788D01*
X-28916Y128344D01*
X-28786Y129000D01*
X-28916Y129656D01*
X-29288Y130212D01*
X-29844Y130584D01*
X-30500Y130714D01*
D02*
G37*
G36*
X-19000Y130214D02*
X-19656Y130084D01*
X-20212Y129712D01*
X-20584Y129156D01*
X-20714Y128500D01*
X-20584Y127844D01*
X-20212Y127288D01*
X-19656Y126916D01*
X-19000Y126786D01*
X-18344Y126916D01*
X-17788Y127288D01*
X-17416Y127844D01*
X-17286Y128500D01*
X-17416Y129156D01*
X-17788Y129712D01*
X-18344Y130084D01*
X-19000Y130214D01*
D02*
G37*
G36*
X111000Y120861D02*
X110344Y120731D01*
X109788Y120359D01*
X109416Y119803D01*
X109286Y119147D01*
X109416Y118491D01*
X109788Y117935D01*
X110344Y117564D01*
X111000Y117433D01*
X111656Y117564D01*
X112212Y117935D01*
X112584Y118491D01*
X112714Y119147D01*
X112584Y119803D01*
X112212Y120359D01*
X111656Y120731D01*
X111000Y120861D01*
D02*
G37*
G36*
X105000Y120214D02*
X104344Y120083D01*
X103788Y119712D01*
X103416Y119156D01*
X103286Y118500D01*
X103416Y117844D01*
X103788Y117288D01*
X104344Y116916D01*
X105000Y116786D01*
X105656Y116916D01*
X106212Y117288D01*
X106583Y117844D01*
X106714Y118500D01*
X106583Y119156D01*
X106212Y119712D01*
X105656Y120083D01*
X105000Y120214D01*
D02*
G37*
G36*
X128500Y127048D02*
X127064Y126858D01*
X125726Y126304D01*
X124577Y125423D01*
X123696Y124274D01*
X123142Y122936D01*
X122952Y121500D01*
X123142Y120064D01*
X123696Y118726D01*
X124577Y117577D01*
X125726Y116696D01*
X127064Y116142D01*
X128500Y115953D01*
X129936Y116142D01*
X131274Y116696D01*
X132423Y117577D01*
X133304Y118726D01*
X133858Y120064D01*
X134047Y121500D01*
X133858Y122936D01*
X133304Y124274D01*
X132423Y125423D01*
X131274Y126304D01*
X129936Y126858D01*
X128500Y127048D01*
D02*
G37*
G36*
X103000Y114214D02*
X102344Y114084D01*
X101788Y113712D01*
X101416Y113156D01*
X101286Y112500D01*
X101416Y111844D01*
X101788Y111288D01*
X102344Y110916D01*
X103000Y110786D01*
X103656Y110916D01*
X104212Y111288D01*
X104584Y111844D01*
X104714Y112500D01*
X104584Y113156D01*
X104212Y113712D01*
X103656Y114084D01*
X103000Y114214D01*
D02*
G37*
G36*
X147500Y120547D02*
X146064Y120358D01*
X144726Y119804D01*
X143577Y118923D01*
X142696Y117774D01*
X142142Y116436D01*
X141953Y115000D01*
X142142Y113564D01*
X142696Y112226D01*
X143577Y111077D01*
X144726Y110196D01*
X146064Y109642D01*
X147500Y109452D01*
X148936Y109642D01*
X150274Y110196D01*
X151423Y111077D01*
X152304Y112226D01*
X152858Y113564D01*
X153048Y115000D01*
X152858Y116436D01*
X152304Y117774D01*
X151423Y118923D01*
X150274Y119804D01*
X148936Y120358D01*
X147500Y120547D01*
D02*
G37*
G36*
X40500Y111714D02*
X39844Y111584D01*
X39288Y111212D01*
X38916Y110656D01*
X38786Y110000D01*
X38916Y109344D01*
X39288Y108788D01*
X39844Y108416D01*
X40500Y108286D01*
X41156Y108416D01*
X41712Y108788D01*
X42084Y109344D01*
X42214Y110000D01*
X42084Y110656D01*
X41712Y111212D01*
X41156Y111584D01*
X40500Y111714D01*
D02*
G37*
G36*
X143500Y109214D02*
X142844Y109084D01*
X142288Y108712D01*
X141916Y108156D01*
X141786Y107500D01*
X141916Y106844D01*
X142288Y106288D01*
X142525Y106129D01*
X142420Y105599D01*
X142344Y105584D01*
X141788Y105212D01*
X141416Y104656D01*
X141286Y104000D01*
X141416Y103344D01*
X141788Y102788D01*
X142344Y102416D01*
X143000Y102286D01*
X143656Y102416D01*
X144212Y102788D01*
X144371Y103025D01*
X144901Y102920D01*
X144916Y102844D01*
X145288Y102288D01*
X145844Y101916D01*
X146500Y101786D01*
X147156Y101916D01*
X147712Y102288D01*
X148084Y102844D01*
X148214Y103500D01*
X148084Y104156D01*
X147712Y104712D01*
X147156Y105084D01*
X146500Y105214D01*
X145844Y105084D01*
X145288Y104712D01*
X145129Y104475D01*
X144599Y104580D01*
X144584Y104656D01*
X144212Y105212D01*
X143975Y105371D01*
X144080Y105901D01*
X144156Y105916D01*
X144712Y106288D01*
X145084Y106844D01*
X145214Y107500D01*
X145084Y108156D01*
X144712Y108712D01*
X144156Y109084D01*
X143500Y109214D01*
D02*
G37*
G36*
X82500Y102714D02*
X81844Y102584D01*
X81288Y102212D01*
X80916Y101656D01*
X80786Y101000D01*
X80916Y100344D01*
X81288Y99788D01*
X81844Y99416D01*
X82500Y99286D01*
X83156Y99416D01*
X83712Y99788D01*
X84084Y100344D01*
X84214Y101000D01*
X84084Y101656D01*
X83712Y102212D01*
X83156Y102584D01*
X82500Y102714D01*
D02*
G37*
G36*
X89000Y100214D02*
X88344Y100084D01*
X87788Y99712D01*
X87416Y99156D01*
X87286Y98500D01*
X87416Y97844D01*
X87788Y97288D01*
X88344Y96916D01*
X89000Y96786D01*
X89656Y96916D01*
X90212Y97288D01*
X90584Y97844D01*
X90714Y98500D01*
X90584Y99156D01*
X90212Y99712D01*
X89656Y100084D01*
X89000Y100214D01*
D02*
G37*
G36*
X82500Y97214D02*
X81844Y97084D01*
X81288Y96712D01*
X80916Y96156D01*
X80786Y95500D01*
X80916Y94844D01*
X81288Y94288D01*
X81844Y93916D01*
X82500Y93786D01*
X83156Y93916D01*
X83712Y94288D01*
X84084Y94844D01*
X84214Y95500D01*
X84084Y96156D01*
X83712Y96712D01*
X83156Y97084D01*
X82500Y97214D01*
D02*
G37*
G36*
X60000D02*
X59344Y97084D01*
X58788Y96712D01*
X58416Y96156D01*
X58286Y95500D01*
X58416Y94844D01*
X58788Y94288D01*
X59344Y93916D01*
X60000Y93786D01*
X60656Y93916D01*
X61212Y94288D01*
X61584Y94844D01*
X61714Y95500D01*
X61584Y96156D01*
X61212Y96712D01*
X60656Y97084D01*
X60000Y97214D01*
D02*
G37*
G36*
X142000Y95714D02*
X141344Y95584D01*
X140788Y95212D01*
X140416Y94656D01*
X140286Y94000D01*
X140416Y93344D01*
X140788Y92788D01*
X141344Y92416D01*
X142000Y92286D01*
X142656Y92416D01*
X143212Y92788D01*
X143584Y93344D01*
X143714Y94000D01*
X143584Y94656D01*
X143212Y95212D01*
X142656Y95584D01*
X142000Y95714D01*
D02*
G37*
G36*
X149000Y94714D02*
X148344Y94584D01*
X147788Y94212D01*
X147416Y93656D01*
X147286Y93000D01*
X147416Y92344D01*
X147788Y91788D01*
X148344Y91416D01*
X149000Y91286D01*
X149656Y91416D01*
X150212Y91788D01*
X150584Y92344D01*
X150714Y93000D01*
X150584Y93656D01*
X150212Y94212D01*
X149656Y94584D01*
X149000Y94714D01*
D02*
G37*
G36*
X83500Y90714D02*
X82844Y90584D01*
X82288Y90212D01*
X81916Y89656D01*
X81786Y89000D01*
X81916Y88344D01*
X82288Y87788D01*
X82844Y87416D01*
X83500Y87286D01*
X84156Y87416D01*
X84712Y87788D01*
X85084Y88344D01*
X85214Y89000D01*
X85084Y89656D01*
X84712Y90212D01*
X84156Y90584D01*
X83500Y90714D01*
D02*
G37*
G36*
X87500Y88214D02*
X86844Y88083D01*
X86288Y87712D01*
X85916Y87156D01*
X85786Y86500D01*
X85916Y85844D01*
X86288Y85288D01*
X86844Y84916D01*
X87500Y84786D01*
X88156Y84916D01*
X88712Y85288D01*
X89084Y85844D01*
X89214Y86500D01*
X89084Y87156D01*
X88712Y87712D01*
X88156Y88083D01*
X87500Y88214D01*
D02*
G37*
G36*
X83500Y85214D02*
X82844Y85084D01*
X82288Y84712D01*
X81916Y84156D01*
X81786Y83500D01*
X81916Y82844D01*
X82288Y82288D01*
X82844Y81916D01*
X83500Y81786D01*
X84156Y81916D01*
X84712Y82288D01*
X85084Y82844D01*
X85214Y83500D01*
X85084Y84156D01*
X84712Y84712D01*
X84156Y85084D01*
X83500Y85214D01*
D02*
G37*
G36*
X65578Y83091D02*
X64922Y82960D01*
X64366Y82589D01*
X63995Y82033D01*
X63864Y81377D01*
X63995Y80721D01*
X64366Y80165D01*
X64922Y79793D01*
X65578Y79663D01*
X66234Y79793D01*
X66790Y80165D01*
X67162Y80721D01*
X67292Y81377D01*
X67162Y82033D01*
X66790Y82589D01*
X66234Y82960D01*
X65578Y83091D01*
D02*
G37*
G36*
X87500Y82547D02*
X86844Y82417D01*
X86288Y82045D01*
X85916Y81489D01*
X85786Y80833D01*
X85916Y80177D01*
X86288Y79621D01*
X86844Y79250D01*
X87500Y79119D01*
X88156Y79250D01*
X88712Y79621D01*
X89084Y80177D01*
X89214Y80833D01*
X89084Y81489D01*
X88712Y82045D01*
X88156Y82417D01*
X87500Y82547D01*
D02*
G37*
G36*
X521937Y87437D02*
X513063D01*
Y78563D01*
X521937D01*
Y87437D01*
D02*
G37*
G36*
X527500Y87475D02*
X526342Y87323D01*
X525262Y86876D01*
X524335Y86164D01*
X523624Y85238D01*
X523177Y84158D01*
X523025Y83000D01*
X523177Y81842D01*
X523624Y80762D01*
X524335Y79835D01*
X525262Y79124D01*
X526342Y78677D01*
X527500Y78525D01*
X528658Y78677D01*
X529738Y79124D01*
X530664Y79835D01*
X531376Y80762D01*
X531823Y81842D01*
X531975Y83000D01*
X531823Y84158D01*
X531376Y85238D01*
X530664Y86164D01*
X529738Y86876D01*
X528658Y87323D01*
X527500Y87475D01*
D02*
G37*
G36*
X148248Y81193D02*
X147592Y81063D01*
X147036Y80691D01*
X146665Y80135D01*
X146534Y79479D01*
X146665Y78823D01*
X147036Y78267D01*
X147592Y77896D01*
X148248Y77765D01*
X148904Y77896D01*
X149460Y78267D01*
X149832Y78823D01*
X149962Y79479D01*
X149832Y80135D01*
X149460Y80691D01*
X148904Y81063D01*
X148248Y81193D01*
D02*
G37*
G36*
X83500Y79714D02*
X82844Y79584D01*
X82288Y79212D01*
X81916Y78656D01*
X81786Y78000D01*
X81916Y77344D01*
X82288Y76788D01*
X82844Y76416D01*
X83500Y76286D01*
X84156Y76416D01*
X84712Y76788D01*
X85084Y77344D01*
X85214Y78000D01*
X85084Y78656D01*
X84712Y79212D01*
X84156Y79584D01*
X83500Y79714D01*
D02*
G37*
G36*
X141500Y77214D02*
X140844Y77084D01*
X140288Y76712D01*
X139916Y76156D01*
X139786Y75500D01*
X139916Y74844D01*
X140288Y74288D01*
X140844Y73916D01*
X141500Y73786D01*
X142156Y73916D01*
X142712Y74288D01*
X143084Y74844D01*
X143214Y75500D01*
X143084Y76156D01*
X142712Y76712D01*
X142156Y77084D01*
X141500Y77214D01*
D02*
G37*
G36*
X175000Y76413D02*
X174459Y76305D01*
X174001Y75999D01*
X173695Y75541D01*
X173587Y75000D01*
X173695Y74459D01*
X174001Y74001D01*
X174459Y73695D01*
X175000Y73587D01*
X175541Y73695D01*
X175999Y74001D01*
X176305Y74459D01*
X176413Y75000D01*
X176305Y75541D01*
X175999Y75999D01*
X175541Y76305D01*
X175000Y76413D01*
D02*
G37*
G36*
X87500Y76881D02*
X86844Y76750D01*
X86288Y76379D01*
X85916Y75823D01*
X85786Y75167D01*
X85916Y74511D01*
X86288Y73955D01*
X86844Y73583D01*
X87500Y73453D01*
X88156Y73583D01*
X88712Y73955D01*
X89084Y74511D01*
X89214Y75167D01*
X89084Y75823D01*
X88712Y76379D01*
X88156Y76750D01*
X87500Y76881D01*
D02*
G37*
G36*
X67000Y76714D02*
X66344Y76584D01*
X65788Y76212D01*
X65416Y75656D01*
X65286Y75000D01*
X65416Y74344D01*
X65788Y73788D01*
X66344Y73416D01*
X67000Y73286D01*
X67656Y73416D01*
X68212Y73788D01*
X68584Y74344D01*
X68714Y75000D01*
X68584Y75656D01*
X68212Y76212D01*
X67656Y76584D01*
X67000Y76714D01*
D02*
G37*
G36*
X149046Y75561D02*
X148390Y75430D01*
X147834Y75059D01*
X147463Y74503D01*
X147332Y73847D01*
X147463Y73191D01*
X147834Y72635D01*
X148390Y72263D01*
X149046Y72133D01*
X149702Y72263D01*
X150258Y72635D01*
X150630Y73191D01*
X150760Y73847D01*
X150630Y74503D01*
X150258Y75059D01*
X149702Y75430D01*
X149046Y75561D01*
D02*
G37*
G36*
X501500Y73913D02*
X500959Y73805D01*
X500501Y73499D01*
X500195Y73041D01*
X500087Y72500D01*
X500195Y71959D01*
X500501Y71501D01*
X500959Y71195D01*
X501500Y71087D01*
X502041Y71195D01*
X502499Y71501D01*
X502805Y71959D01*
X502913Y72500D01*
X502805Y73041D01*
X502499Y73499D01*
X502041Y73805D01*
X501500Y73913D01*
D02*
G37*
G36*
X83500Y74214D02*
X82844Y74084D01*
X82288Y73712D01*
X81916Y73156D01*
X81786Y72500D01*
X81916Y71844D01*
X82288Y71288D01*
X82844Y70916D01*
X83500Y70786D01*
X84156Y70916D01*
X84712Y71288D01*
X85084Y71844D01*
X85214Y72500D01*
X85084Y73156D01*
X84712Y73712D01*
X84156Y74084D01*
X83500Y74214D01*
D02*
G37*
G36*
X72000Y72714D02*
X71344Y72584D01*
X70788Y72212D01*
X70416Y71656D01*
X70286Y71000D01*
X70416Y70344D01*
X70788Y69788D01*
X71344Y69416D01*
X72000Y69286D01*
X72656Y69416D01*
X73212Y69788D01*
X73584Y70344D01*
X73714Y71000D01*
X73584Y71656D01*
X73212Y72212D01*
X72656Y72584D01*
X72000Y72714D01*
D02*
G37*
G36*
X517500Y77475D02*
X516342Y77323D01*
X515262Y76876D01*
X514335Y76165D01*
X513624Y75238D01*
X513177Y74158D01*
X513025Y73000D01*
X513177Y71842D01*
X513624Y70762D01*
X514335Y69836D01*
X515262Y69124D01*
X516342Y68677D01*
X517500Y68525D01*
X518658Y68677D01*
X519738Y69124D01*
X520665Y69836D01*
X521376Y70762D01*
X521823Y71842D01*
X521975Y73000D01*
X521823Y74158D01*
X521376Y75238D01*
X520665Y76165D01*
X519738Y76876D01*
X518658Y77323D01*
X517500Y77475D01*
D02*
G37*
G36*
X87500Y71214D02*
X86844Y71084D01*
X86288Y70712D01*
X85916Y70156D01*
X85786Y69500D01*
X85916Y68844D01*
X86288Y68288D01*
X86844Y67916D01*
X87500Y67786D01*
X88156Y67916D01*
X88712Y68288D01*
X89084Y68844D01*
X89214Y69500D01*
X89084Y70156D01*
X88712Y70712D01*
X88156Y71084D01*
X87500Y71214D01*
D02*
G37*
G36*
X149046Y69367D02*
X148390Y69237D01*
X147834Y68865D01*
X147463Y68309D01*
X147332Y67653D01*
X147463Y66997D01*
X147834Y66441D01*
X148390Y66070D01*
X149046Y65939D01*
X149702Y66070D01*
X150258Y66441D01*
X150630Y66997D01*
X150760Y67653D01*
X150630Y68309D01*
X150258Y68865D01*
X149702Y69237D01*
X149046Y69367D01*
D02*
G37*
G36*
X141564Y68162D02*
X140908Y68031D01*
X140352Y67660D01*
X139981Y67104D01*
X139850Y66448D01*
X139981Y65792D01*
X140352Y65236D01*
X140908Y64864D01*
X141564Y64734D01*
X142220Y64864D01*
X142776Y65236D01*
X143148Y65792D01*
X143278Y66448D01*
X143148Y67104D01*
X142776Y67660D01*
X142220Y68031D01*
X141564Y68162D01*
D02*
G37*
G36*
X83000Y67714D02*
X82344Y67584D01*
X81788Y67212D01*
X81416Y66656D01*
X81286Y66000D01*
X81416Y65344D01*
X81788Y64788D01*
X82344Y64416D01*
X83000Y64286D01*
X83656Y64416D01*
X84212Y64788D01*
X84584Y65344D01*
X84714Y66000D01*
X84584Y66656D01*
X84212Y67212D01*
X83656Y67584D01*
X83000Y67714D01*
D02*
G37*
G36*
X180500Y67214D02*
X179844Y67084D01*
X179288Y66712D01*
X178916Y66156D01*
X178786Y65500D01*
X178916Y64844D01*
X179288Y64288D01*
X179844Y63916D01*
X180500Y63786D01*
X181156Y63916D01*
X181712Y64288D01*
X182084Y64844D01*
X182214Y65500D01*
X182084Y66156D01*
X181712Y66712D01*
X181156Y67084D01*
X180500Y67214D01*
D02*
G37*
G36*
X65000Y65214D02*
X64344Y65084D01*
X63788Y64712D01*
X63416Y64156D01*
X63286Y63500D01*
X63416Y62844D01*
X63788Y62288D01*
X64344Y61916D01*
X65000Y61786D01*
X65656Y61916D01*
X66212Y62288D01*
X66584Y62844D01*
X66714Y63500D01*
X66584Y64156D01*
X66212Y64712D01*
X65656Y65084D01*
X65000Y65214D01*
D02*
G37*
G36*
X36000Y70047D02*
X34564Y69858D01*
X33226Y69304D01*
X32077Y68423D01*
X31196Y67274D01*
X30642Y65936D01*
X30452Y64500D01*
X30642Y63064D01*
X31196Y61726D01*
X32077Y60577D01*
X33226Y59696D01*
X34564Y59142D01*
X36000Y58952D01*
X37436Y59142D01*
X38774Y59696D01*
X39923Y60577D01*
X40804Y61726D01*
X41358Y63064D01*
X41548Y64500D01*
X41358Y65936D01*
X40804Y67274D01*
X39923Y68423D01*
X38774Y69304D01*
X37436Y69858D01*
X36000Y70047D01*
D02*
G37*
G36*
X527500Y67475D02*
X526342Y67323D01*
X525262Y66876D01*
X524335Y66164D01*
X523624Y65238D01*
X523177Y64158D01*
X523025Y63000D01*
X523177Y61842D01*
X523624Y60762D01*
X524335Y59835D01*
X525262Y59124D01*
X526342Y58677D01*
X527500Y58525D01*
X528658Y58677D01*
X529738Y59124D01*
X530664Y59835D01*
X531376Y60762D01*
X531823Y61842D01*
X531975Y63000D01*
X531823Y64158D01*
X531376Y65238D01*
X530664Y66164D01*
X529738Y66876D01*
X528658Y67323D01*
X527500Y67475D01*
D02*
G37*
G36*
X517500D02*
X516342Y67323D01*
X515262Y66876D01*
X514335Y66164D01*
X513624Y65238D01*
X513177Y64158D01*
X513025Y63000D01*
X513177Y61842D01*
X513624Y60762D01*
X514335Y59835D01*
X515262Y59124D01*
X516342Y58677D01*
X517500Y58525D01*
X518658Y58677D01*
X519738Y59124D01*
X520665Y59835D01*
X521376Y60762D01*
X521823Y61842D01*
X521975Y63000D01*
X521823Y64158D01*
X521376Y65238D01*
X520665Y66164D01*
X519738Y66876D01*
X518658Y67323D01*
X517500Y67475D01*
D02*
G37*
G36*
X527500Y57475D02*
X526342Y57323D01*
X525262Y56876D01*
X524335Y56164D01*
X523624Y55238D01*
X523177Y54158D01*
X523025Y53000D01*
X523177Y51842D01*
X523624Y50762D01*
X524335Y49836D01*
X525262Y49124D01*
X526342Y48677D01*
X527500Y48525D01*
X528658Y48677D01*
X529738Y49124D01*
X530664Y49836D01*
X531376Y50762D01*
X531823Y51842D01*
X531975Y53000D01*
X531823Y54158D01*
X531376Y55238D01*
X530664Y56164D01*
X529738Y56876D01*
X528658Y57323D01*
X527500Y57475D01*
D02*
G37*
G36*
X517500D02*
X516342Y57323D01*
X515262Y56876D01*
X514335Y56164D01*
X513624Y55238D01*
X513177Y54158D01*
X513025Y53000D01*
X513177Y51842D01*
X513624Y50762D01*
X514335Y49836D01*
X515262Y49124D01*
X516342Y48677D01*
X517500Y48525D01*
X518658Y48677D01*
X519738Y49124D01*
X520665Y49836D01*
X521376Y50762D01*
X521823Y51842D01*
X521975Y53000D01*
X521823Y54158D01*
X521376Y55238D01*
X520665Y56164D01*
X519738Y56876D01*
X518658Y57323D01*
X517500Y57475D01*
D02*
G37*
G36*
X311162Y51529D02*
X310506Y51398D01*
X309950Y51027D01*
X309578Y50471D01*
X309448Y49815D01*
X309578Y49159D01*
X309950Y48603D01*
X310506Y48231D01*
X311162Y48101D01*
X311818Y48231D01*
X312374Y48603D01*
X312745Y49159D01*
X312876Y49815D01*
X312745Y50471D01*
X312374Y51027D01*
X311818Y51398D01*
X311162Y51529D01*
D02*
G37*
G36*
X276500Y49214D02*
X275844Y49084D01*
X275288Y48712D01*
X274916Y48156D01*
X274786Y47500D01*
X274916Y46844D01*
X275288Y46288D01*
X275844Y45916D01*
X276500Y45786D01*
X277156Y45916D01*
X277712Y46288D01*
X278084Y46844D01*
X278214Y47500D01*
X278084Y48156D01*
X277712Y48712D01*
X277156Y49084D01*
X276500Y49214D01*
D02*
G37*
G36*
X255000Y48714D02*
X254344Y48584D01*
X253788Y48212D01*
X253416Y47656D01*
X253286Y47000D01*
X253416Y46344D01*
X253788Y45788D01*
X254344Y45416D01*
X255000Y45286D01*
X255656Y45416D01*
X256212Y45788D01*
X256584Y46344D01*
X256714Y47000D01*
X256584Y47656D01*
X256212Y48212D01*
X255656Y48584D01*
X255000Y48714D01*
D02*
G37*
G36*
X233500Y47714D02*
X232844Y47584D01*
X232288Y47212D01*
X231916Y46656D01*
X231786Y46000D01*
X231916Y45344D01*
X232288Y44788D01*
X232844Y44416D01*
X233500Y44286D01*
X234156Y44416D01*
X234712Y44788D01*
X235084Y45344D01*
X235214Y46000D01*
X235084Y46656D01*
X234712Y47212D01*
X234156Y47584D01*
X233500Y47714D01*
D02*
G37*
G36*
X492500Y43913D02*
X491959Y43805D01*
X491501Y43499D01*
X491195Y43041D01*
X491087Y42500D01*
X491195Y41959D01*
X491501Y41501D01*
X491959Y41195D01*
X492500Y41087D01*
X493041Y41195D01*
X493499Y41501D01*
X493805Y41959D01*
X493913Y42500D01*
X493805Y43041D01*
X493499Y43499D01*
X493041Y43805D01*
X492500Y43913D01*
D02*
G37*
G36*
X94829Y44430D02*
X94174Y44299D01*
X93617Y43928D01*
X93246Y43371D01*
X93115Y42716D01*
X93246Y42060D01*
X93617Y41504D01*
X94174Y41132D01*
X94829Y41002D01*
X95485Y41132D01*
X96041Y41504D01*
X96413Y42060D01*
X96543Y42716D01*
X96413Y43371D01*
X96041Y43928D01*
X95485Y44299D01*
X94829Y44430D01*
D02*
G37*
G36*
X102000Y43714D02*
X101344Y43584D01*
X100788Y43212D01*
X100416Y42656D01*
X100286Y42000D01*
X100416Y41344D01*
X100788Y40788D01*
X101344Y40416D01*
X102000Y40286D01*
X102656Y40416D01*
X103212Y40788D01*
X103584Y41344D01*
X103714Y42000D01*
X103584Y42656D01*
X103212Y43212D01*
X102656Y43584D01*
X102000Y43714D01*
D02*
G37*
G36*
X243429Y43357D02*
X242773Y43227D01*
X242217Y42855D01*
X241846Y42299D01*
X241715Y41643D01*
X241846Y40987D01*
X242217Y40431D01*
X242773Y40060D01*
X243429Y39929D01*
X244085Y40060D01*
X244641Y40431D01*
X245013Y40987D01*
X245143Y41643D01*
X245013Y42299D01*
X244641Y42855D01*
X244085Y43227D01*
X243429Y43357D01*
D02*
G37*
G36*
X400528Y42923D02*
X399872Y42792D01*
X399316Y42421D01*
X398944Y41865D01*
X398814Y41209D01*
X398944Y40553D01*
X399316Y39997D01*
X399872Y39625D01*
X400528Y39495D01*
X401184Y39625D01*
X401740Y39997D01*
X402111Y40553D01*
X402242Y41209D01*
X402111Y41865D01*
X401740Y42421D01*
X401184Y42792D01*
X400528Y42923D01*
D02*
G37*
G36*
X378028Y42423D02*
X377372Y42292D01*
X376816Y41921D01*
X376444Y41365D01*
X376313Y40709D01*
X376444Y40053D01*
X376816Y39497D01*
X377372Y39125D01*
X378028Y38995D01*
X378683Y39125D01*
X379240Y39497D01*
X379611Y40053D01*
X379742Y40709D01*
X379611Y41365D01*
X379240Y41921D01*
X378683Y42292D01*
X378028Y42423D01*
D02*
G37*
G36*
X355028D02*
X354372Y42292D01*
X353816Y41921D01*
X353444Y41365D01*
X353313Y40709D01*
X353444Y40053D01*
X353816Y39497D01*
X354372Y39125D01*
X355028Y38995D01*
X355683Y39125D01*
X356240Y39497D01*
X356611Y40053D01*
X356742Y40709D01*
X356611Y41365D01*
X356240Y41921D01*
X355683Y42292D01*
X355028Y42423D01*
D02*
G37*
G36*
X332528D02*
X331872Y42292D01*
X331315Y41921D01*
X330944Y41365D01*
X330814Y40709D01*
X330944Y40053D01*
X331315Y39497D01*
X331872Y39125D01*
X332528Y38995D01*
X333184Y39125D01*
X333740Y39497D01*
X334111Y40053D01*
X334242Y40709D01*
X334111Y41365D01*
X333740Y41921D01*
X333184Y42292D01*
X332528Y42423D01*
D02*
G37*
G36*
X309528D02*
X308872Y42292D01*
X308315Y41921D01*
X307944Y41365D01*
X307814Y40709D01*
X307944Y40053D01*
X308315Y39497D01*
X308872Y39125D01*
X309528Y38995D01*
X310184Y39125D01*
X310740Y39497D01*
X311111Y40053D01*
X311242Y40709D01*
X311111Y41365D01*
X310740Y41921D01*
X310184Y42292D01*
X309528Y42423D01*
D02*
G37*
G36*
X287028D02*
X286372Y42292D01*
X285816Y41921D01*
X285444Y41365D01*
X285314Y40709D01*
X285444Y40053D01*
X285816Y39497D01*
X286372Y39125D01*
X287028Y38995D01*
X287684Y39125D01*
X288240Y39497D01*
X288611Y40053D01*
X288742Y40709D01*
X288611Y41365D01*
X288240Y41921D01*
X287684Y42292D01*
X287028Y42423D01*
D02*
G37*
G36*
X265028D02*
X264372Y42292D01*
X263815Y41921D01*
X263444Y41365D01*
X263314Y40709D01*
X263444Y40053D01*
X263815Y39497D01*
X264372Y39125D01*
X265028Y38995D01*
X265684Y39125D01*
X266240Y39497D01*
X266611Y40053D01*
X266742Y40709D01*
X266611Y41365D01*
X266240Y41921D01*
X265684Y42292D01*
X265028Y42423D01*
D02*
G37*
G36*
X527500Y47475D02*
X526342Y47323D01*
X525262Y46876D01*
X524335Y46165D01*
X523624Y45238D01*
X523177Y44158D01*
X523025Y43000D01*
X523177Y41842D01*
X523624Y40762D01*
X524335Y39836D01*
X525262Y39124D01*
X526342Y38677D01*
X527500Y38525D01*
X528658Y38677D01*
X529738Y39124D01*
X530664Y39836D01*
X531376Y40762D01*
X531823Y41842D01*
X531975Y43000D01*
X531823Y44158D01*
X531376Y45238D01*
X530664Y46165D01*
X529738Y46876D01*
X528658Y47323D01*
X527500Y47475D01*
D02*
G37*
G36*
X517500D02*
X516342Y47323D01*
X515262Y46876D01*
X514335Y46165D01*
X513624Y45238D01*
X513177Y44158D01*
X513025Y43000D01*
X513177Y41842D01*
X513624Y40762D01*
X514335Y39836D01*
X515262Y39124D01*
X516342Y38677D01*
X517500Y38525D01*
X518658Y38677D01*
X519738Y39124D01*
X520665Y39836D01*
X521376Y40762D01*
X521823Y41842D01*
X521975Y43000D01*
X521823Y44158D01*
X521376Y45238D01*
X520665Y46165D01*
X519738Y46876D01*
X518658Y47323D01*
X517500Y47475D01*
D02*
G37*
G36*
X116500Y41214D02*
X115844Y41084D01*
X115288Y40712D01*
X114916Y40156D01*
X114786Y39500D01*
X114916Y38844D01*
X115288Y38288D01*
X115844Y37916D01*
X116500Y37786D01*
X117156Y37916D01*
X117712Y38288D01*
X118084Y38844D01*
X118214Y39500D01*
X118084Y40156D01*
X117712Y40712D01*
X117156Y41084D01*
X116500Y41214D01*
D02*
G37*
G36*
X110500Y39413D02*
X109959Y39305D01*
X109501Y38999D01*
X109195Y38541D01*
X109087Y38000D01*
X109195Y37459D01*
X109501Y37001D01*
X109959Y36695D01*
X110500Y36587D01*
X111041Y36695D01*
X111499Y37001D01*
X111805Y37459D01*
X111913Y38000D01*
X111805Y38541D01*
X111499Y38999D01*
X111041Y39305D01*
X110500Y39413D01*
D02*
G37*
G36*
X130000Y37214D02*
X129344Y37084D01*
X128788Y36712D01*
X128416Y36156D01*
X128286Y35500D01*
X128416Y34844D01*
X128788Y34288D01*
X129344Y33916D01*
X130000Y33786D01*
X130656Y33916D01*
X131212Y34288D01*
X131584Y34844D01*
X131714Y35500D01*
X131584Y36156D01*
X131212Y36712D01*
X130656Y37084D01*
X130000Y37214D01*
D02*
G37*
G36*
X40000Y36714D02*
X39344Y36584D01*
X38788Y36212D01*
X38416Y35656D01*
X38286Y35000D01*
X38416Y34344D01*
X38788Y33788D01*
X39344Y33416D01*
X40000Y33286D01*
X40656Y33416D01*
X41212Y33788D01*
X41584Y34344D01*
X41714Y35000D01*
X41584Y35656D01*
X41212Y36212D01*
X40656Y36584D01*
X40000Y36714D01*
D02*
G37*
G36*
X22835Y30219D02*
X22179Y30089D01*
X21623Y29717D01*
X21251Y29161D01*
X21121Y28505D01*
X21251Y27849D01*
X21623Y27293D01*
X22179Y26922D01*
X22835Y26791D01*
X23491Y26922D01*
X24047Y27293D01*
X24418Y27849D01*
X24549Y28505D01*
X24418Y29161D01*
X24047Y29717D01*
X23491Y30089D01*
X22835Y30219D01*
D02*
G37*
G36*
X12835D02*
X12179Y30089D01*
X11623Y29717D01*
X11251Y29161D01*
X11120Y28505D01*
X11251Y27849D01*
X11623Y27293D01*
X12179Y26922D01*
X12835Y26791D01*
X13490Y26922D01*
X14047Y27293D01*
X14418Y27849D01*
X14549Y28505D01*
X14418Y29161D01*
X14047Y29717D01*
X13490Y30089D01*
X12835Y30219D01*
D02*
G37*
G36*
X40000Y29214D02*
X39344Y29084D01*
X38788Y28712D01*
X38416Y28156D01*
X38286Y27500D01*
X38416Y26844D01*
X38788Y26288D01*
X39344Y25916D01*
X40000Y25786D01*
X40656Y25916D01*
X41212Y26288D01*
X41584Y26844D01*
X41714Y27500D01*
X41584Y28156D01*
X41212Y28712D01*
X40656Y29084D01*
X40000Y29214D01*
D02*
G37*
G36*
X102500Y21714D02*
X101844Y21584D01*
X101288Y21212D01*
X100916Y20656D01*
X100786Y20000D01*
X100916Y19344D01*
X101288Y18788D01*
X101844Y18416D01*
X102500Y18286D01*
X103156Y18416D01*
X103712Y18788D01*
X104084Y19344D01*
X104214Y20000D01*
X104084Y20656D01*
X103712Y21212D01*
X103156Y21584D01*
X102500Y21714D01*
D02*
G37*
G36*
X33500D02*
X32844Y21584D01*
X32288Y21212D01*
X31916Y20656D01*
X31786Y20000D01*
X31916Y19344D01*
X32288Y18788D01*
X32844Y18416D01*
X33500Y18286D01*
X34156Y18416D01*
X34712Y18788D01*
X35084Y19344D01*
X35214Y20000D01*
X35084Y20656D01*
X34712Y21212D01*
X34156Y21584D01*
X33500Y21714D01*
D02*
G37*
G36*
X27500D02*
X26844Y21584D01*
X26288Y21212D01*
X25916Y20656D01*
X25786Y20000D01*
X25916Y19344D01*
X26288Y18788D01*
X26844Y18416D01*
X27500Y18286D01*
X28156Y18416D01*
X28712Y18788D01*
X29084Y19344D01*
X29214Y20000D01*
X29084Y20656D01*
X28712Y21212D01*
X28156Y21584D01*
X27500Y21714D01*
D02*
G37*
G36*
X47835Y20219D02*
X47179Y20089D01*
X46623Y19717D01*
X46251Y19161D01*
X46121Y18505D01*
X46251Y17849D01*
X46623Y17293D01*
X47179Y16922D01*
X47835Y16791D01*
X48491Y16922D01*
X49047Y17293D01*
X49418Y17849D01*
X49549Y18505D01*
X49418Y19161D01*
X49047Y19717D01*
X48491Y20089D01*
X47835Y20219D01*
D02*
G37*
G36*
X30500Y18714D02*
X29844Y18584D01*
X29288Y18212D01*
X28916Y17656D01*
X28786Y17000D01*
X28916Y16344D01*
X29288Y15788D01*
X29844Y15416D01*
X30500Y15286D01*
X31156Y15416D01*
X31712Y15788D01*
X32084Y16344D01*
X32214Y17000D01*
X32084Y17656D01*
X31712Y18212D01*
X31156Y18584D01*
X30500Y18714D01*
D02*
G37*
G36*
X97000Y16714D02*
X96344Y16584D01*
X95788Y16212D01*
X95416Y15656D01*
X95286Y15000D01*
X95416Y14344D01*
X95788Y13788D01*
X96344Y13416D01*
X97000Y13286D01*
X97656Y13416D01*
X98212Y13788D01*
X98584Y14344D01*
X98714Y15000D01*
X98584Y15656D01*
X98212Y16212D01*
X97656Y16584D01*
X97000Y16714D01*
D02*
G37*
G36*
X72835Y10219D02*
X72179Y10089D01*
X71623Y9717D01*
X71251Y9161D01*
X71121Y8505D01*
X71251Y7849D01*
X71623Y7293D01*
X72179Y6922D01*
X72835Y6791D01*
X73491Y6922D01*
X74047Y7293D01*
X74418Y7849D01*
X74549Y8505D01*
X74418Y9161D01*
X74047Y9717D01*
X73491Y10089D01*
X72835Y10219D01*
D02*
G37*
G36*
X62835D02*
X62179Y10089D01*
X61623Y9717D01*
X61251Y9161D01*
X61120Y8505D01*
X61251Y7849D01*
X61623Y7293D01*
X62179Y6922D01*
X62835Y6791D01*
X63490Y6922D01*
X64047Y7293D01*
X64418Y7849D01*
X64549Y8505D01*
X64418Y9161D01*
X64047Y9717D01*
X63490Y10089D01*
X62835Y10219D01*
D02*
G37*
G36*
X52835D02*
X52179Y10089D01*
X51623Y9717D01*
X51251Y9161D01*
X51121Y8505D01*
X51251Y7849D01*
X51623Y7293D01*
X52179Y6922D01*
X52835Y6791D01*
X53491Y6922D01*
X54047Y7293D01*
X54418Y7849D01*
X54549Y8505D01*
X54418Y9161D01*
X54047Y9717D01*
X53491Y10089D01*
X52835Y10219D01*
D02*
G37*
G36*
X22835D02*
X22179Y10089D01*
X21623Y9717D01*
X21251Y9161D01*
X21121Y8505D01*
X21251Y7849D01*
X21623Y7293D01*
X22179Y6922D01*
X22835Y6791D01*
X23491Y6922D01*
X24047Y7293D01*
X24418Y7849D01*
X24549Y8505D01*
X24418Y9161D01*
X24047Y9717D01*
X23491Y10089D01*
X22835Y10219D01*
D02*
G37*
G36*
X12835D02*
X12179Y10089D01*
X11623Y9717D01*
X11251Y9161D01*
X11120Y8505D01*
X11251Y7849D01*
X11623Y7293D01*
X12179Y6922D01*
X12835Y6791D01*
X13490Y6922D01*
X14047Y7293D01*
X14418Y7849D01*
X14549Y8505D01*
X14418Y9161D01*
X14047Y9717D01*
X13490Y10089D01*
X12835Y10219D01*
D02*
G37*
G36*
X86500Y381475D02*
X85701Y381370D01*
X84957Y381062D01*
X84318Y380572D01*
X83828Y379932D01*
X83520Y379188D01*
X83415Y378390D01*
X83520Y377591D01*
X83828Y376847D01*
X84318Y376208D01*
X84957Y375718D01*
X85701Y375409D01*
X86500Y375304D01*
X87299Y375409D01*
X88043Y375718D01*
X88682Y376208D01*
X89172Y376847D01*
X89480Y377591D01*
X89586Y378390D01*
X89480Y379188D01*
X89172Y379932D01*
X88682Y380572D01*
X88043Y381062D01*
X87299Y381370D01*
X86500Y381475D01*
D02*
G37*
G36*
X288792Y377895D02*
X288136Y377765D01*
X287580Y377393D01*
X287208Y376837D01*
X287078Y376181D01*
X287208Y375525D01*
X287580Y374969D01*
X288136Y374598D01*
X288792Y374467D01*
X289448Y374598D01*
X290004Y374969D01*
X290375Y375525D01*
X290506Y376181D01*
X290375Y376837D01*
X290004Y377393D01*
X289448Y377765D01*
X288792Y377895D01*
D02*
G37*
G36*
X281000D02*
X280344Y377765D01*
X279788Y377393D01*
X279416Y376837D01*
X279286Y376181D01*
X279416Y375525D01*
X279788Y374969D01*
X280344Y374598D01*
X281000Y374467D01*
X281656Y374598D01*
X282212Y374969D01*
X282584Y375525D01*
X282714Y376181D01*
X282584Y376837D01*
X282212Y377393D01*
X281656Y377765D01*
X281000Y377895D01*
D02*
G37*
G36*
X59000Y383547D02*
X57564Y383358D01*
X56226Y382804D01*
X55077Y381923D01*
X54196Y380774D01*
X53642Y379436D01*
X53452Y378000D01*
X53642Y376564D01*
X54196Y375226D01*
X55077Y374077D01*
X56226Y373196D01*
X57564Y372642D01*
X59000Y372452D01*
X60436Y372642D01*
X61774Y373196D01*
X62923Y374077D01*
X63804Y375226D01*
X64358Y376564D01*
X64547Y378000D01*
X64358Y379436D01*
X63804Y380774D01*
X62923Y381923D01*
X61774Y382804D01*
X60436Y383358D01*
X59000Y383547D01*
D02*
G37*
G36*
X200216Y373094D02*
X199560Y372963D01*
X199004Y372591D01*
X198632Y372035D01*
X198502Y371379D01*
X198632Y370724D01*
X199004Y370167D01*
X199560Y369796D01*
X200216Y369665D01*
X200872Y369796D01*
X201428Y370167D01*
X201799Y370724D01*
X201930Y371379D01*
X201799Y372035D01*
X201428Y372591D01*
X200872Y372963D01*
X200216Y373094D01*
D02*
G37*
G36*
X297000Y369214D02*
X296344Y369084D01*
X295788Y368712D01*
X295416Y368156D01*
X295286Y367500D01*
X295416Y366844D01*
X295788Y366288D01*
X296344Y365916D01*
X297000Y365786D01*
X297656Y365916D01*
X298212Y366288D01*
X298584Y366844D01*
X298714Y367500D01*
X298584Y368156D01*
X298212Y368712D01*
X297656Y369084D01*
X297000Y369214D01*
D02*
G37*
G36*
X44000Y368616D02*
X43190Y368454D01*
X42504Y367996D01*
X42046Y367309D01*
X41885Y366500D01*
X42046Y365690D01*
X42504Y365004D01*
X43190Y364546D01*
X44000Y364385D01*
X44810Y364546D01*
X45496Y365004D01*
X45954Y365690D01*
X46115Y366500D01*
X45954Y367309D01*
X45496Y367996D01*
X44810Y368454D01*
X44000Y368616D01*
D02*
G37*
G36*
X7500Y368115D02*
X6690Y367954D01*
X6004Y367496D01*
X5546Y366810D01*
X5385Y366000D01*
X5546Y365191D01*
X6004Y364504D01*
X6690Y364046D01*
X7500Y363884D01*
X8310Y364046D01*
X8996Y364504D01*
X9454Y365191D01*
X9615Y366000D01*
X9454Y366810D01*
X8996Y367496D01*
X8310Y367954D01*
X7500Y368115D01*
D02*
G37*
G36*
X291000Y367214D02*
X290344Y367084D01*
X289788Y366712D01*
X289416Y366156D01*
X289286Y365500D01*
X289416Y364844D01*
X289788Y364288D01*
X290344Y363916D01*
X291000Y363786D01*
X291656Y363916D01*
X292212Y364288D01*
X292584Y364844D01*
X292714Y365500D01*
X292584Y366156D01*
X292212Y366712D01*
X291656Y367084D01*
X291000Y367214D01*
D02*
G37*
G36*
X267000D02*
X266344Y367084D01*
X265788Y366712D01*
X265416Y366156D01*
X265286Y365500D01*
X265416Y364844D01*
X265788Y364288D01*
X266344Y363916D01*
X267000Y363786D01*
X267656Y363916D01*
X268212Y364288D01*
X268584Y364844D01*
X268714Y365500D01*
X268584Y366156D01*
X268212Y366712D01*
X267656Y367084D01*
X267000Y367214D01*
D02*
G37*
G36*
X282000Y365714D02*
X281344Y365584D01*
X280788Y365212D01*
X280416Y364656D01*
X280286Y364000D01*
X280416Y363344D01*
X280788Y362788D01*
X281344Y362416D01*
X282000Y362286D01*
X282656Y362416D01*
X283212Y362788D01*
X283584Y363344D01*
X283714Y364000D01*
X283584Y364656D01*
X283212Y365212D01*
X282656Y365584D01*
X282000Y365714D01*
D02*
G37*
G36*
X89559Y367669D02*
X83441D01*
Y361551D01*
X89559D01*
Y367669D01*
D02*
G37*
G36*
X303000Y364714D02*
X302344Y364584D01*
X301788Y364212D01*
X301416Y363656D01*
X301286Y363000D01*
X301416Y362344D01*
X301788Y361788D01*
X302344Y361416D01*
X303000Y361286D01*
X303656Y361416D01*
X304212Y361788D01*
X304584Y362344D01*
X304714Y363000D01*
X304584Y363656D01*
X304212Y364212D01*
X303656Y364584D01*
X303000Y364714D01*
D02*
G37*
G36*
X293000Y361214D02*
X292344Y361084D01*
X291788Y360712D01*
X291416Y360156D01*
X291286Y359500D01*
X291416Y358844D01*
X291788Y358288D01*
X292344Y357916D01*
X293000Y357786D01*
X293656Y357916D01*
X294212Y358288D01*
X294584Y358844D01*
X294714Y359500D01*
X294584Y360156D01*
X294212Y360712D01*
X293656Y361084D01*
X293000Y361214D01*
D02*
G37*
G36*
X266000Y360214D02*
X265344Y360084D01*
X264788Y359712D01*
X264416Y359156D01*
X264286Y358500D01*
X264416Y357844D01*
X264788Y357288D01*
X265344Y356916D01*
X266000Y356786D01*
X266656Y356916D01*
X267212Y357288D01*
X267584Y357844D01*
X267714Y358500D01*
X267584Y359156D01*
X267212Y359712D01*
X266656Y360084D01*
X266000Y360214D01*
D02*
G37*
G36*
X201500Y356501D02*
X200844Y356371D01*
X200288Y355999D01*
X199916Y355443D01*
X199786Y354787D01*
X199916Y354132D01*
X200288Y353575D01*
X200844Y353204D01*
X201500Y353073D01*
X202156Y353204D01*
X202712Y353575D01*
X203084Y354132D01*
X203214Y354787D01*
X203084Y355443D01*
X202712Y355999D01*
X202156Y356371D01*
X201500Y356501D01*
D02*
G37*
G36*
X317500Y356214D02*
X316844Y356084D01*
X316288Y355712D01*
X315916Y355156D01*
X315786Y354500D01*
X315916Y353844D01*
X316288Y353288D01*
X316844Y352916D01*
X317500Y352786D01*
X318156Y352916D01*
X318712Y353288D01*
X319084Y353844D01*
X319214Y354500D01*
X319084Y355156D01*
X318712Y355712D01*
X318156Y356084D01*
X317500Y356214D01*
D02*
G37*
G36*
X290500D02*
X289844Y356084D01*
X289288Y355712D01*
X288916Y355156D01*
X288786Y354500D01*
X288916Y353844D01*
X289288Y353288D01*
X289844Y352916D01*
X290500Y352786D01*
X291156Y352916D01*
X291712Y353288D01*
X292084Y353844D01*
X292214Y354500D01*
X292084Y355156D01*
X291712Y355712D01*
X291156Y356084D01*
X290500Y356214D01*
D02*
G37*
G36*
X260500Y353214D02*
X259844Y353084D01*
X259288Y352712D01*
X258916Y352156D01*
X258786Y351500D01*
X258916Y350844D01*
X259288Y350288D01*
X259844Y349916D01*
X260500Y349786D01*
X261156Y349916D01*
X261712Y350288D01*
X262084Y350844D01*
X262214Y351500D01*
X262084Y352156D01*
X261712Y352712D01*
X261156Y353084D01*
X260500Y353214D01*
D02*
G37*
G36*
X291042Y352172D02*
X290386Y352041D01*
X289830Y351670D01*
X289459Y351114D01*
X289328Y350458D01*
X289459Y349802D01*
X289830Y349246D01*
X290386Y348874D01*
X291042Y348744D01*
X291698Y348874D01*
X292254Y349246D01*
X292626Y349802D01*
X292756Y350458D01*
X292626Y351114D01*
X292254Y351670D01*
X291698Y352041D01*
X291042Y352172D01*
D02*
G37*
G36*
X323000Y349214D02*
X322344Y349084D01*
X321788Y348712D01*
X321416Y348156D01*
X321286Y347500D01*
X321416Y346844D01*
X321788Y346288D01*
X322344Y345916D01*
X323000Y345786D01*
X323656Y345916D01*
X324212Y346288D01*
X324584Y346844D01*
X324714Y347500D01*
X324584Y348156D01*
X324212Y348712D01*
X323656Y349084D01*
X323000Y349214D01*
D02*
G37*
G36*
X290500Y348214D02*
X289844Y348084D01*
X289288Y347712D01*
X288916Y347156D01*
X288786Y346500D01*
X288916Y345844D01*
X289288Y345288D01*
X289844Y344916D01*
X290500Y344786D01*
X291156Y344916D01*
X291712Y345288D01*
X292084Y345844D01*
X292214Y346500D01*
X292084Y347156D01*
X291712Y347712D01*
X291156Y348084D01*
X290500Y348214D01*
D02*
G37*
G36*
X232814Y347344D02*
X232158Y347214D01*
X231602Y346842D01*
X231230Y346286D01*
X231100Y345630D01*
X231230Y344974D01*
X231602Y344418D01*
X232158Y344047D01*
X232814Y343916D01*
X233470Y344047D01*
X234026Y344418D01*
X234398Y344974D01*
X234528Y345630D01*
X234398Y346286D01*
X234026Y346842D01*
X233470Y347214D01*
X232814Y347344D01*
D02*
G37*
G36*
X274933Y358329D02*
X274433Y358329D01*
X269933D01*
Y353829D01*
X269933Y353392D01*
X269933Y352892D01*
Y348829D01*
X269933Y348392D01*
X269933Y347892D01*
Y343392D01*
X274433D01*
X274870Y343392D01*
X275370Y343392D01*
X279870D01*
Y347892D01*
X279870Y348329D01*
X279870Y348829D01*
Y352892D01*
X279870Y353329D01*
X279870Y353829D01*
Y358329D01*
X274933Y358329D01*
D02*
G37*
G36*
X110335Y345219D02*
X109679Y345089D01*
X109123Y344717D01*
X108751Y344161D01*
X108621Y343505D01*
X108751Y342849D01*
X109123Y342293D01*
X109679Y341922D01*
X110335Y341791D01*
X110991Y341922D01*
X111547Y342293D01*
X111918Y342849D01*
X112049Y343505D01*
X111918Y344161D01*
X111547Y344717D01*
X110991Y345089D01*
X110335Y345219D01*
D02*
G37*
G36*
X219756Y344312D02*
X219100Y344182D01*
X218544Y343810D01*
X218172Y343254D01*
X218042Y342598D01*
X218172Y341943D01*
X218544Y341386D01*
X219100Y341015D01*
X219756Y340884D01*
X220412Y341015D01*
X220968Y341386D01*
X221340Y341943D01*
X221470Y342598D01*
X221340Y343254D01*
X220968Y343810D01*
X220412Y344182D01*
X219756Y344312D01*
D02*
G37*
G36*
X242000Y344214D02*
X241344Y344084D01*
X240788Y343712D01*
X240416Y343156D01*
X240286Y342500D01*
X240416Y341844D01*
X240788Y341288D01*
X241344Y340916D01*
X242000Y340786D01*
X242656Y340916D01*
X243212Y341288D01*
X243584Y341844D01*
X243714Y342500D01*
X243584Y343156D01*
X243212Y343712D01*
X242656Y344084D01*
X242000Y344214D01*
D02*
G37*
G36*
X311500Y343714D02*
X310844Y343584D01*
X310288Y343212D01*
X309916Y342656D01*
X309786Y342000D01*
X309916Y341344D01*
X310288Y340788D01*
X310844Y340416D01*
X311500Y340286D01*
X312156Y340416D01*
X312712Y340788D01*
X313084Y341344D01*
X313214Y342000D01*
X313084Y342656D01*
X312712Y343212D01*
X312156Y343584D01*
X311500Y343714D01*
D02*
G37*
G36*
X196500Y341214D02*
X195844Y341084D01*
X195288Y340712D01*
X194916Y340156D01*
X194786Y339500D01*
X194916Y338844D01*
X195288Y338288D01*
X195844Y337916D01*
X196500Y337786D01*
X197156Y337916D01*
X197712Y338288D01*
X198084Y338844D01*
X198214Y339500D01*
X198084Y340156D01*
X197712Y340712D01*
X197156Y341084D01*
X196500Y341214D01*
D02*
G37*
G36*
X297078Y337311D02*
X296422Y337181D01*
X295866Y336809D01*
X295494Y336253D01*
X295364Y335597D01*
X295494Y334941D01*
X295866Y334385D01*
X296422Y334014D01*
X297078Y333883D01*
X297734Y334014D01*
X298290Y334385D01*
X298661Y334941D01*
X298792Y335597D01*
X298661Y336253D01*
X298290Y336809D01*
X297734Y337181D01*
X297078Y337311D01*
D02*
G37*
G36*
X221000Y336214D02*
X220344Y336084D01*
X219788Y335712D01*
X219416Y335156D01*
X219286Y334500D01*
X219416Y333844D01*
X219788Y333288D01*
X220344Y332916D01*
X221000Y332786D01*
X221656Y332916D01*
X222212Y333288D01*
X222584Y333844D01*
X222714Y334500D01*
X222584Y335156D01*
X222212Y335712D01*
X221656Y336084D01*
X221000Y336214D01*
D02*
G37*
G36*
X227260Y334306D02*
X226604Y334176D01*
X226048Y333804D01*
X225676Y333248D01*
X225546Y332592D01*
X225676Y331936D01*
X226048Y331380D01*
X226604Y331009D01*
X227260Y330878D01*
X227916Y331009D01*
X228472Y331380D01*
X228843Y331936D01*
X228974Y332592D01*
X228843Y333248D01*
X228472Y333804D01*
X227916Y334176D01*
X227260Y334306D01*
D02*
G37*
G36*
X247000Y333714D02*
X246344Y333584D01*
X245788Y333212D01*
X245416Y332656D01*
X245286Y332000D01*
X245416Y331344D01*
X245788Y330788D01*
X246344Y330416D01*
X247000Y330286D01*
X247656Y330416D01*
X248212Y330788D01*
X248584Y331344D01*
X248714Y332000D01*
X248584Y332656D01*
X248212Y333212D01*
X247656Y333584D01*
X247000Y333714D01*
D02*
G37*
G36*
X208000Y333214D02*
X207344Y333084D01*
X206788Y332712D01*
X206416Y332156D01*
X206286Y331500D01*
X206416Y330844D01*
X206788Y330288D01*
X207344Y329916D01*
X208000Y329786D01*
X208656Y329916D01*
X209212Y330288D01*
X209584Y330844D01*
X209714Y331500D01*
X209584Y332156D01*
X209212Y332712D01*
X208656Y333084D01*
X208000Y333214D01*
D02*
G37*
G36*
X267000Y325464D02*
X266344Y325334D01*
X265788Y324962D01*
X265416Y324406D01*
X265286Y323750D01*
X265416Y323094D01*
X265788Y322538D01*
X266344Y322166D01*
X267000Y322036D01*
X267656Y322166D01*
X268212Y322538D01*
X268584Y323094D01*
X268714Y323750D01*
X268584Y324406D01*
X268212Y324962D01*
X267656Y325334D01*
X267000Y325464D01*
D02*
G37*
G36*
X135331Y322281D02*
X134752Y322166D01*
X134261Y321838D01*
X133933Y321347D01*
X133817Y320768D01*
X133933Y320189D01*
X134261Y319698D01*
X134752Y319370D01*
X135331Y319254D01*
X135910Y319370D01*
X136401Y319698D01*
X136729Y320189D01*
X136844Y320768D01*
X136729Y321347D01*
X136401Y321838D01*
X135910Y322166D01*
X135331Y322281D01*
D02*
G37*
G36*
X131000D02*
X130421Y322166D01*
X129930Y321838D01*
X129602Y321347D01*
X129487Y320768D01*
X129602Y320189D01*
X129930Y319698D01*
X130421Y319370D01*
X131000Y319254D01*
X131579Y319370D01*
X132070Y319698D01*
X132398Y320189D01*
X132513Y320768D01*
X132398Y321347D01*
X132070Y321838D01*
X131579Y322166D01*
X131000Y322281D01*
D02*
G37*
G36*
X235000Y325464D02*
X234344Y325334D01*
X233788Y324962D01*
X233416Y324406D01*
X233286Y323750D01*
X233416Y323094D01*
X233788Y322538D01*
X234344Y322166D01*
X234613Y322113D01*
Y321603D01*
X234302Y321541D01*
X233746Y321170D01*
X233374Y320614D01*
X233244Y319958D01*
X233374Y319302D01*
X233746Y318746D01*
X234302Y318374D01*
X234958Y318244D01*
X235614Y318374D01*
X236170Y318746D01*
X236541Y319302D01*
X236672Y319958D01*
X236541Y320614D01*
X236170Y321170D01*
X235614Y321541D01*
X235345Y321595D01*
Y322105D01*
X235656Y322166D01*
X236212Y322538D01*
X236584Y323094D01*
X236714Y323750D01*
X236584Y324406D01*
X236212Y324962D01*
X235656Y325334D01*
X235000Y325464D01*
D02*
G37*
G36*
X288716Y319705D02*
X288060Y319574D01*
X287504Y319203D01*
X287132Y318647D01*
X287002Y317991D01*
X287132Y317335D01*
X287504Y316779D01*
X288060Y316407D01*
X288716Y316277D01*
X289372Y316407D01*
X289928Y316779D01*
X290299Y317335D01*
X290430Y317991D01*
X290299Y318647D01*
X289928Y319203D01*
X289372Y319574D01*
X288716Y319705D01*
D02*
G37*
G36*
X280500Y319214D02*
X279844Y319084D01*
X279288Y318712D01*
X278916Y318156D01*
X278786Y317500D01*
X278916Y316844D01*
X279288Y316288D01*
X279844Y315916D01*
X280500Y315786D01*
X281156Y315916D01*
X281712Y316288D01*
X282084Y316844D01*
X282214Y317500D01*
X282084Y318156D01*
X281712Y318712D01*
X281156Y319084D01*
X280500Y319214D01*
D02*
G37*
G36*
X135331Y317950D02*
X134752Y317835D01*
X134261Y317507D01*
X133933Y317016D01*
X133817Y316437D01*
X133933Y315858D01*
X134261Y315367D01*
X134752Y315039D01*
X135331Y314924D01*
X135910Y315039D01*
X136401Y315367D01*
X136729Y315858D01*
X136844Y316437D01*
X136729Y317016D01*
X136401Y317507D01*
X135910Y317835D01*
X135331Y317950D01*
D02*
G37*
G36*
X131000D02*
X130421Y317835D01*
X129930Y317507D01*
X129602Y317016D01*
X129487Y316437D01*
X129602Y315858D01*
X129930Y315367D01*
X130421Y315039D01*
X131000Y314924D01*
X131579Y315039D01*
X132070Y315367D01*
X132398Y315858D01*
X132513Y316437D01*
X132398Y317016D01*
X132070Y317507D01*
X131579Y317835D01*
X131000Y317950D01*
D02*
G37*
G36*
X347255Y315413D02*
X346714Y315305D01*
X346255Y314999D01*
X345949Y314541D01*
X345842Y314000D01*
X345949Y313459D01*
X346255Y313001D01*
X346714Y312695D01*
X347255Y312587D01*
X347795Y312695D01*
X348254Y313001D01*
X348560Y313459D01*
X348668Y314000D01*
X348560Y314541D01*
X348254Y314999D01*
X347795Y315305D01*
X347255Y315413D01*
D02*
G37*
G36*
X219032Y327468D02*
X218531Y327468D01*
X214032D01*
Y322969D01*
X214032Y322532D01*
X214032Y322031D01*
Y317969D01*
X214032Y317531D01*
X214032Y317032D01*
Y312531D01*
X218531D01*
X218969Y312531D01*
X219468Y312531D01*
X223969D01*
Y317032D01*
X223969Y317469D01*
X223969Y317969D01*
Y322031D01*
X223969Y322468D01*
X223969Y322969D01*
Y327468D01*
X219032Y327468D01*
D02*
G37*
G36*
X298000Y315714D02*
X297344Y315584D01*
X296788Y315212D01*
X296416Y314656D01*
X296286Y314000D01*
X296416Y313344D01*
X296788Y312788D01*
X297344Y312416D01*
X298000Y312286D01*
X298656Y312416D01*
X299212Y312788D01*
X299584Y313344D01*
X299714Y314000D01*
X299584Y314656D01*
X299212Y315212D01*
X298656Y315584D01*
X298000Y315714D01*
D02*
G37*
G36*
X419000Y314913D02*
X418459Y314805D01*
X418001Y314499D01*
X417695Y314041D01*
X417587Y313500D01*
X417695Y312959D01*
X418001Y312501D01*
X418459Y312195D01*
X419000Y312087D01*
X419541Y312195D01*
X419999Y312501D01*
X420305Y312959D01*
X420413Y313500D01*
X420305Y314041D01*
X419999Y314499D01*
X419541Y314805D01*
X419000Y314913D01*
D02*
G37*
G36*
X261814Y315344D02*
X261158Y315214D01*
X260602Y314842D01*
X260230Y314286D01*
X260100Y313630D01*
X260230Y312974D01*
X260602Y312418D01*
X261158Y312047D01*
X261814Y311916D01*
X262470Y312047D01*
X263026Y312418D01*
X263398Y312974D01*
X263528Y313630D01*
X263398Y314286D01*
X263026Y314842D01*
X262470Y315214D01*
X261814Y315344D01*
D02*
G37*
G36*
X100000Y314214D02*
X99344Y314084D01*
X98788Y313712D01*
X98416Y313156D01*
X98286Y312500D01*
X98416Y311844D01*
X98788Y311288D01*
X99344Y310916D01*
X100000Y310786D01*
X100656Y310916D01*
X101212Y311288D01*
X101584Y311844D01*
X101714Y312500D01*
X101584Y313156D01*
X101212Y313712D01*
X100656Y314084D01*
X100000Y314214D01*
D02*
G37*
G36*
X92500D02*
X91844Y314084D01*
X91288Y313712D01*
X90916Y313156D01*
X90786Y312500D01*
X90916Y311844D01*
X91288Y311288D01*
X91844Y310916D01*
X92500Y310786D01*
X93156Y310916D01*
X93712Y311288D01*
X94084Y311844D01*
X94214Y312500D01*
X94084Y313156D01*
X93712Y313712D01*
X93156Y314084D01*
X92500Y314214D01*
D02*
G37*
G36*
X135331Y313620D02*
X134752Y313504D01*
X134261Y313176D01*
X133933Y312685D01*
X133817Y312106D01*
X133933Y311527D01*
X134261Y311036D01*
X134752Y310708D01*
X135331Y310593D01*
X135910Y310708D01*
X136401Y311036D01*
X136729Y311527D01*
X136844Y312106D01*
X136729Y312685D01*
X136401Y313176D01*
X135910Y313504D01*
X135331Y313620D01*
D02*
G37*
G36*
X131000D02*
X130421Y313504D01*
X129930Y313176D01*
X129602Y312685D01*
X129487Y312106D01*
X129602Y311527D01*
X129930Y311036D01*
X130421Y310708D01*
X131000Y310593D01*
X131579Y310708D01*
X132070Y311036D01*
X132398Y311527D01*
X132513Y312106D01*
X132398Y312685D01*
X132070Y313176D01*
X131579Y313504D01*
X131000Y313620D01*
D02*
G37*
G36*
X256000Y313255D02*
X255344Y313124D01*
X254788Y312753D01*
X254416Y312197D01*
X254286Y311541D01*
X254416Y310885D01*
X254788Y310329D01*
X255344Y309957D01*
X256000Y309827D01*
X256656Y309957D01*
X257212Y310329D01*
X257584Y310885D01*
X257714Y311541D01*
X257584Y312197D01*
X257212Y312753D01*
X256656Y313124D01*
X256000Y313255D01*
D02*
G37*
G36*
X229500Y312714D02*
X228844Y312584D01*
X228288Y312212D01*
X227916Y311656D01*
X227786Y311000D01*
X227916Y310344D01*
X228288Y309788D01*
X228844Y309416D01*
X229500Y309286D01*
X230156Y309416D01*
X230712Y309788D01*
X231084Y310344D01*
X231214Y311000D01*
X231084Y311656D01*
X230712Y312212D01*
X230156Y312584D01*
X229500Y312714D01*
D02*
G37*
G36*
X419698Y310413D02*
X419158Y310305D01*
X418699Y309999D01*
X418393Y309541D01*
X418285Y309000D01*
X418393Y308459D01*
X418699Y308001D01*
X419158Y307695D01*
X419698Y307587D01*
X420239Y307695D01*
X420697Y308001D01*
X421004Y308459D01*
X421111Y309000D01*
X421004Y309541D01*
X420697Y309999D01*
X420239Y310305D01*
X419698Y310413D01*
D02*
G37*
G36*
X374500D02*
X373959Y310305D01*
X373501Y309999D01*
X373195Y309541D01*
X373087Y309000D01*
X373195Y308459D01*
X373501Y308001D01*
X373959Y307695D01*
X374500Y307587D01*
X375041Y307695D01*
X375499Y308001D01*
X375805Y308459D01*
X375913Y309000D01*
X375805Y309541D01*
X375499Y309999D01*
X375041Y310305D01*
X374500Y310413D01*
D02*
G37*
G36*
X96250Y310464D02*
X95594Y310334D01*
X95038Y309962D01*
X94666Y309406D01*
X94536Y308750D01*
X94666Y308094D01*
X95038Y307538D01*
X95594Y307166D01*
X96250Y307036D01*
X96906Y307166D01*
X97462Y307538D01*
X97834Y308094D01*
X97964Y308750D01*
X97834Y309406D01*
X97462Y309962D01*
X96906Y310334D01*
X96250Y310464D01*
D02*
G37*
G36*
X291500Y308714D02*
X290844Y308584D01*
X290288Y308212D01*
X289916Y307656D01*
X289786Y307000D01*
X289916Y306344D01*
X290288Y305788D01*
X290844Y305416D01*
X291500Y305286D01*
X292156Y305416D01*
X292712Y305788D01*
X293084Y306344D01*
X293214Y307000D01*
X293084Y307656D01*
X292712Y308212D01*
X292156Y308584D01*
X291500Y308714D01*
D02*
G37*
G36*
X276500D02*
X275844Y308584D01*
X275288Y308212D01*
X274916Y307656D01*
X274786Y307000D01*
X274916Y306344D01*
X275288Y305788D01*
X275844Y305416D01*
X276500Y305286D01*
X277156Y305416D01*
X277712Y305788D01*
X278084Y306344D01*
X278214Y307000D01*
X278084Y307656D01*
X277712Y308212D01*
X277156Y308584D01*
X276500Y308714D01*
D02*
G37*
G36*
X214000D02*
X213344Y308584D01*
X212788Y308212D01*
X212416Y307656D01*
X212286Y307000D01*
X212416Y306344D01*
X212788Y305788D01*
X213344Y305416D01*
X214000Y305286D01*
X214656Y305416D01*
X215212Y305788D01*
X215584Y306344D01*
X215714Y307000D01*
X215584Y307656D01*
X215212Y308212D01*
X214656Y308584D01*
X214000Y308714D01*
D02*
G37*
G36*
X240102Y306753D02*
X239446Y306623D01*
X238890Y306251D01*
X238519Y305695D01*
X238388Y305039D01*
X238519Y304383D01*
X238890Y303827D01*
X239446Y303456D01*
X240102Y303325D01*
X240758Y303456D01*
X241314Y303827D01*
X241686Y304383D01*
X241816Y305039D01*
X241686Y305695D01*
X241314Y306251D01*
X240758Y306623D01*
X240102Y306753D01*
D02*
G37*
G36*
X334500Y306149D02*
X333959Y306041D01*
X333501Y305735D01*
X333195Y305276D01*
X333087Y304736D01*
X333195Y304195D01*
X333501Y303737D01*
X333959Y303430D01*
X334500Y303323D01*
X335041Y303430D01*
X335499Y303737D01*
X335805Y304195D01*
X335913Y304736D01*
X335805Y305276D01*
X335499Y305735D01*
X335041Y306041D01*
X334500Y306149D01*
D02*
G37*
G36*
X100000Y306714D02*
X99344Y306584D01*
X98788Y306212D01*
X98416Y305656D01*
X98286Y305000D01*
X98416Y304344D01*
X98788Y303788D01*
X99344Y303416D01*
X100000Y303286D01*
X100656Y303416D01*
X101212Y303788D01*
X101584Y304344D01*
X101714Y305000D01*
X101584Y305656D01*
X101212Y306212D01*
X100656Y306584D01*
X100000Y306714D01*
D02*
G37*
G36*
X92500D02*
X91844Y306584D01*
X91288Y306212D01*
X90916Y305656D01*
X90786Y305000D01*
X90916Y304344D01*
X91288Y303788D01*
X91844Y303416D01*
X92500Y303286D01*
X93156Y303416D01*
X93712Y303788D01*
X94084Y304344D01*
X94214Y305000D01*
X94084Y305656D01*
X93712Y306212D01*
X93156Y306584D01*
X92500Y306714D01*
D02*
G37*
G36*
X366500Y308299D02*
X365959Y308191D01*
X365501Y307885D01*
X365195Y307427D01*
X365087Y306886D01*
X365195Y306345D01*
X365501Y305887D01*
X365959Y305580D01*
X366396Y305494D01*
X366635Y305132D01*
X366687Y305000D01*
X366587Y304500D01*
X366695Y303959D01*
X367001Y303501D01*
X367459Y303195D01*
X368000Y303087D01*
X368541Y303195D01*
X368999Y303501D01*
X369305Y303959D01*
X369413Y304500D01*
X369305Y305041D01*
X368999Y305499D01*
X368541Y305805D01*
X368104Y305892D01*
X367865Y306254D01*
X367813Y306386D01*
X367913Y306886D01*
X367805Y307427D01*
X367499Y307885D01*
X367041Y308191D01*
X366500Y308299D01*
D02*
G37*
G36*
X303000Y306395D02*
X302344Y306265D01*
X301788Y305893D01*
X301416Y305337D01*
X301286Y304681D01*
X301416Y304025D01*
X301788Y303469D01*
X302344Y303098D01*
X303000Y302967D01*
X303656Y303098D01*
X304212Y303469D01*
X304584Y304025D01*
X304714Y304681D01*
X304584Y305337D01*
X304212Y305893D01*
X303656Y306265D01*
X303000Y306395D01*
D02*
G37*
G36*
X267500Y304033D02*
X266844Y303903D01*
X266288Y303531D01*
X265916Y302975D01*
X265786Y302319D01*
X265916Y301663D01*
X266288Y301107D01*
X266844Y300735D01*
X267500Y300605D01*
X268156Y300735D01*
X268712Y301107D01*
X269084Y301663D01*
X269214Y302319D01*
X269084Y302975D01*
X268712Y303531D01*
X268156Y303903D01*
X267500Y304033D01*
D02*
G37*
G36*
X419000Y303413D02*
X418459Y303305D01*
X418001Y302999D01*
X417695Y302541D01*
X417587Y302000D01*
X417695Y301459D01*
X418001Y301001D01*
X418459Y300695D01*
X419000Y300587D01*
X419541Y300695D01*
X419999Y301001D01*
X420305Y301459D01*
X420413Y302000D01*
X420305Y302541D01*
X419999Y302999D01*
X419541Y303305D01*
X419000Y303413D01*
D02*
G37*
G36*
X333477Y302436D02*
X332937Y302328D01*
X332478Y302022D01*
X332172Y301563D01*
X332064Y301023D01*
X332172Y300482D01*
X332478Y300024D01*
X332937Y299717D01*
X333477Y299610D01*
X334018Y299717D01*
X334476Y300024D01*
X334783Y300482D01*
X334890Y301023D01*
X334783Y301563D01*
X334476Y302022D01*
X334018Y302328D01*
X333477Y302436D01*
D02*
G37*
G36*
X382000Y301913D02*
X381459Y301805D01*
X381001Y301499D01*
X380695Y301041D01*
X380587Y300500D01*
X380695Y299959D01*
X381001Y299501D01*
X381459Y299195D01*
X382000Y299087D01*
X382541Y299195D01*
X382999Y299501D01*
X383305Y299959D01*
X383413Y300500D01*
X383305Y301041D01*
X382999Y301499D01*
X382541Y301805D01*
X382000Y301913D01*
D02*
G37*
G36*
X151500Y302615D02*
X150690Y302454D01*
X150004Y301996D01*
X149546Y301309D01*
X149384Y300500D01*
X149546Y299691D01*
X150004Y299004D01*
X150690Y298546D01*
X151500Y298384D01*
X152310Y298546D01*
X152996Y299004D01*
X153454Y299691D01*
X153615Y300500D01*
X153454Y301309D01*
X152996Y301996D01*
X152310Y302454D01*
X151500Y302615D01*
D02*
G37*
G36*
X412500Y301777D02*
X411844Y301646D01*
X411288Y301275D01*
X410916Y300719D01*
X410786Y300063D01*
X410916Y299407D01*
X411288Y298851D01*
X411844Y298479D01*
X412500Y298349D01*
X413156Y298479D01*
X413712Y298851D01*
X414084Y299407D01*
X414214Y300063D01*
X414084Y300719D01*
X413712Y301275D01*
X413156Y301646D01*
X412500Y301777D01*
D02*
G37*
G36*
X419687Y298913D02*
X419146Y298805D01*
X418687Y298499D01*
X418381Y298041D01*
X418274Y297500D01*
X418381Y296959D01*
X418687Y296501D01*
X419146Y296195D01*
X419687Y296087D01*
X420227Y296195D01*
X420686Y296501D01*
X420992Y296959D01*
X421100Y297500D01*
X420992Y298041D01*
X420686Y298499D01*
X420227Y298805D01*
X419687Y298913D01*
D02*
G37*
G36*
X374500D02*
X373959Y298805D01*
X373501Y298499D01*
X373195Y298041D01*
X373087Y297500D01*
X373195Y296959D01*
X373501Y296501D01*
X373959Y296195D01*
X374500Y296087D01*
X375041Y296195D01*
X375499Y296501D01*
X375805Y296959D01*
X375913Y297500D01*
X375805Y298041D01*
X375499Y298499D01*
X375041Y298805D01*
X374500Y298913D01*
D02*
G37*
G36*
X347255D02*
X346714Y298805D01*
X346255Y298499D01*
X345949Y298041D01*
X345842Y297500D01*
X345949Y296959D01*
X346255Y296501D01*
X346714Y296195D01*
X347255Y296087D01*
X347795Y296195D01*
X348254Y296501D01*
X348560Y296959D01*
X348668Y297500D01*
X348560Y298041D01*
X348254Y298499D01*
X347795Y298805D01*
X347255Y298913D01*
D02*
G37*
G36*
X290472Y297742D02*
X289816Y297611D01*
X289260Y297240D01*
X288889Y296684D01*
X288758Y296028D01*
X288889Y295372D01*
X289260Y294816D01*
X289816Y294444D01*
X290472Y294314D01*
X291128Y294444D01*
X291684Y294816D01*
X292056Y295372D01*
X292186Y296028D01*
X292056Y296684D01*
X291684Y297240D01*
X291128Y297611D01*
X290472Y297742D01*
D02*
G37*
G36*
X317461Y297707D02*
X316805Y297577D01*
X316249Y297205D01*
X315877Y296649D01*
X315747Y295993D01*
X315877Y295337D01*
X316249Y294781D01*
X316805Y294410D01*
X317461Y294279D01*
X318117Y294410D01*
X318673Y294781D01*
X319044Y295337D01*
X319175Y295993D01*
X319044Y296649D01*
X318673Y297205D01*
X318117Y297577D01*
X317461Y297707D01*
D02*
G37*
G36*
X210000Y294214D02*
X209344Y294084D01*
X208788Y293712D01*
X208416Y293156D01*
X208286Y292500D01*
X208416Y291844D01*
X208788Y291288D01*
X209344Y290916D01*
X210000Y290786D01*
X210656Y290916D01*
X211212Y291288D01*
X211584Y291844D01*
X211714Y292500D01*
X211584Y293156D01*
X211212Y293712D01*
X210656Y294084D01*
X210000Y294214D01*
D02*
G37*
G36*
X323157Y293214D02*
X322501Y293084D01*
X321945Y292712D01*
X321573Y292156D01*
X321443Y291500D01*
X321573Y290844D01*
X321945Y290288D01*
X322501Y289916D01*
X323157Y289786D01*
X323813Y289916D01*
X324369Y290288D01*
X324740Y290844D01*
X324871Y291500D01*
X324740Y292156D01*
X324369Y292712D01*
X323813Y293084D01*
X323157Y293214D01*
D02*
G37*
G36*
X382000Y292413D02*
X381459Y292305D01*
X381001Y291999D01*
X380695Y291541D01*
X380587Y291000D01*
X380695Y290459D01*
X381001Y290001D01*
X381459Y289695D01*
X382000Y289587D01*
X382541Y289695D01*
X382999Y290001D01*
X383305Y290459D01*
X383413Y291000D01*
X383305Y291541D01*
X382999Y291999D01*
X382541Y292305D01*
X382000Y292413D01*
D02*
G37*
G36*
X419000Y291913D02*
X418459Y291805D01*
X418001Y291499D01*
X417695Y291041D01*
X417587Y290500D01*
X417695Y289959D01*
X418001Y289501D01*
X418459Y289195D01*
X419000Y289087D01*
X419541Y289195D01*
X419999Y289501D01*
X420305Y289959D01*
X420413Y290500D01*
X420305Y291041D01*
X419999Y291499D01*
X419541Y291805D01*
X419000Y291913D01*
D02*
G37*
G36*
X290819Y291948D02*
X290163Y291818D01*
X289607Y291446D01*
X289235Y290890D01*
X289105Y290234D01*
X289235Y289578D01*
X289607Y289022D01*
X290163Y288651D01*
X290819Y288520D01*
X291475Y288651D01*
X292031Y289022D01*
X292403Y289578D01*
X292533Y290234D01*
X292403Y290890D01*
X292031Y291446D01*
X291475Y291818D01*
X290819Y291948D01*
D02*
G37*
G36*
X412697Y291934D02*
X412041Y291804D01*
X411485Y291432D01*
X411113Y290876D01*
X410983Y290220D01*
X411113Y289564D01*
X411485Y289008D01*
X412041Y288637D01*
X412697Y288506D01*
X413353Y288637D01*
X413909Y289008D01*
X414280Y289564D01*
X414411Y290220D01*
X414280Y290876D01*
X413909Y291432D01*
X413353Y291804D01*
X412697Y291934D01*
D02*
G37*
G36*
X366500Y291913D02*
X365959Y291805D01*
X365501Y291499D01*
X365195Y291041D01*
X365087Y290500D01*
X365195Y289959D01*
X365501Y289501D01*
X365959Y289195D01*
X366500Y289087D01*
X367041Y289195D01*
X367127Y289252D01*
X367682Y289022D01*
X367695Y288959D01*
X368001Y288501D01*
X368459Y288195D01*
X369000Y288087D01*
X369541Y288195D01*
X369999Y288501D01*
X370305Y288959D01*
X370413Y289500D01*
X370305Y290041D01*
X369999Y290499D01*
X369541Y290805D01*
X369000Y290913D01*
X368459Y290805D01*
X368373Y290748D01*
X367818Y290978D01*
X367805Y291041D01*
X367499Y291499D01*
X367041Y291805D01*
X366500Y291913D01*
D02*
G37*
G36*
X336000Y289637D02*
X335459Y289529D01*
X335001Y289223D01*
X334695Y288765D01*
X334587Y288224D01*
X334695Y287683D01*
X335001Y287225D01*
X335459Y286919D01*
X336000Y286811D01*
X336541Y286919D01*
X336999Y287225D01*
X337305Y287683D01*
X337413Y288224D01*
X337305Y288765D01*
X336999Y289223D01*
X336541Y289529D01*
X336000Y289637D01*
D02*
G37*
G36*
X419698Y287913D02*
X419158Y287805D01*
X418699Y287499D01*
X418393Y287041D01*
X418285Y286500D01*
X418393Y285959D01*
X418699Y285501D01*
X419158Y285195D01*
X419698Y285087D01*
X420239Y285195D01*
X420697Y285501D01*
X421004Y285959D01*
X421111Y286500D01*
X421004Y287041D01*
X420697Y287499D01*
X420239Y287805D01*
X419698Y287913D01*
D02*
G37*
G36*
X374500D02*
X373959Y287805D01*
X373501Y287499D01*
X373195Y287041D01*
X373087Y286500D01*
X373195Y285959D01*
X373501Y285501D01*
X373959Y285195D01*
X374500Y285087D01*
X375041Y285195D01*
X375499Y285501D01*
X375805Y285959D01*
X375913Y286500D01*
X375805Y287041D01*
X375499Y287499D01*
X375041Y287805D01*
X374500Y287913D01*
D02*
G37*
G36*
X274933Y299829D02*
X274433Y299829D01*
X269933D01*
Y295329D01*
X269933Y294892D01*
X269933Y294392D01*
Y290329D01*
X269933Y289892D01*
X269933Y289392D01*
Y284892D01*
X274433D01*
X274870Y284892D01*
X275370Y284892D01*
X279870D01*
Y289392D01*
X279870Y289829D01*
X279870Y290329D01*
Y294392D01*
X279870Y294829D01*
X279870Y295329D01*
Y299829D01*
X274933Y299829D01*
D02*
G37*
G36*
X335277Y286136D02*
X334737Y286028D01*
X334278Y285722D01*
X333972Y285263D01*
X333864Y284723D01*
X333972Y284182D01*
X334278Y283723D01*
X334737Y283417D01*
X335277Y283310D01*
X335818Y283417D01*
X336277Y283723D01*
X336583Y284182D01*
X336690Y284723D01*
X336583Y285263D01*
X336277Y285722D01*
X335818Y286028D01*
X335277Y286136D01*
D02*
G37*
G36*
X312000Y285517D02*
X311344Y285387D01*
X310788Y285015D01*
X310416Y284459D01*
X310286Y283803D01*
X310416Y283147D01*
X310788Y282591D01*
X311344Y282220D01*
X312000Y282089D01*
X312656Y282220D01*
X313212Y282591D01*
X313584Y283147D01*
X313714Y283803D01*
X313584Y284459D01*
X313212Y285015D01*
X312656Y285387D01*
X312000Y285517D01*
D02*
G37*
G36*
X233906Y285128D02*
X233250Y284997D01*
X232694Y284626D01*
X232322Y284069D01*
X232192Y283414D01*
X232322Y282758D01*
X232694Y282202D01*
X233250Y281830D01*
X233906Y281699D01*
X234562Y281830D01*
X235118Y282202D01*
X235489Y282758D01*
X235620Y283414D01*
X235489Y284069D01*
X235118Y284626D01*
X234562Y284997D01*
X233906Y285128D01*
D02*
G37*
G36*
X285650Y284714D02*
X284994Y284584D01*
X284438Y284212D01*
X284066Y283656D01*
X283936Y283000D01*
X284066Y282344D01*
X284438Y281788D01*
X284994Y281416D01*
X285650Y281286D01*
X286305Y281416D01*
X286862Y281788D01*
X287233Y282344D01*
X287364Y283000D01*
X287233Y283656D01*
X286862Y284212D01*
X286305Y284584D01*
X285650Y284714D01*
D02*
G37*
G36*
X382000Y282413D02*
X381459Y282305D01*
X381001Y281999D01*
X380695Y281541D01*
X380587Y281000D01*
X380695Y280459D01*
X381001Y280001D01*
X381459Y279695D01*
X382000Y279587D01*
X382541Y279695D01*
X382999Y280001D01*
X383305Y280459D01*
X383413Y281000D01*
X383305Y281541D01*
X382999Y281999D01*
X382541Y282305D01*
X382000Y282413D01*
D02*
G37*
G36*
X347255D02*
X346714Y282305D01*
X346255Y281999D01*
X345949Y281541D01*
X345842Y281000D01*
X345949Y280459D01*
X346255Y280001D01*
X346714Y279695D01*
X347255Y279587D01*
X347795Y279695D01*
X348254Y280001D01*
X348560Y280459D01*
X348668Y281000D01*
X348560Y281541D01*
X348254Y281999D01*
X347795Y282305D01*
X347255Y282413D01*
D02*
G37*
G36*
X220756Y282812D02*
X220100Y282682D01*
X219544Y282310D01*
X219172Y281754D01*
X219042Y281098D01*
X219172Y280443D01*
X219544Y279886D01*
X220100Y279515D01*
X220756Y279384D01*
X221412Y279515D01*
X221968Y279886D01*
X222340Y280443D01*
X222470Y281098D01*
X222340Y281754D01*
X221968Y282310D01*
X221412Y282682D01*
X220756Y282812D01*
D02*
G37*
G36*
X412500Y282092D02*
X411844Y281961D01*
X411288Y281590D01*
X410916Y281034D01*
X410786Y280378D01*
X410916Y279722D01*
X411288Y279166D01*
X411844Y278794D01*
X412500Y278664D01*
X413156Y278794D01*
X413712Y279166D01*
X414084Y279722D01*
X414214Y280378D01*
X414084Y281034D01*
X413712Y281590D01*
X413156Y281961D01*
X412500Y282092D01*
D02*
G37*
G36*
X105500Y281714D02*
X104844Y281584D01*
X104288Y281212D01*
X103916Y280656D01*
X103786Y280000D01*
X103916Y279344D01*
X104288Y278788D01*
X104844Y278416D01*
X105500Y278286D01*
X106156Y278416D01*
X106712Y278788D01*
X107084Y279344D01*
X107214Y280000D01*
X107084Y280656D01*
X106712Y281212D01*
X106156Y281584D01*
X105500Y281714D01*
D02*
G37*
G36*
X100500D02*
X99844Y281584D01*
X99288Y281212D01*
X98916Y280656D01*
X98786Y280000D01*
X98916Y279344D01*
X99288Y278788D01*
X99844Y278416D01*
X100500Y278286D01*
X101156Y278416D01*
X101712Y278788D01*
X102084Y279344D01*
X102214Y280000D01*
X102084Y280656D01*
X101712Y281212D01*
X101156Y281584D01*
X100500Y281714D01*
D02*
G37*
G36*
X95500D02*
X94844Y281584D01*
X94288Y281212D01*
X93916Y280656D01*
X93786Y280000D01*
X93916Y279344D01*
X94288Y278788D01*
X94844Y278416D01*
X95500Y278286D01*
X96156Y278416D01*
X96712Y278788D01*
X97084Y279344D01*
X97214Y280000D01*
X97084Y280656D01*
X96712Y281212D01*
X96156Y281584D01*
X95500Y281714D01*
D02*
G37*
G36*
X419000Y280913D02*
X418459Y280805D01*
X418001Y280499D01*
X417695Y280041D01*
X417587Y279500D01*
X417695Y278959D01*
X418001Y278501D01*
X418459Y278195D01*
X419000Y278087D01*
X419541Y278195D01*
X419999Y278501D01*
X420305Y278959D01*
X420413Y279500D01*
X420305Y280041D01*
X419999Y280499D01*
X419541Y280805D01*
X419000Y280913D01*
D02*
G37*
G36*
X374500D02*
X373959Y280805D01*
X373501Y280499D01*
X373195Y280041D01*
X373087Y279500D01*
X373195Y278959D01*
X373501Y278501D01*
X373959Y278195D01*
X374500Y278087D01*
X375041Y278195D01*
X375499Y278501D01*
X375805Y278959D01*
X375913Y279500D01*
X375805Y280041D01*
X375499Y280499D01*
X375041Y280805D01*
X374500Y280913D01*
D02*
G37*
G36*
X243000Y281214D02*
X242344Y281084D01*
X241788Y280712D01*
X241416Y280156D01*
X241286Y279500D01*
X241416Y278844D01*
X241788Y278288D01*
X242344Y277916D01*
X243000Y277786D01*
X243656Y277916D01*
X244212Y278288D01*
X244584Y278844D01*
X244714Y279500D01*
X244584Y280156D01*
X244212Y280712D01*
X243656Y281084D01*
X243000Y281214D01*
D02*
G37*
G36*
X296004Y278838D02*
X295348Y278708D01*
X294792Y278336D01*
X294421Y277780D01*
X294290Y277124D01*
X294421Y276468D01*
X294792Y275912D01*
X295348Y275541D01*
X296004Y275410D01*
X296660Y275541D01*
X297216Y275912D01*
X297588Y276468D01*
X297718Y277124D01*
X297588Y277780D01*
X297216Y278336D01*
X296660Y278708D01*
X296004Y278838D01*
D02*
G37*
G36*
X271208Y278506D02*
X270552Y278376D01*
X269996Y278004D01*
X269624Y277448D01*
X269494Y276792D01*
X269624Y276136D01*
X269996Y275580D01*
X270552Y275209D01*
X271208Y275078D01*
X271864Y275209D01*
X272420Y275580D01*
X272791Y276136D01*
X272922Y276792D01*
X272791Y277448D01*
X272420Y278004D01*
X271864Y278376D01*
X271208Y278506D01*
D02*
G37*
G36*
X419698Y276413D02*
X419158Y276305D01*
X418699Y275999D01*
X418393Y275541D01*
X418285Y275000D01*
X418393Y274459D01*
X418699Y274001D01*
X419158Y273695D01*
X419698Y273587D01*
X420239Y273695D01*
X420697Y274001D01*
X421004Y274459D01*
X421111Y275000D01*
X421004Y275541D01*
X420697Y275999D01*
X420239Y276305D01*
X419698Y276413D01*
D02*
G37*
G36*
X105500Y276714D02*
X104844Y276584D01*
X104288Y276212D01*
X103916Y275656D01*
X103786Y275000D01*
X103916Y274344D01*
X104288Y273788D01*
X104844Y273416D01*
X105500Y273286D01*
X106156Y273416D01*
X106712Y273788D01*
X107084Y274344D01*
X107214Y275000D01*
X107084Y275656D01*
X106712Y276212D01*
X106156Y276584D01*
X105500Y276714D01*
D02*
G37*
G36*
X366000Y275913D02*
X365459Y275805D01*
X365001Y275499D01*
X364695Y275041D01*
X364587Y274500D01*
X364695Y273959D01*
X365001Y273501D01*
X365459Y273195D01*
X366000Y273087D01*
X366541Y273195D01*
X366999Y273501D01*
X367305Y273959D01*
X367317Y274016D01*
X367827D01*
X367873Y273780D01*
X368180Y273322D01*
X368638Y273016D01*
X369179Y272908D01*
X369720Y273016D01*
X370178Y273322D01*
X370484Y273780D01*
X370592Y274321D01*
X370484Y274862D01*
X370178Y275320D01*
X369720Y275627D01*
X369179Y275734D01*
X368638Y275627D01*
X368180Y275320D01*
X367873Y274862D01*
X367862Y274805D01*
X367352D01*
X367305Y275041D01*
X366999Y275499D01*
X366541Y275805D01*
X366000Y275913D01*
D02*
G37*
G36*
X236500Y275214D02*
X235844Y275084D01*
X235288Y274712D01*
X234916Y274156D01*
X234786Y273500D01*
X234916Y272844D01*
X235288Y272288D01*
X235844Y271916D01*
X236500Y271786D01*
X237156Y271916D01*
X237712Y272288D01*
X238084Y272844D01*
X238214Y273500D01*
X238084Y274156D01*
X237712Y274712D01*
X237156Y275084D01*
X236500Y275214D01*
D02*
G37*
G36*
X221500Y274714D02*
X220844Y274584D01*
X220288Y274212D01*
X219916Y273656D01*
X219786Y273000D01*
X219916Y272344D01*
X220288Y271788D01*
X220844Y271416D01*
X221500Y271286D01*
X222156Y271416D01*
X222712Y271788D01*
X223084Y272344D01*
X223214Y273000D01*
X223084Y273656D01*
X222712Y274212D01*
X222156Y274584D01*
X221500Y274714D01*
D02*
G37*
G36*
X336500Y273149D02*
X335959Y273041D01*
X335501Y272735D01*
X335195Y272276D01*
X335087Y271736D01*
X335195Y271195D01*
X335501Y270737D01*
X335959Y270430D01*
X336500Y270323D01*
X337041Y270430D01*
X337499Y270737D01*
X337805Y271195D01*
X337913Y271736D01*
X337805Y272276D01*
X337499Y272735D01*
X337041Y273041D01*
X336500Y273149D01*
D02*
G37*
G36*
X211000Y273714D02*
X210344Y273584D01*
X209788Y273212D01*
X209416Y272656D01*
X209286Y272000D01*
X209416Y271344D01*
X209788Y270788D01*
X210344Y270416D01*
X211000Y270286D01*
X211656Y270416D01*
X212212Y270788D01*
X212584Y271344D01*
X212714Y272000D01*
X212584Y272656D01*
X212212Y273212D01*
X211656Y273584D01*
X211000Y273714D01*
D02*
G37*
G36*
X386000Y271913D02*
X385459Y271805D01*
X385001Y271499D01*
X384695Y271041D01*
X384587Y270500D01*
X384695Y269959D01*
X385001Y269501D01*
X385459Y269195D01*
X386000Y269087D01*
X386541Y269195D01*
X386999Y269501D01*
X387305Y269959D01*
X387413Y270500D01*
X387305Y271041D01*
X386999Y271499D01*
X386541Y271805D01*
X386000Y271913D01*
D02*
G37*
G36*
X249500Y272214D02*
X248844Y272084D01*
X248288Y271712D01*
X247916Y271156D01*
X247786Y270500D01*
X247916Y269844D01*
X248288Y269288D01*
X248844Y268916D01*
X249500Y268786D01*
X250156Y268916D01*
X250712Y269288D01*
X251084Y269844D01*
X251214Y270500D01*
X251084Y271156D01*
X250712Y271712D01*
X250156Y272084D01*
X249500Y272214D01*
D02*
G37*
G36*
X105500Y271714D02*
X104844Y271584D01*
X104288Y271212D01*
X103916Y270656D01*
X103786Y270000D01*
X103916Y269344D01*
X104288Y268788D01*
X104844Y268416D01*
X105500Y268286D01*
X106156Y268416D01*
X106712Y268788D01*
X107084Y269344D01*
X107214Y270000D01*
X107084Y270656D01*
X106712Y271212D01*
X106156Y271584D01*
X105500Y271714D01*
D02*
G37*
G36*
X168500Y278548D02*
X167064Y278358D01*
X165726Y277804D01*
X164577Y276923D01*
X163696Y275774D01*
X163142Y274436D01*
X162952Y273000D01*
X163142Y271564D01*
X163696Y270226D01*
X164577Y269077D01*
X165726Y268196D01*
X167064Y267642D01*
X168500Y267453D01*
X169936Y267642D01*
X171274Y268196D01*
X172423Y269077D01*
X173304Y270226D01*
X173858Y271564D01*
X174048Y273000D01*
X173858Y274436D01*
X173304Y275774D01*
X172423Y276923D01*
X171274Y277804D01*
X169936Y278358D01*
X168500Y278548D01*
D02*
G37*
G36*
X336000Y269413D02*
X335459Y269305D01*
X335001Y268999D01*
X334695Y268541D01*
X334587Y268000D01*
X334695Y267459D01*
X335001Y267001D01*
X335459Y266695D01*
X336000Y266587D01*
X336541Y266695D01*
X336999Y267001D01*
X337305Y267459D01*
X337413Y268000D01*
X337305Y268541D01*
X336999Y268999D01*
X336541Y269305D01*
X336000Y269413D01*
D02*
G37*
G36*
X239000Y269214D02*
X238344Y269084D01*
X237788Y268712D01*
X237416Y268156D01*
X237286Y267500D01*
X237416Y266844D01*
X237788Y266288D01*
X238344Y265916D01*
X239000Y265786D01*
X239656Y265916D01*
X240212Y266288D01*
X240584Y266844D01*
X240714Y267500D01*
X240584Y268156D01*
X240212Y268712D01*
X239656Y269084D01*
X239000Y269214D01*
D02*
G37*
G36*
X105500Y266714D02*
X104844Y266584D01*
X104288Y266212D01*
X103916Y265656D01*
X103786Y265000D01*
X103916Y264344D01*
X104288Y263788D01*
X104844Y263416D01*
X105500Y263286D01*
X106156Y263416D01*
X106712Y263788D01*
X107084Y264344D01*
X107214Y265000D01*
X107084Y265656D01*
X106712Y266212D01*
X106156Y266584D01*
X105500Y266714D01*
D02*
G37*
G36*
X100500D02*
X99844Y266584D01*
X99288Y266212D01*
X98916Y265656D01*
X98786Y265000D01*
X98916Y264344D01*
X99288Y263788D01*
X99844Y263416D01*
X100500Y263286D01*
X101156Y263416D01*
X101712Y263788D01*
X102084Y264344D01*
X102214Y265000D01*
X102084Y265656D01*
X101712Y266212D01*
X101156Y266584D01*
X100500Y266714D01*
D02*
G37*
G36*
X95500D02*
X94844Y266584D01*
X94288Y266212D01*
X93916Y265656D01*
X93786Y265000D01*
X93916Y264344D01*
X94288Y263788D01*
X94844Y263416D01*
X95500Y263286D01*
X96156Y263416D01*
X96712Y263788D01*
X97084Y264344D01*
X97214Y265000D01*
X97084Y265656D01*
X96712Y266212D01*
X96156Y266584D01*
X95500Y266714D01*
D02*
G37*
G36*
X347255Y265798D02*
X346714Y265690D01*
X346255Y265384D01*
X345949Y264926D01*
X345842Y264385D01*
X345949Y263844D01*
X346255Y263386D01*
X346714Y263079D01*
X347255Y262972D01*
X347795Y263079D01*
X348254Y263386D01*
X348560Y263844D01*
X348668Y264385D01*
X348560Y264926D01*
X348254Y265384D01*
X347795Y265690D01*
X347255Y265798D01*
D02*
G37*
G36*
X268000Y262714D02*
X267344Y262584D01*
X266788Y262212D01*
X266416Y261656D01*
X266286Y261000D01*
X266416Y260344D01*
X266788Y259788D01*
X267344Y259416D01*
X268000Y259286D01*
X268656Y259416D01*
X269212Y259788D01*
X269584Y260344D01*
X269714Y261000D01*
X269584Y261656D01*
X269212Y262212D01*
X268656Y262584D01*
X268000Y262714D01*
D02*
G37*
G36*
X236000Y263714D02*
X235344Y263584D01*
X234788Y263212D01*
X234416Y262656D01*
X234286Y262000D01*
X234416Y261344D01*
X234788Y260788D01*
X235177Y260528D01*
X235185Y260508D01*
Y259992D01*
X235177Y259972D01*
X234788Y259712D01*
X234416Y259156D01*
X234286Y258500D01*
X234416Y257844D01*
X234788Y257288D01*
X235344Y256916D01*
X236000Y256786D01*
X236656Y256916D01*
X237212Y257288D01*
X237584Y257844D01*
X237714Y258500D01*
X237584Y259156D01*
X237212Y259712D01*
X236823Y259972D01*
X236815Y259992D01*
Y260508D01*
X236823Y260528D01*
X237212Y260788D01*
X237584Y261344D01*
X237714Y262000D01*
X237584Y262656D01*
X237212Y263212D01*
X236656Y263584D01*
X236000Y263714D01*
D02*
G37*
G36*
X207000Y259214D02*
X206344Y259084D01*
X205788Y258712D01*
X205416Y258156D01*
X205286Y257500D01*
X205416Y256844D01*
X205788Y256288D01*
X206344Y255916D01*
X207000Y255786D01*
X207656Y255916D01*
X208212Y256288D01*
X208584Y256844D01*
X208714Y257500D01*
X208584Y258156D01*
X208212Y258712D01*
X207656Y259084D01*
X207000Y259214D01*
D02*
G37*
G36*
X366160Y258753D02*
X365619Y258645D01*
X365161Y258339D01*
X364855Y257881D01*
X364747Y257340D01*
X364855Y256799D01*
X365161Y256341D01*
X365619Y256034D01*
X366160Y255927D01*
X366701Y256034D01*
X367159Y256341D01*
X367207Y256413D01*
X367407Y256425D01*
X367770Y256355D01*
X368017Y255984D01*
X368476Y255678D01*
X369016Y255571D01*
X369557Y255678D01*
X370016Y255984D01*
X370322Y256443D01*
X370429Y256984D01*
X370322Y257524D01*
X370016Y257983D01*
X369557Y258289D01*
X369016Y258397D01*
X368476Y258289D01*
X368017Y257983D01*
X367969Y257911D01*
X367769Y257899D01*
X367407Y257969D01*
X367159Y258339D01*
X366701Y258645D01*
X366160Y258753D01*
D02*
G37*
G36*
X533000Y265269D02*
X531636Y265090D01*
X530365Y264563D01*
X529274Y263726D01*
X528437Y262635D01*
X527910Y261364D01*
X527731Y260000D01*
X527910Y258636D01*
X528437Y257365D01*
X529274Y256274D01*
X530365Y255436D01*
X531636Y254910D01*
X533000Y254731D01*
X534364Y254910D01*
X535635Y255436D01*
X536726Y256274D01*
X537564Y257365D01*
X538090Y258636D01*
X538270Y260000D01*
X538090Y261364D01*
X537564Y262635D01*
X536726Y263726D01*
X535635Y264563D01*
X534364Y265090D01*
X533000Y265269D01*
D02*
G37*
G36*
X117026Y256720D02*
X116486Y256613D01*
X116027Y256307D01*
X115721Y255848D01*
X115613Y255308D01*
X115721Y254767D01*
X116027Y254308D01*
X116486Y254002D01*
X117026Y253894D01*
X117567Y254002D01*
X118026Y254308D01*
X118332Y254767D01*
X118439Y255308D01*
X118332Y255848D01*
X118026Y256307D01*
X117567Y256613D01*
X117026Y256720D01*
D02*
G37*
G36*
X102800D02*
X102259Y256613D01*
X101801Y256307D01*
X101495Y255848D01*
X101387Y255308D01*
X101495Y254767D01*
X101801Y254308D01*
X102259Y254002D01*
X102800Y253894D01*
X103341Y254002D01*
X103799Y254308D01*
X104105Y254767D01*
X104213Y255308D01*
X104105Y255848D01*
X103799Y256307D01*
X103341Y256613D01*
X102800Y256720D01*
D02*
G37*
G36*
X128300Y256693D02*
X127759Y256585D01*
X127301Y256279D01*
X126995Y255821D01*
X126887Y255280D01*
X126995Y254739D01*
X127301Y254281D01*
X127759Y253975D01*
X128300Y253867D01*
X128841Y253975D01*
X129299Y254281D01*
X129605Y254739D01*
X129713Y255280D01*
X129605Y255821D01*
X129299Y256279D01*
X128841Y256585D01*
X128300Y256693D01*
D02*
G37*
G36*
X334982Y256137D02*
X334441Y256029D01*
X333983Y255723D01*
X333676Y255265D01*
X333569Y254724D01*
X333676Y254183D01*
X333983Y253725D01*
X334441Y253419D01*
X334982Y253311D01*
X335523Y253419D01*
X335981Y253725D01*
X336287Y254183D01*
X336395Y254724D01*
X336287Y255265D01*
X335981Y255723D01*
X335523Y256029D01*
X334982Y256137D01*
D02*
G37*
G36*
X268500Y256714D02*
X267844Y256584D01*
X267288Y256212D01*
X266916Y255656D01*
X266786Y255000D01*
X266916Y254344D01*
X267288Y253788D01*
X267844Y253416D01*
X268500Y253286D01*
X269156Y253416D01*
X269712Y253788D01*
X270084Y254344D01*
X270214Y255000D01*
X270084Y255656D01*
X269712Y256212D01*
X269156Y256584D01*
X268500Y256714D01*
D02*
G37*
G36*
X220031Y265968D02*
X219531Y265968D01*
X215032D01*
Y261469D01*
X215032Y261032D01*
X215032Y260531D01*
Y256469D01*
X215032Y256031D01*
X215032Y255532D01*
Y251031D01*
X219531D01*
X219969Y251031D01*
X220468Y251031D01*
X224969D01*
Y255532D01*
X224969Y255968D01*
X224969Y256469D01*
Y260531D01*
X224969Y260968D01*
X224969Y261469D01*
Y265968D01*
X220031Y265968D01*
D02*
G37*
G36*
X333207Y252665D02*
X332666Y252558D01*
X332208Y252252D01*
X331902Y251793D01*
X331794Y251252D01*
X331902Y250712D01*
X332208Y250253D01*
X332666Y249947D01*
X333207Y249839D01*
X333748Y249947D01*
X334206Y250253D01*
X334513Y250712D01*
X334620Y251252D01*
X334513Y251793D01*
X334206Y252252D01*
X333748Y252558D01*
X333207Y252665D01*
D02*
G37*
G36*
X257000Y251755D02*
X256344Y251624D01*
X255788Y251253D01*
X255416Y250697D01*
X255286Y250041D01*
X255416Y249385D01*
X255788Y248829D01*
X256344Y248457D01*
X257000Y248327D01*
X257656Y248457D01*
X258212Y248829D01*
X258584Y249385D01*
X258714Y250041D01*
X258584Y250697D01*
X258212Y251253D01*
X257656Y251624D01*
X257000Y251755D01*
D02*
G37*
G36*
X230748Y250553D02*
X230092Y250422D01*
X229536Y250050D01*
X229164Y249494D01*
X229034Y248838D01*
X229164Y248183D01*
X229536Y247626D01*
X230092Y247255D01*
X230748Y247124D01*
X231404Y247255D01*
X231960Y247626D01*
X232331Y248183D01*
X232462Y248838D01*
X232331Y249494D01*
X231960Y250050D01*
X231404Y250422D01*
X230748Y250553D01*
D02*
G37*
G36*
X122300Y249720D02*
X121759Y249613D01*
X121301Y249307D01*
X120995Y248848D01*
X120887Y248307D01*
X120995Y247767D01*
X121301Y247308D01*
X121759Y247002D01*
X122300Y246895D01*
X122841Y247002D01*
X123299Y247308D01*
X123606Y247767D01*
X123713Y248307D01*
X123606Y248848D01*
X123299Y249307D01*
X122841Y249613D01*
X122300Y249720D01*
D02*
G37*
G36*
X114300D02*
X113759Y249613D01*
X113301Y249307D01*
X112995Y248848D01*
X112887Y248307D01*
X112995Y247767D01*
X113301Y247308D01*
X113759Y247002D01*
X114300Y246895D01*
X114841Y247002D01*
X115299Y247308D01*
X115605Y247767D01*
X115713Y248307D01*
X115605Y248848D01*
X115299Y249307D01*
X114841Y249613D01*
X114300Y249720D01*
D02*
G37*
G36*
X108300D02*
X107759Y249613D01*
X107301Y249307D01*
X106995Y248848D01*
X106887Y248307D01*
X106995Y247767D01*
X107301Y247308D01*
X107759Y247002D01*
X108300Y246895D01*
X108841Y247002D01*
X109299Y247308D01*
X109606Y247767D01*
X109713Y248307D01*
X109606Y248848D01*
X109299Y249307D01*
X108841Y249613D01*
X108300Y249720D01*
D02*
G37*
G36*
X347500Y248913D02*
X346959Y248805D01*
X346501Y248499D01*
X346195Y248041D01*
X346087Y247500D01*
X346195Y246959D01*
X346501Y246501D01*
X346959Y246195D01*
X347500Y246087D01*
X348041Y246195D01*
X348499Y246501D01*
X348805Y246959D01*
X348913Y247500D01*
X348805Y248041D01*
X348499Y248499D01*
X348041Y248805D01*
X347500Y248913D01*
D02*
G37*
G36*
X241102Y245253D02*
X240446Y245123D01*
X239890Y244751D01*
X239519Y244195D01*
X239388Y243539D01*
X239519Y242883D01*
X239890Y242327D01*
X240446Y241956D01*
X241102Y241825D01*
X241758Y241956D01*
X242314Y242327D01*
X242686Y242883D01*
X242816Y243539D01*
X242686Y244195D01*
X242314Y244751D01*
X241758Y245123D01*
X241102Y245253D01*
D02*
G37*
G36*
X520000Y243413D02*
X519459Y243305D01*
X519001Y242999D01*
X518695Y242541D01*
X518587Y242000D01*
X518695Y241459D01*
X519001Y241001D01*
X519459Y240695D01*
X520000Y240587D01*
X520541Y240695D01*
X520999Y241001D01*
X521305Y241459D01*
X521413Y242000D01*
X521305Y242541D01*
X520999Y242999D01*
X520541Y243305D01*
X520000Y243413D01*
D02*
G37*
G36*
X539756Y245256D02*
X533244D01*
Y238744D01*
X539756D01*
Y245256D01*
D02*
G37*
G36*
X522478Y237891D02*
X521937Y237783D01*
X521479Y237477D01*
X521172Y237019D01*
X521065Y236478D01*
X521172Y235937D01*
X521479Y235479D01*
X521937Y235172D01*
X522478Y235065D01*
X523019Y235172D01*
X523477Y235479D01*
X523783Y235937D01*
X523891Y236478D01*
X523783Y237019D01*
X523477Y237477D01*
X523019Y237783D01*
X522478Y237891D01*
D02*
G37*
G36*
X529500Y241284D02*
X528650Y241172D01*
X527858Y240844D01*
X527178Y240322D01*
X526656Y239642D01*
X526328Y238850D01*
X526216Y238000D01*
X526328Y237150D01*
X526656Y236358D01*
X527178Y235678D01*
X527858Y235156D01*
X528650Y234828D01*
X529500Y234716D01*
X530350Y234828D01*
X531142Y235156D01*
X531822Y235678D01*
X532344Y236358D01*
X532672Y237150D01*
X532784Y238000D01*
X532672Y238850D01*
X532344Y239642D01*
X531822Y240322D01*
X531142Y240844D01*
X530350Y241172D01*
X529500Y241284D01*
D02*
G37*
G36*
X148500Y244548D02*
X147064Y244358D01*
X145726Y243804D01*
X144577Y242923D01*
X143696Y241774D01*
X143142Y240436D01*
X142953Y239000D01*
X143142Y237564D01*
X143696Y236226D01*
X144577Y235077D01*
X145726Y234196D01*
X147064Y233642D01*
X148500Y233453D01*
X149936Y233642D01*
X151274Y234196D01*
X152423Y235077D01*
X153304Y236226D01*
X153858Y237564D01*
X154048Y239000D01*
X153858Y240436D01*
X153304Y241774D01*
X152423Y242923D01*
X151274Y243804D01*
X149936Y244358D01*
X148500Y244548D01*
D02*
G37*
G36*
X536500Y237284D02*
X535650Y237172D01*
X534858Y236844D01*
X534178Y236322D01*
X533656Y235642D01*
X533328Y234850D01*
X533216Y234000D01*
X533328Y233150D01*
X533656Y232358D01*
X534178Y231678D01*
X534858Y231156D01*
X535650Y230828D01*
X536500Y230716D01*
X537350Y230828D01*
X538142Y231156D01*
X538822Y231678D01*
X539344Y232358D01*
X539672Y233150D01*
X539784Y234000D01*
X539672Y234850D01*
X539344Y235642D01*
X538822Y236322D01*
X538142Y236844D01*
X537350Y237172D01*
X536500Y237284D01*
D02*
G37*
G36*
X529500Y233284D02*
X528650Y233172D01*
X527858Y232844D01*
X527178Y232322D01*
X526656Y231642D01*
X526328Y230850D01*
X526216Y230000D01*
X526328Y229150D01*
X526656Y228358D01*
X527178Y227678D01*
X527858Y227156D01*
X528650Y226828D01*
X529500Y226716D01*
X530350Y226828D01*
X531142Y227156D01*
X531822Y227678D01*
X532344Y228358D01*
X532672Y229150D01*
X532784Y230000D01*
X532672Y230850D01*
X532344Y231642D01*
X531822Y232322D01*
X531142Y232844D01*
X530350Y233172D01*
X529500Y233284D01*
D02*
G37*
G36*
X140864Y237077D02*
X140323Y236969D01*
X139865Y236663D01*
X139558Y236205D01*
X139451Y235664D01*
X139558Y235123D01*
X139865Y234665D01*
X140323Y234359D01*
X140811Y234262D01*
X140883Y234038D01*
X140908Y233771D01*
X140501Y233499D01*
X140195Y233041D01*
X140087Y232500D01*
X140195Y231959D01*
X140501Y231501D01*
X140959Y231195D01*
X141500Y231087D01*
X141753Y230627D01*
X141695Y230541D01*
X141587Y230000D01*
X141695Y229459D01*
X141753Y229373D01*
X141500Y228913D01*
X140959Y228805D01*
X140501Y228499D01*
X140195Y228041D01*
X140087Y227500D01*
X140195Y226959D01*
X140501Y226501D01*
X140959Y226195D01*
X141500Y226087D01*
X142041Y226195D01*
X142499Y226501D01*
X142805Y226959D01*
X142913Y227500D01*
X142805Y228041D01*
X142747Y228128D01*
X143000Y228587D01*
X143541Y228695D01*
X143999Y229001D01*
X144305Y229459D01*
X144413Y230000D01*
X144305Y230541D01*
X143999Y230999D01*
X143541Y231305D01*
X143000Y231413D01*
X142747Y231873D01*
X142805Y231959D01*
X142913Y232500D01*
X142805Y233041D01*
X142499Y233499D01*
X142041Y233805D01*
X141553Y233902D01*
X141480Y234126D01*
X141455Y234393D01*
X141863Y234665D01*
X142169Y235123D01*
X142277Y235664D01*
X142169Y236205D01*
X141863Y236663D01*
X141404Y236969D01*
X140864Y237077D01*
D02*
G37*
G36*
X148300Y227720D02*
X147759Y227613D01*
X147301Y227307D01*
X146995Y226848D01*
X146887Y226308D01*
X146995Y225767D01*
X147301Y225308D01*
X147759Y225002D01*
X148300Y224894D01*
X148841Y225002D01*
X149299Y225308D01*
X149606Y225767D01*
X149713Y226308D01*
X149606Y226848D01*
X149299Y227307D01*
X148841Y227613D01*
X148300Y227720D01*
D02*
G37*
G36*
X158500Y235048D02*
X157064Y234858D01*
X155726Y234304D01*
X154577Y233423D01*
X153696Y232274D01*
X153142Y230936D01*
X152953Y229500D01*
X153142Y228064D01*
X153696Y226726D01*
X154577Y225577D01*
X155726Y224696D01*
X157064Y224142D01*
X158500Y223953D01*
X159936Y224142D01*
X161274Y224696D01*
X162423Y225577D01*
X163304Y226726D01*
X163858Y228064D01*
X164048Y229500D01*
X163858Y230936D01*
X163304Y232274D01*
X162423Y233423D01*
X161274Y234304D01*
X159936Y234858D01*
X158500Y235048D01*
D02*
G37*
G36*
X213788Y225996D02*
X213248Y225888D01*
X212789Y225582D01*
X212483Y225124D01*
X212375Y224583D01*
X212483Y224042D01*
X212789Y223584D01*
X213248Y223278D01*
X213788Y223170D01*
X214329Y223278D01*
X214787Y223584D01*
X215094Y224042D01*
X215201Y224583D01*
X215094Y225124D01*
X214787Y225582D01*
X214329Y225888D01*
X213788Y225996D01*
D02*
G37*
G36*
X536500Y229284D02*
X535650Y229172D01*
X534858Y228844D01*
X534178Y228322D01*
X533656Y227642D01*
X533328Y226850D01*
X533216Y226000D01*
X533328Y225150D01*
X533656Y224358D01*
X534178Y223678D01*
X534858Y223156D01*
X535650Y222828D01*
X536500Y222716D01*
X537350Y222828D01*
X538142Y223156D01*
X538822Y223678D01*
X539344Y224358D01*
X539672Y225150D01*
X539784Y226000D01*
X539672Y226850D01*
X539344Y227642D01*
X538822Y228322D01*
X538142Y228844D01*
X537350Y229172D01*
X536500Y229284D01*
D02*
G37*
G36*
X140800Y224220D02*
X140259Y224113D01*
X139801Y223807D01*
X139495Y223348D01*
X139387Y222808D01*
X139495Y222267D01*
X139801Y221808D01*
X140259Y221502D01*
X140800Y221394D01*
X141341Y221502D01*
X141799Y221808D01*
X142105Y222267D01*
X142213Y222808D01*
X142105Y223348D01*
X141799Y223807D01*
X141341Y224113D01*
X140800Y224220D01*
D02*
G37*
G36*
X174300Y222220D02*
X173759Y222113D01*
X173301Y221807D01*
X172995Y221348D01*
X172887Y220808D01*
X172995Y220267D01*
X173301Y219808D01*
X173759Y219502D01*
X174300Y219394D01*
X174841Y219502D01*
X175299Y219808D01*
X175605Y220267D01*
X175713Y220808D01*
X175605Y221348D01*
X175299Y221807D01*
X174841Y222113D01*
X174300Y222220D01*
D02*
G37*
G36*
X529500Y225284D02*
X528650Y225172D01*
X527858Y224844D01*
X527178Y224322D01*
X526656Y223642D01*
X526328Y222850D01*
X526216Y222000D01*
X526328Y221150D01*
X526656Y220358D01*
X527178Y219678D01*
X527858Y219156D01*
X528650Y218828D01*
X529500Y218716D01*
X530350Y218828D01*
X531142Y219156D01*
X531822Y219678D01*
X532344Y220358D01*
X532672Y221150D01*
X532784Y222000D01*
X532672Y222850D01*
X532344Y223642D01*
X531822Y224322D01*
X531142Y224844D01*
X530350Y225172D01*
X529500Y225284D01*
D02*
G37*
G36*
X141500Y219413D02*
X140959Y219305D01*
X140501Y218999D01*
X140195Y218541D01*
X140087Y218000D01*
X140195Y217459D01*
X140501Y217001D01*
X140959Y216695D01*
X141500Y216587D01*
X142041Y216695D01*
X142499Y217001D01*
X142805Y217459D01*
X142913Y218000D01*
X142805Y218541D01*
X142499Y218999D01*
X142041Y219305D01*
X141500Y219413D01*
D02*
G37*
G36*
X536500Y221284D02*
X535650Y221172D01*
X534858Y220844D01*
X534178Y220322D01*
X533656Y219642D01*
X533328Y218850D01*
X533216Y218000D01*
X533328Y217150D01*
X533656Y216358D01*
X534178Y215678D01*
X534858Y215156D01*
X535650Y214828D01*
X536500Y214716D01*
X537350Y214828D01*
X538142Y215156D01*
X538822Y215678D01*
X539344Y216358D01*
X539672Y217150D01*
X539784Y218000D01*
X539672Y218850D01*
X539344Y219642D01*
X538822Y220322D01*
X538142Y220844D01*
X537350Y221172D01*
X536500Y221284D01*
D02*
G37*
G36*
X148300Y216720D02*
X147759Y216613D01*
X147301Y216307D01*
X146995Y215848D01*
X146887Y215307D01*
X146995Y214767D01*
X147301Y214308D01*
X147759Y214002D01*
X148300Y213895D01*
X148841Y214002D01*
X149299Y214308D01*
X149606Y214767D01*
X149713Y215307D01*
X149606Y215848D01*
X149299Y216307D01*
X148841Y216613D01*
X148300Y216720D01*
D02*
G37*
G36*
X529500Y217284D02*
X528650Y217172D01*
X527858Y216844D01*
X527178Y216322D01*
X526656Y215642D01*
X526328Y214850D01*
X526216Y214000D01*
X526328Y213150D01*
X526656Y212358D01*
X527178Y211678D01*
X527858Y211156D01*
X528650Y210828D01*
X529500Y210716D01*
X530350Y210828D01*
X531142Y211156D01*
X531822Y211678D01*
X532344Y212358D01*
X532672Y213150D01*
X532784Y214000D01*
X532672Y214850D01*
X532344Y215642D01*
X531822Y216322D01*
X531142Y216844D01*
X530350Y217172D01*
X529500Y217284D01*
D02*
G37*
G36*
X140300Y213409D02*
X139759Y213301D01*
X139301Y212995D01*
X138995Y212537D01*
X138887Y211996D01*
X138995Y211455D01*
X139301Y210997D01*
X139759Y210691D01*
X140300Y210583D01*
X140841Y210691D01*
X141299Y210997D01*
X141605Y211455D01*
X141713Y211996D01*
X141605Y212537D01*
X141299Y212995D01*
X140841Y213301D01*
X140300Y213409D01*
D02*
G37*
G36*
X221812Y211232D02*
X221271Y211125D01*
X220813Y210818D01*
X220507Y210360D01*
X220399Y209819D01*
X220507Y209278D01*
X220813Y208820D01*
X221271Y208514D01*
X221812Y208406D01*
X222353Y208514D01*
X222811Y208820D01*
X223117Y209278D01*
X223225Y209819D01*
X223117Y210360D01*
X222811Y210818D01*
X222353Y211125D01*
X221812Y211232D01*
D02*
G37*
G36*
X140300Y200720D02*
X139759Y200613D01*
X139301Y200307D01*
X138995Y199848D01*
X138887Y199308D01*
X138995Y198767D01*
X139301Y198308D01*
X139759Y198002D01*
X140300Y197895D01*
X140841Y198002D01*
X141299Y198308D01*
X141605Y198767D01*
X141713Y199308D01*
X141605Y199848D01*
X141299Y200307D01*
X140841Y200613D01*
X140300Y200720D01*
D02*
G37*
G36*
X174292Y198516D02*
X173751Y198408D01*
X173293Y198102D01*
X172987Y197643D01*
X172879Y197103D01*
X172987Y196562D01*
X173293Y196104D01*
X173751Y195797D01*
X174292Y195690D01*
X174833Y195797D01*
X175291Y196104D01*
X175598Y196562D01*
X175705Y197103D01*
X175598Y197643D01*
X175291Y198102D01*
X174833Y198408D01*
X174292Y198516D01*
D02*
G37*
G36*
X142800Y197772D02*
X142259Y197664D01*
X141801Y197358D01*
X141495Y196899D01*
X141387Y196359D01*
X141495Y195818D01*
X141801Y195360D01*
X142259Y195053D01*
X142800Y194946D01*
X143341Y195053D01*
X143799Y195360D01*
X144106Y195818D01*
X144213Y196359D01*
X144106Y196899D01*
X143799Y197358D01*
X143341Y197664D01*
X142800Y197772D01*
D02*
G37*
G36*
X228098Y195747D02*
X227557Y195639D01*
X227099Y195333D01*
X226792Y194874D01*
X226685Y194334D01*
X226792Y193793D01*
X227099Y193334D01*
X227557Y193028D01*
X228098Y192921D01*
X228638Y193028D01*
X229097Y193334D01*
X229403Y193793D01*
X229511Y194334D01*
X229403Y194874D01*
X229097Y195333D01*
X228638Y195639D01*
X228098Y195747D01*
D02*
G37*
G36*
X114300Y186720D02*
X113759Y186613D01*
X113301Y186307D01*
X112995Y185848D01*
X112887Y185308D01*
X112995Y184767D01*
X113301Y184308D01*
X113759Y184002D01*
X114300Y183895D01*
X114841Y184002D01*
X115299Y184308D01*
X115605Y184767D01*
X115713Y185308D01*
X115605Y185848D01*
X115299Y186307D01*
X114841Y186613D01*
X114300Y186720D01*
D02*
G37*
G36*
X147800Y183720D02*
X147259Y183613D01*
X146801Y183307D01*
X146495Y182848D01*
X146387Y182308D01*
X146495Y181767D01*
X146801Y181308D01*
X147259Y181002D01*
X147800Y180894D01*
X148341Y181002D01*
X148799Y181308D01*
X149106Y181767D01*
X149213Y182308D01*
X149106Y182848D01*
X148799Y183307D01*
X148341Y183613D01*
X147800Y183720D01*
D02*
G37*
G36*
X539756Y183256D02*
X533244D01*
Y176744D01*
X539756D01*
Y183256D01*
D02*
G37*
G36*
X233500Y177214D02*
X232844Y177084D01*
X232288Y176712D01*
X231916Y176156D01*
X231786Y175500D01*
X231916Y174844D01*
X232288Y174288D01*
X232844Y173916D01*
X233500Y173786D01*
X234156Y173916D01*
X234712Y174288D01*
X235084Y174844D01*
X235214Y175500D01*
X235084Y176156D01*
X234712Y176712D01*
X234156Y177084D01*
X233500Y177214D01*
D02*
G37*
G36*
X98308Y175016D02*
X97767Y174908D01*
X97309Y174602D01*
X97003Y174143D01*
X96895Y173603D01*
X97003Y173062D01*
X97309Y172604D01*
X97767Y172297D01*
X98308Y172190D01*
X98849Y172297D01*
X99307Y172604D01*
X99613Y173062D01*
X99721Y173603D01*
X99613Y174143D01*
X99307Y174602D01*
X98849Y174908D01*
X98308Y175016D01*
D02*
G37*
G36*
X217756Y175312D02*
X217100Y175182D01*
X216544Y174810D01*
X216172Y174254D01*
X216042Y173598D01*
X216172Y172942D01*
X216544Y172386D01*
X217100Y172015D01*
X217756Y171884D01*
X218412Y172015D01*
X218968Y172386D01*
X219339Y172942D01*
X219470Y173598D01*
X219339Y174254D01*
X218968Y174810D01*
X218412Y175182D01*
X217756Y175312D01*
D02*
G37*
G36*
X130300Y174220D02*
X129759Y174113D01*
X129301Y173807D01*
X128995Y173348D01*
X128887Y172808D01*
X128995Y172267D01*
X129301Y171808D01*
X129759Y171502D01*
X130300Y171395D01*
X130841Y171502D01*
X131299Y171808D01*
X131606Y172267D01*
X131713Y172808D01*
X131606Y173348D01*
X131299Y173807D01*
X130841Y174113D01*
X130300Y174220D01*
D02*
G37*
G36*
X115300D02*
X114759Y174113D01*
X114301Y173807D01*
X113995Y173348D01*
X113887Y172808D01*
X113995Y172267D01*
X114301Y171808D01*
X114759Y171502D01*
X115300Y171395D01*
X115841Y171502D01*
X116299Y171808D01*
X116605Y172267D01*
X116713Y172808D01*
X116605Y173348D01*
X116299Y173807D01*
X115841Y174113D01*
X115300Y174220D01*
D02*
G37*
G36*
X529500Y179284D02*
X528650Y179172D01*
X527858Y178844D01*
X527178Y178322D01*
X526656Y177642D01*
X526328Y176850D01*
X526216Y176000D01*
X526328Y175150D01*
X526656Y174358D01*
X527143Y173723D01*
X527067Y173351D01*
X527024Y173223D01*
X525500D01*
X525032Y173130D01*
X524635Y172865D01*
X522611Y170842D01*
X522499Y170864D01*
X521958Y170756D01*
X521500Y170450D01*
X521294Y170143D01*
X521291Y170141D01*
X521122Y170106D01*
X520795Y170123D01*
X520738Y170142D01*
X520499Y170499D01*
X520041Y170805D01*
X519500Y170913D01*
X518959Y170805D01*
X518501Y170499D01*
X518195Y170041D01*
X518087Y169500D01*
X518195Y168959D01*
X518501Y168501D01*
X518959Y168195D01*
X519104Y168166D01*
X521121Y166148D01*
X520957Y165606D01*
X520844Y165584D01*
X520288Y165212D01*
X519916Y164656D01*
X519786Y164000D01*
X519916Y163344D01*
X520288Y162788D01*
X520844Y162416D01*
X521500Y162286D01*
X522156Y162416D01*
X522712Y162788D01*
X523084Y163344D01*
X523106Y163457D01*
X523649Y163621D01*
X526355Y160915D01*
X526328Y160850D01*
X526216Y160000D01*
X526328Y159150D01*
X526656Y158358D01*
X527178Y157678D01*
X527858Y157156D01*
X528650Y156828D01*
X529500Y156716D01*
X530350Y156828D01*
X531142Y157156D01*
X531822Y157678D01*
X532344Y158358D01*
X532672Y159150D01*
X532784Y160000D01*
X532672Y160850D01*
X532344Y161642D01*
X531822Y162322D01*
X531142Y162844D01*
X530350Y163172D01*
X529500Y163284D01*
X528650Y163172D01*
X527878Y162852D01*
X523053Y167677D01*
X523191Y168247D01*
X523251Y168287D01*
X523419Y168321D01*
X523816Y168586D01*
X526007Y170776D01*
X527024D01*
X527067Y170649D01*
X527143Y170276D01*
X526656Y169642D01*
X526328Y168850D01*
X526216Y168000D01*
X526328Y167150D01*
X526656Y166358D01*
X527178Y165678D01*
X527858Y165156D01*
X528650Y164828D01*
X529500Y164716D01*
X530350Y164828D01*
X531142Y165156D01*
X531822Y165678D01*
X532344Y166358D01*
X532672Y167150D01*
X532784Y168000D01*
X532672Y168850D01*
X532344Y169642D01*
X531857Y170276D01*
X531933Y170649D01*
X531976Y170776D01*
X533483D01*
X533656Y170358D01*
X534178Y169678D01*
X534858Y169156D01*
X535650Y168828D01*
X536500Y168716D01*
X537350Y168828D01*
X538142Y169156D01*
X538822Y169678D01*
X539344Y170358D01*
X539672Y171150D01*
X539784Y172000D01*
X539672Y172850D01*
X539344Y173642D01*
X538822Y174322D01*
X538142Y174844D01*
X537350Y175172D01*
X536500Y175284D01*
X535650Y175172D01*
X534858Y174844D01*
X534178Y174322D01*
X533656Y173642D01*
X533483Y173223D01*
X531976D01*
X531933Y173351D01*
X531857Y173723D01*
X532344Y174358D01*
X532672Y175150D01*
X532784Y176000D01*
X532672Y176850D01*
X532344Y177642D01*
X531822Y178322D01*
X531142Y178844D01*
X530350Y179172D01*
X529500Y179284D01*
D02*
G37*
G36*
X239500Y173214D02*
X238844Y173084D01*
X238288Y172712D01*
X237916Y172156D01*
X237786Y171500D01*
X237916Y170844D01*
X238288Y170288D01*
X238844Y169916D01*
X239500Y169786D01*
X240156Y169916D01*
X240712Y170288D01*
X241084Y170844D01*
X241214Y171500D01*
X241084Y172156D01*
X240712Y172712D01*
X240156Y173084D01*
X239500Y173214D01*
D02*
G37*
G36*
X233500Y167714D02*
X232844Y167584D01*
X232288Y167212D01*
X231916Y166656D01*
X231786Y166000D01*
X231916Y165344D01*
X232288Y164788D01*
X232844Y164416D01*
X233500Y164286D01*
X234156Y164416D01*
X234712Y164788D01*
X235084Y165344D01*
X235214Y166000D01*
X235084Y166656D01*
X234712Y167212D01*
X234156Y167584D01*
X233500Y167714D01*
D02*
G37*
G36*
X218500Y167214D02*
X217844Y167084D01*
X217288Y166712D01*
X216916Y166156D01*
X216786Y165500D01*
X216916Y164844D01*
X217288Y164288D01*
X217844Y163916D01*
X218500Y163786D01*
X219156Y163916D01*
X219712Y164288D01*
X220084Y164844D01*
X220214Y165500D01*
X220084Y166156D01*
X219712Y166712D01*
X219156Y167084D01*
X218500Y167214D01*
D02*
G37*
G36*
X209000Y166714D02*
X208344Y166584D01*
X207788Y166212D01*
X207416Y165656D01*
X207286Y165000D01*
X207416Y164344D01*
X207788Y163788D01*
X208344Y163416D01*
X209000Y163286D01*
X209656Y163416D01*
X210212Y163788D01*
X210584Y164344D01*
X210714Y165000D01*
X210584Y165656D01*
X210212Y166212D01*
X209656Y166584D01*
X209000Y166714D01*
D02*
G37*
G36*
X191500D02*
X190844Y166584D01*
X190288Y166212D01*
X189916Y165656D01*
X189786Y165000D01*
X189916Y164344D01*
X190288Y163788D01*
X190844Y163416D01*
X191500Y163286D01*
X192156Y163416D01*
X192712Y163788D01*
X193084Y164344D01*
X193214Y165000D01*
X193084Y165656D01*
X192712Y166212D01*
X192156Y166584D01*
X191500Y166714D01*
D02*
G37*
G36*
X157000Y163913D02*
X156459Y163805D01*
X156001Y163499D01*
X155695Y163041D01*
X155587Y162500D01*
X155611Y162378D01*
X155593Y162340D01*
X155178Y161993D01*
X154856Y162057D01*
X154315Y161950D01*
X153857Y161643D01*
X153551Y161185D01*
X153443Y160644D01*
X153551Y160103D01*
X153857Y159645D01*
X154315Y159339D01*
X154856Y159231D01*
X155397Y159339D01*
X155855Y159645D01*
X156161Y160103D01*
X156269Y160644D01*
X156245Y160766D01*
X156263Y160804D01*
X156678Y161151D01*
X157000Y161087D01*
X157528Y161192D01*
X157569Y161164D01*
X157882Y160821D01*
X157695Y160541D01*
X157587Y160000D01*
X157695Y159459D01*
X158001Y159001D01*
X158459Y158695D01*
X159000Y158587D01*
X159541Y158695D01*
X159999Y159001D01*
X160305Y159459D01*
X160413Y160000D01*
X160305Y160541D01*
X159999Y160999D01*
X159541Y161305D01*
X159000Y161413D01*
X158472Y161308D01*
X158431Y161336D01*
X158118Y161679D01*
X158305Y161959D01*
X158413Y162500D01*
X158305Y163041D01*
X157999Y163499D01*
X157541Y163805D01*
X157000Y163913D01*
D02*
G37*
G36*
X246500Y165214D02*
X245844Y165084D01*
X245288Y164712D01*
X244916Y164156D01*
X244786Y163500D01*
X244916Y162844D01*
X245288Y162288D01*
X245844Y161916D01*
X246500Y161786D01*
X247156Y161916D01*
X247712Y162288D01*
X248084Y162844D01*
X248214Y163500D01*
X248084Y164156D01*
X247712Y164712D01*
X247156Y165084D01*
X246500Y165214D01*
D02*
G37*
G36*
X536500Y167284D02*
X535650Y167172D01*
X534858Y166844D01*
X534178Y166322D01*
X533656Y165642D01*
X533328Y164850D01*
X533216Y164000D01*
X533328Y163150D01*
X533656Y162358D01*
X534178Y161678D01*
X534858Y161156D01*
X535650Y160828D01*
X536500Y160716D01*
X537350Y160828D01*
X538142Y161156D01*
X538822Y161678D01*
X539344Y162358D01*
X539672Y163150D01*
X539784Y164000D01*
X539672Y164850D01*
X539344Y165642D01*
X538822Y166322D01*
X538142Y166844D01*
X537350Y167172D01*
X536500Y167284D01*
D02*
G37*
G36*
X108500Y163214D02*
X107844Y163084D01*
X107288Y162712D01*
X106916Y162156D01*
X106786Y161500D01*
X106916Y160844D01*
X107288Y160288D01*
X107844Y159916D01*
X108500Y159786D01*
X109156Y159916D01*
X109712Y160288D01*
X110084Y160844D01*
X110214Y161500D01*
X110084Y162156D01*
X109712Y162712D01*
X109156Y163084D01*
X108500Y163214D01*
D02*
G37*
G36*
X135000Y161913D02*
X134459Y161805D01*
X134001Y161499D01*
X133695Y161041D01*
X133587Y160500D01*
X133695Y159959D01*
X134001Y159501D01*
X134459Y159195D01*
X135000Y159087D01*
X135541Y159195D01*
X135999Y159501D01*
X136305Y159959D01*
X136413Y160500D01*
X136305Y161041D01*
X135999Y161499D01*
X135541Y161805D01*
X135000Y161913D01*
D02*
G37*
G36*
X164500Y157214D02*
X163844Y157084D01*
X163288Y156712D01*
X162916Y156156D01*
X162786Y155500D01*
X162916Y154844D01*
X163288Y154288D01*
X163844Y153916D01*
X164500Y153786D01*
X165156Y153916D01*
X165712Y154288D01*
X166084Y154844D01*
X166214Y155500D01*
X166084Y156156D01*
X165712Y156712D01*
X165156Y157084D01*
X164500Y157214D01*
D02*
G37*
G36*
X122000D02*
X121344Y157084D01*
X120788Y156712D01*
X120416Y156156D01*
X120286Y155500D01*
X120416Y154844D01*
X120788Y154288D01*
X121344Y153916D01*
X122000Y153786D01*
X122656Y153916D01*
X123212Y154288D01*
X123584Y154844D01*
X123714Y155500D01*
X123584Y156156D01*
X123212Y156712D01*
X122656Y157084D01*
X122000Y157214D01*
D02*
G37*
G36*
X536500Y159284D02*
X535650Y159172D01*
X534858Y158844D01*
X534178Y158322D01*
X533656Y157642D01*
X533328Y156850D01*
X533216Y156000D01*
X533328Y155150D01*
X533656Y154358D01*
X534178Y153678D01*
X534858Y153156D01*
X535650Y152828D01*
X536500Y152716D01*
X537350Y152828D01*
X538142Y153156D01*
X538822Y153678D01*
X539344Y154358D01*
X539672Y155150D01*
X539784Y156000D01*
X539672Y156850D01*
X539344Y157642D01*
X538822Y158322D01*
X538142Y158844D01*
X537350Y159172D01*
X536500Y159284D01*
D02*
G37*
G36*
X266000Y155214D02*
X265344Y155084D01*
X264788Y154712D01*
X264416Y154156D01*
X264286Y153500D01*
X264416Y152844D01*
X264788Y152288D01*
X265344Y151916D01*
X266000Y151786D01*
X266656Y151916D01*
X267212Y152288D01*
X267584Y152844D01*
X267714Y153500D01*
X267584Y154156D01*
X267212Y154712D01*
X266656Y155084D01*
X266000Y155214D01*
D02*
G37*
G36*
X143500Y154714D02*
X142844Y154584D01*
X142288Y154212D01*
X141916Y153656D01*
X141786Y153000D01*
X141916Y152344D01*
X142288Y151788D01*
X142844Y151416D01*
X143500Y151286D01*
X144156Y151416D01*
X144712Y151788D01*
X145084Y152344D01*
X145214Y153000D01*
X145084Y153656D01*
X144712Y154212D01*
X144156Y154584D01*
X143500Y154714D01*
D02*
G37*
G36*
X233500Y156214D02*
X232844Y156084D01*
X232288Y155712D01*
X231916Y155156D01*
X231786Y154500D01*
X231916Y153844D01*
X232288Y153288D01*
X232677Y153028D01*
X232685Y153008D01*
Y152492D01*
X232677Y152472D01*
X232288Y152212D01*
X231916Y151656D01*
X231786Y151000D01*
X231916Y150344D01*
X232288Y149788D01*
X232844Y149416D01*
X233500Y149286D01*
X234156Y149416D01*
X234712Y149788D01*
X235084Y150344D01*
X235214Y151000D01*
X235084Y151656D01*
X234712Y152212D01*
X234323Y152472D01*
X234315Y152492D01*
Y153008D01*
X234323Y153028D01*
X234712Y153288D01*
X235084Y153844D01*
X235214Y154500D01*
X235084Y155156D01*
X234712Y155712D01*
X234156Y156084D01*
X233500Y156214D01*
D02*
G37*
G36*
X529500Y155284D02*
X528650Y155172D01*
X527858Y154844D01*
X527178Y154322D01*
X526656Y153642D01*
X526328Y152850D01*
X526216Y152000D01*
X526328Y151150D01*
X526656Y150358D01*
X527178Y149678D01*
X527858Y149156D01*
X528650Y148828D01*
X529500Y148716D01*
X530350Y148828D01*
X531142Y149156D01*
X531822Y149678D01*
X532344Y150358D01*
X532672Y151150D01*
X532784Y152000D01*
X532672Y152850D01*
X532344Y153642D01*
X531822Y154322D01*
X531142Y154844D01*
X530350Y155172D01*
X529500Y155284D01*
D02*
G37*
G36*
X265500Y149714D02*
X264844Y149584D01*
X264288Y149212D01*
X263916Y148656D01*
X263786Y148000D01*
X263916Y147344D01*
X264288Y146788D01*
X264844Y146416D01*
X265500Y146286D01*
X266156Y146416D01*
X266712Y146788D01*
X267084Y147344D01*
X267214Y148000D01*
X267084Y148656D01*
X266712Y149212D01*
X266156Y149584D01*
X265500Y149714D01*
D02*
G37*
G36*
X289000Y149214D02*
X288344Y149084D01*
X287788Y148712D01*
X287416Y148156D01*
X287286Y147500D01*
X287416Y146844D01*
X287788Y146288D01*
X288344Y145916D01*
X289000Y145786D01*
X289656Y145916D01*
X290212Y146288D01*
X290584Y146844D01*
X290714Y147500D01*
X290584Y148156D01*
X290212Y148712D01*
X289656Y149084D01*
X289000Y149214D01*
D02*
G37*
G36*
X280500D02*
X279844Y149084D01*
X279288Y148712D01*
X278916Y148156D01*
X278786Y147500D01*
X278916Y146844D01*
X279288Y146288D01*
X279844Y145916D01*
X280500Y145786D01*
X281156Y145916D01*
X281712Y146288D01*
X282084Y146844D01*
X282214Y147500D01*
X282084Y148156D01*
X281712Y148712D01*
X281156Y149084D01*
X280500Y149214D01*
D02*
G37*
G36*
X233500Y148714D02*
X232844Y148584D01*
X232288Y148212D01*
X231916Y147656D01*
X231786Y147000D01*
X231916Y146344D01*
X232288Y145788D01*
X232844Y145416D01*
X233500Y145286D01*
X234156Y145416D01*
X234712Y145788D01*
X235084Y146344D01*
X235214Y147000D01*
X235084Y147656D01*
X234712Y148212D01*
X234156Y148584D01*
X233500Y148714D01*
D02*
G37*
G36*
X333000Y146413D02*
X332459Y146305D01*
X332001Y145999D01*
X331695Y145541D01*
X331587Y145000D01*
X331695Y144459D01*
X332001Y144001D01*
X332459Y143695D01*
X333000Y143587D01*
X333541Y143695D01*
X333999Y144001D01*
X334305Y144459D01*
X334413Y145000D01*
X334305Y145541D01*
X333999Y145999D01*
X333541Y146305D01*
X333000Y146413D01*
D02*
G37*
G36*
X217032Y158468D02*
X216531Y158468D01*
X212032D01*
Y153969D01*
X212032Y153532D01*
X212032Y153032D01*
Y148969D01*
X212032Y148531D01*
X212032Y148031D01*
Y143532D01*
X216531D01*
X216968Y143532D01*
X217469Y143532D01*
X221969D01*
Y148031D01*
X221969Y148468D01*
X221969Y148969D01*
Y153032D01*
X221969Y153469D01*
X221969Y153969D01*
Y158468D01*
X217032Y158468D01*
D02*
G37*
G36*
X371203Y145352D02*
X370662Y145245D01*
X370204Y144939D01*
X369898Y144480D01*
X369790Y143940D01*
X369898Y143399D01*
X370204Y142940D01*
X370662Y142634D01*
X371203Y142527D01*
X371744Y142634D01*
X372202Y142940D01*
X372508Y143399D01*
X372616Y143940D01*
X372508Y144480D01*
X372202Y144939D01*
X371744Y145245D01*
X371203Y145352D01*
D02*
G37*
G36*
X343500Y144913D02*
X342959Y144805D01*
X342501Y144499D01*
X342195Y144041D01*
X342087Y143500D01*
X342195Y142959D01*
X342501Y142501D01*
X342959Y142195D01*
X343500Y142087D01*
X344041Y142195D01*
X344499Y142501D01*
X344805Y142959D01*
X344913Y143500D01*
X344805Y144041D01*
X344499Y144499D01*
X344041Y144805D01*
X343500Y144913D01*
D02*
G37*
G36*
X415400Y144413D02*
X414859Y144305D01*
X414401Y143999D01*
X414095Y143541D01*
X413987Y143000D01*
X414095Y142459D01*
X414401Y142001D01*
X414859Y141695D01*
X415400Y141587D01*
X415941Y141695D01*
X416399Y142001D01*
X416706Y142459D01*
X416813Y143000D01*
X416706Y143541D01*
X416399Y143999D01*
X415941Y144305D01*
X415400Y144413D01*
D02*
G37*
G36*
X161500Y147714D02*
X160844Y147584D01*
X160288Y147212D01*
X159916Y146656D01*
X159786Y146000D01*
X159916Y145344D01*
X160288Y144788D01*
X160677Y144528D01*
X160685Y144508D01*
Y143992D01*
X160677Y143972D01*
X160288Y143712D01*
X159916Y143156D01*
X159786Y142500D01*
X159916Y141844D01*
X160288Y141288D01*
X160844Y140916D01*
X161500Y140786D01*
X162156Y140916D01*
X162712Y141288D01*
X163084Y141844D01*
X163214Y142500D01*
X163084Y143156D01*
X162712Y143712D01*
X162323Y143972D01*
X162315Y143992D01*
Y144508D01*
X162323Y144528D01*
X162712Y144788D01*
X163084Y145344D01*
X163214Y146000D01*
X163084Y146656D01*
X162712Y147212D01*
X162156Y147584D01*
X161500Y147714D01*
D02*
G37*
G36*
X254000Y143214D02*
X253344Y143084D01*
X252788Y142712D01*
X252416Y142156D01*
X252286Y141500D01*
X252416Y140844D01*
X252788Y140288D01*
X253344Y139916D01*
X254000Y139786D01*
X254656Y139916D01*
X255212Y140288D01*
X255584Y140844D01*
X255714Y141500D01*
X255584Y142156D01*
X255212Y142712D01*
X254656Y143084D01*
X254000Y143214D01*
D02*
G37*
G36*
X297500Y142714D02*
X296844Y142584D01*
X296288Y142212D01*
X295916Y141656D01*
X295786Y141000D01*
X295916Y140344D01*
X296288Y139788D01*
X296844Y139416D01*
X297500Y139286D01*
X298156Y139416D01*
X298712Y139788D01*
X299084Y140344D01*
X299214Y141000D01*
X299084Y141656D01*
X298712Y142212D01*
X298156Y142584D01*
X297500Y142714D01*
D02*
G37*
G36*
X332773Y141686D02*
X332232Y141578D01*
X331773Y141272D01*
X331467Y140813D01*
X331360Y140273D01*
X331467Y139732D01*
X331773Y139274D01*
X332232Y138967D01*
X332773Y138860D01*
X333313Y138967D01*
X333772Y139274D01*
X334078Y139732D01*
X334186Y140273D01*
X334078Y140813D01*
X333772Y141272D01*
X333313Y141578D01*
X332773Y141686D01*
D02*
G37*
G36*
X416000Y140413D02*
X415459Y140305D01*
X415001Y139999D01*
X414695Y139541D01*
X414587Y139000D01*
X414695Y138459D01*
X415001Y138001D01*
X415459Y137695D01*
X416000Y137587D01*
X416541Y137695D01*
X416999Y138001D01*
X417305Y138459D01*
X417413Y139000D01*
X417305Y139541D01*
X416999Y139999D01*
X416541Y140305D01*
X416000Y140413D01*
D02*
G37*
G36*
X208500Y139714D02*
X207844Y139584D01*
X207288Y139212D01*
X206916Y138656D01*
X206786Y138000D01*
X206916Y137344D01*
X207288Y136788D01*
X207844Y136416D01*
X208500Y136286D01*
X209156Y136416D01*
X209712Y136788D01*
X210084Y137344D01*
X210214Y138000D01*
X210084Y138656D01*
X209712Y139212D01*
X209156Y139584D01*
X208500Y139714D01*
D02*
G37*
G36*
X291500Y139214D02*
X290844Y139084D01*
X290288Y138712D01*
X289916Y138156D01*
X289786Y137500D01*
X289916Y136844D01*
X290288Y136288D01*
X290844Y135916D01*
X291500Y135786D01*
X292156Y135916D01*
X292712Y136288D01*
X293084Y136844D01*
X293214Y137500D01*
X293084Y138156D01*
X292712Y138712D01*
X292156Y139084D01*
X291500Y139214D01*
D02*
G37*
G36*
X235500D02*
X234844Y139084D01*
X234288Y138712D01*
X233916Y138156D01*
X233786Y137500D01*
X233916Y136844D01*
X234288Y136288D01*
X234844Y135916D01*
X235500Y135786D01*
X236156Y135916D01*
X236712Y136288D01*
X237084Y136844D01*
X237214Y137500D01*
X237084Y138156D01*
X236712Y138712D01*
X236156Y139084D01*
X235500Y139214D01*
D02*
G37*
G36*
X362604Y137903D02*
X362063Y137795D01*
X361605Y137489D01*
X361298Y137031D01*
X361191Y136490D01*
X361298Y135949D01*
X361496Y135653D01*
X361603Y135472D01*
X361552Y134925D01*
X361444Y134764D01*
X361337Y134223D01*
X361444Y133682D01*
X361751Y133224D01*
X362209Y132918D01*
X362750Y132810D01*
X363290Y132918D01*
X363749Y133224D01*
X364055Y133682D01*
X364163Y134223D01*
X364055Y134764D01*
X363857Y135060D01*
X363750Y135241D01*
X363802Y135788D01*
X363909Y135949D01*
X364017Y136490D01*
X363909Y137031D01*
X363603Y137489D01*
X363144Y137795D01*
X362604Y137903D01*
D02*
G37*
G36*
X303500Y136214D02*
X302844Y136084D01*
X302288Y135712D01*
X301916Y135156D01*
X301786Y134500D01*
X301916Y133844D01*
X302288Y133288D01*
X302844Y132916D01*
X303500Y132786D01*
X304156Y132916D01*
X304712Y133288D01*
X305084Y133844D01*
X305214Y134500D01*
X305084Y135156D01*
X304712Y135712D01*
X304156Y136084D01*
X303500Y136214D01*
D02*
G37*
G36*
X278286Y136714D02*
X277630Y136584D01*
X277074Y136212D01*
X276702Y135656D01*
X276572Y135000D01*
X276702Y134344D01*
X277074Y133788D01*
X277630Y133416D01*
X278286Y133286D01*
X278942Y133416D01*
X279097Y133520D01*
X279120Y133519D01*
X279618Y133267D01*
X279702Y132844D01*
X280074Y132288D01*
X280630Y131916D01*
X281286Y131786D01*
X281942Y131916D01*
X282498Y132288D01*
X282870Y132844D01*
X283000Y133500D01*
X282870Y134156D01*
X282498Y134712D01*
X281942Y135084D01*
X281286Y135214D01*
X280630Y135084D01*
X280475Y134980D01*
X280452Y134981D01*
X279954Y135233D01*
X279870Y135656D01*
X279498Y136212D01*
X278942Y136584D01*
X278286Y136714D01*
D02*
G37*
G36*
X266768Y134576D02*
X266112Y134446D01*
X265556Y134074D01*
X265184Y133518D01*
X265054Y132862D01*
X265184Y132206D01*
X265556Y131650D01*
X266112Y131279D01*
X266768Y131148D01*
X267424Y131279D01*
X267980Y131650D01*
X268351Y132206D01*
X268482Y132862D01*
X268351Y133518D01*
X267980Y134074D01*
X267424Y134446D01*
X266768Y134576D01*
D02*
G37*
G36*
X371000Y133413D02*
X370459Y133305D01*
X370001Y132999D01*
X369695Y132541D01*
X369587Y132000D01*
X369695Y131459D01*
X370001Y131001D01*
X370459Y130695D01*
X371000Y130587D01*
X371541Y130695D01*
X371999Y131001D01*
X372305Y131459D01*
X372413Y132000D01*
X372305Y132541D01*
X371999Y132999D01*
X371541Y133305D01*
X371000Y133413D01*
D02*
G37*
G36*
X171000Y133714D02*
X170344Y133584D01*
X169788Y133212D01*
X169416Y132656D01*
X169286Y132000D01*
X169416Y131344D01*
X169788Y130788D01*
X170344Y130416D01*
X171000Y130286D01*
X171656Y130416D01*
X172212Y130788D01*
X172584Y131344D01*
X172714Y132000D01*
X172584Y132656D01*
X172212Y133212D01*
X171656Y133584D01*
X171000Y133714D01*
D02*
G37*
G36*
X415500Y132913D02*
X414959Y132805D01*
X414501Y132499D01*
X414195Y132041D01*
X414087Y131500D01*
X414195Y130959D01*
X414501Y130501D01*
X414959Y130195D01*
X415500Y130087D01*
X416041Y130195D01*
X416499Y130501D01*
X416805Y130959D01*
X416913Y131500D01*
X416805Y132041D01*
X416499Y132499D01*
X416041Y132805D01*
X415500Y132913D01*
D02*
G37*
G36*
X378000Y131913D02*
X377459Y131805D01*
X377001Y131499D01*
X376695Y131041D01*
X376587Y130500D01*
X376695Y129959D01*
X377001Y129501D01*
X377459Y129195D01*
X378000Y129087D01*
X378541Y129195D01*
X378999Y129501D01*
X379305Y129959D01*
X379413Y130500D01*
X379305Y131041D01*
X378999Y131499D01*
X378541Y131805D01*
X378000Y131913D01*
D02*
G37*
G36*
X533000Y139269D02*
X531636Y139090D01*
X530365Y138564D01*
X529274Y137726D01*
X528437Y136635D01*
X527910Y135364D01*
X527731Y134000D01*
X527910Y132636D01*
X528437Y131365D01*
X529274Y130274D01*
X530365Y129437D01*
X531636Y128910D01*
X533000Y128730D01*
X534364Y128910D01*
X535635Y129437D01*
X536726Y130274D01*
X537564Y131365D01*
X538090Y132636D01*
X538270Y134000D01*
X538090Y135364D01*
X537564Y136635D01*
X536726Y137726D01*
X535635Y138564D01*
X534364Y139090D01*
X533000Y139269D01*
D02*
G37*
G36*
X408500Y131413D02*
X407959Y131305D01*
X407501Y130999D01*
X407195Y130541D01*
X407087Y130000D01*
X407195Y129459D01*
X407501Y129001D01*
X407959Y128695D01*
X408500Y128587D01*
X409041Y128695D01*
X409499Y129001D01*
X409805Y129459D01*
X409913Y130000D01*
X409805Y130541D01*
X409499Y130999D01*
X409041Y131305D01*
X408500Y131413D01*
D02*
G37*
G36*
X331507Y129361D02*
X330966Y129253D01*
X330508Y128947D01*
X330202Y128488D01*
X330094Y127948D01*
X330202Y127407D01*
X330508Y126948D01*
X330966Y126642D01*
X331507Y126535D01*
X332048Y126642D01*
X332506Y126948D01*
X332813Y127407D01*
X332920Y127948D01*
X332813Y128488D01*
X332506Y128947D01*
X332048Y129253D01*
X331507Y129361D01*
D02*
G37*
G36*
X416000Y128913D02*
X415459Y128805D01*
X415001Y128499D01*
X414695Y128041D01*
X414587Y127500D01*
X414695Y126959D01*
X415001Y126501D01*
X415459Y126195D01*
X416000Y126087D01*
X416541Y126195D01*
X416999Y126501D01*
X417305Y126959D01*
X417413Y127500D01*
X417305Y128041D01*
X416999Y128499D01*
X416541Y128805D01*
X416000Y128913D01*
D02*
G37*
G36*
X343500Y128413D02*
X342959Y128305D01*
X342501Y127999D01*
X342195Y127541D01*
X342087Y127000D01*
X342195Y126459D01*
X342501Y126001D01*
X342959Y125695D01*
X343500Y125587D01*
X344041Y125695D01*
X344499Y126001D01*
X344805Y126459D01*
X344913Y127000D01*
X344805Y127541D01*
X344499Y127999D01*
X344041Y128305D01*
X343500Y128413D01*
D02*
G37*
G36*
X187500Y127214D02*
X186844Y127084D01*
X186288Y126712D01*
X185916Y126156D01*
X185786Y125500D01*
X185916Y124844D01*
X186288Y124288D01*
X186844Y123916D01*
X187500Y123786D01*
X188156Y123916D01*
X188712Y124288D01*
X189084Y124844D01*
X189214Y125500D01*
X189084Y126156D01*
X188712Y126712D01*
X188156Y127084D01*
X187500Y127214D01*
D02*
G37*
G36*
X331500Y124413D02*
X330959Y124305D01*
X330501Y123999D01*
X330195Y123541D01*
X330087Y123000D01*
X330195Y122459D01*
X330501Y122001D01*
X330959Y121695D01*
X331500Y121587D01*
X332041Y121695D01*
X332499Y122001D01*
X332805Y122459D01*
X332913Y123000D01*
X332805Y123541D01*
X332499Y123999D01*
X332041Y124305D01*
X331500Y124413D01*
D02*
G37*
G36*
X317500Y124714D02*
X316844Y124584D01*
X316288Y124212D01*
X315916Y123656D01*
X315786Y123000D01*
X315916Y122344D01*
X316288Y121788D01*
X316844Y121416D01*
X317500Y121286D01*
X318156Y121416D01*
X318712Y121788D01*
X319084Y122344D01*
X319214Y123000D01*
X319084Y123656D01*
X318712Y124212D01*
X318156Y124584D01*
X317500Y124714D01*
D02*
G37*
G36*
X231500D02*
X230844Y124584D01*
X230288Y124212D01*
X229916Y123656D01*
X229786Y123000D01*
X229916Y122344D01*
X230288Y121788D01*
X230844Y121416D01*
X231500Y121286D01*
X232156Y121416D01*
X232712Y121788D01*
X233084Y122344D01*
X233214Y123000D01*
X233084Y123656D01*
X232712Y124212D01*
X232156Y124584D01*
X231500Y124714D01*
D02*
G37*
G36*
X291500Y126214D02*
X290844Y126084D01*
X290288Y125712D01*
X289916Y125156D01*
X289786Y124500D01*
X289916Y123844D01*
X290288Y123288D01*
X290844Y122916D01*
X291500Y122786D01*
X291649Y122816D01*
X292043Y122384D01*
X291967Y122000D01*
X292097Y121344D01*
X292469Y120788D01*
X293025Y120416D01*
X293681Y120286D01*
X294337Y120416D01*
X294893Y120788D01*
X295265Y121344D01*
X295395Y122000D01*
X295265Y122656D01*
X294893Y123212D01*
X294337Y123584D01*
X293681Y123714D01*
X293532Y123685D01*
X293138Y124116D01*
X293214Y124500D01*
X293084Y125156D01*
X292712Y125712D01*
X292156Y126084D01*
X291500Y126214D01*
D02*
G37*
G36*
X378000Y122413D02*
X377459Y122305D01*
X377001Y121999D01*
X376695Y121541D01*
X376587Y121000D01*
X376695Y120459D01*
X377001Y120001D01*
X377459Y119695D01*
X378000Y119587D01*
X378541Y119695D01*
X378999Y120001D01*
X379305Y120459D01*
X379413Y121000D01*
X379305Y121541D01*
X378999Y121999D01*
X378541Y122305D01*
X378000Y122413D01*
D02*
G37*
G36*
X415400Y121913D02*
X414859Y121805D01*
X414401Y121499D01*
X414095Y121041D01*
X413987Y120500D01*
X414095Y119959D01*
X414401Y119501D01*
X414859Y119195D01*
X415400Y119087D01*
X415941Y119195D01*
X416399Y119501D01*
X416706Y119959D01*
X416813Y120500D01*
X416706Y121041D01*
X416399Y121499D01*
X415941Y121805D01*
X415400Y121913D01*
D02*
G37*
G36*
X371000D02*
X370459Y121805D01*
X370001Y121499D01*
X369695Y121041D01*
X369587Y120500D01*
X369695Y119959D01*
X370001Y119501D01*
X370459Y119195D01*
X371000Y119087D01*
X371541Y119195D01*
X371999Y119501D01*
X372305Y119959D01*
X372413Y120500D01*
X372305Y121041D01*
X371999Y121499D01*
X371541Y121805D01*
X371000Y121913D01*
D02*
G37*
G36*
X217756Y121812D02*
X217100Y121682D01*
X216544Y121310D01*
X216172Y120754D01*
X216042Y120098D01*
X216172Y119442D01*
X216544Y118886D01*
X217100Y118515D01*
X217756Y118384D01*
X218412Y118515D01*
X218968Y118886D01*
X219339Y119442D01*
X219470Y120098D01*
X219339Y120754D01*
X218968Y121310D01*
X218412Y121682D01*
X217756Y121812D01*
D02*
G37*
G36*
X408808Y121168D02*
X408267Y121061D01*
X407809Y120755D01*
X407503Y120296D01*
X407395Y119755D01*
X407503Y119215D01*
X407809Y118756D01*
X408267Y118450D01*
X408808Y118342D01*
X409349Y118450D01*
X409807Y118756D01*
X410113Y119215D01*
X410221Y119755D01*
X410113Y120296D01*
X409807Y120755D01*
X409349Y121061D01*
X408808Y121168D01*
D02*
G37*
G36*
X240500Y120714D02*
X239844Y120584D01*
X239288Y120212D01*
X238916Y119656D01*
X238786Y119000D01*
X238916Y118344D01*
X239288Y117788D01*
X239844Y117416D01*
X240500Y117286D01*
X241156Y117416D01*
X241712Y117788D01*
X242084Y118344D01*
X242214Y119000D01*
X242084Y119656D01*
X241712Y120212D01*
X241156Y120584D01*
X240500Y120714D01*
D02*
G37*
G36*
X362500Y121609D02*
X361959Y121502D01*
X361501Y121195D01*
X361195Y120737D01*
X361087Y120196D01*
X361195Y119656D01*
X361501Y119197D01*
X361959Y118891D01*
X361968Y118871D01*
X361697Y118466D01*
X361590Y117925D01*
X361697Y117385D01*
X362003Y116926D01*
X362462Y116620D01*
X363003Y116512D01*
X363543Y116620D01*
X364002Y116926D01*
X364308Y117385D01*
X364416Y117925D01*
X364308Y118466D01*
X364002Y118924D01*
X363543Y119231D01*
X363535Y119251D01*
X363805Y119656D01*
X363913Y120196D01*
X363805Y120737D01*
X363499Y121195D01*
X363041Y121502D01*
X362500Y121609D01*
D02*
G37*
G36*
X292500Y119714D02*
X291844Y119584D01*
X291288Y119212D01*
X290916Y118656D01*
X290786Y118000D01*
X290916Y117344D01*
X291288Y116788D01*
X291844Y116416D01*
X292500Y116286D01*
X293156Y116416D01*
X293712Y116788D01*
X294084Y117344D01*
X294214Y118000D01*
X294084Y118656D01*
X293712Y119212D01*
X293156Y119584D01*
X292500Y119714D01*
D02*
G37*
G36*
X329088Y118860D02*
X328548Y118752D01*
X328089Y118446D01*
X327783Y117987D01*
X327675Y117447D01*
X327783Y116906D01*
X328089Y116447D01*
X328548Y116141D01*
X329088Y116034D01*
X329629Y116141D01*
X330087Y116447D01*
X330394Y116906D01*
X330501Y117447D01*
X330394Y117987D01*
X330087Y118446D01*
X329629Y118752D01*
X329088Y118860D01*
D02*
G37*
G36*
X275031Y129969D02*
X274532Y129969D01*
X270031D01*
Y125469D01*
X270031Y125031D01*
X270031Y124531D01*
Y120468D01*
X270031Y120031D01*
X270031Y119532D01*
Y115032D01*
X274532D01*
X274969Y115032D01*
X275468Y115032D01*
X279969D01*
Y119532D01*
X279969Y119968D01*
X279969Y120468D01*
Y124531D01*
X279969Y124969D01*
X279969Y125469D01*
Y129969D01*
X275031Y129969D01*
D02*
G37*
G36*
X415810Y117413D02*
X415269Y117305D01*
X414811Y116999D01*
X414504Y116541D01*
X414397Y116000D01*
X414504Y115459D01*
X414811Y115001D01*
X415269Y114695D01*
X415810Y114587D01*
X416350Y114695D01*
X416809Y115001D01*
X417115Y115459D01*
X417223Y116000D01*
X417115Y116541D01*
X416809Y116999D01*
X416350Y117305D01*
X415810Y117413D01*
D02*
G37*
G36*
X319286Y116714D02*
X318630Y116584D01*
X318074Y116212D01*
X317702Y115656D01*
X317572Y115000D01*
X317702Y114344D01*
X318074Y113788D01*
X318630Y113416D01*
X319286Y113286D01*
X319942Y113416D01*
X320498Y113788D01*
X320869Y114344D01*
X321000Y115000D01*
X320869Y115656D01*
X320498Y116212D01*
X319942Y116584D01*
X319286Y116714D01*
D02*
G37*
G36*
X213500Y116214D02*
X212844Y116084D01*
X212288Y115712D01*
X211916Y115156D01*
X211786Y114500D01*
X211916Y113844D01*
X212288Y113288D01*
X212844Y112916D01*
X213500Y112786D01*
X214156Y112916D01*
X214712Y113288D01*
X215084Y113844D01*
X215214Y114500D01*
X215084Y115156D01*
X214712Y115712D01*
X214156Y116084D01*
X213500Y116214D01*
D02*
G37*
G36*
X311996Y115218D02*
X311340Y115087D01*
X310784Y114716D01*
X310413Y114160D01*
X310282Y113504D01*
X310413Y112848D01*
X310784Y112292D01*
X311340Y111920D01*
X311996Y111790D01*
X312652Y111920D01*
X313208Y112292D01*
X313580Y112848D01*
X313710Y113504D01*
X313580Y114160D01*
X313208Y114716D01*
X312652Y115087D01*
X311996Y115218D01*
D02*
G37*
G36*
X266500Y115214D02*
X265844Y115084D01*
X265288Y114712D01*
X264916Y114156D01*
X264786Y113500D01*
X264916Y112844D01*
X265288Y112288D01*
X265844Y111916D01*
X266500Y111786D01*
X267156Y111916D01*
X267712Y112288D01*
X268084Y112844D01*
X268214Y113500D01*
X268084Y114156D01*
X267712Y114712D01*
X267156Y115084D01*
X266500Y115214D01*
D02*
G37*
G36*
X329052Y113965D02*
X328512Y113858D01*
X328053Y113551D01*
X327747Y113093D01*
X327639Y112552D01*
X327747Y112012D01*
X328053Y111553D01*
X328512Y111247D01*
X329052Y111139D01*
X329593Y111247D01*
X330051Y111553D01*
X330358Y112012D01*
X330465Y112552D01*
X330358Y113093D01*
X330051Y113551D01*
X329593Y113858D01*
X329052Y113965D01*
D02*
G37*
G36*
X233000Y114214D02*
X232344Y114084D01*
X231788Y113712D01*
X231416Y113156D01*
X231286Y112500D01*
X231416Y111844D01*
X231788Y111288D01*
X232344Y110916D01*
X233000Y110786D01*
X233656Y110916D01*
X234212Y111288D01*
X234584Y111844D01*
X234714Y112500D01*
X234584Y113156D01*
X234212Y113712D01*
X233656Y114084D01*
X233000Y114214D01*
D02*
G37*
G36*
X218500Y113714D02*
X217844Y113584D01*
X217288Y113212D01*
X216916Y112656D01*
X216786Y112000D01*
X216916Y111344D01*
X217288Y110788D01*
X217844Y110416D01*
X218500Y110286D01*
X219156Y110416D01*
X219712Y110788D01*
X220084Y111344D01*
X220214Y112000D01*
X220084Y112656D01*
X219712Y113212D01*
X219156Y113584D01*
X218500Y113714D01*
D02*
G37*
G36*
X378000Y112413D02*
X377459Y112305D01*
X377001Y111999D01*
X376695Y111541D01*
X376587Y111000D01*
X376695Y110459D01*
X377001Y110001D01*
X377459Y109695D01*
X378000Y109587D01*
X378541Y109695D01*
X378999Y110001D01*
X379305Y110459D01*
X379413Y111000D01*
X379305Y111541D01*
X378999Y111999D01*
X378541Y112305D01*
X378000Y112413D01*
D02*
G37*
G36*
X343500Y111913D02*
X342959Y111805D01*
X342501Y111499D01*
X342195Y111041D01*
X342087Y110500D01*
X342195Y109959D01*
X342501Y109501D01*
X342959Y109195D01*
X343500Y109087D01*
X344041Y109195D01*
X344499Y109501D01*
X344805Y109959D01*
X344913Y110500D01*
X344805Y111041D01*
X344499Y111499D01*
X344041Y111805D01*
X343500Y111913D01*
D02*
G37*
G36*
X408500Y111413D02*
X407959Y111305D01*
X407501Y110999D01*
X407195Y110541D01*
X407087Y110000D01*
X407195Y109459D01*
X407501Y109001D01*
X407959Y108695D01*
X408500Y108587D01*
X409041Y108695D01*
X409499Y109001D01*
X409805Y109459D01*
X409913Y110000D01*
X409805Y110541D01*
X409499Y110999D01*
X409041Y111305D01*
X408500Y111413D01*
D02*
G37*
G36*
X168500Y111568D02*
X167844Y111438D01*
X167288Y111066D01*
X166916Y110510D01*
X166786Y109854D01*
X166916Y109198D01*
X167288Y108642D01*
X167844Y108271D01*
X168500Y108140D01*
X169156Y108271D01*
X169712Y108642D01*
X170084Y109198D01*
X170214Y109854D01*
X170084Y110510D01*
X169712Y111066D01*
X169156Y111438D01*
X168500Y111568D01*
D02*
G37*
G36*
X268500Y111214D02*
X267844Y111084D01*
X267288Y110712D01*
X266916Y110156D01*
X266786Y109500D01*
X266916Y108844D01*
X267288Y108288D01*
X267844Y107916D01*
X268500Y107786D01*
X269156Y107916D01*
X269712Y108288D01*
X270084Y108844D01*
X270214Y109500D01*
X270084Y110156D01*
X269712Y110712D01*
X269156Y111084D01*
X268500Y111214D01*
D02*
G37*
G36*
X247000D02*
X246344Y111084D01*
X245788Y110712D01*
X245416Y110156D01*
X245286Y109500D01*
X245416Y108844D01*
X245788Y108288D01*
X246344Y107916D01*
X247000Y107786D01*
X247656Y107916D01*
X248212Y108288D01*
X248584Y108844D01*
X248714Y109500D01*
X248584Y110156D01*
X248212Y110712D01*
X247656Y111084D01*
X247000Y111214D01*
D02*
G37*
G36*
X415400Y110413D02*
X414859Y110305D01*
X414401Y109999D01*
X414095Y109541D01*
X413987Y109000D01*
X414095Y108459D01*
X414401Y108001D01*
X414859Y107695D01*
X415400Y107587D01*
X415941Y107695D01*
X416399Y108001D01*
X416706Y108459D01*
X416813Y109000D01*
X416706Y109541D01*
X416399Y109999D01*
X415941Y110305D01*
X415400Y110413D01*
D02*
G37*
G36*
X371000D02*
X370459Y110305D01*
X370001Y109999D01*
X369695Y109541D01*
X369587Y109000D01*
X369695Y108459D01*
X370001Y108001D01*
X370459Y107695D01*
X371000Y107587D01*
X371541Y107695D01*
X371999Y108001D01*
X372305Y108459D01*
X372413Y109000D01*
X372305Y109541D01*
X371999Y109999D01*
X371541Y110305D01*
X371000Y110413D01*
D02*
G37*
G36*
X213171Y110895D02*
X212515Y110765D01*
X211959Y110393D01*
X211588Y109837D01*
X211457Y109181D01*
X211588Y108525D01*
X211959Y107969D01*
X212515Y107597D01*
X213171Y107467D01*
X213827Y107597D01*
X214383Y107969D01*
X214755Y108525D01*
X214885Y109181D01*
X214755Y109837D01*
X214383Y110393D01*
X213827Y110765D01*
X213171Y110895D01*
D02*
G37*
G36*
X416000Y106413D02*
X415459Y106305D01*
X415001Y105999D01*
X414695Y105541D01*
X414587Y105000D01*
X414695Y104459D01*
X415001Y104001D01*
X415459Y103695D01*
X416000Y103587D01*
X416541Y103695D01*
X416999Y104001D01*
X417305Y104459D01*
X417413Y105000D01*
X417305Y105541D01*
X416999Y105999D01*
X416541Y106305D01*
X416000Y106413D01*
D02*
G37*
G36*
X296000D02*
X295459Y106305D01*
X295001Y105999D01*
X294695Y105541D01*
X294587Y105000D01*
X294695Y104459D01*
X295001Y104001D01*
X295459Y103695D01*
X296000Y103587D01*
X296541Y103695D01*
X296999Y104001D01*
X297305Y104459D01*
X297413Y105000D01*
X297305Y105541D01*
X296999Y105999D01*
X296541Y106305D01*
X296000Y106413D01*
D02*
G37*
G36*
X326500Y103913D02*
X325959Y103805D01*
X325501Y103499D01*
X325195Y103041D01*
X325087Y102500D01*
X325195Y101959D01*
X325501Y101501D01*
X325959Y101195D01*
X326500Y101087D01*
X327041Y101195D01*
X327499Y101501D01*
X327805Y101959D01*
X327913Y102500D01*
X327805Y103041D01*
X327499Y103499D01*
X327041Y103805D01*
X326500Y103913D01*
D02*
G37*
G36*
X167705Y104206D02*
X167049Y104076D01*
X166493Y103704D01*
X166121Y103148D01*
X165991Y102492D01*
X166121Y101836D01*
X166493Y101280D01*
X167049Y100909D01*
X167705Y100778D01*
X168361Y100909D01*
X168917Y101280D01*
X169288Y101836D01*
X169419Y102492D01*
X169288Y103148D01*
X168917Y103704D01*
X168361Y104076D01*
X167705Y104206D01*
D02*
G37*
G36*
X362445Y105816D02*
X361905Y105709D01*
X361446Y105402D01*
X361140Y104944D01*
X361032Y104403D01*
X361140Y103862D01*
X361332Y103576D01*
X361571Y103134D01*
X361264Y102676D01*
X361157Y102135D01*
X361264Y101594D01*
X361571Y101136D01*
X362029Y100830D01*
X362570Y100722D01*
X363110Y100830D01*
X363569Y101136D01*
X363875Y101594D01*
X363983Y102135D01*
X363875Y102676D01*
X363683Y102962D01*
X363444Y103404D01*
X363751Y103862D01*
X363858Y104403D01*
X363751Y104944D01*
X363444Y105402D01*
X362986Y105709D01*
X362445Y105816D01*
D02*
G37*
G36*
X259556Y103149D02*
X258900Y103018D01*
X258344Y102647D01*
X257972Y102091D01*
X257842Y101435D01*
X257972Y100779D01*
X258344Y100223D01*
X258900Y99851D01*
X259556Y99721D01*
X260211Y99851D01*
X260768Y100223D01*
X261139Y100779D01*
X261270Y101435D01*
X261139Y102091D01*
X260768Y102647D01*
X260211Y103018D01*
X259556Y103149D01*
D02*
G37*
G36*
X179000Y101714D02*
X178344Y101584D01*
X177788Y101212D01*
X177416Y100656D01*
X177286Y100000D01*
X177410Y99377D01*
X177336Y99281D01*
X177021Y99036D01*
X176874Y99134D01*
X176218Y99265D01*
X175562Y99134D01*
X175006Y98763D01*
X174634Y98207D01*
X174504Y97551D01*
X174634Y96895D01*
X175006Y96339D01*
X175562Y95967D01*
X176218Y95837D01*
X176874Y95967D01*
X177430Y96339D01*
X177801Y96895D01*
X177932Y97551D01*
X177808Y98173D01*
X177882Y98270D01*
X178197Y98515D01*
X178344Y98416D01*
X179000Y98286D01*
X179656Y98416D01*
X180212Y98788D01*
X180584Y99344D01*
X180714Y100000D01*
X180584Y100656D01*
X180212Y101212D01*
X179656Y101584D01*
X179000Y101714D01*
D02*
G37*
G36*
X382500Y101413D02*
X381959Y101305D01*
X381501Y100999D01*
X381195Y100541D01*
X381087Y100000D01*
X381195Y99459D01*
X381501Y99001D01*
X381959Y98695D01*
X382500Y98587D01*
X383041Y98695D01*
X383499Y99001D01*
X383805Y99459D01*
X383913Y100000D01*
X383805Y100541D01*
X383499Y100999D01*
X383041Y101305D01*
X382500Y101413D01*
D02*
G37*
G36*
X194319Y104118D02*
X193663Y103987D01*
X193107Y103615D01*
X192735Y103059D01*
X192605Y102403D01*
X192735Y101748D01*
X193107Y101191D01*
X193274Y101079D01*
X193297Y100916D01*
X193230Y100508D01*
X192788Y100212D01*
X192416Y99656D01*
X192286Y99000D01*
X192416Y98344D01*
X192788Y97788D01*
X193344Y97416D01*
X194000Y97286D01*
X194656Y97416D01*
X195212Y97788D01*
X195584Y98344D01*
X195714Y99000D01*
X195584Y99656D01*
X195212Y100212D01*
X195045Y100324D01*
X195022Y100487D01*
X195089Y100896D01*
X195531Y101191D01*
X195903Y101748D01*
X196033Y102403D01*
X195903Y103059D01*
X195531Y103615D01*
X194975Y103987D01*
X194319Y104118D01*
D02*
G37*
G36*
X171500Y98714D02*
X170844Y98584D01*
X170288Y98212D01*
X169916Y97656D01*
X169786Y97000D01*
X169916Y96344D01*
X170288Y95788D01*
X170844Y95416D01*
X171500Y95286D01*
X172156Y95416D01*
X172712Y95788D01*
X173084Y96344D01*
X173214Y97000D01*
X173084Y97656D01*
X172712Y98212D01*
X172156Y98584D01*
X171500Y98714D01*
D02*
G37*
G36*
X325773Y97686D02*
X325232Y97578D01*
X324774Y97272D01*
X324467Y96813D01*
X324360Y96273D01*
X324467Y95732D01*
X324774Y95274D01*
X325232Y94967D01*
X325773Y94860D01*
X326313Y94967D01*
X326772Y95274D01*
X327078Y95732D01*
X327186Y96273D01*
X327078Y96813D01*
X326772Y97272D01*
X326313Y97578D01*
X325773Y97686D01*
D02*
G37*
G36*
X343500Y95413D02*
X342959Y95305D01*
X342501Y94999D01*
X342195Y94541D01*
X342087Y94000D01*
X342195Y93459D01*
X342501Y93001D01*
X342959Y92695D01*
X343500Y92587D01*
X344041Y92695D01*
X344499Y93001D01*
X344805Y93459D01*
X344913Y94000D01*
X344805Y94541D01*
X344499Y94999D01*
X344041Y95305D01*
X343500Y95413D01*
D02*
G37*
G36*
X208500Y94714D02*
X207844Y94584D01*
X207288Y94212D01*
X206916Y93656D01*
X206786Y93000D01*
X206916Y92344D01*
X207288Y91788D01*
X207844Y91416D01*
X208500Y91286D01*
X209156Y91416D01*
X209712Y91788D01*
X210084Y92344D01*
X210214Y93000D01*
X210084Y93656D01*
X209712Y94212D01*
X209156Y94584D01*
X208500Y94714D01*
D02*
G37*
G36*
X234000Y100214D02*
X233344Y100084D01*
X232788Y99712D01*
X232416Y99156D01*
X232286Y98500D01*
X232416Y97844D01*
X232643Y97505D01*
X232764Y97251D01*
X232519Y96866D01*
X232288Y96712D01*
X231916Y96156D01*
X231786Y95500D01*
X231916Y94844D01*
X232288Y94288D01*
X232677Y94028D01*
X232685Y94008D01*
Y93492D01*
X232677Y93472D01*
X232288Y93212D01*
X231916Y92656D01*
X231786Y92000D01*
X231916Y91344D01*
X232288Y90788D01*
X232844Y90416D01*
X233500Y90286D01*
X234156Y90416D01*
X234712Y90788D01*
X235084Y91344D01*
X235214Y92000D01*
X235084Y92656D01*
X234712Y93212D01*
X234323Y93472D01*
X234315Y93492D01*
Y94008D01*
X234323Y94028D01*
X234712Y94288D01*
X235084Y94844D01*
X235214Y95500D01*
X235084Y96156D01*
X234857Y96495D01*
X234736Y96749D01*
X234981Y97134D01*
X235212Y97288D01*
X235584Y97844D01*
X235714Y98500D01*
X235584Y99156D01*
X235212Y99712D01*
X234656Y100084D01*
X234000Y100214D01*
D02*
G37*
G36*
X217032Y104969D02*
X216531Y104969D01*
X212032D01*
Y100469D01*
X212032Y100031D01*
X212032Y99532D01*
Y95468D01*
X212032Y95031D01*
X212032Y94532D01*
Y90031D01*
X216531D01*
X216968Y90031D01*
X217469Y90031D01*
X221969D01*
Y94532D01*
X221969Y94968D01*
X221969Y95468D01*
Y99532D01*
X221969Y99968D01*
X221969Y100469D01*
Y104969D01*
X217032Y104969D01*
D02*
G37*
G36*
X291000Y91714D02*
X290344Y91584D01*
X289788Y91212D01*
X289416Y90656D01*
X289286Y90000D01*
X289416Y89344D01*
X289788Y88788D01*
X290344Y88416D01*
X291000Y88286D01*
X291656Y88416D01*
X292212Y88788D01*
X292584Y89344D01*
X292714Y90000D01*
X292584Y90656D01*
X292212Y91212D01*
X291656Y91584D01*
X291000Y91714D01*
D02*
G37*
G36*
X262000D02*
X261344Y91584D01*
X260788Y91212D01*
X260416Y90656D01*
X260286Y90000D01*
X260416Y89344D01*
X260788Y88788D01*
X261344Y88416D01*
X262000Y88286D01*
X262656Y88416D01*
X263212Y88788D01*
X263584Y89344D01*
X263714Y90000D01*
X263584Y90656D01*
X263212Y91212D01*
X262656Y91584D01*
X262000Y91714D01*
D02*
G37*
G36*
X254000Y90214D02*
X253344Y90084D01*
X252788Y89712D01*
X252416Y89156D01*
X252286Y88500D01*
X252416Y87844D01*
X252788Y87288D01*
X253344Y86916D01*
X254000Y86786D01*
X254656Y86916D01*
X255212Y87288D01*
X255584Y87844D01*
X255714Y88500D01*
X255584Y89156D01*
X255212Y89712D01*
X254656Y90084D01*
X254000Y90214D01*
D02*
G37*
G36*
X275658Y89173D02*
X275002Y89043D01*
X274446Y88671D01*
X274074Y88115D01*
X273944Y87459D01*
X274074Y86803D01*
X274446Y86247D01*
X275002Y85875D01*
X275658Y85745D01*
X276314Y85875D01*
X276870Y86247D01*
X277241Y86803D01*
X277372Y87459D01*
X277241Y88115D01*
X276870Y88671D01*
X276314Y89043D01*
X275658Y89173D01*
D02*
G37*
G36*
X297500Y87714D02*
X296844Y87584D01*
X296288Y87212D01*
X295916Y86656D01*
X295786Y86000D01*
X295916Y85344D01*
X296288Y84788D01*
X296844Y84416D01*
X297500Y84286D01*
X298156Y84416D01*
X298712Y84788D01*
X299084Y85344D01*
X299214Y86000D01*
X299084Y86656D01*
X298712Y87212D01*
X298156Y87584D01*
X297500Y87714D01*
D02*
G37*
G36*
X363000Y88046D02*
X362459Y87939D01*
X362001Y87632D01*
X361695Y87174D01*
X361587Y86633D01*
X361695Y86093D01*
X361849Y85861D01*
X361960Y85497D01*
X361849Y85134D01*
X361695Y84902D01*
X361587Y84362D01*
X361695Y83821D01*
X362001Y83363D01*
X362459Y83056D01*
X363000Y82949D01*
X363541Y83056D01*
X363999Y83363D01*
X364305Y83821D01*
X364413Y84362D01*
X364305Y84902D01*
X364151Y85134D01*
X364040Y85497D01*
X364151Y85861D01*
X364305Y86093D01*
X364413Y86633D01*
X364305Y87174D01*
X363999Y87632D01*
X363541Y87939D01*
X363000Y88046D01*
D02*
G37*
G36*
X236812Y83526D02*
X236156Y83395D01*
X235600Y83024D01*
X235228Y82468D01*
X235098Y81812D01*
X235228Y81156D01*
X235600Y80600D01*
X236156Y80228D01*
X236812Y80098D01*
X237468Y80228D01*
X238024Y80600D01*
X238395Y81156D01*
X238526Y81812D01*
X238395Y82468D01*
X238024Y83024D01*
X237468Y83395D01*
X236812Y83526D01*
D02*
G37*
G36*
X188000Y82714D02*
X187344Y82584D01*
X186788Y82212D01*
X186416Y81656D01*
X186286Y81000D01*
X186416Y80344D01*
X186788Y79788D01*
X187344Y79416D01*
X188000Y79286D01*
X188656Y79416D01*
X189212Y79788D01*
X189584Y80344D01*
X189714Y81000D01*
X189584Y81656D01*
X189212Y82212D01*
X188656Y82584D01*
X188000Y82714D01*
D02*
G37*
G36*
X291500Y81714D02*
X290844Y81584D01*
X290288Y81212D01*
X289916Y80656D01*
X289786Y80000D01*
X289916Y79344D01*
X290288Y78788D01*
X290844Y78416D01*
X291500Y78286D01*
X292156Y78416D01*
X292712Y78788D01*
X293084Y79344D01*
X293214Y80000D01*
X293084Y80656D01*
X292712Y81212D01*
X292156Y81584D01*
X291500Y81714D01*
D02*
G37*
G36*
X276500Y81214D02*
X275844Y81084D01*
X275288Y80712D01*
X274916Y80156D01*
X274786Y79500D01*
X274916Y78844D01*
X275288Y78288D01*
X275844Y77916D01*
X276500Y77786D01*
X277156Y77916D01*
X277712Y78288D01*
X278084Y78844D01*
X278214Y79500D01*
X278084Y80156D01*
X277712Y80712D01*
X277156Y81084D01*
X276500Y81214D01*
D02*
G37*
G36*
X343500Y78413D02*
X342959Y78305D01*
X342501Y77999D01*
X342195Y77541D01*
X342087Y77000D01*
X342195Y76459D01*
X342501Y76001D01*
X342959Y75695D01*
X343500Y75587D01*
X344041Y75695D01*
X344499Y76001D01*
X344805Y76459D01*
X344913Y77000D01*
X344805Y77541D01*
X344499Y77999D01*
X344041Y78305D01*
X343500Y78413D01*
D02*
G37*
G36*
X303000Y78214D02*
X302344Y78084D01*
X301788Y77712D01*
X301416Y77156D01*
X301286Y76500D01*
X301416Y75844D01*
X301788Y75288D01*
X302344Y74916D01*
X303000Y74786D01*
X303656Y74916D01*
X304212Y75288D01*
X304584Y75844D01*
X304714Y76500D01*
X304584Y77156D01*
X304212Y77712D01*
X303656Y78084D01*
X303000Y78214D01*
D02*
G37*
G36*
X267500D02*
X266844Y78084D01*
X266288Y77712D01*
X265916Y77156D01*
X265786Y76500D01*
X265916Y75844D01*
X266288Y75288D01*
X266844Y74916D01*
X267500Y74786D01*
X268156Y74916D01*
X268712Y75288D01*
X269084Y75844D01*
X269214Y76500D01*
X269084Y77156D01*
X268712Y77712D01*
X268156Y78084D01*
X267500Y78214D01*
D02*
G37*
G36*
X271500Y77214D02*
X270844Y77084D01*
X270288Y76712D01*
X269916Y76156D01*
X269786Y75500D01*
X269916Y74844D01*
X270288Y74288D01*
X270844Y73916D01*
X271500Y73786D01*
X272156Y73916D01*
X272712Y74288D01*
X273084Y74844D01*
X273214Y75500D01*
X273084Y76156D01*
X272712Y76712D01*
X272156Y77084D01*
X271500Y77214D01*
D02*
G37*
G36*
X204000Y77092D02*
X203344Y76961D01*
X202788Y76590D01*
X202416Y76034D01*
X202286Y75378D01*
X202416Y74722D01*
X202788Y74166D01*
X203344Y73794D01*
X204000Y73664D01*
X204656Y73794D01*
X205212Y74166D01*
X205584Y74722D01*
X205714Y75378D01*
X205584Y76034D01*
X205212Y76590D01*
X204656Y76961D01*
X204000Y77092D01*
D02*
G37*
G36*
X189500Y71714D02*
X188844Y71584D01*
X188288Y71212D01*
X187916Y70656D01*
X187786Y70000D01*
X187916Y69344D01*
X188288Y68788D01*
X188844Y68416D01*
X189500Y68286D01*
X190156Y68416D01*
X190712Y68788D01*
X191084Y69344D01*
X191214Y70000D01*
X191084Y70656D01*
X190712Y71212D01*
X190156Y71584D01*
X189500Y71714D01*
D02*
G37*
G36*
X324000Y70413D02*
X323459Y70305D01*
X323001Y69999D01*
X322695Y69541D01*
X322587Y69000D01*
X322695Y68459D01*
X323001Y68001D01*
X323459Y67695D01*
X324000Y67587D01*
X324541Y67695D01*
X324999Y68001D01*
X325305Y68459D01*
X325413Y69000D01*
X325305Y69541D01*
X324999Y69999D01*
X324541Y70305D01*
X324000Y70413D01*
D02*
G37*
G36*
X290500Y70714D02*
X289844Y70584D01*
X289288Y70212D01*
X288916Y69656D01*
X288786Y69000D01*
X288916Y68344D01*
X289288Y67788D01*
X289388Y67721D01*
Y67120D01*
X289260Y67035D01*
X288889Y66479D01*
X288758Y65823D01*
X288889Y65167D01*
X289260Y64611D01*
X289816Y64239D01*
X290472Y64109D01*
X291128Y64239D01*
X291684Y64611D01*
X292056Y65167D01*
X292186Y65823D01*
X292056Y66479D01*
X291684Y67035D01*
X291585Y67102D01*
Y67703D01*
X291712Y67788D01*
X292084Y68344D01*
X292214Y69000D01*
X292084Y69656D01*
X291712Y70212D01*
X291156Y70584D01*
X290500Y70714D01*
D02*
G37*
G36*
X265000Y65214D02*
X264344Y65084D01*
X263788Y64712D01*
X263416Y64156D01*
X263286Y63500D01*
X263416Y62844D01*
X263788Y62288D01*
X264344Y61916D01*
X265000Y61786D01*
X265656Y61916D01*
X266212Y62288D01*
X266584Y62844D01*
X266714Y63500D01*
X266584Y64156D01*
X266212Y64712D01*
X265656Y65084D01*
X265000Y65214D01*
D02*
G37*
G36*
X323500Y63714D02*
X322844Y63584D01*
X322288Y63212D01*
X321916Y62656D01*
X321786Y62000D01*
X321916Y61344D01*
X322288Y60788D01*
X322844Y60416D01*
X323500Y60286D01*
X324156Y60416D01*
X324712Y60788D01*
X325084Y61344D01*
X325214Y62000D01*
X325084Y62656D01*
X324712Y63212D01*
X324156Y63584D01*
X323500Y63714D01*
D02*
G37*
G36*
X290500Y62714D02*
X289844Y62584D01*
X289288Y62212D01*
X288916Y61656D01*
X288786Y61000D01*
X288916Y60344D01*
X289288Y59788D01*
X289844Y59416D01*
X290500Y59286D01*
X291156Y59416D01*
X291712Y59788D01*
X292084Y60344D01*
X292214Y61000D01*
X292084Y61656D01*
X291712Y62212D01*
X291156Y62584D01*
X290500Y62714D01*
D02*
G37*
G36*
X295500Y61214D02*
X294844Y61084D01*
X294288Y60712D01*
X293916Y60156D01*
X293786Y59500D01*
X293916Y58844D01*
X294288Y58288D01*
X294844Y57916D01*
X295500Y57786D01*
X296156Y57916D01*
X296712Y58288D01*
X297084Y58844D01*
X297214Y59500D01*
X297084Y60156D01*
X296712Y60712D01*
X296156Y61084D01*
X295500Y61214D01*
D02*
G37*
G36*
X274933Y72329D02*
X274433Y72329D01*
X269933D01*
Y67829D01*
X269933Y67392D01*
X269933Y66892D01*
Y62829D01*
X269933Y62392D01*
X269933Y61892D01*
Y57392D01*
X274433D01*
X274870Y57392D01*
X275370Y57392D01*
X279870D01*
Y61892D01*
X279870Y62329D01*
X279870Y62829D01*
Y66892D01*
X279870Y67329D01*
X279870Y67829D01*
Y72329D01*
X274933Y72329D01*
D02*
G37*
%LPD*%
D95*
X158959Y127305D02*
D03*
X152000Y160000D02*
D03*
X211000Y177216D02*
D03*
X224500Y177000D02*
D03*
X522499Y169451D02*
D03*
X519500Y169500D02*
D03*
X71300Y205807D02*
D03*
Y225807D02*
D03*
X99300Y178927D02*
D03*
X113804D02*
D03*
X131800D02*
D03*
X227800Y189307D02*
D03*
X161800Y220307D02*
D03*
X146800Y196808D02*
D03*
X147300Y220808D02*
D03*
X131300Y254807D02*
D03*
X113804D02*
D03*
X99300D02*
D03*
X371500Y138500D02*
D03*
Y127500D02*
D03*
Y116000D02*
D03*
Y105000D02*
D03*
X375500Y275000D02*
D03*
Y290500D02*
D03*
X375350Y302000D02*
D03*
X375500Y313500D02*
D03*
D100*
X525500Y172000D02*
X536500D01*
X522951Y169451D02*
X525500Y172000D01*
X522499Y169451D02*
X522951D01*
X519500Y169500D02*
X529000Y160000D01*
X529500D01*
D103*
X527500Y73000D02*
D03*
D110*
X536500Y172000D02*
D03*
X529500Y160000D02*
D03*
D115*
X-546Y164347D02*
D03*
X164000Y129500D02*
D03*
X121000Y144500D02*
D03*
X138000Y151500D02*
D03*
X80000Y124500D02*
D03*
X77500Y37500D02*
D03*
X73500Y32500D02*
D03*
X70000Y37500D02*
D03*
X57500Y327500D02*
D03*
X52500D02*
D03*
Y332500D02*
D03*
Y337500D02*
D03*
Y342500D02*
D03*
X57500D02*
D03*
Y362500D02*
D03*
X52500D02*
D03*
Y357500D02*
D03*
Y352500D02*
D03*
Y347500D02*
D03*
X57500D02*
D03*
X316500Y64500D02*
D03*
X282500Y97000D02*
D03*
X269000Y91500D02*
D03*
X257000Y90000D02*
D03*
X224500Y128500D02*
D03*
X216000Y127500D02*
D03*
X315288Y114288D02*
D03*
X282000Y152500D02*
D03*
X274500D02*
D03*
X184500Y110181D02*
D03*
X258000Y142319D02*
D03*
X192000Y75378D02*
D03*
X188500Y97500D02*
D03*
X164500Y92500D02*
D03*
X262210Y252130D02*
D03*
X233153Y290319D02*
D03*
X219710Y287937D02*
D03*
X317000Y285500D02*
D03*
X288111Y324297D02*
D03*
X274611Y321797D02*
D03*
X317111Y344475D02*
D03*
X288111Y382797D02*
D03*
X274611Y380297D02*
D03*
X232210Y351937D02*
D03*
X218710Y349437D02*
D03*
X261256Y320205D02*
D03*
X200000Y349000D02*
D03*
X148244Y62181D02*
D03*
X147869Y88000D02*
D03*
X117778Y118665D02*
D03*
X66500Y69000D02*
D03*
X408500Y45000D02*
D03*
X386000D02*
D03*
X363000Y44500D02*
D03*
X340500Y45000D02*
D03*
X317500Y44500D02*
D03*
X295000D02*
D03*
X273000D02*
D03*
X251000D02*
D03*
X66420Y98716D02*
D03*
X-12000Y128500D02*
D03*
X123000Y35500D02*
D03*
X96000Y36000D02*
D03*
M02*
