G04*
G04 #@! TF.GenerationSoftware,Altium Limited,Altium Designer,21.2.1 (34)*
G04*
G04 Layer_Color=32896*
%FSLAX25Y25*%
%MOIN*%
G70*
G04*
G04 #@! TF.SameCoordinates,D5F05BBA-8F67-4778-AA46-9882F16BB5AB*
G04*
G04*
G04 #@! TF.FilePolarity,Positive*
G04*
G01*
G75*
%ADD10C,0.00787*%
%ADD16C,0.00800*%
%ADD21C,0.01000*%
%ADD129C,0.00013*%
%ADD130C,0.00598*%
G36*
X444919Y225206D02*
X445288Y225053D01*
X445604Y224810D01*
X445604Y224810D01*
X445605Y224810D01*
X445847Y224493D01*
X446000Y224124D01*
X446035Y223856D01*
X446052Y223728D01*
X446052Y223595D01*
Y202619D01*
X446041D01*
X446087Y202389D01*
X446217Y202193D01*
X446412Y202063D01*
X446642Y202017D01*
X446645Y202018D01*
X446775Y202028D01*
X461306D01*
Y202027D01*
X461526Y201983D01*
X461713Y201858D01*
X461783Y201753D01*
X461838Y201671D01*
X461882Y201450D01*
X461838Y201230D01*
X461713Y201043D01*
X461608Y200973D01*
X461526Y200918D01*
X461306Y200874D01*
Y200872D01*
X446425D01*
X446425Y200872D01*
X446033Y200924D01*
X445664Y201077D01*
X445441Y201248D01*
X445341Y201328D01*
X445103Y201638D01*
X444950Y202007D01*
X444898Y202404D01*
X444900Y202418D01*
X444898Y202418D01*
X444898Y202418D01*
Y223384D01*
X444909Y223514D01*
X444909Y223514D01*
X444863Y223745D01*
X444732Y223941D01*
X444536Y224072D01*
X444308Y224117D01*
X444308Y224107D01*
X444308Y224107D01*
X427060D01*
X427060Y224107D01*
X427060Y224117D01*
X426832Y224072D01*
X426636Y223941D01*
X426505Y223745D01*
X426459Y223514D01*
X426470Y223514D01*
Y202537D01*
X426470Y202404D01*
X426453Y202274D01*
X426418Y202007D01*
X426265Y201638D01*
X426021Y201320D01*
X425704Y201077D01*
X425335Y200924D01*
X424941Y200872D01*
Y200872D01*
X418686D01*
X418684Y200874D01*
X418684D01*
X418466Y200918D01*
X418379Y200976D01*
X418275Y201048D01*
X418154Y201230D01*
X418133Y201337D01*
X418111Y201456D01*
X418112Y201461D01*
X418135Y201586D01*
X418154Y201682D01*
X418279Y201869D01*
X418466Y201994D01*
X418684Y202037D01*
X418684Y202037D01*
Y202037D01*
X418686Y202040D01*
X424594D01*
X424723Y202029D01*
X424726Y202029D01*
X424956Y202074D01*
X425150Y202204D01*
X425151Y202205D01*
X425281Y202400D01*
X425327Y202630D01*
X425327Y202630D01*
X425316Y202759D01*
Y223595D01*
Y223728D01*
X425333Y223858D01*
X425368Y224124D01*
X425521Y224493D01*
X425764Y224810D01*
X425764Y224810D01*
X425764Y224810D01*
X426081Y225053D01*
X426449Y225206D01*
X426845Y225258D01*
X426845Y225258D01*
X444523D01*
X444523Y225258D01*
X444919Y225206D01*
D02*
G37*
G36*
X467983D02*
X468352Y225053D01*
X468669Y224810D01*
X468669Y224810D01*
X468669Y224810D01*
X468912Y224493D01*
X469065Y224124D01*
X469117Y223729D01*
X469117Y223728D01*
Y208499D01*
X469115D01*
X469071Y208278D01*
X469016Y208196D01*
X468946Y208091D01*
X468759Y207966D01*
X468665Y207948D01*
X468538Y207923D01*
Y207923D01*
X468319Y207966D01*
X468133Y208090D01*
X468008Y208277D01*
X467965Y208496D01*
X467965Y208499D01*
X467963Y208499D01*
X467963Y208499D01*
Y223511D01*
X467974Y223522D01*
X467928Y223753D01*
X467797Y223949D01*
X467601Y224080D01*
X467370Y224126D01*
Y224115D01*
X452368D01*
X452238Y224126D01*
X452236Y224127D01*
X452235Y224128D01*
X452113Y224077D01*
X452062Y223954D01*
X452063Y223953D01*
X452103Y223855D01*
X452185Y223751D01*
X468156Y202110D01*
X468156Y202107D01*
X468156Y202107D01*
X468239Y202051D01*
X468283Y202043D01*
X468285Y202042D01*
X485004D01*
X485134Y202032D01*
X485137Y202031D01*
X485367Y202077D01*
X485561Y202207D01*
X485561D01*
X485562Y202207D01*
X485692Y202402D01*
X485738Y202632D01*
Y202632D01*
X485727Y202762D01*
Y224565D01*
X485729Y224565D01*
X485773Y224786D01*
X485897Y224973D01*
X486085Y225098D01*
X486303Y225141D01*
Y225141D01*
X486432Y225116D01*
X486523Y225098D01*
X486605Y225043D01*
X486710Y224973D01*
X486835Y224786D01*
X486879Y224565D01*
X486881D01*
Y202537D01*
Y202404D01*
X486881D01*
X486864Y202274D01*
X486829Y202007D01*
X486676Y201638D01*
X486432Y201320D01*
X486115Y201077D01*
X485745Y200924D01*
X485352Y200872D01*
Y200872D01*
X468292D01*
X468285Y200879D01*
X468285D01*
X467985Y200919D01*
X467651Y201057D01*
X467364Y201278D01*
X467244Y201434D01*
X467244D01*
X467226Y201437D01*
X450524Y224042D01*
X450524Y224043D01*
X450532Y224050D01*
X450454Y224152D01*
X450381Y224329D01*
X450356Y224519D01*
X450381Y224709D01*
X450454Y224886D01*
X450571Y225038D01*
X450723Y225154D01*
X450900Y225228D01*
X451089Y225253D01*
X451135Y225247D01*
X451137Y225258D01*
X467588D01*
X467588Y225258D01*
X467983Y225206D01*
D02*
G37*
G36*
X436990Y193754D02*
X437785Y193596D01*
X438528Y193343D01*
X438530Y193340D01*
Y193340D01*
X438530Y193340D01*
X439109Y193055D01*
X439666Y192683D01*
X440170Y192241D01*
X440406Y191971D01*
X440407Y191971D01*
X440615Y191734D01*
X441065Y191060D01*
X441424Y190333D01*
X441609Y189787D01*
Y189787D01*
X441617Y189783D01*
X441845Y188872D01*
X441996Y187854D01*
X442046Y186826D01*
X441996Y185798D01*
X441845Y184780D01*
X441617Y183869D01*
X441608Y183864D01*
X441550Y183663D01*
X441277Y183002D01*
X440931Y182376D01*
X440517Y181793D01*
X440400Y181662D01*
X440398Y181664D01*
X440145Y181375D01*
X439652Y180942D01*
X439107Y180578D01*
X438538Y180298D01*
X438527Y180302D01*
X438286Y180202D01*
X437566Y179995D01*
X436827Y179869D01*
X436079Y179827D01*
X435330Y179869D01*
X434592Y179995D01*
X433872Y180202D01*
X433631Y180302D01*
X433621Y180298D01*
X433058Y180576D01*
X432498Y180950D01*
X431992Y181394D01*
X431748Y181672D01*
X431746Y181670D01*
X431640Y181789D01*
X431230Y182367D01*
X430888Y182986D01*
X430617Y183640D01*
X430550Y183873D01*
X430550D01*
X430541Y183878D01*
X430318Y184768D01*
X430167Y185788D01*
X430116Y186817D01*
X430167Y187847D01*
X430318Y188867D01*
X430542Y189758D01*
X430548Y189762D01*
X430548D01*
X430548Y189762D01*
X430732Y190304D01*
X431093Y191034D01*
X431545Y191711D01*
X431753Y191949D01*
X431754Y191949D01*
X432004Y192234D01*
X432506Y192674D01*
X433061Y193045D01*
X433623Y193322D01*
X433634Y193318D01*
X433958Y193452D01*
X434633Y193646D01*
X435326Y193764D01*
X435974Y193800D01*
X436108Y193799D01*
X436242Y193803D01*
X436990Y193754D01*
D02*
G37*
G36*
X466544Y193797D02*
X466678Y193800D01*
X467038Y193785D01*
X467171Y193779D01*
X467505Y193762D01*
X467506Y193762D01*
X467689Y193753D01*
X467949Y193714D01*
X468081Y193697D01*
X468366Y193648D01*
X468366Y193648D01*
Y193648D01*
X468630Y193603D01*
X468760Y193570D01*
X468915Y193539D01*
X469127Y193467D01*
X469127Y193467D01*
X469345Y193393D01*
X469470Y193350D01*
X469486Y193344D01*
X469595Y193303D01*
X469786Y193209D01*
X469909Y193157D01*
X470241Y192954D01*
X470350Y192886D01*
X470452Y192804D01*
X470766Y192536D01*
X471103Y192141D01*
X471389Y191675D01*
X471488Y191435D01*
X471488D01*
X471539Y191311D01*
X471611Y191139D01*
X471604Y191126D01*
X471671Y190929D01*
X471704Y190799D01*
X471730Y190672D01*
X471819Y190226D01*
X471804Y190170D01*
X471732Y190093D01*
X470482D01*
X470461Y190304D01*
X470326Y190752D01*
X470105Y191164D01*
X469809Y191525D01*
X469478Y191796D01*
X469447Y191822D01*
X469367Y191866D01*
Y191866D01*
X469166Y191973D01*
X469169Y191980D01*
X468948Y192072D01*
Y192072D01*
X468714Y192168D01*
X468715Y192170D01*
X468691Y192180D01*
X468588Y192205D01*
X468465Y192234D01*
X468459Y192245D01*
X468306Y192275D01*
X468182Y192299D01*
X468181Y192300D01*
X468180Y192300D01*
X468058Y192324D01*
X467890Y192358D01*
X467885Y192353D01*
X467709Y192383D01*
X467608Y192401D01*
X467579Y192404D01*
Y192404D01*
X467381Y192415D01*
X467248Y192423D01*
X466663Y192452D01*
X466549Y192458D01*
X466531Y192457D01*
X466397Y192456D01*
X466318Y192461D01*
X465610Y192415D01*
X464915Y192276D01*
X464501Y192136D01*
X464499Y192141D01*
X464499Y192141D01*
X464431Y192120D01*
X464375Y192090D01*
X464000Y191890D01*
X463622Y191579D01*
X463462Y191385D01*
X463380Y191285D01*
X463182Y190962D01*
X463008Y190542D01*
X462910Y190133D01*
X462902Y190099D01*
X462894Y190000D01*
X462879Y189867D01*
X462826Y189465D01*
X462784Y188504D01*
X462782Y188458D01*
Y188458D01*
X462785Y188384D01*
X462795Y188380D01*
X462795Y188379D01*
X462800Y188377D01*
X462800Y188377D01*
X462800D01*
X464392Y188377D01*
Y188376D01*
X464402Y188376D01*
X465025Y188356D01*
X465159Y188352D01*
X465292Y188347D01*
X465753Y188330D01*
X465886Y188322D01*
X466019Y188316D01*
X466020Y188316D01*
X466441Y188266D01*
X466573Y188250D01*
X466706Y188235D01*
X467221Y188167D01*
X467222Y188166D01*
X467400Y188143D01*
X467830Y188047D01*
Y188047D01*
X467961Y188020D01*
X468400Y187910D01*
X468400Y187910D01*
Y187910D01*
X468609Y187857D01*
X468929Y187743D01*
X469057Y187703D01*
X469419Y187553D01*
X469543Y187501D01*
X470055Y187249D01*
X470174Y187169D01*
X470282Y187096D01*
X470602Y186900D01*
X471079Y186492D01*
X471487Y186015D01*
X471815Y185479D01*
X472056Y184899D01*
X472202Y184289D01*
X472249Y183691D01*
X472247Y183601D01*
X472243Y183558D01*
X472243D01*
X472243Y183424D01*
X472205Y182946D01*
X472073Y182397D01*
X471971Y182151D01*
X471920Y182029D01*
X471920D01*
X471857Y181876D01*
X471569Y181406D01*
X471211Y180987D01*
X471049Y180849D01*
X471049Y180849D01*
X470788Y180626D01*
X470265Y180306D01*
X469866Y180140D01*
X469739Y180097D01*
X469431Y179992D01*
X468791Y179865D01*
X468233Y179829D01*
X468101Y179825D01*
X467967Y179827D01*
X467149Y179868D01*
X466804Y179919D01*
X466671Y179934D01*
X466028Y180061D01*
X465640Y180193D01*
X465517Y180235D01*
X465391Y180280D01*
X464827Y180514D01*
X464310Y180800D01*
X464196Y180870D01*
X464196D01*
X463800Y181108D01*
X463060Y181657D01*
X463010Y181702D01*
X462918Y181785D01*
X462805Y181888D01*
X462787Y181879D01*
X462784Y181874D01*
X462784Y181726D01*
Y181602D01*
Y180163D01*
X461405D01*
Y188850D01*
X461405Y188850D01*
X461411Y188850D01*
X461406Y188935D01*
X461451Y189738D01*
X461586Y190532D01*
X461696Y190913D01*
X461692Y190914D01*
X461722Y191041D01*
X461951Y191592D01*
X462263Y192102D01*
X462580Y192473D01*
X462674Y192566D01*
X463067Y192901D01*
X463598Y193227D01*
X464158Y193459D01*
X464169Y193454D01*
X464762Y193625D01*
X465563Y193761D01*
X466373Y193807D01*
X466544Y193797D01*
D02*
G37*
G36*
X426760Y180163D02*
X425380D01*
Y189879D01*
X425378Y189883D01*
X425383Y189887D01*
X424817Y190511D01*
X424078Y191181D01*
X423370Y191706D01*
X423277Y191775D01*
X423261Y191784D01*
X423256Y191777D01*
X422861Y192019D01*
X422278Y192261D01*
X421664Y192408D01*
X421060Y192456D01*
Y192456D01*
X420944Y192460D01*
X420927Y192459D01*
X420266Y192407D01*
X419720Y192276D01*
X419605Y192248D01*
X419590Y192242D01*
X419465Y192193D01*
X419455Y192190D01*
X419063Y191980D01*
X418719Y191698D01*
X418620Y191576D01*
X418620Y191576D01*
X418536Y191473D01*
X418465Y191386D01*
X418214Y190918D01*
X418075Y190459D01*
X418075Y190459D01*
X417951Y189730D01*
X417909Y188983D01*
X417907Y188947D01*
X417913Y188850D01*
X417918Y188718D01*
Y180163D01*
X416539D01*
Y188970D01*
X416539Y188970D01*
X416541Y188970D01*
X416540Y188993D01*
X416577Y189756D01*
X416588Y189889D01*
X416588D01*
X416597Y190035D01*
X416689Y190578D01*
X416716Y190709D01*
X416773Y190996D01*
X416922Y191434D01*
X416965Y191560D01*
X417111Y191912D01*
X417385Y192359D01*
X417725Y192757D01*
X418123Y193097D01*
X418564Y193368D01*
X418565Y193367D01*
X418565Y193367D01*
Y193367D01*
X419058Y193571D01*
X419186Y193604D01*
X419314Y193641D01*
X419912Y193760D01*
X420539Y193801D01*
X420652Y193802D01*
X420672Y193800D01*
Y193800D01*
X420804Y193795D01*
X421369Y193763D01*
X421698Y193707D01*
X421829Y193684D01*
X422201Y193610D01*
X422715Y193436D01*
X422840Y193391D01*
X422959Y193335D01*
X423505Y193066D01*
X424066Y192691D01*
X424067Y192685D01*
X424247Y192557D01*
X424951Y191928D01*
X425156Y191698D01*
X425238Y191606D01*
X425350Y191481D01*
X425364Y191486D01*
X425365Y191486D01*
X425370Y191488D01*
X425372Y191493D01*
X425372Y191657D01*
Y191657D01*
X425372Y191781D01*
X425380Y198961D01*
X426760D01*
Y180163D01*
D02*
G37*
G36*
X406864Y193797D02*
Y193797D01*
X406998Y193794D01*
X407539Y193764D01*
X407804Y193719D01*
X407814Y193725D01*
X408407Y193583D01*
X408840Y193403D01*
X408840D01*
X408840Y193404D01*
X409349Y193152D01*
X409993Y192722D01*
X409995Y192708D01*
Y192708D01*
X410234Y192531D01*
X410882Y191943D01*
X411105Y191698D01*
X411188Y191606D01*
X411188D01*
X411301Y191481D01*
X411314Y191486D01*
X411315Y191486D01*
X411315Y191486D01*
X411320Y191488D01*
X411320Y191488D01*
X411322Y191493D01*
Y191658D01*
X411322Y191781D01*
Y193463D01*
X412702D01*
Y180163D01*
X411322D01*
Y189845D01*
Y189845D01*
X411320Y189850D01*
X411322Y189851D01*
X411177Y190047D01*
X410534Y190756D01*
X409826Y191398D01*
X409328Y191767D01*
X409333Y191774D01*
X408867Y192060D01*
X408339Y192278D01*
X407783Y192412D01*
X407244Y192454D01*
Y192454D01*
X407145Y192457D01*
X407110Y192454D01*
X406623Y192416D01*
X406114Y192294D01*
X406108Y192291D01*
X405985Y192242D01*
X405925Y192224D01*
X405863Y192190D01*
X405606Y192053D01*
X405327Y191824D01*
X405145Y191602D01*
X405138Y191606D01*
X405138Y191606D01*
X405123Y191588D01*
X405070Y191490D01*
X404866Y191108D01*
X404716Y190615D01*
X404708Y190586D01*
X404698Y190483D01*
X404700Y190483D01*
X404606Y189846D01*
X404563Y188982D01*
X404563Y188968D01*
X404568Y188850D01*
X404574Y188717D01*
Y180158D01*
X403194D01*
Y189840D01*
X403192Y189844D01*
X403193Y189845D01*
X403026Y190070D01*
X402449Y190707D01*
X401812Y191284D01*
X401160Y191768D01*
X401157Y191764D01*
X400738Y192022D01*
X400165Y192259D01*
X399562Y192403D01*
X399120Y192438D01*
X398993Y192450D01*
Y192450D01*
X398989Y192450D01*
X398838Y192440D01*
X398704Y192432D01*
X398431Y192411D01*
Y192411D01*
X398320Y192401D01*
X398299Y192396D01*
X398176Y192366D01*
X398176Y192366D01*
X397937Y192309D01*
X397937Y192306D01*
X397812Y192268D01*
X397713Y192238D01*
X397677Y192226D01*
X397513Y192138D01*
X397513D01*
X397511Y192137D01*
X397511Y192137D01*
X397396Y192075D01*
X397323Y192036D01*
Y192036D01*
X397316Y192030D01*
X397226Y191957D01*
X397223Y191954D01*
X397219Y191952D01*
X397056Y191818D01*
X396880Y191602D01*
X396878Y191603D01*
X396878Y191603D01*
X396842Y191559D01*
X396768Y191422D01*
X396768Y191422D01*
X396768D01*
X396662Y191223D01*
X396666Y191221D01*
X396574Y191000D01*
X396573Y191000D01*
X396531Y190898D01*
X396528Y190886D01*
X396528Y190886D01*
X396526Y190877D01*
X396494Y190758D01*
X396476Y190704D01*
X396459Y190622D01*
X396433Y190492D01*
X396376Y190207D01*
X396376D01*
X396358Y190074D01*
X396350Y190029D01*
X396326Y189900D01*
X396315Y189704D01*
X396307Y189571D01*
X396278Y188982D01*
X396272Y188870D01*
X396273Y188850D01*
X396284Y188721D01*
Y180163D01*
X394999D01*
X394905Y180258D01*
X394921Y188970D01*
X394922Y188970D01*
X394921Y188999D01*
X394958Y189756D01*
X394968Y189889D01*
X394981Y190127D01*
X395058Y190579D01*
X395081Y190710D01*
X395108Y190840D01*
X395167Y191141D01*
X395267Y191434D01*
X395267Y191434D01*
X395267Y191434D01*
X395376Y191757D01*
X395526Y192061D01*
X395584Y192181D01*
X395789Y192516D01*
X396097Y192876D01*
X396458Y193184D01*
X396747Y193361D01*
X396747D01*
X396862Y193429D01*
X397179Y193560D01*
X397301Y193609D01*
X397425Y193639D01*
X397903Y193754D01*
X398506Y193801D01*
X398637Y193802D01*
X398639Y193802D01*
Y193802D01*
X398770Y193795D01*
X399342Y193763D01*
X399811Y193683D01*
X399812Y193682D01*
X400190Y193607D01*
X400835Y193388D01*
X401013Y193300D01*
X401012Y193299D01*
X401429Y193094D01*
X402047Y192680D01*
X402189Y192557D01*
X402188Y192555D01*
X402601Y192193D01*
X403136Y191583D01*
X403283Y191363D01*
X403313Y191369D01*
X403335Y191458D01*
X403347Y191490D01*
X403352Y191501D01*
X403539Y191952D01*
X403816Y192404D01*
X404161Y192808D01*
X404532Y193125D01*
X404644Y193197D01*
X404758Y193266D01*
X404937Y193376D01*
X405511Y193614D01*
X406115Y193759D01*
X406734Y193807D01*
X406864Y193797D01*
D02*
G37*
G36*
X457676Y197599D02*
X446006D01*
X446004Y197598D01*
X446002Y197597D01*
X446002Y197597D01*
X446001Y197597D01*
X446001Y197596D01*
X446000Y197594D01*
X445999Y197592D01*
X445999Y197592D01*
X445999Y197591D01*
X446000Y197589D01*
X446001Y197587D01*
X446101Y197465D01*
X446179Y197369D01*
X458803Y181974D01*
Y180163D01*
X444229D01*
Y181524D01*
X457123D01*
X457247Y181524D01*
X457405D01*
X457407Y181525D01*
X457409Y181525D01*
X457409Y181525D01*
X457409Y181526D01*
X457410Y181526D01*
X457411Y181528D01*
X457412Y181530D01*
X457412Y181530D01*
X457412Y181530D01*
X457412Y181531D01*
X457411Y181533D01*
X457410Y181535D01*
X457310Y181657D01*
Y181657D01*
X457231Y181753D01*
X444586Y197131D01*
Y198961D01*
X457676D01*
Y197599D01*
D02*
G37*
G36*
X487302Y193470D02*
X487304Y193465D01*
X487309Y193463D01*
X489016D01*
Y192103D01*
X487309D01*
X487304Y192101D01*
X487302Y192096D01*
Y183954D01*
X487302Y183954D01*
X487296Y183954D01*
X487301Y183831D01*
X487254Y182640D01*
X487204Y182210D01*
X487203Y182210D01*
X487186Y181992D01*
X487068Y181502D01*
X486898Y181091D01*
X486832Y180974D01*
X486832D01*
X486772Y180862D01*
X486555Y180598D01*
X486292Y180382D01*
X486013Y180233D01*
X486005Y180236D01*
X485782Y180144D01*
X485250Y180016D01*
X484705Y179973D01*
X484566Y179984D01*
X484438Y179974D01*
X484389Y179975D01*
X484330Y179976D01*
X484330D01*
X484287Y179977D01*
X484154Y179992D01*
X484154Y179992D01*
X483978Y180003D01*
X483844Y180001D01*
X483801Y180004D01*
X483683Y180014D01*
X483566Y180025D01*
X483396Y180043D01*
X483393Y181222D01*
X483445Y181288D01*
X483517Y181339D01*
X483522Y181339D01*
X483581Y181338D01*
X483581Y181338D01*
X483611Y181337D01*
X483612Y181337D01*
X483641Y181337D01*
X483698Y181337D01*
X483896D01*
X484027Y181329D01*
X484073Y181325D01*
X484161Y181332D01*
X484659Y181372D01*
X484706Y181383D01*
X484835Y181413D01*
X484902Y181422D01*
X484962Y181446D01*
X485169Y181532D01*
X485343Y181666D01*
X485398Y181708D01*
X485437Y181759D01*
X485435Y181760D01*
X485435Y181761D01*
X485435Y181761D01*
X485435Y181761D01*
X485552Y181903D01*
X485710Y182199D01*
X485807Y182518D01*
X485799Y182519D01*
X485887Y182959D01*
X485935Y183702D01*
X485926Y183837D01*
X485926Y183837D01*
X485926D01*
X485922Y183841D01*
Y192098D01*
X485920Y192104D01*
X485915Y192106D01*
X483722D01*
Y193466D01*
X485915D01*
X485920Y193468D01*
X485922Y193473D01*
Y196954D01*
X487302D01*
Y193470D01*
D02*
G37*
G36*
X512971Y188041D02*
X512970Y187861D01*
X512965Y187855D01*
X512948Y187291D01*
X512947D01*
X512944Y187157D01*
X512931Y186718D01*
X512931Y186718D01*
X512931D01*
X512939Y186709D01*
X512910Y186147D01*
X512897Y186135D01*
X512879Y185775D01*
X512739Y184828D01*
X512594Y184249D01*
X512594Y184249D01*
X512594D01*
X512594Y184248D01*
X512445Y183731D01*
X512145Y183004D01*
X511885Y182536D01*
X511885D01*
Y182536D01*
X511888Y182526D01*
X511564Y182043D01*
X511158Y181579D01*
X510737Y181210D01*
X510629Y181131D01*
X510629D01*
X510519Y181058D01*
X510108Y180783D01*
X509386Y180427D01*
X508645Y180175D01*
X508632Y180183D01*
X507979Y180019D01*
X506966Y179869D01*
X505943Y179819D01*
X505737Y179829D01*
X505736Y179832D01*
X505447Y179817D01*
X504495Y179864D01*
X503553Y180004D01*
X502628Y180235D01*
X502197Y180390D01*
X502196Y180388D01*
X502008Y180452D01*
X501412Y180746D01*
X500859Y181115D01*
X500360Y181553D01*
X499979Y181988D01*
X499980Y181993D01*
X499980Y181993D01*
X499980D01*
X499686Y182407D01*
X499343Y183028D01*
X499072Y183683D01*
X498875Y184364D01*
X498840Y184573D01*
X498841Y184574D01*
X498702Y185274D01*
X498550Y186560D01*
X498499Y187853D01*
X498506Y188039D01*
X498500Y188039D01*
X498500Y188039D01*
Y198961D01*
X499880D01*
Y188096D01*
X499878Y188095D01*
Y188095D01*
X499863Y187754D01*
X499913Y186610D01*
X500063Y185475D01*
X500256Y184604D01*
X500255Y184603D01*
X500274Y184508D01*
X500285Y184474D01*
X500481Y183898D01*
X500766Y183320D01*
X501124Y182784D01*
X501290Y182595D01*
X501376Y182496D01*
X501376Y182496D01*
X501376Y182496D01*
X501371Y182491D01*
X501406Y182450D01*
X501467Y182398D01*
X501857Y182065D01*
X502362Y181755D01*
X502910Y181528D01*
X503217Y181455D01*
X503217Y181455D01*
X503217Y181453D01*
X503569Y181365D01*
X504594Y181213D01*
X505595Y181164D01*
X505629Y181162D01*
X505728Y181167D01*
X505836Y181163D01*
X506842Y181212D01*
X507839Y181360D01*
X508214Y181454D01*
X508344Y181486D01*
X508503Y181524D01*
X509072Y181760D01*
X509597Y182081D01*
X510063Y182480D01*
X510057Y182487D01*
X510358Y182830D01*
X510708Y183355D01*
X510988Y183921D01*
X511172Y184465D01*
X511190Y184518D01*
X511205Y184595D01*
X511205Y184595D01*
X511410Y185519D01*
X511558Y186639D01*
X511607Y187767D01*
X511593Y188095D01*
X511593Y188095D01*
X511593D01*
X511591Y188096D01*
Y198961D01*
X512971D01*
Y188041D01*
D02*
G37*
G36*
X493645Y180163D02*
X492265D01*
Y198961D01*
X493645D01*
Y180163D01*
D02*
G37*
G36*
X474776Y193803D02*
X474776D01*
X475539Y193753D01*
X475691Y193723D01*
X475696Y193727D01*
X476307Y193580D01*
X476734Y193403D01*
X476734Y193403D01*
X477216Y193165D01*
X477740Y192815D01*
X477847Y192735D01*
X477986Y192636D01*
X478585Y192101D01*
X478816Y191842D01*
X478898Y191750D01*
X479013Y191622D01*
X479025Y191625D01*
X479025Y191625D01*
X479030Y191628D01*
X479032Y191633D01*
Y191636D01*
X479033Y191640D01*
X479032Y191641D01*
Y191801D01*
X479032Y191925D01*
Y193463D01*
X480412D01*
Y180163D01*
X479032D01*
Y189692D01*
X479031Y189696D01*
X479036Y189698D01*
X478985Y189790D01*
X478968Y189813D01*
X478545Y190410D01*
X478375Y190601D01*
X478286Y190700D01*
X478286Y190701D01*
X478285Y190701D01*
X478197Y190800D01*
X478000Y191021D01*
X477449Y191513D01*
X477356Y191584D01*
X477335Y191602D01*
X477247Y191661D01*
X476794Y191963D01*
X476295Y192210D01*
X476293Y192205D01*
X476029Y192315D01*
X475595Y192419D01*
X475274Y192444D01*
X475148Y192454D01*
X475144Y192454D01*
X475013Y192446D01*
X474769D01*
X474639Y192455D01*
X474624Y192457D01*
X474506Y192445D01*
X474331Y192428D01*
X474232Y192518D01*
X474245Y193781D01*
X474517Y193806D01*
X474773D01*
X474776Y193803D01*
D02*
G37*
G36*
X437540Y323065D02*
X437580D01*
X437590Y323060D01*
X437595D01*
X437620Y323055D01*
X437625Y323050D01*
X437630D01*
X437650Y323045D01*
X437655Y323040D01*
X438370Y322580D01*
X438395Y322560D01*
X438400Y322555D01*
X438405Y322550D01*
X438420Y322525D01*
X438425Y322520D01*
Y322515D01*
X438430Y322485D01*
X438435Y322470D01*
Y322465D01*
Y322445D01*
Y322425D01*
Y322405D01*
Y322400D01*
Y322360D01*
X438430Y322330D01*
Y322310D01*
Y322305D01*
X438425Y322285D01*
X438420Y322265D01*
X438410Y322260D01*
Y322255D01*
X438395Y322245D01*
X438365D01*
X438340Y322250D01*
X438315Y322260D01*
X438295Y322270D01*
X438290Y322275D01*
X437690Y322635D01*
Y320275D01*
X438355D01*
X438365Y320270D01*
X438370Y320265D01*
X438375Y320260D01*
X438395Y320240D01*
X438400Y320235D01*
X438405Y320230D01*
X438415Y320200D01*
X438420Y320185D01*
Y320180D01*
X438425Y320155D01*
Y320130D01*
Y320115D01*
Y320105D01*
Y320075D01*
X438420Y320050D01*
Y320035D01*
Y320030D01*
X438415Y320010D01*
X438410Y319995D01*
X438400Y319985D01*
Y319980D01*
X438380Y319960D01*
X438375Y319950D01*
X438350Y319945D01*
X436715D01*
X436690Y319950D01*
X436680D01*
X436660Y319970D01*
X436655Y319975D01*
Y319980D01*
X436640Y320015D01*
X436635Y320025D01*
Y320030D01*
X436630Y320055D01*
X436625Y320080D01*
Y320100D01*
Y320105D01*
Y320135D01*
X436630Y320160D01*
X436635Y320175D01*
Y320180D01*
X436640Y320200D01*
X436645Y320215D01*
X436650Y320225D01*
Y320230D01*
X436670Y320255D01*
X436675Y320260D01*
X436680D01*
X436690Y320270D01*
X436705Y320275D01*
X437275D01*
Y323000D01*
X437280Y323020D01*
X437285Y323025D01*
X437290Y323035D01*
X437300Y323045D01*
X437310Y323050D01*
X437315D01*
X437335Y323055D01*
X437350Y323060D01*
X437370Y323065D01*
X437375D01*
X437405Y323070D01*
X437525D01*
X437540Y323065D01*
D02*
G37*
G36*
X440860Y323045D02*
X440895Y323030D01*
X440920Y323010D01*
X440930Y323005D01*
X440945Y322990D01*
X440960Y322965D01*
X440975Y322925D01*
Y322900D01*
X440980Y322885D01*
Y322875D01*
Y322870D01*
Y320005D01*
X440975Y319980D01*
Y319975D01*
Y319970D01*
X440965Y319960D01*
X440955Y319955D01*
X440945Y319950D01*
X440940D01*
X440920Y319945D01*
X440900D01*
X440880Y319940D01*
X440875D01*
X440840Y319935D01*
X440810Y319930D01*
X440735D01*
X440700Y319935D01*
X440680Y319940D01*
X440675D01*
X440650Y319945D01*
X440630D01*
X440620Y319950D01*
X440615D01*
X440600Y319955D01*
X440590Y319960D01*
X440580Y319970D01*
X440570Y319980D01*
X440565Y319995D01*
Y320000D01*
Y320005D01*
Y321125D01*
X440215D01*
X440110Y321130D01*
X440015Y321135D01*
X439930Y321145D01*
X439860Y321160D01*
X439800Y321175D01*
X439755Y321185D01*
X439730Y321190D01*
X439720Y321195D01*
X439645Y321225D01*
X439575Y321255D01*
X439515Y321290D01*
X439465Y321320D01*
X439425Y321350D01*
X439395Y321375D01*
X439375Y321390D01*
X439370Y321395D01*
X439320Y321450D01*
X439275Y321500D01*
X439235Y321555D01*
X439205Y321605D01*
X439180Y321650D01*
X439165Y321685D01*
X439155Y321705D01*
X439150Y321715D01*
X439125Y321790D01*
X439105Y321860D01*
X439090Y321935D01*
X439080Y322000D01*
X439075Y322055D01*
X439070Y322100D01*
Y322130D01*
Y322135D01*
Y322140D01*
Y322205D01*
X439080Y322265D01*
X439085Y322320D01*
X439095Y322365D01*
X439105Y322405D01*
X439110Y322435D01*
X439120Y322455D01*
Y322460D01*
X439140Y322515D01*
X439165Y322560D01*
X439190Y322605D01*
X439210Y322640D01*
X439230Y322675D01*
X439250Y322695D01*
X439260Y322710D01*
X439265Y322715D01*
X439335Y322790D01*
X439375Y322820D01*
X439410Y322850D01*
X439440Y322870D01*
X439465Y322885D01*
X439480Y322895D01*
X439485Y322900D01*
X439580Y322945D01*
X439625Y322965D01*
X439665Y322980D01*
X439695Y322990D01*
X439720Y322995D01*
X439740Y323000D01*
X439745D01*
X439830Y323020D01*
X439870Y323025D01*
X439900Y323030D01*
X439930Y323035D01*
X439950Y323040D01*
X439965D01*
X440030Y323045D01*
X440095Y323050D01*
X440820D01*
X440860Y323045D01*
D02*
G37*
G36*
X434895Y323060D02*
X434905D01*
X434940Y323055D01*
X434970Y323050D01*
X434990Y323045D01*
X434995D01*
X435020Y323035D01*
X435040Y323030D01*
X435050Y323025D01*
X435055Y323020D01*
X435070Y323010D01*
X435080Y323000D01*
X435090Y322995D01*
Y322990D01*
X436200Y321100D01*
X436210Y321075D01*
X436220Y321055D01*
X436225Y321040D01*
X436230Y321035D01*
X436245Y321000D01*
X436250Y320985D01*
Y320980D01*
X436255Y320955D01*
Y320935D01*
Y320920D01*
Y320915D01*
Y320890D01*
Y320860D01*
Y320845D01*
Y320835D01*
Y320795D01*
X436250Y320765D01*
Y320745D01*
Y320740D01*
X436245Y320715D01*
X436240Y320700D01*
X436230Y320690D01*
Y320685D01*
X436220Y320675D01*
X436205Y320665D01*
X436200Y320660D01*
X436195D01*
X436165Y320655D01*
X434875D01*
Y320000D01*
X434870Y319980D01*
Y319975D01*
Y319970D01*
X434850Y319950D01*
X434845Y319945D01*
X434840D01*
X434820Y319940D01*
X434800D01*
X434780Y319935D01*
X434775D01*
X434740Y319930D01*
X434630D01*
X434600Y319935D01*
X434570D01*
X434545Y319940D01*
X434520D01*
X434510Y319945D01*
X434505D01*
X434490Y319955D01*
X434480Y319960D01*
X434470Y319970D01*
X434460Y319990D01*
Y320000D01*
Y320655D01*
X434110D01*
X434085Y320660D01*
X434060Y320680D01*
X434050Y320695D01*
X434045Y320700D01*
X434030Y320740D01*
X434025Y320780D01*
X434020Y320810D01*
Y320820D01*
Y320825D01*
X434025Y320880D01*
X434030Y320920D01*
X434040Y320945D01*
X434045Y320950D01*
X434065Y320975D01*
X434085Y320990D01*
X434105Y320995D01*
X434460D01*
Y322980D01*
X434465Y322995D01*
X434470Y323005D01*
X434475Y323015D01*
X434480D01*
X434500Y323025D01*
X434515Y323035D01*
X434535Y323040D01*
X434540D01*
X434570Y323045D01*
X434600Y323050D01*
X434625Y323055D01*
X434635D01*
X434680Y323060D01*
X434725Y323065D01*
X434870D01*
X434895Y323060D01*
D02*
G37*
G36*
X435222Y112092D02*
X435273Y112088D01*
X435318Y112083D01*
X435353Y112077D01*
X435378Y112073D01*
X435397Y112067D01*
X435402D01*
X435493Y112042D01*
X435533Y112032D01*
X435568Y112018D01*
X435598Y112007D01*
X435617Y112003D01*
X435633Y111993D01*
X435638D01*
X435708Y111962D01*
X435757Y111937D01*
X435778Y111923D01*
X435792Y111917D01*
X435803Y111907D01*
X435808D01*
X435852Y111882D01*
X435883Y111863D01*
X435897Y111847D01*
X435903Y111843D01*
X435922Y111818D01*
X435932Y111808D01*
Y111802D01*
X435948Y111777D01*
X435953Y111773D01*
Y111767D01*
X435957Y111738D01*
Y111723D01*
Y111717D01*
Y111678D01*
Y111662D01*
Y111658D01*
Y111623D01*
Y111592D01*
Y111573D01*
Y111567D01*
X435953Y111548D01*
Y111532D01*
X435948Y111522D01*
Y111518D01*
X435932Y111503D01*
X435922Y111497D01*
X435903Y111493D01*
X435892D01*
X435868Y111497D01*
X435843Y111512D01*
X435817Y111528D01*
X435808Y111532D01*
X435757Y111563D01*
X435708Y111592D01*
X435687Y111602D01*
X435673Y111612D01*
X435663Y111623D01*
X435658D01*
X435588Y111658D01*
X435523Y111688D01*
X435493Y111697D01*
X435472Y111707D01*
X435458Y111713D01*
X435453D01*
X435362Y111738D01*
X435318Y111748D01*
X435278Y111752D01*
X435243Y111758D01*
X435192D01*
X435108Y111752D01*
X435068Y111748D01*
X435038Y111738D01*
X435007Y111732D01*
X434987Y111723D01*
X434977Y111717D01*
X434972D01*
X434907Y111688D01*
X434853Y111653D01*
X434837Y111643D01*
X434823Y111627D01*
X434818Y111623D01*
X434812Y111618D01*
X434772Y111567D01*
X434742Y111518D01*
X434732Y111493D01*
X434723Y111477D01*
X434718Y111468D01*
Y111462D01*
X434697Y111398D01*
X434688Y111343D01*
X434683Y111318D01*
Y111298D01*
Y111287D01*
Y111283D01*
X434692Y111188D01*
X434697Y111147D01*
X434707Y111112D01*
X434718Y111082D01*
X434723Y111063D01*
X434732Y111047D01*
Y111042D01*
X434772Y110968D01*
X434818Y110913D01*
X434837Y110888D01*
X434853Y110872D01*
X434863Y110863D01*
X434867Y110857D01*
X434937Y110808D01*
X435007Y110773D01*
X435038Y110758D01*
X435063Y110752D01*
X435077Y110742D01*
X435082D01*
X435178Y110717D01*
X435227Y110713D01*
X435267Y110707D01*
X435308Y110703D01*
X435633D01*
X435663Y110697D01*
X435668Y110693D01*
X435673D01*
X435693Y110672D01*
X435698Y110668D01*
X435703Y110662D01*
X435712Y110647D01*
X435717Y110633D01*
X435722Y110623D01*
Y110617D01*
X435728Y110592D01*
Y110567D01*
Y110553D01*
Y110543D01*
Y110508D01*
X435722Y110483D01*
Y110468D01*
Y110462D01*
X435712Y110442D01*
X435708Y110427D01*
X435703Y110417D01*
Y110413D01*
X435677Y110392D01*
X435673Y110382D01*
X435668D01*
X435638Y110378D01*
X435253D01*
X435187Y110372D01*
X435133Y110363D01*
X435082Y110357D01*
X435038Y110347D01*
X435007Y110337D01*
X434987Y110333D01*
X434982D01*
X434928Y110318D01*
X434877Y110298D01*
X434837Y110277D01*
X434802Y110257D01*
X434772Y110242D01*
X434753Y110228D01*
X434737Y110217D01*
X434732Y110213D01*
X434662Y110152D01*
X434613Y110092D01*
X434597Y110067D01*
X434583Y110053D01*
X434573Y110038D01*
Y110032D01*
X434552Y109993D01*
X434543Y109952D01*
X434522Y109878D01*
Y109843D01*
X434517Y109818D01*
Y109802D01*
Y109798D01*
X434522Y109713D01*
X434532Y109672D01*
X434538Y109643D01*
X434548Y109613D01*
X434557Y109592D01*
X434562Y109578D01*
Y109573D01*
X434597Y109502D01*
X434637Y109448D01*
X434657Y109427D01*
X434672Y109413D01*
X434683Y109403D01*
X434688Y109397D01*
X434758Y109347D01*
X434823Y109312D01*
X434853Y109298D01*
X434877Y109292D01*
X434893Y109283D01*
X434898D01*
X434993Y109257D01*
X435042Y109253D01*
X435082Y109248D01*
X435122Y109242D01*
X435243D01*
X435297Y109248D01*
X435353Y109253D01*
X435397Y109263D01*
X435432Y109267D01*
X435463Y109273D01*
X435483Y109277D01*
X435488D01*
X435582Y109308D01*
X435623Y109323D01*
X435658Y109333D01*
X435687Y109343D01*
X435708Y109353D01*
X435722Y109358D01*
X435728D01*
X435798Y109388D01*
X435848Y109417D01*
X435868Y109427D01*
X435883Y109438D01*
X435887Y109442D01*
X435892D01*
X435932Y109467D01*
X435957Y109477D01*
X435972Y109483D01*
X435978D01*
X435997Y109477D01*
X436018Y109467D01*
X436023Y109452D01*
X436027Y109448D01*
X436037Y109413D01*
X436042Y109372D01*
Y109343D01*
Y109333D01*
Y109327D01*
Y109292D01*
Y109267D01*
Y109248D01*
Y109242D01*
X436037Y109218D01*
Y109197D01*
X436032Y109187D01*
Y109183D01*
X436018Y109158D01*
X436013Y109148D01*
Y109142D01*
X435997Y109117D01*
X435988Y109113D01*
Y109107D01*
X435962Y109092D01*
X435932Y109072D01*
X435908Y109057D01*
X435903Y109053D01*
X435897D01*
X435843Y109028D01*
X435782Y109002D01*
X435757Y108997D01*
X435738Y108987D01*
X435728Y108983D01*
X435722D01*
X435642Y108963D01*
X435563Y108942D01*
X435533Y108938D01*
X435507Y108932D01*
X435488Y108928D01*
X435483D01*
X435383Y108913D01*
X435332Y108907D01*
X435288D01*
X435248Y108903D01*
X435192D01*
X435098Y108907D01*
X435012Y108913D01*
X434933Y108923D01*
X434863Y108938D01*
X434807Y108948D01*
X434767Y108958D01*
X434742Y108963D01*
X434732Y108967D01*
X434657Y108993D01*
X434592Y109022D01*
X434532Y109053D01*
X434482Y109082D01*
X434443Y109113D01*
X434412Y109133D01*
X434392Y109148D01*
X434387Y109152D01*
X434338Y109203D01*
X434293Y109253D01*
X434258Y109302D01*
X434228Y109347D01*
X434202Y109388D01*
X434188Y109417D01*
X434177Y109442D01*
X434172Y109448D01*
X434148Y109512D01*
X434128Y109582D01*
X434118Y109648D01*
X434107Y109707D01*
X434102Y109757D01*
X434097Y109798D01*
Y109822D01*
Y109833D01*
Y109888D01*
X434107Y109938D01*
X434113Y109987D01*
X434123Y110028D01*
X434132Y110063D01*
X434142Y110088D01*
X434148Y110102D01*
X434153Y110108D01*
X434198Y110197D01*
X434223Y110238D01*
X434247Y110267D01*
X434268Y110298D01*
X434288Y110318D01*
X434298Y110327D01*
X434303Y110333D01*
X434377Y110398D01*
X434452Y110448D01*
X434482Y110468D01*
X434508Y110483D01*
X434527Y110487D01*
X434532Y110493D01*
X434637Y110532D01*
X434688Y110547D01*
X434732Y110557D01*
X434767Y110563D01*
X434802Y110567D01*
X434823Y110573D01*
X434828D01*
Y110577D01*
X434727Y110602D01*
X434688Y110617D01*
X434653Y110633D01*
X434622Y110647D01*
X434602Y110662D01*
X434587Y110668D01*
X434583Y110672D01*
X434508Y110728D01*
X434478Y110758D01*
X434447Y110783D01*
X434427Y110802D01*
X434412Y110822D01*
X434403Y110833D01*
X434398Y110837D01*
X434347Y110917D01*
X434312Y110987D01*
X434298Y111018D01*
X434288Y111042D01*
X434282Y111057D01*
Y111063D01*
X434258Y111158D01*
X434253Y111203D01*
X434247Y111242D01*
X434242Y111283D01*
Y111308D01*
Y111328D01*
Y111332D01*
Y111392D01*
X434253Y111452D01*
X434258Y111507D01*
X434268Y111553D01*
X434277Y111588D01*
X434288Y111618D01*
X434293Y111637D01*
X434298Y111643D01*
X434323Y111693D01*
X434347Y111738D01*
X434373Y111783D01*
X434403Y111818D01*
X434422Y111843D01*
X434443Y111863D01*
X434457Y111878D01*
X434462Y111882D01*
X434508Y111917D01*
X434552Y111948D01*
X434597Y111978D01*
X434643Y111997D01*
X434678Y112013D01*
X434707Y112028D01*
X434732Y112038D01*
X434737D01*
X434797Y112057D01*
X434863Y112073D01*
X434928Y112083D01*
X434982Y112092D01*
X435038D01*
X435077Y112098D01*
X435112D01*
X435222Y112092D01*
D02*
G37*
G36*
X437463Y112067D02*
X437502D01*
X437512Y112063D01*
X437517D01*
X437542Y112057D01*
X437547Y112053D01*
X437552D01*
X437572Y112048D01*
X437577Y112042D01*
X438293Y111583D01*
X438317Y111563D01*
X438322Y111557D01*
X438328Y111553D01*
X438343Y111528D01*
X438347Y111522D01*
Y111518D01*
X438352Y111487D01*
X438357Y111472D01*
Y111468D01*
Y111448D01*
Y111427D01*
Y111407D01*
Y111402D01*
Y111363D01*
X438352Y111332D01*
Y111312D01*
Y111308D01*
X438347Y111287D01*
X438343Y111267D01*
X438333Y111263D01*
Y111258D01*
X438317Y111248D01*
X438287D01*
X438263Y111252D01*
X438237Y111263D01*
X438217Y111273D01*
X438212Y111277D01*
X437612Y111637D01*
Y109277D01*
X438277D01*
X438287Y109273D01*
X438293Y109267D01*
X438298Y109263D01*
X438317Y109242D01*
X438322Y109238D01*
X438328Y109232D01*
X438338Y109203D01*
X438343Y109187D01*
Y109183D01*
X438347Y109158D01*
Y109133D01*
Y109117D01*
Y109107D01*
Y109078D01*
X438343Y109053D01*
Y109037D01*
Y109032D01*
X438338Y109012D01*
X438333Y108997D01*
X438322Y108987D01*
Y108983D01*
X438303Y108963D01*
X438298Y108952D01*
X438272Y108948D01*
X436637D01*
X436613Y108952D01*
X436602D01*
X436583Y108973D01*
X436578Y108977D01*
Y108983D01*
X436562Y109018D01*
X436557Y109028D01*
Y109032D01*
X436552Y109057D01*
X436548Y109082D01*
Y109102D01*
Y109107D01*
Y109137D01*
X436552Y109162D01*
X436557Y109177D01*
Y109183D01*
X436562Y109203D01*
X436567Y109218D01*
X436573Y109228D01*
Y109232D01*
X436592Y109257D01*
X436597Y109263D01*
X436602D01*
X436613Y109273D01*
X436627Y109277D01*
X437197D01*
Y112003D01*
X437203Y112022D01*
X437208Y112028D01*
X437213Y112038D01*
X437222Y112048D01*
X437232Y112053D01*
X437238D01*
X437257Y112057D01*
X437273Y112063D01*
X437292Y112067D01*
X437297D01*
X437327Y112073D01*
X437448D01*
X437463Y112067D01*
D02*
G37*
G36*
X440782Y112048D02*
X440817Y112032D01*
X440842Y112013D01*
X440852Y112007D01*
X440868Y111993D01*
X440882Y111968D01*
X440898Y111927D01*
Y111902D01*
X440903Y111888D01*
Y111878D01*
Y111872D01*
Y109008D01*
X440898Y108983D01*
Y108977D01*
Y108973D01*
X440887Y108963D01*
X440877Y108958D01*
X440868Y108952D01*
X440863D01*
X440842Y108948D01*
X440823D01*
X440802Y108942D01*
X440798D01*
X440763Y108938D01*
X440732Y108932D01*
X440658D01*
X440623Y108938D01*
X440602Y108942D01*
X440597D01*
X440573Y108948D01*
X440553D01*
X440543Y108952D01*
X440538D01*
X440522Y108958D01*
X440513Y108963D01*
X440503Y108973D01*
X440492Y108983D01*
X440487Y108997D01*
Y109002D01*
Y109008D01*
Y110127D01*
X440137D01*
X440032Y110133D01*
X439937Y110137D01*
X439853Y110148D01*
X439782Y110162D01*
X439722Y110178D01*
X439677Y110187D01*
X439652Y110193D01*
X439642Y110197D01*
X439568Y110228D01*
X439498Y110257D01*
X439437Y110292D01*
X439388Y110322D01*
X439348Y110353D01*
X439318Y110378D01*
X439297Y110392D01*
X439292Y110398D01*
X439243Y110452D01*
X439197Y110503D01*
X439157Y110557D01*
X439127Y110608D01*
X439103Y110652D01*
X439087Y110687D01*
X439078Y110707D01*
X439073Y110717D01*
X439047Y110793D01*
X439028Y110863D01*
X439012Y110938D01*
X439003Y111003D01*
X438998Y111057D01*
X438993Y111102D01*
Y111133D01*
Y111137D01*
Y111143D01*
Y111207D01*
X439003Y111267D01*
X439008Y111322D01*
X439017Y111367D01*
X439028Y111407D01*
X439033Y111437D01*
X439043Y111458D01*
Y111462D01*
X439062Y111518D01*
X439087Y111563D01*
X439113Y111608D01*
X439132Y111643D01*
X439152Y111678D01*
X439173Y111697D01*
X439183Y111713D01*
X439187Y111717D01*
X439257Y111793D01*
X439297Y111822D01*
X439332Y111853D01*
X439362Y111872D01*
X439388Y111888D01*
X439402Y111898D01*
X439407Y111902D01*
X439502Y111948D01*
X439547Y111968D01*
X439587Y111983D01*
X439617Y111993D01*
X439642Y111997D01*
X439663Y112003D01*
X439668D01*
X439752Y112022D01*
X439792Y112028D01*
X439822Y112032D01*
X439853Y112038D01*
X439873Y112042D01*
X439888D01*
X439953Y112048D01*
X440018Y112053D01*
X440742D01*
X440782Y112048D01*
D02*
G37*
G36*
X91723Y175077D02*
X91768Y175073D01*
X91808Y175067D01*
X91843Y175063D01*
X91868Y175057D01*
X91887Y175052D01*
X91892D01*
X91983Y175028D01*
X92023Y175017D01*
X92058Y175003D01*
X92088Y174993D01*
X92107Y174987D01*
X92123Y174978D01*
X92128D01*
X92198Y174948D01*
X92257Y174923D01*
X92277Y174908D01*
X92292Y174902D01*
X92303Y174892D01*
X92308D01*
X92352Y174867D01*
X92383Y174847D01*
X92402Y174832D01*
X92408Y174828D01*
X92422Y174812D01*
X92432Y174797D01*
X92443Y174787D01*
Y174783D01*
X92457Y174758D01*
X92462Y174752D01*
Y174748D01*
X92467Y174717D01*
Y174707D01*
Y174703D01*
Y174662D01*
Y174647D01*
Y174643D01*
Y174608D01*
Y174577D01*
Y174557D01*
Y174553D01*
X92462Y174528D01*
X92457Y174507D01*
X92453Y174497D01*
Y174493D01*
X92437Y174472D01*
X92432Y174462D01*
X92408Y174458D01*
X92397D01*
X92373Y174462D01*
X92343Y174478D01*
X92317Y174493D01*
X92308Y174497D01*
X92257Y174528D01*
X92207Y174557D01*
X92188Y174567D01*
X92172Y174577D01*
X92163Y174583D01*
X92158D01*
X92088Y174618D01*
X92018Y174647D01*
X91992Y174657D01*
X91967Y174668D01*
X91953Y174672D01*
X91948D01*
X91852Y174697D01*
X91808Y174707D01*
X91763Y174713D01*
X91728Y174717D01*
X91672D01*
X91583Y174713D01*
X91543Y174703D01*
X91513Y174697D01*
X91483Y174688D01*
X91462Y174678D01*
X91452Y174672D01*
X91448D01*
X91378Y174637D01*
X91328Y174602D01*
X91307Y174588D01*
X91293Y174573D01*
X91287Y174567D01*
X91282Y174563D01*
X91237Y174507D01*
X91202Y174452D01*
X91193Y174433D01*
X91183Y174413D01*
X91177Y174402D01*
Y174398D01*
X91158Y174332D01*
X91148Y174267D01*
X91142Y174242D01*
Y174223D01*
Y174213D01*
Y174207D01*
X91148Y174127D01*
X91153Y174057D01*
X91158Y174028D01*
X91163Y174003D01*
X91167Y173987D01*
Y173983D01*
X91177Y173937D01*
X91193Y173892D01*
X91207Y173847D01*
X91223Y173808D01*
X91237Y173773D01*
X91252Y173748D01*
X91258Y173728D01*
X91263Y173723D01*
X91293Y173668D01*
X91322Y173612D01*
X91357Y173557D01*
X91387Y173512D01*
X91417Y173468D01*
X91443Y173433D01*
X91457Y173413D01*
X91462Y173403D01*
X91513Y173337D01*
X91572Y173267D01*
X91628Y173203D01*
X91682Y173137D01*
X91733Y173088D01*
X91773Y173043D01*
X91798Y173018D01*
X91803Y173012D01*
X91808Y173008D01*
X92432Y172372D01*
X92453Y172353D01*
X92467Y172333D01*
X92478Y172318D01*
X92483Y172312D01*
X92493Y172292D01*
X92502Y172273D01*
X92507Y172257D01*
X92513Y172253D01*
X92523Y172213D01*
X92528Y172197D01*
Y172193D01*
Y172162D01*
Y172137D01*
Y172117D01*
Y172108D01*
Y172073D01*
X92523Y172047D01*
Y172028D01*
Y172022D01*
X92513Y171997D01*
X92507Y171983D01*
X92497Y171973D01*
Y171967D01*
X92467Y171948D01*
X92457Y171938D01*
X92453D01*
X92413Y171932D01*
X90677D01*
X90648Y171938D01*
X90642Y171942D01*
X90637D01*
X90613Y171962D01*
X90608Y171967D01*
Y171973D01*
X90597Y172008D01*
X90592Y172022D01*
Y172028D01*
X90588Y172053D01*
X90583Y172082D01*
Y172102D01*
Y172108D01*
Y172137D01*
X90588Y172162D01*
X90592Y172178D01*
Y172183D01*
X90597Y172207D01*
X90602Y172222D01*
X90608Y172232D01*
X90613Y172238D01*
X90632Y172263D01*
X90637Y172267D01*
X90642D01*
X90653Y172277D01*
X90667Y172283D01*
X92027D01*
X91537Y172792D01*
X91443Y172892D01*
X91357Y172983D01*
X91287Y173067D01*
X91228Y173137D01*
X91177Y173197D01*
X91142Y173242D01*
X91118Y173267D01*
X91113Y173277D01*
X91053Y173353D01*
X91003Y173427D01*
X90962Y173493D01*
X90927Y173547D01*
X90898Y173592D01*
X90877Y173627D01*
X90868Y173647D01*
X90863Y173658D01*
X90833Y173723D01*
X90807Y173777D01*
X90793Y173832D01*
X90777Y173882D01*
X90763Y173923D01*
X90758Y173952D01*
X90753Y173972D01*
Y173977D01*
X90733Y174088D01*
X90728Y174137D01*
Y174182D01*
X90723Y174217D01*
Y174248D01*
Y174267D01*
Y174273D01*
Y174332D01*
X90733Y174392D01*
X90742Y174443D01*
X90753Y174487D01*
X90763Y174528D01*
X90772Y174557D01*
X90777Y174577D01*
X90782Y174583D01*
X90807Y174637D01*
X90833Y174688D01*
X90857Y174732D01*
X90887Y174767D01*
X90908Y174797D01*
X90927Y174822D01*
X90943Y174838D01*
X90948Y174843D01*
X90992Y174882D01*
X91037Y174917D01*
X91083Y174948D01*
X91128Y174972D01*
X91167Y174993D01*
X91198Y175007D01*
X91217Y175013D01*
X91228Y175017D01*
X91293Y175038D01*
X91363Y175057D01*
X91427Y175067D01*
X91487Y175073D01*
X91543Y175077D01*
X91583Y175083D01*
X91623D01*
X91723Y175077D01*
D02*
G37*
G36*
X93977Y175052D02*
X94017D01*
X94028Y175048D01*
X94033D01*
X94058Y175042D01*
X94063Y175038D01*
X94068D01*
X94087Y175032D01*
X94093Y175028D01*
X94807Y174567D01*
X94832Y174548D01*
X94837Y174542D01*
X94842Y174538D01*
X94858Y174513D01*
X94863Y174507D01*
Y174503D01*
X94867Y174472D01*
X94872Y174458D01*
Y174452D01*
Y174433D01*
Y174413D01*
Y174392D01*
Y174388D01*
Y174347D01*
X94867Y174318D01*
Y174297D01*
Y174293D01*
X94863Y174273D01*
X94858Y174252D01*
X94848Y174248D01*
Y174242D01*
X94832Y174232D01*
X94802D01*
X94778Y174238D01*
X94753Y174248D01*
X94732Y174258D01*
X94727Y174262D01*
X94128Y174622D01*
Y172263D01*
X94792D01*
X94802Y172257D01*
X94807Y172253D01*
X94813Y172248D01*
X94832Y172228D01*
X94837Y172222D01*
X94842Y172218D01*
X94853Y172187D01*
X94858Y172172D01*
Y172168D01*
X94863Y172143D01*
Y172117D01*
Y172102D01*
Y172092D01*
Y172063D01*
X94858Y172037D01*
Y172022D01*
Y172018D01*
X94853Y171997D01*
X94848Y171983D01*
X94837Y171973D01*
Y171967D01*
X94818Y171948D01*
X94813Y171938D01*
X94788Y171932D01*
X93152D01*
X93128Y171938D01*
X93117D01*
X93098Y171958D01*
X93093Y171962D01*
Y171967D01*
X93077Y172002D01*
X93072Y172012D01*
Y172018D01*
X93068Y172043D01*
X93063Y172067D01*
Y172088D01*
Y172092D01*
Y172123D01*
X93068Y172148D01*
X93072Y172162D01*
Y172168D01*
X93077Y172187D01*
X93082Y172203D01*
X93088Y172213D01*
Y172218D01*
X93107Y172242D01*
X93112Y172248D01*
X93117D01*
X93128Y172257D01*
X93142Y172263D01*
X93713D01*
Y174987D01*
X93717Y175007D01*
X93722Y175013D01*
X93727Y175022D01*
X93738Y175032D01*
X93748Y175038D01*
X93752D01*
X93773Y175042D01*
X93787Y175048D01*
X93808Y175052D01*
X93813D01*
X93843Y175057D01*
X93963D01*
X93977Y175052D01*
D02*
G37*
G36*
X97298Y175032D02*
X97333Y175017D01*
X97357Y174997D01*
X97368Y174993D01*
X97382Y174978D01*
X97398Y174952D01*
X97413Y174913D01*
Y174888D01*
X97417Y174873D01*
Y174863D01*
Y174857D01*
Y171993D01*
X97413Y171967D01*
Y171962D01*
Y171958D01*
X97403Y171948D01*
X97392Y171942D01*
X97382Y171938D01*
X97378D01*
X97357Y171932D01*
X97338D01*
X97317Y171927D01*
X97312D01*
X97277Y171923D01*
X97247Y171917D01*
X97172D01*
X97137Y171923D01*
X97118Y171927D01*
X97113D01*
X97088Y171932D01*
X97067D01*
X97057Y171938D01*
X97053D01*
X97038Y171942D01*
X97027Y171948D01*
X97018Y171958D01*
X97008Y171967D01*
X97003Y171983D01*
Y171987D01*
Y171993D01*
Y173112D01*
X96653D01*
X96548Y173117D01*
X96452Y173123D01*
X96368Y173133D01*
X96298Y173147D01*
X96237Y173162D01*
X96193Y173172D01*
X96167Y173178D01*
X96157Y173182D01*
X96083Y173213D01*
X96013Y173242D01*
X95952Y173277D01*
X95903Y173308D01*
X95863Y173337D01*
X95833Y173363D01*
X95812Y173378D01*
X95807Y173382D01*
X95758Y173438D01*
X95713Y173487D01*
X95673Y173542D01*
X95643Y173592D01*
X95618Y173637D01*
X95603Y173672D01*
X95592Y173693D01*
X95587Y173703D01*
X95562Y173777D01*
X95543Y173847D01*
X95527Y173923D01*
X95517Y173987D01*
X95512Y174042D01*
X95508Y174088D01*
Y174118D01*
Y174123D01*
Y174127D01*
Y174193D01*
X95517Y174252D01*
X95522Y174308D01*
X95533Y174353D01*
X95543Y174392D01*
X95547Y174423D01*
X95557Y174443D01*
Y174448D01*
X95578Y174503D01*
X95603Y174548D01*
X95627Y174592D01*
X95648Y174627D01*
X95667Y174662D01*
X95688Y174682D01*
X95697Y174697D01*
X95702Y174703D01*
X95772Y174777D01*
X95812Y174808D01*
X95847Y174838D01*
X95877Y174857D01*
X95903Y174873D01*
X95917Y174882D01*
X95922Y174888D01*
X96017Y174933D01*
X96062Y174952D01*
X96102Y174968D01*
X96132Y174978D01*
X96157Y174983D01*
X96178Y174987D01*
X96183D01*
X96267Y175007D01*
X96307Y175013D01*
X96337Y175017D01*
X96368Y175022D01*
X96387Y175028D01*
X96403D01*
X96468Y175032D01*
X96532Y175038D01*
X97258D01*
X97298Y175032D01*
D02*
G37*
G36*
X31520Y264917D02*
X31525D01*
X31530D01*
X31540Y264908D01*
X31545Y264897D01*
X31550Y264887D01*
Y264882D01*
X31555Y264862D01*
Y264843D01*
X31560Y264823D01*
Y264818D01*
X31565Y264783D01*
X31570Y264753D01*
Y264678D01*
X31565Y264643D01*
X31560Y264622D01*
Y264617D01*
X31555Y264593D01*
Y264573D01*
X31550Y264563D01*
Y264558D01*
X31545Y264543D01*
X31540Y264532D01*
X31530Y264523D01*
X31520Y264512D01*
X31505Y264508D01*
X31500D01*
X31495D01*
X30375D01*
Y264158D01*
X30370Y264053D01*
X30365Y263958D01*
X30355Y263873D01*
X30340Y263803D01*
X30325Y263742D01*
X30315Y263698D01*
X30310Y263672D01*
X30305Y263663D01*
X30275Y263587D01*
X30245Y263517D01*
X30210Y263457D01*
X30180Y263407D01*
X30150Y263368D01*
X30125Y263337D01*
X30110Y263317D01*
X30105Y263313D01*
X30050Y263263D01*
X30000Y263217D01*
X29945Y263177D01*
X29895Y263147D01*
X29850Y263123D01*
X29815Y263107D01*
X29795Y263098D01*
X29785Y263092D01*
X29710Y263068D01*
X29640Y263048D01*
X29565Y263033D01*
X29500Y263022D01*
X29445Y263018D01*
X29400Y263013D01*
X29370D01*
X29365D01*
X29360D01*
X29295D01*
X29235Y263022D01*
X29180Y263028D01*
X29135Y263037D01*
X29095Y263048D01*
X29065Y263053D01*
X29045Y263063D01*
X29040D01*
X28985Y263083D01*
X28940Y263107D01*
X28895Y263133D01*
X28860Y263153D01*
X28825Y263173D01*
X28805Y263193D01*
X28790Y263203D01*
X28785Y263208D01*
X28710Y263278D01*
X28680Y263317D01*
X28650Y263352D01*
X28630Y263383D01*
X28615Y263407D01*
X28605Y263422D01*
X28600Y263427D01*
X28555Y263523D01*
X28535Y263567D01*
X28520Y263608D01*
X28510Y263637D01*
X28505Y263663D01*
X28500Y263683D01*
Y263687D01*
X28480Y263773D01*
X28475Y263812D01*
X28470Y263843D01*
X28465Y263873D01*
X28460Y263893D01*
Y263908D01*
X28455Y263972D01*
X28450Y264037D01*
Y264762D01*
X28455Y264803D01*
X28470Y264838D01*
X28490Y264862D01*
X28495Y264873D01*
X28510Y264887D01*
X28535Y264902D01*
X28575Y264917D01*
X28600D01*
X28615Y264922D01*
X28625D01*
X28630D01*
X31495D01*
X31520Y264917D01*
D02*
G37*
G36*
X29170Y262372D02*
X29190D01*
X29195D01*
X29215Y262368D01*
X29235Y262363D01*
X29240Y262352D01*
X29245D01*
X29255Y262337D01*
Y262308D01*
X29250Y262282D01*
X29240Y262258D01*
X29230Y262238D01*
X29225Y262232D01*
X28865Y261632D01*
X31225D01*
Y262298D01*
X31230Y262308D01*
X31235Y262313D01*
X31240Y262317D01*
X31260Y262337D01*
X31265Y262343D01*
X31270Y262348D01*
X31300Y262357D01*
X31315Y262363D01*
X31320D01*
X31345Y262368D01*
X31370D01*
X31385D01*
X31395D01*
X31425D01*
X31450Y262363D01*
X31465D01*
X31470D01*
X31490Y262357D01*
X31505Y262352D01*
X31515Y262343D01*
X31520D01*
X31540Y262322D01*
X31550Y262317D01*
X31555Y262293D01*
Y260658D01*
X31550Y260632D01*
Y260623D01*
X31530Y260602D01*
X31525Y260597D01*
X31520D01*
X31485Y260582D01*
X31475Y260578D01*
X31470D01*
X31445Y260573D01*
X31420Y260567D01*
X31400D01*
X31395D01*
X31365D01*
X31340Y260573D01*
X31325Y260578D01*
X31320D01*
X31300Y260582D01*
X31285Y260588D01*
X31275Y260593D01*
X31270D01*
X31245Y260613D01*
X31240Y260617D01*
Y260623D01*
X31230Y260632D01*
X31225Y260648D01*
Y261217D01*
X28500D01*
X28480Y261223D01*
X28475Y261227D01*
X28465Y261232D01*
X28455Y261243D01*
X28450Y261252D01*
Y261258D01*
X28445Y261278D01*
X28440Y261293D01*
X28435Y261313D01*
Y261317D01*
X28430Y261348D01*
Y261468D01*
X28435Y261483D01*
Y261523D01*
X28440Y261532D01*
Y261538D01*
X28445Y261562D01*
X28450Y261567D01*
Y261573D01*
X28455Y261593D01*
X28460Y261597D01*
X28920Y262313D01*
X28940Y262337D01*
X28945Y262343D01*
X28950Y262348D01*
X28975Y262363D01*
X28980Y262368D01*
X28985D01*
X29015Y262372D01*
X29030Y262378D01*
X29035D01*
X29055D01*
X29075D01*
X29095D01*
X29100D01*
X29140D01*
X29170Y262372D01*
D02*
G37*
G36*
Y259882D02*
X29190D01*
X29195D01*
X29215Y259877D01*
X29235Y259873D01*
X29240Y259862D01*
X29245D01*
X29255Y259847D01*
Y259818D01*
X29250Y259792D01*
X29240Y259768D01*
X29230Y259748D01*
X29225Y259742D01*
X28865Y259142D01*
X31225D01*
Y259807D01*
X31230Y259818D01*
X31235Y259823D01*
X31240Y259827D01*
X31260Y259847D01*
X31265Y259853D01*
X31270Y259858D01*
X31300Y259868D01*
X31315Y259873D01*
X31320D01*
X31345Y259877D01*
X31370D01*
X31385D01*
X31395D01*
X31425D01*
X31450Y259873D01*
X31465D01*
X31470D01*
X31490Y259868D01*
X31505Y259862D01*
X31515Y259853D01*
X31520D01*
X31540Y259833D01*
X31550Y259827D01*
X31555Y259803D01*
Y258168D01*
X31550Y258142D01*
Y258133D01*
X31530Y258113D01*
X31525Y258107D01*
X31520D01*
X31485Y258092D01*
X31475Y258087D01*
X31470D01*
X31445Y258083D01*
X31420Y258078D01*
X31400D01*
X31395D01*
X31365D01*
X31340Y258083D01*
X31325Y258087D01*
X31320D01*
X31300Y258092D01*
X31285Y258098D01*
X31275Y258102D01*
X31270D01*
X31245Y258122D01*
X31240Y258127D01*
Y258133D01*
X31230Y258142D01*
X31225Y258157D01*
Y258728D01*
X28500D01*
X28480Y258733D01*
X28475Y258737D01*
X28465Y258742D01*
X28455Y258752D01*
X28450Y258763D01*
Y258768D01*
X28445Y258787D01*
X28440Y258803D01*
X28435Y258822D01*
Y258827D01*
X28430Y258857D01*
Y258978D01*
X28435Y258993D01*
Y259033D01*
X28440Y259043D01*
Y259048D01*
X28445Y259072D01*
X28450Y259078D01*
Y259083D01*
X28455Y259103D01*
X28460Y259107D01*
X28920Y259823D01*
X28940Y259847D01*
X28945Y259853D01*
X28950Y259858D01*
X28975Y259873D01*
X28980Y259877D01*
X28985D01*
X29015Y259882D01*
X29030Y259888D01*
X29035D01*
X29055D01*
X29075D01*
X29095D01*
X29100D01*
X29140D01*
X29170Y259882D01*
D02*
G37*
G36*
X346027Y120068D02*
X346068D01*
X346077Y120062D01*
X346082D01*
X346108Y120057D01*
X346112Y120053D01*
X346117D01*
X346137Y120047D01*
X346143Y120043D01*
X346858Y119582D01*
X346883Y119562D01*
X346887Y119557D01*
X346892Y119553D01*
X346907Y119527D01*
X346913Y119523D01*
Y119518D01*
X346918Y119488D01*
X346922Y119473D01*
Y119467D01*
Y119448D01*
Y119428D01*
Y119407D01*
Y119403D01*
Y119362D01*
X346918Y119333D01*
Y119313D01*
Y119307D01*
X346913Y119288D01*
X346907Y119267D01*
X346898Y119263D01*
Y119257D01*
X346883Y119247D01*
X346852D01*
X346828Y119253D01*
X346802Y119263D01*
X346782Y119272D01*
X346778Y119278D01*
X346178Y119638D01*
Y117278D01*
X346843D01*
X346852Y117272D01*
X346858Y117268D01*
X346863Y117262D01*
X346883Y117243D01*
X346887Y117237D01*
X346892Y117233D01*
X346902Y117202D01*
X346907Y117188D01*
Y117183D01*
X346913Y117157D01*
Y117132D01*
Y117118D01*
Y117107D01*
Y117078D01*
X346907Y117052D01*
Y117037D01*
Y117033D01*
X346902Y117013D01*
X346898Y116998D01*
X346887Y116988D01*
Y116982D01*
X346867Y116963D01*
X346863Y116953D01*
X346837Y116947D01*
X345202D01*
X345178Y116953D01*
X345167D01*
X345147Y116972D01*
X345143Y116978D01*
Y116982D01*
X345128Y117017D01*
X345123Y117027D01*
Y117033D01*
X345117Y117058D01*
X345112Y117083D01*
Y117103D01*
Y117107D01*
Y117138D01*
X345117Y117163D01*
X345123Y117177D01*
Y117183D01*
X345128Y117202D01*
X345132Y117218D01*
X345138Y117227D01*
Y117233D01*
X345158Y117257D01*
X345163Y117262D01*
X345167D01*
X345178Y117272D01*
X345193Y117278D01*
X345762D01*
Y120002D01*
X345767Y120022D01*
X345773Y120027D01*
X345778Y120037D01*
X345788Y120047D01*
X345797Y120053D01*
X345802D01*
X345823Y120057D01*
X345837Y120062D01*
X345858Y120068D01*
X345863D01*
X345893Y120072D01*
X346012D01*
X346027Y120068D01*
D02*
G37*
G36*
X349347Y120047D02*
X349382Y120033D01*
X349408Y120012D01*
X349417Y120008D01*
X349432Y119992D01*
X349447Y119967D01*
X349463Y119928D01*
Y119903D01*
X349467Y119887D01*
Y119878D01*
Y119872D01*
Y117008D01*
X349463Y116982D01*
Y116978D01*
Y116972D01*
X349452Y116963D01*
X349443Y116957D01*
X349432Y116953D01*
X349428D01*
X349408Y116947D01*
X349388D01*
X349367Y116943D01*
X349362D01*
X349327Y116937D01*
X349297Y116932D01*
X349222D01*
X349187Y116937D01*
X349167Y116943D01*
X349163D01*
X349137Y116947D01*
X349117D01*
X349108Y116953D01*
X349102D01*
X349088Y116957D01*
X349078Y116963D01*
X349067Y116972D01*
X349058Y116982D01*
X349053Y116998D01*
Y117002D01*
Y117008D01*
Y118128D01*
X348703D01*
X348598Y118132D01*
X348502Y118138D01*
X348417Y118148D01*
X348347Y118163D01*
X348288Y118177D01*
X348242Y118187D01*
X348218Y118193D01*
X348207Y118198D01*
X348132Y118228D01*
X348062Y118257D01*
X348003Y118292D01*
X347953Y118323D01*
X347913Y118352D01*
X347883Y118377D01*
X347863Y118393D01*
X347857Y118397D01*
X347808Y118453D01*
X347762Y118502D01*
X347723Y118558D01*
X347692Y118607D01*
X347668Y118652D01*
X347653Y118687D01*
X347642Y118708D01*
X347638Y118718D01*
X347613Y118792D01*
X347592Y118862D01*
X347578Y118938D01*
X347568Y119002D01*
X347563Y119058D01*
X347557Y119103D01*
Y119132D01*
Y119138D01*
Y119142D01*
Y119208D01*
X347568Y119267D01*
X347572Y119323D01*
X347583Y119368D01*
X347592Y119407D01*
X347598Y119438D01*
X347607Y119457D01*
Y119463D01*
X347627Y119518D01*
X347653Y119562D01*
X347677Y119607D01*
X347697Y119642D01*
X347717Y119677D01*
X347738Y119697D01*
X347747Y119712D01*
X347752Y119718D01*
X347822Y119792D01*
X347863Y119823D01*
X347898Y119852D01*
X347927Y119872D01*
X347953Y119887D01*
X347968Y119897D01*
X347972Y119903D01*
X348067Y119948D01*
X348113Y119967D01*
X348152Y119983D01*
X348183Y119992D01*
X348207Y119998D01*
X348228Y120002D01*
X348233D01*
X348318Y120022D01*
X348358Y120027D01*
X348388Y120033D01*
X348417Y120037D01*
X348438Y120043D01*
X348452D01*
X348517Y120047D01*
X348583Y120053D01*
X349307D01*
X349347Y120047D01*
D02*
G37*
G36*
X343688Y120092D02*
X343788Y120078D01*
X343878Y120057D01*
X343952Y120037D01*
X344012Y120018D01*
X344057Y119998D01*
X344088Y119983D01*
X344092Y119977D01*
X344097D01*
X344173Y119932D01*
X344237Y119878D01*
X344298Y119823D01*
X344348Y119767D01*
X344388Y119722D01*
X344412Y119683D01*
X344432Y119658D01*
X344438Y119652D01*
Y119648D01*
X344482Y119568D01*
X344517Y119483D01*
X344552Y119397D01*
X344578Y119317D01*
X344598Y119247D01*
X344613Y119193D01*
X344618Y119173D01*
Y119158D01*
X344622Y119148D01*
Y119142D01*
X344642Y119033D01*
X344653Y118918D01*
X344662Y118807D01*
X344672Y118708D01*
Y118623D01*
X344677Y118582D01*
Y118552D01*
Y118527D01*
Y118508D01*
Y118498D01*
Y118492D01*
Y118352D01*
X344668Y118222D01*
X344662Y118107D01*
X344653Y118008D01*
X344648Y117963D01*
X344642Y117922D01*
X344637Y117887D01*
Y117862D01*
X344633Y117838D01*
X344627Y117823D01*
Y117813D01*
Y117807D01*
X344607Y117702D01*
X344578Y117607D01*
X344552Y117517D01*
X344523Y117447D01*
X344497Y117387D01*
X344478Y117342D01*
X344462Y117317D01*
X344458Y117307D01*
X344408Y117237D01*
X344353Y117177D01*
X344298Y117122D01*
X344248Y117083D01*
X344202Y117048D01*
X344167Y117023D01*
X344143Y117008D01*
X344132Y117002D01*
X344053Y116967D01*
X343972Y116943D01*
X343887Y116928D01*
X343808Y116918D01*
X343742Y116908D01*
X343688Y116902D01*
X343637D01*
X343528Y116908D01*
X343427Y116922D01*
X343342Y116937D01*
X343267Y116963D01*
X343202Y116982D01*
X343158Y116998D01*
X343132Y117013D01*
X343123Y117017D01*
X343047Y117062D01*
X342977Y117118D01*
X342917Y117173D01*
X342867Y117222D01*
X342828Y117272D01*
X342803Y117307D01*
X342782Y117332D01*
X342777Y117342D01*
X342733Y117428D01*
X342692Y117513D01*
X342663Y117597D01*
X342637Y117677D01*
X342618Y117747D01*
X342602Y117803D01*
X342598Y117823D01*
X342593Y117838D01*
Y117848D01*
Y117852D01*
X342572Y117967D01*
X342558Y118078D01*
X342547Y118187D01*
X342537Y118288D01*
Y118372D01*
X342532Y118412D01*
Y118442D01*
Y118467D01*
Y118488D01*
Y118498D01*
Y118502D01*
Y118642D01*
X342543Y118772D01*
X342547Y118887D01*
X342558Y118988D01*
X342563Y119033D01*
X342567Y119068D01*
X342572Y119103D01*
X342578Y119132D01*
X342583Y119152D01*
Y119167D01*
X342587Y119177D01*
Y119183D01*
X342607Y119292D01*
X342637Y119387D01*
X342663Y119473D01*
X342692Y119547D01*
X342723Y119603D01*
X342742Y119648D01*
X342758Y119673D01*
X342762Y119683D01*
X342812Y119753D01*
X342863Y119817D01*
X342917Y119872D01*
X342968Y119913D01*
X343012Y119948D01*
X343047Y119973D01*
X343073Y119987D01*
X343082Y119992D01*
X343162Y120027D01*
X343243Y120053D01*
X343327Y120072D01*
X343403Y120082D01*
X343473Y120092D01*
X343528Y120097D01*
X343578D01*
X343688Y120092D01*
D02*
G37*
G36*
X344423Y245093D02*
X344513Y245082D01*
X344592Y245073D01*
X344662Y245058D01*
X344718Y245038D01*
X344762Y245027D01*
X344788Y245018D01*
X344797Y245012D01*
X344867Y244977D01*
X344928Y244942D01*
X344983Y244902D01*
X345033Y244867D01*
X345068Y244832D01*
X345093Y244808D01*
X345112Y244788D01*
X345117Y244782D01*
X345163Y244727D01*
X345198Y244672D01*
X345233Y244618D01*
X345257Y244567D01*
X345278Y244523D01*
X345292Y244488D01*
X345298Y244467D01*
X345303Y244458D01*
X345322Y244388D01*
X345338Y244318D01*
X345347Y244252D01*
X345353Y244193D01*
X345357Y244143D01*
X345362Y244103D01*
Y244077D01*
Y244068D01*
Y243992D01*
X345357Y243928D01*
X345347Y243863D01*
X345338Y243808D01*
X345333Y243762D01*
X345322Y243727D01*
X345318Y243707D01*
Y243698D01*
X345298Y243637D01*
X345272Y243583D01*
X345252Y243532D01*
X345228Y243493D01*
X345202Y243458D01*
X345182Y243427D01*
X345173Y243412D01*
X345167Y243408D01*
X345123Y243368D01*
X345077Y243327D01*
X345027Y243292D01*
X344983Y243267D01*
X344942Y243248D01*
X344913Y243232D01*
X344893Y243222D01*
X344882Y243217D01*
X344812Y243193D01*
X344738Y243178D01*
X344668Y243162D01*
X344598Y243158D01*
X344537Y243152D01*
X344488Y243147D01*
X344447D01*
X344362Y243152D01*
X344287Y243158D01*
X344217Y243167D01*
X344158Y243178D01*
X344108Y243187D01*
X344068Y243193D01*
X344047Y243202D01*
X344038D01*
X343972Y243228D01*
X343913Y243248D01*
X343863Y243272D01*
X343817Y243292D01*
X343782Y243307D01*
X343753Y243322D01*
X343738Y243327D01*
X343733Y243333D01*
X343738Y243252D01*
X343742Y243173D01*
X343753Y243103D01*
X343762Y243042D01*
X343773Y242987D01*
X343782Y242948D01*
X343788Y242922D01*
X343793Y242913D01*
X343812Y242843D01*
X343837Y242777D01*
X343863Y242718D01*
X343887Y242663D01*
X343913Y242622D01*
X343933Y242587D01*
X343942Y242567D01*
X343948Y242563D01*
X343987Y242508D01*
X344033Y242462D01*
X344082Y242423D01*
X344123Y242388D01*
X344163Y242357D01*
X344193Y242337D01*
X344213Y242327D01*
X344222Y242322D01*
X344287Y242292D01*
X344353Y242272D01*
X344423Y242257D01*
X344482Y242248D01*
X344537Y242243D01*
X344583Y242237D01*
X344622D01*
X344707Y242243D01*
X344742D01*
X344777Y242248D01*
X344802D01*
X344823Y242252D01*
X344843D01*
X344907Y242267D01*
X344963Y242283D01*
X344983Y242287D01*
X344998D01*
X345007Y242292D01*
X345012D01*
X345062Y242307D01*
X345103Y242322D01*
X345128Y242327D01*
X345138Y242333D01*
X345167Y242342D01*
X345187Y242353D01*
X345208D01*
X345233Y242348D01*
X345237Y242342D01*
X345243D01*
X345248Y242337D01*
X345257Y242327D01*
X345263Y242322D01*
Y242318D01*
X345268Y242302D01*
Y242287D01*
X345272Y242278D01*
Y242272D01*
Y242248D01*
Y242217D01*
Y242197D01*
Y242193D01*
Y242188D01*
Y242147D01*
X345268Y242118D01*
X345263Y242092D01*
Y242088D01*
X345252Y242062D01*
X345243Y242042D01*
X345237Y242033D01*
X345233Y242027D01*
X345208Y242013D01*
X345182Y242003D01*
X345163Y241992D01*
X345152Y241987D01*
X345108Y241972D01*
X345068Y241963D01*
X345033Y241952D01*
X345027Y241948D01*
X345023D01*
X344963Y241937D01*
X344902Y241928D01*
X344882Y241922D01*
X344863D01*
X344852Y241917D01*
X344847D01*
X344773Y241908D01*
X344707Y241902D01*
X344648D01*
X344548Y241908D01*
X344458Y241913D01*
X344377Y241922D01*
X344313Y241937D01*
X344252Y241952D01*
X344213Y241963D01*
X344187Y241968D01*
X344178Y241972D01*
X344103Y242003D01*
X344038Y242033D01*
X343977Y242068D01*
X343928Y242097D01*
X343882Y242123D01*
X343852Y242147D01*
X343832Y242162D01*
X343828Y242167D01*
X343773Y242217D01*
X343727Y242267D01*
X343683Y242313D01*
X343648Y242357D01*
X343622Y242397D01*
X343598Y242427D01*
X343587Y242453D01*
X343583Y242458D01*
X343517Y242583D01*
X343488Y242642D01*
X343467Y242698D01*
X343453Y242742D01*
X343438Y242782D01*
X343427Y242803D01*
Y242812D01*
X343388Y242957D01*
X343373Y243022D01*
X343362Y243088D01*
X343353Y243138D01*
X343348Y243178D01*
X343342Y243202D01*
Y243213D01*
X343333Y243287D01*
X343327Y243362D01*
X343322Y243432D01*
Y243493D01*
X343318Y243543D01*
Y243583D01*
Y243607D01*
Y243618D01*
Y243698D01*
X343322Y243773D01*
X343327Y243843D01*
Y243902D01*
X343333Y243952D01*
X343337Y243987D01*
X343342Y244012D01*
Y244022D01*
X343353Y244092D01*
X343362Y244163D01*
X343373Y244222D01*
X343383Y244278D01*
X343392Y244322D01*
X343397Y244353D01*
X343408Y244377D01*
Y244383D01*
X343427Y244443D01*
X343447Y244502D01*
X343467Y244552D01*
X343488Y244598D01*
X343502Y244633D01*
X343517Y244657D01*
X343528Y244677D01*
X343532Y244683D01*
X343593Y244773D01*
X343622Y244808D01*
X343653Y244843D01*
X343677Y244867D01*
X343698Y244887D01*
X343712Y244898D01*
X343718Y244902D01*
X343802Y244968D01*
X343847Y244992D01*
X343887Y245012D01*
X343922Y245027D01*
X343952Y245038D01*
X343972Y245047D01*
X343977D01*
X344092Y245077D01*
X344152Y245088D01*
X344208Y245093D01*
X344252Y245097D01*
X344322D01*
X344423Y245093D01*
D02*
G37*
G36*
X347563Y245047D02*
X347598Y245033D01*
X347622Y245012D01*
X347633Y245007D01*
X347648Y244992D01*
X347662Y244968D01*
X347677Y244928D01*
Y244902D01*
X347682Y244887D01*
Y244878D01*
Y244872D01*
Y242007D01*
X347677Y241983D01*
Y241978D01*
Y241972D01*
X347668Y241963D01*
X347657Y241957D01*
X347648Y241952D01*
X347642D01*
X347622Y241948D01*
X347603D01*
X347583Y241943D01*
X347578D01*
X347543Y241937D01*
X347513Y241933D01*
X347438D01*
X347403Y241937D01*
X347382Y241943D01*
X347377D01*
X347353Y241948D01*
X347333D01*
X347323Y241952D01*
X347318D01*
X347303Y241957D01*
X347292Y241963D01*
X347283Y241972D01*
X347272Y241983D01*
X347268Y241998D01*
Y242003D01*
Y242007D01*
Y243127D01*
X346918D01*
X346813Y243132D01*
X346718Y243138D01*
X346633Y243147D01*
X346563Y243162D01*
X346502Y243178D01*
X346458Y243187D01*
X346432Y243193D01*
X346423Y243197D01*
X346347Y243228D01*
X346277Y243257D01*
X346217Y243292D01*
X346167Y243322D01*
X346128Y243353D01*
X346097Y243377D01*
X346077Y243392D01*
X346073Y243397D01*
X346023Y243453D01*
X345977Y243502D01*
X345937Y243558D01*
X345907Y243607D01*
X345883Y243653D01*
X345867Y243688D01*
X345858Y243707D01*
X345852Y243718D01*
X345828Y243793D01*
X345808Y243863D01*
X345793Y243937D01*
X345782Y244003D01*
X345778Y244057D01*
X345773Y244103D01*
Y244132D01*
Y244138D01*
Y244143D01*
Y244208D01*
X345782Y244268D01*
X345788Y244322D01*
X345797Y244368D01*
X345808Y244408D01*
X345813Y244438D01*
X345823Y244458D01*
Y244462D01*
X345843Y244517D01*
X345867Y244563D01*
X345893Y244607D01*
X345913Y244642D01*
X345933Y244677D01*
X345953Y244697D01*
X345963Y244712D01*
X345968Y244718D01*
X346038Y244793D01*
X346077Y244823D01*
X346112Y244852D01*
X346143Y244872D01*
X346167Y244887D01*
X346182Y244898D01*
X346187Y244902D01*
X346283Y244948D01*
X346327Y244968D01*
X346368Y244983D01*
X346397Y244992D01*
X346423Y244998D01*
X346443Y245003D01*
X346447D01*
X346533Y245023D01*
X346572Y245027D01*
X346603Y245033D01*
X346633Y245038D01*
X346653Y245042D01*
X346668D01*
X346732Y245047D01*
X346797Y245053D01*
X347522D01*
X347563Y245047D01*
D02*
G37*
G36*
X31517Y181202D02*
X31523D01*
X31528D01*
X31538Y181193D01*
X31543Y181183D01*
X31547Y181173D01*
Y181167D01*
X31552Y181148D01*
Y181128D01*
X31558Y181107D01*
Y181103D01*
X31563Y181068D01*
X31567Y181037D01*
Y180963D01*
X31563Y180928D01*
X31558Y180907D01*
Y180903D01*
X31552Y180877D01*
Y180858D01*
X31547Y180848D01*
Y180842D01*
X31543Y180827D01*
X31538Y180817D01*
X31528Y180807D01*
X31517Y180798D01*
X31503Y180792D01*
X31497D01*
X31492D01*
X30373D01*
Y180443D01*
X30367Y180338D01*
X30362Y180243D01*
X30353Y180157D01*
X30338Y180087D01*
X30323Y180027D01*
X30312Y179982D01*
X30307Y179957D01*
X30303Y179947D01*
X30272Y179873D01*
X30242Y179803D01*
X30207Y179743D01*
X30178Y179692D01*
X30147Y179653D01*
X30123Y179622D01*
X30108Y179603D01*
X30103Y179597D01*
X30048Y179548D01*
X29998Y179502D01*
X29943Y179463D01*
X29893Y179432D01*
X29847Y179408D01*
X29812Y179393D01*
X29792Y179383D01*
X29783Y179377D01*
X29708Y179352D01*
X29638Y179332D01*
X29563Y179317D01*
X29498Y179307D01*
X29443Y179303D01*
X29397Y179297D01*
X29368D01*
X29362D01*
X29357D01*
X29293D01*
X29232Y179307D01*
X29177Y179313D01*
X29133Y179323D01*
X29092Y179332D01*
X29063Y179338D01*
X29043Y179348D01*
X29037D01*
X28982Y179367D01*
X28938Y179393D01*
X28892Y179418D01*
X28857Y179437D01*
X28822Y179457D01*
X28802Y179478D01*
X28787Y179488D01*
X28782Y179492D01*
X28708Y179562D01*
X28677Y179603D01*
X28648Y179638D01*
X28627Y179667D01*
X28613Y179692D01*
X28602Y179708D01*
X28598Y179712D01*
X28552Y179807D01*
X28532Y179852D01*
X28517Y179893D01*
X28508Y179922D01*
X28503Y179947D01*
X28497Y179967D01*
Y179973D01*
X28477Y180058D01*
X28473Y180097D01*
X28468Y180128D01*
X28462Y180157D01*
X28457Y180177D01*
Y180192D01*
X28453Y180257D01*
X28447Y180323D01*
Y181047D01*
X28453Y181088D01*
X28468Y181123D01*
X28488Y181148D01*
X28493Y181158D01*
X28508Y181173D01*
X28532Y181187D01*
X28572Y181202D01*
X28598D01*
X28613Y181208D01*
X28622D01*
X28627D01*
X31492D01*
X31517Y181202D01*
D02*
G37*
G36*
X30893Y178883D02*
X30957Y178877D01*
X31012Y178867D01*
X31062Y178852D01*
X31102Y178842D01*
X31133Y178832D01*
X31152Y178828D01*
X31157Y178823D01*
X31207Y178793D01*
X31258Y178762D01*
X31297Y178727D01*
X31332Y178698D01*
X31363Y178667D01*
X31383Y178642D01*
X31398Y178628D01*
X31403Y178622D01*
X31438Y178568D01*
X31468Y178513D01*
X31488Y178463D01*
X31512Y178408D01*
X31528Y178363D01*
X31538Y178328D01*
X31547Y178307D01*
Y178297D01*
X31578Y178147D01*
X31587Y178077D01*
X31593Y178013D01*
Y177953D01*
X31598Y177908D01*
Y177867D01*
X31593Y177772D01*
X31587Y177688D01*
X31578Y177608D01*
X31567Y177542D01*
X31558Y177488D01*
X31552Y177447D01*
X31543Y177422D01*
Y177412D01*
X31517Y177342D01*
X31492Y177278D01*
X31468Y177217D01*
X31442Y177167D01*
X31418Y177132D01*
X31398Y177102D01*
X31387Y177083D01*
X31383Y177077D01*
X31337Y177027D01*
X31293Y176988D01*
X31253Y176947D01*
X31207Y176918D01*
X31172Y176898D01*
X31143Y176883D01*
X31122Y176873D01*
X31117Y176867D01*
X31058Y176842D01*
X30992Y176822D01*
X30933Y176813D01*
X30878Y176803D01*
X30828Y176797D01*
X30792Y176793D01*
X30768D01*
X30757D01*
X30663Y176803D01*
X30617Y176807D01*
X30582Y176818D01*
X30553Y176828D01*
X30527Y176832D01*
X30512Y176842D01*
X30507D01*
X30428Y176883D01*
X30387Y176902D01*
X30358Y176927D01*
X30332Y176947D01*
X30307Y176962D01*
X30297Y176972D01*
X30292Y176978D01*
X30217Y177052D01*
X30158Y177122D01*
X30132Y177153D01*
X30117Y177178D01*
X30108Y177198D01*
X30103Y177202D01*
X30038Y177303D01*
X30007Y177357D01*
X29983Y177402D01*
X29958Y177447D01*
X29943Y177478D01*
X29932Y177497D01*
X29928Y177507D01*
X29897Y177453D01*
X29873Y177408D01*
X29842Y177363D01*
X29818Y177328D01*
X29798Y177293D01*
X29783Y177272D01*
X29772Y177258D01*
X29768Y177252D01*
X29697Y177173D01*
X29667Y177143D01*
X29638Y177112D01*
X29612Y177093D01*
X29592Y177077D01*
X29583Y177067D01*
X29577Y177062D01*
X29498Y177007D01*
X29432Y176972D01*
X29403Y176957D01*
X29383Y176947D01*
X29368Y176943D01*
X29362D01*
X29278Y176918D01*
X29237Y176912D01*
X29202Y176908D01*
X29173Y176902D01*
X29147D01*
X29133D01*
X29127D01*
X29072D01*
X29022Y176912D01*
X28973Y176918D01*
X28932Y176927D01*
X28898Y176937D01*
X28868Y176947D01*
X28852Y176953D01*
X28848Y176957D01*
X28798Y176982D01*
X28752Y177007D01*
X28717Y177032D01*
X28683Y177062D01*
X28653Y177083D01*
X28633Y177102D01*
X28622Y177118D01*
X28618Y177122D01*
X28583Y177167D01*
X28552Y177213D01*
X28523Y177262D01*
X28503Y177307D01*
X28488Y177348D01*
X28473Y177377D01*
X28462Y177398D01*
Y177408D01*
X28442Y177472D01*
X28427Y177542D01*
X28418Y177612D01*
X28407Y177673D01*
Y177727D01*
X28403Y177772D01*
Y177813D01*
X28407Y177902D01*
X28413Y177982D01*
X28422Y178058D01*
X28433Y178118D01*
X28447Y178173D01*
X28457Y178208D01*
X28462Y178233D01*
X28468Y178243D01*
X28493Y178307D01*
X28517Y178367D01*
X28547Y178418D01*
X28572Y178457D01*
X28598Y178492D01*
X28613Y178523D01*
X28627Y178537D01*
X28633Y178542D01*
X28673Y178583D01*
X28717Y178622D01*
X28758Y178653D01*
X28798Y178677D01*
X28833Y178698D01*
X28857Y178712D01*
X28877Y178718D01*
X28883Y178723D01*
X28938Y178743D01*
X28988Y178753D01*
X29043Y178762D01*
X29087Y178772D01*
X29127D01*
X29158Y178778D01*
X29177D01*
X29188D01*
X29278Y178772D01*
X29322Y178768D01*
X29357Y178758D01*
X29388Y178753D01*
X29408Y178747D01*
X29423Y178743D01*
X29427D01*
X29507Y178708D01*
X29542Y178688D01*
X29572Y178667D01*
X29597Y178653D01*
X29618Y178638D01*
X29632Y178632D01*
X29638Y178628D01*
X29708Y178562D01*
X29763Y178503D01*
X29787Y178478D01*
X29803Y178457D01*
X29812Y178443D01*
X29818Y178437D01*
X29877Y178352D01*
X29902Y178307D01*
X29923Y178268D01*
X29943Y178233D01*
X29958Y178208D01*
X29967Y178188D01*
X29972Y178182D01*
X30002Y178243D01*
X30033Y178297D01*
X30062Y178348D01*
X30088Y178393D01*
X30108Y178433D01*
X30128Y178457D01*
X30138Y178478D01*
X30143Y178482D01*
X30213Y178572D01*
X30242Y178607D01*
X30272Y178642D01*
X30297Y178667D01*
X30318Y178688D01*
X30332Y178698D01*
X30338Y178702D01*
X30413Y178762D01*
X30487Y178807D01*
X30518Y178823D01*
X30542Y178832D01*
X30558Y178842D01*
X30562D01*
X30652Y178867D01*
X30698Y178877D01*
X30738Y178883D01*
X30777D01*
X30803Y178887D01*
X30823D01*
X30828D01*
X30893Y178883D01*
D02*
G37*
G36*
X31510Y190690D02*
X31515D01*
X31520D01*
X31530Y190680D01*
X31535Y190670D01*
X31540Y190660D01*
Y190655D01*
X31545Y190635D01*
Y190615D01*
X31550Y190595D01*
Y190590D01*
X31555Y190555D01*
X31560Y190525D01*
Y190450D01*
X31555Y190415D01*
X31550Y190395D01*
Y190390D01*
X31545Y190365D01*
Y190345D01*
X31540Y190335D01*
Y190330D01*
X31535Y190315D01*
X31530Y190305D01*
X31520Y190295D01*
X31510Y190285D01*
X31495Y190280D01*
X31490D01*
X31485D01*
X30365D01*
Y189930D01*
X30360Y189825D01*
X30355Y189730D01*
X30345Y189645D01*
X30330Y189575D01*
X30315Y189515D01*
X30305Y189470D01*
X30300Y189445D01*
X30295Y189435D01*
X30265Y189360D01*
X30235Y189290D01*
X30200Y189230D01*
X30170Y189180D01*
X30140Y189140D01*
X30115Y189110D01*
X30100Y189090D01*
X30095Y189085D01*
X30040Y189035D01*
X29990Y188990D01*
X29935Y188950D01*
X29885Y188920D01*
X29840Y188895D01*
X29805Y188880D01*
X29785Y188870D01*
X29775Y188865D01*
X29700Y188840D01*
X29630Y188820D01*
X29555Y188805D01*
X29490Y188795D01*
X29435Y188790D01*
X29390Y188785D01*
X29360D01*
X29355D01*
X29350D01*
X29285D01*
X29225Y188795D01*
X29170Y188800D01*
X29125Y188810D01*
X29085Y188820D01*
X29055Y188825D01*
X29035Y188835D01*
X29030D01*
X28975Y188855D01*
X28930Y188880D01*
X28885Y188905D01*
X28850Y188925D01*
X28815Y188945D01*
X28795Y188965D01*
X28780Y188975D01*
X28775Y188980D01*
X28700Y189050D01*
X28670Y189090D01*
X28640Y189125D01*
X28620Y189155D01*
X28605Y189180D01*
X28595Y189195D01*
X28590Y189200D01*
X28545Y189295D01*
X28525Y189340D01*
X28510Y189380D01*
X28500Y189410D01*
X28495Y189435D01*
X28490Y189455D01*
Y189460D01*
X28470Y189545D01*
X28465Y189585D01*
X28460Y189615D01*
X28455Y189645D01*
X28450Y189665D01*
Y189680D01*
X28445Y189745D01*
X28440Y189810D01*
Y190535D01*
X28445Y190575D01*
X28460Y190610D01*
X28480Y190635D01*
X28485Y190645D01*
X28500Y190660D01*
X28525Y190675D01*
X28565Y190690D01*
X28590D01*
X28605Y190695D01*
X28615D01*
X28620D01*
X31485D01*
X31510Y190690D01*
D02*
G37*
G36*
X28675Y188325D02*
X28720Y188320D01*
X28745Y188315D01*
X28755Y188310D01*
X28780Y188290D01*
X28795Y188265D01*
X28800Y188245D01*
Y186750D01*
X31440Y187925D01*
X31460Y187935D01*
X31480Y187940D01*
X31490Y187945D01*
X31495D01*
X31510Y187940D01*
X31520Y187935D01*
X31525Y187930D01*
X31530Y187925D01*
X31540Y187905D01*
X31545Y187885D01*
X31550Y187865D01*
Y187860D01*
X31555Y187820D01*
X31560Y187780D01*
Y187690D01*
X31555Y187660D01*
Y187630D01*
X31550Y187600D01*
Y187580D01*
X31545Y187565D01*
Y187560D01*
X31535Y187540D01*
X31530Y187525D01*
X31520Y187520D01*
Y187515D01*
X31485Y187490D01*
X31475Y187480D01*
X31470D01*
X28890Y186365D01*
X28865Y186355D01*
X28845Y186345D01*
X28830Y186340D01*
X28825D01*
X28805Y186330D01*
X28785Y186325D01*
X28770Y186320D01*
X28765D01*
X28740Y186315D01*
X28715D01*
X28700Y186310D01*
X28695D01*
X28670Y186305D01*
X28645D01*
X28625D01*
X28620D01*
X28585D01*
X28555Y186310D01*
X28540Y186315D01*
X28535D01*
X28510Y186320D01*
X28495Y186325D01*
X28485Y186330D01*
X28480Y186335D01*
X28465Y186345D01*
X28455Y186360D01*
X28450Y186370D01*
Y186375D01*
X28440Y186410D01*
Y188255D01*
X28445Y188270D01*
X28450Y188275D01*
X28455Y188280D01*
X28465Y188290D01*
X28475Y188300D01*
X28485Y188305D01*
X28490Y188310D01*
X28505Y188315D01*
X28525Y188320D01*
X28540Y188325D01*
X28545D01*
X28570Y188330D01*
X28595D01*
X28610D01*
X28620D01*
X28675Y188325D01*
D02*
G37*
G36*
X31517Y202205D02*
X31523D01*
X31528D01*
X31538Y202195D01*
X31543Y202185D01*
X31547Y202175D01*
Y202170D01*
X31552Y202150D01*
Y202130D01*
X31558Y202110D01*
Y202105D01*
X31563Y202070D01*
X31567Y202040D01*
Y201965D01*
X31563Y201930D01*
X31558Y201910D01*
Y201905D01*
X31552Y201880D01*
Y201860D01*
X31547Y201850D01*
Y201845D01*
X31543Y201830D01*
X31538Y201820D01*
X31528Y201810D01*
X31517Y201800D01*
X31503Y201795D01*
X31497D01*
X31492D01*
X30373D01*
Y201445D01*
X30367Y201340D01*
X30362Y201245D01*
X30353Y201160D01*
X30338Y201090D01*
X30323Y201030D01*
X30312Y200985D01*
X30307Y200960D01*
X30303Y200950D01*
X30272Y200875D01*
X30242Y200805D01*
X30207Y200745D01*
X30178Y200695D01*
X30147Y200655D01*
X30123Y200625D01*
X30108Y200605D01*
X30103Y200600D01*
X30048Y200550D01*
X29998Y200505D01*
X29943Y200465D01*
X29893Y200435D01*
X29847Y200410D01*
X29812Y200395D01*
X29792Y200385D01*
X29783Y200380D01*
X29708Y200355D01*
X29638Y200335D01*
X29563Y200320D01*
X29498Y200310D01*
X29443Y200305D01*
X29397Y200300D01*
X29368D01*
X29362D01*
X29357D01*
X29293D01*
X29232Y200310D01*
X29177Y200315D01*
X29133Y200325D01*
X29092Y200335D01*
X29063Y200340D01*
X29043Y200350D01*
X29037D01*
X28982Y200370D01*
X28938Y200395D01*
X28892Y200420D01*
X28857Y200440D01*
X28822Y200460D01*
X28802Y200480D01*
X28787Y200490D01*
X28782Y200495D01*
X28708Y200565D01*
X28677Y200605D01*
X28648Y200640D01*
X28627Y200670D01*
X28613Y200695D01*
X28602Y200710D01*
X28598Y200715D01*
X28552Y200810D01*
X28532Y200855D01*
X28517Y200895D01*
X28508Y200925D01*
X28503Y200950D01*
X28497Y200970D01*
Y200975D01*
X28477Y201060D01*
X28473Y201100D01*
X28468Y201130D01*
X28462Y201160D01*
X28457Y201180D01*
Y201195D01*
X28453Y201260D01*
X28447Y201325D01*
Y202050D01*
X28453Y202090D01*
X28468Y202125D01*
X28488Y202150D01*
X28493Y202160D01*
X28508Y202175D01*
X28532Y202190D01*
X28572Y202205D01*
X28598D01*
X28613Y202210D01*
X28622D01*
X28627D01*
X31492D01*
X31517Y202205D01*
D02*
G37*
G36*
X30277Y199825D02*
X30353D01*
X30413Y199820D01*
X30468D01*
X30507Y199815D01*
X30533D01*
X30542D01*
X30612Y199805D01*
X30683Y199795D01*
X30742Y199785D01*
X30797Y199775D01*
X30838Y199765D01*
X30872Y199755D01*
X30893Y199750D01*
X30902D01*
X30962Y199730D01*
X31018Y199715D01*
X31067Y199695D01*
X31113Y199675D01*
X31148Y199660D01*
X31172Y199645D01*
X31192Y199640D01*
X31198Y199635D01*
X31288Y199575D01*
X31323Y199545D01*
X31357Y199515D01*
X31383Y199490D01*
X31403Y199470D01*
X31413Y199455D01*
X31418Y199450D01*
X31473Y199365D01*
X31497Y199320D01*
X31517Y199280D01*
X31532Y199245D01*
X31543Y199215D01*
X31552Y199195D01*
Y199190D01*
X31578Y199075D01*
X31587Y199015D01*
X31593Y198960D01*
Y198915D01*
X31598Y198880D01*
Y198845D01*
X31593Y198745D01*
X31582Y198655D01*
X31572Y198575D01*
X31552Y198510D01*
X31538Y198450D01*
X31528Y198410D01*
X31517Y198385D01*
X31512Y198375D01*
X31477Y198305D01*
X31438Y198240D01*
X31398Y198185D01*
X31363Y198135D01*
X31328Y198095D01*
X31302Y198070D01*
X31282Y198050D01*
X31277Y198045D01*
X31223Y198000D01*
X31163Y197960D01*
X31108Y197930D01*
X31058Y197900D01*
X31012Y197880D01*
X30972Y197865D01*
X30953Y197860D01*
X30942Y197855D01*
X30872Y197835D01*
X30803Y197815D01*
X30733Y197805D01*
X30672Y197800D01*
X30623Y197795D01*
X30582Y197790D01*
X30558D01*
X30547D01*
X30477D01*
X30413Y197800D01*
X30353Y197805D01*
X30297Y197815D01*
X30253Y197825D01*
X30222Y197830D01*
X30198Y197840D01*
X30193D01*
X30132Y197860D01*
X30077Y197880D01*
X30027Y197905D01*
X29987Y197930D01*
X29952Y197955D01*
X29928Y197975D01*
X29912Y197985D01*
X29908Y197990D01*
X29862Y198030D01*
X29827Y198080D01*
X29792Y198125D01*
X29768Y198170D01*
X29748Y198210D01*
X29732Y198240D01*
X29722Y198260D01*
X29717Y198270D01*
X29693Y198335D01*
X29678Y198410D01*
X29662Y198480D01*
X29658Y198545D01*
X29653Y198605D01*
X29647Y198650D01*
Y198695D01*
X29653Y198780D01*
Y198815D01*
X29658Y198850D01*
X29662Y198875D01*
Y198895D01*
X29667Y198910D01*
Y198915D01*
X29682Y198985D01*
X29697Y199050D01*
X29708Y199075D01*
X29713Y199095D01*
X29717Y199105D01*
Y199110D01*
X29737Y199175D01*
X29757Y199230D01*
X29768Y199250D01*
X29778Y199265D01*
X29783Y199275D01*
Y199280D01*
X29807Y199335D01*
X29833Y199380D01*
X29847Y199410D01*
X29853Y199415D01*
Y199420D01*
X29772Y199415D01*
X29693Y199405D01*
X29623Y199400D01*
X29557Y199390D01*
X29502Y199380D01*
X29463Y199370D01*
X29438Y199365D01*
X29427D01*
X29353Y199345D01*
X29287Y199320D01*
X29223Y199295D01*
X29173Y199270D01*
X29133Y199250D01*
X29098Y199230D01*
X29078Y199220D01*
X29072Y199215D01*
X29017Y199175D01*
X28967Y199130D01*
X28927Y199085D01*
X28892Y199045D01*
X28863Y199005D01*
X28842Y198975D01*
X28833Y198955D01*
X28828Y198950D01*
X28798Y198885D01*
X28773Y198820D01*
X28758Y198760D01*
X28743Y198695D01*
X28738Y198645D01*
X28732Y198600D01*
Y198565D01*
X28738Y198480D01*
Y198445D01*
X28743Y198415D01*
X28747Y198390D01*
Y198370D01*
X28752Y198360D01*
Y198355D01*
X28763Y198290D01*
X28778Y198240D01*
X28782Y198220D01*
Y198205D01*
X28787Y198200D01*
Y198195D01*
X28802Y198150D01*
X28813Y198115D01*
X28822Y198095D01*
X28828Y198085D01*
X28837Y198055D01*
X28842Y198035D01*
Y198015D01*
X28837Y197990D01*
X28833Y197980D01*
X28817Y197965D01*
X28808Y197960D01*
X28773Y197950D01*
X28763D01*
X28758D01*
X28732Y197945D01*
X28703D01*
X28683D01*
X28677D01*
X28657D01*
X28642D01*
X28633Y197950D01*
X28627D01*
X28598D01*
X28587Y197955D01*
X28583D01*
X28558Y197965D01*
X28547Y197970D01*
X28528Y197985D01*
X28523Y197990D01*
Y197995D01*
X28512Y198010D01*
X28497Y198035D01*
X28493Y198055D01*
X28488Y198060D01*
Y198065D01*
X28473Y198110D01*
X28457Y198150D01*
X28453Y198180D01*
X28447Y198190D01*
Y198195D01*
X28433Y198255D01*
X28422Y198310D01*
Y198330D01*
X28418Y198350D01*
Y198365D01*
X28407Y198430D01*
X28403Y198485D01*
Y198540D01*
X28407Y198635D01*
X28413Y198725D01*
X28427Y198805D01*
X28438Y198870D01*
X28453Y198930D01*
X28468Y198970D01*
X28473Y198995D01*
X28477Y199005D01*
X28508Y199075D01*
X28537Y199145D01*
X28567Y199200D01*
X28602Y199250D01*
X28627Y199295D01*
X28653Y199325D01*
X28668Y199345D01*
X28673Y199350D01*
X28723Y199400D01*
X28773Y199445D01*
X28817Y199485D01*
X28863Y199520D01*
X28903Y199545D01*
X28932Y199570D01*
X28958Y199580D01*
X28962Y199585D01*
X29087Y199650D01*
X29147Y199675D01*
X29202Y199695D01*
X29247Y199710D01*
X29287Y199725D01*
X29307Y199730D01*
X29318Y199735D01*
X29458Y199770D01*
X29528Y199785D01*
X29588Y199795D01*
X29638Y199800D01*
X29678Y199805D01*
X29702Y199810D01*
X29713D01*
X29787Y199815D01*
X29862Y199820D01*
X29932Y199825D01*
X29992D01*
X30042Y199830D01*
X30082D01*
X30108D01*
X30117D01*
X30202D01*
X30277Y199825D01*
D02*
G37*
G36*
X31495Y211658D02*
X31500D01*
X31505D01*
X31515Y211648D01*
X31520Y211637D01*
X31525Y211628D01*
Y211623D01*
X31530Y211602D01*
Y211582D01*
X31535Y211562D01*
Y211558D01*
X31540Y211523D01*
X31545Y211492D01*
Y211418D01*
X31540Y211383D01*
X31535Y211363D01*
Y211357D01*
X31530Y211333D01*
Y211313D01*
X31525Y211302D01*
Y211297D01*
X31520Y211282D01*
X31515Y211273D01*
X31505Y211262D01*
X31495Y211252D01*
X31480Y211247D01*
X31475D01*
X31470D01*
X30350D01*
Y210897D01*
X30345Y210792D01*
X30340Y210698D01*
X30330Y210613D01*
X30315Y210542D01*
X30300Y210483D01*
X30290Y210437D01*
X30285Y210413D01*
X30280Y210402D01*
X30250Y210328D01*
X30220Y210258D01*
X30185Y210197D01*
X30155Y210148D01*
X30125Y210107D01*
X30100Y210078D01*
X30085Y210057D01*
X30080Y210052D01*
X30025Y210002D01*
X29975Y209958D01*
X29920Y209917D01*
X29870Y209888D01*
X29825Y209862D01*
X29790Y209847D01*
X29770Y209838D01*
X29760Y209833D01*
X29685Y209807D01*
X29615Y209788D01*
X29540Y209772D01*
X29475Y209763D01*
X29420Y209757D01*
X29375Y209752D01*
X29345D01*
X29340D01*
X29335D01*
X29270D01*
X29210Y209763D01*
X29155Y209768D01*
X29110Y209777D01*
X29070Y209788D01*
X29040Y209792D01*
X29020Y209803D01*
X29015D01*
X28960Y209823D01*
X28915Y209847D01*
X28870Y209873D01*
X28835Y209893D01*
X28800Y209912D01*
X28780Y209932D01*
X28765Y209943D01*
X28760Y209947D01*
X28685Y210017D01*
X28655Y210057D01*
X28625Y210092D01*
X28605Y210122D01*
X28590Y210148D01*
X28580Y210162D01*
X28575Y210168D01*
X28530Y210262D01*
X28510Y210308D01*
X28495Y210348D01*
X28485Y210378D01*
X28480Y210402D01*
X28475Y210422D01*
Y210427D01*
X28455Y210512D01*
X28450Y210553D01*
X28445Y210582D01*
X28440Y210613D01*
X28435Y210632D01*
Y210648D01*
X28430Y210713D01*
X28425Y210777D01*
Y211503D01*
X28430Y211543D01*
X28445Y211578D01*
X28465Y211602D01*
X28470Y211613D01*
X28485Y211628D01*
X28510Y211643D01*
X28550Y211658D01*
X28575D01*
X28590Y211663D01*
X28600D01*
X28605D01*
X31470D01*
X31495Y211658D01*
D02*
G37*
G36*
X31325Y209293D02*
X31335D01*
X31340D01*
X31365Y209282D01*
X31370Y209278D01*
X31375D01*
X31395Y209262D01*
X31400Y209253D01*
X31405D01*
X31420Y209232D01*
X31435Y209203D01*
X31445Y209177D01*
X31450Y209173D01*
Y209168D01*
X31470Y209113D01*
X31485Y209063D01*
X31495Y209037D01*
X31500Y209017D01*
X31505Y209008D01*
Y209002D01*
X31520Y208923D01*
X31535Y208847D01*
X31540Y208818D01*
X31545Y208792D01*
X31550Y208777D01*
Y208772D01*
X31565Y208672D01*
X31570Y208628D01*
Y208588D01*
X31575Y208553D01*
Y208498D01*
X31570Y208402D01*
X31565Y208313D01*
X31555Y208232D01*
X31540Y208162D01*
X31530Y208107D01*
X31520Y208063D01*
X31515Y208037D01*
X31510Y208028D01*
X31480Y207947D01*
X31450Y207877D01*
X31415Y207818D01*
X31380Y207763D01*
X31350Y207722D01*
X31325Y207687D01*
X31310Y207667D01*
X31305Y207663D01*
X31250Y207608D01*
X31195Y207558D01*
X31145Y207518D01*
X31090Y207483D01*
X31045Y207457D01*
X31010Y207437D01*
X30990Y207428D01*
X30980Y207422D01*
X30905Y207393D01*
X30830Y207372D01*
X30755Y207358D01*
X30685Y207347D01*
X30625Y207343D01*
X30575Y207337D01*
X30545D01*
X30540D01*
X30535D01*
X30460Y207343D01*
X30395Y207347D01*
X30330Y207358D01*
X30275Y207372D01*
X30235Y207387D01*
X30200Y207398D01*
X30175Y207402D01*
X30170Y207407D01*
X30110Y207433D01*
X30055Y207468D01*
X30005Y207498D01*
X29965Y207527D01*
X29930Y207558D01*
X29905Y207582D01*
X29890Y207597D01*
X29885Y207603D01*
X29845Y207652D01*
X29810Y207702D01*
X29775Y207757D01*
X29750Y207807D01*
X29730Y207853D01*
X29715Y207888D01*
X29710Y207908D01*
X29705Y207917D01*
X29685Y207993D01*
X29665Y208067D01*
X29655Y208142D01*
X29650Y208212D01*
X29645Y208278D01*
X29640Y208323D01*
Y208507D01*
X29645Y208527D01*
Y208623D01*
X29650Y208672D01*
X29655Y208693D01*
Y208707D01*
X29660Y208717D01*
Y208722D01*
X28785D01*
Y207617D01*
X28780Y207593D01*
X28760Y207568D01*
X28745Y207558D01*
X28740Y207553D01*
X28700Y207538D01*
X28655Y207533D01*
X28635Y207527D01*
X28620D01*
X28610D01*
X28605D01*
X28575D01*
X28550Y207533D01*
X28530Y207538D01*
X28525D01*
X28500Y207542D01*
X28485Y207547D01*
X28475Y207553D01*
X28470Y207558D01*
X28445Y207577D01*
X28440Y207582D01*
Y207588D01*
X28430Y207597D01*
X28425Y207612D01*
Y208998D01*
X28430Y209043D01*
X28445Y209078D01*
X28460Y209098D01*
X28465Y209103D01*
X28500Y209122D01*
X28540Y209133D01*
X28570Y209138D01*
X28580D01*
X28585D01*
X29850D01*
X29880D01*
X29905Y209133D01*
X29945Y209122D01*
X29965Y209118D01*
X29970Y209113D01*
X29985Y209083D01*
X29995Y209052D01*
X30000Y209028D01*
Y209017D01*
X29995Y208947D01*
X29990Y208882D01*
Y208857D01*
X29985Y208838D01*
Y208818D01*
X29975Y208733D01*
X29970Y208652D01*
Y208492D01*
X29975Y208428D01*
X29980Y208363D01*
X29990Y208313D01*
X29995Y208273D01*
X30005Y208238D01*
X30010Y208218D01*
Y208212D01*
X30025Y208157D01*
X30045Y208113D01*
X30060Y208067D01*
X30080Y208032D01*
X30100Y208008D01*
X30110Y207982D01*
X30120Y207973D01*
X30125Y207967D01*
X30155Y207932D01*
X30185Y207903D01*
X30250Y207857D01*
X30275Y207842D01*
X30295Y207833D01*
X30310Y207822D01*
X30315D01*
X30400Y207792D01*
X30445Y207783D01*
X30485Y207778D01*
X30520Y207772D01*
X30550D01*
X30570D01*
X30575D01*
X30640D01*
X30695Y207783D01*
X30745Y207792D01*
X30790Y207803D01*
X30825Y207812D01*
X30855Y207822D01*
X30870Y207827D01*
X30875Y207833D01*
X30920Y207853D01*
X30960Y207877D01*
X30995Y207903D01*
X31025Y207927D01*
X31050Y207947D01*
X31065Y207967D01*
X31075Y207978D01*
X31080Y207982D01*
X31130Y208057D01*
X31170Y208133D01*
X31185Y208162D01*
X31190Y208188D01*
X31200Y208208D01*
Y208212D01*
X31220Y208317D01*
X31225Y208367D01*
X31230Y208413D01*
X31235Y208448D01*
Y208573D01*
X31230Y208628D01*
X31225Y208678D01*
X31220Y208722D01*
X31215Y208757D01*
X31210Y208787D01*
X31205Y208803D01*
Y208807D01*
X31180Y208892D01*
X31170Y208932D01*
X31160Y208962D01*
X31150Y208987D01*
X31145Y209008D01*
X31140Y209017D01*
Y209022D01*
X31115Y209078D01*
X31095Y209122D01*
X31080Y209148D01*
X31075Y209157D01*
X31055Y209192D01*
X31050Y209212D01*
X31045Y209227D01*
Y209232D01*
X31050Y209253D01*
X31055Y209258D01*
Y209262D01*
X31075Y209278D01*
X31080Y209282D01*
X31085D01*
X31100Y209288D01*
X31120Y209293D01*
X31135Y209297D01*
X31140D01*
X31165D01*
X31185D01*
X31205D01*
X31210D01*
X31240D01*
X31265D01*
X31280D01*
X31285D01*
X31305D01*
X31325Y209293D01*
D02*
G37*
G36*
X31517Y223230D02*
X31523D01*
X31528D01*
X31538Y223220D01*
X31543Y223210D01*
X31547Y223200D01*
Y223195D01*
X31552Y223175D01*
Y223155D01*
X31558Y223135D01*
Y223130D01*
X31563Y223095D01*
X31567Y223065D01*
Y222990D01*
X31563Y222955D01*
X31558Y222935D01*
Y222930D01*
X31552Y222905D01*
Y222885D01*
X31547Y222875D01*
Y222870D01*
X31543Y222855D01*
X31538Y222845D01*
X31528Y222835D01*
X31517Y222825D01*
X31503Y222820D01*
X31497D01*
X31492D01*
X30373D01*
Y222470D01*
X30367Y222365D01*
X30362Y222270D01*
X30353Y222185D01*
X30338Y222115D01*
X30323Y222055D01*
X30312Y222010D01*
X30307Y221985D01*
X30303Y221975D01*
X30272Y221900D01*
X30242Y221830D01*
X30207Y221770D01*
X30178Y221720D01*
X30147Y221680D01*
X30123Y221650D01*
X30108Y221630D01*
X30103Y221625D01*
X30048Y221575D01*
X29998Y221530D01*
X29943Y221490D01*
X29893Y221460D01*
X29847Y221435D01*
X29812Y221420D01*
X29792Y221410D01*
X29783Y221405D01*
X29708Y221380D01*
X29638Y221360D01*
X29563Y221345D01*
X29498Y221335D01*
X29443Y221330D01*
X29397Y221325D01*
X29368D01*
X29362D01*
X29357D01*
X29293D01*
X29232Y221335D01*
X29177Y221340D01*
X29133Y221350D01*
X29092Y221360D01*
X29063Y221365D01*
X29043Y221375D01*
X29037D01*
X28982Y221395D01*
X28938Y221420D01*
X28892Y221445D01*
X28857Y221465D01*
X28822Y221485D01*
X28802Y221505D01*
X28787Y221515D01*
X28782Y221520D01*
X28708Y221590D01*
X28677Y221630D01*
X28648Y221665D01*
X28627Y221695D01*
X28613Y221720D01*
X28602Y221735D01*
X28598Y221740D01*
X28552Y221835D01*
X28532Y221880D01*
X28517Y221920D01*
X28508Y221950D01*
X28503Y221975D01*
X28497Y221995D01*
Y222000D01*
X28477Y222085D01*
X28473Y222125D01*
X28468Y222155D01*
X28462Y222185D01*
X28457Y222205D01*
Y222220D01*
X28453Y222285D01*
X28447Y222350D01*
Y223075D01*
X28453Y223115D01*
X28468Y223150D01*
X28488Y223175D01*
X28493Y223185D01*
X28508Y223200D01*
X28532Y223215D01*
X28572Y223230D01*
X28598D01*
X28613Y223235D01*
X28622D01*
X28627D01*
X31492D01*
X31517Y223230D01*
D02*
G37*
G36*
X30733Y220995D02*
X30753D01*
X30757D01*
X30782Y220990D01*
X30797Y220985D01*
X30808Y220975D01*
X30812D01*
X30823Y220965D01*
X30832Y220950D01*
X30838Y220945D01*
Y220940D01*
X30843Y220910D01*
Y219620D01*
X31497D01*
X31517Y219615D01*
X31523D01*
X31528D01*
X31547Y219595D01*
X31552Y219590D01*
Y219585D01*
X31558Y219565D01*
Y219545D01*
X31563Y219525D01*
Y219520D01*
X31567Y219485D01*
Y219375D01*
X31563Y219345D01*
Y219315D01*
X31558Y219290D01*
Y219265D01*
X31552Y219255D01*
Y219250D01*
X31543Y219235D01*
X31538Y219225D01*
X31528Y219215D01*
X31508Y219205D01*
X31497D01*
X30843D01*
Y218855D01*
X30838Y218830D01*
X30817Y218805D01*
X30803Y218795D01*
X30797Y218790D01*
X30757Y218775D01*
X30718Y218770D01*
X30687Y218765D01*
X30678D01*
X30672D01*
X30617Y218770D01*
X30577Y218775D01*
X30553Y218785D01*
X30547Y218790D01*
X30523Y218810D01*
X30507Y218830D01*
X30503Y218850D01*
Y219205D01*
X28517D01*
X28503Y219210D01*
X28493Y219215D01*
X28482Y219220D01*
Y219225D01*
X28473Y219245D01*
X28462Y219260D01*
X28457Y219280D01*
Y219285D01*
X28453Y219315D01*
X28447Y219345D01*
X28442Y219370D01*
Y219380D01*
X28438Y219425D01*
X28433Y219470D01*
Y219615D01*
X28438Y219640D01*
Y219650D01*
X28442Y219685D01*
X28447Y219715D01*
X28453Y219735D01*
Y219740D01*
X28462Y219765D01*
X28468Y219785D01*
X28473Y219795D01*
X28477Y219800D01*
X28488Y219815D01*
X28497Y219825D01*
X28503Y219835D01*
X28508D01*
X30397Y220945D01*
X30422Y220955D01*
X30443Y220965D01*
X30457Y220970D01*
X30463Y220975D01*
X30498Y220990D01*
X30512Y220995D01*
X30518D01*
X30542Y221000D01*
X30562D01*
X30577D01*
X30582D01*
X30608D01*
X30637D01*
X30652D01*
X30663D01*
X30702D01*
X30733Y220995D01*
D02*
G37*
G36*
X31517Y232652D02*
X31523D01*
X31528D01*
X31538Y232643D01*
X31543Y232632D01*
X31547Y232623D01*
Y232617D01*
X31552Y232597D01*
Y232577D01*
X31558Y232558D01*
Y232553D01*
X31563Y232518D01*
X31567Y232488D01*
Y232413D01*
X31563Y232378D01*
X31558Y232358D01*
Y232352D01*
X31552Y232328D01*
Y232308D01*
X31547Y232297D01*
Y232293D01*
X31543Y232277D01*
X31538Y232267D01*
X31528Y232258D01*
X31517Y232247D01*
X31503Y232242D01*
X31497D01*
X31492D01*
X30373D01*
Y231892D01*
X30367Y231787D01*
X30362Y231693D01*
X30353Y231608D01*
X30338Y231538D01*
X30323Y231477D01*
X30312Y231433D01*
X30307Y231407D01*
X30303Y231398D01*
X30272Y231323D01*
X30242Y231253D01*
X30207Y231192D01*
X30178Y231142D01*
X30147Y231102D01*
X30123Y231072D01*
X30108Y231052D01*
X30103Y231048D01*
X30048Y230997D01*
X29998Y230953D01*
X29943Y230912D01*
X29893Y230883D01*
X29847Y230857D01*
X29812Y230842D01*
X29792Y230833D01*
X29783Y230827D01*
X29708Y230802D01*
X29638Y230783D01*
X29563Y230767D01*
X29498Y230757D01*
X29443Y230752D01*
X29397Y230748D01*
X29368D01*
X29362D01*
X29357D01*
X29293D01*
X29232Y230757D01*
X29177Y230763D01*
X29133Y230772D01*
X29092Y230783D01*
X29063Y230787D01*
X29043Y230798D01*
X29037D01*
X28982Y230818D01*
X28938Y230842D01*
X28892Y230868D01*
X28857Y230888D01*
X28822Y230908D01*
X28802Y230927D01*
X28787Y230938D01*
X28782Y230943D01*
X28708Y231013D01*
X28677Y231052D01*
X28648Y231087D01*
X28627Y231118D01*
X28613Y231142D01*
X28602Y231157D01*
X28598Y231163D01*
X28552Y231258D01*
X28532Y231302D01*
X28517Y231343D01*
X28508Y231372D01*
X28503Y231398D01*
X28497Y231417D01*
Y231422D01*
X28477Y231507D01*
X28473Y231547D01*
X28468Y231577D01*
X28462Y231608D01*
X28457Y231627D01*
Y231643D01*
X28453Y231708D01*
X28447Y231772D01*
Y232498D01*
X28453Y232538D01*
X28468Y232573D01*
X28488Y232597D01*
X28493Y232608D01*
X28508Y232623D01*
X28532Y232638D01*
X28572Y232652D01*
X28598D01*
X28613Y232658D01*
X28622D01*
X28627D01*
X31492D01*
X31517Y232652D01*
D02*
G37*
G36*
X31282Y230282D02*
X31302D01*
X31313Y230277D01*
X31317D01*
X31343Y230262D01*
X31352Y230258D01*
X31357D01*
X31383Y230242D01*
X31387Y230233D01*
X31392D01*
X31407Y230207D01*
X31427Y230177D01*
X31442Y230153D01*
X31447Y230148D01*
Y230142D01*
X31473Y230087D01*
X31497Y230028D01*
X31503Y230002D01*
X31512Y229982D01*
X31517Y229973D01*
Y229967D01*
X31538Y229888D01*
X31558Y229807D01*
X31563Y229778D01*
X31567Y229752D01*
X31572Y229732D01*
Y229728D01*
X31587Y229627D01*
X31593Y229577D01*
Y229533D01*
X31598Y229492D01*
Y229437D01*
X31593Y229343D01*
X31587Y229257D01*
X31578Y229177D01*
X31563Y229107D01*
X31552Y229052D01*
X31543Y229012D01*
X31538Y228988D01*
X31532Y228977D01*
X31508Y228903D01*
X31477Y228837D01*
X31447Y228778D01*
X31418Y228728D01*
X31387Y228688D01*
X31367Y228658D01*
X31352Y228638D01*
X31348Y228632D01*
X31297Y228583D01*
X31247Y228538D01*
X31198Y228502D01*
X31152Y228472D01*
X31113Y228448D01*
X31082Y228432D01*
X31058Y228422D01*
X31053Y228417D01*
X30988Y228393D01*
X30918Y228373D01*
X30852Y228362D01*
X30792Y228352D01*
X30742Y228347D01*
X30702Y228343D01*
X30678D01*
X30667D01*
X30612D01*
X30562Y228352D01*
X30512Y228358D01*
X30472Y228367D01*
X30437Y228378D01*
X30413Y228387D01*
X30397Y228393D01*
X30393Y228397D01*
X30303Y228443D01*
X30263Y228467D01*
X30233Y228492D01*
X30202Y228513D01*
X30182Y228533D01*
X30173Y228542D01*
X30167Y228548D01*
X30103Y228623D01*
X30053Y228697D01*
X30033Y228728D01*
X30018Y228752D01*
X30013Y228772D01*
X30007Y228778D01*
X29967Y228883D01*
X29952Y228932D01*
X29943Y228977D01*
X29937Y229012D01*
X29932Y229047D01*
X29928Y229067D01*
Y229072D01*
X29923D01*
X29897Y228973D01*
X29882Y228932D01*
X29868Y228898D01*
X29853Y228868D01*
X29838Y228848D01*
X29833Y228833D01*
X29827Y228828D01*
X29772Y228752D01*
X29743Y228723D01*
X29717Y228693D01*
X29697Y228673D01*
X29678Y228658D01*
X29667Y228647D01*
X29662Y228643D01*
X29583Y228592D01*
X29513Y228557D01*
X29482Y228542D01*
X29458Y228533D01*
X29443Y228527D01*
X29438D01*
X29342Y228502D01*
X29298Y228498D01*
X29258Y228492D01*
X29217Y228487D01*
X29193D01*
X29173D01*
X29168D01*
X29107D01*
X29048Y228498D01*
X28993Y228502D01*
X28947Y228513D01*
X28912Y228522D01*
X28883Y228533D01*
X28863Y228538D01*
X28857Y228542D01*
X28808Y228568D01*
X28763Y228592D01*
X28717Y228618D01*
X28683Y228647D01*
X28657Y228667D01*
X28637Y228688D01*
X28622Y228702D01*
X28618Y228708D01*
X28583Y228752D01*
X28552Y228798D01*
X28523Y228842D01*
X28503Y228888D01*
X28488Y228923D01*
X28473Y228953D01*
X28462Y228977D01*
Y228982D01*
X28442Y229043D01*
X28427Y229107D01*
X28418Y229172D01*
X28407Y229227D01*
Y229282D01*
X28403Y229323D01*
Y229358D01*
X28407Y229468D01*
X28413Y229518D01*
X28418Y229562D01*
X28422Y229597D01*
X28427Y229623D01*
X28433Y229643D01*
Y229647D01*
X28457Y229737D01*
X28468Y229778D01*
X28482Y229813D01*
X28493Y229842D01*
X28497Y229862D01*
X28508Y229877D01*
Y229883D01*
X28537Y229953D01*
X28563Y230002D01*
X28578Y230023D01*
X28583Y230037D01*
X28593Y230047D01*
Y230052D01*
X28618Y230098D01*
X28637Y230128D01*
X28653Y230142D01*
X28657Y230148D01*
X28683Y230168D01*
X28692Y230177D01*
X28697D01*
X28723Y230192D01*
X28727Y230198D01*
X28732D01*
X28763Y230203D01*
X28778D01*
X28782D01*
X28822D01*
X28837D01*
X28842D01*
X28877D01*
X28907D01*
X28927D01*
X28932D01*
X28953Y230198D01*
X28967D01*
X28978Y230192D01*
X28982D01*
X28997Y230177D01*
X29002Y230168D01*
X29008Y230148D01*
Y230137D01*
X29002Y230113D01*
X28988Y230087D01*
X28973Y230063D01*
X28967Y230052D01*
X28938Y230002D01*
X28907Y229953D01*
X28898Y229932D01*
X28888Y229918D01*
X28877Y229907D01*
Y229903D01*
X28842Y229833D01*
X28813Y229767D01*
X28802Y229737D01*
X28793Y229717D01*
X28787Y229702D01*
Y229697D01*
X28763Y229608D01*
X28752Y229562D01*
X28747Y229522D01*
X28743Y229487D01*
Y229437D01*
X28747Y229352D01*
X28752Y229312D01*
X28763Y229282D01*
X28767Y229253D01*
X28778Y229233D01*
X28782Y229222D01*
Y229218D01*
X28813Y229152D01*
X28848Y229098D01*
X28857Y229082D01*
X28872Y229067D01*
X28877Y229063D01*
X28883Y229058D01*
X28932Y229017D01*
X28982Y228988D01*
X29008Y228977D01*
X29022Y228967D01*
X29032Y228962D01*
X29037D01*
X29103Y228942D01*
X29158Y228932D01*
X29182Y228927D01*
X29202D01*
X29212D01*
X29217D01*
X29313Y228938D01*
X29353Y228942D01*
X29388Y228953D01*
X29417Y228962D01*
X29438Y228967D01*
X29452Y228977D01*
X29458D01*
X29533Y229017D01*
X29588Y229063D01*
X29612Y229082D01*
X29627Y229098D01*
X29638Y229107D01*
X29643Y229113D01*
X29693Y229183D01*
X29728Y229253D01*
X29743Y229282D01*
X29748Y229308D01*
X29757Y229323D01*
Y229328D01*
X29783Y229422D01*
X29787Y229472D01*
X29792Y229513D01*
X29798Y229553D01*
Y229877D01*
X29803Y229907D01*
X29807Y229912D01*
Y229918D01*
X29827Y229938D01*
X29833Y229942D01*
X29838Y229947D01*
X29853Y229958D01*
X29868Y229962D01*
X29877Y229967D01*
X29882D01*
X29908Y229973D01*
X29932D01*
X29948D01*
X29958D01*
X29992D01*
X30018Y229967D01*
X30033D01*
X30038D01*
X30057Y229958D01*
X30073Y229953D01*
X30082Y229947D01*
X30088D01*
X30108Y229923D01*
X30117Y229918D01*
Y229912D01*
X30123Y229883D01*
Y229498D01*
X30128Y229433D01*
X30138Y229378D01*
X30143Y229328D01*
X30152Y229282D01*
X30163Y229253D01*
X30167Y229233D01*
Y229227D01*
X30182Y229172D01*
X30202Y229122D01*
X30222Y229082D01*
X30242Y229047D01*
X30257Y229017D01*
X30272Y228997D01*
X30283Y228982D01*
X30288Y228977D01*
X30347Y228907D01*
X30408Y228857D01*
X30433Y228842D01*
X30448Y228828D01*
X30463Y228818D01*
X30468D01*
X30507Y228798D01*
X30547Y228787D01*
X30623Y228767D01*
X30658D01*
X30683Y228763D01*
X30698D01*
X30702D01*
X30788Y228767D01*
X30828Y228778D01*
X30858Y228783D01*
X30887Y228793D01*
X30907Y228802D01*
X30922Y228807D01*
X30928D01*
X30997Y228842D01*
X31053Y228883D01*
X31073Y228903D01*
X31087Y228918D01*
X31097Y228927D01*
X31102Y228932D01*
X31152Y229002D01*
X31187Y229067D01*
X31203Y229098D01*
X31207Y229122D01*
X31218Y229137D01*
Y229142D01*
X31242Y229238D01*
X31247Y229288D01*
X31253Y229328D01*
X31258Y229367D01*
Y229487D01*
X31253Y229542D01*
X31247Y229597D01*
X31238Y229643D01*
X31233Y229678D01*
X31227Y229708D01*
X31223Y229728D01*
Y229732D01*
X31192Y229827D01*
X31177Y229868D01*
X31168Y229903D01*
X31157Y229932D01*
X31148Y229953D01*
X31143Y229967D01*
Y229973D01*
X31113Y230043D01*
X31082Y230093D01*
X31073Y230113D01*
X31062Y230128D01*
X31058Y230133D01*
Y230137D01*
X31032Y230177D01*
X31023Y230203D01*
X31018Y230218D01*
Y230223D01*
X31023Y230242D01*
X31032Y230262D01*
X31047Y230268D01*
X31053Y230273D01*
X31087Y230282D01*
X31128Y230288D01*
X31157D01*
X31168D01*
X31172D01*
X31207D01*
X31233D01*
X31253D01*
X31258D01*
X31282Y230282D01*
D02*
G37*
G36*
X31532Y244167D02*
X31538D01*
X31543D01*
X31552Y244158D01*
X31558Y244147D01*
X31563Y244138D01*
Y244132D01*
X31567Y244112D01*
Y244092D01*
X31572Y244073D01*
Y244068D01*
X31578Y244033D01*
X31582Y244003D01*
Y243928D01*
X31578Y243893D01*
X31572Y243872D01*
Y243867D01*
X31567Y243843D01*
Y243823D01*
X31563Y243812D01*
Y243808D01*
X31558Y243793D01*
X31552Y243782D01*
X31543Y243773D01*
X31532Y243762D01*
X31517Y243758D01*
X31512D01*
X31508D01*
X30387D01*
Y243408D01*
X30382Y243302D01*
X30378Y243208D01*
X30367Y243123D01*
X30353Y243053D01*
X30338Y242992D01*
X30327Y242948D01*
X30323Y242922D01*
X30318Y242913D01*
X30288Y242838D01*
X30257Y242768D01*
X30222Y242707D01*
X30193Y242657D01*
X30163Y242618D01*
X30138Y242587D01*
X30123Y242567D01*
X30117Y242563D01*
X30062Y242512D01*
X30013Y242467D01*
X29958Y242427D01*
X29908Y242397D01*
X29862Y242372D01*
X29827Y242357D01*
X29807Y242348D01*
X29798Y242342D01*
X29722Y242318D01*
X29653Y242298D01*
X29577Y242283D01*
X29513Y242272D01*
X29458Y242267D01*
X29412Y242263D01*
X29383D01*
X29377D01*
X29373D01*
X29307D01*
X29247Y242272D01*
X29193Y242278D01*
X29147Y242287D01*
X29107Y242298D01*
X29078Y242302D01*
X29057Y242313D01*
X29052D01*
X28997Y242333D01*
X28953Y242357D01*
X28907Y242383D01*
X28872Y242403D01*
X28837Y242423D01*
X28817Y242442D01*
X28802Y242453D01*
X28798Y242458D01*
X28723Y242528D01*
X28692Y242567D01*
X28662Y242602D01*
X28642Y242633D01*
X28627Y242657D01*
X28618Y242672D01*
X28613Y242677D01*
X28567Y242773D01*
X28547Y242817D01*
X28532Y242858D01*
X28523Y242887D01*
X28517Y242913D01*
X28512Y242933D01*
Y242937D01*
X28493Y243022D01*
X28488Y243062D01*
X28482Y243092D01*
X28477Y243123D01*
X28473Y243143D01*
Y243158D01*
X28468Y243222D01*
X28462Y243287D01*
Y244012D01*
X28468Y244053D01*
X28482Y244088D01*
X28503Y244112D01*
X28508Y244123D01*
X28523Y244138D01*
X28547Y244152D01*
X28587Y244167D01*
X28613D01*
X28627Y244173D01*
X28637D01*
X28642D01*
X31508D01*
X31532Y244167D01*
D02*
G37*
G36*
X31453Y241768D02*
X31473D01*
X31477D01*
X31503Y241757D01*
X31517Y241753D01*
X31528Y241742D01*
X31532D01*
X31552Y241712D01*
X31563Y241703D01*
Y241698D01*
X31567Y241657D01*
Y239922D01*
X31563Y239893D01*
X31558Y239887D01*
Y239882D01*
X31538Y239858D01*
X31532Y239852D01*
X31528D01*
X31492Y239843D01*
X31477Y239838D01*
X31473D01*
X31447Y239832D01*
X31418Y239827D01*
X31398D01*
X31392D01*
X31363D01*
X31337Y239832D01*
X31323Y239838D01*
X31317D01*
X31293Y239843D01*
X31277Y239847D01*
X31267Y239852D01*
X31262Y239858D01*
X31238Y239878D01*
X31233Y239882D01*
Y239887D01*
X31223Y239897D01*
X31218Y239913D01*
Y241272D01*
X30707Y240782D01*
X30608Y240687D01*
X30518Y240602D01*
X30433Y240532D01*
X30362Y240473D01*
X30303Y240423D01*
X30257Y240388D01*
X30233Y240363D01*
X30222Y240357D01*
X30147Y240298D01*
X30073Y240248D01*
X30007Y240208D01*
X29952Y240173D01*
X29908Y240142D01*
X29873Y240123D01*
X29853Y240112D01*
X29842Y240107D01*
X29778Y240077D01*
X29722Y240053D01*
X29667Y240037D01*
X29618Y240022D01*
X29577Y240007D01*
X29548Y240002D01*
X29528Y239998D01*
X29522D01*
X29412Y239978D01*
X29362Y239972D01*
X29318D01*
X29283Y239967D01*
X29252D01*
X29232D01*
X29228D01*
X29168D01*
X29107Y239978D01*
X29057Y239987D01*
X29013Y239998D01*
X28973Y240007D01*
X28942Y240018D01*
X28923Y240022D01*
X28918Y240027D01*
X28863Y240053D01*
X28813Y240077D01*
X28767Y240103D01*
X28732Y240132D01*
X28703Y240153D01*
X28677Y240173D01*
X28662Y240188D01*
X28657Y240193D01*
X28618Y240237D01*
X28583Y240283D01*
X28552Y240328D01*
X28528Y240372D01*
X28508Y240412D01*
X28493Y240442D01*
X28488Y240462D01*
X28482Y240473D01*
X28462Y240538D01*
X28442Y240608D01*
X28433Y240672D01*
X28427Y240733D01*
X28422Y240788D01*
X28418Y240827D01*
Y240867D01*
X28422Y240967D01*
X28427Y241013D01*
X28433Y241053D01*
X28438Y241088D01*
X28442Y241112D01*
X28447Y241132D01*
Y241138D01*
X28473Y241228D01*
X28482Y241267D01*
X28497Y241302D01*
X28508Y241333D01*
X28512Y241353D01*
X28523Y241368D01*
Y241372D01*
X28552Y241442D01*
X28578Y241502D01*
X28593Y241523D01*
X28598Y241537D01*
X28607Y241547D01*
Y241552D01*
X28633Y241598D01*
X28653Y241628D01*
X28668Y241648D01*
X28673Y241652D01*
X28688Y241668D01*
X28703Y241677D01*
X28712Y241687D01*
X28717D01*
X28743Y241703D01*
X28747Y241707D01*
X28752D01*
X28782Y241712D01*
X28793D01*
X28798D01*
X28837D01*
X28852D01*
X28857D01*
X28892D01*
X28923D01*
X28942D01*
X28947D01*
X28973Y241707D01*
X28993Y241703D01*
X29002Y241698D01*
X29008D01*
X29028Y241683D01*
X29037Y241677D01*
X29043Y241652D01*
Y241642D01*
X29037Y241617D01*
X29022Y241587D01*
X29008Y241563D01*
X29002Y241552D01*
X28973Y241502D01*
X28942Y241453D01*
X28932Y241432D01*
X28923Y241418D01*
X28918Y241407D01*
Y241403D01*
X28883Y241333D01*
X28852Y241263D01*
X28842Y241237D01*
X28833Y241213D01*
X28828Y241197D01*
Y241193D01*
X28802Y241097D01*
X28793Y241053D01*
X28787Y241007D01*
X28782Y240972D01*
Y240917D01*
X28787Y240827D01*
X28798Y240788D01*
X28802Y240757D01*
X28813Y240727D01*
X28822Y240707D01*
X28828Y240698D01*
Y240692D01*
X28863Y240622D01*
X28898Y240573D01*
X28912Y240552D01*
X28927Y240538D01*
X28932Y240532D01*
X28938Y240528D01*
X28993Y240482D01*
X29048Y240447D01*
X29068Y240438D01*
X29087Y240427D01*
X29098Y240423D01*
X29103D01*
X29168Y240403D01*
X29232Y240392D01*
X29258Y240388D01*
X29278D01*
X29287D01*
X29293D01*
X29373Y240392D01*
X29443Y240398D01*
X29473Y240403D01*
X29498Y240407D01*
X29513Y240412D01*
X29517D01*
X29563Y240423D01*
X29607Y240438D01*
X29653Y240453D01*
X29693Y240468D01*
X29728Y240482D01*
X29752Y240497D01*
X29772Y240503D01*
X29778Y240508D01*
X29833Y240538D01*
X29888Y240567D01*
X29943Y240602D01*
X29987Y240633D01*
X30033Y240663D01*
X30068Y240687D01*
X30088Y240703D01*
X30097Y240707D01*
X30163Y240757D01*
X30233Y240817D01*
X30297Y240873D01*
X30362Y240928D01*
X30413Y240978D01*
X30457Y241018D01*
X30483Y241042D01*
X30487Y241048D01*
X30492Y241053D01*
X31128Y241677D01*
X31148Y241698D01*
X31168Y241712D01*
X31183Y241722D01*
X31187Y241727D01*
X31207Y241738D01*
X31227Y241747D01*
X31242Y241753D01*
X31247Y241757D01*
X31288Y241768D01*
X31302Y241773D01*
X31308D01*
X31337D01*
X31363D01*
X31383D01*
X31392D01*
X31427D01*
X31453Y241768D01*
D02*
G37*
G36*
X31520Y253673D02*
X31525D01*
X31530D01*
X31540Y253662D01*
X31545Y253653D01*
X31550Y253643D01*
Y253638D01*
X31555Y253618D01*
Y253597D01*
X31560Y253577D01*
Y253573D01*
X31565Y253538D01*
X31570Y253507D01*
Y253432D01*
X31565Y253397D01*
X31560Y253378D01*
Y253373D01*
X31555Y253347D01*
Y253327D01*
X31550Y253317D01*
Y253312D01*
X31545Y253297D01*
X31540Y253288D01*
X31530Y253277D01*
X31520Y253268D01*
X31505Y253262D01*
X31500D01*
X31495D01*
X30375D01*
Y252912D01*
X30370Y252807D01*
X30365Y252712D01*
X30355Y252627D01*
X30340Y252557D01*
X30325Y252498D01*
X30315Y252452D01*
X30310Y252428D01*
X30305Y252417D01*
X30275Y252343D01*
X30245Y252273D01*
X30210Y252213D01*
X30180Y252163D01*
X30150Y252122D01*
X30125Y252093D01*
X30110Y252073D01*
X30105Y252067D01*
X30050Y252017D01*
X30000Y251973D01*
X29945Y251933D01*
X29895Y251903D01*
X29850Y251877D01*
X29815Y251863D01*
X29795Y251852D01*
X29785Y251848D01*
X29710Y251822D01*
X29640Y251802D01*
X29565Y251787D01*
X29500Y251778D01*
X29445Y251772D01*
X29400Y251767D01*
X29370D01*
X29365D01*
X29360D01*
X29295D01*
X29235Y251778D01*
X29180Y251782D01*
X29135Y251793D01*
X29095Y251802D01*
X29065Y251807D01*
X29045Y251817D01*
X29040D01*
X28985Y251837D01*
X28940Y251863D01*
X28895Y251887D01*
X28860Y251907D01*
X28825Y251927D01*
X28805Y251947D01*
X28790Y251958D01*
X28785Y251962D01*
X28710Y252032D01*
X28680Y252073D01*
X28650Y252108D01*
X28630Y252137D01*
X28615Y252163D01*
X28605Y252178D01*
X28600Y252183D01*
X28555Y252277D01*
X28535Y252323D01*
X28520Y252362D01*
X28510Y252393D01*
X28505Y252417D01*
X28500Y252437D01*
Y252443D01*
X28480Y252527D01*
X28475Y252568D01*
X28470Y252597D01*
X28465Y252627D01*
X28460Y252647D01*
Y252662D01*
X28455Y252728D01*
X28450Y252793D01*
Y253518D01*
X28455Y253557D01*
X28470Y253592D01*
X28490Y253618D01*
X28495Y253627D01*
X28510Y253643D01*
X28535Y253658D01*
X28575Y253673D01*
X28600D01*
X28615Y253678D01*
X28625D01*
X28630D01*
X31495D01*
X31520Y253673D01*
D02*
G37*
G36*
X29170Y251128D02*
X29190D01*
X29195D01*
X29215Y251122D01*
X29235Y251117D01*
X29240Y251108D01*
X29245D01*
X29255Y251093D01*
Y251062D01*
X29250Y251038D01*
X29240Y251012D01*
X29230Y250992D01*
X29225Y250988D01*
X28865Y250388D01*
X31225D01*
Y251052D01*
X31230Y251062D01*
X31235Y251067D01*
X31240Y251073D01*
X31260Y251093D01*
X31265Y251097D01*
X31270Y251102D01*
X31300Y251113D01*
X31315Y251117D01*
X31320D01*
X31345Y251122D01*
X31370D01*
X31385D01*
X31395D01*
X31425D01*
X31450Y251117D01*
X31465D01*
X31470D01*
X31490Y251113D01*
X31505Y251108D01*
X31515Y251097D01*
X31520D01*
X31540Y251078D01*
X31550Y251073D01*
X31555Y251047D01*
Y249412D01*
X31550Y249388D01*
Y249377D01*
X31530Y249358D01*
X31525Y249353D01*
X31520D01*
X31485Y249338D01*
X31475Y249332D01*
X31470D01*
X31445Y249327D01*
X31420Y249323D01*
X31400D01*
X31395D01*
X31365D01*
X31340Y249327D01*
X31325Y249332D01*
X31320D01*
X31300Y249338D01*
X31285Y249342D01*
X31275Y249347D01*
X31270D01*
X31245Y249367D01*
X31240Y249373D01*
Y249377D01*
X31230Y249388D01*
X31225Y249402D01*
Y249973D01*
X28500D01*
X28480Y249977D01*
X28475Y249983D01*
X28465Y249988D01*
X28455Y249997D01*
X28450Y250008D01*
Y250012D01*
X28445Y250032D01*
X28440Y250047D01*
X28435Y250067D01*
Y250073D01*
X28430Y250102D01*
Y250222D01*
X28435Y250237D01*
Y250277D01*
X28440Y250288D01*
Y250292D01*
X28445Y250318D01*
X28450Y250323D01*
Y250327D01*
X28455Y250347D01*
X28460Y250353D01*
X28920Y251067D01*
X28940Y251093D01*
X28945Y251097D01*
X28950Y251102D01*
X28975Y251117D01*
X28980Y251122D01*
X28985D01*
X29015Y251128D01*
X29030Y251132D01*
X29035D01*
X29055D01*
X29075D01*
X29095D01*
X29100D01*
X29140D01*
X29170Y251128D01*
D02*
G37*
G36*
X-1339Y179124D02*
X-1299D01*
X-1289Y179119D01*
X-1284D01*
X-1259Y179114D01*
X-1254Y179109D01*
X-1249D01*
X-1229Y179104D01*
X-1224Y179099D01*
X-509Y178639D01*
X-484Y178619D01*
X-479Y178614D01*
X-474Y178609D01*
X-459Y178584D01*
X-454Y178579D01*
Y178574D01*
X-449Y178544D01*
X-444Y178529D01*
Y178524D01*
Y178504D01*
Y178484D01*
Y178464D01*
Y178459D01*
Y178419D01*
X-449Y178389D01*
Y178369D01*
Y178364D01*
X-454Y178344D01*
X-459Y178324D01*
X-469Y178319D01*
Y178314D01*
X-484Y178304D01*
X-514D01*
X-539Y178309D01*
X-564Y178319D01*
X-584Y178329D01*
X-589Y178334D01*
X-1189Y178694D01*
Y176334D01*
X-524D01*
X-514Y176329D01*
X-509Y176324D01*
X-504Y176319D01*
X-484Y176299D01*
X-479Y176294D01*
X-474Y176289D01*
X-464Y176259D01*
X-459Y176244D01*
Y176239D01*
X-454Y176214D01*
Y176189D01*
Y176174D01*
Y176164D01*
Y176134D01*
X-459Y176109D01*
Y176094D01*
Y176089D01*
X-464Y176069D01*
X-469Y176054D01*
X-479Y176044D01*
Y176039D01*
X-499Y176019D01*
X-504Y176009D01*
X-529Y176004D01*
X-2164D01*
X-2189Y176009D01*
X-2199D01*
X-2219Y176029D01*
X-2224Y176034D01*
Y176039D01*
X-2239Y176074D01*
X-2244Y176084D01*
Y176089D01*
X-2249Y176114D01*
X-2254Y176139D01*
Y176159D01*
Y176164D01*
Y176194D01*
X-2249Y176219D01*
X-2244Y176234D01*
Y176239D01*
X-2239Y176259D01*
X-2234Y176274D01*
X-2229Y176284D01*
Y176289D01*
X-2209Y176314D01*
X-2204Y176319D01*
X-2199D01*
X-2189Y176329D01*
X-2174Y176334D01*
X-1604D01*
Y179059D01*
X-1599Y179079D01*
X-1594Y179084D01*
X-1589Y179094D01*
X-1579Y179104D01*
X-1569Y179109D01*
X-1564D01*
X-1544Y179114D01*
X-1529Y179119D01*
X-1509Y179124D01*
X-1504D01*
X-1474Y179129D01*
X-1354D01*
X-1339Y179124D01*
D02*
G37*
G36*
X2121Y179104D02*
X2156Y179089D01*
X2176Y179074D01*
X2186Y179069D01*
X2201Y179054D01*
X2211Y179034D01*
X2226Y178989D01*
Y178969D01*
X2231Y178954D01*
Y178944D01*
Y178939D01*
Y176064D01*
X2226Y176039D01*
Y176034D01*
Y176029D01*
X2216Y176019D01*
X2206Y176014D01*
X2196Y176009D01*
X2191D01*
X2171Y176004D01*
X2151D01*
X2131Y175999D01*
X2126D01*
X2091Y175994D01*
X2061Y175989D01*
X1986D01*
X1951Y175994D01*
X1931Y175999D01*
X1926D01*
X1901Y176004D01*
X1881D01*
X1871Y176009D01*
X1866D01*
X1851Y176014D01*
X1841Y176019D01*
X1831Y176029D01*
X1821Y176039D01*
X1816Y176054D01*
Y176059D01*
Y176064D01*
Y177389D01*
X1491D01*
X1446Y177384D01*
X1401Y177374D01*
X1366Y177369D01*
X1341Y177359D01*
X1321Y177349D01*
X1306Y177344D01*
X1301D01*
X1231Y177309D01*
X1176Y177269D01*
X1156Y177254D01*
X1141Y177239D01*
X1131Y177229D01*
X1126Y177224D01*
X1076Y177164D01*
X1036Y177104D01*
X1021Y177079D01*
X1011Y177064D01*
X1001Y177049D01*
Y177044D01*
X961Y176969D01*
X926Y176894D01*
X916Y176864D01*
X906Y176839D01*
X896Y176824D01*
Y176819D01*
X611Y176084D01*
X601Y176064D01*
X596Y176049D01*
X586Y176039D01*
Y176034D01*
X561Y176014D01*
X556Y176009D01*
X551D01*
X531Y176004D01*
X511Y175999D01*
X491Y175994D01*
X486D01*
X451Y175989D01*
X336D01*
X301Y175994D01*
X271D01*
X241Y175999D01*
X221D01*
X206Y176004D01*
X201D01*
X186Y176014D01*
X176Y176019D01*
X171Y176029D01*
X161Y176054D01*
Y176059D01*
Y176064D01*
Y176079D01*
X166Y176099D01*
X171Y176114D01*
Y176119D01*
X181Y176154D01*
X196Y176194D01*
X211Y176224D01*
X216Y176234D01*
Y176239D01*
X491Y176924D01*
X526Y177004D01*
X546Y177039D01*
X561Y177074D01*
X571Y177099D01*
X581Y177119D01*
X591Y177129D01*
Y177134D01*
X626Y177199D01*
X656Y177254D01*
X671Y177274D01*
X681Y177289D01*
X686Y177294D01*
X691Y177299D01*
X731Y177349D01*
X771Y177389D01*
X801Y177414D01*
X806Y177424D01*
X811D01*
X856Y177459D01*
X901Y177484D01*
X931Y177504D01*
X941Y177509D01*
X946D01*
X851Y177549D01*
X811Y177569D01*
X771Y177584D01*
X741Y177599D01*
X721Y177614D01*
X706Y177619D01*
X701Y177624D01*
X626Y177679D01*
X591Y177709D01*
X566Y177734D01*
X541Y177754D01*
X526Y177774D01*
X516Y177784D01*
X511Y177789D01*
X456Y177864D01*
X421Y177934D01*
X406Y177964D01*
X396Y177989D01*
X391Y178004D01*
Y178009D01*
X366Y178104D01*
X356Y178154D01*
X351Y178194D01*
X346Y178234D01*
Y178264D01*
Y178284D01*
Y178289D01*
Y178349D01*
X356Y178404D01*
X361Y178449D01*
X371Y178494D01*
X381Y178529D01*
X386Y178554D01*
X396Y178574D01*
Y178579D01*
X436Y178674D01*
X461Y178714D01*
X481Y178749D01*
X501Y178779D01*
X521Y178799D01*
X531Y178814D01*
X536Y178819D01*
X611Y178889D01*
X691Y178944D01*
X721Y178964D01*
X746Y178979D01*
X766Y178984D01*
X771Y178989D01*
X876Y179034D01*
X931Y179049D01*
X981Y179064D01*
X1021Y179074D01*
X1056Y179084D01*
X1076Y179089D01*
X1086D01*
X1131Y179094D01*
X1176D01*
X1196Y179099D01*
X1226D01*
X1286Y179104D01*
X1351Y179109D01*
X2081D01*
X2121Y179104D01*
D02*
G37*
G36*
X-3694Y179149D02*
X-3614Y179144D01*
X-3539Y179134D01*
X-3479Y179124D01*
X-3424Y179109D01*
X-3389Y179099D01*
X-3364Y179094D01*
X-3354Y179089D01*
X-3289Y179064D01*
X-3229Y179039D01*
X-3179Y179009D01*
X-3139Y178984D01*
X-3104Y178959D01*
X-3074Y178944D01*
X-3059Y178929D01*
X-3054Y178924D01*
X-3014Y178884D01*
X-2974Y178839D01*
X-2944Y178799D01*
X-2919Y178759D01*
X-2899Y178724D01*
X-2884Y178699D01*
X-2879Y178679D01*
X-2874Y178674D01*
X-2854Y178619D01*
X-2844Y178569D01*
X-2834Y178514D01*
X-2824Y178469D01*
Y178429D01*
X-2819Y178399D01*
Y178379D01*
Y178369D01*
X-2824Y178279D01*
X-2829Y178234D01*
X-2839Y178199D01*
X-2844Y178169D01*
X-2849Y178149D01*
X-2854Y178134D01*
Y178129D01*
X-2889Y178049D01*
X-2909Y178014D01*
X-2929Y177984D01*
X-2944Y177959D01*
X-2959Y177939D01*
X-2964Y177924D01*
X-2969Y177919D01*
X-3034Y177849D01*
X-3094Y177794D01*
X-3119Y177769D01*
X-3139Y177754D01*
X-3154Y177744D01*
X-3159Y177739D01*
X-3244Y177679D01*
X-3289Y177654D01*
X-3329Y177634D01*
X-3364Y177614D01*
X-3389Y177599D01*
X-3409Y177589D01*
X-3414Y177584D01*
X-3354Y177554D01*
X-3299Y177524D01*
X-3249Y177494D01*
X-3204Y177469D01*
X-3164Y177449D01*
X-3139Y177429D01*
X-3119Y177419D01*
X-3114Y177414D01*
X-3024Y177344D01*
X-2989Y177314D01*
X-2954Y177284D01*
X-2929Y177259D01*
X-2909Y177239D01*
X-2899Y177224D01*
X-2894Y177219D01*
X-2834Y177144D01*
X-2789Y177069D01*
X-2774Y177039D01*
X-2764Y177014D01*
X-2754Y176999D01*
Y176994D01*
X-2729Y176904D01*
X-2719Y176859D01*
X-2714Y176819D01*
Y176779D01*
X-2709Y176754D01*
Y176734D01*
Y176729D01*
X-2714Y176664D01*
X-2719Y176599D01*
X-2729Y176544D01*
X-2744Y176494D01*
X-2754Y176454D01*
X-2764Y176424D01*
X-2769Y176404D01*
X-2774Y176399D01*
X-2804Y176349D01*
X-2834Y176299D01*
X-2869Y176259D01*
X-2899Y176224D01*
X-2929Y176194D01*
X-2954Y176174D01*
X-2969Y176159D01*
X-2974Y176154D01*
X-3029Y176119D01*
X-3084Y176089D01*
X-3134Y176069D01*
X-3189Y176044D01*
X-3234Y176029D01*
X-3269Y176019D01*
X-3289Y176009D01*
X-3299D01*
X-3449Y175979D01*
X-3519Y175969D01*
X-3584Y175964D01*
X-3644D01*
X-3689Y175959D01*
X-3729D01*
X-3824Y175964D01*
X-3909Y175969D01*
X-3989Y175979D01*
X-4054Y175989D01*
X-4109Y175999D01*
X-4149Y176004D01*
X-4174Y176014D01*
X-4184D01*
X-4254Y176039D01*
X-4319Y176064D01*
X-4379Y176089D01*
X-4429Y176114D01*
X-4464Y176139D01*
X-4494Y176159D01*
X-4514Y176169D01*
X-4519Y176174D01*
X-4569Y176219D01*
X-4609Y176264D01*
X-4649Y176304D01*
X-4679Y176349D01*
X-4699Y176384D01*
X-4714Y176414D01*
X-4724Y176434D01*
X-4729Y176439D01*
X-4754Y176499D01*
X-4774Y176564D01*
X-4784Y176624D01*
X-4794Y176679D01*
X-4799Y176729D01*
X-4804Y176764D01*
Y176789D01*
Y176799D01*
X-4794Y176894D01*
X-4789Y176939D01*
X-4779Y176974D01*
X-4769Y177004D01*
X-4764Y177029D01*
X-4754Y177044D01*
Y177049D01*
X-4714Y177129D01*
X-4694Y177169D01*
X-4669Y177199D01*
X-4649Y177224D01*
X-4634Y177249D01*
X-4624Y177259D01*
X-4619Y177264D01*
X-4544Y177339D01*
X-4474Y177399D01*
X-4444Y177424D01*
X-4419Y177439D01*
X-4399Y177449D01*
X-4394Y177454D01*
X-4294Y177519D01*
X-4239Y177549D01*
X-4194Y177574D01*
X-4149Y177599D01*
X-4119Y177614D01*
X-4099Y177624D01*
X-4089Y177629D01*
X-4144Y177659D01*
X-4189Y177684D01*
X-4234Y177714D01*
X-4269Y177739D01*
X-4304Y177759D01*
X-4324Y177774D01*
X-4339Y177784D01*
X-4344Y177789D01*
X-4424Y177859D01*
X-4454Y177889D01*
X-4484Y177919D01*
X-4504Y177944D01*
X-4519Y177964D01*
X-4529Y177974D01*
X-4534Y177979D01*
X-4589Y178059D01*
X-4624Y178124D01*
X-4639Y178154D01*
X-4649Y178174D01*
X-4654Y178189D01*
Y178194D01*
X-4679Y178279D01*
X-4684Y178319D01*
X-4689Y178354D01*
X-4694Y178384D01*
Y178409D01*
Y178424D01*
Y178429D01*
Y178484D01*
X-4684Y178534D01*
X-4679Y178584D01*
X-4669Y178624D01*
X-4659Y178659D01*
X-4649Y178689D01*
X-4644Y178704D01*
X-4639Y178709D01*
X-4614Y178759D01*
X-4589Y178804D01*
X-4564Y178839D01*
X-4534Y178874D01*
X-4514Y178904D01*
X-4494Y178924D01*
X-4479Y178934D01*
X-4474Y178939D01*
X-4429Y178974D01*
X-4384Y179004D01*
X-4334Y179034D01*
X-4289Y179054D01*
X-4249Y179069D01*
X-4219Y179084D01*
X-4199Y179094D01*
X-4189D01*
X-4124Y179114D01*
X-4054Y179129D01*
X-3984Y179139D01*
X-3924Y179149D01*
X-3869D01*
X-3824Y179154D01*
X-3784D01*
X-3694Y179149D01*
D02*
G37*
G36*
X-6169D02*
X-6069Y179134D01*
X-5979Y179114D01*
X-5904Y179094D01*
X-5844Y179074D01*
X-5799Y179054D01*
X-5769Y179039D01*
X-5764Y179034D01*
X-5759D01*
X-5684Y178989D01*
X-5619Y178934D01*
X-5559Y178879D01*
X-5509Y178824D01*
X-5469Y178779D01*
X-5444Y178739D01*
X-5424Y178714D01*
X-5419Y178709D01*
Y178704D01*
X-5374Y178624D01*
X-5339Y178539D01*
X-5304Y178454D01*
X-5279Y178374D01*
X-5259Y178304D01*
X-5244Y178249D01*
X-5239Y178229D01*
Y178214D01*
X-5234Y178204D01*
Y178199D01*
X-5214Y178089D01*
X-5204Y177974D01*
X-5194Y177864D01*
X-5184Y177764D01*
Y177679D01*
X-5179Y177639D01*
Y177609D01*
Y177584D01*
Y177564D01*
Y177554D01*
Y177549D01*
Y177409D01*
X-5189Y177279D01*
X-5194Y177164D01*
X-5204Y177064D01*
X-5209Y177019D01*
X-5214Y176979D01*
X-5219Y176944D01*
Y176919D01*
X-5224Y176894D01*
X-5229Y176879D01*
Y176869D01*
Y176864D01*
X-5249Y176759D01*
X-5279Y176664D01*
X-5304Y176574D01*
X-5334Y176504D01*
X-5359Y176444D01*
X-5379Y176399D01*
X-5394Y176374D01*
X-5399Y176364D01*
X-5449Y176294D01*
X-5504Y176234D01*
X-5559Y176179D01*
X-5609Y176139D01*
X-5654Y176104D01*
X-5689Y176079D01*
X-5714Y176064D01*
X-5724Y176059D01*
X-5804Y176024D01*
X-5884Y175999D01*
X-5969Y175984D01*
X-6049Y175974D01*
X-6114Y175964D01*
X-6169Y175959D01*
X-6219D01*
X-6329Y175964D01*
X-6429Y175979D01*
X-6514Y175994D01*
X-6589Y176019D01*
X-6654Y176039D01*
X-6699Y176054D01*
X-6724Y176069D01*
X-6734Y176074D01*
X-6809Y176119D01*
X-6879Y176174D01*
X-6939Y176229D01*
X-6989Y176279D01*
X-7029Y176329D01*
X-7054Y176364D01*
X-7074Y176389D01*
X-7079Y176399D01*
X-7124Y176484D01*
X-7164Y176569D01*
X-7194Y176654D01*
X-7219Y176734D01*
X-7239Y176804D01*
X-7254Y176859D01*
X-7259Y176879D01*
X-7264Y176894D01*
Y176904D01*
Y176909D01*
X-7284Y177024D01*
X-7299Y177134D01*
X-7309Y177244D01*
X-7319Y177344D01*
Y177429D01*
X-7324Y177469D01*
Y177499D01*
Y177524D01*
Y177544D01*
Y177554D01*
Y177559D01*
Y177699D01*
X-7314Y177829D01*
X-7309Y177944D01*
X-7299Y178044D01*
X-7294Y178089D01*
X-7289Y178124D01*
X-7284Y178159D01*
X-7279Y178189D01*
X-7274Y178209D01*
Y178224D01*
X-7269Y178234D01*
Y178239D01*
X-7249Y178349D01*
X-7219Y178444D01*
X-7194Y178529D01*
X-7164Y178604D01*
X-7134Y178659D01*
X-7114Y178704D01*
X-7099Y178729D01*
X-7094Y178739D01*
X-7044Y178809D01*
X-6994Y178874D01*
X-6939Y178929D01*
X-6889Y178969D01*
X-6844Y179004D01*
X-6809Y179029D01*
X-6784Y179044D01*
X-6774Y179049D01*
X-6694Y179084D01*
X-6614Y179109D01*
X-6529Y179129D01*
X-6454Y179139D01*
X-6384Y179149D01*
X-6329Y179154D01*
X-6279D01*
X-6169Y179149D01*
D02*
G37*
%LPC*%
G36*
X436116Y192456D02*
X435441Y192412D01*
X434777Y192280D01*
X434241Y192098D01*
X434243Y192093D01*
X433965Y191978D01*
X433445Y191660D01*
X432981Y191264D01*
X432880Y191144D01*
X432792Y191044D01*
X432792D01*
Y191044D01*
X432647Y190878D01*
X432293Y190347D01*
X432010Y189775D01*
X431846Y189291D01*
X431846Y189291D01*
X431672Y188598D01*
X431542Y187719D01*
X431498Y186831D01*
X431542Y185943D01*
X431672Y185064D01*
X431846Y184372D01*
X431888Y184248D01*
X432015Y183873D01*
X432306Y183282D01*
X432672Y182734D01*
X432791Y182599D01*
X432793Y182599D01*
X432794Y182599D01*
X433011Y182344D01*
X433466Y181956D01*
X433976Y181644D01*
X434243Y181533D01*
X434240Y181525D01*
X434803Y181334D01*
X435419Y181212D01*
X435975Y181175D01*
X436047Y181170D01*
X436108Y181175D01*
X436177Y181170D01*
X436810Y181212D01*
X437432Y181335D01*
X437993Y181526D01*
X437990Y181533D01*
X438257Y181644D01*
X438767Y181956D01*
X439221Y182344D01*
X439439Y182599D01*
X439439Y182599D01*
X439440Y182599D01*
X439441Y182599D01*
X439557Y182730D01*
X439916Y183268D01*
X440203Y183849D01*
X440380Y184371D01*
X440377Y184372D01*
X440536Y185007D01*
X440670Y185915D01*
X440715Y186831D01*
X440670Y187748D01*
X440536Y188656D01*
X440377Y189290D01*
X440380Y189291D01*
X440207Y189799D01*
X439930Y190361D01*
X439582Y190882D01*
X439440Y191044D01*
X439353Y191144D01*
X439353Y191145D01*
X439251Y191264D01*
X438787Y191660D01*
X438268Y191978D01*
X437990Y192093D01*
X437992Y192098D01*
X437456Y192280D01*
X436792Y192412D01*
X436116Y192456D01*
D02*
G37*
G36*
X438527Y180302D02*
X438527D01*
X438527D01*
D01*
D02*
G37*
G36*
X433631D02*
X433631D01*
D01*
X433631D01*
D02*
G37*
G36*
X471604Y191126D02*
Y191126D01*
D01*
Y191126D01*
D02*
G37*
G36*
X464915Y187028D02*
X464886Y187027D01*
X464756Y187017D01*
X462792D01*
X462787Y187015D01*
X462784Y187010D01*
Y183541D01*
X462786Y183536D01*
X462786Y183536D01*
X463031Y183266D01*
X463640Y182715D01*
X463644Y182715D01*
X463813Y182564D01*
X464496Y182080D01*
X464725Y181953D01*
X464725Y181953D01*
X465155Y181716D01*
X465816Y181442D01*
X465984Y181394D01*
Y181394D01*
X465984D01*
X465987Y181395D01*
X466201Y181322D01*
X466769Y181210D01*
X467346Y181172D01*
X467365Y181169D01*
X467368Y181169D01*
X467551Y181179D01*
X467683Y181187D01*
Y181187D01*
X467989Y181204D01*
X468122Y181215D01*
X468239Y181223D01*
X468281Y181231D01*
X468281Y181232D01*
X468426Y181261D01*
X468555Y181287D01*
X468556Y181286D01*
X468557Y181287D01*
Y181287D01*
X468558Y181287D01*
X468688Y181313D01*
X468823Y181340D01*
X468827Y181348D01*
X469063Y181404D01*
X469307Y181505D01*
X469307Y181505D01*
Y181505D01*
X469565Y181612D01*
X469934Y181838D01*
X469936Y181835D01*
X470253Y182095D01*
X470520Y182421D01*
X470719Y182793D01*
X470841Y183196D01*
X470882Y183616D01*
X470879Y183694D01*
X470884Y183742D01*
X470876Y183828D01*
X470832Y184273D01*
X470677Y184783D01*
X470426Y185253D01*
X470088Y185665D01*
X469676Y186003D01*
X469387Y186157D01*
X469387Y186158D01*
X469196Y186275D01*
X469077Y186325D01*
X468955Y186380D01*
X468860Y186427D01*
X468734Y186470D01*
X468734Y186470D01*
X468359Y186598D01*
X468359Y186597D01*
X467956Y186713D01*
X467956Y186714D01*
X467826Y186751D01*
X467527Y186802D01*
X467521Y186810D01*
X467055Y186879D01*
X467054Y186879D01*
X467054Y186880D01*
X466559Y186945D01*
Y186945D01*
X466555Y186942D01*
X466256Y186977D01*
X466165Y186981D01*
X466032Y186988D01*
X465018Y187024D01*
X464915Y187028D01*
D02*
G37*
G36*
X407804Y193719D02*
X407804Y193719D01*
X407804Y193719D01*
D01*
D02*
G37*
G36*
X440565Y322710D02*
X440185D01*
X440105Y322705D01*
X440040Y322700D01*
X440010Y322695D01*
X439990D01*
X439975Y322690D01*
X439970D01*
X439890Y322670D01*
X439855Y322660D01*
X439820Y322645D01*
X439795Y322630D01*
X439775Y322620D01*
X439760Y322615D01*
X439755Y322610D01*
X439715Y322585D01*
X439685Y322555D01*
X439630Y322495D01*
X439610Y322465D01*
X439590Y322440D01*
X439585Y322425D01*
X439580Y322420D01*
X439555Y322370D01*
X439535Y322320D01*
X439525Y322265D01*
X439515Y322215D01*
X439510Y322170D01*
X439505Y322135D01*
Y322115D01*
Y322105D01*
X439510Y322005D01*
X439520Y321960D01*
X439525Y321925D01*
X439535Y321890D01*
X439545Y321865D01*
X439550Y321850D01*
Y321845D01*
X439590Y321765D01*
X439610Y321730D01*
X439630Y321700D01*
X439650Y321680D01*
X439665Y321660D01*
X439675Y321650D01*
X439680Y321645D01*
X439745Y321590D01*
X439810Y321545D01*
X439840Y321530D01*
X439865Y321520D01*
X439880Y321510D01*
X439885D01*
X439935Y321495D01*
X439985Y321485D01*
X440040Y321475D01*
X440085Y321470D01*
X440130D01*
X440165Y321465D01*
X440565D01*
Y322710D01*
D02*
G37*
G36*
X434880Y322700D02*
X434875D01*
Y320995D01*
X435880D01*
X434880Y322700D01*
D02*
G37*
G36*
X440487Y111713D02*
X440107D01*
X440028Y111707D01*
X439962Y111703D01*
X439932Y111697D01*
X439913D01*
X439897Y111693D01*
X439892D01*
X439813Y111672D01*
X439778Y111662D01*
X439743Y111647D01*
X439717Y111633D01*
X439698Y111623D01*
X439682Y111618D01*
X439677Y111612D01*
X439638Y111588D01*
X439607Y111557D01*
X439552Y111497D01*
X439533Y111468D01*
X439512Y111442D01*
X439507Y111427D01*
X439502Y111423D01*
X439477Y111372D01*
X439458Y111322D01*
X439447Y111267D01*
X439437Y111217D01*
X439432Y111172D01*
X439428Y111137D01*
Y111117D01*
Y111108D01*
X439432Y111007D01*
X439442Y110962D01*
X439447Y110927D01*
X439458Y110892D01*
X439467Y110868D01*
X439472Y110853D01*
Y110847D01*
X439512Y110767D01*
X439533Y110732D01*
X439552Y110703D01*
X439572Y110682D01*
X439587Y110662D01*
X439598Y110652D01*
X439603Y110647D01*
X439668Y110592D01*
X439733Y110547D01*
X439762Y110532D01*
X439787Y110522D01*
X439803Y110512D01*
X439808D01*
X439857Y110497D01*
X439908Y110487D01*
X439962Y110477D01*
X440007Y110473D01*
X440053D01*
X440088Y110468D01*
X440487D01*
Y111713D01*
D02*
G37*
G36*
X97003Y174697D02*
X96623D01*
X96543Y174692D01*
X96478Y174688D01*
X96447Y174682D01*
X96428D01*
X96412Y174678D01*
X96408D01*
X96328Y174657D01*
X96293Y174647D01*
X96258Y174633D01*
X96232Y174618D01*
X96213Y174608D01*
X96197Y174602D01*
X96193Y174598D01*
X96153Y174573D01*
X96122Y174542D01*
X96068Y174483D01*
X96048Y174452D01*
X96027Y174427D01*
X96022Y174413D01*
X96017Y174407D01*
X95992Y174357D01*
X95973Y174308D01*
X95963Y174252D01*
X95952Y174203D01*
X95947Y174158D01*
X95942Y174123D01*
Y174102D01*
Y174092D01*
X95947Y173993D01*
X95957Y173948D01*
X95963Y173913D01*
X95973Y173878D01*
X95982Y173853D01*
X95987Y173837D01*
Y173832D01*
X96027Y173752D01*
X96048Y173717D01*
X96068Y173688D01*
X96087Y173668D01*
X96102Y173647D01*
X96113Y173637D01*
X96118Y173633D01*
X96183Y173577D01*
X96248Y173532D01*
X96277Y173518D01*
X96302Y173507D01*
X96317Y173497D01*
X96323D01*
X96372Y173483D01*
X96422Y173472D01*
X96478Y173462D01*
X96522Y173458D01*
X96567D01*
X96602Y173452D01*
X97003D01*
Y174697D01*
D02*
G37*
G36*
X30035Y264508D02*
X28790D01*
Y264127D01*
X28795Y264048D01*
X28800Y263983D01*
X28805Y263952D01*
Y263932D01*
X28810Y263917D01*
Y263913D01*
X28830Y263832D01*
X28840Y263797D01*
X28855Y263762D01*
X28870Y263738D01*
X28880Y263718D01*
X28885Y263703D01*
X28890Y263698D01*
X28915Y263657D01*
X28945Y263628D01*
X29005Y263573D01*
X29035Y263552D01*
X29060Y263532D01*
X29075Y263527D01*
X29080Y263523D01*
X29130Y263497D01*
X29180Y263477D01*
X29235Y263468D01*
X29285Y263457D01*
X29330Y263453D01*
X29365Y263447D01*
X29385D01*
X29395D01*
X29495Y263453D01*
X29540Y263462D01*
X29575Y263468D01*
X29610Y263477D01*
X29635Y263488D01*
X29650Y263492D01*
X29655D01*
X29735Y263532D01*
X29770Y263552D01*
X29800Y263573D01*
X29820Y263593D01*
X29840Y263608D01*
X29850Y263617D01*
X29855Y263622D01*
X29910Y263687D01*
X29955Y263753D01*
X29970Y263783D01*
X29980Y263808D01*
X29990Y263823D01*
Y263827D01*
X30005Y263878D01*
X30015Y263928D01*
X30025Y263983D01*
X30030Y264028D01*
Y264072D01*
X30035Y264107D01*
Y264508D01*
D02*
G37*
G36*
X349053Y119712D02*
X348673D01*
X348592Y119708D01*
X348528Y119702D01*
X348498Y119697D01*
X348478D01*
X348463Y119693D01*
X348458D01*
X348377Y119673D01*
X348342Y119662D01*
X348307Y119648D01*
X348283Y119632D01*
X348263Y119623D01*
X348248Y119617D01*
X348242Y119613D01*
X348202Y119588D01*
X348172Y119557D01*
X348117Y119498D01*
X348097Y119467D01*
X348078Y119442D01*
X348073Y119428D01*
X348067Y119422D01*
X348042Y119372D01*
X348023Y119323D01*
X348012Y119267D01*
X348003Y119218D01*
X347997Y119173D01*
X347992Y119138D01*
Y119117D01*
Y119107D01*
X347997Y119008D01*
X348007Y118963D01*
X348012Y118928D01*
X348023Y118893D01*
X348032Y118868D01*
X348038Y118852D01*
Y118848D01*
X348078Y118767D01*
X348097Y118733D01*
X348117Y118702D01*
X348137Y118683D01*
X348152Y118663D01*
X348163Y118652D01*
X348167Y118648D01*
X348233Y118593D01*
X348298Y118547D01*
X348327Y118533D01*
X348353Y118523D01*
X348368Y118512D01*
X348373D01*
X348423Y118498D01*
X348472Y118488D01*
X348528Y118477D01*
X348572Y118473D01*
X348618D01*
X348653Y118467D01*
X349053D01*
Y119712D01*
D02*
G37*
G36*
X343637Y119757D02*
X343602D01*
X343523Y119753D01*
X343488Y119747D01*
X343458Y119743D01*
X343432Y119738D01*
X343412Y119732D01*
X343403Y119728D01*
X343397D01*
X343333Y119697D01*
X343278Y119667D01*
X343257Y119652D01*
X343243Y119638D01*
X343237Y119632D01*
X343232Y119627D01*
X343182Y119572D01*
X343143Y119518D01*
X343127Y119492D01*
X343117Y119477D01*
X343108Y119463D01*
Y119457D01*
X343073Y119378D01*
X343042Y119302D01*
X343033Y119267D01*
X343027Y119243D01*
X343022Y119222D01*
Y119218D01*
X342998Y119107D01*
X342992Y119053D01*
X342983Y119002D01*
X342977Y118957D01*
Y118922D01*
X342972Y118903D01*
Y118893D01*
X342963Y118747D01*
X342957Y118683D01*
X342952Y118617D01*
Y118562D01*
Y118517D01*
Y118488D01*
Y118482D01*
Y118477D01*
Y118352D01*
X342957Y118292D01*
Y118243D01*
X342963Y118202D01*
Y118173D01*
X342968Y118148D01*
Y118142D01*
X342977Y118027D01*
X342983Y117977D01*
X342992Y117938D01*
X342998Y117897D01*
X343003Y117873D01*
X343007Y117852D01*
Y117848D01*
X343027Y117753D01*
X343042Y117708D01*
X343053Y117673D01*
X343068Y117642D01*
X343073Y117617D01*
X343082Y117603D01*
Y117597D01*
X343123Y117523D01*
X343143Y117488D01*
X343162Y117463D01*
X343182Y117438D01*
X343193Y117422D01*
X343202Y117412D01*
X343208Y117408D01*
X343263Y117352D01*
X343322Y117317D01*
X343348Y117303D01*
X343362Y117292D01*
X343377Y117282D01*
X343383D01*
X343462Y117257D01*
X343537Y117247D01*
X343567Y117243D01*
X343618D01*
X343677Y117247D01*
X343738Y117253D01*
X343788Y117262D01*
X343828Y117278D01*
X343863Y117288D01*
X343893Y117297D01*
X343907Y117303D01*
X343913Y117307D01*
X343957Y117338D01*
X343992Y117373D01*
X344027Y117408D01*
X344057Y117447D01*
X344082Y117478D01*
X344097Y117508D01*
X344108Y117527D01*
X344112Y117533D01*
X344138Y117593D01*
X344163Y117657D01*
X344182Y117727D01*
X344198Y117788D01*
X344208Y117842D01*
X344217Y117887D01*
X344222Y117918D01*
Y117922D01*
Y117928D01*
X344233Y118023D01*
X344243Y118122D01*
X344248Y118222D01*
X344252Y118313D01*
X344257Y118397D01*
Y118432D01*
Y118457D01*
Y118482D01*
Y118502D01*
Y118512D01*
Y118517D01*
Y118613D01*
X344252Y118702D01*
X344248Y118788D01*
X344243Y118858D01*
Y118918D01*
X344237Y118963D01*
X344233Y118992D01*
Y119002D01*
X344222Y119082D01*
X344208Y119158D01*
X344193Y119222D01*
X344178Y119282D01*
X344163Y119327D01*
X344147Y119362D01*
X344143Y119387D01*
X344138Y119393D01*
X344108Y119453D01*
X344073Y119508D01*
X344042Y119553D01*
X344007Y119588D01*
X343983Y119617D01*
X343957Y119642D01*
X343942Y119652D01*
X343937Y119658D01*
X343887Y119693D01*
X343832Y119718D01*
X343773Y119732D01*
X343723Y119747D01*
X343672Y119753D01*
X343637Y119757D01*
D02*
G37*
G36*
X344388Y244767D02*
X344307D01*
X344252Y244758D01*
X344208Y244747D01*
X344167Y244738D01*
X344138Y244727D01*
X344112Y244718D01*
X344097Y244712D01*
X344092Y244707D01*
X344053Y244683D01*
X344012Y244657D01*
X343983Y244622D01*
X343952Y244592D01*
X343933Y244567D01*
X343917Y244543D01*
X343907Y244528D01*
X343902Y244523D01*
X343872Y244473D01*
X343847Y244412D01*
X343828Y244357D01*
X343812Y244303D01*
X343797Y244257D01*
X343788Y244217D01*
X343782Y244193D01*
Y244182D01*
X343767Y244103D01*
X343758Y244012D01*
X343747Y243928D01*
X343742Y243847D01*
X343738Y243777D01*
Y243718D01*
Y243698D01*
Y243683D01*
Y243672D01*
Y243668D01*
X343837Y243607D01*
X343887Y243583D01*
X343933Y243563D01*
X343972Y243543D01*
X344003Y243532D01*
X344022Y243528D01*
X344033Y243523D01*
X344158Y243493D01*
X344213Y243482D01*
X344268Y243478D01*
X344313D01*
X344348Y243473D01*
X344432D01*
X344488Y243478D01*
X344532Y243488D01*
X344572Y243493D01*
X344602Y243502D01*
X344627Y243508D01*
X344642Y243513D01*
X344648D01*
X344718Y243552D01*
X344773Y243593D01*
X344793Y243607D01*
X344808Y243622D01*
X344817Y243633D01*
X344823Y243637D01*
X344863Y243703D01*
X344893Y243767D01*
X344902Y243797D01*
X344913Y243817D01*
X344917Y243832D01*
Y243837D01*
X344933Y243928D01*
X344937Y243972D01*
Y244012D01*
X344942Y244047D01*
Y244073D01*
Y244092D01*
Y244097D01*
X344937Y244187D01*
X344933Y244233D01*
X344928Y244268D01*
X344922Y244298D01*
X344917Y244322D01*
X344913Y244338D01*
Y244342D01*
X344882Y244427D01*
X344863Y244462D01*
X344847Y244497D01*
X344832Y244523D01*
X344817Y244543D01*
X344812Y244552D01*
X344808Y244557D01*
X344747Y244622D01*
X344692Y244668D01*
X344668Y244688D01*
X344648Y244697D01*
X344633Y244707D01*
X344627D01*
X344583Y244727D01*
X344537Y244742D01*
X344497Y244753D01*
X344453Y244762D01*
X344418D01*
X344388Y244767D01*
D02*
G37*
G36*
X347268Y244712D02*
X346887D01*
X346808Y244707D01*
X346743Y244703D01*
X346712Y244697D01*
X346692D01*
X346677Y244692D01*
X346673D01*
X346592Y244672D01*
X346557Y244662D01*
X346522Y244648D01*
X346498Y244633D01*
X346478Y244622D01*
X346462Y244618D01*
X346458Y244613D01*
X346417Y244587D01*
X346388Y244557D01*
X346333Y244497D01*
X346312Y244467D01*
X346292Y244443D01*
X346287Y244427D01*
X346283Y244423D01*
X346257Y244373D01*
X346237Y244322D01*
X346228Y244268D01*
X346217Y244217D01*
X346213Y244173D01*
X346207Y244138D01*
Y244117D01*
Y244108D01*
X346213Y244007D01*
X346222Y243963D01*
X346228Y243928D01*
X346237Y243893D01*
X346248Y243867D01*
X346252Y243852D01*
Y243847D01*
X346292Y243767D01*
X346312Y243733D01*
X346333Y243703D01*
X346353Y243683D01*
X346368Y243663D01*
X346377Y243653D01*
X346382Y243648D01*
X346447Y243593D01*
X346513Y243548D01*
X346543Y243532D01*
X346568Y243523D01*
X346583Y243513D01*
X346587D01*
X346638Y243497D01*
X346688Y243488D01*
X346743Y243478D01*
X346788Y243473D01*
X346832D01*
X346867Y243467D01*
X347268D01*
Y244712D01*
D02*
G37*
G36*
X30033Y180792D02*
X28787D01*
Y180412D01*
X28793Y180333D01*
X28798Y180268D01*
X28802Y180237D01*
Y180218D01*
X28808Y180202D01*
Y180198D01*
X28828Y180117D01*
X28837Y180082D01*
X28852Y180048D01*
X28868Y180023D01*
X28877Y180002D01*
X28883Y179988D01*
X28888Y179982D01*
X28912Y179943D01*
X28942Y179912D01*
X29002Y179858D01*
X29032Y179838D01*
X29057Y179817D01*
X29072Y179813D01*
X29078Y179807D01*
X29127Y179782D01*
X29177Y179762D01*
X29232Y179753D01*
X29283Y179743D01*
X29327Y179737D01*
X29362Y179733D01*
X29383D01*
X29392D01*
X29493Y179737D01*
X29537Y179747D01*
X29572Y179753D01*
X29607Y179762D01*
X29632Y179772D01*
X29647Y179778D01*
X29653D01*
X29732Y179817D01*
X29768Y179838D01*
X29798Y179858D01*
X29818Y179877D01*
X29838Y179893D01*
X29847Y179903D01*
X29853Y179908D01*
X29908Y179973D01*
X29952Y180037D01*
X29967Y180068D01*
X29978Y180093D01*
X29987Y180107D01*
Y180113D01*
X30002Y180163D01*
X30013Y180212D01*
X30022Y180268D01*
X30027Y180313D01*
Y180358D01*
X30033Y180393D01*
Y180792D01*
D02*
G37*
G36*
X29197Y178367D02*
X29177D01*
X29168D01*
X29162D01*
X29092Y178363D01*
X29028Y178348D01*
X28973Y178328D01*
X28927Y178303D01*
X28892Y178278D01*
X28863Y178258D01*
X28848Y178243D01*
X28842Y178237D01*
X28802Y178182D01*
X28773Y178118D01*
X28752Y178052D01*
X28738Y177988D01*
X28727Y177933D01*
X28723Y177887D01*
Y177842D01*
X28727Y177752D01*
X28732Y177717D01*
X28738Y177682D01*
X28747Y177657D01*
X28752Y177632D01*
X28758Y177622D01*
Y177618D01*
X28782Y177548D01*
X28813Y177497D01*
X28828Y177478D01*
X28837Y177462D01*
X28842Y177457D01*
X28848Y177453D01*
X28892Y177408D01*
X28938Y177373D01*
X28953Y177363D01*
X28967Y177352D01*
X28978Y177348D01*
X28982D01*
X29043Y177328D01*
X29103Y177318D01*
X29127Y177313D01*
X29147D01*
X29158D01*
X29162D01*
X29228Y177318D01*
X29293Y177332D01*
X29348Y177352D01*
X29397Y177377D01*
X29443Y177402D01*
X29473Y177422D01*
X29493Y177437D01*
X29498Y177443D01*
X29553Y177497D01*
X29603Y177558D01*
X29653Y177618D01*
X29693Y177678D01*
X29722Y177733D01*
X29752Y177778D01*
X29768Y177807D01*
X29772Y177813D01*
Y177817D01*
X29722Y177912D01*
X29697Y177957D01*
X29678Y177992D01*
X29658Y178023D01*
X29643Y178042D01*
X29638Y178058D01*
X29632Y178062D01*
X29583Y178132D01*
X29537Y178188D01*
X29517Y178208D01*
X29502Y178223D01*
X29498Y178233D01*
X29493Y178237D01*
X29438Y178282D01*
X29388Y178313D01*
X29368Y178323D01*
X29353Y178332D01*
X29342Y178338D01*
X29337D01*
X29278Y178352D01*
X29217Y178363D01*
X29197Y178367D01*
D02*
G37*
G36*
X30803Y178468D02*
X30797D01*
X30792D01*
X30718Y178463D01*
X30658Y178447D01*
X30632Y178443D01*
X30617Y178437D01*
X30608Y178433D01*
X30602D01*
X30538Y178402D01*
X30483Y178363D01*
X30463Y178348D01*
X30448Y178332D01*
X30437Y178328D01*
X30433Y178323D01*
X30373Y178262D01*
X30323Y178202D01*
X30307Y178177D01*
X30292Y178157D01*
X30283Y178142D01*
X30277Y178138D01*
X30222Y178048D01*
X30198Y178003D01*
X30173Y177963D01*
X30158Y177927D01*
X30143Y177898D01*
X30132Y177877D01*
X30128Y177873D01*
X30158Y177813D01*
X30187Y177758D01*
X30213Y177708D01*
X30233Y177667D01*
X30253Y177632D01*
X30268Y177608D01*
X30277Y177593D01*
X30283Y177587D01*
X30312Y177542D01*
X30338Y177503D01*
X30362Y177468D01*
X30387Y177437D01*
X30408Y177412D01*
X30422Y177398D01*
X30433Y177387D01*
X30437Y177383D01*
X30492Y177328D01*
X30547Y177287D01*
X30567Y177272D01*
X30588Y177262D01*
X30597Y177258D01*
X30602D01*
X30672Y177233D01*
X30738Y177217D01*
X30762Y177213D01*
X30782D01*
X30797D01*
X30803D01*
X30882Y177217D01*
X30948Y177237D01*
X31008Y177262D01*
X31058Y177293D01*
X31097Y177322D01*
X31128Y177348D01*
X31148Y177367D01*
X31152Y177373D01*
X31192Y177437D01*
X31223Y177513D01*
X31247Y177587D01*
X31262Y177663D01*
X31273Y177733D01*
X31277Y177787D01*
Y177838D01*
X31273Y177947D01*
X31258Y178042D01*
X31238Y178128D01*
X31212Y178192D01*
X31192Y178247D01*
X31172Y178282D01*
X31157Y178303D01*
X31152Y178313D01*
X31102Y178363D01*
X31043Y178402D01*
X30983Y178428D01*
X30928Y178447D01*
X30872Y178457D01*
X30832Y178463D01*
X30803Y178468D01*
D02*
G37*
G36*
X30025Y190280D02*
X28780D01*
Y189900D01*
X28785Y189820D01*
X28790Y189755D01*
X28795Y189725D01*
Y189705D01*
X28800Y189690D01*
Y189685D01*
X28820Y189605D01*
X28830Y189570D01*
X28845Y189535D01*
X28860Y189510D01*
X28870Y189490D01*
X28875Y189475D01*
X28880Y189470D01*
X28905Y189430D01*
X28935Y189400D01*
X28995Y189345D01*
X29025Y189325D01*
X29050Y189305D01*
X29065Y189300D01*
X29070Y189295D01*
X29120Y189270D01*
X29170Y189250D01*
X29225Y189240D01*
X29275Y189230D01*
X29320Y189225D01*
X29355Y189220D01*
X29375D01*
X29385D01*
X29485Y189225D01*
X29530Y189235D01*
X29565Y189240D01*
X29600Y189250D01*
X29625Y189260D01*
X29640Y189265D01*
X29645D01*
X29725Y189305D01*
X29760Y189325D01*
X29790Y189345D01*
X29810Y189365D01*
X29830Y189380D01*
X29840Y189390D01*
X29845Y189395D01*
X29900Y189460D01*
X29945Y189525D01*
X29960Y189555D01*
X29970Y189580D01*
X29980Y189595D01*
Y189600D01*
X29995Y189650D01*
X30005Y189700D01*
X30015Y189755D01*
X30020Y189800D01*
Y189845D01*
X30025Y189880D01*
Y190280D01*
D02*
G37*
G36*
X30033Y201795D02*
X28787D01*
Y201415D01*
X28793Y201335D01*
X28798Y201270D01*
X28802Y201240D01*
Y201220D01*
X28808Y201205D01*
Y201200D01*
X28828Y201120D01*
X28837Y201085D01*
X28852Y201050D01*
X28868Y201025D01*
X28877Y201005D01*
X28883Y200990D01*
X28888Y200985D01*
X28912Y200945D01*
X28942Y200915D01*
X29002Y200860D01*
X29032Y200840D01*
X29057Y200820D01*
X29072Y200815D01*
X29078Y200810D01*
X29127Y200785D01*
X29177Y200765D01*
X29232Y200755D01*
X29283Y200745D01*
X29327Y200740D01*
X29362Y200735D01*
X29383D01*
X29392D01*
X29493Y200740D01*
X29537Y200750D01*
X29572Y200755D01*
X29607Y200765D01*
X29632Y200775D01*
X29647Y200780D01*
X29653D01*
X29732Y200820D01*
X29768Y200840D01*
X29798Y200860D01*
X29818Y200880D01*
X29838Y200895D01*
X29847Y200905D01*
X29853Y200910D01*
X29908Y200975D01*
X29952Y201040D01*
X29967Y201070D01*
X29978Y201095D01*
X29987Y201110D01*
Y201115D01*
X30002Y201165D01*
X30013Y201215D01*
X30022Y201270D01*
X30027Y201315D01*
Y201360D01*
X30033Y201395D01*
Y201795D01*
D02*
G37*
G36*
X30288Y199410D02*
X30228D01*
X30207D01*
X30193D01*
X30182D01*
X30178D01*
X30147Y199365D01*
X30123Y199320D01*
X30108Y199285D01*
X30103Y199280D01*
Y199275D01*
X30077Y199220D01*
X30053Y199170D01*
X30048Y199150D01*
X30042Y199135D01*
X30038Y199125D01*
Y199120D01*
X30018Y199055D01*
X30002Y199005D01*
X29998Y198980D01*
Y198965D01*
X29992Y198955D01*
Y198950D01*
X29983Y198885D01*
X29972Y198825D01*
Y198715D01*
X29978Y198660D01*
X29987Y198615D01*
X29992Y198575D01*
X30002Y198545D01*
X30013Y198525D01*
X30018Y198510D01*
Y198505D01*
X30057Y198430D01*
X30077Y198400D01*
X30097Y198375D01*
X30112Y198355D01*
X30128Y198340D01*
X30138Y198335D01*
X30143Y198330D01*
X30202Y198290D01*
X30268Y198260D01*
X30292Y198250D01*
X30312Y198245D01*
X30327Y198240D01*
X30332D01*
X30422Y198220D01*
X30463Y198215D01*
X30503D01*
X30538Y198210D01*
X30562D01*
X30582D01*
X30588D01*
X30678Y198215D01*
X30722Y198220D01*
X30757Y198225D01*
X30792Y198235D01*
X30817Y198240D01*
X30832Y198245D01*
X30838D01*
X30922Y198275D01*
X30957Y198295D01*
X30988Y198315D01*
X31018Y198330D01*
X31038Y198345D01*
X31047Y198350D01*
X31053Y198355D01*
X31117Y198415D01*
X31168Y198480D01*
X31183Y198505D01*
X31198Y198525D01*
X31203Y198540D01*
X31207Y198545D01*
X31227Y198590D01*
X31238Y198635D01*
X31247Y198675D01*
X31258Y198720D01*
Y198755D01*
X31262Y198785D01*
Y198865D01*
X31253Y198915D01*
X31247Y198960D01*
X31238Y199000D01*
X31227Y199030D01*
X31223Y199055D01*
X31212Y199070D01*
Y199075D01*
X31187Y199115D01*
X31163Y199150D01*
X31133Y199180D01*
X31102Y199210D01*
X31073Y199230D01*
X31053Y199245D01*
X31038Y199255D01*
X31032Y199260D01*
X30983Y199285D01*
X30928Y199310D01*
X30872Y199330D01*
X30817Y199345D01*
X30773Y199360D01*
X30733Y199365D01*
X30707Y199375D01*
X30698D01*
X30612Y199385D01*
X30527Y199395D01*
X30443Y199400D01*
X30358Y199405D01*
X30288Y199410D01*
D02*
G37*
G36*
X30010Y211247D02*
X28765D01*
Y210868D01*
X28770Y210788D01*
X28775Y210722D01*
X28780Y210693D01*
Y210672D01*
X28785Y210658D01*
Y210652D01*
X28805Y210573D01*
X28815Y210538D01*
X28830Y210503D01*
X28845Y210477D01*
X28855Y210457D01*
X28860Y210442D01*
X28865Y210437D01*
X28890Y210398D01*
X28920Y210367D01*
X28980Y210313D01*
X29010Y210293D01*
X29035Y210273D01*
X29050Y210267D01*
X29055Y210262D01*
X29105Y210238D01*
X29155Y210217D01*
X29210Y210208D01*
X29260Y210197D01*
X29305Y210192D01*
X29340Y210188D01*
X29360D01*
X29370D01*
X29470Y210192D01*
X29515Y210203D01*
X29550Y210208D01*
X29585Y210217D01*
X29610Y210227D01*
X29625Y210232D01*
X29630D01*
X29710Y210273D01*
X29745Y210293D01*
X29775Y210313D01*
X29795Y210332D01*
X29815Y210348D01*
X29825Y210357D01*
X29830Y210363D01*
X29885Y210427D01*
X29930Y210492D01*
X29945Y210523D01*
X29955Y210547D01*
X29965Y210562D01*
Y210567D01*
X29980Y210617D01*
X29990Y210667D01*
X30000Y210722D01*
X30005Y210768D01*
Y210812D01*
X30010Y210847D01*
Y211247D01*
D02*
G37*
G36*
X30033Y222820D02*
X28787D01*
Y222440D01*
X28793Y222360D01*
X28798Y222295D01*
X28802Y222265D01*
Y222245D01*
X28808Y222230D01*
Y222225D01*
X28828Y222145D01*
X28837Y222110D01*
X28852Y222075D01*
X28868Y222050D01*
X28877Y222030D01*
X28883Y222015D01*
X28888Y222010D01*
X28912Y221970D01*
X28942Y221940D01*
X29002Y221885D01*
X29032Y221865D01*
X29057Y221845D01*
X29072Y221840D01*
X29078Y221835D01*
X29127Y221810D01*
X29177Y221790D01*
X29232Y221780D01*
X29283Y221770D01*
X29327Y221765D01*
X29362Y221760D01*
X29383D01*
X29392D01*
X29493Y221765D01*
X29537Y221775D01*
X29572Y221780D01*
X29607Y221790D01*
X29632Y221800D01*
X29647Y221805D01*
X29653D01*
X29732Y221845D01*
X29768Y221865D01*
X29798Y221885D01*
X29818Y221905D01*
X29838Y221920D01*
X29847Y221930D01*
X29853Y221935D01*
X29908Y222000D01*
X29952Y222065D01*
X29967Y222095D01*
X29978Y222120D01*
X29987Y222135D01*
Y222140D01*
X30002Y222190D01*
X30013Y222240D01*
X30022Y222295D01*
X30027Y222340D01*
Y222385D01*
X30033Y222420D01*
Y222820D01*
D02*
G37*
G36*
X30503Y220625D02*
X28798Y219625D01*
Y219620D01*
X30503D01*
Y220625D01*
D02*
G37*
G36*
X30033Y232242D02*
X28787D01*
Y231862D01*
X28793Y231783D01*
X28798Y231717D01*
X28802Y231687D01*
Y231667D01*
X28808Y231652D01*
Y231647D01*
X28828Y231568D01*
X28837Y231533D01*
X28852Y231498D01*
X28868Y231472D01*
X28877Y231452D01*
X28883Y231437D01*
X28888Y231433D01*
X28912Y231393D01*
X28942Y231363D01*
X29002Y231308D01*
X29032Y231288D01*
X29057Y231267D01*
X29072Y231262D01*
X29078Y231258D01*
X29127Y231233D01*
X29177Y231212D01*
X29232Y231203D01*
X29283Y231192D01*
X29327Y231188D01*
X29362Y231183D01*
X29383D01*
X29392D01*
X29493Y231188D01*
X29537Y231198D01*
X29572Y231203D01*
X29607Y231212D01*
X29632Y231223D01*
X29647Y231227D01*
X29653D01*
X29732Y231267D01*
X29768Y231288D01*
X29798Y231308D01*
X29818Y231328D01*
X29838Y231343D01*
X29847Y231352D01*
X29853Y231358D01*
X29908Y231422D01*
X29952Y231487D01*
X29967Y231518D01*
X29978Y231542D01*
X29987Y231557D01*
Y231562D01*
X30002Y231612D01*
X30013Y231663D01*
X30022Y231717D01*
X30027Y231763D01*
Y231807D01*
X30033Y231842D01*
Y232242D01*
D02*
G37*
G36*
X30048Y243758D02*
X28802D01*
Y243377D01*
X28808Y243298D01*
X28813Y243232D01*
X28817Y243202D01*
Y243182D01*
X28822Y243167D01*
Y243162D01*
X28842Y243082D01*
X28852Y243047D01*
X28868Y243012D01*
X28883Y242987D01*
X28892Y242968D01*
X28898Y242952D01*
X28903Y242948D01*
X28927Y242908D01*
X28958Y242878D01*
X29017Y242823D01*
X29048Y242803D01*
X29072Y242782D01*
X29087Y242777D01*
X29092Y242773D01*
X29142Y242747D01*
X29193Y242727D01*
X29247Y242718D01*
X29298Y242707D01*
X29342Y242703D01*
X29377Y242698D01*
X29397D01*
X29408D01*
X29507Y242703D01*
X29553Y242712D01*
X29588Y242718D01*
X29623Y242727D01*
X29647Y242738D01*
X29662Y242742D01*
X29667D01*
X29748Y242782D01*
X29783Y242803D01*
X29812Y242823D01*
X29833Y242843D01*
X29853Y242858D01*
X29862Y242867D01*
X29868Y242873D01*
X29923Y242937D01*
X29967Y243003D01*
X29983Y243033D01*
X29992Y243057D01*
X30002Y243073D01*
Y243077D01*
X30018Y243127D01*
X30027Y243178D01*
X30038Y243232D01*
X30042Y243278D01*
Y243322D01*
X30048Y243357D01*
Y243758D01*
D02*
G37*
G36*
X30035Y253262D02*
X28790D01*
Y252883D01*
X28795Y252802D01*
X28800Y252737D01*
X28805Y252708D01*
Y252688D01*
X28810Y252673D01*
Y252667D01*
X28830Y252588D01*
X28840Y252553D01*
X28855Y252518D01*
X28870Y252492D01*
X28880Y252472D01*
X28885Y252457D01*
X28890Y252452D01*
X28915Y252413D01*
X28945Y252382D01*
X29005Y252327D01*
X29035Y252308D01*
X29060Y252288D01*
X29075Y252283D01*
X29080Y252277D01*
X29130Y252253D01*
X29180Y252233D01*
X29235Y252222D01*
X29285Y252213D01*
X29330Y252207D01*
X29365Y252203D01*
X29385D01*
X29395D01*
X29495Y252207D01*
X29540Y252218D01*
X29575Y252222D01*
X29610Y252233D01*
X29635Y252242D01*
X29650Y252248D01*
X29655D01*
X29735Y252288D01*
X29770Y252308D01*
X29800Y252327D01*
X29820Y252347D01*
X29840Y252362D01*
X29850Y252373D01*
X29855Y252378D01*
X29910Y252443D01*
X29955Y252507D01*
X29970Y252537D01*
X29980Y252562D01*
X29990Y252577D01*
Y252583D01*
X30005Y252632D01*
X30015Y252682D01*
X30025Y252737D01*
X30030Y252783D01*
Y252828D01*
X30035Y252863D01*
Y253262D01*
D02*
G37*
G36*
X1816Y178769D02*
X1391D01*
X1356Y178764D01*
X1306D01*
X1291Y178759D01*
X1276D01*
X1221Y178754D01*
X1176Y178744D01*
X1146Y178739D01*
X1141Y178734D01*
X1136D01*
X1071Y178709D01*
X1011Y178684D01*
X966Y178654D01*
X931Y178624D01*
X901Y178599D01*
X881Y178574D01*
X871Y178559D01*
X866Y178554D01*
X836Y178504D01*
X816Y178454D01*
X801Y178399D01*
X791Y178354D01*
X786Y178309D01*
X781Y178274D01*
Y178254D01*
Y178244D01*
X786Y178164D01*
X791Y178129D01*
X801Y178099D01*
X806Y178074D01*
X816Y178054D01*
X821Y178044D01*
Y178039D01*
X856Y177974D01*
X891Y177919D01*
X911Y177899D01*
X921Y177884D01*
X931Y177874D01*
X936Y177869D01*
X1001Y177824D01*
X1066Y177789D01*
X1096Y177774D01*
X1116Y177769D01*
X1131Y177759D01*
X1136D01*
X1226Y177739D01*
X1276Y177734D01*
X1321Y177729D01*
X1356Y177724D01*
X1816D01*
Y178769D01*
D02*
G37*
G36*
X-3709Y178834D02*
X-3754D01*
X-3844Y178829D01*
X-3879Y178824D01*
X-3914Y178819D01*
X-3939Y178809D01*
X-3964Y178804D01*
X-3974Y178799D01*
X-3979D01*
X-4049Y178774D01*
X-4099Y178744D01*
X-4119Y178729D01*
X-4134Y178719D01*
X-4139Y178714D01*
X-4144Y178709D01*
X-4189Y178664D01*
X-4224Y178619D01*
X-4234Y178604D01*
X-4244Y178589D01*
X-4249Y178579D01*
Y178574D01*
X-4269Y178514D01*
X-4279Y178454D01*
X-4284Y178429D01*
Y178409D01*
Y178399D01*
Y178394D01*
X-4279Y178329D01*
X-4264Y178264D01*
X-4244Y178209D01*
X-4219Y178159D01*
X-4194Y178114D01*
X-4174Y178084D01*
X-4159Y178064D01*
X-4154Y178059D01*
X-4099Y178004D01*
X-4039Y177954D01*
X-3979Y177904D01*
X-3919Y177864D01*
X-3864Y177834D01*
X-3819Y177804D01*
X-3789Y177789D01*
X-3784Y177784D01*
X-3779D01*
X-3684Y177834D01*
X-3639Y177859D01*
X-3604Y177879D01*
X-3574Y177899D01*
X-3554Y177914D01*
X-3539Y177919D01*
X-3534Y177924D01*
X-3464Y177974D01*
X-3409Y178019D01*
X-3389Y178039D01*
X-3374Y178054D01*
X-3364Y178059D01*
X-3359Y178064D01*
X-3314Y178119D01*
X-3284Y178169D01*
X-3274Y178189D01*
X-3264Y178204D01*
X-3259Y178214D01*
Y178219D01*
X-3244Y178279D01*
X-3234Y178339D01*
X-3229Y178359D01*
Y178379D01*
Y178389D01*
Y178394D01*
X-3234Y178464D01*
X-3249Y178529D01*
X-3269Y178584D01*
X-3294Y178629D01*
X-3319Y178664D01*
X-3339Y178694D01*
X-3354Y178709D01*
X-3359Y178714D01*
X-3414Y178754D01*
X-3479Y178784D01*
X-3544Y178804D01*
X-3609Y178819D01*
X-3664Y178829D01*
X-3709Y178834D01*
D02*
G37*
G36*
X-3724Y177429D02*
X-3784Y177399D01*
X-3839Y177369D01*
X-3889Y177344D01*
X-3929Y177324D01*
X-3964Y177304D01*
X-3989Y177289D01*
X-4004Y177279D01*
X-4009Y177274D01*
X-4054Y177244D01*
X-4094Y177219D01*
X-4129Y177194D01*
X-4159Y177169D01*
X-4184Y177149D01*
X-4199Y177134D01*
X-4209Y177124D01*
X-4214Y177119D01*
X-4269Y177064D01*
X-4309Y177009D01*
X-4324Y176989D01*
X-4334Y176969D01*
X-4339Y176959D01*
Y176954D01*
X-4364Y176884D01*
X-4379Y176819D01*
X-4384Y176794D01*
Y176774D01*
Y176759D01*
Y176754D01*
X-4379Y176674D01*
X-4359Y176609D01*
X-4334Y176549D01*
X-4304Y176499D01*
X-4274Y176459D01*
X-4249Y176429D01*
X-4229Y176409D01*
X-4224Y176404D01*
X-4159Y176364D01*
X-4084Y176334D01*
X-4009Y176309D01*
X-3934Y176294D01*
X-3864Y176284D01*
X-3809Y176279D01*
X-3759D01*
X-3649Y176284D01*
X-3554Y176299D01*
X-3469Y176319D01*
X-3404Y176344D01*
X-3349Y176364D01*
X-3314Y176384D01*
X-3294Y176399D01*
X-3284Y176404D01*
X-3234Y176454D01*
X-3194Y176514D01*
X-3169Y176574D01*
X-3149Y176629D01*
X-3139Y176684D01*
X-3134Y176724D01*
X-3129Y176754D01*
Y176759D01*
Y176764D01*
X-3134Y176839D01*
X-3149Y176899D01*
X-3154Y176924D01*
X-3159Y176939D01*
X-3164Y176949D01*
Y176954D01*
X-3194Y177019D01*
X-3234Y177074D01*
X-3249Y177094D01*
X-3264Y177109D01*
X-3269Y177119D01*
X-3274Y177124D01*
X-3334Y177184D01*
X-3394Y177234D01*
X-3419Y177249D01*
X-3439Y177264D01*
X-3454Y177274D01*
X-3459Y177279D01*
X-3549Y177334D01*
X-3594Y177359D01*
X-3634Y177384D01*
X-3669Y177399D01*
X-3699Y177414D01*
X-3719Y177424D01*
X-3724Y177429D01*
D02*
G37*
G36*
X-6219Y178814D02*
X-6254D01*
X-6334Y178809D01*
X-6369Y178804D01*
X-6399Y178799D01*
X-6424Y178794D01*
X-6444Y178789D01*
X-6454Y178784D01*
X-6459D01*
X-6524Y178754D01*
X-6579Y178724D01*
X-6599Y178709D01*
X-6614Y178694D01*
X-6619Y178689D01*
X-6624Y178684D01*
X-6674Y178629D01*
X-6714Y178574D01*
X-6729Y178549D01*
X-6739Y178534D01*
X-6749Y178519D01*
Y178514D01*
X-6784Y178434D01*
X-6814Y178359D01*
X-6824Y178324D01*
X-6829Y178299D01*
X-6834Y178279D01*
Y178274D01*
X-6859Y178164D01*
X-6864Y178109D01*
X-6874Y178059D01*
X-6879Y178014D01*
Y177979D01*
X-6884Y177959D01*
Y177949D01*
X-6894Y177804D01*
X-6899Y177739D01*
X-6904Y177674D01*
Y177619D01*
Y177574D01*
Y177544D01*
Y177539D01*
Y177534D01*
Y177409D01*
X-6899Y177349D01*
Y177299D01*
X-6894Y177259D01*
Y177229D01*
X-6889Y177204D01*
Y177199D01*
X-6879Y177084D01*
X-6874Y177034D01*
X-6864Y176994D01*
X-6859Y176954D01*
X-6854Y176929D01*
X-6849Y176909D01*
Y176904D01*
X-6829Y176809D01*
X-6814Y176764D01*
X-6804Y176729D01*
X-6789Y176699D01*
X-6784Y176674D01*
X-6774Y176659D01*
Y176654D01*
X-6734Y176579D01*
X-6714Y176544D01*
X-6694Y176519D01*
X-6674Y176494D01*
X-6664Y176479D01*
X-6654Y176469D01*
X-6649Y176464D01*
X-6594Y176409D01*
X-6534Y176374D01*
X-6509Y176359D01*
X-6494Y176349D01*
X-6479Y176339D01*
X-6474D01*
X-6394Y176314D01*
X-6319Y176304D01*
X-6289Y176299D01*
X-6239D01*
X-6179Y176304D01*
X-6119Y176309D01*
X-6069Y176319D01*
X-6029Y176334D01*
X-5994Y176344D01*
X-5964Y176354D01*
X-5949Y176359D01*
X-5944Y176364D01*
X-5899Y176394D01*
X-5864Y176429D01*
X-5829Y176464D01*
X-5799Y176504D01*
X-5774Y176534D01*
X-5759Y176564D01*
X-5749Y176584D01*
X-5744Y176589D01*
X-5719Y176649D01*
X-5694Y176714D01*
X-5674Y176784D01*
X-5659Y176844D01*
X-5649Y176899D01*
X-5639Y176944D01*
X-5634Y176974D01*
Y176979D01*
Y176984D01*
X-5624Y177079D01*
X-5614Y177179D01*
X-5609Y177279D01*
X-5604Y177369D01*
X-5599Y177454D01*
Y177489D01*
Y177514D01*
Y177539D01*
Y177559D01*
Y177569D01*
Y177574D01*
Y177669D01*
X-5604Y177759D01*
X-5609Y177844D01*
X-5614Y177914D01*
Y177974D01*
X-5619Y178019D01*
X-5624Y178049D01*
Y178059D01*
X-5634Y178139D01*
X-5649Y178214D01*
X-5664Y178279D01*
X-5679Y178339D01*
X-5694Y178384D01*
X-5709Y178419D01*
X-5714Y178444D01*
X-5719Y178449D01*
X-5749Y178509D01*
X-5784Y178564D01*
X-5814Y178609D01*
X-5849Y178644D01*
X-5874Y178674D01*
X-5899Y178699D01*
X-5914Y178709D01*
X-5919Y178714D01*
X-5969Y178749D01*
X-6024Y178774D01*
X-6084Y178789D01*
X-6134Y178804D01*
X-6184Y178809D01*
X-6219Y178814D01*
D02*
G37*
%LPD*%
D10*
X442000Y299500D02*
Y319500D01*
X482000Y299500D02*
Y319500D01*
X442000D02*
X482000D01*
X442000Y299500D02*
X482000D01*
X442000Y88000D02*
Y108000D01*
X482000Y88000D02*
Y108000D01*
X442000D02*
X482000D01*
X442000Y88000D02*
X482000D01*
X69500Y165000D02*
X89500D01*
X69500D02*
Y175000D01*
X89500D01*
Y165000D02*
Y175000D01*
X32500Y245000D02*
Y265000D01*
X42500D01*
Y245000D02*
Y265000D01*
X32500Y245000D02*
X42500D01*
X330000Y166000D02*
X350000D01*
X330000Y126000D02*
X350000D01*
Y166000D01*
X330000Y126000D02*
Y166000D01*
X329000Y292000D02*
X349000D01*
X329000Y252000D02*
X349000D01*
Y292000D01*
X329000Y252000D02*
Y292000D01*
X32500Y161000D02*
Y181000D01*
X42500D01*
Y161000D02*
Y181000D01*
X32500Y161000D02*
X42500D01*
X17500Y170500D02*
Y190500D01*
X27500D01*
Y170500D02*
Y190500D01*
X17500Y170500D02*
X27500D01*
X32500Y182000D02*
Y202000D01*
X42500D01*
Y182000D02*
Y202000D01*
X32500Y182000D02*
X42500D01*
X17500Y191500D02*
Y211500D01*
X27500D01*
Y191500D02*
Y211500D01*
X17500Y191500D02*
X27500D01*
X32500Y203000D02*
Y223000D01*
X42500D01*
Y203000D02*
Y223000D01*
X32500Y203000D02*
X42500D01*
X17500Y212500D02*
Y232500D01*
X27500D01*
Y212500D02*
Y232500D01*
X17500Y212500D02*
X27500D01*
X32500Y224000D02*
Y244000D01*
X42500D01*
Y224000D02*
Y244000D01*
X32500Y224000D02*
X42500D01*
X17500Y233500D02*
Y253500D01*
X27500D01*
Y233500D02*
Y253500D01*
X17500Y233500D02*
X27500D01*
D16*
X441000Y316665D02*
X440167Y317498D01*
X438501D01*
X437668Y316665D01*
Y315832D01*
X438501Y314999D01*
X437668Y314166D01*
Y313333D01*
X438501Y312500D01*
X440167D01*
X441000Y313333D01*
Y314166D01*
X440167Y314999D01*
X441000Y315832D01*
Y316665D01*
X440167Y314999D02*
X438501D01*
X441000Y307498D02*
X437668D01*
Y306665D01*
X441000Y303333D01*
Y302500D01*
X485000D02*
X483334D01*
X484167D01*
Y307498D01*
X485000Y306665D01*
X483668Y312500D02*
X487000D01*
X483668Y315832D01*
Y316665D01*
X484501Y317498D01*
X486167D01*
X487000Y316665D01*
X441000Y105165D02*
X440167Y105998D01*
X438501D01*
X437668Y105165D01*
Y104332D01*
X438501Y103499D01*
X437668Y102666D01*
Y101833D01*
X438501Y101000D01*
X440167D01*
X441000Y101833D01*
Y102666D01*
X440167Y103499D01*
X441000Y104332D01*
Y105165D01*
X440167Y103499D02*
X438501D01*
X441000Y95998D02*
X437668D01*
Y95165D01*
X441000Y91833D01*
Y91000D01*
X485000D02*
X483334D01*
X484167D01*
Y95998D01*
X485000Y95165D01*
X483668Y101000D02*
X487000D01*
X483668Y104332D01*
Y105165D01*
X484501Y105998D01*
X486167D01*
X487000Y105165D01*
X347165Y167000D02*
X347998Y167833D01*
Y169499D01*
X347165Y170332D01*
X346332D01*
X345499Y169499D01*
X344666Y170332D01*
X343833D01*
X343000Y169499D01*
Y167833D01*
X343833Y167000D01*
X344666D01*
X345499Y167833D01*
X346332Y167000D01*
X347165D01*
X345499Y167833D02*
Y169499D01*
X337998Y167000D02*
Y170332D01*
X337165D01*
X333833Y167000D01*
X333000D01*
Y123000D02*
Y124666D01*
Y123833D01*
X337998D01*
X337165Y123000D01*
X343000Y124332D02*
Y121000D01*
X346332Y124332D01*
X347165D01*
X347998Y123499D01*
Y121833D01*
X347165Y121000D01*
X346165Y293000D02*
X346998Y293833D01*
Y295499D01*
X346165Y296332D01*
X345332D01*
X344499Y295499D01*
X343666Y296332D01*
X342833D01*
X342000Y295499D01*
Y293833D01*
X342833Y293000D01*
X343666D01*
X344499Y293833D01*
X345332Y293000D01*
X346165D01*
X344499Y293833D02*
Y295499D01*
X336998Y293000D02*
Y296332D01*
X336165D01*
X332833Y293000D01*
X332000D01*
Y249000D02*
Y250666D01*
Y249833D01*
X336998D01*
X336165Y249000D01*
X342000Y250332D02*
Y247000D01*
X345332Y250332D01*
X346165D01*
X346998Y249499D01*
Y247833D01*
X346165Y247000D01*
D21*
X326998Y264001D02*
Y269999D01*
X323999D01*
X323000Y268999D01*
Y267000D01*
X323999Y266000D01*
X326998D01*
X317002Y264001D02*
X321000D01*
X317002Y268000D01*
Y268999D01*
X318001Y269999D01*
X320001D01*
X321000Y268999D01*
X14498Y203501D02*
Y209499D01*
X11499D01*
X10500Y208499D01*
Y206500D01*
X11499Y205500D01*
X14498D01*
X4502Y209499D02*
X8500D01*
Y206500D01*
X6501Y207500D01*
X5501D01*
X4502Y206500D01*
Y204501D01*
X5501Y203501D01*
X7501D01*
X8500Y204501D01*
X459999Y86498D02*
X454001D01*
Y83499D01*
X455001Y82500D01*
X457000D01*
X458000Y83499D01*
Y86498D01*
X455001Y80500D02*
X454001Y79501D01*
Y77501D01*
X455001Y76502D01*
X456000D01*
X457000Y77501D01*
Y78501D01*
Y77501D01*
X458000Y76502D01*
X458999D01*
X459999Y77501D01*
Y79501D01*
X458999Y80500D01*
X79994Y253499D02*
Y247501D01*
X75996D01*
X69998Y252499D02*
X70997Y253499D01*
X72997D01*
X73996Y252499D01*
Y248500D01*
X72997Y247501D01*
X70997D01*
X69998Y248500D01*
X67998Y253499D02*
Y247501D01*
X64000D01*
X62000Y253499D02*
Y247501D01*
Y249500D01*
X58002Y253499D01*
X61001Y250500D01*
X58002Y247501D01*
X56002Y246501D02*
X52004D01*
X50004Y247501D02*
Y253499D01*
X46005Y247501D01*
Y253499D01*
X14498Y193501D02*
Y199499D01*
X10500Y193501D01*
Y199499D01*
X4502D02*
X8500D01*
Y196500D01*
X6501Y197500D01*
X5501D01*
X4502Y196500D01*
Y194501D01*
X5501Y193501D01*
X7501D01*
X8500Y194501D01*
X360498Y274001D02*
Y279999D01*
X356500Y274001D01*
Y279999D01*
X354500Y278999D02*
X353501Y279999D01*
X351501D01*
X350502Y278999D01*
Y278000D01*
X351501Y277000D01*
X352501D01*
X351501D01*
X350502Y276000D01*
Y275001D01*
X351501Y274001D01*
X353501D01*
X354500Y275001D01*
X481995Y124001D02*
Y128000D01*
X479995Y129999D01*
X477996Y128000D01*
Y124001D01*
Y127000D01*
X481995D01*
X475997Y129999D02*
X473997D01*
X474997D01*
Y124001D01*
X475997D01*
X473997D01*
X470998D02*
Y129999D01*
X466999Y124001D01*
Y129999D01*
X455003D02*
X457003D01*
X456003D01*
Y125001D01*
X457003Y124001D01*
X458002D01*
X459002Y125001D01*
X449005Y124001D02*
X453004D01*
X449005Y128000D01*
Y128999D01*
X450005Y129999D01*
X452004D01*
X453004Y128999D01*
X361998Y158501D02*
Y164499D01*
X358000Y158501D01*
Y164499D01*
X353001Y158501D02*
Y164499D01*
X356000Y161500D01*
X352002D01*
X479999Y297499D02*
X474001D01*
Y294500D01*
X475001Y293500D01*
X477000D01*
X478000Y294500D01*
Y297499D01*
X479999Y291501D02*
Y289501D01*
Y290501D01*
X474001D01*
X475001Y291501D01*
X14499Y235001D02*
Y240999D01*
X10500Y235001D01*
Y240999D01*
X8501Y235001D02*
X6501D01*
X7501D01*
Y240999D01*
X8501Y239999D01*
X55498Y164501D02*
Y170499D01*
X51500Y164501D01*
Y170499D01*
X49500Y169499D02*
X48501Y170499D01*
X46501D01*
X45502Y169499D01*
Y168500D01*
X46501Y167500D01*
X45502Y166500D01*
Y165501D01*
X46501Y164501D01*
X48501D01*
X49500Y165501D01*
Y166500D01*
X48501Y167500D01*
X49500Y168500D01*
Y169499D01*
X48501Y167500D02*
X46501D01*
X54498Y215001D02*
Y220999D01*
X51499D01*
X50500Y219999D01*
Y218000D01*
X51499Y217000D01*
X54498D01*
X45501Y215001D02*
Y220999D01*
X48500Y218000D01*
X44502D01*
X14498Y183501D02*
Y189499D01*
X11499D01*
X10500Y188499D01*
Y186500D01*
X11499Y185500D01*
X14498D01*
X8500Y189499D02*
X4502D01*
Y188499D01*
X8500Y184501D01*
Y183501D01*
X363992Y300001D02*
Y304000D01*
X361993Y305999D01*
X359993Y304000D01*
Y300001D01*
Y303000D01*
X363992D01*
X357994Y305999D02*
Y300001D01*
X354995D01*
X353995Y301001D01*
Y304999D01*
X354995Y305999D01*
X357994D01*
X347997Y304999D02*
X348997Y305999D01*
X350996D01*
X351996Y304999D01*
Y301001D01*
X350996Y300001D01*
X348997D01*
X347997Y301001D01*
X340000Y305999D02*
X338000D01*
X339000D01*
Y300001D01*
X340000D01*
X338000D01*
X335001D02*
Y305999D01*
X331003Y300001D01*
Y305999D01*
X319007D02*
X321006D01*
X320006D01*
Y301001D01*
X321006Y300001D01*
X322006D01*
X323005Y301001D01*
X317007Y300001D02*
X315008D01*
X316008D01*
Y305999D01*
X317007Y304999D01*
X55498Y183501D02*
Y189499D01*
X51500Y183501D01*
Y189499D01*
X45502D02*
X47501Y188499D01*
X49500Y186500D01*
Y184501D01*
X48501Y183501D01*
X46501D01*
X45502Y184501D01*
Y185500D01*
X46501Y186500D01*
X49500D01*
X469999Y330998D02*
X464001D01*
X469999Y327000D01*
X464001D01*
X469999Y321002D02*
Y325000D01*
X466000Y321002D01*
X465001D01*
X464001Y322001D01*
Y324001D01*
X465001Y325000D01*
X479999Y119999D02*
X474001D01*
X479999Y116000D01*
X474001D01*
X479999Y114001D02*
Y112001D01*
Y113001D01*
X474001D01*
X475001Y114001D01*
X449999Y330998D02*
X444001D01*
X449999Y327000D01*
X444001D01*
X449999Y322001D02*
X444001D01*
X447000Y325000D01*
Y321002D01*
X54998Y193501D02*
Y199499D01*
X51999D01*
X51000Y198499D01*
Y196500D01*
X51999Y195500D01*
X54998D01*
X45002Y199499D02*
X47001Y198499D01*
X49000Y196500D01*
Y194501D01*
X48001Y193501D01*
X46001D01*
X45002Y194501D01*
Y195500D01*
X46001Y196500D01*
X49000D01*
X449499Y85998D02*
X443501D01*
Y82999D01*
X444501Y82000D01*
X446500D01*
X447500Y82999D01*
Y85998D01*
X449499Y77001D02*
X443501D01*
X446500Y80000D01*
Y76002D01*
X364492Y174501D02*
Y178500D01*
X362493Y180499D01*
X360493Y178500D01*
Y174501D01*
Y177500D01*
X364492D01*
X358494Y180499D02*
Y174501D01*
X355495D01*
X354495Y175501D01*
Y179499D01*
X355495Y180499D01*
X358494D01*
X348497Y179499D02*
X349497Y180499D01*
X351496D01*
X352496Y179499D01*
Y175501D01*
X351496Y174501D01*
X349497D01*
X348497Y175501D01*
X340500Y180499D02*
X338500D01*
X339500D01*
Y174501D01*
X340500D01*
X338500D01*
X335502D02*
Y180499D01*
X331503Y174501D01*
Y180499D01*
X319507D02*
X321506D01*
X320506D01*
Y175501D01*
X321506Y174501D01*
X322506D01*
X323505Y175501D01*
X317507Y174501D02*
X315508D01*
X316508D01*
Y180499D01*
X317507Y179499D01*
X360498Y263501D02*
Y269499D01*
X356500Y263501D01*
Y269499D01*
X350502Y263501D02*
X354500D01*
X350502Y267500D01*
Y268499D01*
X351501Y269499D01*
X353501D01*
X354500Y268499D01*
X459499Y119998D02*
X453501D01*
X459499Y116000D01*
X453501D01*
X454501Y114000D02*
X453501Y113001D01*
Y111001D01*
X454501Y110002D01*
X455500D01*
X456500Y111001D01*
Y112001D01*
Y111001D01*
X457500Y110002D01*
X458499D01*
X459499Y111001D01*
Y113001D01*
X458499Y114000D01*
X360499Y253501D02*
Y259499D01*
X356500Y253501D01*
Y259499D01*
X354501Y253501D02*
X352501D01*
X353501D01*
Y259499D01*
X354501Y258499D01*
X14498Y225001D02*
Y230999D01*
X11499D01*
X10500Y229999D01*
Y228000D01*
X11499Y227000D01*
X14498D01*
X8500Y229999D02*
X7501Y230999D01*
X5501D01*
X4502Y229999D01*
Y229000D01*
X5501Y228000D01*
X6501D01*
X5501D01*
X4502Y227000D01*
Y226001D01*
X5501Y225001D01*
X7501D01*
X8500Y226001D01*
X-6004Y158501D02*
Y164499D01*
X-9003D01*
X-10003Y163499D01*
Y161500D01*
X-9003Y160500D01*
X-6004D01*
X-12002Y164499D02*
X-14002D01*
X-13002D01*
Y158501D01*
X-12002D01*
X-14002D01*
X-17001D02*
Y164499D01*
X-21000Y158501D01*
Y164499D01*
X-26998D02*
X-22999D01*
Y161500D01*
X-24998Y162500D01*
X-25998D01*
X-26998Y161500D01*
Y159501D01*
X-25998Y158501D01*
X-23999D01*
X-22999Y159501D01*
X-32996Y164499D02*
X-28997D01*
Y161500D01*
X-30996Y162500D01*
X-31996D01*
X-32996Y161500D01*
Y159501D01*
X-31996Y158501D01*
X-29997D01*
X-28997Y159501D01*
X449499Y296998D02*
X443501D01*
Y293999D01*
X444501Y293000D01*
X446500D01*
X447500Y293999D01*
Y296998D01*
X449499Y288001D02*
X443501D01*
X446500Y291000D01*
Y287002D01*
X327499Y128001D02*
Y133999D01*
X324500D01*
X323500Y132999D01*
Y131000D01*
X324500Y130000D01*
X327499D01*
X321501Y128001D02*
X319501D01*
X320501D01*
Y133999D01*
X321501Y132999D01*
X459499Y330998D02*
X453501D01*
X459499Y327000D01*
X453501D01*
X454501Y325000D02*
X453501Y324001D01*
Y322001D01*
X454501Y321002D01*
X455500D01*
X456500Y322001D01*
Y323001D01*
Y322001D01*
X457500Y321002D01*
X458499D01*
X459499Y322001D01*
Y324001D01*
X458499Y325000D01*
X361998Y148501D02*
Y154499D01*
X358000Y148501D01*
Y154499D01*
X356000Y153499D02*
X355001Y154499D01*
X353001D01*
X352002Y153499D01*
Y152500D01*
X353001Y151500D01*
X354001D01*
X353001D01*
X352002Y150500D01*
Y149501D01*
X353001Y148501D01*
X355001D01*
X356000Y149501D01*
X479999Y330999D02*
X474001D01*
X479999Y327000D01*
X474001D01*
X479999Y325001D02*
Y323001D01*
Y324001D01*
X474001D01*
X475001Y325001D01*
X86499Y157001D02*
Y162999D01*
X82501Y157001D01*
Y162999D01*
X360498Y284001D02*
Y289999D01*
X356500Y284001D01*
Y289999D01*
X351501Y284001D02*
Y289999D01*
X354500Y287000D01*
X350502D01*
X479999Y86499D02*
X474001D01*
Y83500D01*
X475001Y82500D01*
X477000D01*
X478000Y83500D01*
Y86499D01*
X479999Y80501D02*
Y78501D01*
Y79501D01*
X474001D01*
X475001Y80501D01*
X469999Y297498D02*
X464001D01*
Y294499D01*
X465001Y293500D01*
X467000D01*
X468000Y294499D01*
Y297498D01*
X469999Y287502D02*
Y291500D01*
X466000Y287502D01*
X465001D01*
X464001Y288501D01*
Y290501D01*
X465001Y291500D01*
X14498Y214501D02*
Y220499D01*
X10500Y214501D01*
Y220499D01*
X8500Y219499D02*
X7501Y220499D01*
X5501D01*
X4502Y219499D01*
Y218500D01*
X5501Y217500D01*
X6501D01*
X5501D01*
X4502Y216500D01*
Y215501D01*
X5501Y214501D01*
X7501D01*
X8500Y215501D01*
X361999Y128001D02*
Y133999D01*
X358000Y128001D01*
Y133999D01*
X356001Y128001D02*
X354001D01*
X355001D01*
Y133999D01*
X356001Y132999D01*
X54498Y205001D02*
Y210999D01*
X50500Y205001D01*
Y210999D01*
X45501Y205001D02*
Y210999D01*
X48500Y208000D01*
X44502D01*
X14498Y172501D02*
Y178499D01*
X10500Y172501D01*
Y178499D01*
X8500D02*
X4502D01*
Y177499D01*
X8500Y173501D01*
Y172501D01*
X327498Y148501D02*
Y154499D01*
X324499D01*
X323500Y153499D01*
Y151500D01*
X324499Y150500D01*
X327498D01*
X321500Y153499D02*
X320501Y154499D01*
X318501D01*
X317502Y153499D01*
Y152500D01*
X318501Y151500D01*
X319501D01*
X318501D01*
X317502Y150500D01*
Y149501D01*
X318501Y148501D01*
X320501D01*
X321500Y149501D01*
X469999Y86498D02*
X464001D01*
Y83499D01*
X465001Y82500D01*
X467000D01*
X468000Y83499D01*
Y86498D01*
X469999Y76502D02*
Y80500D01*
X466000Y76502D01*
X465001D01*
X464001Y77501D01*
Y79501D01*
X465001Y80500D01*
X469999Y119998D02*
X464001D01*
X469999Y116000D01*
X464001D01*
X469999Y110002D02*
Y114000D01*
X466000Y110002D01*
X465001D01*
X464001Y111001D01*
Y113001D01*
X465001Y114000D01*
X326998Y284001D02*
Y289999D01*
X323999D01*
X323000Y288999D01*
Y287000D01*
X323999Y286000D01*
X326998D01*
X318001Y284001D02*
Y289999D01*
X321000Y287000D01*
X317002D01*
X55498Y236001D02*
Y241999D01*
X52499D01*
X51500Y240999D01*
Y239000D01*
X52499Y238000D01*
X55498D01*
X45502Y236001D02*
X49500D01*
X45502Y240000D01*
Y240999D01*
X46501Y241999D01*
X48501D01*
X49500Y240999D01*
X480744Y335501D02*
Y339500D01*
X478744Y341499D01*
X476745Y339500D01*
Y335501D01*
Y338500D01*
X480744D01*
X474746Y341499D02*
X472746D01*
X473746D01*
Y335501D01*
X474746D01*
X472746D01*
X469747D02*
Y341499D01*
X465749Y335501D01*
Y341499D01*
X453753D02*
X455752D01*
X454752D01*
Y336501D01*
X455752Y335501D01*
X456751D01*
X457751Y336501D01*
X451753Y335501D02*
X449754D01*
X450753D01*
Y341499D01*
X451753Y340499D01*
X14499Y245501D02*
Y251499D01*
X11500D01*
X10500Y250499D01*
Y248500D01*
X11500Y247500D01*
X14499D01*
X8501Y245501D02*
X6501D01*
X7501D01*
Y251499D01*
X8501Y250499D01*
X449999Y119998D02*
X444001D01*
X449999Y116000D01*
X444001D01*
X449999Y111001D02*
X444001D01*
X447000Y114000D01*
Y110002D01*
X327498Y158501D02*
Y164499D01*
X324499D01*
X323500Y163499D01*
Y161500D01*
X324499Y160500D01*
X327498D01*
X318501Y158501D02*
Y164499D01*
X321500Y161500D01*
X317502D01*
X459999Y297498D02*
X454001D01*
Y294499D01*
X455001Y293500D01*
X457000D01*
X458000Y294499D01*
Y297498D01*
X455001Y291500D02*
X454001Y290501D01*
Y288501D01*
X455001Y287502D01*
X456000D01*
X457000Y288501D01*
Y289501D01*
Y288501D01*
X458000Y287502D01*
X458999D01*
X459999Y288501D01*
Y290501D01*
X458999Y291500D01*
X89495Y176501D02*
Y180500D01*
X87496Y182499D01*
X85497Y180500D01*
Y176501D01*
Y179500D01*
X89495D01*
X83497Y182499D02*
Y176501D01*
X80498D01*
X79499Y177501D01*
Y181499D01*
X80498Y182499D01*
X83497D01*
X73501Y181499D02*
X74500Y182499D01*
X76500D01*
X77499Y181499D01*
Y177501D01*
X76500Y176501D01*
X74500D01*
X73501Y177501D01*
X71501Y182499D02*
Y176501D01*
X67503D01*
X65503Y182499D02*
Y176501D01*
Y178500D01*
X61505Y182499D01*
X64504Y179500D01*
X61505Y176501D01*
X361998Y138001D02*
Y143999D01*
X358000Y138001D01*
Y143999D01*
X352002Y138001D02*
X356000D01*
X352002Y142000D01*
Y142999D01*
X353001Y143999D01*
X355001D01*
X356000Y142999D01*
X-6004Y167501D02*
Y173499D01*
X-9003D01*
X-10003Y172499D01*
Y170500D01*
X-9003Y169500D01*
X-6004D01*
X-12002Y173499D02*
X-14002D01*
X-13002D01*
Y167501D01*
X-12002D01*
X-14002D01*
X-17001D02*
Y173499D01*
X-21000Y167501D01*
Y173499D01*
X-26998D02*
X-22999D01*
Y170500D01*
X-24998Y171500D01*
X-25998D01*
X-26998Y170500D01*
Y168501D01*
X-25998Y167501D01*
X-23999D01*
X-22999Y168501D01*
X-31996Y167501D02*
Y173499D01*
X-28997Y170500D01*
X-32996D01*
X55498Y226001D02*
Y231999D01*
X51500Y226001D01*
Y231999D01*
X45502Y226001D02*
X49500D01*
X45502Y230000D01*
Y230999D01*
X46501Y231999D01*
X48501D01*
X49500Y230999D01*
X326998Y274001D02*
Y279999D01*
X323999D01*
X323000Y278999D01*
Y277000D01*
X323999Y276000D01*
X326998D01*
X321000Y278999D02*
X320001Y279999D01*
X318001D01*
X317002Y278999D01*
Y278000D01*
X318001Y277000D01*
X319001D01*
X318001D01*
X317002Y276000D01*
Y275001D01*
X318001Y274001D01*
X320001D01*
X321000Y275001D01*
X79495Y263499D02*
Y257501D01*
X75496D01*
X69498Y262499D02*
X70497Y263499D01*
X72497D01*
X73496Y262499D01*
Y258501D01*
X72497Y257501D01*
X70497D01*
X69498Y258501D01*
X67498Y263499D02*
Y257501D01*
X63500D01*
X61500Y263499D02*
Y257501D01*
Y259500D01*
X57502Y263499D01*
X60501Y260500D01*
X57502Y257501D01*
X55502Y256501D02*
X51503D01*
X49504Y257501D02*
Y263499D01*
X46505D01*
X45505Y262499D01*
Y260500D01*
X46505Y259500D01*
X49504D01*
X55498Y172501D02*
Y178499D01*
X52499D01*
X51500Y177499D01*
Y175500D01*
X52499Y174500D01*
X55498D01*
X49500Y177499D02*
X48501Y178499D01*
X46501D01*
X45502Y177499D01*
Y176500D01*
X46501Y175500D01*
X45502Y174500D01*
Y173501D01*
X46501Y172501D01*
X48501D01*
X49500Y173501D01*
Y174500D01*
X48501Y175500D01*
X49500Y176500D01*
Y177499D01*
X48501Y175500D02*
X46501D01*
X326999Y253501D02*
Y259499D01*
X324000D01*
X323000Y258499D01*
Y256500D01*
X324000Y255500D01*
X326999D01*
X321001Y253501D02*
X319001D01*
X320001D01*
Y259499D01*
X321001Y258499D01*
X327498Y138501D02*
Y144499D01*
X324499D01*
X323500Y143499D01*
Y141500D01*
X324499Y140500D01*
X327498D01*
X317502Y138501D02*
X321500D01*
X317502Y142500D01*
Y143499D01*
X318501Y144499D01*
X320501D01*
X321500Y143499D01*
X76499Y157001D02*
Y162999D01*
X73500D01*
X72501Y161999D01*
Y160000D01*
X73500Y159000D01*
X76499D01*
D129*
X484565Y179967D02*
G03*
X486012Y180218I140J3491D01*
G01*
X483977Y179983D02*
G03*
X484153Y179973I408J5762D01*
G01*
X486012Y180218D02*
G03*
X486849Y180965I-687J1611D01*
G01*
X483420Y181356D02*
G03*
X483486Y181350I178J1486D01*
G01*
X483486Y181350D02*
G03*
X483519Y181348I129J1715D01*
G01*
X483386Y181361D02*
G03*
X483420Y181356I195J1331D01*
G01*
X485430Y181765D02*
G03*
X485792Y182521I-1300J1088D01*
G01*
X486849Y180965D02*
G03*
X487223Y182208I-2834J1529D01*
G01*
X485792Y182521D02*
G03*
X485915Y183837I-5547J1181D01*
G01*
X487223Y182208D02*
G03*
X487309Y183954I-15101J1623D01*
G01*
X484027Y181344D02*
G03*
X484833Y181422I46J3725D01*
G01*
X484833Y181422D02*
G03*
X485430Y181765I-217J1068D01*
G01*
X465510Y180218D02*
G03*
X466801Y179900I2103J5762D01*
G01*
X468101Y179813D02*
G03*
X469746Y180078I39J4999D01*
G01*
X466801Y179900D02*
G03*
X468101Y179813I1281J9449D01*
G01*
X474639Y192438D02*
G03*
X474224Y192405I-15J-2412D01*
G01*
X475693Y193738D02*
G03*
X474776Y193813I-967J-6159D01*
G01*
X471623Y191132D02*
G03*
X471507Y191442I-3881J-1284D01*
G01*
X469162Y191966D02*
G03*
X468945Y192066I-1393J-2767D01*
G01*
X464504Y192129D02*
G03*
X463388Y191279I882J-2314D01*
G01*
X478281Y190696D02*
G03*
X477347Y191571I-4942J-4336D01*
G01*
X471719Y190803D02*
G03*
X471623Y191132I-4401J-1095D01*
G01*
X499887Y188094D02*
G03*
X500266Y184606I13101J-341D01*
G01*
X498493Y188039D02*
G03*
X498822Y184570I16489J-186D01*
G01*
X508637Y180165D02*
G03*
X510639Y181118I-1604J5947D01*
G01*
X505737Y179813D02*
G03*
X508637Y180165I206J10440D01*
G01*
X508213Y181461D02*
G03*
X510050Y182493I-921J3793D01*
G01*
X501381Y182501D02*
G03*
X503219Y181461I2696J2619D01*
G01*
X499965Y181983D02*
G03*
X502190Y180371I3987J3162D01*
G01*
X503219Y181461D02*
G03*
X505728Y181182I2411J10263D01*
G01*
Y181182D02*
G03*
X508213Y181461I108J10246D01*
G01*
X502190Y180371D02*
G03*
X505737Y179813I3257J9155D01*
G01*
X510639Y181118D02*
G03*
X511902Y182526I-2811J3792D01*
G01*
X470292Y187113D02*
G03*
X469427Y187571I-3165J-4935D01*
G01*
X468357Y186589D02*
G03*
X467953Y186701I-2091J-6773D01*
G01*
X467953D02*
G03*
X467519Y186795I-2018J-8232D01*
G01*
X468729Y186460D02*
G03*
X468357Y186589I-2121J-5535D01*
G01*
X468405Y187927D02*
G03*
X467834Y188066I-2694J-9754D01*
G01*
X467834Y188066D02*
G03*
X467225Y188181I-2505J-11664D01*
G01*
X468936Y187761D02*
G03*
X468405Y187927I-2819J-8119D01*
G01*
X469072Y186314D02*
G03*
X468729Y186460I-2120J-4495D01*
G01*
X471845Y190085D02*
G03*
X471719Y190803I-5396J-581D01*
G01*
X470476Y190085D02*
G03*
X469361Y191856I-2354J-246D01*
G01*
X470356Y192896D02*
G03*
X469794Y193227I-2164J-3030D01*
G01*
X471209Y192004D02*
G03*
X470356Y192896I-2784J-1809D01*
G01*
X469794Y193227D02*
G03*
X469476Y193365I-1939J-4042D01*
G01*
X469361Y191856D02*
G03*
X469162Y191966I-1400J-2276D01*
G01*
X469476Y193365D02*
G03*
X469132Y193484I-1864J-4810D01*
G01*
X471507Y191442D02*
G03*
X471209Y192004I-3334J-1406D01*
G01*
X468370Y193668D02*
G03*
X467951Y193732I-1440J-8015D01*
G01*
X468181Y192293D02*
G03*
X467888Y192345I-1199J-5845D01*
G01*
X467951Y193732D02*
G03*
X467507Y193777I-1194J-9437D01*
G01*
X467888Y192345D02*
G03*
X467577Y192386I-1070J-6955D01*
G01*
X469132Y193484D02*
G03*
X468763Y193585I-1764J-5718D01*
G01*
X468945Y192066D02*
G03*
X468709Y192153I-1378J-3358D01*
G01*
X468709Y192153D02*
G03*
X468454Y192229I-1345J-4059D01*
G01*
X468454Y192229D02*
G03*
X468181Y192293I-1289J-4884D01*
G01*
X467039Y193805D02*
G03*
X466545Y193813I-473J-12901D01*
G01*
Y193813D02*
G03*
X464163Y193470I-171J-7248D01*
G01*
X466531Y192438D02*
G03*
X464504Y192129I-213J-5397D01*
G01*
X467507Y193777D02*
G03*
X467039Y193805I-875J-11060D01*
G01*
X467247Y192415D02*
G03*
X466531Y192438I-698J-10448D01*
G01*
X464163Y193470D02*
G03*
X462569Y192483I1237J-3782D01*
G01*
X477857Y192748D02*
G03*
X476741Y193420I-3661J-4814D01*
G01*
X477347Y191571D02*
G03*
X476290Y192199I-3038J-3914D01*
G01*
X476741Y193420D02*
G03*
X475693Y193738I-1772J-3957D01*
G01*
X476290Y192199D02*
G03*
X475144Y192438I-1141J-2596D01*
G01*
X479025Y191633D02*
G03*
X477857Y192748I-5507J-4599D01*
G01*
X479025Y189692D02*
G03*
X478281Y190696I-5778J-3507D01*
G01*
X485134Y202050D02*
G03*
X485548Y202219I3J583D01*
G01*
X467228Y201422D02*
G03*
X468285Y200865I1116J835D01*
G01*
X461720Y201036D02*
G03*
X461891Y201450I-414J414D01*
G01*
X461720Y201864D02*
G03*
X461306Y202036I-414J-414D01*
G01*
X461891Y201450D02*
G03*
X461720Y201864I-586J0D01*
G01*
X461306Y200865D02*
G03*
X461720Y201036I0J586D01*
G01*
X485352Y200865D02*
G03*
X486888Y202404I-3J1539D01*
G01*
X468162Y202114D02*
G03*
X468285Y202050I200J233D01*
G01*
X467577Y192386D02*
G03*
X467247Y192415I-893J-8226D01*
G01*
X468763Y193585D02*
G03*
X468370Y193668I-1627J-6781D01*
G01*
X463388Y191279D02*
G03*
X462903Y189999I2376J-1633D01*
G01*
X462569Y192483D02*
G03*
X461676Y190919I2774J-2619D01*
G01*
X467053Y186872D02*
G03*
X466558Y186933I-1695J-11902D01*
G01*
X465887Y188333D02*
G03*
X465159Y188372I-1376J-19296D01*
G01*
X463648Y182724D02*
G03*
X464730Y181960I4820J5677D01*
G01*
X462903Y189999D02*
G03*
X462800Y188384I11429J-1541D01*
G01*
X466031Y186975D02*
G03*
X464886Y187010I-1116J-18102D01*
G01*
X462792Y183541D02*
G03*
X463648Y182724I7180J6667D01*
G01*
X465159Y188372D02*
G03*
X464392Y188384I-758J-22560D01*
G01*
X461676Y190919D02*
G03*
X461398Y188850I6909J-1984D01*
G01*
X469746Y180078D02*
G03*
X471062Y180834I-1257J3713D01*
G01*
X467988Y181214D02*
G03*
X468279Y181247I-513J5816D01*
G01*
X467365Y181188D02*
G03*
X467683Y181194I3J7520D01*
G01*
X467683Y181194D02*
G03*
X467988Y181214I-277J6618D01*
G01*
X468556Y181294D02*
G03*
X468819Y181353I-875J4486D01*
G01*
X468819Y181353D02*
G03*
X469304Y181512I-954J3737D01*
G01*
X468279Y181247D02*
G03*
X468556Y181294I-710J5108D01*
G01*
X464186Y180853D02*
G03*
X465510Y180218I3817J6255D01*
G01*
X464730Y181960D02*
G03*
X465987Y181403I3194J5506D01*
G01*
X469304Y181512D02*
G03*
X469927Y181849I-1133J2837D01*
G01*
X471062Y180834D02*
G03*
X471937Y182021I-2334J2637D01*
G01*
X465987Y181403D02*
G03*
X467365Y181188I1359J4191D01*
G01*
X462792Y181874D02*
G03*
X464186Y180853I6219J7033D01*
G01*
X404709Y190481D02*
G03*
X404581Y188850I8807J-1513D01*
G01*
X402200Y192570D02*
G03*
X401020Y193317I-3617J-4404D01*
G01*
X398993Y192433D02*
G03*
X398705Y192425I-4J-4850D01*
G01*
X398432Y192400D02*
G03*
X398177Y192358I433J-3442D01*
G01*
X404634Y193214D02*
G03*
X403298Y191373I1920J-2798D01*
G01*
X398705Y192425D02*
G03*
X398432Y192400I240J-4094D01*
G01*
X401020Y193317D02*
G03*
X399816Y193702I-2176J-4735D01*
G01*
X403298Y191373D02*
G03*
X402200Y192570I-5083J-3566D01*
G01*
X403187Y189840D02*
G03*
X401151Y191755I-6929J-5324D01*
G01*
Y191755D02*
G03*
X398993Y192433I-2207J-3254D01*
G01*
X405153Y191596D02*
G03*
X404709Y190481I2279J-1552D01*
G01*
X439434Y182604D02*
G03*
X440368Y184375I-3802J3138D01*
G01*
X440368Y184375D02*
G03*
X440368Y189288I-9006J2457D01*
G01*
X440413Y181651D02*
G03*
X441626Y183859I-4883J4119D01*
G01*
X441626D02*
G03*
X441626Y189793I-10067J2967D01*
G01*
X407244Y192438D02*
G03*
X405989Y192232I-99J-3319D01*
G01*
X411315Y191493D02*
G03*
X410007Y192723I-6735J-5852D01*
G01*
X405989Y192232D02*
G03*
X405153Y191596I642J-1713D01*
G01*
X409324Y191761D02*
G03*
X407244Y192438I-2110J-2947D01*
G01*
X411315Y189845D02*
G03*
X409324Y191761I-7672J-5981D01*
G01*
X410007Y192723D02*
G03*
X408847Y193420I-3738J-4906D01*
G01*
X418625Y191571D02*
G03*
X418090Y190456I2090J-1690D01*
G01*
X419181Y193619D02*
G03*
X418560Y193377I1028J-3554D01*
G01*
X418101Y201461D02*
G03*
X418268Y201041I585J-11D01*
G01*
X418684Y202047D02*
G03*
X418101Y201461I3J-586D01*
G01*
X418268Y201041D02*
G03*
X418684Y200865I419J409D01*
G01*
X416904Y191440D02*
G03*
X416697Y190714I5055J-1833D01*
G01*
X416697Y190714D02*
G03*
X416573Y189890I7044J-1484D01*
G01*
X419596Y192224D02*
G03*
X418625Y191571I727J-2129D01*
G01*
X421060Y192438D02*
G03*
X419596Y192224I-115J-4312D01*
G01*
X423251Y191769D02*
G03*
X421060Y192438I-2216J-3335D01*
G01*
X418090Y190456D02*
G03*
X417926Y188850I6805J-1508D01*
G01*
X418560Y193377D02*
G03*
X416904Y191440I1525J-2981D01*
G01*
X416573Y189890D02*
G03*
X416532Y188970I9702J-898D01*
G01*
X446059Y202619D02*
G03*
X446231Y202205I583J0D01*
G01*
D02*
G03*
X446645Y202036I411J413D01*
G01*
X444891Y202418D02*
G03*
X445335Y201322I1539J-14D01*
G01*
Y201322D02*
G03*
X446424Y200865I1095J1081D01*
G01*
X434245Y192087D02*
G03*
X432798Y191039I1484J-3571D01*
G01*
X440421Y191984D02*
G03*
X438534Y193350I-3875J-3367D01*
G01*
X437987Y192087D02*
G03*
X434245Y192087I-1871J-4807D01*
G01*
X438534Y193350D02*
G03*
X436108Y193813I-2353J-5743D01*
G01*
X433626Y193336D02*
G03*
X431739Y191962I1987J-4712D01*
G01*
X408847Y193420D02*
G03*
X407807Y193738I-1771J-3936D01*
G01*
X436108Y193813D02*
G03*
X433626Y193336I-81J-6276D01*
G01*
X425373Y189879D02*
G03*
X423251Y191769I-7742J-6554D01*
G01*
X420672Y193813D02*
G03*
X419181Y193619I-68J-5308D01*
G01*
X422844Y193401D02*
G03*
X421701Y193727I-1948J-4659D01*
G01*
X406865Y193813D02*
G03*
X404634Y193214I-130J-3966D01*
G01*
X407807Y193738D02*
G03*
X406865Y193813I-969J-6190D01*
G01*
X399816Y193702D02*
G03*
X398639Y193813I-1191J-6301D01*
G01*
X439434Y191039D02*
G03*
X437987Y192087I-2931J-2523D01*
G01*
X431739Y191962D02*
G03*
X430531Y189767I4742J-4039D01*
G01*
X441626Y189792D02*
G03*
X440421Y191984I-5928J-1831D01*
G01*
X440368Y189288D02*
G03*
X439434Y191039I-4584J-1321D01*
G01*
X431856Y184375D02*
G03*
X432798Y182604I4812J1425D01*
G01*
X432798Y191039D02*
G03*
X431856Y189288I3723J-3133D01*
G01*
X431856D02*
G03*
X431856Y184375I8699J-2457D01*
G01*
X437987Y181539D02*
G03*
X439434Y182604I-1460J3500D01*
G01*
X432798D02*
G03*
X434245Y181539I2907J2434D01*
G01*
X438534Y180284D02*
G03*
X440413Y181651I-1932J4632D01*
G01*
X434245Y181539D02*
G03*
X436108Y181188I1801J4436D01*
G01*
X431733Y181659D02*
G03*
X433624Y180284I3898J3374D01*
G01*
X436108Y181188D02*
G03*
X437987Y181539I69J4832D01*
G01*
X433624Y180284D02*
G03*
X438534Y180284I2455J6225D01*
G01*
X430531Y183867D02*
G03*
X431733Y181659I6045J1858D01*
G01*
X430531Y189767D02*
G03*
X430531Y183867I10089J-2950D01*
G01*
X396315Y189570D02*
G03*
X396291Y188850I10244J-700D01*
G01*
X395062Y190714D02*
G03*
X394951Y189890I7803J-1475D01*
G01*
X396441Y190490D02*
G03*
X396387Y190205I5254J-1137D01*
G01*
X396387D02*
G03*
X396345Y189898I6431J-1032D01*
G01*
X396345Y189898D02*
G03*
X396315Y189570I7801J-875D01*
G01*
X394951Y189890D02*
G03*
X394914Y188970I10776J-891D01*
G01*
X466558Y186933D02*
G03*
X466031Y186975I-1419J-14156D01*
G01*
X466576Y188270D02*
G03*
X465887Y188333I-1862J-16409D01*
G01*
X469927Y181849D02*
G03*
X470864Y183695I-1195J1767D01*
G01*
X470864Y183695D02*
G03*
X469383Y186151I-2699J48D01*
G01*
X467519Y186795D02*
G03*
X467053Y186872I-1890J-9935D01*
G01*
X469383Y186151D02*
G03*
X469072Y186314I-2101J-3632D01*
G01*
X467225Y188181D02*
G03*
X466576Y188270I-2233J-13873D01*
G01*
X469427Y187571D02*
G03*
X468936Y187761I-2894J-6731D01*
G01*
X472258Y183558D02*
G03*
X470292Y187113I-4008J105D01*
G01*
X471937Y182021D02*
G03*
X472258Y183558I-3287J1488D01*
G01*
X468125Y208085D02*
G03*
X468538Y207913I413J411D01*
G01*
X467956Y208499D02*
G03*
X468125Y208085I583J-3D01*
G01*
X468952Y208085D02*
G03*
X469124Y208499I-414J414D01*
G01*
X468538Y207913D02*
G03*
X468952Y208085I0J586D01*
G01*
X485548Y202219D02*
G03*
X485720Y202632I-411J413D01*
G01*
X467956Y223522D02*
G03*
X467784Y223936I-586J0D01*
G01*
X468674Y224815D02*
G03*
X467588Y225265I-1086J-1086D01*
G01*
X452099Y224024D02*
G03*
X452113Y223862I137J-70D01*
G01*
X451137Y225265D02*
G03*
X450422Y224856I-47J-746D01*
G01*
X444891Y223514D02*
G03*
X444308Y224099I-586J0D01*
G01*
X445609Y224815D02*
G03*
X444523Y225265I-1086J-1086D01*
G01*
X469124Y223728D02*
G03*
X468674Y224815I-1536J0D01*
G01*
X467784Y223936D02*
G03*
X467370Y224108I-414J-414D01*
G01*
X450422Y224856D02*
G03*
X450518Y224038I667J-337D01*
G01*
X486717Y224979D02*
G03*
X486302Y225150I-414J-414D01*
G01*
X446059Y223728D02*
G03*
X445609Y224815I-1536J0D01*
G01*
X452238Y224108D02*
G03*
X452099Y224024I-3J-153D01*
G01*
X486888Y224565D02*
G03*
X486717Y224979I-586J0D01*
G01*
X424941Y200865D02*
G03*
X426477Y202404I-3J1539D01*
G01*
X424723Y202047D02*
G03*
X425137Y202217I3J583D01*
G01*
X424077Y192698D02*
G03*
X422844Y193401I-3404J-4539D01*
G01*
X421701Y193727D02*
G03*
X420672Y193813I-1053J-6368D01*
G01*
X425365Y191493D02*
G03*
X424077Y192698I-6366J-5517D01*
G01*
X425137Y202217D02*
G03*
X425309Y202630I-411J413D01*
G01*
X396888Y191596D02*
G03*
X396775Y191418I1696J-1202D01*
G01*
D02*
G03*
X396673Y191218I2154J-1219D01*
G01*
X396673Y191218D02*
G03*
X396584Y190997I2722J-1230D01*
G01*
X398639Y193813D02*
G03*
X397297Y193619I-60J-4332D01*
G01*
X397516Y192132D02*
G03*
X397332Y192023I894J-1729D01*
G01*
X397297Y193619D02*
G03*
X396738Y193377I962J-2987D01*
G01*
X397939Y192299D02*
G03*
X397719Y192224I704J-2422D01*
G01*
X397719D02*
G03*
X397516Y192132I804J-2040D01*
G01*
X395248Y191440D02*
G03*
X395062Y190714I5555J-1809D01*
G01*
X396506Y190754D02*
G03*
X396441Y190490I4255J-1198D01*
G01*
X397332Y192023D02*
G03*
X396888Y191596I935J-1416D01*
G01*
X395509Y192070D02*
G03*
X395248Y191440I3910J-1987D01*
G01*
X396738Y193377D02*
G03*
X395509Y192070I1495J-2637D01*
G01*
X396584Y190997D02*
G03*
X396506Y190754I3417J-1226D01*
G01*
X398177Y192358D02*
G03*
X397939Y192299I584J-2887D01*
G01*
X486302Y225150D02*
G03*
X485720Y224565I3J-586D01*
G01*
X427060Y224099D02*
G03*
X426477Y223514I3J-586D01*
G01*
X426845Y225265D02*
G03*
X425759Y224815I0J-1536D01*
G01*
D02*
G03*
X425309Y223728I1086J-1086D01*
G01*
X512947Y186717D02*
G03*
X512967Y187291I-32723J1458D01*
G01*
X512967Y187291D02*
G03*
X512977Y187855I-28627J773D01*
G01*
X511193Y184598D02*
G03*
X511584Y188094I-12529J3169D01*
G01*
X512613Y184244D02*
G03*
X512917Y186134I-9437J2487D01*
G01*
X510050Y182493D02*
G03*
X511193Y184598I-3520J3274D01*
G01*
X500266Y184606D02*
G03*
X501381Y182501I4764J1176D01*
G01*
X511902Y182526D02*
G03*
X512613Y184244I-6077J3522D01*
G01*
X498822Y184570D02*
G03*
X499965Y181983I6220J1202D01*
G01*
X484507Y179967D02*
X484565Y179967D01*
X484448Y179967D02*
X484507Y179967D01*
X484389Y179968D02*
X484448Y179967D01*
X484271Y179970D02*
X484330Y179968D01*
X484212Y179971D02*
X484271Y179970D01*
X484153Y179973D02*
X484212Y179971D01*
X484330Y179968D02*
X484389Y179968D01*
X483918Y179988D02*
X483977Y179983D01*
X483801Y179997D02*
X483918Y179988D01*
X483683Y180007D02*
X483801Y179997D01*
X483565Y180018D02*
X483683Y180007D01*
X483550Y181346D02*
X483581Y181345D01*
X483612Y181344D01*
X483641Y181344D01*
X483698Y181344D01*
X484027D01*
X483386Y181361D02*
X483389Y180036D01*
X483565Y180018D01*
X483519Y181348D02*
X483550Y181346D01*
X492258Y180156D02*
X493652D01*
X479025D02*
X480419D01*
X489024Y192096D02*
Y193470D01*
X483715Y192098D02*
Y193473D01*
X474516Y193813D02*
X474776D01*
X474224Y192405D02*
X474238Y193788D01*
X474516Y193813D01*
X474639Y192438D02*
X475144D01*
X479025Y193470D02*
X480419D01*
X487309D02*
X489024D01*
X487309Y192096D02*
X489024D01*
X511584Y188094D02*
Y198969D01*
X470476Y190085D02*
X471845D01*
X479025Y191633D02*
Y193470D01*
X480419Y180156D02*
Y193470D01*
X479025Y180156D02*
Y189692D01*
X498493Y198969D02*
X499887D01*
X492258D02*
X493652D01*
X468285Y202050D02*
X485134D01*
X468285Y200865D02*
X485352D01*
X461398Y180156D02*
X462792D01*
Y181874D01*
Y183541D02*
Y187010D01*
X461398Y180156D02*
Y188850D01*
X462792Y187010D02*
X464886D01*
X462800Y188384D02*
X464392D01*
X487309Y193470D02*
Y196961D01*
X485915Y193473D02*
Y196961D01*
X499887Y188094D02*
Y198969D01*
X498493Y188039D02*
Y198969D01*
X493652Y180156D02*
Y198969D01*
X492258Y180156D02*
Y198969D01*
X487309Y183954D02*
Y192096D01*
X485915Y183837D02*
Y192098D01*
X483715Y193473D02*
X485915D01*
X483715Y192098D02*
X485915D01*
Y196961D02*
X487309D01*
X403187Y180151D02*
Y189840D01*
X404581Y180151D02*
Y188850D01*
X403187Y180151D02*
X404581D01*
X425365Y191493D02*
X425373Y198969D01*
X426767D01*
X418684Y202047D02*
X424723D01*
X418684Y200865D02*
X424941D01*
X426767Y180156D02*
Y198969D01*
X444222Y180156D02*
Y181531D01*
X416532Y180156D02*
X417926D01*
X416532D02*
Y188970D01*
X417926Y180156D02*
Y188850D01*
X412709Y180156D02*
Y193470D01*
X411315Y180156D02*
Y189845D01*
Y180156D02*
X412709D01*
X444579Y197128D02*
Y198969D01*
X411315Y191493D02*
Y193470D01*
X412709D01*
X425373Y180156D02*
Y189879D01*
Y180156D02*
X426767D01*
X394897D02*
X396291D01*
X394897D02*
X394914Y188970D01*
X396291Y180156D02*
Y188850D01*
X458810Y180156D02*
Y181977D01*
X444222Y181531D02*
X457405D01*
X446006Y197591D02*
X457684D01*
X446006D02*
X458810Y181977D01*
X444222Y180156D02*
X458810D01*
X486888Y202404D02*
Y224565D01*
X485720Y202632D02*
Y224565D01*
X467956Y208499D02*
Y223522D01*
X469124Y208499D02*
Y223728D01*
X446059Y202619D02*
Y223728D01*
X444891Y202418D02*
Y223514D01*
X450518Y224038D02*
X467228Y201422D01*
X452113Y223862D02*
X468162Y202114D01*
X451137Y225265D02*
X467588D01*
X452238Y224108D02*
X467370D01*
X457684Y197591D02*
Y198969D01*
X444579Y197128D02*
X457405Y181531D01*
X444579Y198969D02*
X457684D01*
X446424Y200865D02*
X461306D01*
X446645Y202036D02*
X461306D01*
X425309Y202630D02*
Y223728D01*
X426477Y202404D02*
Y223514D01*
X427060Y224099D02*
X444308D01*
X426845Y225265D02*
X444523D01*
X512917Y186134D02*
X512947Y186717D01*
X512977Y187855D02*
X512978Y188041D01*
Y198969D01*
X511584D02*
X512978D01*
D130*
X-3994Y168200D02*
Y169500D01*
X-594Y168200D02*
Y169500D01*
Y162500D02*
Y163800D01*
X-3994Y162500D02*
Y163800D01*
X-594Y162500D01*
M02*
