G04*
G04 #@! TF.GenerationSoftware,Altium Limited,Altium Designer,20.0.13 (296)*
G04*
G04 Layer_Color=8388736*
%FSLAX25Y25*%
%MOIN*%
G70*
G01*
G75*
%ADD56R,0.03950X0.03950*%
%ADD57R,0.05524X0.03556*%
%ADD58R,0.05524X0.03950*%
%ADD59O,0.07887X0.01981*%
%ADD60O,0.01981X0.07887*%
%ADD61O,0.09461X0.03162*%
%ADD62R,0.07099X0.01981*%
%ADD63O,0.06706X0.02375*%
%ADD64R,0.07296X0.01981*%
%ADD65R,0.09265X0.04540*%
%ADD66R,0.09265X0.13595*%
%ADD67R,0.07887X0.08674*%
%ADD68R,0.03950X0.05524*%
%ADD69R,0.11417X0.02559*%
%ADD70O,0.01981X0.09068*%
%ADD71O,0.09068X0.01981*%
%ADD72R,0.24410X0.24410*%
%ADD73R,0.12217X0.20485*%
%ADD74R,0.11036X0.13005*%
%ADD75R,0.06902X0.03162*%
%ADD76O,0.06693X0.01575*%
%ADD77R,0.03556X0.03320*%
%ADD78R,0.03556X0.02769*%
%ADD79R,0.03320X0.03556*%
%ADD80R,0.02769X0.03556*%
%ADD81R,0.05131X0.03162*%
%ADD82R,0.09068X0.05524*%
%ADD83R,0.05524X0.09068*%
%ADD84R,0.03556X0.05524*%
G04:AMPARAMS|DCode=85|XSize=55.24mil|YSize=35.56mil|CornerRadius=0mil|HoleSize=0mil|Usage=FLASHONLY|Rotation=225.000|XOffset=0mil|YOffset=0mil|HoleType=Round|Shape=Rectangle|*
%AMROTATEDRECTD85*
4,1,4,0.00696,0.03210,0.03210,0.00696,-0.00696,-0.03210,-0.03210,-0.00696,0.00696,0.03210,0.0*
%
%ADD85ROTATEDRECTD85*%

%ADD86R,0.03556X0.02375*%
%ADD87C,0.10249*%
%ADD88R,0.06312X0.06312*%
%ADD89C,0.06312*%
%ADD90C,0.13595*%
%ADD91C,0.05918*%
%ADD92R,0.04737X0.04737*%
%ADD93C,0.10800*%
%ADD94R,0.06706X0.06706*%
%ADD95C,0.06706*%
%ADD96R,0.06706X0.06706*%
%ADD97R,0.08674X0.08674*%
%ADD98C,0.08674*%
%ADD99C,0.06600*%
%ADD100C,0.01772*%
%ADD101C,0.02769*%
G36*
X14000Y45094D02*
X13418D01*
X12277Y45321D01*
X11203Y45767D01*
X10236Y46413D01*
X9413Y47235D01*
X8767Y48203D01*
X8321Y49277D01*
X8095Y50418D01*
Y51000D01*
Y51582D01*
X8321Y52723D01*
X8767Y53797D01*
X9413Y54764D01*
X10236Y55587D01*
X11203Y56233D01*
X12277Y56679D01*
X13418Y56906D01*
X14000D01*
X14582D01*
X15723Y56679D01*
X16797Y56233D01*
X17764Y55587D01*
X18587Y54764D01*
X19233Y53797D01*
X19679Y52723D01*
X19906Y51582D01*
Y51000D01*
Y50418D01*
X19679Y49277D01*
X19233Y48203D01*
X18587Y47235D01*
X17764Y46413D01*
X16797Y45767D01*
X15723Y45321D01*
X14582Y45094D01*
X14000D01*
D01*
D02*
G37*
G36*
X545000Y4095D02*
X544418D01*
X543277Y4321D01*
X542203Y4767D01*
X541235Y5413D01*
X540413Y6236D01*
X539767Y7203D01*
X539321Y8277D01*
X539094Y9418D01*
Y10000D01*
Y10582D01*
X539321Y11723D01*
X539767Y12797D01*
X540413Y13765D01*
X541235Y14587D01*
X542203Y15233D01*
X543277Y15679D01*
X544418Y15905D01*
X545000D01*
X545582D01*
X546723Y15679D01*
X547797Y15233D01*
X548765Y14587D01*
X549587Y13765D01*
X550233Y12797D01*
X550679Y11723D01*
X550906Y10582D01*
Y10000D01*
Y9418D01*
X550679Y8277D01*
X550233Y7203D01*
X549587Y6236D01*
X548765Y5413D01*
X547797Y4767D01*
X546723Y4321D01*
X545582Y4095D01*
X545000D01*
D01*
D02*
G37*
G36*
X430500Y330095D02*
X429918D01*
X428777Y330321D01*
X427703Y330767D01*
X426735Y331413D01*
X425913Y332235D01*
X425267Y333203D01*
X424821Y334277D01*
X424594Y335418D01*
Y336000D01*
Y336582D01*
X424821Y337723D01*
X425267Y338797D01*
X425913Y339764D01*
X426735Y340587D01*
X427703Y341233D01*
X428777Y341679D01*
X429918Y341905D01*
X430500D01*
X431082D01*
X432223Y341679D01*
X433297Y341233D01*
X434265Y340587D01*
X435087Y339764D01*
X435733Y338797D01*
X436179Y337723D01*
X436406Y336582D01*
Y336000D01*
Y335418D01*
X436179Y334277D01*
X435733Y333203D01*
X435087Y332235D01*
X434265Y331413D01*
X433297Y330767D01*
X432223Y330321D01*
X431082Y330095D01*
X430500D01*
D01*
D02*
G37*
D56*
X405623Y25642D02*
D03*
Y31941D02*
D03*
X383261Y25642D02*
D03*
Y31941D02*
D03*
X360000Y25709D02*
D03*
Y32008D02*
D03*
X337531Y25709D02*
D03*
Y32008D02*
D03*
X314578Y25642D02*
D03*
Y31941D02*
D03*
X292000Y25709D02*
D03*
Y32008D02*
D03*
X269804Y25642D02*
D03*
Y31941D02*
D03*
X248500Y25709D02*
D03*
Y32008D02*
D03*
X21000Y14850D02*
D03*
Y21150D02*
D03*
X39850Y358760D02*
D03*
Y365059D02*
D03*
X13000Y359350D02*
D03*
Y365650D02*
D03*
D57*
X20874Y358957D02*
D03*
X32000Y358957D02*
D03*
X12954Y14322D02*
D03*
X123125Y32924D02*
D03*
Y39223D02*
D03*
X376000Y26000D02*
D03*
Y32299D02*
D03*
X352500Y25701D02*
D03*
Y32000D02*
D03*
X330000Y25701D02*
D03*
Y32000D02*
D03*
X307000Y25701D02*
D03*
Y32000D02*
D03*
X285000Y26000D02*
D03*
Y32299D02*
D03*
X262500Y25701D02*
D03*
Y32000D02*
D03*
X241500Y26000D02*
D03*
Y32299D02*
D03*
X32000Y365256D02*
D03*
X83700Y121600D02*
D03*
Y115301D02*
D03*
X76700Y121600D02*
D03*
Y115301D02*
D03*
X20874Y365256D02*
D03*
X151599Y193489D02*
D03*
Y199789D02*
D03*
Y182426D02*
D03*
Y188726D02*
D03*
X130125Y32924D02*
D03*
Y39223D02*
D03*
X-12000Y125000D02*
D03*
Y131299D02*
D03*
X-26000Y131299D02*
D03*
Y125000D02*
D03*
X-19000Y125000D02*
D03*
Y131299D02*
D03*
X147850Y304343D02*
D03*
Y298043D02*
D03*
X12954Y20621D02*
D03*
X494000Y220000D02*
D03*
Y226299D02*
D03*
X494255Y132822D02*
D03*
Y139121D02*
D03*
X494500Y238500D02*
D03*
Y244799D02*
D03*
X494755Y151322D02*
D03*
Y157621D02*
D03*
X494000Y256201D02*
D03*
Y262500D02*
D03*
X494255Y169023D02*
D03*
Y175322D02*
D03*
X494000Y274500D02*
D03*
Y280799D02*
D03*
X494255Y187322D02*
D03*
Y193621D02*
D03*
X398000Y25500D02*
D03*
Y31799D02*
D03*
D58*
X179300Y217831D02*
D03*
Y212319D02*
D03*
X178500Y198488D02*
D03*
Y204000D02*
D03*
X105000Y331488D02*
D03*
Y337000D02*
D03*
X64916Y26332D02*
D03*
Y31844D02*
D03*
X107625Y121735D02*
D03*
Y116223D02*
D03*
X114625Y121723D02*
D03*
Y116212D02*
D03*
X72625Y23223D02*
D03*
Y28735D02*
D03*
X114633Y323987D02*
D03*
Y318475D02*
D03*
X368255Y128322D02*
D03*
Y122810D02*
D03*
X368000Y215500D02*
D03*
Y209988D02*
D03*
X375255Y122822D02*
D03*
Y117311D02*
D03*
X375000Y210000D02*
D03*
Y204488D02*
D03*
X368255Y183834D02*
D03*
Y178322D02*
D03*
X368000Y271012D02*
D03*
Y265500D02*
D03*
X375255Y178334D02*
D03*
Y172822D02*
D03*
X375000Y265512D02*
D03*
Y260000D02*
D03*
X368255Y172822D02*
D03*
Y167311D02*
D03*
X368000Y260000D02*
D03*
Y254488D02*
D03*
X375255Y167322D02*
D03*
Y161811D02*
D03*
X375000Y254500D02*
D03*
Y248988D02*
D03*
X368000Y249000D02*
D03*
Y243488D02*
D03*
X375255Y156322D02*
D03*
Y150811D02*
D03*
X375000Y243500D02*
D03*
Y237988D02*
D03*
X368255Y150822D02*
D03*
Y145310D02*
D03*
X368000Y238000D02*
D03*
Y232488D02*
D03*
X375255Y145334D02*
D03*
Y139822D02*
D03*
X375000Y232512D02*
D03*
Y227000D02*
D03*
X368255Y139822D02*
D03*
Y134310D02*
D03*
X368000Y227000D02*
D03*
Y221488D02*
D03*
X375255Y133834D02*
D03*
Y128322D02*
D03*
X375000Y221012D02*
D03*
Y215500D02*
D03*
X317500Y273488D02*
D03*
Y279000D02*
D03*
X186000Y163000D02*
D03*
Y157488D02*
D03*
X129800Y257831D02*
D03*
Y252319D02*
D03*
X115550Y257831D02*
D03*
Y252319D02*
D03*
X101300Y257831D02*
D03*
Y252319D02*
D03*
Y175807D02*
D03*
Y181319D02*
D03*
X115550Y175807D02*
D03*
Y181319D02*
D03*
X129800Y175807D02*
D03*
Y181319D02*
D03*
X144800Y193807D02*
D03*
Y199319D02*
D03*
X170800Y198500D02*
D03*
Y204012D02*
D03*
X170800Y217831D02*
D03*
Y212319D02*
D03*
X368255Y161822D02*
D03*
Y156310D02*
D03*
X232000Y215543D02*
D03*
Y210032D02*
D03*
X195000Y198520D02*
D03*
Y204031D02*
D03*
X259798Y303110D02*
D03*
Y308622D02*
D03*
X282000Y307000D02*
D03*
Y301488D02*
D03*
X302701Y129488D02*
D03*
Y135000D02*
D03*
X325701Y132012D02*
D03*
Y126500D02*
D03*
X367464Y331953D02*
D03*
Y326441D02*
D03*
X281850Y356807D02*
D03*
Y351295D02*
D03*
X200858Y356189D02*
D03*
Y350677D02*
D03*
X200858Y293404D02*
D03*
Y287892D02*
D03*
X275000Y181512D02*
D03*
Y176000D02*
D03*
X215256Y130268D02*
D03*
Y124756D02*
D03*
X276350Y101807D02*
D03*
Y96295D02*
D03*
X366350Y100307D02*
D03*
Y94795D02*
D03*
X143500Y150012D02*
D03*
Y144500D02*
D03*
X152500Y319488D02*
D03*
Y325000D02*
D03*
D59*
X77400Y54101D02*
D03*
Y56070D02*
D03*
Y58038D02*
D03*
Y60007D02*
D03*
Y61975D02*
D03*
Y63944D02*
D03*
Y65912D02*
D03*
Y67881D02*
D03*
Y69849D02*
D03*
Y71818D02*
D03*
Y73786D02*
D03*
Y75755D02*
D03*
Y77723D02*
D03*
Y79692D02*
D03*
Y81660D02*
D03*
Y83629D02*
D03*
Y85597D02*
D03*
Y87566D02*
D03*
Y89534D02*
D03*
Y91503D02*
D03*
Y93471D02*
D03*
Y95440D02*
D03*
Y97408D02*
D03*
Y99377D02*
D03*
Y101346D02*
D03*
X136849D02*
D03*
Y99377D02*
D03*
Y97408D02*
D03*
Y95440D02*
D03*
Y93471D02*
D03*
Y91503D02*
D03*
Y89534D02*
D03*
Y87566D02*
D03*
Y85597D02*
D03*
Y83629D02*
D03*
Y81660D02*
D03*
Y79692D02*
D03*
Y77723D02*
D03*
Y75755D02*
D03*
Y73786D02*
D03*
Y71818D02*
D03*
Y69849D02*
D03*
Y67881D02*
D03*
Y65912D02*
D03*
Y63944D02*
D03*
Y61975D02*
D03*
Y60007D02*
D03*
Y58038D02*
D03*
Y56070D02*
D03*
Y54101D02*
D03*
D60*
X83503Y107448D02*
D03*
X85471D02*
D03*
X87440D02*
D03*
X89408D02*
D03*
X91377D02*
D03*
X93345D02*
D03*
X95314D02*
D03*
X97282D02*
D03*
X99251D02*
D03*
X101219D02*
D03*
X103188D02*
D03*
X105156D02*
D03*
X107125D02*
D03*
X109093D02*
D03*
X111062D02*
D03*
X113030D02*
D03*
X114999D02*
D03*
X116967D02*
D03*
X118936D02*
D03*
X120904D02*
D03*
X122873D02*
D03*
X124841D02*
D03*
X126810D02*
D03*
X128778D02*
D03*
X130747D02*
D03*
Y47999D02*
D03*
X128778D02*
D03*
X126810D02*
D03*
X124841D02*
D03*
X122873D02*
D03*
X120904D02*
D03*
X118936D02*
D03*
X116967D02*
D03*
X114999D02*
D03*
X113030D02*
D03*
X111062D02*
D03*
X109093D02*
D03*
X107125D02*
D03*
X105156D02*
D03*
X103188D02*
D03*
X101219D02*
D03*
X99251D02*
D03*
X97282D02*
D03*
X95314D02*
D03*
X93345D02*
D03*
X91377D02*
D03*
X89408D02*
D03*
X87440D02*
D03*
X85471D02*
D03*
X83503D02*
D03*
D61*
X222949Y199531D02*
D03*
Y204532D02*
D03*
Y209531D02*
D03*
Y214531D02*
D03*
X204051Y199531D02*
D03*
Y204532D02*
D03*
Y209531D02*
D03*
Y214531D02*
D03*
D62*
X309906Y265000D02*
D03*
Y267559D02*
D03*
Y270118D02*
D03*
Y272677D02*
D03*
Y275236D02*
D03*
Y277795D02*
D03*
Y280354D02*
D03*
Y282913D02*
D03*
Y285472D02*
D03*
Y288032D02*
D03*
X287465Y265000D02*
D03*
Y267559D02*
D03*
Y270118D02*
D03*
Y272677D02*
D03*
Y275236D02*
D03*
Y277795D02*
D03*
Y280354D02*
D03*
Y282913D02*
D03*
Y285472D02*
D03*
Y288032D02*
D03*
X215919Y147816D02*
D03*
Y150375D02*
D03*
Y152934D02*
D03*
Y155493D02*
D03*
Y158052D02*
D03*
Y160611D02*
D03*
Y163170D02*
D03*
Y165729D02*
D03*
Y168288D02*
D03*
Y170847D02*
D03*
X193478Y147816D02*
D03*
Y150375D02*
D03*
Y152934D02*
D03*
Y155493D02*
D03*
Y158052D02*
D03*
Y160611D02*
D03*
Y163170D02*
D03*
Y165729D02*
D03*
Y168288D02*
D03*
Y170847D02*
D03*
D63*
X209327Y333693D02*
D03*
Y331134D02*
D03*
Y328575D02*
D03*
Y326015D02*
D03*
X225429Y333693D02*
D03*
Y331134D02*
D03*
Y328575D02*
D03*
Y326015D02*
D03*
X392036Y301779D02*
D03*
Y304338D02*
D03*
Y306897D02*
D03*
Y309456D02*
D03*
X375933Y301779D02*
D03*
Y304338D02*
D03*
Y306897D02*
D03*
Y309456D02*
D03*
X290319Y334311D02*
D03*
Y331752D02*
D03*
Y329193D02*
D03*
Y326634D02*
D03*
X306421Y334311D02*
D03*
Y331752D02*
D03*
Y329193D02*
D03*
Y326634D02*
D03*
X225429Y263231D02*
D03*
Y265790D02*
D03*
Y268349D02*
D03*
Y270908D02*
D03*
X209327Y263231D02*
D03*
Y265790D02*
D03*
Y268349D02*
D03*
Y270908D02*
D03*
X283469Y159016D02*
D03*
Y156456D02*
D03*
Y153897D02*
D03*
Y151338D02*
D03*
X299571Y159016D02*
D03*
Y156456D02*
D03*
Y153897D02*
D03*
Y151338D02*
D03*
X239827Y100094D02*
D03*
Y102653D02*
D03*
Y105212D02*
D03*
Y107771D02*
D03*
X223725Y100094D02*
D03*
Y102653D02*
D03*
Y105212D02*
D03*
Y107771D02*
D03*
X284819Y79311D02*
D03*
Y76752D02*
D03*
Y74193D02*
D03*
Y71634D02*
D03*
X300922Y79311D02*
D03*
Y76752D02*
D03*
Y74193D02*
D03*
Y71634D02*
D03*
X390921Y70134D02*
D03*
Y72693D02*
D03*
Y75252D02*
D03*
Y77811D02*
D03*
X374819Y70134D02*
D03*
Y72693D02*
D03*
Y75252D02*
D03*
Y77811D02*
D03*
D64*
X375114Y330941D02*
D03*
Y328382D02*
D03*
Y325823D02*
D03*
Y323264D02*
D03*
Y320705D02*
D03*
Y318146D02*
D03*
Y315587D02*
D03*
X396965Y330941D02*
D03*
Y328382D02*
D03*
Y325823D02*
D03*
Y323264D02*
D03*
Y320705D02*
D03*
Y318146D02*
D03*
Y315587D02*
D03*
X311350Y340441D02*
D03*
Y343000D02*
D03*
Y345559D02*
D03*
Y348118D02*
D03*
Y350677D02*
D03*
Y353236D02*
D03*
Y355795D02*
D03*
X289500Y340441D02*
D03*
Y343000D02*
D03*
Y345559D02*
D03*
Y348118D02*
D03*
Y350677D02*
D03*
Y353236D02*
D03*
Y355795D02*
D03*
X208508Y355177D02*
D03*
Y352618D02*
D03*
Y350059D02*
D03*
Y347500D02*
D03*
Y344941D02*
D03*
Y342382D02*
D03*
Y339823D02*
D03*
X230358Y355177D02*
D03*
Y352618D02*
D03*
Y350059D02*
D03*
Y347500D02*
D03*
Y344941D02*
D03*
Y342382D02*
D03*
Y339823D02*
D03*
X230358Y277038D02*
D03*
Y279597D02*
D03*
Y282156D02*
D03*
Y284715D02*
D03*
Y287274D02*
D03*
Y289833D02*
D03*
Y292392D02*
D03*
X208508Y277038D02*
D03*
Y279597D02*
D03*
Y282156D02*
D03*
Y284715D02*
D03*
Y287274D02*
D03*
Y289833D02*
D03*
Y292392D02*
D03*
X282650Y180500D02*
D03*
Y177941D02*
D03*
Y175382D02*
D03*
Y172823D02*
D03*
Y170264D02*
D03*
Y167705D02*
D03*
Y165146D02*
D03*
X304500Y180500D02*
D03*
Y177941D02*
D03*
Y175382D02*
D03*
Y172823D02*
D03*
Y170264D02*
D03*
Y167705D02*
D03*
Y165146D02*
D03*
X244756Y113902D02*
D03*
Y116461D02*
D03*
Y119020D02*
D03*
Y121579D02*
D03*
Y124138D02*
D03*
Y126697D02*
D03*
Y129256D02*
D03*
X222905Y113902D02*
D03*
Y116461D02*
D03*
Y119020D02*
D03*
Y121579D02*
D03*
Y124138D02*
D03*
Y126697D02*
D03*
Y129256D02*
D03*
X284000Y100795D02*
D03*
Y98236D02*
D03*
Y95677D02*
D03*
Y93118D02*
D03*
Y90559D02*
D03*
Y88000D02*
D03*
Y85441D02*
D03*
X305850Y100795D02*
D03*
Y98236D02*
D03*
Y95677D02*
D03*
Y93118D02*
D03*
Y90559D02*
D03*
Y88000D02*
D03*
Y85441D02*
D03*
X395850Y83941D02*
D03*
Y86500D02*
D03*
Y89059D02*
D03*
Y91618D02*
D03*
Y94177D02*
D03*
Y96736D02*
D03*
Y99295D02*
D03*
X374000Y83941D02*
D03*
Y86500D02*
D03*
Y89059D02*
D03*
Y91618D02*
D03*
Y94177D02*
D03*
Y96736D02*
D03*
Y99295D02*
D03*
D65*
X54417Y19945D02*
D03*
Y29000D02*
D03*
Y38055D02*
D03*
D66*
X31583Y29000D02*
D03*
D67*
X102625Y31180D02*
D03*
Y14723D02*
D03*
X82625Y31259D02*
D03*
Y14723D02*
D03*
D68*
X38459Y10197D02*
D03*
X32947D02*
D03*
X157575Y312500D02*
D03*
X152063D02*
D03*
X120851Y301000D02*
D03*
X115339D02*
D03*
X63125Y78224D02*
D03*
X68636D02*
D03*
X151500Y77000D02*
D03*
X145988D02*
D03*
X113636Y39723D02*
D03*
X108125D02*
D03*
X63113Y66224D02*
D03*
X68625D02*
D03*
X63113Y95723D02*
D03*
X68625D02*
D03*
X151125Y90223D02*
D03*
X145613D02*
D03*
X151500Y64500D02*
D03*
X145988D02*
D03*
X92625Y39724D02*
D03*
X98136D02*
D03*
X441481Y169667D02*
D03*
X446992D02*
D03*
X441226Y256844D02*
D03*
X446738D02*
D03*
X441493Y181000D02*
D03*
X447004D02*
D03*
X441238Y268178D02*
D03*
X446749D02*
D03*
X441493Y158333D02*
D03*
X447004D02*
D03*
X441238Y245511D02*
D03*
X446749D02*
D03*
X397144Y147000D02*
D03*
X402656D02*
D03*
X396889Y234178D02*
D03*
X402401D02*
D03*
X397132Y158333D02*
D03*
X402644D02*
D03*
X396878Y245511D02*
D03*
X402389D02*
D03*
X397144Y169667D02*
D03*
X402656D02*
D03*
X396889Y256844D02*
D03*
X402401D02*
D03*
X397132Y181000D02*
D03*
X402644D02*
D03*
X396878Y268178D02*
D03*
X402389D02*
D03*
X441493Y147000D02*
D03*
X447004D02*
D03*
X441238Y234178D02*
D03*
X446749D02*
D03*
X409465Y324441D02*
D03*
X403953D02*
D03*
X323850Y349295D02*
D03*
X318339D02*
D03*
X242858Y348677D02*
D03*
X237347D02*
D03*
X242858Y285892D02*
D03*
X237347D02*
D03*
X317000Y174000D02*
D03*
X311488D02*
D03*
X257256Y122756D02*
D03*
X251744D02*
D03*
X318350Y94295D02*
D03*
X312839D02*
D03*
X408350Y92795D02*
D03*
X402839D02*
D03*
X354953Y298941D02*
D03*
X360465D02*
D03*
X269339Y323795D02*
D03*
X274850D02*
D03*
X188347Y323177D02*
D03*
X193858D02*
D03*
X188347Y260392D02*
D03*
X193858D02*
D03*
X262488Y148500D02*
D03*
X268000D02*
D03*
X202744Y97256D02*
D03*
X208256D02*
D03*
X263839Y68795D02*
D03*
X269350D02*
D03*
X353839Y67295D02*
D03*
X359350D02*
D03*
X369953Y296441D02*
D03*
X375465D02*
D03*
X284339Y321295D02*
D03*
X289850D02*
D03*
X203346Y320677D02*
D03*
X208858D02*
D03*
X203346Y257892D02*
D03*
X208858D02*
D03*
X277488Y146000D02*
D03*
X283000D02*
D03*
X217744Y94756D02*
D03*
X223256D02*
D03*
X278839Y66295D02*
D03*
X284350D02*
D03*
X368839Y64795D02*
D03*
X374350D02*
D03*
X150800Y217319D02*
D03*
X145288D02*
D03*
X150812Y224319D02*
D03*
X145300D02*
D03*
X68288Y227319D02*
D03*
X73800D02*
D03*
X68288Y207319D02*
D03*
X73800D02*
D03*
X259798Y296110D02*
D03*
X265310D02*
D03*
X304201Y123000D02*
D03*
X309713D02*
D03*
X107000Y158000D02*
D03*
X101488D02*
D03*
X164512Y106000D02*
D03*
X159000D02*
D03*
X184512Y74000D02*
D03*
X179000D02*
D03*
D69*
X-49027Y264732D02*
D03*
Y261583D02*
D03*
Y258433D02*
D03*
Y255283D02*
D03*
Y252134D02*
D03*
Y248984D02*
D03*
Y245835D02*
D03*
Y242685D02*
D03*
Y239535D02*
D03*
Y236386D02*
D03*
Y233236D02*
D03*
Y230087D02*
D03*
Y226937D02*
D03*
Y223787D02*
D03*
Y220638D02*
D03*
Y217488D02*
D03*
Y214338D02*
D03*
Y211189D02*
D03*
Y208039D02*
D03*
Y204890D02*
D03*
Y201740D02*
D03*
Y198591D02*
D03*
Y182843D02*
D03*
Y179693D02*
D03*
Y176543D02*
D03*
Y173394D02*
D03*
Y170244D02*
D03*
Y167094D02*
D03*
Y163945D02*
D03*
Y160795D02*
D03*
Y157646D02*
D03*
Y154496D02*
D03*
Y151346D02*
D03*
Y148197D02*
D03*
Y145047D02*
D03*
Y141898D02*
D03*
Y138748D02*
D03*
Y135598D02*
D03*
Y132449D02*
D03*
Y129299D02*
D03*
D70*
X126232Y191016D02*
D03*
X124264D02*
D03*
X120327D02*
D03*
X118358D02*
D03*
X112453D02*
D03*
X110484D02*
D03*
X106547D02*
D03*
X104579D02*
D03*
X128201D02*
D03*
X122295D02*
D03*
X116390D02*
D03*
X114421D02*
D03*
X108516D02*
D03*
X102610D02*
D03*
X100642D02*
D03*
X98673D02*
D03*
X96705D02*
D03*
X94736D02*
D03*
X92768D02*
D03*
X90799D02*
D03*
Y242984D02*
D03*
X92768D02*
D03*
X94736D02*
D03*
X96705D02*
D03*
X98673D02*
D03*
X100642D02*
D03*
X102610D02*
D03*
X108516D02*
D03*
X114421D02*
D03*
X116390D02*
D03*
X122295D02*
D03*
X128201D02*
D03*
X126232D02*
D03*
X124264D02*
D03*
X120327D02*
D03*
X118358D02*
D03*
X112453D02*
D03*
X110484D02*
D03*
X106547D02*
D03*
X104579D02*
D03*
D71*
X135484Y235701D02*
D03*
Y233732D02*
D03*
Y231764D02*
D03*
Y229795D02*
D03*
Y227827D02*
D03*
Y225858D02*
D03*
Y223890D02*
D03*
Y221921D02*
D03*
Y219953D02*
D03*
Y217984D02*
D03*
Y216016D02*
D03*
Y214047D02*
D03*
Y212079D02*
D03*
Y210110D02*
D03*
Y208142D02*
D03*
Y206173D02*
D03*
Y204205D02*
D03*
Y202236D02*
D03*
Y200268D02*
D03*
Y198299D02*
D03*
X83516D02*
D03*
Y200268D02*
D03*
Y202236D02*
D03*
Y204205D02*
D03*
Y206173D02*
D03*
Y208142D02*
D03*
Y210110D02*
D03*
Y212079D02*
D03*
Y214047D02*
D03*
Y216016D02*
D03*
Y217984D02*
D03*
Y219953D02*
D03*
Y221921D02*
D03*
Y223890D02*
D03*
Y225858D02*
D03*
Y227827D02*
D03*
Y229795D02*
D03*
Y231764D02*
D03*
Y233732D02*
D03*
Y235701D02*
D03*
D72*
X109500Y217000D02*
D03*
D73*
X155016Y357382D02*
D03*
X116039D02*
D03*
D74*
X133165Y316437D02*
D03*
D75*
X143795Y308937D02*
D03*
Y313937D02*
D03*
Y318937D02*
D03*
Y323937D02*
D03*
X122535Y308937D02*
D03*
Y313937D02*
D03*
Y318937D02*
D03*
Y323937D02*
D03*
D76*
X410871Y177547D02*
D03*
Y175578D02*
D03*
Y173610D02*
D03*
Y171641D02*
D03*
Y169673D02*
D03*
Y167704D02*
D03*
Y165736D02*
D03*
Y163767D02*
D03*
Y161799D02*
D03*
Y159830D02*
D03*
Y157862D02*
D03*
Y155893D02*
D03*
Y153925D02*
D03*
Y151956D02*
D03*
Y149988D02*
D03*
Y148019D02*
D03*
Y146051D02*
D03*
Y144082D02*
D03*
Y142114D02*
D03*
X432918Y177547D02*
D03*
Y175578D02*
D03*
Y173610D02*
D03*
Y171641D02*
D03*
Y169673D02*
D03*
Y167704D02*
D03*
Y165736D02*
D03*
Y163767D02*
D03*
Y161799D02*
D03*
Y159830D02*
D03*
Y157862D02*
D03*
Y155893D02*
D03*
Y153925D02*
D03*
Y151956D02*
D03*
Y149988D02*
D03*
Y148019D02*
D03*
Y146051D02*
D03*
Y144082D02*
D03*
Y142114D02*
D03*
X410819Y264724D02*
D03*
Y262756D02*
D03*
Y260787D02*
D03*
Y258819D02*
D03*
Y256850D02*
D03*
Y254882D02*
D03*
Y252913D02*
D03*
Y250945D02*
D03*
Y248976D02*
D03*
Y247008D02*
D03*
Y245039D02*
D03*
Y243071D02*
D03*
Y241102D02*
D03*
Y239134D02*
D03*
Y237165D02*
D03*
Y235197D02*
D03*
Y233228D02*
D03*
Y231260D02*
D03*
Y229291D02*
D03*
X432866Y264724D02*
D03*
Y262756D02*
D03*
Y260787D02*
D03*
Y258819D02*
D03*
Y256850D02*
D03*
Y254882D02*
D03*
Y252913D02*
D03*
Y250945D02*
D03*
Y248976D02*
D03*
Y247008D02*
D03*
Y245039D02*
D03*
Y243071D02*
D03*
Y241102D02*
D03*
Y239134D02*
D03*
Y237165D02*
D03*
Y235197D02*
D03*
Y233228D02*
D03*
Y231260D02*
D03*
Y229291D02*
D03*
D77*
X424500Y213209D02*
D03*
Y223642D02*
D03*
X418988Y213209D02*
D03*
Y223642D02*
D03*
X424755Y126031D02*
D03*
Y136464D02*
D03*
X419243Y126031D02*
D03*
Y136464D02*
D03*
X424512Y270500D02*
D03*
Y280933D02*
D03*
X419000Y270500D02*
D03*
Y280933D02*
D03*
X424767Y183322D02*
D03*
Y193755D02*
D03*
X419255Y183322D02*
D03*
Y193755D02*
D03*
X316756Y157783D02*
D03*
Y168217D02*
D03*
X311244Y157783D02*
D03*
Y168217D02*
D03*
X257012Y106539D02*
D03*
Y116972D02*
D03*
X251500Y106539D02*
D03*
Y116972D02*
D03*
X318106Y78079D02*
D03*
Y88512D02*
D03*
X312595Y78079D02*
D03*
Y88512D02*
D03*
X408106Y76579D02*
D03*
Y87012D02*
D03*
X402595Y76579D02*
D03*
Y87012D02*
D03*
D78*
X424500Y216850D02*
D03*
Y220000D02*
D03*
X418988Y216850D02*
D03*
Y220000D02*
D03*
X424755Y129673D02*
D03*
Y132822D02*
D03*
X419243Y129673D02*
D03*
Y132822D02*
D03*
X424512Y274142D02*
D03*
Y277291D02*
D03*
X419000Y274142D02*
D03*
Y277291D02*
D03*
X424767Y186964D02*
D03*
Y190114D02*
D03*
X419255Y186964D02*
D03*
Y190114D02*
D03*
X316756Y161425D02*
D03*
Y164575D02*
D03*
X311244Y161425D02*
D03*
Y164575D02*
D03*
X257012Y110181D02*
D03*
Y113331D02*
D03*
X251500Y110181D02*
D03*
Y113331D02*
D03*
X318106Y81720D02*
D03*
Y84870D02*
D03*
X312595Y81720D02*
D03*
Y84870D02*
D03*
X408106Y80220D02*
D03*
Y83370D02*
D03*
X402595Y80220D02*
D03*
Y83370D02*
D03*
D79*
X403606Y311764D02*
D03*
X414039D02*
D03*
X403606Y317276D02*
D03*
X414039D02*
D03*
X317992Y336618D02*
D03*
X328425D02*
D03*
X317992Y342130D02*
D03*
X328425D02*
D03*
X237000Y336000D02*
D03*
X247433D02*
D03*
X237000Y341512D02*
D03*
X247433D02*
D03*
X237000Y273215D02*
D03*
X247433D02*
D03*
X237000Y278727D02*
D03*
X247433D02*
D03*
X397681Y341197D02*
D03*
X387248D02*
D03*
X397681Y335685D02*
D03*
X387248D02*
D03*
X312067Y366051D02*
D03*
X301634D02*
D03*
X312067Y360539D02*
D03*
X301634D02*
D03*
X231075Y365433D02*
D03*
X220642D02*
D03*
X231075Y359921D02*
D03*
X220642D02*
D03*
X231075Y302648D02*
D03*
X220642D02*
D03*
X231075Y297136D02*
D03*
X220642D02*
D03*
X305217Y190756D02*
D03*
X294783D02*
D03*
X305217Y185244D02*
D03*
X294783D02*
D03*
X245472Y139512D02*
D03*
X235039D02*
D03*
X245472Y134000D02*
D03*
X235039D02*
D03*
X306567Y111051D02*
D03*
X296134D02*
D03*
X306567Y105539D02*
D03*
X296134D02*
D03*
X396567Y109551D02*
D03*
X386134D02*
D03*
X396567Y104039D02*
D03*
X386134D02*
D03*
D80*
X407248Y311764D02*
D03*
X410398D02*
D03*
X407248Y317276D02*
D03*
X410398D02*
D03*
X321634Y336618D02*
D03*
X324783D02*
D03*
X321634Y342130D02*
D03*
X324783D02*
D03*
X240642Y336000D02*
D03*
X243791D02*
D03*
X240642Y341512D02*
D03*
X243791D02*
D03*
X240642Y273215D02*
D03*
X243791D02*
D03*
X240642Y278727D02*
D03*
X243791D02*
D03*
X394039Y341197D02*
D03*
X390890D02*
D03*
X394039Y335685D02*
D03*
X390890D02*
D03*
X308425Y366051D02*
D03*
X305276D02*
D03*
X308425Y360539D02*
D03*
X305276D02*
D03*
X227433Y365433D02*
D03*
X224284D02*
D03*
X227433Y359921D02*
D03*
X224284D02*
D03*
X227433Y302648D02*
D03*
X224284D02*
D03*
X227433Y297136D02*
D03*
X224284D02*
D03*
X301575Y190756D02*
D03*
X298425D02*
D03*
X301575Y185244D02*
D03*
X298425D02*
D03*
X241831Y139512D02*
D03*
X238681D02*
D03*
X241831Y134000D02*
D03*
X238681D02*
D03*
X302925Y111051D02*
D03*
X299776D02*
D03*
X302925Y105539D02*
D03*
X299776D02*
D03*
X392925Y109551D02*
D03*
X389776D02*
D03*
X392925Y104039D02*
D03*
X389776D02*
D03*
D81*
X275916Y301370D02*
D03*
Y305110D02*
D03*
Y308850D02*
D03*
X265680D02*
D03*
Y301370D02*
D03*
X319819Y128260D02*
D03*
Y132000D02*
D03*
Y135740D02*
D03*
X309583D02*
D03*
Y128260D02*
D03*
D82*
X471644Y154874D02*
D03*
Y143063D02*
D03*
Y191000D02*
D03*
Y179189D02*
D03*
X471389Y278178D02*
D03*
Y266367D02*
D03*
X471644Y172937D02*
D03*
Y161126D02*
D03*
X471389Y260115D02*
D03*
Y248304D02*
D03*
Y242052D02*
D03*
Y230241D02*
D03*
X471644Y136811D02*
D03*
Y125000D02*
D03*
X471389Y223989D02*
D03*
Y212178D02*
D03*
X106000Y324311D02*
D03*
Y312500D02*
D03*
X95449Y328248D02*
D03*
Y340059D02*
D03*
X85212Y328248D02*
D03*
Y340059D02*
D03*
X485500Y223989D02*
D03*
Y212178D02*
D03*
X485755Y136811D02*
D03*
Y125000D02*
D03*
X485500Y242052D02*
D03*
Y230241D02*
D03*
X485755Y154874D02*
D03*
Y143063D02*
D03*
X485500Y260115D02*
D03*
Y248304D02*
D03*
X485755Y172937D02*
D03*
Y161126D02*
D03*
X485500Y278178D02*
D03*
Y266367D02*
D03*
X485755Y191000D02*
D03*
Y179189D02*
D03*
X523500Y106689D02*
D03*
Y118500D02*
D03*
X535500Y118500D02*
D03*
Y106689D02*
D03*
X73500Y272500D02*
D03*
Y260689D02*
D03*
D83*
X69811Y335000D02*
D03*
X58000D02*
D03*
X58189Y355000D02*
D03*
X70000D02*
D03*
X99500Y272500D02*
D03*
X87689D02*
D03*
D84*
X381956Y178822D02*
D03*
X388255D02*
D03*
X381701Y266000D02*
D03*
X388000D02*
D03*
X456235Y186066D02*
D03*
X462535D02*
D03*
X455980Y273244D02*
D03*
X462280D02*
D03*
X456255Y179374D02*
D03*
X462554D02*
D03*
X456000Y266551D02*
D03*
X462299D02*
D03*
X381956Y171822D02*
D03*
X388255D02*
D03*
X381701Y259000D02*
D03*
X388000D02*
D03*
X381956Y162673D02*
D03*
X388255D02*
D03*
X381701Y249850D02*
D03*
X388000D02*
D03*
X456255Y168673D02*
D03*
X462554D02*
D03*
X456000Y255850D02*
D03*
X462299D02*
D03*
X456255Y162098D02*
D03*
X462554D02*
D03*
X456000Y249276D02*
D03*
X462299D02*
D03*
X381956Y155598D02*
D03*
X388255D02*
D03*
X381701Y242776D02*
D03*
X388000D02*
D03*
X381956Y146094D02*
D03*
X388255D02*
D03*
X381701Y233272D02*
D03*
X388000D02*
D03*
X456255Y154594D02*
D03*
X462554D02*
D03*
X456000Y241772D02*
D03*
X462299D02*
D03*
X456235Y147901D02*
D03*
X462534D02*
D03*
X455980Y235079D02*
D03*
X462280D02*
D03*
X381956Y138901D02*
D03*
X388255D02*
D03*
X381701Y226079D02*
D03*
X388000D02*
D03*
X381956Y128822D02*
D03*
X388255D02*
D03*
X381701Y216000D02*
D03*
X388000D02*
D03*
X456255Y136515D02*
D03*
X462554D02*
D03*
X456000Y223693D02*
D03*
X462299D02*
D03*
X456255Y129822D02*
D03*
X462554D02*
D03*
X456000Y217000D02*
D03*
X462299D02*
D03*
X381956Y121822D02*
D03*
X388255D02*
D03*
X381701Y209000D02*
D03*
X388000D02*
D03*
X323000Y285500D02*
D03*
X316701D02*
D03*
X323000Y267500D02*
D03*
X316701D02*
D03*
X275000D02*
D03*
X281299D02*
D03*
X274500Y285500D02*
D03*
X280799D02*
D03*
X180701Y150500D02*
D03*
X187000D02*
D03*
X180701Y169500D02*
D03*
X187000D02*
D03*
X229299Y168000D02*
D03*
X223000D02*
D03*
X229299Y150500D02*
D03*
X223000D02*
D03*
X158001Y218319D02*
D03*
X164300D02*
D03*
X164256Y205173D02*
D03*
X157957D02*
D03*
X164256Y211748D02*
D03*
X157957D02*
D03*
X62825Y89223D02*
D03*
X69125D02*
D03*
X62825Y102223D02*
D03*
X69125D02*
D03*
X136000Y301500D02*
D03*
X142299D02*
D03*
X109000Y305000D02*
D03*
X102701D02*
D03*
D85*
X-28000Y156000D02*
D03*
X-23546Y151546D02*
D03*
D86*
X360929Y304382D02*
D03*
Y309500D02*
D03*
X369000D02*
D03*
Y306941D02*
D03*
Y304382D02*
D03*
X275315Y329236D02*
D03*
Y334354D02*
D03*
X283386D02*
D03*
Y331795D02*
D03*
Y329236D02*
D03*
X194323Y328618D02*
D03*
Y333736D02*
D03*
X202394D02*
D03*
Y331177D02*
D03*
Y328618D02*
D03*
X194323Y265833D02*
D03*
Y270951D02*
D03*
X202394D02*
D03*
Y268392D02*
D03*
Y265833D02*
D03*
X268465Y153941D02*
D03*
Y159059D02*
D03*
X276536D02*
D03*
Y156500D02*
D03*
Y153941D02*
D03*
X208721Y102697D02*
D03*
Y107815D02*
D03*
X216791D02*
D03*
Y105256D02*
D03*
Y102697D02*
D03*
X269815Y74236D02*
D03*
Y79354D02*
D03*
X277886D02*
D03*
Y76795D02*
D03*
Y74236D02*
D03*
X359815Y72736D02*
D03*
Y77854D02*
D03*
X367886D02*
D03*
Y75295D02*
D03*
Y72736D02*
D03*
D87*
X533000Y260000D02*
D03*
Y134000D02*
D03*
D88*
X536500Y180000D02*
D03*
Y242000D02*
D03*
D89*
X529500Y176000D02*
D03*
X536500Y172000D02*
D03*
X529500Y168000D02*
D03*
X536500Y164000D02*
D03*
X529500Y160000D02*
D03*
X536500Y156000D02*
D03*
X529500Y152000D02*
D03*
Y214000D02*
D03*
X536500Y218000D02*
D03*
X529500Y222000D02*
D03*
X536500Y226000D02*
D03*
X529500Y230000D02*
D03*
X536500Y234000D02*
D03*
X529500Y238000D02*
D03*
D90*
X546500Y141000D02*
D03*
Y253000D02*
D03*
D91*
X86500Y376421D02*
D03*
Y366579D02*
D03*
X32531Y294000D02*
D03*
X22689D02*
D03*
D92*
X357850Y94295D02*
D03*
X352850D02*
D03*
X357850Y89295D02*
D03*
X352850D02*
D03*
X357850Y84295D02*
D03*
X352850D02*
D03*
X262850Y85795D02*
D03*
X267850D02*
D03*
X262850Y90795D02*
D03*
X267850D02*
D03*
X262850Y95795D02*
D03*
X267850D02*
D03*
X206756Y124256D02*
D03*
X201756D02*
D03*
X206756Y119256D02*
D03*
X201756D02*
D03*
X206756Y114256D02*
D03*
X201756D02*
D03*
X261500Y165500D02*
D03*
X266500D02*
D03*
X261500Y170500D02*
D03*
X266500D02*
D03*
X261500Y175500D02*
D03*
X266500D02*
D03*
X192358Y287392D02*
D03*
X187358D02*
D03*
X192358Y282392D02*
D03*
X187358D02*
D03*
X192358Y277392D02*
D03*
X187358D02*
D03*
X187358Y340177D02*
D03*
X192358D02*
D03*
X187358Y345177D02*
D03*
X192358D02*
D03*
X187358Y350177D02*
D03*
X192358D02*
D03*
X273350Y350795D02*
D03*
X268350D02*
D03*
X273350Y345795D02*
D03*
X268350D02*
D03*
X273350Y340795D02*
D03*
X268350D02*
D03*
X353964Y315941D02*
D03*
X358964D02*
D03*
X353964Y320941D02*
D03*
X358964D02*
D03*
X353964Y325941D02*
D03*
X358964D02*
D03*
D93*
X65500Y140000D02*
D03*
X128000Y135000D02*
D03*
X148500Y239000D02*
D03*
X146000Y118000D02*
D03*
X158500Y229500D02*
D03*
X51000Y158500D02*
D03*
X36000Y64500D02*
D03*
X59500Y300000D02*
D03*
X127500Y284000D02*
D03*
X18000Y149000D02*
D03*
X59000Y378000D02*
D03*
D94*
X477000Y304500D02*
D03*
Y93000D02*
D03*
X74500Y170000D02*
D03*
D95*
X477000Y314500D02*
D03*
X467000Y304500D02*
D03*
Y314500D02*
D03*
X457000Y304500D02*
D03*
Y314500D02*
D03*
X447000Y304500D02*
D03*
Y314500D02*
D03*
X477000Y103000D02*
D03*
X467000Y93000D02*
D03*
Y103000D02*
D03*
X457000Y93000D02*
D03*
Y103000D02*
D03*
X447000Y93000D02*
D03*
Y103000D02*
D03*
X84500Y170000D02*
D03*
X37500Y250000D02*
D03*
X345000Y131000D02*
D03*
X335000Y141000D02*
D03*
X345000D02*
D03*
X335000Y151000D02*
D03*
X345000D02*
D03*
X335000Y161000D02*
D03*
X345000D02*
D03*
X344000Y257000D02*
D03*
X334000Y267000D02*
D03*
X344000D02*
D03*
X334000Y277000D02*
D03*
X344000D02*
D03*
X334000Y287000D02*
D03*
X344000D02*
D03*
X37500Y166000D02*
D03*
X22500Y175500D02*
D03*
X37500Y187000D02*
D03*
X22500Y196500D02*
D03*
X37500Y208000D02*
D03*
X22500Y217500D02*
D03*
X37500Y229000D02*
D03*
X22500Y238500D02*
D03*
X109500Y217000D02*
D03*
D96*
X37500Y260000D02*
D03*
X335000Y131000D02*
D03*
X334000Y257000D02*
D03*
X37500Y176000D02*
D03*
X22500Y185500D02*
D03*
X37500Y197000D02*
D03*
X22500Y206500D02*
D03*
X37500Y218000D02*
D03*
X22500Y227500D02*
D03*
X37500Y239000D02*
D03*
X22500Y248500D02*
D03*
D97*
X502500Y83000D02*
D03*
D98*
X512500D02*
D03*
X502500Y73000D02*
D03*
X512500D02*
D03*
X502500Y63000D02*
D03*
X512500D02*
D03*
X502500Y53000D02*
D03*
X512500D02*
D03*
X502500Y43000D02*
D03*
X512500D02*
D03*
D99*
X22500Y324000D02*
D03*
Y334000D02*
D03*
X32500Y324000D02*
D03*
Y334000D02*
D03*
D100*
X106547Y214047D02*
D03*
X112453Y208142D02*
D03*
Y214047D02*
D03*
Y225858D02*
D03*
Y219953D02*
D03*
X118358Y208142D02*
D03*
Y214047D02*
D03*
Y225858D02*
D03*
Y219953D02*
D03*
X106547Y208142D02*
D03*
Y225858D02*
D03*
Y219953D02*
D03*
X100642Y208142D02*
D03*
Y214047D02*
D03*
Y225858D02*
D03*
Y219953D02*
D03*
D101*
X135331Y312106D02*
D03*
X131000D02*
D03*
X135331Y316437D02*
D03*
X131000D02*
D03*
X135331Y320768D02*
D03*
X131000D02*
D03*
M02*
