G04*
G04 #@! TF.GenerationSoftware,Altium Limited,Altium Designer,21.2.1 (34)*
G04*
G04 Layer_Color=16711935*
%FSLAX25Y25*%
%MOIN*%
G70*
G04*
G04 #@! TF.SameCoordinates,D5F05BBA-8F67-4778-AA46-9882F16BB5AB*
G04*
G04*
G04 #@! TF.FilePolarity,Negative*
G04*
G01*
G75*
%ADD69R,0.11417X0.02559*%
%ADD87C,0.10249*%
%ADD88R,0.06312X0.06312*%
%ADD89C,0.06312*%
%ADD90C,0.13595*%
%ADD91C,0.05918*%
%ADD92R,0.04737X0.04737*%
%ADD93C,0.10800*%
%ADD94R,0.06706X0.06706*%
%ADD95C,0.06706*%
%ADD96R,0.06706X0.06706*%
%ADD97R,0.08674X0.08674*%
%ADD98C,0.08674*%
%ADD99C,0.06600*%
%ADD128R,0.04147X0.04147*%
D69*
X-49027Y264732D02*
D03*
Y261583D02*
D03*
Y258433D02*
D03*
Y255283D02*
D03*
Y252134D02*
D03*
Y248984D02*
D03*
Y245835D02*
D03*
Y242685D02*
D03*
Y239535D02*
D03*
Y236386D02*
D03*
Y233236D02*
D03*
Y230087D02*
D03*
Y226937D02*
D03*
Y223787D02*
D03*
Y220638D02*
D03*
Y217488D02*
D03*
Y214338D02*
D03*
Y211189D02*
D03*
Y208039D02*
D03*
Y204890D02*
D03*
Y201740D02*
D03*
Y198591D02*
D03*
Y182843D02*
D03*
Y179693D02*
D03*
Y176543D02*
D03*
Y173394D02*
D03*
Y170244D02*
D03*
Y167094D02*
D03*
Y163945D02*
D03*
Y160795D02*
D03*
Y157646D02*
D03*
Y154496D02*
D03*
Y151346D02*
D03*
Y148197D02*
D03*
Y145047D02*
D03*
Y141898D02*
D03*
Y138748D02*
D03*
Y135598D02*
D03*
Y132449D02*
D03*
Y129299D02*
D03*
D87*
X533000Y260000D02*
D03*
Y134000D02*
D03*
D88*
X536500Y180000D02*
D03*
Y242000D02*
D03*
D89*
X529500Y176000D02*
D03*
X536500Y172000D02*
D03*
X529500Y168000D02*
D03*
X536500Y164000D02*
D03*
X529500Y160000D02*
D03*
X536500Y156000D02*
D03*
X529500Y152000D02*
D03*
Y214000D02*
D03*
X536500Y218000D02*
D03*
X529500Y222000D02*
D03*
X536500Y226000D02*
D03*
X529500Y230000D02*
D03*
X536500Y234000D02*
D03*
X529500Y238000D02*
D03*
D90*
X546500Y141000D02*
D03*
Y253000D02*
D03*
D91*
X86500Y376421D02*
D03*
Y366579D02*
D03*
X32531Y294000D02*
D03*
X22689D02*
D03*
D92*
X357850Y94295D02*
D03*
X352850D02*
D03*
X357850Y89295D02*
D03*
X352850D02*
D03*
X357850Y84295D02*
D03*
X352850D02*
D03*
X262850Y85795D02*
D03*
X267850D02*
D03*
X262850Y90795D02*
D03*
X267850D02*
D03*
X262850Y95795D02*
D03*
X267850D02*
D03*
X206756Y124256D02*
D03*
X201756D02*
D03*
X206756Y119256D02*
D03*
X201756D02*
D03*
X206756Y114256D02*
D03*
X201756D02*
D03*
X261500Y165500D02*
D03*
X266500D02*
D03*
X261500Y170500D02*
D03*
X266500D02*
D03*
X261500Y175500D02*
D03*
X266500D02*
D03*
X192358Y287392D02*
D03*
X187358D02*
D03*
X192358Y282392D02*
D03*
X187358D02*
D03*
X192358Y277392D02*
D03*
X187358D02*
D03*
X187358Y340177D02*
D03*
X192358D02*
D03*
X187358Y345177D02*
D03*
X192358D02*
D03*
X187358Y350177D02*
D03*
X192358D02*
D03*
X273350Y350795D02*
D03*
X268350D02*
D03*
X273350Y345795D02*
D03*
X268350D02*
D03*
X273350Y340795D02*
D03*
X268350D02*
D03*
X353964Y315941D02*
D03*
X358964D02*
D03*
X353964Y320941D02*
D03*
X358964D02*
D03*
X353964Y325941D02*
D03*
X358964D02*
D03*
D93*
X65500Y140000D02*
D03*
X128000Y135000D02*
D03*
X148500Y239000D02*
D03*
X146000Y118000D02*
D03*
X158500Y229500D02*
D03*
X51000Y158500D02*
D03*
X36000Y64500D02*
D03*
X59500Y300000D02*
D03*
X127500Y284000D02*
D03*
X18000Y149000D02*
D03*
X59000Y378000D02*
D03*
D94*
X477000Y304500D02*
D03*
Y93000D02*
D03*
X74500Y170000D02*
D03*
D95*
X477000Y314500D02*
D03*
X467000Y304500D02*
D03*
Y314500D02*
D03*
X457000Y304500D02*
D03*
Y314500D02*
D03*
X447000Y304500D02*
D03*
Y314500D02*
D03*
X477000Y103000D02*
D03*
X467000Y93000D02*
D03*
Y103000D02*
D03*
X457000Y93000D02*
D03*
Y103000D02*
D03*
X447000Y93000D02*
D03*
Y103000D02*
D03*
X84500Y170000D02*
D03*
X37500Y250000D02*
D03*
X345000Y131000D02*
D03*
X335000Y141000D02*
D03*
X345000D02*
D03*
X335000Y151000D02*
D03*
X345000D02*
D03*
X335000Y161000D02*
D03*
X345000D02*
D03*
X344000Y257000D02*
D03*
X334000Y267000D02*
D03*
X344000D02*
D03*
X334000Y277000D02*
D03*
X344000D02*
D03*
X334000Y287000D02*
D03*
X344000D02*
D03*
X37500Y166000D02*
D03*
X22500Y175500D02*
D03*
X37500Y187000D02*
D03*
X22500Y196500D02*
D03*
X37500Y208000D02*
D03*
X22500Y217500D02*
D03*
X37500Y229000D02*
D03*
X22500Y238500D02*
D03*
X109500Y217000D02*
D03*
D96*
X37500Y260000D02*
D03*
X335000Y131000D02*
D03*
X334000Y257000D02*
D03*
X37500Y176000D02*
D03*
X22500Y185500D02*
D03*
X37500Y197000D02*
D03*
X22500Y206500D02*
D03*
X37500Y218000D02*
D03*
X22500Y227500D02*
D03*
X37500Y239000D02*
D03*
X22500Y248500D02*
D03*
D97*
X502500Y83000D02*
D03*
D98*
X512500D02*
D03*
X502500Y73000D02*
D03*
X512500D02*
D03*
X502500Y63000D02*
D03*
X512500D02*
D03*
X502500Y53000D02*
D03*
X512500D02*
D03*
X502500Y43000D02*
D03*
X512500D02*
D03*
D99*
X22500Y324000D02*
D03*
Y334000D02*
D03*
X32500Y324000D02*
D03*
Y334000D02*
D03*
D128*
X-2294Y166000D02*
D03*
Y171709D02*
D03*
Y160291D02*
D03*
M02*
