G04*
G04 #@! TF.GenerationSoftware,Altium Limited,Altium Designer,20.1.11 (218)*
G04*
G04 Layer_Physical_Order=4*
G04 Layer_Color=36540*
%FSLAX25Y25*%
%MOIN*%
G70*
G04*
G04 #@! TF.SameCoordinates,6CC8ACCB-2A8E-4504-AA76-58F5339EE6F1*
G04*
G04*
G04 #@! TF.FilePolarity,Positive*
G04*
G01*
G75*
%ADD18C,0.01000*%
%ADD95C,0.01772*%
%ADD97C,0.00700*%
%ADD103C,0.07874*%
%ADD104C,0.05906*%
%ADD113C,0.10000*%
%ADD115C,0.02362*%
G36*
X67500Y344000D02*
X67500Y286000D01*
X94000Y259500D01*
Y256000D01*
X98566Y251434D01*
X98553Y251313D01*
X98004Y250912D01*
X98000Y250913D01*
X97459Y250805D01*
X97001Y250499D01*
X96695Y250041D01*
X96587Y249500D01*
X96695Y248959D01*
X97001Y248501D01*
X97459Y248195D01*
X98000Y248087D01*
X98541Y248195D01*
X98999Y248501D01*
X99305Y248959D01*
X99413Y249500D01*
X99412Y249504D01*
X99813Y250052D01*
X99934Y250066D01*
X100913Y249087D01*
X102534Y249087D01*
X106800Y244821D01*
X133179Y244821D01*
X136500Y241500D01*
X136500Y193000D01*
X132000Y188500D01*
X107000Y188500D01*
X102000Y183500D01*
X98000Y183500D01*
X94000Y179500D01*
X94000Y167000D01*
X114359Y146641D01*
X120584D01*
X120633Y146141D01*
X120344Y146084D01*
X119788Y145712D01*
X119416Y145156D01*
X119286Y144500D01*
X119416Y143844D01*
X119788Y143288D01*
X120344Y142916D01*
X121000Y142786D01*
X121656Y142916D01*
X122212Y143288D01*
X122584Y143844D01*
X122714Y144500D01*
X122584Y145156D01*
X122212Y145712D01*
X121656Y146084D01*
X121367Y146141D01*
X121416Y146641D01*
X150859Y146641D01*
X161000Y136500D01*
X161000Y92000D01*
X192488Y60512D01*
X192251Y60156D01*
X192120Y59500D01*
X192251Y58844D01*
X192622Y58288D01*
X193178Y57916D01*
X193834Y57786D01*
X194490Y57916D01*
X194846Y58154D01*
X199000Y54000D01*
X227385Y54000D01*
X227416Y53844D01*
X227788Y53288D01*
X228344Y52916D01*
X229000Y52786D01*
X229347Y52855D01*
X229782Y52503D01*
X229791Y52472D01*
X229916Y51844D01*
X230288Y51288D01*
X230844Y50916D01*
X231500Y50786D01*
X232156Y50916D01*
X232712Y51288D01*
X233084Y51844D01*
X233214Y52500D01*
X233084Y53156D01*
X232854Y53500D01*
X233113Y54000D01*
X458000Y54000D01*
X513138Y109138D01*
X553709Y109138D01*
Y2039D01*
X2039D01*
X2039Y115437D01*
X1884Y116217D01*
X1442Y116879D01*
X780Y117321D01*
X-0Y117476D01*
X-23933D01*
X-23983Y117466D01*
X-24033Y117474D01*
X-24419Y117455D01*
X-24566Y117418D01*
X-24717D01*
X-25474Y117267D01*
X-25659Y117191D01*
X-25856Y117151D01*
X-26569Y116856D01*
X-26736Y116744D01*
X-26922Y116668D01*
X-27564Y116239D01*
X-27706Y116097D01*
X-27873Y115985D01*
X-28418Y115439D01*
X-28530Y115272D01*
X-28672Y115130D01*
X-29101Y114489D01*
X-29178Y114303D01*
X-29289Y114136D01*
X-29585Y113423D01*
X-29624Y113226D01*
X-29700Y113041D01*
X-29851Y112284D01*
Y112133D01*
X-29888Y111986D01*
X-29907Y111600D01*
X-29899Y111550D01*
X-29909Y111500D01*
Y109602D01*
X-32838D01*
Y121343D01*
X-32848Y121392D01*
X-32841Y121443D01*
X-32860Y121828D01*
X-32896Y121975D01*
Y122126D01*
X-33047Y122883D01*
X-33124Y123069D01*
X-33163Y123266D01*
X-33458Y123979D01*
X-33570Y124146D01*
X-33647Y124331D01*
X-34076Y124973D01*
X-34218Y125115D01*
X-34329Y125282D01*
X-34875Y125828D01*
X-35042Y125939D01*
X-35184Y126081D01*
X-35826Y126510D01*
X-36011Y126587D01*
X-36178Y126699D01*
X-36891Y126994D01*
X-37088Y127033D01*
X-37274Y127110D01*
X-38031Y127260D01*
X-38182D01*
X-38328Y127297D01*
X-38714Y127316D01*
X-38765Y127309D01*
X-38814Y127319D01*
X-56461D01*
Y183969D01*
X-38028D01*
X-37961Y183982D01*
X-37894Y183973D01*
X-37278Y184013D01*
X-37084Y184065D01*
X-36883Y184079D01*
X-35692Y184398D01*
X-35453Y184516D01*
X-35200Y184602D01*
X-34132Y185218D01*
X-33931Y185394D01*
X-33710Y185542D01*
X-32838Y186414D01*
X-32689Y186636D01*
X-32513Y186837D01*
X-31897Y187905D01*
X-31811Y188157D01*
X-31693Y188397D01*
X-31374Y189588D01*
X-31356Y189854D01*
X-31304Y190116D01*
Y191349D01*
X-31356Y191611D01*
X-31374Y191877D01*
X-31693Y193068D01*
X-31811Y193307D01*
X-31897Y193560D01*
X-32513Y194628D01*
X-32689Y194828D01*
X-32838Y195050D01*
X-33710Y195922D01*
X-33931Y196071D01*
X-34132Y196246D01*
X-35200Y196863D01*
X-35453Y196949D01*
X-35692Y197067D01*
X-36883Y197386D01*
X-37084Y197399D01*
X-37278Y197451D01*
X-37894Y197492D01*
X-37961Y197483D01*
X-38028Y197496D01*
X-56461D01*
Y266744D01*
X-38814D01*
X-38765Y266754D01*
X-38714Y266747D01*
X-38328Y266766D01*
X-38182Y266803D01*
X-38031D01*
X-37274Y266953D01*
X-37088Y267030D01*
X-36891Y267069D01*
X-36178Y267364D01*
X-36011Y267476D01*
X-35826Y267553D01*
X-35184Y267982D01*
X-35042Y268124D01*
X-34875Y268235D01*
X-34329Y268781D01*
X-34218Y268948D01*
X-34076Y269090D01*
X-33647Y269732D01*
X-33570Y269917D01*
X-33458Y270084D01*
X-33163Y270797D01*
X-33124Y270994D01*
X-33047Y271180D01*
X-32896Y271937D01*
Y272088D01*
X-32860Y272235D01*
X-32841Y272620D01*
X-32848Y272671D01*
X-32838Y272721D01*
Y284461D01*
X-29909D01*
Y282563D01*
X-29899Y282513D01*
X-29907Y282463D01*
X-29888Y282077D01*
X-29851Y281930D01*
Y281779D01*
X-29700Y281022D01*
X-29624Y280837D01*
X-29585Y280640D01*
X-29289Y279927D01*
X-29177Y279760D01*
X-29101Y279574D01*
X-28672Y278932D01*
X-28530Y278790D01*
X-28418Y278624D01*
X-27873Y278078D01*
X-27706Y277966D01*
X-27564Y277824D01*
X-26922Y277395D01*
X-26736Y277319D01*
X-26569Y277207D01*
X-25856Y276912D01*
X-25659Y276872D01*
X-25474Y276796D01*
X-24717Y276645D01*
X-24566D01*
X-24419Y276608D01*
X-24033Y276589D01*
X-23983Y276597D01*
X-23933Y276587D01*
X-75D01*
X705Y276742D01*
X1367Y277184D01*
X1809Y277846D01*
X1964Y278626D01*
X1964Y345000D01*
X66500Y345000D01*
X67500Y344000D01*
D02*
G37*
%LPC*%
G36*
X57500Y344214D02*
X56844Y344084D01*
X56288Y343712D01*
X55916Y343156D01*
X55786Y342500D01*
X55916Y341844D01*
X56288Y341288D01*
X56844Y340916D01*
X57500Y340786D01*
X58156Y340916D01*
X58712Y341288D01*
X59084Y341844D01*
X59214Y342500D01*
X59084Y343156D01*
X58712Y343712D01*
X58156Y344084D01*
X57500Y344214D01*
D02*
G37*
G36*
X52500D02*
X51844Y344084D01*
X51288Y343712D01*
X50916Y343156D01*
X50786Y342500D01*
X50916Y341844D01*
X51288Y341288D01*
X51844Y340916D01*
X52500Y340786D01*
X53156Y340916D01*
X53712Y341288D01*
X54084Y341844D01*
X54214Y342500D01*
X54084Y343156D01*
X53712Y343712D01*
X53156Y344084D01*
X52500Y344214D01*
D02*
G37*
G36*
Y339214D02*
X51844Y339084D01*
X51288Y338712D01*
X50916Y338156D01*
X50786Y337500D01*
X50916Y336844D01*
X51288Y336288D01*
X51844Y335916D01*
X52500Y335786D01*
X53156Y335916D01*
X53712Y336288D01*
X54084Y336844D01*
X54214Y337500D01*
X54084Y338156D01*
X53712Y338712D01*
X53156Y339084D01*
X52500Y339214D01*
D02*
G37*
G36*
Y334214D02*
X51844Y334084D01*
X51288Y333712D01*
X50916Y333156D01*
X50786Y332500D01*
X50916Y331844D01*
X51288Y331288D01*
X51844Y330916D01*
X52500Y330786D01*
X53156Y330916D01*
X53712Y331288D01*
X54084Y331844D01*
X54214Y332500D01*
X54084Y333156D01*
X53712Y333712D01*
X53156Y334084D01*
X52500Y334214D01*
D02*
G37*
G36*
X32500Y337530D02*
X31586Y337410D01*
X30735Y337057D01*
X30004Y336496D01*
X29443Y335765D01*
X29090Y334914D01*
X28970Y334000D01*
X29090Y333086D01*
X29443Y332235D01*
X30004Y331504D01*
X30735Y330943D01*
X31586Y330590D01*
X32500Y330470D01*
X33414Y330590D01*
X34265Y330943D01*
X34996Y331504D01*
X35557Y332235D01*
X35910Y333086D01*
X36030Y334000D01*
X35910Y334914D01*
X35557Y335765D01*
X34996Y336496D01*
X34265Y337057D01*
X33414Y337410D01*
X32500Y337530D01*
D02*
G37*
G36*
X22500D02*
X21586Y337410D01*
X20735Y337057D01*
X20004Y336496D01*
X19443Y335765D01*
X19090Y334914D01*
X18970Y334000D01*
X19090Y333086D01*
X19443Y332235D01*
X20004Y331504D01*
X20735Y330943D01*
X21586Y330590D01*
X22500Y330470D01*
X23414Y330590D01*
X24265Y330943D01*
X24996Y331504D01*
X25557Y332235D01*
X25910Y333086D01*
X26030Y334000D01*
X25910Y334914D01*
X25557Y335765D01*
X24996Y336496D01*
X24265Y337057D01*
X23414Y337410D01*
X22500Y337530D01*
D02*
G37*
G36*
X57500Y329214D02*
X56844Y329084D01*
X56288Y328712D01*
X55916Y328156D01*
X55786Y327500D01*
X55916Y326844D01*
X56288Y326288D01*
X56844Y325916D01*
X57500Y325786D01*
X58156Y325916D01*
X58712Y326288D01*
X59084Y326844D01*
X59214Y327500D01*
X59084Y328156D01*
X58712Y328712D01*
X58156Y329084D01*
X57500Y329214D01*
D02*
G37*
G36*
X52500D02*
X51844Y329084D01*
X51288Y328712D01*
X50916Y328156D01*
X50786Y327500D01*
X50916Y326844D01*
X51288Y326288D01*
X51844Y325916D01*
X52500Y325786D01*
X53156Y325916D01*
X53712Y326288D01*
X54084Y326844D01*
X54214Y327500D01*
X54084Y328156D01*
X53712Y328712D01*
X53156Y329084D01*
X52500Y329214D01*
D02*
G37*
G36*
X32500Y327530D02*
X31586Y327410D01*
X30735Y327057D01*
X30004Y326496D01*
X29443Y325765D01*
X29090Y324914D01*
X28970Y324000D01*
X29090Y323086D01*
X29443Y322235D01*
X30004Y321504D01*
X30735Y320943D01*
X31586Y320590D01*
X32500Y320470D01*
X33414Y320590D01*
X34265Y320943D01*
X34996Y321504D01*
X35557Y322235D01*
X35910Y323086D01*
X36030Y324000D01*
X35910Y324914D01*
X35557Y325765D01*
X34996Y326496D01*
X34265Y327057D01*
X33414Y327410D01*
X32500Y327530D01*
D02*
G37*
G36*
X22500D02*
X21586Y327410D01*
X20735Y327057D01*
X20004Y326496D01*
X19443Y325765D01*
X19090Y324914D01*
X18970Y324000D01*
X19090Y323086D01*
X19443Y322235D01*
X20004Y321504D01*
X20735Y320943D01*
X21586Y320590D01*
X22500Y320470D01*
X23414Y320590D01*
X24265Y320943D01*
X24996Y321504D01*
X25557Y322235D01*
X25910Y323086D01*
X26030Y324000D01*
X25910Y324914D01*
X25557Y325765D01*
X24996Y326496D01*
X24265Y327057D01*
X23414Y327410D01*
X22500Y327530D01*
D02*
G37*
G36*
X59500Y305547D02*
X58064Y305358D01*
X56726Y304804D01*
X55577Y303923D01*
X54696Y302774D01*
X54142Y301436D01*
X53952Y300000D01*
X54142Y298564D01*
X54696Y297226D01*
X55577Y296077D01*
X56726Y295196D01*
X58064Y294642D01*
X59500Y294453D01*
X60936Y294642D01*
X62274Y295196D01*
X63423Y296077D01*
X64304Y297226D01*
X64858Y298564D01*
X65048Y300000D01*
X64858Y301436D01*
X64304Y302774D01*
X63423Y303923D01*
X62274Y304804D01*
X60936Y305358D01*
X59500Y305547D01*
D02*
G37*
G36*
X23779Y297059D02*
X17661D01*
Y290941D01*
X23779D01*
Y297059D01*
D02*
G37*
G36*
X34500Y297085D02*
X33701Y296980D01*
X32957Y296672D01*
X32318Y296182D01*
X31828Y295543D01*
X31520Y294799D01*
X31415Y294000D01*
X31520Y293201D01*
X31828Y292457D01*
X32318Y291818D01*
X32957Y291328D01*
X33701Y291020D01*
X34500Y290915D01*
X35299Y291020D01*
X36043Y291328D01*
X36682Y291818D01*
X37172Y292457D01*
X37480Y293201D01*
X37585Y294000D01*
X37480Y294799D01*
X37172Y295543D01*
X36682Y296182D01*
X36043Y296672D01*
X35299Y296980D01*
X34500Y297085D01*
D02*
G37*
G36*
X-39500Y260615D02*
X-40310Y260454D01*
X-40996Y259996D01*
X-41454Y259310D01*
X-41615Y258500D01*
X-41454Y257691D01*
X-40996Y257004D01*
X-40310Y256546D01*
X-39500Y256384D01*
X-38690Y256546D01*
X-38004Y257004D01*
X-37546Y257691D01*
X-37385Y258500D01*
X-37546Y259310D01*
X-38004Y259996D01*
X-38690Y260454D01*
X-39500Y260615D01*
D02*
G37*
G36*
X-33696Y233794D02*
X-34237Y233686D01*
X-34695Y233380D01*
X-35002Y232921D01*
X-35109Y232381D01*
X-35389Y232391D01*
X-35500Y232413D01*
X-36041Y232305D01*
X-36499Y231999D01*
X-36805Y231541D01*
X-36913Y231000D01*
X-36805Y230459D01*
X-36499Y230001D01*
X-36041Y229695D01*
X-35500Y229587D01*
X-34959Y229695D01*
X-34501Y230001D01*
X-34195Y230459D01*
X-34087Y231000D01*
X-33807Y230990D01*
X-33696Y230968D01*
X-33155Y231075D01*
X-32697Y231382D01*
X-32391Y231840D01*
X-32283Y232381D01*
X-32391Y232921D01*
X-32697Y233380D01*
X-33155Y233686D01*
X-33696Y233794D01*
D02*
G37*
G36*
X71300Y227220D02*
X70759Y227113D01*
X70301Y226807D01*
X69995Y226348D01*
X69887Y225807D01*
X69995Y225267D01*
X70301Y224808D01*
X70759Y224502D01*
X71300Y224394D01*
X71841Y224502D01*
X72299Y224808D01*
X72606Y225267D01*
X72713Y225807D01*
X72606Y226348D01*
X72299Y226807D01*
X71841Y227113D01*
X71300Y227220D01*
D02*
G37*
G36*
X-31996Y221983D02*
X-32537Y221875D01*
X-32995Y221569D01*
X-33301Y221110D01*
X-33308Y221075D01*
X-33459Y220805D01*
X-34000Y220913D01*
X-34541Y220805D01*
X-34999Y220499D01*
X-35305Y220041D01*
X-35413Y219500D01*
X-35305Y218959D01*
X-34999Y218501D01*
X-34541Y218195D01*
X-34000Y218087D01*
X-33459Y218195D01*
X-33001Y218501D01*
X-32695Y218959D01*
X-32688Y218995D01*
X-32537Y219264D01*
X-31996Y219157D01*
X-31455Y219264D01*
X-30997Y219571D01*
X-30691Y220029D01*
X-30583Y220570D01*
X-30691Y221110D01*
X-30997Y221569D01*
X-31455Y221875D01*
X-31996Y221983D01*
D02*
G37*
G36*
X110000Y220921D02*
Y217500D01*
X113421D01*
X113351Y218032D01*
X112953Y218993D01*
X112319Y219819D01*
X111493Y220453D01*
X110532Y220851D01*
X110000Y220921D01*
D02*
G37*
G36*
X109000D02*
X108468Y220851D01*
X107507Y220453D01*
X106681Y219819D01*
X106047Y218993D01*
X105649Y218032D01*
X105579Y217500D01*
X109000D01*
Y220921D01*
D02*
G37*
G36*
Y216500D02*
X105579D01*
X105649Y215968D01*
X106047Y215007D01*
X106681Y214181D01*
X107507Y213547D01*
X108468Y213149D01*
X109000Y213079D01*
Y216500D01*
D02*
G37*
G36*
X113421D02*
X110000D01*
Y213079D01*
X110532Y213149D01*
X111493Y213547D01*
X112319Y214181D01*
X112953Y215007D01*
X113351Y215968D01*
X113421Y216500D01*
D02*
G37*
G36*
X-32394Y214019D02*
X-32934Y213912D01*
X-33393Y213605D01*
X-33699Y213147D01*
X-33753Y212874D01*
X-34000Y212413D01*
X-34541Y212305D01*
X-34999Y211999D01*
X-35305Y211541D01*
X-35413Y211000D01*
X-35305Y210459D01*
X-34999Y210001D01*
X-34541Y209695D01*
X-34000Y209587D01*
X-33459Y209695D01*
X-33001Y210001D01*
X-32695Y210459D01*
X-32640Y210733D01*
X-32394Y211193D01*
X-31853Y211301D01*
X-31395Y211607D01*
X-31088Y212066D01*
X-30981Y212606D01*
X-31088Y213147D01*
X-31395Y213605D01*
X-31853Y213912D01*
X-32394Y214019D01*
D02*
G37*
G36*
X71300Y207220D02*
X70759Y207113D01*
X70301Y206807D01*
X69995Y206348D01*
X69887Y205807D01*
X69995Y205267D01*
X70301Y204808D01*
X70759Y204502D01*
X71300Y204395D01*
X71841Y204502D01*
X72299Y204808D01*
X72606Y205267D01*
X72713Y205807D01*
X72606Y206348D01*
X72299Y206807D01*
X71841Y207113D01*
X71300Y207220D01*
D02*
G37*
G36*
X-27912Y202308D02*
X-28453Y202201D01*
X-28911Y201894D01*
X-29075Y201650D01*
X-29331Y201420D01*
X-29742Y201362D01*
X-30000Y201413D01*
X-30541Y201305D01*
X-30999Y200999D01*
X-31305Y200541D01*
X-31413Y200000D01*
X-31305Y199459D01*
X-30999Y199001D01*
X-30541Y198695D01*
X-30000Y198587D01*
X-29459Y198695D01*
X-29001Y199001D01*
X-28837Y199245D01*
X-28581Y199475D01*
X-28170Y199534D01*
X-27912Y199482D01*
X-27371Y199590D01*
X-26913Y199896D01*
X-26607Y200355D01*
X-26499Y200895D01*
X-26607Y201436D01*
X-26913Y201894D01*
X-27371Y202201D01*
X-27912Y202308D01*
D02*
G37*
G36*
X-22500Y196913D02*
X-23041Y196805D01*
X-23499Y196499D01*
X-23805Y196041D01*
X-23860Y195767D01*
X-24106Y195307D01*
X-24647Y195199D01*
X-25105Y194893D01*
X-25412Y194434D01*
X-25519Y193894D01*
X-25412Y193353D01*
X-25105Y192895D01*
X-24647Y192588D01*
X-24106Y192481D01*
X-23566Y192588D01*
X-23107Y192895D01*
X-22801Y193353D01*
X-22747Y193626D01*
X-22500Y194087D01*
X-21959Y194195D01*
X-21501Y194501D01*
X-21195Y194959D01*
X-21087Y195500D01*
X-21195Y196041D01*
X-21501Y196499D01*
X-21959Y196805D01*
X-22500Y196913D01*
D02*
G37*
G36*
X-37000Y177964D02*
X-37656Y177834D01*
X-38212Y177462D01*
X-38584Y176906D01*
X-38714Y176250D01*
X-38584Y175594D01*
X-38212Y175038D01*
X-37656Y174666D01*
X-37000Y174536D01*
X-36344Y174666D01*
X-35788Y175038D01*
X-35416Y175594D01*
X-35286Y176250D01*
X-35416Y176906D01*
X-35788Y177462D01*
X-36344Y177834D01*
X-37000Y177964D01*
D02*
G37*
G36*
X-546Y166061D02*
X-1202Y165930D01*
X-1758Y165559D01*
X-2130Y165003D01*
X-2260Y164347D01*
X-2130Y163691D01*
X-1758Y163135D01*
X-1202Y162763D01*
X-546Y162633D01*
X110Y162763D01*
X666Y163135D01*
X1037Y163691D01*
X1168Y164347D01*
X1037Y165003D01*
X666Y165559D01*
X110Y165930D01*
X-546Y166061D01*
D02*
G37*
G36*
X56000Y167048D02*
X54564Y166858D01*
X53226Y166304D01*
X52077Y165423D01*
X51196Y164274D01*
X50642Y162936D01*
X50453Y161500D01*
X50642Y160064D01*
X51196Y158726D01*
X52077Y157577D01*
X53226Y156696D01*
X54564Y156142D01*
X56000Y155953D01*
X57436Y156142D01*
X58774Y156696D01*
X59923Y157577D01*
X60804Y158726D01*
X61358Y160064D01*
X61547Y161500D01*
X61358Y162936D01*
X60804Y164274D01*
X59923Y165423D01*
X58774Y166304D01*
X57436Y166858D01*
X56000Y167048D01*
D02*
G37*
G36*
X89500Y155714D02*
X88844Y155584D01*
X88288Y155212D01*
X87916Y154656D01*
X87786Y154000D01*
X87916Y153344D01*
X88288Y152788D01*
X88844Y152416D01*
X89500Y152286D01*
X90156Y152416D01*
X90712Y152788D01*
X91084Y153344D01*
X91214Y154000D01*
X91084Y154656D01*
X90712Y155212D01*
X90156Y155584D01*
X89500Y155714D01*
D02*
G37*
G36*
X17500Y156980D02*
Y151500D01*
X22980D01*
X22913Y152176D01*
X22570Y153307D01*
X22013Y154350D01*
X21263Y155263D01*
X20349Y156013D01*
X19307Y156570D01*
X18176Y156913D01*
X17500Y156980D01*
D02*
G37*
G36*
X16500D02*
X15824Y156913D01*
X14693Y156570D01*
X13650Y156013D01*
X12737Y155263D01*
X11987Y154350D01*
X11430Y153307D01*
X11087Y152176D01*
X11020Y151500D01*
X16500D01*
Y156980D01*
D02*
G37*
G36*
X22980Y150500D02*
X17500D01*
Y145020D01*
X18176Y145087D01*
X19307Y145430D01*
X20349Y145987D01*
X21263Y146737D01*
X22013Y147651D01*
X22570Y148693D01*
X22913Y149824D01*
X22980Y150500D01*
D02*
G37*
G36*
X16500D02*
X11020D01*
X11087Y149824D01*
X11430Y148693D01*
X11987Y147651D01*
X12737Y146737D01*
X13650Y145987D01*
X14693Y145430D01*
X15824Y145087D01*
X16500Y145020D01*
Y150500D01*
D02*
G37*
G36*
X65500Y145547D02*
X64064Y145358D01*
X62726Y144804D01*
X61577Y143923D01*
X60696Y142774D01*
X60142Y141436D01*
X59952Y140000D01*
X60142Y138564D01*
X60696Y137226D01*
X61577Y136077D01*
X62726Y135196D01*
X64064Y134642D01*
X65500Y134452D01*
X66936Y134642D01*
X68274Y135196D01*
X69423Y136077D01*
X70304Y137226D01*
X70858Y138564D01*
X71048Y140000D01*
X70858Y141436D01*
X70304Y142774D01*
X69423Y143923D01*
X68274Y144804D01*
X66936Y145358D01*
X65500Y145547D01*
D02*
G37*
G36*
X-1000Y134214D02*
X-1656Y134084D01*
X-2212Y133712D01*
X-2584Y133156D01*
X-2714Y132500D01*
X-2584Y131844D01*
X-2212Y131288D01*
X-1656Y130916D01*
X-1000Y130786D01*
X-344Y130916D01*
X212Y131288D01*
X584Y131844D01*
X714Y132500D01*
X584Y133156D01*
X212Y133712D01*
X-344Y134084D01*
X-1000Y134214D01*
D02*
G37*
G36*
X-30500Y130714D02*
X-31156Y130584D01*
X-31712Y130212D01*
X-32084Y129656D01*
X-32214Y129000D01*
X-32084Y128344D01*
X-31712Y127788D01*
X-31156Y127416D01*
X-30500Y127286D01*
X-29844Y127416D01*
X-29288Y127788D01*
X-28916Y128344D01*
X-28786Y129000D01*
X-28916Y129656D01*
X-29288Y130212D01*
X-29844Y130584D01*
X-30500Y130714D01*
D02*
G37*
G36*
X-12000Y130214D02*
X-12656Y130084D01*
X-13212Y129712D01*
X-13584Y129156D01*
X-13714Y128500D01*
X-13584Y127844D01*
X-13212Y127288D01*
X-12656Y126916D01*
X-12000Y126786D01*
X-11344Y126916D01*
X-10788Y127288D01*
X-10416Y127844D01*
X-10286Y128500D01*
X-10416Y129156D01*
X-10788Y129712D01*
X-11344Y130084D01*
X-12000Y130214D01*
D02*
G37*
G36*
X158959Y128718D02*
X158419Y128611D01*
X157960Y128305D01*
X157654Y127846D01*
X157546Y127305D01*
X157654Y126765D01*
X157960Y126306D01*
X158419Y126000D01*
X158959Y125892D01*
X159500Y126000D01*
X159958Y126306D01*
X160265Y126765D01*
X160372Y127305D01*
X160265Y127846D01*
X159958Y128305D01*
X159500Y128611D01*
X158959Y128718D01*
D02*
G37*
G36*
X80000Y126214D02*
X79344Y126084D01*
X78788Y125712D01*
X78416Y125156D01*
X78286Y124500D01*
X78416Y123844D01*
X78788Y123288D01*
X79344Y122916D01*
X80000Y122786D01*
X80656Y122916D01*
X81212Y123288D01*
X81584Y123844D01*
X81714Y124500D01*
X81584Y125156D01*
X81212Y125712D01*
X80656Y126084D01*
X80000Y126214D01*
D02*
G37*
G36*
X117778Y120379D02*
X117122Y120249D01*
X116566Y119877D01*
X116194Y119321D01*
X116064Y118665D01*
X116194Y118009D01*
X116566Y117453D01*
X117122Y117082D01*
X117778Y116951D01*
X118434Y117082D01*
X118990Y117453D01*
X119362Y118009D01*
X119492Y118665D01*
X119362Y119321D01*
X118990Y119877D01*
X118434Y120249D01*
X117778Y120379D01*
D02*
G37*
G36*
X105000Y120214D02*
X104344Y120083D01*
X103788Y119712D01*
X103416Y119156D01*
X103286Y118500D01*
X103416Y117844D01*
X103788Y117288D01*
X104344Y116916D01*
X105000Y116786D01*
X105656Y116916D01*
X106212Y117288D01*
X106583Y117844D01*
X106714Y118500D01*
X106583Y119156D01*
X106212Y119712D01*
X105656Y120083D01*
X105000Y120214D01*
D02*
G37*
G36*
X128500Y127048D02*
X127064Y126858D01*
X125726Y126304D01*
X124577Y125423D01*
X123696Y124274D01*
X123142Y122936D01*
X122952Y121500D01*
X123142Y120064D01*
X123696Y118726D01*
X124577Y117577D01*
X125726Y116696D01*
X127064Y116142D01*
X128500Y115953D01*
X129936Y116142D01*
X131274Y116696D01*
X132423Y117577D01*
X133304Y118726D01*
X133858Y120064D01*
X134047Y121500D01*
X133858Y122936D01*
X133304Y124274D01*
X132423Y125423D01*
X131274Y126304D01*
X129936Y126858D01*
X128500Y127048D01*
D02*
G37*
G36*
X147500Y120547D02*
X146064Y120358D01*
X144726Y119804D01*
X143577Y118923D01*
X142696Y117774D01*
X142142Y116436D01*
X141953Y115000D01*
X142142Y113564D01*
X142696Y112226D01*
X143577Y111077D01*
X144726Y110196D01*
X146064Y109642D01*
X147500Y109452D01*
X148936Y109642D01*
X150274Y110196D01*
X151423Y111077D01*
X152304Y112226D01*
X152858Y113564D01*
X153048Y115000D01*
X152858Y116436D01*
X152304Y117774D01*
X151423Y118923D01*
X150274Y119804D01*
X148936Y120358D01*
X147500Y120547D01*
D02*
G37*
G36*
X40500Y111714D02*
X39844Y111584D01*
X39288Y111212D01*
X38916Y110656D01*
X38786Y110000D01*
X38916Y109344D01*
X39288Y108788D01*
X39844Y108416D01*
X40500Y108286D01*
X41156Y108416D01*
X41712Y108788D01*
X42084Y109344D01*
X42214Y110000D01*
X42084Y110656D01*
X41712Y111212D01*
X41156Y111584D01*
X40500Y111714D01*
D02*
G37*
G36*
X143500Y109214D02*
X142844Y109084D01*
X142288Y108712D01*
X141916Y108156D01*
X141786Y107500D01*
X141916Y106844D01*
X142288Y106288D01*
X142525Y106129D01*
X142420Y105599D01*
X142344Y105584D01*
X141788Y105212D01*
X141416Y104656D01*
X141286Y104000D01*
X141416Y103344D01*
X141788Y102788D01*
X142344Y102416D01*
X143000Y102286D01*
X143656Y102416D01*
X144212Y102788D01*
X144371Y103025D01*
X144901Y102920D01*
X144916Y102844D01*
X145288Y102288D01*
X145844Y101916D01*
X146500Y101786D01*
X147156Y101916D01*
X147712Y102288D01*
X148084Y102844D01*
X148214Y103500D01*
X148084Y104156D01*
X147712Y104712D01*
X147156Y105084D01*
X146500Y105214D01*
X145844Y105084D01*
X145288Y104712D01*
X145129Y104475D01*
X144599Y104580D01*
X144584Y104656D01*
X144212Y105212D01*
X143975Y105371D01*
X144080Y105901D01*
X144156Y105916D01*
X144712Y106288D01*
X145084Y106844D01*
X145214Y107500D01*
X145084Y108156D01*
X144712Y108712D01*
X144156Y109084D01*
X143500Y109214D01*
D02*
G37*
G36*
X82500Y102714D02*
X81844Y102584D01*
X81288Y102212D01*
X80916Y101656D01*
X80786Y101000D01*
X80916Y100344D01*
X81288Y99788D01*
X81844Y99416D01*
X82500Y99286D01*
X83156Y99416D01*
X83712Y99788D01*
X84084Y100344D01*
X84214Y101000D01*
X84084Y101656D01*
X83712Y102212D01*
X83156Y102584D01*
X82500Y102714D01*
D02*
G37*
G36*
X66420Y100430D02*
X65764Y100299D01*
X65208Y99928D01*
X64836Y99371D01*
X64706Y98716D01*
X64836Y98060D01*
X65208Y97504D01*
X65764Y97132D01*
X66420Y97001D01*
X67076Y97132D01*
X67632Y97504D01*
X68003Y98060D01*
X68134Y98716D01*
X68003Y99371D01*
X67632Y99928D01*
X67076Y100299D01*
X66420Y100430D01*
D02*
G37*
G36*
X89000Y100214D02*
X88344Y100084D01*
X87788Y99712D01*
X87416Y99156D01*
X87286Y98500D01*
X87416Y97844D01*
X87788Y97288D01*
X88344Y96916D01*
X89000Y96786D01*
X89656Y96916D01*
X90212Y97288D01*
X90584Y97844D01*
X90714Y98500D01*
X90584Y99156D01*
X90212Y99712D01*
X89656Y100084D01*
X89000Y100214D01*
D02*
G37*
G36*
X83500Y90714D02*
X82844Y90584D01*
X82288Y90212D01*
X81916Y89656D01*
X81786Y89000D01*
X81916Y88344D01*
X82288Y87788D01*
X82844Y87416D01*
X83500Y87286D01*
X84156Y87416D01*
X84712Y87788D01*
X85084Y88344D01*
X85214Y89000D01*
X85084Y89656D01*
X84712Y90212D01*
X84156Y90584D01*
X83500Y90714D01*
D02*
G37*
G36*
X147869Y89714D02*
X147213Y89584D01*
X146657Y89212D01*
X146285Y88656D01*
X146155Y88000D01*
X146285Y87344D01*
X146657Y86788D01*
X147213Y86416D01*
X147869Y86286D01*
X148525Y86416D01*
X149081Y86788D01*
X149452Y87344D01*
X149583Y88000D01*
X149452Y88656D01*
X149081Y89212D01*
X148525Y89584D01*
X147869Y89714D01*
D02*
G37*
G36*
X87500Y88214D02*
X86844Y88083D01*
X86288Y87712D01*
X85916Y87156D01*
X85786Y86500D01*
X85916Y85844D01*
X86288Y85288D01*
X86844Y84916D01*
X87500Y84786D01*
X88156Y84916D01*
X88712Y85288D01*
X89084Y85844D01*
X89214Y86500D01*
X89084Y87156D01*
X88712Y87712D01*
X88156Y88083D01*
X87500Y88214D01*
D02*
G37*
G36*
X528000Y87914D02*
Y83500D01*
X532414D01*
X532310Y84289D01*
X531812Y85490D01*
X531021Y86521D01*
X529990Y87313D01*
X528789Y87810D01*
X528000Y87914D01*
D02*
G37*
G36*
X527000Y87914D02*
X526211Y87810D01*
X525010Y87313D01*
X523979Y86521D01*
X523187Y85490D01*
X522690Y84289D01*
X522586Y83500D01*
X527000D01*
Y87914D01*
D02*
G37*
G36*
X83500Y85214D02*
X82844Y85084D01*
X82288Y84712D01*
X81916Y84156D01*
X81786Y83500D01*
X81916Y82844D01*
X82288Y82288D01*
X82844Y81916D01*
X83500Y81786D01*
X84156Y81916D01*
X84712Y82288D01*
X85084Y82844D01*
X85214Y83500D01*
X85084Y84156D01*
X84712Y84712D01*
X84156Y85084D01*
X83500Y85214D01*
D02*
G37*
G36*
X87500Y82547D02*
X86844Y82417D01*
X86288Y82045D01*
X85916Y81489D01*
X85786Y80833D01*
X85916Y80177D01*
X86288Y79621D01*
X86844Y79250D01*
X87500Y79119D01*
X88156Y79250D01*
X88712Y79621D01*
X89084Y80177D01*
X89214Y80833D01*
X89084Y81489D01*
X88712Y82045D01*
X88156Y82417D01*
X87500Y82547D01*
D02*
G37*
G36*
X521937Y87437D02*
X513063D01*
Y78563D01*
X521937D01*
Y87437D01*
D02*
G37*
G36*
X527000Y82500D02*
X522586D01*
X522690Y81711D01*
X523187Y80510D01*
X523979Y79479D01*
X525010Y78688D01*
X526211Y78190D01*
X527000Y78086D01*
Y82500D01*
D02*
G37*
G36*
X532414D02*
X528000D01*
Y78086D01*
X528789Y78190D01*
X529990Y78688D01*
X531021Y79479D01*
X531812Y80510D01*
X532310Y81711D01*
X532414Y82500D01*
D02*
G37*
G36*
X148248Y81193D02*
X147592Y81063D01*
X147036Y80691D01*
X146665Y80135D01*
X146534Y79479D01*
X146665Y78823D01*
X147036Y78267D01*
X147592Y77896D01*
X148248Y77765D01*
X148904Y77896D01*
X149460Y78267D01*
X149832Y78823D01*
X149962Y79479D01*
X149832Y80135D01*
X149460Y80691D01*
X148904Y81063D01*
X148248Y81193D01*
D02*
G37*
G36*
X83500Y79714D02*
X82844Y79584D01*
X82288Y79212D01*
X81916Y78656D01*
X81786Y78000D01*
X81916Y77344D01*
X82288Y76788D01*
X82844Y76416D01*
X83500Y76286D01*
X84156Y76416D01*
X84712Y76788D01*
X85084Y77344D01*
X85214Y78000D01*
X85084Y78656D01*
X84712Y79212D01*
X84156Y79584D01*
X83500Y79714D01*
D02*
G37*
G36*
X87500Y76881D02*
X86844Y76750D01*
X86288Y76379D01*
X85916Y75823D01*
X85786Y75167D01*
X85916Y74511D01*
X86288Y73955D01*
X86844Y73583D01*
X87500Y73453D01*
X88156Y73583D01*
X88712Y73955D01*
X89084Y74511D01*
X89214Y75167D01*
X89084Y75823D01*
X88712Y76379D01*
X88156Y76750D01*
X87500Y76881D01*
D02*
G37*
G36*
X67000Y76714D02*
X66344Y76584D01*
X65788Y76212D01*
X65416Y75656D01*
X65286Y75000D01*
X65416Y74344D01*
X65788Y73788D01*
X66344Y73416D01*
X67000Y73286D01*
X67656Y73416D01*
X68212Y73788D01*
X68584Y74344D01*
X68714Y75000D01*
X68584Y75656D01*
X68212Y76212D01*
X67656Y76584D01*
X67000Y76714D01*
D02*
G37*
G36*
X501500Y73913D02*
X500959Y73805D01*
X500501Y73499D01*
X500195Y73041D01*
X500087Y72500D01*
X500195Y71959D01*
X500501Y71501D01*
X500959Y71195D01*
X501500Y71087D01*
X502041Y71195D01*
X502499Y71501D01*
X502805Y71959D01*
X502913Y72500D01*
X502805Y73041D01*
X502499Y73499D01*
X502041Y73805D01*
X501500Y73913D01*
D02*
G37*
G36*
X83500Y74214D02*
X82844Y74084D01*
X82288Y73712D01*
X81916Y73156D01*
X81786Y72500D01*
X81916Y71844D01*
X82288Y71288D01*
X82844Y70916D01*
X83500Y70786D01*
X84156Y70916D01*
X84712Y71288D01*
X85084Y71844D01*
X85214Y72500D01*
X85084Y73156D01*
X84712Y73712D01*
X84156Y74084D01*
X83500Y74214D01*
D02*
G37*
G36*
X527500Y77475D02*
X526342Y77323D01*
X525262Y76876D01*
X524335Y76165D01*
X523624Y75238D01*
X523177Y74158D01*
X523025Y73000D01*
X523177Y71842D01*
X523624Y70762D01*
X524335Y69836D01*
X525262Y69124D01*
X526342Y68677D01*
X527500Y68525D01*
X528658Y68677D01*
X529738Y69124D01*
X530664Y69836D01*
X531376Y70762D01*
X531823Y71842D01*
X531975Y73000D01*
X531823Y74158D01*
X531376Y75238D01*
X530664Y76165D01*
X529738Y76876D01*
X528658Y77323D01*
X527500Y77475D01*
D02*
G37*
G36*
X517500D02*
X516342Y77323D01*
X515262Y76876D01*
X514335Y76165D01*
X513624Y75238D01*
X513177Y74158D01*
X513025Y73000D01*
X513177Y71842D01*
X513624Y70762D01*
X514335Y69836D01*
X515262Y69124D01*
X516342Y68677D01*
X517500Y68525D01*
X518658Y68677D01*
X519738Y69124D01*
X520665Y69836D01*
X521376Y70762D01*
X521823Y71842D01*
X521975Y73000D01*
X521823Y74158D01*
X521376Y75238D01*
X520665Y76165D01*
X519738Y76876D01*
X518658Y77323D01*
X517500Y77475D01*
D02*
G37*
G36*
X87500Y71214D02*
X86844Y71084D01*
X86288Y70712D01*
X85916Y70156D01*
X85786Y69500D01*
X85916Y68844D01*
X86288Y68288D01*
X86844Y67916D01*
X87500Y67786D01*
X88156Y67916D01*
X88712Y68288D01*
X89084Y68844D01*
X89214Y69500D01*
X89084Y70156D01*
X88712Y70712D01*
X88156Y71084D01*
X87500Y71214D01*
D02*
G37*
G36*
X66500Y70714D02*
X65844Y70584D01*
X65288Y70212D01*
X64916Y69656D01*
X64786Y69000D01*
X64916Y68344D01*
X65288Y67788D01*
X65844Y67416D01*
X66500Y67286D01*
X67156Y67416D01*
X67712Y67788D01*
X68084Y68344D01*
X68214Y69000D01*
X68084Y69656D01*
X67712Y70212D01*
X67156Y70584D01*
X66500Y70714D01*
D02*
G37*
G36*
X148244Y63895D02*
X147588Y63765D01*
X147032Y63393D01*
X146660Y62837D01*
X146530Y62181D01*
X146660Y61525D01*
X147032Y60969D01*
X147588Y60597D01*
X148244Y60467D01*
X148900Y60597D01*
X149456Y60969D01*
X149828Y61525D01*
X149958Y62181D01*
X149828Y62837D01*
X149456Y63393D01*
X148900Y63765D01*
X148244Y63895D01*
D02*
G37*
G36*
X36000Y70047D02*
X34564Y69858D01*
X33226Y69304D01*
X32077Y68423D01*
X31196Y67274D01*
X30642Y65936D01*
X30452Y64500D01*
X30642Y63064D01*
X31196Y61726D01*
X32077Y60577D01*
X33226Y59696D01*
X34564Y59142D01*
X36000Y58952D01*
X37436Y59142D01*
X38774Y59696D01*
X39923Y60577D01*
X40804Y61726D01*
X41358Y63064D01*
X41548Y64500D01*
X41358Y65936D01*
X40804Y67274D01*
X39923Y68423D01*
X38774Y69304D01*
X37436Y69858D01*
X36000Y70047D01*
D02*
G37*
G36*
X527500Y67475D02*
X526342Y67323D01*
X525262Y66876D01*
X524335Y66164D01*
X523624Y65238D01*
X523177Y64158D01*
X523025Y63000D01*
X523177Y61842D01*
X523624Y60762D01*
X524335Y59835D01*
X525262Y59124D01*
X526342Y58677D01*
X527500Y58525D01*
X528658Y58677D01*
X529738Y59124D01*
X530664Y59835D01*
X531376Y60762D01*
X531823Y61842D01*
X531975Y63000D01*
X531823Y64158D01*
X531376Y65238D01*
X530664Y66164D01*
X529738Y66876D01*
X528658Y67323D01*
X527500Y67475D01*
D02*
G37*
G36*
X517500D02*
X516342Y67323D01*
X515262Y66876D01*
X514335Y66164D01*
X513624Y65238D01*
X513177Y64158D01*
X513025Y63000D01*
X513177Y61842D01*
X513624Y60762D01*
X514335Y59835D01*
X515262Y59124D01*
X516342Y58677D01*
X517500Y58525D01*
X518658Y58677D01*
X519738Y59124D01*
X520665Y59835D01*
X521376Y60762D01*
X521823Y61842D01*
X521975Y63000D01*
X521823Y64158D01*
X521376Y65238D01*
X520665Y66164D01*
X519738Y66876D01*
X518658Y67323D01*
X517500Y67475D01*
D02*
G37*
G36*
X527500Y57475D02*
X526342Y57323D01*
X525262Y56876D01*
X524335Y56164D01*
X523624Y55238D01*
X523177Y54158D01*
X523025Y53000D01*
X523177Y51842D01*
X523624Y50762D01*
X524335Y49836D01*
X525262Y49124D01*
X526342Y48677D01*
X527500Y48525D01*
X528658Y48677D01*
X529738Y49124D01*
X530664Y49836D01*
X531376Y50762D01*
X531823Y51842D01*
X531975Y53000D01*
X531823Y54158D01*
X531376Y55238D01*
X530664Y56164D01*
X529738Y56876D01*
X528658Y57323D01*
X527500Y57475D01*
D02*
G37*
G36*
X517500D02*
X516342Y57323D01*
X515262Y56876D01*
X514335Y56164D01*
X513624Y55238D01*
X513177Y54158D01*
X513025Y53000D01*
X513177Y51842D01*
X513624Y50762D01*
X514335Y49836D01*
X515262Y49124D01*
X516342Y48677D01*
X517500Y48525D01*
X518658Y48677D01*
X519738Y49124D01*
X520665Y49836D01*
X521376Y50762D01*
X521823Y51842D01*
X521975Y53000D01*
X521823Y54158D01*
X521376Y55238D01*
X520665Y56164D01*
X519738Y56876D01*
X518658Y57323D01*
X517500Y57475D01*
D02*
G37*
G36*
X311162Y51529D02*
X310506Y51398D01*
X309950Y51027D01*
X309578Y50471D01*
X309448Y49815D01*
X309578Y49159D01*
X309950Y48603D01*
X310506Y48231D01*
X311162Y48101D01*
X311818Y48231D01*
X312374Y48603D01*
X312745Y49159D01*
X312876Y49815D01*
X312745Y50471D01*
X312374Y51027D01*
X311818Y51398D01*
X311162Y51529D01*
D02*
G37*
G36*
X276500Y49214D02*
X275844Y49084D01*
X275288Y48712D01*
X274916Y48156D01*
X274786Y47500D01*
X274916Y46844D01*
X275288Y46288D01*
X275844Y45916D01*
X276500Y45786D01*
X277156Y45916D01*
X277712Y46288D01*
X278084Y46844D01*
X278214Y47500D01*
X278084Y48156D01*
X277712Y48712D01*
X277156Y49084D01*
X276500Y49214D01*
D02*
G37*
G36*
X255000Y48714D02*
X254344Y48584D01*
X253788Y48212D01*
X253416Y47656D01*
X253286Y47000D01*
X253416Y46344D01*
X253788Y45788D01*
X254344Y45416D01*
X255000Y45286D01*
X255656Y45416D01*
X256212Y45788D01*
X256584Y46344D01*
X256714Y47000D01*
X256584Y47656D01*
X256212Y48212D01*
X255656Y48584D01*
X255000Y48714D01*
D02*
G37*
G36*
X233500Y47714D02*
X232844Y47584D01*
X232288Y47212D01*
X231916Y46656D01*
X231786Y46000D01*
X231916Y45344D01*
X232288Y44788D01*
X232844Y44416D01*
X233500Y44286D01*
X234156Y44416D01*
X234712Y44788D01*
X235084Y45344D01*
X235214Y46000D01*
X235084Y46656D01*
X234712Y47212D01*
X234156Y47584D01*
X233500Y47714D01*
D02*
G37*
G36*
X528000Y47914D02*
Y43500D01*
X532414D01*
X532310Y44289D01*
X531812Y45490D01*
X531021Y46521D01*
X529990Y47313D01*
X528789Y47810D01*
X528000Y47914D01*
D02*
G37*
G36*
X527000Y47914D02*
X526211Y47810D01*
X525010Y47313D01*
X523979Y46521D01*
X523187Y45490D01*
X522690Y44289D01*
X522586Y43500D01*
X527000D01*
Y47914D01*
D02*
G37*
G36*
X408500Y46714D02*
X407844Y46584D01*
X407288Y46212D01*
X406916Y45656D01*
X406786Y45000D01*
X406916Y44344D01*
X407288Y43788D01*
X407844Y43416D01*
X408500Y43286D01*
X409156Y43416D01*
X409712Y43788D01*
X410084Y44344D01*
X410214Y45000D01*
X410084Y45656D01*
X409712Y46212D01*
X409156Y46584D01*
X408500Y46714D01*
D02*
G37*
G36*
X386000D02*
X385344Y46584D01*
X384788Y46212D01*
X384416Y45656D01*
X384286Y45000D01*
X384416Y44344D01*
X384788Y43788D01*
X385344Y43416D01*
X386000Y43286D01*
X386656Y43416D01*
X387212Y43788D01*
X387584Y44344D01*
X387714Y45000D01*
X387584Y45656D01*
X387212Y46212D01*
X386656Y46584D01*
X386000Y46714D01*
D02*
G37*
G36*
X340500D02*
X339844Y46584D01*
X339288Y46212D01*
X338916Y45656D01*
X338786Y45000D01*
X338916Y44344D01*
X339288Y43788D01*
X339844Y43416D01*
X340500Y43286D01*
X341156Y43416D01*
X341712Y43788D01*
X342084Y44344D01*
X342214Y45000D01*
X342084Y45656D01*
X341712Y46212D01*
X341156Y46584D01*
X340500Y46714D01*
D02*
G37*
G36*
X363000Y46214D02*
X362344Y46084D01*
X361788Y45712D01*
X361416Y45156D01*
X361286Y44500D01*
X361416Y43844D01*
X361788Y43288D01*
X362344Y42916D01*
X363000Y42786D01*
X363656Y42916D01*
X364212Y43288D01*
X364584Y43844D01*
X364714Y44500D01*
X364584Y45156D01*
X364212Y45712D01*
X363656Y46084D01*
X363000Y46214D01*
D02*
G37*
G36*
X317500D02*
X316844Y46084D01*
X316288Y45712D01*
X315916Y45156D01*
X315786Y44500D01*
X315916Y43844D01*
X316288Y43288D01*
X316844Y42916D01*
X317500Y42786D01*
X318156Y42916D01*
X318712Y43288D01*
X319084Y43844D01*
X319214Y44500D01*
X319084Y45156D01*
X318712Y45712D01*
X318156Y46084D01*
X317500Y46214D01*
D02*
G37*
G36*
X295000D02*
X294344Y46084D01*
X293788Y45712D01*
X293416Y45156D01*
X293286Y44500D01*
X293416Y43844D01*
X293788Y43288D01*
X294344Y42916D01*
X295000Y42786D01*
X295656Y42916D01*
X296212Y43288D01*
X296584Y43844D01*
X296714Y44500D01*
X296584Y45156D01*
X296212Y45712D01*
X295656Y46084D01*
X295000Y46214D01*
D02*
G37*
G36*
X273000D02*
X272344Y46084D01*
X271788Y45712D01*
X271416Y45156D01*
X271286Y44500D01*
X271416Y43844D01*
X271788Y43288D01*
X272344Y42916D01*
X273000Y42786D01*
X273656Y42916D01*
X274212Y43288D01*
X274584Y43844D01*
X274714Y44500D01*
X274584Y45156D01*
X274212Y45712D01*
X273656Y46084D01*
X273000Y46214D01*
D02*
G37*
G36*
X251000D02*
X250344Y46084D01*
X249788Y45712D01*
X249416Y45156D01*
X249286Y44500D01*
X249416Y43844D01*
X249788Y43288D01*
X250344Y42916D01*
X251000Y42786D01*
X251656Y42916D01*
X252212Y43288D01*
X252584Y43844D01*
X252714Y44500D01*
X252584Y45156D01*
X252212Y45712D01*
X251656Y46084D01*
X251000Y46214D01*
D02*
G37*
G36*
X492500Y43913D02*
X491959Y43805D01*
X491501Y43499D01*
X491195Y43041D01*
X491087Y42500D01*
X491195Y41959D01*
X491501Y41501D01*
X491959Y41195D01*
X492500Y41087D01*
X493041Y41195D01*
X493499Y41501D01*
X493805Y41959D01*
X493913Y42500D01*
X493805Y43041D01*
X493499Y43499D01*
X493041Y43805D01*
X492500Y43913D01*
D02*
G37*
G36*
X517500Y47475D02*
X516342Y47323D01*
X515262Y46876D01*
X514335Y46165D01*
X513624Y45238D01*
X513177Y44158D01*
X513025Y43000D01*
X513177Y41842D01*
X513624Y40762D01*
X514335Y39836D01*
X515262Y39124D01*
X516342Y38677D01*
X517500Y38525D01*
X518658Y38677D01*
X519738Y39124D01*
X520665Y39836D01*
X521376Y40762D01*
X521823Y41842D01*
X521975Y43000D01*
X521823Y44158D01*
X521376Y45238D01*
X520665Y46165D01*
X519738Y46876D01*
X518658Y47323D01*
X517500Y47475D01*
D02*
G37*
G36*
X527000Y42500D02*
X522586D01*
X522690Y41711D01*
X523187Y40510D01*
X523979Y39479D01*
X525010Y38688D01*
X526211Y38190D01*
X527000Y38086D01*
Y42500D01*
D02*
G37*
G36*
X532414D02*
X528000D01*
Y38086D01*
X528789Y38190D01*
X529990Y38688D01*
X531021Y39479D01*
X531812Y40510D01*
X532310Y41711D01*
X532414Y42500D01*
D02*
G37*
G36*
X110500Y39413D02*
X109959Y39305D01*
X109501Y38999D01*
X109195Y38541D01*
X109087Y38000D01*
X109195Y37459D01*
X109501Y37001D01*
X109959Y36695D01*
X110500Y36587D01*
X111041Y36695D01*
X111499Y37001D01*
X111805Y37459D01*
X111913Y38000D01*
X111805Y38541D01*
X111499Y38999D01*
X111041Y39305D01*
X110500Y39413D01*
D02*
G37*
G36*
X77500Y39214D02*
X76844Y39084D01*
X76288Y38712D01*
X75916Y38156D01*
X75786Y37500D01*
X75916Y36844D01*
X76288Y36288D01*
X76844Y35916D01*
X77500Y35786D01*
X78156Y35916D01*
X78712Y36288D01*
X79084Y36844D01*
X79214Y37500D01*
X79084Y38156D01*
X78712Y38712D01*
X78156Y39084D01*
X77500Y39214D01*
D02*
G37*
G36*
X70000D02*
X69344Y39084D01*
X68788Y38712D01*
X68416Y38156D01*
X68286Y37500D01*
X68416Y36844D01*
X68788Y36288D01*
X69344Y35916D01*
X70000Y35786D01*
X70656Y35916D01*
X71212Y36288D01*
X71584Y36844D01*
X71714Y37500D01*
X71584Y38156D01*
X71212Y38712D01*
X70656Y39084D01*
X70000Y39214D01*
D02*
G37*
G36*
X96000Y37714D02*
X95344Y37584D01*
X94788Y37212D01*
X94416Y36656D01*
X94286Y36000D01*
X94416Y35344D01*
X94788Y34788D01*
X95344Y34416D01*
X96000Y34286D01*
X96656Y34416D01*
X97212Y34788D01*
X97584Y35344D01*
X97714Y36000D01*
X97584Y36656D01*
X97212Y37212D01*
X96656Y37584D01*
X96000Y37714D01*
D02*
G37*
G36*
X123000Y37214D02*
X122344Y37084D01*
X121788Y36712D01*
X121416Y36156D01*
X121286Y35500D01*
X121416Y34844D01*
X121788Y34288D01*
X122344Y33916D01*
X123000Y33786D01*
X123656Y33916D01*
X124212Y34288D01*
X124584Y34844D01*
X124714Y35500D01*
X124584Y36156D01*
X124212Y36712D01*
X123656Y37084D01*
X123000Y37214D01*
D02*
G37*
G36*
X40000Y36714D02*
X39344Y36584D01*
X38788Y36212D01*
X38416Y35656D01*
X38286Y35000D01*
X38416Y34344D01*
X38788Y33788D01*
X39344Y33416D01*
X40000Y33286D01*
X40656Y33416D01*
X41212Y33788D01*
X41584Y34344D01*
X41714Y35000D01*
X41584Y35656D01*
X41212Y36212D01*
X40656Y36584D01*
X40000Y36714D01*
D02*
G37*
G36*
X73500Y34214D02*
X72844Y34084D01*
X72288Y33712D01*
X71916Y33156D01*
X71786Y32500D01*
X71916Y31844D01*
X72288Y31288D01*
X72844Y30916D01*
X73500Y30786D01*
X74156Y30916D01*
X74712Y31288D01*
X75084Y31844D01*
X75214Y32500D01*
X75084Y33156D01*
X74712Y33712D01*
X74156Y34084D01*
X73500Y34214D01*
D02*
G37*
G36*
X40000Y29214D02*
X39344Y29084D01*
X38788Y28712D01*
X38416Y28156D01*
X38286Y27500D01*
X38416Y26844D01*
X38788Y26288D01*
X39344Y25916D01*
X40000Y25786D01*
X40656Y25916D01*
X41212Y26288D01*
X41584Y26844D01*
X41714Y27500D01*
X41584Y28156D01*
X41212Y28712D01*
X40656Y29084D01*
X40000Y29214D01*
D02*
G37*
G36*
X33500Y21714D02*
X32844Y21584D01*
X32288Y21212D01*
X31916Y20656D01*
X31786Y20000D01*
X31916Y19344D01*
X32288Y18788D01*
X32844Y18416D01*
X33500Y18286D01*
X34156Y18416D01*
X34712Y18788D01*
X35084Y19344D01*
X35214Y20000D01*
X35084Y20656D01*
X34712Y21212D01*
X34156Y21584D01*
X33500Y21714D01*
D02*
G37*
G36*
X27500D02*
X26844Y21584D01*
X26288Y21212D01*
X25916Y20656D01*
X25786Y20000D01*
X25916Y19344D01*
X26288Y18788D01*
X26844Y18416D01*
X27500Y18286D01*
X28156Y18416D01*
X28712Y18788D01*
X29084Y19344D01*
X29214Y20000D01*
X29084Y20656D01*
X28712Y21212D01*
X28156Y21584D01*
X27500Y21714D01*
D02*
G37*
G36*
X30500Y18714D02*
X29844Y18584D01*
X29288Y18212D01*
X28916Y17656D01*
X28786Y17000D01*
X28916Y16344D01*
X29288Y15788D01*
X29844Y15416D01*
X30500Y15286D01*
X31156Y15416D01*
X31712Y15788D01*
X32084Y16344D01*
X32214Y17000D01*
X32084Y17656D01*
X31712Y18212D01*
X31156Y18584D01*
X30500Y18714D01*
D02*
G37*
%LPD*%
D18*
X276500Y144500D02*
X291500Y129500D01*
X243500Y144500D02*
X276500D01*
X291500Y121000D02*
Y124500D01*
Y129500D01*
X290500Y69000D02*
Y76925D01*
X233500Y154500D02*
X243500Y144500D01*
X234000Y98462D02*
X268962D01*
X290500Y76925D01*
X268962Y98462D02*
X291500Y121000D01*
X267000Y325000D02*
X275000Y333000D01*
X317158Y293644D02*
Y298342D01*
X317319Y354319D02*
X317500Y354500D01*
X284514Y261000D02*
X317158Y293644D01*
X317319Y351819D02*
Y354319D01*
X267000Y322500D02*
X287000Y302500D01*
X313000D01*
X268000Y261000D02*
X284514D01*
X275000Y333000D02*
X298500D01*
X267000Y323750D02*
Y325000D01*
Y322500D02*
Y323750D01*
X298500Y333000D02*
X317319Y351819D01*
X313000Y302500D02*
X317158Y298342D01*
X235000Y323750D02*
Y324500D01*
X236000Y262000D02*
X259500D01*
X235000Y323000D02*
Y323750D01*
X259500Y262000D02*
X290472Y292972D01*
X235000Y324500D02*
X247783Y337283D01*
X235000Y323000D02*
X253500Y304500D01*
X282000D02*
X290472Y296028D01*
Y292972D02*
Y296028D01*
X274783Y337283D02*
X290500Y353000D01*
X253500Y304500D02*
X282000D01*
X290500Y353000D02*
Y354500D01*
X247783Y337283D02*
X274783D01*
D95*
X94736Y219953D02*
D03*
Y225858D02*
D03*
Y231764D02*
D03*
Y214047D02*
D03*
Y208142D02*
D03*
Y202236D02*
D03*
X100642Y219953D02*
D03*
Y225858D02*
D03*
Y231764D02*
D03*
Y214047D02*
D03*
Y208142D02*
D03*
Y202236D02*
D03*
X106547Y219953D02*
D03*
Y225858D02*
D03*
Y231764D02*
D03*
Y208142D02*
D03*
Y202236D02*
D03*
X124264Y219953D02*
D03*
Y225858D02*
D03*
Y231764D02*
D03*
Y214047D02*
D03*
Y208142D02*
D03*
Y202236D02*
D03*
X118358Y219953D02*
D03*
Y225858D02*
D03*
Y231764D02*
D03*
Y214047D02*
D03*
Y208142D02*
D03*
Y202236D02*
D03*
X112453Y219953D02*
D03*
Y225858D02*
D03*
Y231764D02*
D03*
Y214047D02*
D03*
Y208142D02*
D03*
Y202236D02*
D03*
X106547Y214047D02*
D03*
X159500Y123500D02*
D03*
X175000Y75000D02*
D03*
X326500Y102500D02*
D03*
X325773Y96273D02*
D03*
X329052Y112552D02*
D03*
X329088Y117447D02*
D03*
X331500Y123000D02*
D03*
X331507Y127948D02*
D03*
X332773Y140273D02*
D03*
X333000Y145000D02*
D03*
X334500Y304736D02*
D03*
X333477Y301023D02*
D03*
X336000Y288224D02*
D03*
X335277Y284723D02*
D03*
X336500Y271736D02*
D03*
X336000Y268000D02*
D03*
X334982Y254724D02*
D03*
X333207Y251252D02*
D03*
X95715Y248341D02*
D03*
X100642Y248142D02*
D03*
X78300Y206256D02*
D03*
X70800Y209308D02*
D03*
X78300Y225807D02*
D03*
X65300D02*
D03*
X95800Y185808D02*
D03*
X100300Y185308D02*
D03*
D97*
X325886Y96386D02*
Y101596D01*
X326500Y102210D01*
Y102500D01*
X325773Y96273D02*
X325886Y96386D01*
X329070Y117429D02*
X329088Y117447D01*
X329070Y112570D02*
Y117429D01*
X329052Y112552D02*
X329070Y112570D01*
X331504Y127944D02*
X331507Y127948D01*
X331504Y123004D02*
Y127944D01*
X331500Y123000D02*
X331504Y123004D01*
X332886Y144886D02*
X333000Y145000D01*
X332886Y140386D02*
Y144886D01*
X332773Y140273D02*
X332886Y140386D01*
X333477Y301023D02*
Y303423D01*
X334500Y304446D01*
Y304736D01*
X335277Y284723D02*
Y287211D01*
X336000Y287934D01*
Y288224D01*
Y268000D02*
Y270946D01*
X336500Y271446D01*
Y271736D01*
X333207Y251252D02*
X334777Y252822D01*
Y254519D01*
X334982Y254724D01*
D103*
X527500Y83000D02*
D03*
Y43000D02*
D03*
D104*
X109500Y217000D02*
D03*
D113*
X17000Y151000D02*
D03*
D115*
X180500Y65500D02*
D03*
X159500Y95500D02*
D03*
X143500Y141000D02*
D03*
X98500Y155500D02*
D03*
X529500Y107000D02*
D03*
X72835Y8505D02*
D03*
X62835D02*
D03*
X52835D02*
D03*
X47835Y18505D02*
D03*
X22835Y28505D02*
D03*
Y8505D02*
D03*
X12835Y28505D02*
D03*
Y8505D02*
D03*
X58Y170653D02*
D03*
X-23000Y176000D02*
D03*
X66000Y264500D02*
D03*
Y259500D02*
D03*
Y254500D02*
D03*
X71000D02*
D03*
X76000D02*
D03*
X81000D02*
D03*
Y259500D02*
D03*
Y264500D02*
D03*
X-42000Y263478D02*
D03*
Y255000D02*
D03*
Y249000D02*
D03*
Y242500D02*
D03*
Y233500D02*
D03*
Y224000D02*
D03*
Y214500D02*
D03*
Y205000D02*
D03*
Y182827D02*
D03*
Y173500D02*
D03*
Y164000D02*
D03*
Y154500D02*
D03*
Y145000D02*
D03*
Y135500D02*
D03*
X149681Y144315D02*
D03*
X127992Y141622D02*
D03*
X141564Y66448D02*
D03*
X149046Y67653D02*
D03*
X141500Y75500D02*
D03*
X149046Y73847D02*
D03*
X149000Y93000D02*
D03*
X142000Y94000D02*
D03*
X103000Y112500D02*
D03*
X65578Y81377D02*
D03*
X65000Y63500D02*
D03*
X72000Y71000D02*
D03*
X83000Y66000D02*
D03*
X111000Y119147D02*
D03*
X400528Y41209D02*
D03*
X378028Y40709D02*
D03*
X355028D02*
D03*
X332528D02*
D03*
X309528D02*
D03*
X287028D02*
D03*
X265028D02*
D03*
X243429Y41643D02*
D03*
X82500Y95500D02*
D03*
X60000D02*
D03*
X233500Y154500D02*
D03*
X291500Y124500D02*
D03*
X234000Y98500D02*
D03*
X290500Y69000D02*
D03*
X268000Y261000D02*
D03*
X317461Y295993D02*
D03*
X267000Y323750D02*
D03*
X317500Y354500D02*
D03*
X236000Y262000D02*
D03*
X290472Y296028D02*
D03*
X235000Y323750D02*
D03*
X290500Y354500D02*
D03*
X-19000Y128500D02*
D03*
X130000Y35500D02*
D03*
X116500Y39500D02*
D03*
X94829Y42716D02*
D03*
X102000Y42000D02*
D03*
X97000Y15000D02*
D03*
X102500Y20000D02*
D03*
M02*
