G04*
G04 #@! TF.GenerationSoftware,Altium Limited,Altium Designer,20.2.3 (150)*
G04*
G04 Layer_Physical_Order=2*
G04 Layer_Color=6736896*
%FSLAX25Y25*%
%MOIN*%
G70*
G04*
G04 #@! TF.SameCoordinates,A62ED044-34EF-4C35-90D6-C9DE7C21F0D3*
G04*
G04*
G04 #@! TF.FilePolarity,Positive*
G04*
G01*
G75*
%ADD100C,0.01772*%
%ADD114R,0.03937X0.03937*%
%ADD115C,0.10000*%
%ADD117C,0.05906*%
%ADD120C,0.07874*%
%ADD122C,0.02362*%
G36*
X66697Y343668D02*
Y287500D01*
X66758Y287193D01*
X66932Y286932D01*
X66932Y286932D01*
X67500Y286365D01*
Y286000D01*
X94000Y259500D01*
Y256000D01*
X98355Y251645D01*
X98108Y251184D01*
X98000Y251206D01*
X97347Y251076D01*
X96794Y250706D01*
X96424Y250153D01*
X96294Y249500D01*
X96424Y248847D01*
X96794Y248294D01*
X97347Y247924D01*
X98000Y247794D01*
X98653Y247924D01*
X99206Y248294D01*
X99576Y248847D01*
X99706Y249500D01*
X99684Y249608D01*
X100145Y249855D01*
X100913Y249087D01*
X102534Y249087D01*
X106800Y244821D01*
X133179Y244821D01*
X136500Y241500D01*
X136500Y193000D01*
X132000Y188500D01*
X107000Y188500D01*
X102000Y183500D01*
X98000Y183500D01*
X94000Y179500D01*
X94000Y167000D01*
X114359Y146641D01*
X114789D01*
X114792Y146639D01*
X115099Y146578D01*
X115406Y146639D01*
X115409Y146641D01*
X150859Y146641D01*
X161000Y136500D01*
X161000Y92000D01*
X199000Y54000D01*
X458000Y54000D01*
X513138Y109138D01*
X553461Y109138D01*
Y8055D01*
Y7480D01*
X553237Y6353D01*
X552797Y5291D01*
X552158Y4336D01*
X551345Y3523D01*
X550390Y2884D01*
X549328Y2444D01*
X548201Y2220D01*
X7823D01*
X7248Y2220D01*
X6121Y2444D01*
X5059Y2884D01*
X4104Y3523D01*
X3291Y4336D01*
X2653Y5291D01*
X2213Y6353D01*
X1989Y7480D01*
X1989Y8055D01*
X1989Y8055D01*
X1989Y8055D01*
Y115437D01*
X1834Y116217D01*
X1392Y116879D01*
X730Y117321D01*
X-50Y117476D01*
X-23909D01*
X-23958Y117466D01*
X-24009Y117474D01*
X-24395Y117455D01*
X-24541Y117418D01*
X-24692D01*
X-25449Y117267D01*
X-25635Y117191D01*
X-25832Y117151D01*
X-26545Y116856D01*
X-26712Y116744D01*
X-26897Y116668D01*
X-27539Y116239D01*
X-27681Y116097D01*
X-27848Y115985D01*
X-28394Y115439D01*
X-28505Y115272D01*
X-28647Y115130D01*
X-29076Y114489D01*
X-29153Y114303D01*
X-29265Y114136D01*
X-29560Y113423D01*
X-29599Y113226D01*
X-29676Y113041D01*
X-29827Y112284D01*
Y112133D01*
X-29863Y111986D01*
X-29882Y111600D01*
X-29875Y111550D01*
X-29885Y111500D01*
X-29885Y109602D01*
X-32814Y109602D01*
Y121343D01*
X-32824Y121392D01*
X-32816Y121443D01*
X-32835Y121828D01*
X-32872Y121975D01*
Y122126D01*
X-33022Y122883D01*
X-33099Y123069D01*
X-33138Y123266D01*
X-33434Y123979D01*
X-33545Y124146D01*
X-33622Y124331D01*
X-34051Y124973D01*
X-34193Y125115D01*
X-34305Y125282D01*
X-34850Y125828D01*
X-35017Y125939D01*
X-35159Y126081D01*
X-35801Y126510D01*
X-35987Y126587D01*
X-36154Y126699D01*
X-36867Y126994D01*
X-37064Y127033D01*
X-37249Y127110D01*
X-38006Y127260D01*
X-38157D01*
X-38304Y127297D01*
X-38690Y127316D01*
X-38740Y127309D01*
X-38790Y127319D01*
X-56436Y127319D01*
Y183969D01*
X-38003D01*
X-37937Y183982D01*
X-37870Y183973D01*
X-37253Y184013D01*
X-37059Y184065D01*
X-36858Y184079D01*
X-35667Y184398D01*
X-35428Y184516D01*
X-35175Y184602D01*
X-34107Y185218D01*
X-33907Y185394D01*
X-33685Y185542D01*
X-32813Y186414D01*
X-32665Y186636D01*
X-32489Y186837D01*
X-31872Y187905D01*
X-31787Y188157D01*
X-31668Y188397D01*
X-31349Y189588D01*
X-31332Y189854D01*
X-31280Y190116D01*
Y191349D01*
X-31332Y191611D01*
X-31349Y191877D01*
X-31668Y193068D01*
X-31787Y193307D01*
X-31872Y193560D01*
X-32489Y194628D01*
X-32665Y194828D01*
X-32813Y195050D01*
X-33685Y195922D01*
X-33907Y196071D01*
X-34107Y196246D01*
X-35175Y196863D01*
X-35428Y196949D01*
X-35667Y197067D01*
X-36858Y197386D01*
X-37059Y197399D01*
X-37253Y197451D01*
X-37870Y197492D01*
X-37937Y197483D01*
X-38003Y197496D01*
X-56436D01*
Y266744D01*
X-38790D01*
X-38740Y266754D01*
X-38690Y266747D01*
X-38304Y266766D01*
X-38157Y266803D01*
X-38006D01*
X-37249Y266953D01*
X-37064Y267030D01*
X-36867Y267069D01*
X-36154Y267364D01*
X-35987Y267476D01*
X-35801Y267553D01*
X-35159Y267982D01*
X-35017Y268124D01*
X-34850Y268235D01*
X-34305Y268781D01*
X-34193Y268948D01*
X-34051Y269090D01*
X-33622Y269732D01*
X-33545Y269917D01*
X-33434Y270084D01*
X-33138Y270797D01*
X-33099Y270994D01*
X-33022Y271180D01*
X-32872Y271937D01*
Y272088D01*
X-32835Y272235D01*
X-32816Y272620D01*
X-32824Y272671D01*
X-32814Y272721D01*
X-32814Y284461D01*
X-29885D01*
X-29885Y282563D01*
X-29875Y282513D01*
X-29882Y282463D01*
X-29863Y282077D01*
X-29827Y281930D01*
Y281779D01*
X-29676Y281022D01*
X-29599Y280837D01*
X-29560Y280640D01*
X-29265Y279927D01*
X-29153Y279760D01*
X-29076Y279574D01*
X-28647Y278932D01*
X-28505Y278790D01*
X-28394Y278624D01*
X-27848Y278078D01*
X-27681Y277966D01*
X-27539Y277824D01*
X-26897Y277395D01*
X-26712Y277319D01*
X-26545Y277207D01*
X-25832Y276912D01*
X-25635Y276872D01*
X-25449Y276796D01*
X-24692Y276645D01*
X-24541D01*
X-24394Y276608D01*
X-24009Y276589D01*
X-23958Y276597D01*
X-23909Y276587D01*
X-50Y276587D01*
X730Y276742D01*
X1392Y277184D01*
X1834Y277846D01*
X1989Y278626D01*
X1988Y343844D01*
X2342Y344197D01*
X50665D01*
X50932Y343697D01*
X50646Y343268D01*
X50493Y342500D01*
X50646Y341732D01*
X51081Y341081D01*
X51732Y340646D01*
X52500Y340493D01*
X53268Y340646D01*
X53919Y341081D01*
X54354Y341732D01*
X54507Y342500D01*
X54354Y343268D01*
X54068Y343697D01*
X54335Y344197D01*
X55665D01*
X55932Y343697D01*
X55646Y343268D01*
X55493Y342500D01*
X55646Y341732D01*
X56081Y341081D01*
X56732Y340646D01*
X57500Y340493D01*
X58268Y340646D01*
X58919Y341081D01*
X59354Y341732D01*
X59507Y342500D01*
X59354Y343268D01*
X59068Y343697D01*
X59335Y344197D01*
X66167D01*
X66697Y343668D01*
D02*
G37*
G36*
X549328Y391618D02*
X550390Y391179D01*
X551345Y390540D01*
X552158Y389727D01*
X552797Y388772D01*
X553237Y387710D01*
X553461Y386582D01*
Y386008D01*
Y256280D01*
X552961Y256155D01*
X552503Y257011D01*
X551605Y258105D01*
X550511Y259003D01*
X549263Y259670D01*
X547908Y260081D01*
X546500Y260220D01*
X545091Y260081D01*
X543737Y259670D01*
X542489Y259003D01*
X541395Y258105D01*
X540497Y257011D01*
X539830Y255763D01*
X539419Y254409D01*
X539280Y253000D01*
X539419Y251591D01*
X539830Y250237D01*
X540497Y248989D01*
X541395Y247895D01*
X542489Y246997D01*
X543737Y246330D01*
X545091Y245919D01*
X546500Y245780D01*
X547908Y245919D01*
X549263Y246330D01*
X550511Y246997D01*
X551605Y247895D01*
X552503Y248989D01*
X552961Y249845D01*
X553461Y249720D01*
Y144280D01*
X552961Y144155D01*
X552503Y145011D01*
X551605Y146105D01*
X550511Y147003D01*
X549263Y147670D01*
X547908Y148081D01*
X546500Y148220D01*
X545091Y148081D01*
X543737Y147670D01*
X542489Y147003D01*
X541395Y146105D01*
X540497Y145011D01*
X539830Y143763D01*
X539419Y142409D01*
X539280Y141000D01*
X539419Y139592D01*
X539830Y138237D01*
X540497Y136989D01*
X541395Y135895D01*
X542489Y134997D01*
X543737Y134330D01*
X545091Y133919D01*
X546500Y133780D01*
X547908Y133919D01*
X549263Y134330D01*
X550511Y134997D01*
X551605Y135895D01*
X552503Y136989D01*
X552961Y137845D01*
X553461Y137720D01*
Y110000D01*
X512500D01*
X457500Y55000D01*
X200000D01*
X162500Y92500D01*
Y137500D01*
X152500Y147500D01*
X115218D01*
X115099Y147381D01*
X95000Y167480D01*
Y179000D01*
X98500Y182500D01*
X102550D01*
X107550Y187500D01*
X132500D01*
X137500Y192500D01*
Y242500D01*
X134000Y246000D01*
X107500D01*
X103500Y250000D01*
X101500Y250000D01*
X98811Y252689D01*
X99057Y253150D01*
X99300Y253101D01*
X99953Y253231D01*
X100506Y253601D01*
X100876Y254155D01*
X101006Y254807D01*
X100876Y255460D01*
X100506Y256014D01*
X99953Y256384D01*
X99300Y256514D01*
X98647Y256384D01*
X98094Y256014D01*
X97724Y255460D01*
X97594Y254807D01*
X97642Y254565D01*
X97182Y254318D01*
X95000Y256500D01*
X95000Y260000D01*
X67500Y287500D01*
Y344000D01*
X66500Y345000D01*
X1988D01*
X1988Y386008D01*
X1988Y386582D01*
X2212Y387710D01*
X2652Y388772D01*
X3291Y389727D01*
X4103Y390540D01*
X5059Y391179D01*
X6121Y391618D01*
X7248Y391843D01*
X7823D01*
X547626Y391843D01*
X548201D01*
X549328Y391618D01*
D02*
G37*
%LPC*%
G36*
X52500Y339507D02*
X51732Y339354D01*
X51081Y338919D01*
X50646Y338268D01*
X50493Y337500D01*
X50646Y336732D01*
X51081Y336081D01*
X51732Y335646D01*
X52500Y335493D01*
X53268Y335646D01*
X53919Y336081D01*
X54354Y336732D01*
X54507Y337500D01*
X54354Y338268D01*
X53919Y338919D01*
X53268Y339354D01*
X52500Y339507D01*
D02*
G37*
G36*
Y334507D02*
X51732Y334354D01*
X51081Y333919D01*
X50646Y333268D01*
X50493Y332500D01*
X50646Y331732D01*
X51081Y331081D01*
X51732Y330646D01*
X52500Y330493D01*
X53268Y330646D01*
X53919Y331081D01*
X54354Y331732D01*
X54507Y332500D01*
X54354Y333268D01*
X53919Y333919D01*
X53268Y334354D01*
X52500Y334507D01*
D02*
G37*
G36*
X32500Y337820D02*
X31511Y337690D01*
X30590Y337308D01*
X29799Y336701D01*
X29192Y335910D01*
X28810Y334989D01*
X28680Y334000D01*
X28810Y333011D01*
X29192Y332090D01*
X29799Y331299D01*
X30590Y330692D01*
X31511Y330310D01*
X32500Y330180D01*
X33489Y330310D01*
X34410Y330692D01*
X35201Y331299D01*
X35808Y332090D01*
X36190Y333011D01*
X36320Y334000D01*
X36190Y334989D01*
X35808Y335910D01*
X35201Y336701D01*
X34410Y337308D01*
X33489Y337690D01*
X32500Y337820D01*
D02*
G37*
G36*
X22500D02*
X21511Y337690D01*
X20590Y337308D01*
X19799Y336701D01*
X19192Y335910D01*
X18810Y334989D01*
X18680Y334000D01*
X18810Y333011D01*
X19192Y332090D01*
X19799Y331299D01*
X20590Y330692D01*
X21511Y330310D01*
X22500Y330180D01*
X23489Y330310D01*
X24410Y330692D01*
X25201Y331299D01*
X25808Y332090D01*
X26190Y333011D01*
X26320Y334000D01*
X26190Y334989D01*
X25808Y335910D01*
X25201Y336701D01*
X24410Y337308D01*
X23489Y337690D01*
X22500Y337820D01*
D02*
G37*
G36*
X57500Y329507D02*
X56732Y329354D01*
X56081Y328919D01*
X55646Y328268D01*
X55493Y327500D01*
X55646Y326732D01*
X56081Y326081D01*
X56732Y325646D01*
X57500Y325493D01*
X58268Y325646D01*
X58919Y326081D01*
X59354Y326732D01*
X59507Y327500D01*
X59354Y328268D01*
X58919Y328919D01*
X58268Y329354D01*
X57500Y329507D01*
D02*
G37*
G36*
X52500D02*
X51732Y329354D01*
X51081Y328919D01*
X50646Y328268D01*
X50493Y327500D01*
X50646Y326732D01*
X51081Y326081D01*
X51732Y325646D01*
X52500Y325493D01*
X53268Y325646D01*
X53919Y326081D01*
X54354Y326732D01*
X54507Y327500D01*
X54354Y328268D01*
X53919Y328919D01*
X53268Y329354D01*
X52500Y329507D01*
D02*
G37*
G36*
X32500Y327820D02*
X31511Y327690D01*
X30590Y327308D01*
X29799Y326701D01*
X29192Y325910D01*
X28810Y324989D01*
X28680Y324000D01*
X28810Y323011D01*
X29192Y322090D01*
X29799Y321299D01*
X30590Y320692D01*
X31511Y320310D01*
X32500Y320180D01*
X33489Y320310D01*
X34410Y320692D01*
X35201Y321299D01*
X35808Y322090D01*
X36190Y323011D01*
X36320Y324000D01*
X36190Y324989D01*
X35808Y325910D01*
X35201Y326701D01*
X34410Y327308D01*
X33489Y327690D01*
X32500Y327820D01*
D02*
G37*
G36*
X22500D02*
X21511Y327690D01*
X20590Y327308D01*
X19799Y326701D01*
X19192Y325910D01*
X18810Y324989D01*
X18680Y324000D01*
X18810Y323011D01*
X19192Y322090D01*
X19799Y321299D01*
X20590Y320692D01*
X21511Y320310D01*
X22500Y320180D01*
X23489Y320310D01*
X24410Y320692D01*
X25201Y321299D01*
X25808Y322090D01*
X26190Y323011D01*
X26320Y324000D01*
X26190Y324989D01*
X25808Y325910D01*
X25201Y326701D01*
X24410Y327308D01*
X23489Y327690D01*
X22500Y327820D01*
D02*
G37*
G36*
X59500Y305837D02*
X57989Y305638D01*
X56581Y305055D01*
X55372Y304128D01*
X54445Y302919D01*
X53862Y301511D01*
X53663Y300000D01*
X53862Y298489D01*
X54445Y297081D01*
X55372Y295872D01*
X56581Y294945D01*
X57989Y294362D01*
X59500Y294163D01*
X61011Y294362D01*
X62419Y294945D01*
X63628Y295872D01*
X64555Y297081D01*
X65138Y298489D01*
X65337Y300000D01*
X65138Y301511D01*
X64555Y302919D01*
X63628Y304128D01*
X62419Y305055D01*
X61011Y305638D01*
X59500Y305837D01*
D02*
G37*
G36*
X32531Y297375D02*
X31658Y297260D01*
X30844Y296923D01*
X30145Y296387D01*
X29608Y295688D01*
X29271Y294874D01*
X29156Y294000D01*
X29271Y293126D01*
X29608Y292312D01*
X30145Y291613D01*
X30844Y291077D01*
X31658Y290740D01*
X32531Y290625D01*
X33405Y290740D01*
X34219Y291077D01*
X34918Y291613D01*
X35455Y292312D01*
X35792Y293126D01*
X35907Y294000D01*
X35792Y294874D01*
X35455Y295688D01*
X34918Y296387D01*
X34219Y296923D01*
X33405Y297260D01*
X32531Y297375D01*
D02*
G37*
G36*
X22689D02*
X21815Y297260D01*
X21001Y296923D01*
X20302Y296387D01*
X19766Y295688D01*
X19429Y294874D01*
X19314Y294000D01*
X19429Y293126D01*
X19766Y292312D01*
X20302Y291613D01*
X21001Y291077D01*
X21815Y290740D01*
X22689Y290625D01*
X23563Y290740D01*
X24377Y291077D01*
X25076Y291613D01*
X25612Y292312D01*
X25949Y293126D01*
X26064Y294000D01*
X25949Y294874D01*
X25612Y295688D01*
X25076Y296387D01*
X24377Y296923D01*
X23563Y297260D01*
X22689Y297375D01*
D02*
G37*
G36*
X41240Y263740D02*
X33760D01*
Y256260D01*
X41240D01*
Y263740D01*
D02*
G37*
G36*
X-39500Y260909D02*
X-40422Y260725D01*
X-41203Y260203D01*
X-41725Y259422D01*
X-41908Y258500D01*
X-41725Y257578D01*
X-41203Y256797D01*
X-40422Y256275D01*
X-39500Y256091D01*
X-38578Y256275D01*
X-37797Y256797D01*
X-37275Y257578D01*
X-37091Y258500D01*
X-37275Y259422D01*
X-37797Y260203D01*
X-38578Y260725D01*
X-39500Y260909D01*
D02*
G37*
G36*
X37500Y253772D02*
X36524Y253644D01*
X35614Y253267D01*
X34833Y252667D01*
X34233Y251886D01*
X33856Y250976D01*
X33728Y250000D01*
X33856Y249024D01*
X34233Y248114D01*
X34833Y247333D01*
X35614Y246733D01*
X36524Y246356D01*
X37500Y246228D01*
X38476Y246356D01*
X39386Y246733D01*
X40167Y247333D01*
X40767Y248114D01*
X41144Y249024D01*
X41272Y250000D01*
X41144Y250976D01*
X40767Y251886D01*
X40167Y252667D01*
X39386Y253267D01*
X38476Y253644D01*
X37500Y253772D01*
D02*
G37*
G36*
X26240Y252240D02*
X18760D01*
Y244760D01*
X26240D01*
Y252240D01*
D02*
G37*
G36*
X41240Y242740D02*
X33760D01*
Y235260D01*
X41240D01*
Y242740D01*
D02*
G37*
G36*
X22500Y242272D02*
X21524Y242144D01*
X20614Y241767D01*
X19832Y241167D01*
X19233Y240386D01*
X18856Y239476D01*
X18728Y238500D01*
X18856Y237524D01*
X19233Y236614D01*
X19832Y235833D01*
X20614Y235233D01*
X21524Y234856D01*
X22500Y234728D01*
X23476Y234856D01*
X24386Y235233D01*
X25168Y235833D01*
X25767Y236614D01*
X26144Y237524D01*
X26272Y238500D01*
X26144Y239476D01*
X25767Y240386D01*
X25168Y241167D01*
X24386Y241767D01*
X23476Y242144D01*
X22500Y242272D01*
D02*
G37*
G36*
X-33696Y234087D02*
X-34349Y233957D01*
X-34902Y233587D01*
X-35272Y233034D01*
X-35344Y232675D01*
X-35500Y232706D01*
X-36153Y232576D01*
X-36706Y232206D01*
X-37076Y231653D01*
X-37206Y231000D01*
X-37076Y230347D01*
X-36706Y229794D01*
X-36153Y229424D01*
X-35500Y229294D01*
X-34847Y229424D01*
X-34294Y229794D01*
X-33924Y230347D01*
X-33852Y230706D01*
X-33696Y230675D01*
X-33043Y230805D01*
X-32490Y231174D01*
X-32120Y231728D01*
X-31990Y232381D01*
X-32120Y233034D01*
X-32490Y233587D01*
X-33043Y233957D01*
X-33696Y234087D01*
D02*
G37*
G36*
X37500Y232772D02*
X36524Y232644D01*
X35614Y232267D01*
X34833Y231667D01*
X34233Y230886D01*
X33856Y229976D01*
X33728Y229000D01*
X33856Y228024D01*
X34233Y227114D01*
X34833Y226332D01*
X35614Y225733D01*
X36524Y225356D01*
X37500Y225228D01*
X38476Y225356D01*
X39386Y225733D01*
X40167Y226332D01*
X40767Y227114D01*
X41144Y228024D01*
X41272Y229000D01*
X41144Y229976D01*
X40767Y230886D01*
X40167Y231667D01*
X39386Y232267D01*
X38476Y232644D01*
X37500Y232772D01*
D02*
G37*
G36*
X71300Y227514D02*
X70647Y227384D01*
X70094Y227014D01*
X69724Y226460D01*
X69594Y225807D01*
X69724Y225155D01*
X70094Y224601D01*
X70647Y224231D01*
X71300Y224101D01*
X71953Y224231D01*
X72506Y224601D01*
X72876Y225155D01*
X73006Y225807D01*
X72876Y226460D01*
X72506Y227014D01*
X71953Y227384D01*
X71300Y227514D01*
D02*
G37*
G36*
X26240Y231240D02*
X18760D01*
Y223760D01*
X26240D01*
Y231240D01*
D02*
G37*
G36*
X-31996Y222276D02*
X-32649Y222146D01*
X-33202Y221776D01*
X-33572Y221222D01*
X-33592Y221125D01*
X-34000Y221206D01*
X-34653Y221076D01*
X-35206Y220706D01*
X-35576Y220153D01*
X-35706Y219500D01*
X-35576Y218847D01*
X-35206Y218294D01*
X-34653Y217924D01*
X-34000Y217794D01*
X-33347Y217924D01*
X-32794Y218294D01*
X-32424Y218847D01*
X-32404Y218945D01*
X-31996Y218864D01*
X-31343Y218993D01*
X-30790Y219363D01*
X-30420Y219917D01*
X-30290Y220570D01*
X-30420Y221222D01*
X-30790Y221776D01*
X-31343Y222146D01*
X-31996Y222276D01*
D02*
G37*
G36*
X110500Y220855D02*
Y218000D01*
X113355D01*
X113351Y218032D01*
X112953Y218993D01*
X112319Y219819D01*
X111493Y220453D01*
X110532Y220851D01*
X110500Y220855D01*
D02*
G37*
G36*
X108500D02*
X108468Y220851D01*
X107507Y220453D01*
X106681Y219819D01*
X106047Y218993D01*
X105649Y218032D01*
X105645Y218000D01*
X108500D01*
Y220855D01*
D02*
G37*
G36*
X41240Y221740D02*
X33760D01*
Y214260D01*
X41240D01*
Y221740D01*
D02*
G37*
G36*
X22500Y221272D02*
X21524Y221144D01*
X20614Y220767D01*
X19832Y220167D01*
X19233Y219386D01*
X18856Y218476D01*
X18728Y217500D01*
X18856Y216524D01*
X19233Y215614D01*
X19832Y214832D01*
X20614Y214233D01*
X21524Y213856D01*
X22500Y213728D01*
X23476Y213856D01*
X24386Y214233D01*
X25168Y214832D01*
X25767Y215614D01*
X26144Y216524D01*
X26272Y217500D01*
X26144Y218476D01*
X25767Y219386D01*
X25168Y220167D01*
X24386Y220767D01*
X23476Y221144D01*
X22500Y221272D01*
D02*
G37*
G36*
X108500Y216000D02*
X105645D01*
X105649Y215968D01*
X106047Y215007D01*
X106681Y214181D01*
X107507Y213547D01*
X108468Y213149D01*
X108500Y213145D01*
Y216000D01*
D02*
G37*
G36*
X113355D02*
X110500D01*
Y213145D01*
X110532Y213149D01*
X111493Y213547D01*
X112319Y214181D01*
X112953Y215007D01*
X113351Y215968D01*
X113355Y216000D01*
D02*
G37*
G36*
X-32394Y214312D02*
X-33047Y214182D01*
X-33600Y213813D01*
X-33970Y213259D01*
X-34083Y212689D01*
X-34653Y212576D01*
X-35206Y212206D01*
X-35576Y211653D01*
X-35706Y211000D01*
X-35576Y210347D01*
X-35206Y209794D01*
X-34653Y209424D01*
X-34000Y209294D01*
X-33347Y209424D01*
X-32794Y209794D01*
X-32424Y210347D01*
X-32311Y210917D01*
X-31741Y211030D01*
X-31187Y211400D01*
X-30817Y211953D01*
X-30688Y212606D01*
X-30817Y213259D01*
X-31187Y213813D01*
X-31741Y214182D01*
X-32394Y214312D01*
D02*
G37*
G36*
X37500Y211772D02*
X36524Y211644D01*
X35614Y211267D01*
X34833Y210667D01*
X34233Y209886D01*
X33856Y208976D01*
X33728Y208000D01*
X33856Y207024D01*
X34233Y206114D01*
X34833Y205332D01*
X35614Y204733D01*
X36524Y204356D01*
X37500Y204228D01*
X38476Y204356D01*
X39386Y204733D01*
X40167Y205332D01*
X40767Y206114D01*
X41144Y207024D01*
X41272Y208000D01*
X41144Y208976D01*
X40767Y209886D01*
X40167Y210667D01*
X39386Y211267D01*
X38476Y211644D01*
X37500Y211772D01*
D02*
G37*
G36*
X71300Y207513D02*
X70647Y207384D01*
X70094Y207014D01*
X69724Y206460D01*
X69594Y205807D01*
X69724Y205155D01*
X70094Y204601D01*
X70647Y204231D01*
X71300Y204101D01*
X71953Y204231D01*
X72506Y204601D01*
X72876Y205155D01*
X73006Y205807D01*
X72876Y206460D01*
X72506Y207014D01*
X71953Y207384D01*
X71300Y207513D01*
D02*
G37*
G36*
X26240Y210240D02*
X18760D01*
Y202760D01*
X26240D01*
Y210240D01*
D02*
G37*
G36*
X-27912Y202601D02*
X-28565Y202471D01*
X-29118Y202102D01*
X-29455Y201598D01*
X-30000Y201706D01*
X-30653Y201576D01*
X-31206Y201206D01*
X-31576Y200653D01*
X-31706Y200000D01*
X-31576Y199347D01*
X-31206Y198794D01*
X-30653Y198424D01*
X-30000Y198294D01*
X-29347Y198424D01*
X-28794Y198794D01*
X-28457Y199298D01*
X-27912Y199189D01*
X-27259Y199319D01*
X-26706Y199689D01*
X-26336Y200242D01*
X-26206Y200895D01*
X-26336Y201548D01*
X-26706Y202102D01*
X-27259Y202471D01*
X-27912Y202601D01*
D02*
G37*
G36*
X41240Y200740D02*
X33760D01*
Y193260D01*
X41240D01*
Y200740D01*
D02*
G37*
G36*
X22500Y200272D02*
X21524Y200144D01*
X20614Y199767D01*
X19832Y199168D01*
X19233Y198386D01*
X18856Y197476D01*
X18728Y196500D01*
X18856Y195524D01*
X19233Y194614D01*
X19832Y193833D01*
X20614Y193233D01*
X21524Y192856D01*
X22500Y192728D01*
X23476Y192856D01*
X24386Y193233D01*
X25168Y193833D01*
X25767Y194614D01*
X26144Y195524D01*
X26272Y196500D01*
X26144Y197476D01*
X25767Y198386D01*
X25168Y199168D01*
X24386Y199767D01*
X23476Y200144D01*
X22500Y200272D01*
D02*
G37*
G36*
X-22500Y197206D02*
X-23153Y197076D01*
X-23706Y196706D01*
X-24076Y196153D01*
X-24190Y195583D01*
X-24759Y195470D01*
X-25313Y195100D01*
X-25683Y194547D01*
X-25812Y193894D01*
X-25683Y193241D01*
X-25313Y192687D01*
X-24759Y192318D01*
X-24106Y192188D01*
X-23453Y192318D01*
X-22900Y192687D01*
X-22530Y193241D01*
X-22417Y193810D01*
X-21847Y193924D01*
X-21294Y194294D01*
X-20924Y194847D01*
X-20794Y195500D01*
X-20924Y196153D01*
X-21294Y196706D01*
X-21847Y197076D01*
X-22500Y197206D01*
D02*
G37*
G36*
X37500Y190772D02*
X36524Y190644D01*
X35614Y190267D01*
X34833Y189667D01*
X34233Y188886D01*
X33856Y187976D01*
X33728Y187000D01*
X33856Y186024D01*
X34233Y185114D01*
X34833Y184333D01*
X35614Y183733D01*
X36524Y183356D01*
X37500Y183228D01*
X38476Y183356D01*
X39386Y183733D01*
X40167Y184333D01*
X40767Y185114D01*
X41144Y186024D01*
X41272Y187000D01*
X41144Y187976D01*
X40767Y188886D01*
X40167Y189667D01*
X39386Y190267D01*
X38476Y190644D01*
X37500Y190772D01*
D02*
G37*
G36*
X26240Y189240D02*
X18760D01*
Y181760D01*
X26240D01*
Y189240D01*
D02*
G37*
G36*
X-37000Y178257D02*
X-37768Y178104D01*
X-38419Y177669D01*
X-38854Y177018D01*
X-39007Y176250D01*
X-38854Y175482D01*
X-38419Y174831D01*
X-37768Y174396D01*
X-37000Y174243D01*
X-36232Y174396D01*
X-35581Y174831D01*
X-35146Y175482D01*
X-34993Y176250D01*
X-35146Y177018D01*
X-35581Y177669D01*
X-36232Y178104D01*
X-37000Y178257D01*
D02*
G37*
G36*
X41240Y179740D02*
X33760D01*
Y172260D01*
X41240D01*
Y179740D01*
D02*
G37*
G36*
X22500Y179272D02*
X21524Y179144D01*
X20614Y178767D01*
X19832Y178167D01*
X19233Y177386D01*
X18856Y176476D01*
X18728Y175500D01*
X18856Y174524D01*
X19233Y173614D01*
X19832Y172833D01*
X20614Y172233D01*
X21524Y171856D01*
X22500Y171728D01*
X23476Y171856D01*
X24386Y172233D01*
X25168Y172833D01*
X25767Y173614D01*
X26144Y174524D01*
X26272Y175500D01*
X26144Y176476D01*
X25767Y177386D01*
X25168Y178167D01*
X24386Y178767D01*
X23476Y179144D01*
X22500Y179272D01*
D02*
G37*
G36*
X78240Y173740D02*
X70760D01*
Y166260D01*
X78240D01*
Y173740D01*
D02*
G37*
G36*
X84500Y173772D02*
X83524Y173644D01*
X82614Y173267D01*
X81832Y172668D01*
X81233Y171886D01*
X80856Y170976D01*
X80728Y170000D01*
X80856Y169024D01*
X81233Y168114D01*
X81832Y167332D01*
X82614Y166733D01*
X83524Y166356D01*
X84500Y166228D01*
X85476Y166356D01*
X86386Y166733D01*
X87168Y167332D01*
X87767Y168114D01*
X88144Y169024D01*
X88272Y170000D01*
X88144Y170976D01*
X87767Y171886D01*
X87168Y172668D01*
X86386Y173267D01*
X85476Y173644D01*
X84500Y173772D01*
D02*
G37*
G36*
X-39000Y169007D02*
X-39768Y168854D01*
X-40419Y168419D01*
X-40854Y167768D01*
X-41007Y167000D01*
X-40854Y166232D01*
X-40419Y165581D01*
X-39768Y165146D01*
X-39000Y164993D01*
X-38232Y165146D01*
X-37581Y165581D01*
X-37146Y166232D01*
X-36993Y167000D01*
X-37146Y167768D01*
X-37581Y168419D01*
X-38232Y168854D01*
X-39000Y169007D01*
D02*
G37*
G36*
X37500Y169772D02*
X36524Y169644D01*
X35614Y169267D01*
X34833Y168667D01*
X34233Y167886D01*
X33856Y166976D01*
X33728Y166000D01*
X33856Y165024D01*
X34233Y164114D01*
X34833Y163332D01*
X35614Y162733D01*
X36524Y162356D01*
X37500Y162228D01*
X38476Y162356D01*
X39386Y162733D01*
X40167Y163332D01*
X40767Y164114D01*
X41144Y165024D01*
X41272Y166000D01*
X41144Y166976D01*
X40767Y167886D01*
X40167Y168667D01*
X39386Y169267D01*
X38476Y169644D01*
X37500Y169772D01*
D02*
G37*
G36*
X51000Y164337D02*
X49489Y164138D01*
X48081Y163555D01*
X46872Y162628D01*
X45945Y161419D01*
X45362Y160011D01*
X45163Y158500D01*
X45362Y156989D01*
X45945Y155581D01*
X46872Y154372D01*
X48081Y153445D01*
X49489Y152862D01*
X51000Y152663D01*
X52511Y152862D01*
X53919Y153445D01*
X55128Y154372D01*
X56055Y155581D01*
X56638Y156989D01*
X56837Y158500D01*
X56638Y160011D01*
X56055Y161419D01*
X55128Y162628D01*
X53919Y163555D01*
X52511Y164138D01*
X51000Y164337D01*
D02*
G37*
G36*
X19000Y154930D02*
Y150000D01*
X23931D01*
X23913Y150176D01*
X23570Y151307D01*
X23013Y152349D01*
X22263Y153263D01*
X21350Y154013D01*
X20307Y154570D01*
X19176Y154913D01*
X19000Y154930D01*
D02*
G37*
G36*
X17000D02*
X16824Y154913D01*
X15693Y154570D01*
X14650Y154013D01*
X13737Y153263D01*
X12987Y152349D01*
X12430Y151307D01*
X12087Y150176D01*
X12070Y150000D01*
X17000D01*
Y154930D01*
D02*
G37*
G36*
X23931Y148000D02*
X19000D01*
Y143070D01*
X19176Y143087D01*
X20307Y143430D01*
X21350Y143987D01*
X22263Y144737D01*
X23013Y145650D01*
X23570Y146693D01*
X23913Y147824D01*
X23931Y148000D01*
D02*
G37*
G36*
X17000D02*
X12070D01*
X12087Y147824D01*
X12430Y146693D01*
X12987Y145650D01*
X13737Y144737D01*
X14650Y143987D01*
X15693Y143430D01*
X16824Y143087D01*
X17000Y143070D01*
Y148000D01*
D02*
G37*
G36*
X65500Y145837D02*
X63989Y145638D01*
X62581Y145055D01*
X61372Y144128D01*
X60445Y142919D01*
X59862Y141511D01*
X59663Y140000D01*
X59862Y138489D01*
X60445Y137081D01*
X61372Y135872D01*
X62581Y134945D01*
X63989Y134362D01*
X65500Y134163D01*
X67011Y134362D01*
X68419Y134945D01*
X69628Y135872D01*
X70555Y137081D01*
X71138Y138489D01*
X71337Y140000D01*
X71138Y141511D01*
X70555Y142919D01*
X69628Y144128D01*
X68419Y145055D01*
X67011Y145638D01*
X65500Y145837D01*
D02*
G37*
G36*
X-1000Y134507D02*
X-1768Y134354D01*
X-2419Y133919D01*
X-2854Y133268D01*
X-3007Y132500D01*
X-2854Y131732D01*
X-2419Y131081D01*
X-1768Y130646D01*
X-1000Y130493D01*
X-232Y130646D01*
X419Y131081D01*
X854Y131732D01*
X1007Y132500D01*
X854Y133268D01*
X419Y133919D01*
X-232Y134354D01*
X-1000Y134507D01*
D02*
G37*
G36*
X128000Y140837D02*
X126489Y140638D01*
X125081Y140055D01*
X123872Y139128D01*
X122945Y137919D01*
X122362Y136511D01*
X122163Y135000D01*
X122362Y133489D01*
X122945Y132081D01*
X123872Y130872D01*
X125081Y129945D01*
X126489Y129362D01*
X128000Y129163D01*
X129511Y129362D01*
X130919Y129945D01*
X132128Y130872D01*
X133055Y132081D01*
X133638Y133489D01*
X133837Y135000D01*
X133638Y136511D01*
X133055Y137919D01*
X132128Y139128D01*
X130919Y140055D01*
X129511Y140638D01*
X128000Y140837D01*
D02*
G37*
G36*
X-30500Y131007D02*
X-31268Y130854D01*
X-31919Y130419D01*
X-32354Y129768D01*
X-32507Y129000D01*
X-32354Y128232D01*
X-31919Y127581D01*
X-31268Y127146D01*
X-30500Y126993D01*
X-29732Y127146D01*
X-29081Y127581D01*
X-28646Y128232D01*
X-28493Y129000D01*
X-28646Y129768D01*
X-29081Y130419D01*
X-29732Y130854D01*
X-30500Y131007D01*
D02*
G37*
G36*
X-12000Y130507D02*
X-12768Y130354D01*
X-13419Y129919D01*
X-13854Y129268D01*
X-14007Y128500D01*
X-13854Y127732D01*
X-13419Y127081D01*
X-12768Y126646D01*
X-12000Y126493D01*
X-11232Y126646D01*
X-10581Y127081D01*
X-10146Y127732D01*
X-9993Y128500D01*
X-10146Y129268D01*
X-10581Y129919D01*
X-11232Y130354D01*
X-12000Y130507D01*
D02*
G37*
G36*
X80000Y126507D02*
X79232Y126354D01*
X78581Y125919D01*
X78146Y125268D01*
X77993Y124500D01*
X78146Y123732D01*
X78581Y123081D01*
X79232Y122646D01*
X80000Y122493D01*
X80768Y122646D01*
X81419Y123081D01*
X81854Y123732D01*
X82007Y124500D01*
X81854Y125268D01*
X81419Y125919D01*
X80768Y126354D01*
X80000Y126507D01*
D02*
G37*
G36*
X117000Y120206D02*
X116347Y120076D01*
X115794Y119706D01*
X115424Y119153D01*
X115294Y118500D01*
X115424Y117847D01*
X115794Y117294D01*
X116347Y116924D01*
X117000Y116794D01*
X117653Y116924D01*
X118206Y117294D01*
X118576Y117847D01*
X118706Y118500D01*
X118576Y119153D01*
X118206Y119706D01*
X117653Y120076D01*
X117000Y120206D01*
D02*
G37*
G36*
X105500D02*
X104847Y120076D01*
X104294Y119706D01*
X103924Y119153D01*
X103794Y118500D01*
X103924Y117847D01*
X104294Y117294D01*
X104847Y116924D01*
X105500Y116794D01*
X106153Y116924D01*
X106706Y117294D01*
X107076Y117847D01*
X107206Y118500D01*
X107076Y119153D01*
X106706Y119706D01*
X106153Y120076D01*
X105500Y120206D01*
D02*
G37*
G36*
X146000Y123837D02*
X144489Y123638D01*
X143081Y123055D01*
X141872Y122128D01*
X140945Y120919D01*
X140362Y119511D01*
X140163Y118000D01*
X140362Y116489D01*
X140945Y115081D01*
X141872Y113872D01*
X143081Y112945D01*
X144489Y112362D01*
X146000Y112163D01*
X147511Y112362D01*
X148919Y112945D01*
X150128Y113872D01*
X151055Y115081D01*
X151638Y116489D01*
X151837Y118000D01*
X151638Y119511D01*
X151055Y120919D01*
X150128Y122128D01*
X148919Y123055D01*
X147511Y123638D01*
X146000Y123837D01*
D02*
G37*
G36*
X40500Y112007D02*
X39732Y111854D01*
X39081Y111419D01*
X38646Y110768D01*
X38493Y110000D01*
X38646Y109232D01*
X39081Y108581D01*
X39732Y108146D01*
X40500Y107993D01*
X41268Y108146D01*
X41919Y108581D01*
X42354Y109232D01*
X42507Y110000D01*
X42354Y110768D01*
X41919Y111419D01*
X41268Y111854D01*
X40500Y112007D01*
D02*
G37*
G36*
X86500Y104007D02*
X85732Y103854D01*
X85081Y103419D01*
X84646Y102768D01*
X84493Y102000D01*
X84620Y101360D01*
X84329Y100874D01*
X84232Y100854D01*
X83581Y100419D01*
X83146Y99768D01*
X82993Y99000D01*
X83146Y98232D01*
X83581Y97581D01*
X84232Y97146D01*
X85000Y96993D01*
X85768Y97146D01*
X86419Y97581D01*
X86854Y98232D01*
X87007Y99000D01*
X86895Y99562D01*
X87170Y100126D01*
X87268Y100146D01*
X87919Y100581D01*
X88354Y101232D01*
X88507Y102000D01*
X88354Y102768D01*
X87919Y103419D01*
X87268Y103854D01*
X86500Y104007D01*
D02*
G37*
G36*
X66420Y100723D02*
X65652Y100570D01*
X65001Y100135D01*
X64566Y99484D01*
X64413Y98716D01*
X64566Y97948D01*
X65001Y97296D01*
X65652Y96861D01*
X66420Y96709D01*
X67188Y96861D01*
X67839Y97296D01*
X68274Y97948D01*
X68427Y98716D01*
X68274Y99484D01*
X67839Y100135D01*
X67188Y100570D01*
X66420Y100723D01*
D02*
G37*
G36*
X83500Y91007D02*
X82732Y90854D01*
X82081Y90419D01*
X81646Y89768D01*
X81493Y89000D01*
X81646Y88232D01*
X82081Y87581D01*
X82732Y87146D01*
X83500Y86993D01*
X84268Y87146D01*
X84919Y87581D01*
X85354Y88232D01*
X85507Y89000D01*
X85354Y89768D01*
X84919Y90419D01*
X84268Y90854D01*
X83500Y91007D01*
D02*
G37*
G36*
X87500Y88507D02*
X86732Y88354D01*
X86081Y87919D01*
X85646Y87268D01*
X85493Y86500D01*
X85646Y85732D01*
X86081Y85081D01*
X86732Y84646D01*
X87500Y84493D01*
X88268Y84646D01*
X88919Y85081D01*
X89354Y85732D01*
X89507Y86500D01*
X89354Y87268D01*
X88919Y87919D01*
X88268Y88354D01*
X87500Y88507D01*
D02*
G37*
G36*
X511500Y87848D02*
X511211Y87810D01*
X510010Y87313D01*
X508979Y86521D01*
X508187Y85490D01*
X507690Y84289D01*
X507224Y84406D01*
Y87724D01*
X497776D01*
Y78276D01*
X507224D01*
Y81594D01*
X507690Y81711D01*
X508187Y80510D01*
X508979Y79479D01*
X510010Y78688D01*
X511211Y78190D01*
X511554Y78145D01*
Y77641D01*
X511267Y77603D01*
X510117Y77127D01*
X509130Y76370D01*
X508373Y75383D01*
X507897Y74233D01*
X507782Y73356D01*
X507752Y73132D01*
X507248D01*
X507218Y73356D01*
X507103Y74233D01*
X506627Y75383D01*
X505869Y76370D01*
X504883Y77127D01*
X503733Y77603D01*
X502500Y77765D01*
X501267Y77603D01*
X500117Y77127D01*
X499130Y76370D01*
X498373Y75383D01*
X497897Y74233D01*
X497735Y73000D01*
X497897Y71767D01*
X498373Y70617D01*
X499130Y69630D01*
X500117Y68873D01*
X501267Y68397D01*
X502144Y68282D01*
X502368Y68252D01*
Y67748D01*
X502144Y67718D01*
X501267Y67603D01*
X500117Y67127D01*
X499130Y66369D01*
X498373Y65383D01*
X497897Y64233D01*
X497735Y63000D01*
X497897Y61767D01*
X498373Y60617D01*
X499130Y59631D01*
X500117Y58873D01*
X501267Y58397D01*
X502144Y58282D01*
X502368Y58252D01*
Y57748D01*
X502144Y57718D01*
X501267Y57603D01*
X500117Y57127D01*
X499130Y56370D01*
X498373Y55383D01*
X497897Y54233D01*
X497735Y53000D01*
X497897Y51767D01*
X498373Y50617D01*
X499130Y49630D01*
X500117Y48873D01*
X501267Y48397D01*
X502144Y48282D01*
X502368Y48252D01*
Y47748D01*
X502144Y47718D01*
X501267Y47603D01*
X500117Y47127D01*
X499130Y46369D01*
X498373Y45383D01*
X497897Y44233D01*
X497735Y43000D01*
X497897Y41767D01*
X498373Y40617D01*
X499130Y39630D01*
X500117Y38873D01*
X501267Y38397D01*
X502500Y38235D01*
X503733Y38397D01*
X504883Y38873D01*
X505869Y39630D01*
X506627Y40617D01*
X507103Y41767D01*
X507141Y42054D01*
X507645D01*
X507690Y41711D01*
X508187Y40510D01*
X508979Y39479D01*
X510010Y38688D01*
X511211Y38190D01*
X511500Y38152D01*
Y43000D01*
X512500D01*
Y44000D01*
X517348D01*
X517310Y44289D01*
X516813Y45490D01*
X516021Y46521D01*
X514990Y47313D01*
X513789Y47810D01*
X513446Y47855D01*
Y48359D01*
X513733Y48397D01*
X514883Y48873D01*
X515870Y49630D01*
X516627Y50617D01*
X517103Y51767D01*
X517265Y53000D01*
X517103Y54233D01*
X516627Y55383D01*
X515870Y56370D01*
X514883Y57127D01*
X513733Y57603D01*
X512856Y57718D01*
X512632Y57748D01*
Y58252D01*
X512856Y58282D01*
X513733Y58397D01*
X514883Y58873D01*
X515870Y59631D01*
X516627Y60617D01*
X517103Y61767D01*
X517265Y63000D01*
X517103Y64233D01*
X516627Y65383D01*
X515870Y66369D01*
X514883Y67127D01*
X513733Y67603D01*
X512856Y67718D01*
X512632Y67748D01*
Y68252D01*
X512856Y68282D01*
X513733Y68397D01*
X514883Y68873D01*
X515870Y69630D01*
X516627Y70617D01*
X517103Y71767D01*
X517265Y73000D01*
X517103Y74233D01*
X516627Y75383D01*
X515870Y76370D01*
X514883Y77127D01*
X513733Y77603D01*
X513446Y77641D01*
Y78145D01*
X513789Y78190D01*
X514990Y78688D01*
X516021Y79479D01*
X516813Y80510D01*
X517310Y81711D01*
X517348Y82000D01*
X512500D01*
Y83000D01*
X511500D01*
Y87848D01*
D02*
G37*
G36*
X513500Y87848D02*
Y84000D01*
X517348D01*
X517310Y84289D01*
X516813Y85490D01*
X516021Y86521D01*
X514990Y87313D01*
X513789Y87810D01*
X513500Y87848D01*
D02*
G37*
G36*
X83500Y85507D02*
X82732Y85354D01*
X82081Y84919D01*
X81646Y84268D01*
X81493Y83500D01*
X81646Y82732D01*
X82081Y82081D01*
X82732Y81646D01*
X83500Y81493D01*
X84268Y81646D01*
X84919Y82081D01*
X85354Y82732D01*
X85507Y83500D01*
X85354Y84268D01*
X84919Y84919D01*
X84268Y85354D01*
X83500Y85507D01*
D02*
G37*
G36*
X147869Y90007D02*
X147101Y89854D01*
X146449Y89419D01*
X146014Y88768D01*
X145862Y88000D01*
X146014Y87232D01*
X146449Y86581D01*
X147101Y86146D01*
X147869Y85993D01*
X148637Y86146D01*
X148863Y86297D01*
X149313Y85996D01*
X149294Y85901D01*
X149424Y85248D01*
X149747Y84765D01*
X149424Y84282D01*
X149294Y83629D01*
X149424Y82976D01*
X149747Y82493D01*
X149424Y82010D01*
X149363Y81703D01*
X149294Y81630D01*
X148820Y81373D01*
X148248Y81486D01*
X147480Y81334D01*
X146829Y80899D01*
X146394Y80247D01*
X146241Y79479D01*
X146394Y78711D01*
X146829Y78060D01*
X147480Y77625D01*
X148248Y77472D01*
X149016Y77625D01*
X149667Y78060D01*
X150102Y78711D01*
X150226Y79334D01*
X150267Y79485D01*
X150720Y79707D01*
X151000Y79651D01*
X151653Y79781D01*
X152206Y80151D01*
X152576Y80704D01*
X152706Y81357D01*
X152576Y82010D01*
X152253Y82493D01*
X152576Y82976D01*
X152706Y83629D01*
X152576Y84282D01*
X152253Y84765D01*
X152576Y85248D01*
X152706Y85901D01*
X152576Y86554D01*
X152206Y87107D01*
X151653Y87477D01*
X151000Y87607D01*
X150347Y87477D01*
X150271Y87426D01*
X149821Y87727D01*
X149876Y88000D01*
X149723Y88768D01*
X149288Y89419D01*
X148637Y89854D01*
X147869Y90007D01*
D02*
G37*
G36*
X87500Y82840D02*
X86732Y82688D01*
X86081Y82253D01*
X85646Y81601D01*
X85493Y80833D01*
X85646Y80065D01*
X86081Y79414D01*
X86732Y78979D01*
X87500Y78826D01*
X88268Y78979D01*
X88919Y79414D01*
X89354Y80065D01*
X89507Y80833D01*
X89354Y81601D01*
X88919Y82253D01*
X88268Y82688D01*
X87500Y82840D01*
D02*
G37*
G36*
X131500Y80206D02*
X130847Y80076D01*
X130294Y79706D01*
X129924Y79153D01*
X129794Y78500D01*
X129924Y77847D01*
X130294Y77294D01*
X130847Y76924D01*
X131500Y76794D01*
X132153Y76924D01*
X132706Y77294D01*
X133076Y77847D01*
X133206Y78500D01*
X133076Y79153D01*
X132706Y79706D01*
X132153Y80076D01*
X131500Y80206D01*
D02*
G37*
G36*
X83500Y80007D02*
X82732Y79854D01*
X82081Y79419D01*
X81646Y78768D01*
X81493Y78000D01*
X81646Y77232D01*
X82081Y76581D01*
X82732Y76146D01*
X83500Y75993D01*
X84268Y76146D01*
X84919Y76581D01*
X85354Y77232D01*
X85507Y78000D01*
X85354Y78768D01*
X84919Y79419D01*
X84268Y79854D01*
X83500Y80007D01*
D02*
G37*
G36*
X87500Y77174D02*
X86732Y77021D01*
X86081Y76586D01*
X85646Y75935D01*
X85493Y75167D01*
X85646Y74399D01*
X86081Y73747D01*
X86732Y73312D01*
X87500Y73160D01*
X88268Y73312D01*
X88919Y73747D01*
X89354Y74399D01*
X89507Y75167D01*
X89354Y75935D01*
X88919Y76586D01*
X88268Y77021D01*
X87500Y77174D01*
D02*
G37*
G36*
X67000Y77007D02*
X66232Y76854D01*
X65581Y76419D01*
X65146Y75768D01*
X64993Y75000D01*
X65146Y74232D01*
X65581Y73581D01*
X66232Y73146D01*
X67000Y72993D01*
X67768Y73146D01*
X68419Y73581D01*
X68854Y74232D01*
X69007Y75000D01*
X68854Y75768D01*
X68419Y76419D01*
X67768Y76854D01*
X67000Y77007D01*
D02*
G37*
G36*
X83500Y74507D02*
X82732Y74354D01*
X82081Y73919D01*
X81646Y73268D01*
X81493Y72500D01*
X81646Y71732D01*
X82081Y71081D01*
X82732Y70646D01*
X83500Y70493D01*
X84268Y70646D01*
X84919Y71081D01*
X85354Y71732D01*
X85507Y72500D01*
X85354Y73268D01*
X84919Y73919D01*
X84268Y74354D01*
X83500Y74507D01*
D02*
G37*
G36*
X87500Y71507D02*
X86732Y71354D01*
X86081Y70919D01*
X85646Y70268D01*
X85493Y69500D01*
X85646Y68732D01*
X86081Y68081D01*
X86732Y67646D01*
X87500Y67493D01*
X88268Y67646D01*
X88919Y68081D01*
X89354Y68732D01*
X89507Y69500D01*
X89354Y70268D01*
X88919Y70919D01*
X88268Y71354D01*
X87500Y71507D01*
D02*
G37*
G36*
X66500Y71007D02*
X65732Y70854D01*
X65081Y70419D01*
X64646Y69768D01*
X64493Y69000D01*
X64646Y68232D01*
X65081Y67581D01*
X65732Y67146D01*
X66500Y66993D01*
X67268Y67146D01*
X67919Y67581D01*
X68354Y68232D01*
X68507Y69000D01*
X68354Y69768D01*
X67919Y70419D01*
X67268Y70854D01*
X66500Y71007D01*
D02*
G37*
G36*
X148244Y64188D02*
X147476Y64035D01*
X146825Y63600D01*
X146390Y62949D01*
X146237Y62181D01*
X146390Y61413D01*
X146825Y60762D01*
X147476Y60327D01*
X148244Y60174D01*
X149012Y60327D01*
X149663Y60762D01*
X150098Y61413D01*
X150251Y62181D01*
X150098Y62949D01*
X149663Y63600D01*
X149012Y64035D01*
X148244Y64188D01*
D02*
G37*
G36*
X36000Y70337D02*
X34489Y70138D01*
X33081Y69555D01*
X31872Y68628D01*
X30945Y67419D01*
X30362Y66011D01*
X30163Y64500D01*
X30362Y62989D01*
X30945Y61581D01*
X31872Y60372D01*
X33081Y59445D01*
X34489Y58862D01*
X36000Y58663D01*
X37511Y58862D01*
X38919Y59445D01*
X40128Y60372D01*
X41055Y61581D01*
X41638Y62989D01*
X41837Y64500D01*
X41638Y66011D01*
X41055Y67419D01*
X40128Y68628D01*
X38919Y69555D01*
X37511Y70138D01*
X36000Y70337D01*
D02*
G37*
G36*
X493165Y61818D02*
X492512Y61688D01*
X491958Y61318D01*
X491588Y60764D01*
X491459Y60112D01*
X491588Y59459D01*
X491958Y58905D01*
X492512Y58535D01*
X493165Y58406D01*
X493818Y58535D01*
X494371Y58905D01*
X494741Y59459D01*
X494871Y60112D01*
X494741Y60764D01*
X494371Y61318D01*
X493818Y61688D01*
X493165Y61818D01*
D02*
G37*
G36*
X517348Y42000D02*
X513500D01*
Y38152D01*
X513789Y38190D01*
X514990Y38688D01*
X516021Y39479D01*
X516813Y40510D01*
X517310Y41711D01*
X517348Y42000D01*
D02*
G37*
G36*
X493500Y41206D02*
X492847Y41076D01*
X492294Y40706D01*
X491924Y40153D01*
X491794Y39500D01*
X491924Y38847D01*
X492294Y38294D01*
X492847Y37924D01*
X493500Y37794D01*
X494153Y37924D01*
X494706Y38294D01*
X495076Y38847D01*
X495206Y39500D01*
X495076Y40153D01*
X494706Y40706D01*
X494153Y41076D01*
X493500Y41206D01*
D02*
G37*
G36*
X110500Y39706D02*
X109847Y39576D01*
X109294Y39206D01*
X108924Y38653D01*
X108794Y38000D01*
X108924Y37347D01*
X109294Y36794D01*
X109847Y36424D01*
X110500Y36294D01*
X111153Y36424D01*
X111706Y36794D01*
X112076Y37347D01*
X112206Y38000D01*
X112076Y38653D01*
X111706Y39206D01*
X111153Y39576D01*
X110500Y39706D01*
D02*
G37*
G36*
X77500Y39507D02*
X76732Y39354D01*
X76081Y38919D01*
X75646Y38268D01*
X75493Y37500D01*
X75646Y36732D01*
X76081Y36081D01*
X76732Y35646D01*
X77500Y35493D01*
X78268Y35646D01*
X78919Y36081D01*
X79354Y36732D01*
X79507Y37500D01*
X79354Y38268D01*
X78919Y38919D01*
X78268Y39354D01*
X77500Y39507D01*
D02*
G37*
G36*
X70000D02*
X69232Y39354D01*
X68581Y38919D01*
X68146Y38268D01*
X67993Y37500D01*
X68146Y36732D01*
X68581Y36081D01*
X69232Y35646D01*
X70000Y35493D01*
X70768Y35646D01*
X71419Y36081D01*
X71854Y36732D01*
X72007Y37500D01*
X71854Y38268D01*
X71419Y38919D01*
X70768Y39354D01*
X70000Y39507D01*
D02*
G37*
G36*
X337500Y38206D02*
X336847Y38076D01*
X336294Y37706D01*
X335924Y37153D01*
X335794Y36500D01*
X335924Y35847D01*
X336294Y35294D01*
X336847Y34924D01*
X337500Y34794D01*
X338153Y34924D01*
X338706Y35294D01*
X339076Y35847D01*
X339206Y36500D01*
X339076Y37153D01*
X338706Y37706D01*
X338153Y38076D01*
X337500Y38206D01*
D02*
G37*
G36*
X314500D02*
X313847Y38076D01*
X313294Y37706D01*
X312924Y37153D01*
X312794Y36500D01*
X312924Y35847D01*
X313294Y35294D01*
X313847Y34924D01*
X314500Y34794D01*
X315153Y34924D01*
X315706Y35294D01*
X316076Y35847D01*
X316206Y36500D01*
X316076Y37153D01*
X315706Y37706D01*
X315153Y38076D01*
X314500Y38206D01*
D02*
G37*
G36*
X269500D02*
X268847Y38076D01*
X268294Y37706D01*
X267924Y37153D01*
X267794Y36500D01*
X267924Y35847D01*
X268294Y35294D01*
X268847Y34924D01*
X269500Y34794D01*
X270153Y34924D01*
X270706Y35294D01*
X271076Y35847D01*
X271206Y36500D01*
X271076Y37153D01*
X270706Y37706D01*
X270153Y38076D01*
X269500Y38206D01*
D02*
G37*
G36*
X248500D02*
X247847Y38076D01*
X247294Y37706D01*
X246924Y37153D01*
X246794Y36500D01*
X246924Y35847D01*
X247294Y35294D01*
X247847Y34924D01*
X248500Y34794D01*
X249153Y34924D01*
X249706Y35294D01*
X250076Y35847D01*
X250206Y36500D01*
X250076Y37153D01*
X249706Y37706D01*
X249153Y38076D01*
X248500Y38206D01*
D02*
G37*
G36*
X405500Y38507D02*
X404732Y38354D01*
X404081Y37919D01*
X403646Y37268D01*
X403493Y36500D01*
X403646Y35732D01*
X404081Y35081D01*
X404732Y34646D01*
X405500Y34493D01*
X406268Y34646D01*
X406919Y35081D01*
X407354Y35732D01*
X407507Y36500D01*
X407354Y37268D01*
X406919Y37919D01*
X406268Y38354D01*
X405500Y38507D01*
D02*
G37*
G36*
X383000D02*
X382232Y38354D01*
X381581Y37919D01*
X381146Y37268D01*
X380993Y36500D01*
X381146Y35732D01*
X381581Y35081D01*
X382232Y34646D01*
X383000Y34493D01*
X383768Y34646D01*
X384419Y35081D01*
X384854Y35732D01*
X385007Y36500D01*
X384854Y37268D01*
X384419Y37919D01*
X383768Y38354D01*
X383000Y38507D01*
D02*
G37*
G36*
X360000D02*
X359232Y38354D01*
X358581Y37919D01*
X358146Y37268D01*
X357993Y36500D01*
X358146Y35732D01*
X358581Y35081D01*
X359232Y34646D01*
X360000Y34493D01*
X360768Y34646D01*
X361419Y35081D01*
X361854Y35732D01*
X362007Y36500D01*
X361854Y37268D01*
X361419Y37919D01*
X360768Y38354D01*
X360000Y38507D01*
D02*
G37*
G36*
X292000D02*
X291232Y38354D01*
X290581Y37919D01*
X290146Y37268D01*
X289993Y36500D01*
X290146Y35732D01*
X290581Y35081D01*
X291232Y34646D01*
X292000Y34493D01*
X292768Y34646D01*
X293419Y35081D01*
X293854Y35732D01*
X294007Y36500D01*
X293854Y37268D01*
X293419Y37919D01*
X292768Y38354D01*
X292000Y38507D01*
D02*
G37*
G36*
X96000Y38007D02*
X95232Y37854D01*
X94581Y37419D01*
X94146Y36768D01*
X93993Y36000D01*
X94146Y35232D01*
X94581Y34581D01*
X95232Y34146D01*
X96000Y33993D01*
X96768Y34146D01*
X97419Y34581D01*
X97854Y35232D01*
X98007Y36000D01*
X97854Y36768D01*
X97419Y37419D01*
X96768Y37854D01*
X96000Y38007D01*
D02*
G37*
G36*
X123000Y37507D02*
X122232Y37354D01*
X121581Y36919D01*
X121146Y36268D01*
X120993Y35500D01*
X121146Y34732D01*
X121581Y34081D01*
X122232Y33646D01*
X123000Y33493D01*
X123768Y33646D01*
X124419Y34081D01*
X124854Y34732D01*
X125007Y35500D01*
X124854Y36268D01*
X124419Y36919D01*
X123768Y37354D01*
X123000Y37507D01*
D02*
G37*
G36*
X40000Y37007D02*
X39232Y36854D01*
X38581Y36419D01*
X38146Y35768D01*
X37993Y35000D01*
X38146Y34232D01*
X38581Y33581D01*
X39232Y33146D01*
X40000Y32993D01*
X40768Y33146D01*
X41419Y33581D01*
X41854Y34232D01*
X42007Y35000D01*
X41854Y35768D01*
X41419Y36419D01*
X40768Y36854D01*
X40000Y37007D01*
D02*
G37*
G36*
X393400Y36307D02*
X392632Y36154D01*
X391981Y35719D01*
X391546Y35068D01*
X391393Y34300D01*
X391546Y33532D01*
X391981Y32881D01*
X392632Y32446D01*
X393400Y32293D01*
X394168Y32446D01*
X394819Y32881D01*
X395254Y33532D01*
X395407Y34300D01*
X395254Y35068D01*
X394819Y35719D01*
X394168Y36154D01*
X393400Y36307D01*
D02*
G37*
G36*
X348500Y35507D02*
X347732Y35354D01*
X347081Y34919D01*
X346646Y34268D01*
X346493Y33500D01*
X346646Y32732D01*
X347081Y32081D01*
X347732Y31646D01*
X348500Y31493D01*
X349268Y31646D01*
X349919Y32081D01*
X350354Y32732D01*
X350507Y33500D01*
X350354Y34268D01*
X349919Y34919D01*
X349268Y35354D01*
X348500Y35507D01*
D02*
G37*
G36*
X280500Y35407D02*
X279732Y35254D01*
X279081Y34819D01*
X278646Y34168D01*
X278493Y33400D01*
X278646Y32632D01*
X279081Y31981D01*
X279732Y31546D01*
X280500Y31393D01*
X281268Y31546D01*
X281919Y31981D01*
X282354Y32632D01*
X282507Y33400D01*
X282354Y34168D01*
X281919Y34819D01*
X281268Y35254D01*
X280500Y35407D01*
D02*
G37*
G36*
X370400Y35207D02*
X369632Y35054D01*
X368981Y34619D01*
X368546Y33968D01*
X368393Y33200D01*
X368546Y32432D01*
X368981Y31781D01*
X369632Y31346D01*
X370400Y31193D01*
X371168Y31346D01*
X371819Y31781D01*
X372254Y32432D01*
X372407Y33200D01*
X372254Y33968D01*
X371819Y34619D01*
X371168Y35054D01*
X370400Y35207D01*
D02*
G37*
G36*
X325000Y35007D02*
X324232Y34854D01*
X323581Y34419D01*
X323146Y33768D01*
X322993Y33000D01*
X323146Y32232D01*
X323581Y31581D01*
X324232Y31146D01*
X325000Y30993D01*
X325768Y31146D01*
X326419Y31581D01*
X326854Y32232D01*
X327007Y33000D01*
X326854Y33768D01*
X326419Y34419D01*
X325768Y34854D01*
X325000Y35007D01*
D02*
G37*
G36*
X73500Y34507D02*
X72732Y34354D01*
X72081Y33919D01*
X71646Y33268D01*
X71493Y32500D01*
X71646Y31732D01*
X72081Y31081D01*
X72732Y30646D01*
X73500Y30493D01*
X74268Y30646D01*
X74919Y31081D01*
X75354Y31732D01*
X75507Y32500D01*
X75354Y33268D01*
X74919Y33919D01*
X74268Y34354D01*
X73500Y34507D01*
D02*
G37*
G36*
X237000Y34407D02*
X236232Y34254D01*
X235581Y33819D01*
X235146Y33168D01*
X234993Y32400D01*
X235146Y31632D01*
X235581Y30981D01*
X236232Y30546D01*
X237000Y30393D01*
X237768Y30546D01*
X238419Y30981D01*
X238854Y31632D01*
X239007Y32400D01*
X238854Y33168D01*
X238419Y33819D01*
X237768Y34254D01*
X237000Y34407D01*
D02*
G37*
G36*
X302000Y34007D02*
X301232Y33854D01*
X300581Y33419D01*
X300146Y32768D01*
X299993Y32000D01*
X300146Y31232D01*
X300581Y30581D01*
X301232Y30146D01*
X302000Y29993D01*
X302768Y30146D01*
X303419Y30581D01*
X303854Y31232D01*
X304007Y32000D01*
X303854Y32768D01*
X303419Y33419D01*
X302768Y33854D01*
X302000Y34007D01*
D02*
G37*
G36*
X258000Y33807D02*
X257232Y33654D01*
X256581Y33219D01*
X256146Y32568D01*
X255993Y31800D01*
X256146Y31032D01*
X256581Y30381D01*
X257232Y29946D01*
X258000Y29793D01*
X258768Y29946D01*
X259419Y30381D01*
X259854Y31032D01*
X260007Y31800D01*
X259854Y32568D01*
X259419Y33219D01*
X258768Y33654D01*
X258000Y33807D01*
D02*
G37*
G36*
X40000Y29507D02*
X39232Y29354D01*
X38581Y28919D01*
X38146Y28268D01*
X37993Y27500D01*
X38146Y26732D01*
X38581Y26081D01*
X39232Y25646D01*
X40000Y25493D01*
X40768Y25646D01*
X41419Y26081D01*
X41854Y26732D01*
X42007Y27500D01*
X41854Y28268D01*
X41419Y28919D01*
X40768Y29354D01*
X40000Y29507D01*
D02*
G37*
G36*
X33500Y22007D02*
X32732Y21854D01*
X32081Y21419D01*
X31646Y20768D01*
X31493Y20000D01*
X31646Y19232D01*
X31680Y19180D01*
X31320Y18820D01*
X31268Y18854D01*
X30500Y19007D01*
X29732Y18854D01*
X29680Y18820D01*
X29320Y19180D01*
X29354Y19232D01*
X29507Y20000D01*
X29354Y20768D01*
X28919Y21419D01*
X28268Y21854D01*
X27500Y22007D01*
X26732Y21854D01*
X26081Y21419D01*
X25646Y20768D01*
X25493Y20000D01*
X25646Y19232D01*
X26081Y18581D01*
X26732Y18146D01*
X27500Y17993D01*
X28268Y18146D01*
X28320Y18180D01*
X28680Y17820D01*
X28646Y17768D01*
X28493Y17000D01*
X28646Y16232D01*
X29081Y15581D01*
X29732Y15146D01*
X30500Y14993D01*
X31268Y15146D01*
X31919Y15581D01*
X32354Y16232D01*
X32507Y17000D01*
X32354Y17768D01*
X32320Y17820D01*
X32680Y18180D01*
X32732Y18146D01*
X33500Y17993D01*
X34268Y18146D01*
X34919Y18581D01*
X35354Y19232D01*
X35507Y20000D01*
X35354Y20768D01*
X34919Y21419D01*
X34268Y21854D01*
X33500Y22007D01*
D02*
G37*
%LPD*%
G36*
X507782Y72644D02*
X507897Y71767D01*
X508373Y70617D01*
X509130Y69630D01*
X510117Y68873D01*
X511267Y68397D01*
X512144Y68282D01*
X512368Y68252D01*
Y67748D01*
X512144Y67718D01*
X511267Y67603D01*
X510117Y67127D01*
X509130Y66369D01*
X508373Y65383D01*
X507897Y64233D01*
X507752Y63132D01*
X507248D01*
X507103Y64233D01*
X506627Y65383D01*
X505869Y66369D01*
X504883Y67127D01*
X503733Y67603D01*
X502856Y67718D01*
X502632Y67748D01*
Y68252D01*
X502856Y68282D01*
X503733Y68397D01*
X504883Y68873D01*
X505869Y69630D01*
X506627Y70617D01*
X507103Y71767D01*
X507218Y72644D01*
X507248Y72868D01*
X507752D01*
X507782Y72644D01*
D02*
G37*
G36*
X507897Y61767D02*
X508373Y60617D01*
X509130Y59631D01*
X510117Y58873D01*
X511267Y58397D01*
X512144Y58282D01*
X512368Y58252D01*
Y57748D01*
X512144Y57718D01*
X511267Y57603D01*
X510117Y57127D01*
X509130Y56370D01*
X508373Y55383D01*
X507897Y54233D01*
X507752Y53132D01*
X507248D01*
X507103Y54233D01*
X506627Y55383D01*
X505869Y56370D01*
X504883Y57127D01*
X503733Y57603D01*
X502856Y57718D01*
X502632Y57748D01*
Y58252D01*
X502856Y58282D01*
X503733Y58397D01*
X504883Y58873D01*
X505869Y59631D01*
X506627Y60617D01*
X507103Y61767D01*
X507248Y62868D01*
X507752D01*
X507897Y61767D01*
D02*
G37*
G36*
Y51767D02*
X508373Y50617D01*
X509130Y49630D01*
X510117Y48873D01*
X511267Y48397D01*
X511554Y48359D01*
Y47855D01*
X511211Y47810D01*
X510010Y47313D01*
X508979Y46521D01*
X508187Y45490D01*
X507690Y44289D01*
X507645Y43946D01*
X507141D01*
X507103Y44233D01*
X506627Y45383D01*
X505869Y46369D01*
X504883Y47127D01*
X503733Y47603D01*
X502856Y47718D01*
X502632Y47748D01*
Y48252D01*
X502856Y48282D01*
X503733Y48397D01*
X504883Y48873D01*
X505869Y49630D01*
X506627Y50617D01*
X507103Y51767D01*
X507248Y52868D01*
X507752D01*
X507897Y51767D01*
D02*
G37*
%LPC*%
G36*
X86500Y379797D02*
X85626Y379682D01*
X84812Y379344D01*
X84113Y378808D01*
X83577Y378109D01*
X83240Y377295D01*
X83125Y376421D01*
X83240Y375548D01*
X83577Y374734D01*
X84113Y374035D01*
X84812Y373498D01*
X85626Y373161D01*
X86500Y373046D01*
X87374Y373161D01*
X88188Y373498D01*
X88887Y374035D01*
X89423Y374734D01*
X89760Y375548D01*
X89875Y376421D01*
X89760Y377295D01*
X89423Y378109D01*
X88887Y378808D01*
X88188Y379344D01*
X87374Y379682D01*
X86500Y379797D01*
D02*
G37*
G36*
X59000Y383837D02*
X57489Y383638D01*
X56081Y383055D01*
X54872Y382128D01*
X53945Y380919D01*
X53362Y379511D01*
X53163Y378000D01*
X53362Y376489D01*
X53945Y375081D01*
X54872Y373872D01*
X56081Y372945D01*
X57489Y372362D01*
X59000Y372163D01*
X60511Y372362D01*
X61919Y372945D01*
X63128Y373872D01*
X64055Y375081D01*
X64638Y376489D01*
X64837Y378000D01*
X64638Y379511D01*
X64055Y380919D01*
X63128Y382128D01*
X61919Y383055D01*
X60511Y383638D01*
X59000Y383837D01*
D02*
G37*
G36*
X44000Y368909D02*
X43078Y368725D01*
X42297Y368203D01*
X41775Y367422D01*
X41592Y366500D01*
X41775Y365578D01*
X42297Y364797D01*
X43078Y364275D01*
X44000Y364091D01*
X44922Y364275D01*
X45703Y364797D01*
X46225Y365578D01*
X46409Y366500D01*
X46225Y367422D01*
X45703Y368203D01*
X44922Y368725D01*
X44000Y368909D01*
D02*
G37*
G36*
X86500Y369954D02*
X85626Y369839D01*
X84812Y369502D01*
X84113Y368966D01*
X83577Y368266D01*
X83240Y367452D01*
X83125Y366579D01*
X83240Y365705D01*
X83577Y364891D01*
X84113Y364192D01*
X84812Y363656D01*
X85626Y363318D01*
X86500Y363203D01*
X87374Y363318D01*
X88188Y363656D01*
X88887Y364192D01*
X89423Y364891D01*
X89760Y365705D01*
X89875Y366579D01*
X89760Y367452D01*
X89423Y368266D01*
X88887Y368966D01*
X88188Y369502D01*
X87374Y369839D01*
X86500Y369954D01*
D02*
G37*
G36*
X57500Y364507D02*
X56732Y364354D01*
X56081Y363919D01*
X55646Y363268D01*
X55493Y362500D01*
X55646Y361732D01*
X56081Y361081D01*
X56732Y360646D01*
X57500Y360493D01*
X58268Y360646D01*
X58919Y361081D01*
X59354Y361732D01*
X59507Y362500D01*
X59354Y363268D01*
X58919Y363919D01*
X58268Y364354D01*
X57500Y364507D01*
D02*
G37*
G36*
X52500D02*
X51732Y364354D01*
X51081Y363919D01*
X50646Y363268D01*
X50493Y362500D01*
X50646Y361732D01*
X51081Y361081D01*
X51732Y360646D01*
X52500Y360493D01*
X53268Y360646D01*
X53919Y361081D01*
X54354Y361732D01*
X54507Y362500D01*
X54354Y363268D01*
X53919Y363919D01*
X53268Y364354D01*
X52500Y364507D01*
D02*
G37*
G36*
X9000Y363206D02*
X8347Y363076D01*
X7794Y362706D01*
X7424Y362153D01*
X7294Y361500D01*
X7424Y360847D01*
X7794Y360294D01*
X8347Y359924D01*
X9000Y359794D01*
X9653Y359924D01*
X10206Y360294D01*
X10576Y360847D01*
X10706Y361500D01*
X10576Y362153D01*
X10206Y362706D01*
X9653Y363076D01*
X9000Y363206D01*
D02*
G37*
G36*
X311386Y359482D02*
X310733Y359352D01*
X310179Y358982D01*
X309810Y358428D01*
X309680Y357775D01*
X309810Y357123D01*
X310179Y356569D01*
X310733Y356199D01*
X311386Y356069D01*
X312039Y356199D01*
X312592Y356569D01*
X312962Y357123D01*
X313092Y357775D01*
X312962Y358428D01*
X312592Y358982D01*
X312039Y359352D01*
X311386Y359482D01*
D02*
G37*
G36*
X52500Y359507D02*
X51732Y359354D01*
X51081Y358919D01*
X50646Y358268D01*
X50493Y357500D01*
X50646Y356732D01*
X51081Y356081D01*
X51732Y355646D01*
X52500Y355493D01*
X53268Y355646D01*
X53919Y356081D01*
X54354Y356732D01*
X54507Y357500D01*
X54354Y358268D01*
X53919Y358919D01*
X53268Y359354D01*
X52500Y359507D01*
D02*
G37*
G36*
X230394Y358863D02*
X229741Y358734D01*
X229187Y358364D01*
X228818Y357810D01*
X228688Y357157D01*
X228818Y356505D01*
X229187Y355951D01*
X229741Y355581D01*
X230394Y355451D01*
X231047Y355581D01*
X231600Y355951D01*
X231970Y356505D01*
X232100Y357157D01*
X231970Y357810D01*
X231600Y358364D01*
X231047Y358734D01*
X230394Y358863D01*
D02*
G37*
G36*
X289500Y356222D02*
X288847Y356092D01*
X288294Y355722D01*
X287924Y355169D01*
X287794Y354516D01*
X287924Y353863D01*
X288294Y353309D01*
X288847Y352940D01*
X289500Y352810D01*
X290153Y352940D01*
X290706Y353309D01*
X291076Y353863D01*
X291206Y354516D01*
X291076Y355169D01*
X290706Y355722D01*
X290153Y356092D01*
X289500Y356222D01*
D02*
G37*
G36*
X208508Y355604D02*
X207855Y355474D01*
X207301Y355104D01*
X206932Y354551D01*
X206802Y353898D01*
X206932Y353245D01*
X207301Y352691D01*
X207855Y352322D01*
X208508Y352192D01*
X209161Y352322D01*
X209714Y352691D01*
X210084Y353245D01*
X210214Y353898D01*
X210084Y354551D01*
X209714Y355104D01*
X209161Y355474D01*
X208508Y355604D01*
D02*
G37*
G36*
X52500Y354507D02*
X51732Y354354D01*
X51081Y353919D01*
X50646Y353268D01*
X50493Y352500D01*
X50646Y351732D01*
X51081Y351081D01*
X51732Y350646D01*
X52500Y350493D01*
X53268Y350646D01*
X53919Y351081D01*
X54354Y351732D01*
X54507Y352500D01*
X54354Y353268D01*
X53919Y353919D01*
X53268Y354354D01*
X52500Y354507D01*
D02*
G37*
G36*
X320386Y353060D02*
X319733Y352930D01*
X319180Y352561D01*
X318810Y352007D01*
X318680Y351354D01*
X318810Y350701D01*
X319180Y350148D01*
X319733Y349778D01*
X320386Y349648D01*
X321039Y349778D01*
X321592Y350148D01*
X321962Y350701D01*
X322092Y351354D01*
X321962Y352007D01*
X321592Y352561D01*
X321039Y352930D01*
X320386Y353060D01*
D02*
G37*
G36*
X239394Y352442D02*
X238741Y352312D01*
X238187Y351942D01*
X237818Y351389D01*
X237688Y350736D01*
X237818Y350083D01*
X238187Y349530D01*
X238741Y349160D01*
X239394Y349030D01*
X240047Y349160D01*
X240600Y349530D01*
X240970Y350083D01*
X241100Y350736D01*
X240970Y351389D01*
X240600Y351942D01*
X240047Y352312D01*
X239394Y352442D01*
D02*
G37*
G36*
X57500Y349507D02*
X56732Y349354D01*
X56081Y348919D01*
X55646Y348268D01*
X55493Y347500D01*
X55646Y346732D01*
X56081Y346081D01*
X56732Y345646D01*
X57500Y345493D01*
X58268Y345646D01*
X58919Y346081D01*
X59354Y346732D01*
X59507Y347500D01*
X59354Y348268D01*
X58919Y348919D01*
X58268Y349354D01*
X57500Y349507D01*
D02*
G37*
G36*
X52500D02*
X51732Y349354D01*
X51081Y348919D01*
X50646Y348268D01*
X50493Y347500D01*
X50646Y346732D01*
X51081Y346081D01*
X51732Y345646D01*
X52500Y345493D01*
X53268Y345646D01*
X53919Y346081D01*
X54354Y346732D01*
X54507Y347500D01*
X54354Y348268D01*
X53919Y348919D01*
X53268Y349354D01*
X52500Y349507D01*
D02*
G37*
G36*
X284000Y346706D02*
X283347Y346576D01*
X282794Y346206D01*
X282424Y345653D01*
X282294Y345000D01*
X282424Y344347D01*
X282794Y343794D01*
X283347Y343424D01*
X284000Y343294D01*
X284653Y343424D01*
X285206Y343794D01*
X285576Y344347D01*
X285706Y345000D01*
X285576Y345653D01*
X285206Y346206D01*
X284653Y346576D01*
X284000Y346706D01*
D02*
G37*
G36*
X213000D02*
X212347Y346576D01*
X211794Y346206D01*
X211424Y345653D01*
X211294Y345000D01*
X211424Y344347D01*
X211794Y343794D01*
X212347Y343424D01*
X213000Y343294D01*
X213653Y343424D01*
X214206Y343794D01*
X214576Y344347D01*
X214706Y345000D01*
X214576Y345653D01*
X214206Y346206D01*
X213653Y346576D01*
X213000Y346706D01*
D02*
G37*
G36*
X110335Y345512D02*
X109566Y345360D01*
X108915Y344924D01*
X108480Y344273D01*
X108327Y343505D01*
X108480Y342737D01*
X108915Y342086D01*
X109566Y341651D01*
X110335Y341498D01*
X111103Y341651D01*
X111754Y342086D01*
X112189Y342737D01*
X112342Y343505D01*
X112189Y344273D01*
X111754Y344924D01*
X111103Y345360D01*
X110335Y345512D01*
D02*
G37*
G36*
X276319Y339795D02*
X274350D01*
Y337827D01*
X276319D01*
Y339795D01*
D02*
G37*
G36*
X276106Y353551D02*
X265595D01*
Y348039D01*
Y343039D01*
Y338039D01*
X270382D01*
Y337827D01*
X272350D01*
Y340795D01*
X273350D01*
Y341795D01*
X276319D01*
Y343764D01*
X276106D01*
Y348039D01*
Y353551D01*
D02*
G37*
G36*
X195327Y339177D02*
X193358D01*
Y337209D01*
X195327D01*
Y339177D01*
D02*
G37*
G36*
X195114Y352933D02*
X184602D01*
Y347421D01*
Y342421D01*
Y337421D01*
X189390D01*
Y337209D01*
X191358D01*
Y340177D01*
X192358D01*
Y341177D01*
X195327D01*
Y343146D01*
X195114D01*
Y347421D01*
Y352933D01*
D02*
G37*
G36*
X306386Y338060D02*
X305733Y337930D01*
X305180Y337561D01*
X304810Y337007D01*
X304680Y336354D01*
X304810Y335701D01*
X305180Y335148D01*
X305733Y334778D01*
X306386Y334648D01*
X307039Y334778D01*
X307592Y335148D01*
X307962Y335701D01*
X308092Y336354D01*
X307962Y337007D01*
X307592Y337561D01*
X307039Y337930D01*
X306386Y338060D01*
D02*
G37*
G36*
X225394Y337442D02*
X224741Y337312D01*
X224187Y336943D01*
X223818Y336389D01*
X223688Y335736D01*
X223818Y335083D01*
X224187Y334530D01*
X224741Y334160D01*
X225394Y334030D01*
X226047Y334160D01*
X226600Y334530D01*
X226970Y335083D01*
X227100Y335736D01*
X226970Y336389D01*
X226600Y336943D01*
X226047Y337312D01*
X225394Y337442D01*
D02*
G37*
G36*
X324117Y334490D02*
X323464Y334360D01*
X322911Y333991D01*
X322892Y333963D01*
X322381Y334304D01*
X321728Y334434D01*
X321076Y334304D01*
X320522Y333935D01*
X320152Y333381D01*
X320022Y332728D01*
X320152Y332076D01*
X320522Y331522D01*
X321076Y331152D01*
X321728Y331022D01*
X322381Y331152D01*
X322935Y331522D01*
X322953Y331550D01*
X323464Y331208D01*
X324117Y331078D01*
X324770Y331208D01*
X325324Y331578D01*
X325693Y332131D01*
X325823Y332784D01*
X325693Y333437D01*
X325324Y333991D01*
X324770Y334360D01*
X324117Y334490D01*
D02*
G37*
G36*
X328425Y336131D02*
X327772Y336001D01*
X327219Y335631D01*
X326849Y335078D01*
X326719Y334425D01*
X326849Y333772D01*
X327219Y333219D01*
X327772Y332849D01*
X328425Y332719D01*
X329078Y332849D01*
X329631Y333219D01*
X330001Y333772D01*
X330131Y334425D01*
X330001Y335078D01*
X329631Y335631D01*
X329078Y336001D01*
X328425Y336131D01*
D02*
G37*
G36*
X270646Y336060D02*
X269993Y335930D01*
X269439Y335561D01*
X269070Y335007D01*
X268940Y334354D01*
X269070Y333701D01*
X269439Y333148D01*
X269993Y332778D01*
X270646Y332648D01*
X271299Y332778D01*
X271852Y333148D01*
X272222Y333701D01*
X272352Y334354D01*
X272222Y335007D01*
X271852Y335561D01*
X271299Y335930D01*
X270646Y336060D01*
D02*
G37*
G36*
X243000Y332706D02*
X242347Y332576D01*
X241864Y332253D01*
X241381Y332576D01*
X240728Y332706D01*
X240075Y332576D01*
X239522Y332206D01*
X239152Y331653D01*
X239022Y331000D01*
X239152Y330347D01*
X239522Y329794D01*
X240075Y329424D01*
X240728Y329294D01*
X241381Y329424D01*
X241864Y329747D01*
X242347Y329424D01*
X243000Y329294D01*
X243653Y329424D01*
X244206Y329794D01*
X244576Y330347D01*
X244706Y331000D01*
X244576Y331653D01*
X244206Y332206D01*
X243653Y332576D01*
X243000Y332706D01*
D02*
G37*
G36*
X190500Y335442D02*
X189847Y335312D01*
X189294Y334943D01*
X188924Y334389D01*
X188794Y333736D01*
X188924Y333083D01*
X189294Y332530D01*
X189847Y332160D01*
X190500Y332030D01*
X191153Y332160D01*
X191706Y332530D01*
X192076Y333083D01*
X192206Y333736D01*
X192076Y334389D01*
X191706Y334943D01*
X191153Y335312D01*
X190500Y335442D01*
D02*
G37*
G36*
X247000Y334706D02*
X246347Y334576D01*
X245794Y334206D01*
X245424Y333653D01*
X245294Y333000D01*
X245424Y332347D01*
X245794Y331794D01*
X246347Y331424D01*
X247000Y331294D01*
X247653Y331424D01*
X248206Y331794D01*
X248576Y332347D01*
X248706Y333000D01*
X248576Y333653D01*
X248206Y334206D01*
X247653Y334576D01*
X247000Y334706D01*
D02*
G37*
G36*
X397000Y334627D02*
X396347Y334497D01*
X395794Y334128D01*
X395424Y333574D01*
X395294Y332921D01*
X395424Y332268D01*
X395794Y331715D01*
X396347Y331345D01*
X397000Y331215D01*
X397653Y331345D01*
X398206Y331715D01*
X398576Y332268D01*
X398706Y332921D01*
X398576Y333574D01*
X398206Y334128D01*
X397653Y334497D01*
X397000Y334627D01*
D02*
G37*
G36*
X302000Y333706D02*
X301347Y333576D01*
X300794Y333206D01*
X300424Y332653D01*
X300294Y332000D01*
X300424Y331347D01*
X300794Y330794D01*
X301347Y330424D01*
X302000Y330294D01*
X302653Y330424D01*
X303206Y330794D01*
X303576Y331347D01*
X303706Y332000D01*
X303576Y332653D01*
X303206Y333206D01*
X302653Y333576D01*
X302000Y333706D01*
D02*
G37*
G36*
X221000Y332706D02*
X220347Y332576D01*
X219794Y332206D01*
X219424Y331653D01*
X219294Y331000D01*
X219424Y330347D01*
X219794Y329794D01*
X220347Y329424D01*
X221000Y329294D01*
X221653Y329424D01*
X222206Y329794D01*
X222576Y330347D01*
X222706Y331000D01*
X222576Y331653D01*
X222206Y332206D01*
X221653Y332576D01*
X221000Y332706D01*
D02*
G37*
G36*
X375114Y331367D02*
X374461Y331238D01*
X373908Y330868D01*
X373538Y330314D01*
X373408Y329661D01*
X373538Y329009D01*
X373908Y328455D01*
X374461Y328085D01*
X375114Y327956D01*
X375767Y328085D01*
X376321Y328455D01*
X376690Y329009D01*
X376820Y329661D01*
X376690Y330314D01*
X376321Y330868D01*
X375767Y331238D01*
X375114Y331367D01*
D02*
G37*
G36*
X301748Y328254D02*
X301095Y328124D01*
X300541Y327754D01*
X300171Y327200D01*
X300042Y326548D01*
X300171Y325895D01*
X300541Y325341D01*
X301095Y324971D01*
X301748Y324842D01*
X302400Y324971D01*
X302954Y325341D01*
X303324Y325895D01*
X303454Y326548D01*
X303324Y327200D01*
X302954Y327754D01*
X302400Y328124D01*
X301748Y328254D01*
D02*
G37*
G36*
X406000Y328206D02*
X405347Y328076D01*
X404794Y327706D01*
X404424Y327153D01*
X404294Y326500D01*
X404424Y325847D01*
X404794Y325294D01*
X405347Y324924D01*
X406000Y324794D01*
X406653Y324924D01*
X407206Y325294D01*
X407576Y325847D01*
X407706Y326500D01*
X407576Y327153D01*
X407206Y327706D01*
X406653Y328076D01*
X406000Y328206D01*
D02*
G37*
G36*
X220756Y327636D02*
X220103Y327506D01*
X219549Y327136D01*
X219179Y326582D01*
X219050Y325929D01*
X219179Y325277D01*
X219549Y324723D01*
X220103Y324353D01*
X220756Y324223D01*
X221408Y324353D01*
X221962Y324723D01*
X222332Y325277D01*
X222462Y325929D01*
X222332Y326582D01*
X221962Y327136D01*
X221408Y327506D01*
X220756Y327636D01*
D02*
G37*
G36*
X272299Y323901D02*
X271646Y323771D01*
X271093Y323401D01*
X270723Y322848D01*
X270593Y322195D01*
X270723Y321542D01*
X271093Y320989D01*
X271646Y320619D01*
X272299Y320489D01*
X272952Y320619D01*
X273506Y320989D01*
X273875Y321542D01*
X274005Y322195D01*
X273875Y322848D01*
X273506Y323401D01*
X272952Y323771D01*
X272299Y323901D01*
D02*
G37*
G36*
X191307Y323283D02*
X190654Y323153D01*
X190101Y322783D01*
X189731Y322230D01*
X189601Y321577D01*
X189731Y320924D01*
X190101Y320371D01*
X190654Y320001D01*
X191307Y319871D01*
X191960Y320001D01*
X192513Y320371D01*
X192883Y320924D01*
X193013Y321577D01*
X192883Y322230D01*
X192513Y322783D01*
X191960Y323153D01*
X191307Y323283D01*
D02*
G37*
G36*
X135331Y322574D02*
X134640Y322437D01*
X134053Y322045D01*
X133662Y321459D01*
X133524Y320768D01*
X133662Y320076D01*
X134053Y319490D01*
X134640Y319099D01*
X135331Y318961D01*
X136022Y319099D01*
X136608Y319490D01*
X137000Y320076D01*
X137137Y320768D01*
X137000Y321459D01*
X136608Y322045D01*
X136022Y322437D01*
X135331Y322574D01*
D02*
G37*
G36*
X131000D02*
X130309Y322437D01*
X129723Y322045D01*
X129331Y321459D01*
X129194Y320768D01*
X129331Y320076D01*
X129723Y319490D01*
X130309Y319099D01*
X131000Y318961D01*
X131691Y319099D01*
X132277Y319490D01*
X132669Y320076D01*
X132806Y320768D01*
X132669Y321459D01*
X132277Y322045D01*
X131691Y322437D01*
X131000Y322574D01*
D02*
G37*
G36*
X370000Y321706D02*
X369347Y321576D01*
X368794Y321206D01*
X368424Y320653D01*
X368294Y320000D01*
X368424Y319347D01*
X368794Y318794D01*
X369347Y318424D01*
X370000Y318294D01*
X370653Y318424D01*
X371206Y318794D01*
X371576Y319347D01*
X371706Y320000D01*
X371576Y320653D01*
X371206Y321206D01*
X370653Y321576D01*
X370000Y321706D01*
D02*
G37*
G36*
X287299Y321401D02*
X286646Y321271D01*
X286093Y320901D01*
X285723Y320348D01*
X285593Y319695D01*
X285723Y319042D01*
X286093Y318489D01*
X286646Y318119D01*
X287299Y317989D01*
X287952Y318119D01*
X288506Y318489D01*
X288875Y319042D01*
X289005Y319695D01*
X288875Y320348D01*
X288506Y320901D01*
X287952Y321271D01*
X287299Y321401D01*
D02*
G37*
G36*
X206307Y320783D02*
X205654Y320653D01*
X205101Y320284D01*
X204731Y319730D01*
X204601Y319077D01*
X204731Y318424D01*
X205101Y317871D01*
X205654Y317501D01*
X206307Y317371D01*
X206960Y317501D01*
X207513Y317871D01*
X207883Y318424D01*
X208013Y319077D01*
X207883Y319730D01*
X207513Y320284D01*
X206960Y320653D01*
X206307Y320783D01*
D02*
G37*
G36*
X135331Y318243D02*
X134640Y318106D01*
X134053Y317714D01*
X133662Y317128D01*
X133524Y316437D01*
X133662Y315746D01*
X134053Y315160D01*
X134640Y314768D01*
X135331Y314631D01*
X136022Y314768D01*
X136608Y315160D01*
X137000Y315746D01*
X137137Y316437D01*
X137000Y317128D01*
X136608Y317714D01*
X136022Y318106D01*
X135331Y318243D01*
D02*
G37*
G36*
X131000D02*
X130309Y318106D01*
X129723Y317714D01*
X129331Y317128D01*
X129194Y316437D01*
X129331Y315746D01*
X129723Y315160D01*
X130309Y314768D01*
X131000Y314631D01*
X131691Y314768D01*
X132277Y315160D01*
X132669Y315746D01*
X132806Y316437D01*
X132669Y317128D01*
X132277Y317714D01*
X131691Y318106D01*
X131000Y318243D01*
D02*
G37*
G36*
X477000Y318272D02*
X476024Y318144D01*
X475114Y317767D01*
X474333Y317167D01*
X473733Y316386D01*
X473356Y315476D01*
X473228Y314500D01*
X473356Y313524D01*
X473733Y312614D01*
X474333Y311832D01*
X475114Y311233D01*
X476024Y310856D01*
X477000Y310728D01*
X477976Y310856D01*
X478886Y311233D01*
X479668Y311832D01*
X480267Y312614D01*
X480644Y313524D01*
X480772Y314500D01*
X480644Y315476D01*
X480267Y316386D01*
X479668Y317167D01*
X478886Y317767D01*
X477976Y318144D01*
X477000Y318272D01*
D02*
G37*
G36*
X467000D02*
X466024Y318144D01*
X465114Y317767D01*
X464332Y317167D01*
X463733Y316386D01*
X463356Y315476D01*
X463228Y314500D01*
X463356Y313524D01*
X463733Y312614D01*
X464332Y311832D01*
X465114Y311233D01*
X466024Y310856D01*
X467000Y310728D01*
X467976Y310856D01*
X468886Y311233D01*
X469667Y311832D01*
X470267Y312614D01*
X470644Y313524D01*
X470772Y314500D01*
X470644Y315476D01*
X470267Y316386D01*
X469667Y317167D01*
X468886Y317767D01*
X467976Y318144D01*
X467000Y318272D01*
D02*
G37*
G36*
X457000D02*
X456024Y318144D01*
X455114Y317767D01*
X454332Y317167D01*
X453733Y316386D01*
X453356Y315476D01*
X453228Y314500D01*
X453356Y313524D01*
X453733Y312614D01*
X454332Y311832D01*
X455114Y311233D01*
X456024Y310856D01*
X457000Y310728D01*
X457976Y310856D01*
X458886Y311233D01*
X459667Y311832D01*
X460267Y312614D01*
X460644Y313524D01*
X460772Y314500D01*
X460644Y315476D01*
X460267Y316386D01*
X459667Y317167D01*
X458886Y317767D01*
X457976Y318144D01*
X457000Y318272D01*
D02*
G37*
G36*
X447000D02*
X446024Y318144D01*
X445114Y317767D01*
X444333Y317167D01*
X443733Y316386D01*
X443356Y315476D01*
X443228Y314500D01*
X443356Y313524D01*
X443733Y312614D01*
X444333Y311832D01*
X445114Y311233D01*
X446024Y310856D01*
X447000Y310728D01*
X447976Y310856D01*
X448886Y311233D01*
X449668Y311832D01*
X450267Y312614D01*
X450644Y313524D01*
X450772Y314500D01*
X450644Y315476D01*
X450267Y316386D01*
X449668Y317167D01*
X448886Y317767D01*
X447976Y318144D01*
X447000Y318272D01*
D02*
G37*
G36*
X100000Y314507D02*
X99232Y314354D01*
X98581Y313919D01*
X98146Y313268D01*
X97993Y312500D01*
X98146Y311732D01*
X98581Y311081D01*
X99232Y310646D01*
X100000Y310493D01*
X100768Y310646D01*
X101419Y311081D01*
X101854Y311732D01*
X102007Y312500D01*
X101854Y313268D01*
X101419Y313919D01*
X100768Y314354D01*
X100000Y314507D01*
D02*
G37*
G36*
X92500D02*
X91732Y314354D01*
X91081Y313919D01*
X90646Y313268D01*
X90493Y312500D01*
X90646Y311732D01*
X91081Y311081D01*
X91732Y310646D01*
X92500Y310493D01*
X93268Y310646D01*
X93919Y311081D01*
X94354Y311732D01*
X94507Y312500D01*
X94354Y313268D01*
X93919Y313919D01*
X93268Y314354D01*
X92500Y314507D01*
D02*
G37*
G36*
X135331Y313913D02*
X134640Y313775D01*
X134053Y313384D01*
X133662Y312797D01*
X133524Y312106D01*
X133662Y311415D01*
X134053Y310829D01*
X134640Y310437D01*
X135331Y310300D01*
X136022Y310437D01*
X136608Y310829D01*
X137000Y311415D01*
X137137Y312106D01*
X137000Y312797D01*
X136608Y313384D01*
X136022Y313775D01*
X135331Y313913D01*
D02*
G37*
G36*
X131000D02*
X130309Y313775D01*
X129723Y313384D01*
X129331Y312797D01*
X129194Y312106D01*
X129331Y311415D01*
X129723Y310829D01*
X130309Y310437D01*
X131000Y310300D01*
X131691Y310437D01*
X132277Y310829D01*
X132669Y311415D01*
X132806Y312106D01*
X132669Y312797D01*
X132277Y313384D01*
X131691Y313775D01*
X131000Y313913D01*
D02*
G37*
G36*
X361720Y328697D02*
X351209D01*
Y323185D01*
Y318185D01*
Y313185D01*
X355996D01*
Y312972D01*
X356520D01*
X356787Y312473D01*
X356649Y312266D01*
X356519Y311613D01*
X356649Y310960D01*
X357019Y310407D01*
X357573Y310037D01*
X358225Y309907D01*
X358878Y310037D01*
X359432Y310407D01*
X359802Y310960D01*
X359931Y311613D01*
X359802Y312266D01*
X359664Y312473D01*
X359931Y312972D01*
X361933D01*
Y314941D01*
X358964D01*
Y316941D01*
X361933D01*
Y318910D01*
X361720D01*
Y323185D01*
Y328697D01*
D02*
G37*
G36*
X392000Y313206D02*
X391347Y313076D01*
X390794Y312706D01*
X390424Y312153D01*
X390294Y311500D01*
X390424Y310847D01*
X390794Y310294D01*
X391347Y309924D01*
X392000Y309794D01*
X392653Y309924D01*
X393206Y310294D01*
X393576Y310847D01*
X393706Y311500D01*
X393576Y312153D01*
X393206Y312706D01*
X392653Y313076D01*
X392000Y313206D01*
D02*
G37*
G36*
X414000Y310706D02*
X413347Y310576D01*
X412794Y310206D01*
X412424Y309653D01*
X412294Y309000D01*
X412424Y308347D01*
X412794Y307794D01*
X413347Y307424D01*
X414000Y307294D01*
X414653Y307424D01*
X415206Y307794D01*
X415576Y308347D01*
X415706Y309000D01*
X415576Y309653D01*
X415206Y310206D01*
X414653Y310576D01*
X414000Y310706D01*
D02*
G37*
G36*
X256000D02*
X255347Y310576D01*
X254794Y310206D01*
X254424Y309653D01*
X254294Y309000D01*
X254424Y308347D01*
X254794Y307794D01*
X255347Y307424D01*
X256000Y307294D01*
X256653Y307424D01*
X257206Y307794D01*
X257576Y308347D01*
X257706Y309000D01*
X257576Y309653D01*
X257206Y310206D01*
X256653Y310576D01*
X256000Y310706D01*
D02*
G37*
G36*
X386000Y310206D02*
X385347Y310076D01*
X384794Y309706D01*
X384424Y309153D01*
X384294Y308500D01*
X384424Y307847D01*
X384794Y307294D01*
X385347Y306924D01*
X386000Y306794D01*
X386653Y306924D01*
X387206Y307294D01*
X387576Y307847D01*
X387706Y308500D01*
X387576Y309153D01*
X387206Y309706D01*
X386653Y310076D01*
X386000Y310206D01*
D02*
G37*
G36*
X96250Y310757D02*
X95482Y310604D01*
X94831Y310169D01*
X94396Y309518D01*
X94243Y308750D01*
X94396Y307982D01*
X94831Y307331D01*
X95482Y306896D01*
X96250Y306743D01*
X97018Y306896D01*
X97669Y307331D01*
X98104Y307982D01*
X98257Y308750D01*
X98104Y309518D01*
X97669Y310169D01*
X97018Y310604D01*
X96250Y310757D01*
D02*
G37*
G36*
X100000Y307007D02*
X99232Y306854D01*
X98581Y306419D01*
X98146Y305768D01*
X97993Y305000D01*
X98146Y304232D01*
X98581Y303581D01*
X99232Y303146D01*
X100000Y302993D01*
X100768Y303146D01*
X101419Y303581D01*
X101854Y304232D01*
X102007Y305000D01*
X101854Y305768D01*
X101419Y306419D01*
X100768Y306854D01*
X100000Y307007D01*
D02*
G37*
G36*
X92500D02*
X91732Y306854D01*
X91081Y306419D01*
X90646Y305768D01*
X90493Y305000D01*
X90646Y304232D01*
X91081Y303581D01*
X91732Y303146D01*
X92500Y302993D01*
X93268Y303146D01*
X93919Y303581D01*
X94354Y304232D01*
X94507Y305000D01*
X94354Y305768D01*
X93919Y306419D01*
X93268Y306854D01*
X92500Y307007D01*
D02*
G37*
G36*
X406096Y307610D02*
X405443Y307480D01*
X404889Y307111D01*
X404520Y306557D01*
X404390Y305904D01*
X404520Y305251D01*
X404889Y304698D01*
X405443Y304328D01*
X406013Y304215D01*
X406126Y303645D01*
X406496Y303092D01*
X407049Y302722D01*
X407702Y302592D01*
X408355Y302722D01*
X408908Y303092D01*
X409278Y303645D01*
X409408Y304298D01*
X409278Y304951D01*
X408908Y305504D01*
X408355Y305874D01*
X407785Y305987D01*
X407672Y306557D01*
X407302Y307111D01*
X406749Y307480D01*
X406096Y307610D01*
D02*
G37*
G36*
X286352Y305394D02*
X285699Y305264D01*
X285146Y304894D01*
X284776Y304340D01*
X284646Y303688D01*
X284776Y303035D01*
X285146Y302481D01*
X285699Y302111D01*
X286352Y301982D01*
X287005Y302111D01*
X287559Y302481D01*
X287928Y303035D01*
X288058Y303688D01*
X287928Y304340D01*
X287559Y304894D01*
X287005Y305264D01*
X286352Y305394D01*
D02*
G37*
G36*
X480740Y308240D02*
X473260D01*
Y300760D01*
X480740D01*
Y308240D01*
D02*
G37*
G36*
X467000Y308272D02*
X466024Y308144D01*
X465114Y307767D01*
X464332Y307168D01*
X463733Y306386D01*
X463356Y305476D01*
X463228Y304500D01*
X463356Y303524D01*
X463733Y302614D01*
X464332Y301833D01*
X465114Y301233D01*
X466024Y300856D01*
X467000Y300728D01*
X467976Y300856D01*
X468886Y301233D01*
X469667Y301833D01*
X470267Y302614D01*
X470644Y303524D01*
X470772Y304500D01*
X470644Y305476D01*
X470267Y306386D01*
X469667Y307168D01*
X468886Y307767D01*
X467976Y308144D01*
X467000Y308272D01*
D02*
G37*
G36*
X457000D02*
X456024Y308144D01*
X455114Y307767D01*
X454332Y307168D01*
X453733Y306386D01*
X453356Y305476D01*
X453228Y304500D01*
X453356Y303524D01*
X453733Y302614D01*
X454332Y301833D01*
X455114Y301233D01*
X456024Y300856D01*
X457000Y300728D01*
X457976Y300856D01*
X458886Y301233D01*
X459667Y301833D01*
X460267Y302614D01*
X460644Y303524D01*
X460772Y304500D01*
X460644Y305476D01*
X460267Y306386D01*
X459667Y307168D01*
X458886Y307767D01*
X457976Y308144D01*
X457000Y308272D01*
D02*
G37*
G36*
X447000D02*
X446024Y308144D01*
X445114Y307767D01*
X444333Y307168D01*
X443733Y306386D01*
X443356Y305476D01*
X443228Y304500D01*
X443356Y303524D01*
X443733Y302614D01*
X444333Y301833D01*
X445114Y301233D01*
X446024Y300856D01*
X447000Y300728D01*
X447976Y300856D01*
X448886Y301233D01*
X449668Y301833D01*
X450267Y302614D01*
X450644Y303524D01*
X450772Y304500D01*
X450644Y305476D01*
X450267Y306386D01*
X449668Y307168D01*
X448886Y307767D01*
X447976Y308144D01*
X447000Y308272D01*
D02*
G37*
G36*
X387362Y303399D02*
X386709Y303270D01*
X386155Y302900D01*
X385786Y302346D01*
X385656Y301693D01*
X385786Y301041D01*
X386155Y300487D01*
X386709Y300117D01*
X387362Y299987D01*
X388015Y300117D01*
X388568Y300487D01*
X388938Y301041D01*
X389068Y301693D01*
X388938Y302346D01*
X388568Y302900D01*
X388015Y303270D01*
X387362Y303399D01*
D02*
G37*
G36*
X151500Y302908D02*
X150578Y302725D01*
X149797Y302203D01*
X149275Y301422D01*
X149091Y300500D01*
X149275Y299578D01*
X149797Y298797D01*
X150578Y298275D01*
X151500Y298092D01*
X152422Y298275D01*
X153203Y298797D01*
X153725Y299578D01*
X153909Y300500D01*
X153725Y301422D01*
X153203Y302203D01*
X152422Y302725D01*
X151500Y302908D01*
D02*
G37*
G36*
X269279Y299251D02*
X268626Y299121D01*
X268072Y298751D01*
X267703Y298198D01*
X267573Y297545D01*
X267703Y296892D01*
X268072Y296339D01*
X268626Y295969D01*
X269279Y295839D01*
X269932Y295969D01*
X270485Y296339D01*
X270855Y296892D01*
X270985Y297545D01*
X270855Y298198D01*
X270485Y298751D01*
X269932Y299121D01*
X269279Y299251D01*
D02*
G37*
G36*
X357913Y299047D02*
X357260Y298917D01*
X356707Y298547D01*
X356337Y297994D01*
X356207Y297341D01*
X356337Y296688D01*
X356707Y296135D01*
X357260Y295765D01*
X357913Y295635D01*
X358566Y295765D01*
X359120Y296135D01*
X359489Y296688D01*
X359619Y297341D01*
X359489Y297994D01*
X359120Y298547D01*
X358566Y298917D01*
X357913Y299047D01*
D02*
G37*
G36*
X372913Y296547D02*
X372260Y296417D01*
X371707Y296047D01*
X371337Y295494D01*
X371207Y294841D01*
X371337Y294188D01*
X371707Y293635D01*
X372260Y293265D01*
X372913Y293135D01*
X373566Y293265D01*
X374120Y293635D01*
X374489Y294188D01*
X374619Y294841D01*
X374489Y295494D01*
X374120Y296047D01*
X373566Y296417D01*
X372913Y296547D01*
D02*
G37*
G36*
X230394Y296079D02*
X229741Y295949D01*
X229187Y295579D01*
X228818Y295026D01*
X228688Y294373D01*
X228818Y293720D01*
X229187Y293166D01*
X229741Y292796D01*
X230394Y292667D01*
X231047Y292796D01*
X231600Y293166D01*
X231970Y293720D01*
X232100Y294373D01*
X231970Y295026D01*
X231600Y295579D01*
X231047Y295949D01*
X230394Y296079D01*
D02*
G37*
G36*
X208508Y292819D02*
X207855Y292689D01*
X207302Y292319D01*
X206932Y291766D01*
X206802Y291113D01*
X206932Y290460D01*
X207302Y289907D01*
X207855Y289537D01*
X208508Y289407D01*
X209161Y289537D01*
X209714Y289907D01*
X210084Y290460D01*
X210214Y291113D01*
X210084Y291766D01*
X209714Y292319D01*
X209161Y292689D01*
X208508Y292819D01*
D02*
G37*
G36*
X284185Y290820D02*
X283532Y290690D01*
X282979Y290320D01*
X282609Y289767D01*
X282479Y289114D01*
X282609Y288461D01*
X282979Y287908D01*
X283532Y287538D01*
X284185Y287408D01*
X284838Y287538D01*
X285391Y287908D01*
X285761Y288461D01*
X285891Y289114D01*
X285761Y289767D01*
X285391Y290320D01*
X284838Y290690D01*
X284185Y290820D01*
D02*
G37*
G36*
X239394Y289657D02*
X238741Y289528D01*
X238188Y289158D01*
X237818Y288604D01*
X237688Y287951D01*
X237818Y287299D01*
X238188Y286745D01*
X238741Y286375D01*
X239394Y286245D01*
X240047Y286375D01*
X240600Y286745D01*
X240970Y287299D01*
X241100Y287951D01*
X240970Y288604D01*
X240600Y289158D01*
X240047Y289528D01*
X239394Y289657D01*
D02*
G37*
G36*
X128500Y289931D02*
Y285000D01*
X133431D01*
X133413Y285176D01*
X133070Y286307D01*
X132513Y287350D01*
X131763Y288263D01*
X130850Y289013D01*
X129807Y289570D01*
X128676Y289913D01*
X128500Y289931D01*
D02*
G37*
G36*
X126500D02*
X126324Y289913D01*
X125193Y289570D01*
X124151Y289013D01*
X123237Y288263D01*
X122487Y287350D01*
X121930Y286307D01*
X121587Y285176D01*
X121570Y285000D01*
X126500D01*
Y289931D01*
D02*
G37*
G36*
X344000Y290772D02*
X343024Y290644D01*
X342114Y290267D01*
X341333Y289668D01*
X340733Y288886D01*
X340356Y287976D01*
X340228Y287000D01*
X340356Y286024D01*
X340733Y285114D01*
X341333Y284332D01*
X342114Y283733D01*
X343024Y283356D01*
X344000Y283228D01*
X344976Y283356D01*
X345886Y283733D01*
X346668Y284332D01*
X347267Y285114D01*
X347644Y286024D01*
X347772Y287000D01*
X347644Y287976D01*
X347267Y288886D01*
X346668Y289668D01*
X345886Y290267D01*
X344976Y290644D01*
X344000Y290772D01*
D02*
G37*
G36*
X334000D02*
X333024Y290644D01*
X332114Y290267D01*
X331332Y289668D01*
X330733Y288886D01*
X330356Y287976D01*
X330228Y287000D01*
X330356Y286024D01*
X330733Y285114D01*
X331332Y284332D01*
X332114Y283733D01*
X333024Y283356D01*
X334000Y283228D01*
X334976Y283356D01*
X335886Y283733D01*
X336667Y284332D01*
X337267Y285114D01*
X337644Y286024D01*
X337772Y287000D01*
X337644Y287976D01*
X337267Y288886D01*
X336667Y289668D01*
X335886Y290267D01*
X334976Y290644D01*
X334000Y290772D01*
D02*
G37*
G36*
X313993Y284454D02*
X313340Y284324D01*
X312787Y283954D01*
X312417Y283400D01*
X312287Y282748D01*
X312417Y282095D01*
X312787Y281541D01*
X313340Y281171D01*
X313993Y281042D01*
X314646Y281171D01*
X315199Y281541D01*
X315569Y282095D01*
X315699Y282748D01*
X315569Y283400D01*
X315199Y283954D01*
X314646Y284324D01*
X313993Y284454D01*
D02*
G37*
G36*
X213000Y283706D02*
X212347Y283576D01*
X211794Y283206D01*
X211424Y282653D01*
X211294Y282000D01*
X211424Y281347D01*
X211794Y280794D01*
X212347Y280424D01*
X213000Y280294D01*
X213653Y280424D01*
X214206Y280794D01*
X214576Y281347D01*
X214706Y282000D01*
X214576Y282653D01*
X214206Y283206D01*
X213653Y283576D01*
X213000Y283706D01*
D02*
G37*
G36*
X133431Y283000D02*
X128500D01*
Y278069D01*
X128676Y278087D01*
X129807Y278430D01*
X130850Y278987D01*
X131763Y279737D01*
X132513Y280650D01*
X133070Y281693D01*
X133413Y282824D01*
X133431Y283000D01*
D02*
G37*
G36*
X126500D02*
X121570D01*
X121587Y282824D01*
X121930Y281693D01*
X122487Y280650D01*
X123237Y279737D01*
X124151Y278987D01*
X125193Y278430D01*
X126324Y278087D01*
X126500Y278069D01*
Y283000D01*
D02*
G37*
G36*
X320287Y278706D02*
X319635Y278576D01*
X319081Y278206D01*
X318711Y277653D01*
X318581Y277000D01*
X318711Y276347D01*
X319081Y275794D01*
X319635Y275424D01*
X320287Y275294D01*
X320940Y275424D01*
X321494Y275794D01*
X321864Y276347D01*
X321993Y277000D01*
X321864Y277653D01*
X321494Y278206D01*
X320940Y278576D01*
X320287Y278706D01*
D02*
G37*
G36*
X195327Y276392D02*
X193358D01*
Y274424D01*
X195327D01*
Y276392D01*
D02*
G37*
G36*
X195114Y290148D02*
X184602D01*
Y284636D01*
Y279637D01*
Y274637D01*
X189390D01*
Y274424D01*
X191358D01*
Y277392D01*
X192358D01*
Y278392D01*
X195327D01*
Y280361D01*
X195114D01*
Y284636D01*
Y290148D01*
D02*
G37*
G36*
X292000Y279706D02*
X291347Y279576D01*
X290794Y279206D01*
X290424Y278653D01*
X290294Y278000D01*
X290424Y277347D01*
X290794Y276794D01*
Y276706D01*
X290424Y276153D01*
X290294Y275500D01*
X290424Y274847D01*
X290794Y274294D01*
X291347Y273924D01*
X292000Y273794D01*
X292653Y273924D01*
X293206Y274294D01*
X293576Y274847D01*
X293706Y275500D01*
X293576Y276153D01*
X293206Y276706D01*
Y276794D01*
X293576Y277347D01*
X293706Y278000D01*
X293576Y278653D01*
X293206Y279206D01*
X292653Y279576D01*
X292000Y279706D01*
D02*
G37*
G36*
X344000Y280772D02*
X343024Y280644D01*
X342114Y280267D01*
X341333Y279667D01*
X340733Y278886D01*
X340356Y277976D01*
X340228Y277000D01*
X340356Y276024D01*
X340733Y275114D01*
X341333Y274332D01*
X342114Y273733D01*
X343024Y273356D01*
X344000Y273228D01*
X344976Y273356D01*
X345886Y273733D01*
X346668Y274332D01*
X347267Y275114D01*
X347644Y276024D01*
X347772Y277000D01*
X347644Y277976D01*
X347267Y278886D01*
X346668Y279667D01*
X345886Y280267D01*
X344976Y280644D01*
X344000Y280772D01*
D02*
G37*
G36*
X334000D02*
X333024Y280644D01*
X332114Y280267D01*
X331332Y279667D01*
X330733Y278886D01*
X330356Y277976D01*
X330228Y277000D01*
X330356Y276024D01*
X330733Y275114D01*
X331332Y274332D01*
X332114Y273733D01*
X333024Y273356D01*
X334000Y273228D01*
X334976Y273356D01*
X335886Y273733D01*
X336667Y274332D01*
X337267Y275114D01*
X337644Y276024D01*
X337772Y277000D01*
X337644Y277976D01*
X337267Y278886D01*
X336667Y279667D01*
X335886Y280267D01*
X334976Y280644D01*
X334000Y280772D01*
D02*
G37*
G36*
X250000Y274706D02*
X249347Y274576D01*
X248794Y274206D01*
X248424Y273653D01*
X248294Y273000D01*
X248424Y272347D01*
X248794Y271794D01*
X249347Y271424D01*
X250000Y271294D01*
X250653Y271424D01*
X251206Y271794D01*
X251576Y272347D01*
X251706Y273000D01*
X251576Y273653D01*
X251206Y274206D01*
X250653Y274576D01*
X250000Y274706D01*
D02*
G37*
G36*
X225394Y274657D02*
X224741Y274528D01*
X224187Y274158D01*
X223818Y273604D01*
X223688Y272951D01*
X223818Y272299D01*
X224187Y271745D01*
X224741Y271375D01*
X225394Y271245D01*
X226047Y271375D01*
X226600Y271745D01*
X226970Y272299D01*
X227100Y272951D01*
X226970Y273604D01*
X226600Y274158D01*
X226047Y274528D01*
X225394Y274657D01*
D02*
G37*
G36*
X191758Y272657D02*
X191105Y272528D01*
X190552Y272158D01*
X190182Y271604D01*
X190052Y270951D01*
X190182Y270299D01*
X190552Y269745D01*
X191105Y269375D01*
X191758Y269245D01*
X192411Y269375D01*
X192965Y269745D01*
X193334Y270299D01*
X193464Y270951D01*
X193334Y271604D01*
X192965Y272158D01*
X192411Y272528D01*
X191758Y272657D01*
D02*
G37*
G36*
X443500Y272206D02*
X442847Y272076D01*
X442294Y271706D01*
X441924Y271153D01*
X441794Y270500D01*
X441924Y269847D01*
X442294Y269294D01*
X442847Y268924D01*
X443500Y268794D01*
X444153Y268924D01*
X444706Y269294D01*
X445076Y269847D01*
X445206Y270500D01*
X445076Y271153D01*
X444706Y271706D01*
X444153Y272076D01*
X443500Y272206D01*
D02*
G37*
G36*
X313945Y271712D02*
X313292Y271582D01*
X312738Y271212D01*
X312368Y270659D01*
X312239Y270006D01*
X312368Y269353D01*
X312738Y268799D01*
X313292Y268430D01*
X313945Y268300D01*
X314597Y268430D01*
X315151Y268799D01*
X315521Y269353D01*
X315651Y270006D01*
X315521Y270659D01*
X315151Y271212D01*
X314597Y271582D01*
X313945Y271712D01*
D02*
G37*
G36*
X221000Y269706D02*
X220347Y269576D01*
X219794Y269206D01*
X219424Y268653D01*
X219294Y268000D01*
X219424Y267347D01*
X219794Y266794D01*
X220347Y266424D01*
X221000Y266294D01*
X221653Y266424D01*
X222206Y266794D01*
X222576Y267347D01*
X222706Y268000D01*
X222576Y268653D01*
X222206Y269206D01*
X221653Y269576D01*
X221000Y269706D01*
D02*
G37*
G36*
X243494Y269730D02*
X242841Y269601D01*
X242287Y269231D01*
X241917Y268677D01*
X241804Y268108D01*
X241234Y267994D01*
X240681Y267624D01*
X240311Y267071D01*
X240181Y266418D01*
X240311Y265765D01*
X240681Y265212D01*
X241234Y264842D01*
X241887Y264712D01*
X242540Y264842D01*
X243094Y265212D01*
X243463Y265765D01*
X243577Y266335D01*
X244146Y266448D01*
X244700Y266818D01*
X245070Y267372D01*
X245200Y268024D01*
X245070Y268677D01*
X244700Y269231D01*
X244146Y269601D01*
X243494Y269730D01*
D02*
G37*
G36*
X400000Y267706D02*
X399347Y267576D01*
X398794Y267206D01*
X398424Y266653D01*
X398294Y266000D01*
X398424Y265347D01*
X398794Y264794D01*
X399347Y264424D01*
X400000Y264294D01*
X400653Y264424D01*
X401206Y264794D01*
X401576Y265347D01*
X401706Y266000D01*
X401576Y266653D01*
X401206Y267206D01*
X400653Y267576D01*
X400000Y267706D01*
D02*
G37*
G36*
X344000Y270772D02*
X343024Y270644D01*
X342114Y270267D01*
X341333Y269668D01*
X340733Y268886D01*
X340356Y267976D01*
X340228Y267000D01*
X340356Y266024D01*
X340733Y265114D01*
X341333Y264333D01*
X342114Y263733D01*
X343024Y263356D01*
X344000Y263228D01*
X344976Y263356D01*
X345886Y263733D01*
X346668Y264333D01*
X347267Y265114D01*
X347644Y266024D01*
X347772Y267000D01*
X347644Y267976D01*
X347267Y268886D01*
X346668Y269668D01*
X345886Y270267D01*
X344976Y270644D01*
X344000Y270772D01*
D02*
G37*
G36*
X334000D02*
X333024Y270644D01*
X332114Y270267D01*
X331332Y269668D01*
X330733Y268886D01*
X330356Y267976D01*
X330228Y267000D01*
X330356Y266024D01*
X330733Y265114D01*
X331332Y264333D01*
X332114Y263733D01*
X333024Y263356D01*
X334000Y263228D01*
X334976Y263356D01*
X335886Y263733D01*
X336667Y264333D01*
X337267Y265114D01*
X337644Y266024D01*
X337772Y267000D01*
X337644Y267976D01*
X337267Y268886D01*
X336667Y269668D01*
X335886Y270267D01*
X334976Y270644D01*
X334000Y270772D01*
D02*
G37*
G36*
X284185Y265222D02*
X283532Y265092D01*
X282979Y264722D01*
X282609Y264169D01*
X282479Y263516D01*
X282609Y262863D01*
X282979Y262310D01*
X283532Y261940D01*
X284185Y261810D01*
X284838Y261940D01*
X285391Y262310D01*
X285761Y262863D01*
X285891Y263516D01*
X285761Y264169D01*
X285391Y264722D01*
X284838Y265092D01*
X284185Y265222D01*
D02*
G37*
G36*
X220756Y264851D02*
X220103Y264721D01*
X219549Y264351D01*
X219179Y263798D01*
X219050Y263145D01*
X219179Y262492D01*
X219549Y261938D01*
X220103Y261569D01*
X220756Y261439D01*
X221408Y261569D01*
X221962Y261938D01*
X222332Y262492D01*
X222462Y263145D01*
X222332Y263798D01*
X221962Y264351D01*
X221408Y264721D01*
X220756Y264851D01*
D02*
G37*
G36*
X392984Y265342D02*
X392332Y265212D01*
X391778Y264842D01*
X391408Y264289D01*
X391278Y263636D01*
X391408Y262983D01*
X391731Y262500D01*
X391408Y262017D01*
X391278Y261364D01*
X391408Y260711D01*
X391778Y260158D01*
X392332Y259788D01*
X392984Y259658D01*
X393637Y259788D01*
X394191Y260158D01*
X394561Y260711D01*
X394690Y261364D01*
X394561Y262017D01*
X394238Y262500D01*
X394561Y262983D01*
X394690Y263636D01*
X394561Y264289D01*
X394191Y264842D01*
X393637Y265212D01*
X392984Y265342D01*
D02*
G37*
G36*
X443500Y260706D02*
X442847Y260576D01*
X442294Y260206D01*
X441924Y259653D01*
X441794Y259000D01*
X441924Y258347D01*
X442294Y257794D01*
X442847Y257424D01*
X443500Y257294D01*
X444153Y257424D01*
X444706Y257794D01*
X445076Y258347D01*
X445206Y259000D01*
X445076Y259653D01*
X444706Y260206D01*
X444153Y260576D01*
X443500Y260706D01*
D02*
G37*
G36*
X364000D02*
X363347Y260576D01*
X362794Y260206D01*
X362424Y259653D01*
X362294Y259000D01*
X362424Y258347D01*
X362794Y257794D01*
X363347Y257424D01*
X364000Y257294D01*
X364653Y257424D01*
X365206Y257794D01*
X365576Y258347D01*
X365706Y259000D01*
X365576Y259653D01*
X365206Y260206D01*
X364653Y260576D01*
X364000Y260706D01*
D02*
G37*
G36*
X358000D02*
X357347Y260576D01*
X356794Y260206D01*
X356424Y259653D01*
X356294Y259000D01*
X356424Y258347D01*
X356794Y257794D01*
X357347Y257424D01*
X358000Y257294D01*
X358653Y257424D01*
X359206Y257794D01*
X359576Y258347D01*
X359706Y259000D01*
X359576Y259653D01*
X359206Y260206D01*
X358653Y260576D01*
X358000Y260706D01*
D02*
G37*
G36*
X191307Y260498D02*
X190654Y260368D01*
X190101Y259999D01*
X189731Y259445D01*
X189601Y258792D01*
X189731Y258139D01*
X190101Y257586D01*
X190654Y257216D01*
X191307Y257086D01*
X191960Y257216D01*
X192514Y257586D01*
X192883Y258139D01*
X193013Y258792D01*
X192883Y259445D01*
X192514Y259999D01*
X191960Y260368D01*
X191307Y260498D01*
D02*
G37*
G36*
X206307Y257998D02*
X205654Y257869D01*
X205101Y257499D01*
X204731Y256945D01*
X204601Y256292D01*
X204731Y255640D01*
X205101Y255086D01*
X205654Y254716D01*
X206307Y254586D01*
X206960Y254716D01*
X207513Y255086D01*
X207883Y255640D01*
X208013Y256292D01*
X207883Y256945D01*
X207513Y257499D01*
X206960Y257869D01*
X206307Y257998D01*
D02*
G37*
G36*
X533000Y265559D02*
X531561Y265370D01*
X530220Y264815D01*
X529069Y263931D01*
X528185Y262780D01*
X527630Y261439D01*
X527441Y260000D01*
X527630Y258561D01*
X528185Y257220D01*
X529069Y256069D01*
X530220Y255185D01*
X531561Y254630D01*
X533000Y254441D01*
X534439Y254630D01*
X535780Y255185D01*
X536931Y256069D01*
X537815Y257220D01*
X538370Y258561D01*
X538559Y260000D01*
X538370Y261439D01*
X537815Y262780D01*
X536931Y263931D01*
X535780Y264815D01*
X534439Y265370D01*
X533000Y265559D01*
D02*
G37*
G36*
X337740Y260740D02*
X330260D01*
Y253260D01*
X337740D01*
Y260740D01*
D02*
G37*
G36*
X344000Y260772D02*
X343024Y260644D01*
X342114Y260267D01*
X341333Y259667D01*
X340733Y258886D01*
X340356Y257976D01*
X340228Y257000D01*
X340356Y256024D01*
X340733Y255114D01*
X341333Y254332D01*
X342114Y253733D01*
X343024Y253356D01*
X344000Y253228D01*
X344976Y253356D01*
X345886Y253733D01*
X346668Y254332D01*
X347267Y255114D01*
X347644Y256024D01*
X347772Y257000D01*
X347644Y257976D01*
X347267Y258886D01*
X346668Y259667D01*
X345886Y260267D01*
X344976Y260644D01*
X344000Y260772D01*
D02*
G37*
G36*
X131300Y256514D02*
X130647Y256384D01*
X130094Y256014D01*
X129724Y255460D01*
X129594Y254807D01*
X129724Y254155D01*
X130094Y253601D01*
X130647Y253231D01*
X131300Y253101D01*
X131953Y253231D01*
X132507Y253601D01*
X132876Y254155D01*
X133006Y254807D01*
X132876Y255460D01*
X132507Y256014D01*
X131953Y256384D01*
X131300Y256514D01*
D02*
G37*
G36*
X113804D02*
X113152Y256384D01*
X112598Y256014D01*
X112228Y255460D01*
X112098Y254807D01*
X112228Y254155D01*
X112598Y253601D01*
X113152Y253231D01*
X113804Y253101D01*
X114457Y253231D01*
X115011Y253601D01*
X115381Y254155D01*
X115510Y254807D01*
X115381Y255460D01*
X115011Y256014D01*
X114457Y256384D01*
X113804Y256514D01*
D02*
G37*
G36*
X400000Y256206D02*
X399347Y256076D01*
X398794Y255706D01*
X398424Y255153D01*
X398294Y254500D01*
X398424Y253847D01*
X398794Y253294D01*
X399347Y252924D01*
X400000Y252794D01*
X400653Y252924D01*
X401206Y253294D01*
X401576Y253847D01*
X401706Y254500D01*
X401576Y255153D01*
X401206Y255706D01*
X400653Y256076D01*
X400000Y256206D01*
D02*
G37*
G36*
X471000Y257322D02*
X470347Y257192D01*
X469794Y256822D01*
X469424Y256269D01*
X469294Y255616D01*
X469424Y254963D01*
X469747Y254480D01*
X469424Y253997D01*
X469294Y253344D01*
X469424Y252691D01*
X469794Y252138D01*
X470347Y251768D01*
X471000Y251638D01*
X471653Y251768D01*
X472206Y252138D01*
X472576Y252691D01*
X472706Y253344D01*
X472576Y253997D01*
X472253Y254480D01*
X472576Y254963D01*
X472706Y255616D01*
X472576Y256269D01*
X472206Y256822D01*
X471653Y257192D01*
X471000Y257322D01*
D02*
G37*
G36*
X443500Y249708D02*
X442847Y249578D01*
X442294Y249208D01*
X441924Y248655D01*
X441794Y248002D01*
X441924Y247349D01*
X442294Y246795D01*
X442847Y246426D01*
X443500Y246296D01*
X444153Y246426D01*
X444706Y246795D01*
X445076Y247349D01*
X445206Y248002D01*
X445076Y248655D01*
X444706Y249208D01*
X444153Y249578D01*
X443500Y249708D01*
D02*
G37*
G36*
X527100Y247306D02*
X526447Y247176D01*
X525894Y246806D01*
X525524Y246253D01*
X525394Y245600D01*
X525524Y244947D01*
X525894Y244394D01*
X526447Y244024D01*
X527100Y243894D01*
X527753Y244024D01*
X528306Y244394D01*
X528676Y244947D01*
X528806Y245600D01*
X528676Y246253D01*
X528306Y246806D01*
X527753Y247176D01*
X527100Y247306D01*
D02*
G37*
G36*
X391000Y249155D02*
X390347Y249025D01*
X389794Y248655D01*
X389424Y248102D01*
X389294Y247449D01*
X389424Y246796D01*
X389747Y246313D01*
X389424Y245830D01*
X389294Y245177D01*
X389424Y244524D01*
X389794Y243971D01*
X390347Y243601D01*
X391000Y243471D01*
X391653Y243601D01*
X392206Y243971D01*
X392576Y244524D01*
X392706Y245177D01*
X392576Y245830D01*
X392253Y246313D01*
X392576Y246796D01*
X392706Y247449D01*
X392576Y248102D01*
X392206Y248655D01*
X391653Y249025D01*
X391000Y249155D01*
D02*
G37*
G36*
X400000Y244706D02*
X399347Y244576D01*
X398794Y244206D01*
X398424Y243653D01*
X398294Y243000D01*
X398424Y242347D01*
X398794Y241794D01*
X399347Y241424D01*
X400000Y241294D01*
X400653Y241424D01*
X401206Y241794D01*
X401576Y242347D01*
X401706Y243000D01*
X401576Y243653D01*
X401206Y244206D01*
X400653Y244576D01*
X400000Y244706D01*
D02*
G37*
G36*
X363500Y247206D02*
X362847Y247076D01*
X362294Y246706D01*
X361924Y246153D01*
X361794Y245500D01*
X361924Y244847D01*
X362294Y244294D01*
X362533Y244134D01*
X362768Y243749D01*
X362654Y243497D01*
X362424Y243153D01*
X362294Y242500D01*
X362424Y241847D01*
X362794Y241294D01*
X363347Y240924D01*
X364000Y240794D01*
X364653Y240924D01*
X365206Y241294D01*
X365576Y241847D01*
X365706Y242500D01*
X365576Y243153D01*
X365206Y243706D01*
X364967Y243866D01*
X364732Y244251D01*
X364846Y244503D01*
X365076Y244847D01*
X365206Y245500D01*
X365076Y246153D01*
X364706Y246706D01*
X364153Y247076D01*
X363500Y247206D01*
D02*
G37*
G36*
X358000Y244206D02*
X357347Y244076D01*
X356794Y243706D01*
X356424Y243153D01*
X356294Y242500D01*
X356424Y241847D01*
X356794Y241294D01*
X357347Y240924D01*
X358000Y240794D01*
X358653Y240924D01*
X359206Y241294D01*
X359576Y241847D01*
X359706Y242500D01*
X359576Y243153D01*
X359206Y243706D01*
X358653Y244076D01*
X358000Y244206D01*
D02*
G37*
G36*
X540043Y245543D02*
X532957D01*
Y240137D01*
X532457Y239967D01*
X532027Y240527D01*
X531287Y241095D01*
X530425Y241452D01*
X529500Y241574D01*
X528575Y241452D01*
X527713Y241095D01*
X526973Y240527D01*
X526405Y239787D01*
X526048Y238925D01*
X525984Y238442D01*
X525464Y238321D01*
X525206Y238706D01*
X524653Y239076D01*
X524000Y239206D01*
X523347Y239076D01*
X522794Y238706D01*
X522424Y238153D01*
X521870Y237931D01*
X521653Y238076D01*
X521000Y238206D01*
X520347Y238076D01*
X519794Y237706D01*
X519424Y237153D01*
X519294Y236500D01*
X519424Y235847D01*
X519794Y235294D01*
X520347Y234924D01*
X521000Y234794D01*
X521653Y234924D01*
X522206Y235294D01*
X522576Y235847D01*
X523130Y236069D01*
X523347Y235924D01*
X524000Y235794D01*
X524653Y235924D01*
X525206Y236294D01*
X525576Y236847D01*
X525586Y236896D01*
X526104Y236939D01*
X526405Y236213D01*
X526973Y235473D01*
X527713Y234905D01*
X528575Y234548D01*
X529500Y234426D01*
X530425Y234548D01*
X531287Y234905D01*
X532027Y235473D01*
X532595Y236213D01*
X532952Y237075D01*
X533074Y238000D01*
X533063Y238081D01*
X533393Y238457D01*
X540043D01*
Y245543D01*
D02*
G37*
G36*
X443500Y238206D02*
X442847Y238076D01*
X442294Y237706D01*
X441924Y237153D01*
X441794Y236500D01*
X441924Y235847D01*
X442294Y235294D01*
X442847Y234924D01*
X443500Y234794D01*
X444153Y234924D01*
X444706Y235294D01*
X445076Y235847D01*
X445206Y236500D01*
X445076Y237153D01*
X444706Y237706D01*
X444153Y238076D01*
X443500Y238206D01*
D02*
G37*
G36*
X471000Y238952D02*
X470347Y238822D01*
X469794Y238453D01*
X469424Y237899D01*
X469294Y237246D01*
X469424Y236593D01*
X469747Y236110D01*
X469424Y235627D01*
X469294Y234975D01*
X469424Y234322D01*
X469794Y233768D01*
X470347Y233398D01*
X471000Y233269D01*
X471653Y233398D01*
X472206Y233768D01*
X472576Y234322D01*
X472706Y234975D01*
X472576Y235627D01*
X472253Y236110D01*
X472576Y236593D01*
X472706Y237246D01*
X472576Y237899D01*
X472206Y238453D01*
X471653Y238822D01*
X471000Y238952D01*
D02*
G37*
G36*
X148500Y244837D02*
X146989Y244638D01*
X145581Y244055D01*
X144372Y243128D01*
X143445Y241919D01*
X142862Y240511D01*
X142663Y239000D01*
X142862Y237489D01*
X143445Y236081D01*
X144372Y234872D01*
X145581Y233945D01*
X146989Y233362D01*
X148500Y233163D01*
X150011Y233362D01*
X151419Y233945D01*
X152628Y234872D01*
X153555Y236081D01*
X154138Y237489D01*
X154337Y239000D01*
X154138Y240511D01*
X153555Y241919D01*
X152628Y243128D01*
X151419Y244055D01*
X150011Y244638D01*
X148500Y244837D01*
D02*
G37*
G36*
X363512Y234194D02*
X362859Y234064D01*
X362305Y233695D01*
X361936Y233141D01*
X361806Y232488D01*
X361936Y231835D01*
X362305Y231282D01*
X362859Y230912D01*
X363512Y230782D01*
X364165Y230912D01*
X364718Y231282D01*
X365088Y231835D01*
X365218Y232488D01*
X365088Y233141D01*
X364718Y233695D01*
X364165Y234064D01*
X363512Y234194D01*
D02*
G37*
G36*
X536500Y237574D02*
X535575Y237452D01*
X534713Y237095D01*
X533973Y236527D01*
X533405Y235787D01*
X533048Y234925D01*
X532926Y234000D01*
X533048Y233075D01*
X533405Y232213D01*
X533973Y231473D01*
X534713Y230905D01*
X535575Y230548D01*
X536500Y230426D01*
X537425Y230548D01*
X538287Y230905D01*
X539027Y231473D01*
X539595Y232213D01*
X539952Y233075D01*
X540074Y234000D01*
X539952Y234925D01*
X539595Y235787D01*
X539027Y236527D01*
X538287Y237095D01*
X537425Y237452D01*
X536500Y237574D01*
D02*
G37*
G36*
X400000Y233706D02*
X399347Y233576D01*
X398794Y233206D01*
X398424Y232653D01*
X398294Y232000D01*
X398424Y231347D01*
X398794Y230794D01*
X399347Y230424D01*
X400000Y230294D01*
X400653Y230424D01*
X401206Y230794D01*
X401576Y231347D01*
X401706Y232000D01*
X401576Y232653D01*
X401206Y233206D01*
X400653Y233576D01*
X400000Y233706D01*
D02*
G37*
G36*
X390645Y232517D02*
X389992Y232387D01*
X389438Y232017D01*
X389068Y231464D01*
X388938Y230811D01*
X389068Y230158D01*
X389391Y229675D01*
X389068Y229192D01*
X388938Y228539D01*
X389068Y227887D01*
X389438Y227333D01*
X389992Y226963D01*
X390645Y226833D01*
X391297Y226963D01*
X391851Y227333D01*
X392221Y227887D01*
X392351Y228539D01*
X392221Y229192D01*
X391898Y229675D01*
X392221Y230158D01*
X392351Y230811D01*
X392221Y231464D01*
X391851Y232017D01*
X391297Y232387D01*
X390645Y232517D01*
D02*
G37*
G36*
X529500Y233574D02*
X528575Y233452D01*
X527713Y233095D01*
X526973Y232527D01*
X526405Y231787D01*
X526048Y230925D01*
X525926Y230000D01*
X526048Y229075D01*
X526405Y228213D01*
X526973Y227473D01*
X527713Y226905D01*
X528575Y226548D01*
X529500Y226426D01*
X530425Y226548D01*
X531287Y226905D01*
X532027Y227473D01*
X532595Y228213D01*
X532952Y229075D01*
X533074Y230000D01*
X532952Y230925D01*
X532595Y231787D01*
X532027Y232527D01*
X531287Y233095D01*
X530425Y233452D01*
X529500Y233574D01*
D02*
G37*
G36*
X141500Y234206D02*
X140847Y234076D01*
X140294Y233706D01*
X139924Y233153D01*
X139794Y232500D01*
X139924Y231847D01*
X140294Y231294D01*
X140847Y230924D01*
X141001Y230893D01*
X141424Y230653D01*
X141364Y230350D01*
X141294Y230000D01*
X141424Y229347D01*
X141001Y229107D01*
X140847Y229076D01*
X140294Y228706D01*
X139924Y228153D01*
X139794Y227500D01*
X139924Y226847D01*
X140294Y226294D01*
X140847Y225924D01*
X141500Y225794D01*
X142153Y225924D01*
X142706Y226294D01*
X143076Y226847D01*
X143206Y227500D01*
X143076Y228153D01*
X143499Y228393D01*
X143653Y228424D01*
X144206Y228794D01*
X144576Y229347D01*
X144706Y230000D01*
X144576Y230653D01*
X144206Y231206D01*
X143653Y231576D01*
X143499Y231607D01*
X143076Y231847D01*
X143136Y232150D01*
X143206Y232500D01*
X143076Y233153D01*
X142706Y233706D01*
X142153Y234076D01*
X141500Y234206D01*
D02*
G37*
G36*
X364000Y227706D02*
X363347Y227576D01*
X362794Y227206D01*
X362424Y226653D01*
X362294Y226000D01*
X362424Y225347D01*
X362794Y224794D01*
X363347Y224424D01*
X364000Y224294D01*
X364653Y224424D01*
X365206Y224794D01*
X365576Y225347D01*
X365706Y226000D01*
X365576Y226653D01*
X365206Y227206D01*
X364653Y227576D01*
X364000Y227706D01*
D02*
G37*
G36*
X358000D02*
X357347Y227576D01*
X356794Y227206D01*
X356424Y226653D01*
X356294Y226000D01*
X356424Y225347D01*
X356794Y224794D01*
X357347Y224424D01*
X358000Y224294D01*
X358653Y224424D01*
X359206Y224794D01*
X359576Y225347D01*
X359706Y226000D01*
X359576Y226653D01*
X359206Y227206D01*
X358653Y227576D01*
X358000Y227706D01*
D02*
G37*
G36*
X158500Y235337D02*
X156989Y235138D01*
X155581Y234555D01*
X154372Y233628D01*
X153445Y232419D01*
X152862Y231011D01*
X152663Y229500D01*
X152862Y227989D01*
X153445Y226581D01*
X154372Y225372D01*
X155581Y224445D01*
X156989Y223862D01*
X158500Y223663D01*
X160011Y223862D01*
X161419Y224445D01*
X162628Y225372D01*
X163555Y226581D01*
X164138Y227989D01*
X164337Y229500D01*
X164138Y231011D01*
X163555Y232419D01*
X162628Y233628D01*
X161419Y234555D01*
X160011Y235138D01*
X158500Y235337D01*
D02*
G37*
G36*
X536500Y229574D02*
X535575Y229452D01*
X534713Y229095D01*
X533973Y228527D01*
X533405Y227787D01*
X533048Y226925D01*
X532926Y226000D01*
X533048Y225075D01*
X533405Y224213D01*
X533973Y223473D01*
X534713Y222905D01*
X535575Y222548D01*
X536500Y222426D01*
X537425Y222548D01*
X538287Y222905D01*
X539027Y223473D01*
X539595Y224213D01*
X539952Y225075D01*
X540074Y226000D01*
X539952Y226925D01*
X539595Y227787D01*
X539027Y228527D01*
X538287Y229095D01*
X537425Y229452D01*
X536500Y229574D01*
D02*
G37*
G36*
X147300Y222514D02*
X146647Y222384D01*
X146094Y222014D01*
X145724Y221460D01*
X145594Y220808D01*
X145724Y220155D01*
X146094Y219601D01*
X146647Y219231D01*
X147300Y219102D01*
X147953Y219231D01*
X148506Y219601D01*
X148876Y220155D01*
X149006Y220808D01*
X148876Y221460D01*
X148506Y222014D01*
X147953Y222384D01*
X147300Y222514D01*
D02*
G37*
G36*
X161800Y222013D02*
X161147Y221884D01*
X160594Y221514D01*
X160224Y220960D01*
X160094Y220307D01*
X160224Y219655D01*
X160594Y219101D01*
X161147Y218731D01*
X161800Y218601D01*
X162453Y218731D01*
X163006Y219101D01*
X163376Y219655D01*
X163506Y220307D01*
X163376Y220960D01*
X163006Y221514D01*
X162453Y221884D01*
X161800Y222013D01*
D02*
G37*
G36*
X529500Y225574D02*
X528575Y225452D01*
X527713Y225095D01*
X526973Y224527D01*
X526405Y223787D01*
X526048Y222925D01*
X525926Y222000D01*
X526048Y221075D01*
X526405Y220213D01*
X526973Y219473D01*
X527713Y218905D01*
X528575Y218548D01*
X529500Y218426D01*
X530425Y218548D01*
X531287Y218905D01*
X532027Y219473D01*
X532595Y220213D01*
X532952Y221075D01*
X533074Y222000D01*
X532952Y222925D01*
X532595Y223787D01*
X532027Y224527D01*
X531287Y225095D01*
X530425Y225452D01*
X529500Y225574D01*
D02*
G37*
G36*
X141500Y219706D02*
X140847Y219576D01*
X140294Y219206D01*
X139924Y218653D01*
X139794Y218000D01*
X139924Y217347D01*
X140294Y216794D01*
X140847Y216424D01*
X141500Y216294D01*
X142153Y216424D01*
X142706Y216794D01*
X143076Y217347D01*
X143206Y218000D01*
X143076Y218653D01*
X142706Y219206D01*
X142153Y219576D01*
X141500Y219706D01*
D02*
G37*
G36*
X471547Y220933D02*
X470894Y220804D01*
X470341Y220434D01*
X469971Y219880D01*
X469841Y219227D01*
X469971Y218575D01*
X470294Y218092D01*
X469971Y217609D01*
X469841Y216956D01*
X469971Y216303D01*
X470341Y215750D01*
X470894Y215380D01*
X471547Y215250D01*
X472200Y215380D01*
X472753Y215750D01*
X473123Y216303D01*
X473253Y216956D01*
X473123Y217609D01*
X472800Y218092D01*
X473123Y218575D01*
X473253Y219227D01*
X473123Y219880D01*
X472753Y220434D01*
X472200Y220804D01*
X471547Y220933D01*
D02*
G37*
G36*
X536500Y221574D02*
X535575Y221452D01*
X534713Y221095D01*
X533973Y220527D01*
X533405Y219787D01*
X533048Y218925D01*
X532926Y218000D01*
X533048Y217075D01*
X533405Y216213D01*
X533973Y215473D01*
X534713Y214905D01*
X535575Y214548D01*
X536500Y214426D01*
X537425Y214548D01*
X538287Y214905D01*
X539027Y215473D01*
X539595Y216213D01*
X539952Y217075D01*
X540074Y218000D01*
X539952Y218925D01*
X539595Y219787D01*
X539027Y220527D01*
X538287Y221095D01*
X537425Y221452D01*
X536500Y221574D01*
D02*
G37*
G36*
X358185Y216206D02*
X357532Y216076D01*
X356979Y215706D01*
X356609Y215153D01*
X356479Y214500D01*
X356609Y213847D01*
X356979Y213294D01*
X357532Y212924D01*
X358185Y212794D01*
X358838Y212924D01*
X359391Y213294D01*
X359761Y213847D01*
X359891Y214500D01*
X359761Y215153D01*
X359391Y215706D01*
X358838Y216076D01*
X358185Y216206D01*
D02*
G37*
G36*
X364000Y216092D02*
X363347Y215962D01*
X362794Y215592D01*
X362424Y215039D01*
X362332Y214578D01*
X362322Y214526D01*
X362322Y214526D01*
X362294Y214386D01*
X361878Y213967D01*
X361869Y213965D01*
X361703Y213932D01*
X361149Y213562D01*
X360780Y213008D01*
X360650Y212356D01*
X360780Y211703D01*
X361149Y211149D01*
X361703Y210780D01*
X362356Y210650D01*
X363008Y210780D01*
X363562Y211149D01*
X363932Y211703D01*
X364023Y212163D01*
X364034Y212215D01*
X364034Y212216D01*
X364062Y212356D01*
X364478Y212775D01*
X364653Y212810D01*
X365206Y213179D01*
X365576Y213733D01*
X365706Y214386D01*
X365576Y215039D01*
X365206Y215592D01*
X364653Y215962D01*
X364000Y216092D01*
D02*
G37*
G36*
X529500Y217574D02*
X528575Y217452D01*
X527713Y217095D01*
X526973Y216527D01*
X526405Y215787D01*
X526048Y214925D01*
X525926Y214000D01*
X526048Y213075D01*
X526405Y212213D01*
X526973Y211473D01*
X527713Y210905D01*
X528575Y210548D01*
X529500Y210426D01*
X530425Y210548D01*
X531287Y210905D01*
X532027Y211473D01*
X532595Y212213D01*
X532952Y213075D01*
X533074Y214000D01*
X532952Y214925D01*
X532595Y215787D01*
X532027Y216527D01*
X531287Y217095D01*
X530425Y217452D01*
X529500Y217574D01*
D02*
G37*
G36*
X392159Y215342D02*
X391506Y215212D01*
X390953Y214842D01*
X390583Y214289D01*
X390453Y213636D01*
X390583Y212983D01*
X390905Y212500D01*
X390583Y212017D01*
X390453Y211364D01*
X390583Y210711D01*
X390953Y210158D01*
X391506Y209788D01*
X392159Y209658D01*
X392812Y209788D01*
X393365Y210158D01*
X393735Y210711D01*
X393865Y211364D01*
X393735Y212017D01*
X393412Y212500D01*
X393735Y212983D01*
X393865Y213636D01*
X393735Y214289D01*
X393365Y214842D01*
X392812Y215212D01*
X392159Y215342D01*
D02*
G37*
G36*
X235000Y211706D02*
X234347Y211576D01*
X233794Y211206D01*
X233424Y210653D01*
X233294Y210000D01*
X233424Y209347D01*
X233794Y208794D01*
X234347Y208424D01*
X235000Y208294D01*
X235653Y208424D01*
X236206Y208794D01*
X236576Y209347D01*
X236706Y210000D01*
X236576Y210653D01*
X236206Y211206D01*
X235653Y211576D01*
X235000Y211706D01*
D02*
G37*
G36*
X443500Y201706D02*
X442847Y201576D01*
X442294Y201206D01*
X441924Y200653D01*
X441794Y200000D01*
X441924Y199347D01*
X442294Y198794D01*
X442847Y198424D01*
X443500Y198294D01*
X444153Y198424D01*
X444706Y198794D01*
X445076Y199347D01*
X445206Y200000D01*
X445076Y200653D01*
X444706Y201206D01*
X444153Y201576D01*
X443500Y201706D01*
D02*
G37*
G36*
X146800Y198513D02*
X146147Y198384D01*
X145594Y198014D01*
X145224Y197460D01*
X145094Y196808D01*
X145224Y196155D01*
X145594Y195601D01*
X146147Y195231D01*
X146800Y195101D01*
X147453Y195231D01*
X148006Y195601D01*
X148376Y196155D01*
X148506Y196808D01*
X148376Y197460D01*
X148006Y198014D01*
X147453Y198384D01*
X146800Y198513D01*
D02*
G37*
G36*
X471067Y187772D02*
X470414Y187642D01*
X469861Y187272D01*
X469491Y186719D01*
X469361Y186066D01*
X469491Y185413D01*
X469813Y184930D01*
X469491Y184447D01*
X469361Y183794D01*
X469491Y183141D01*
X469861Y182588D01*
X470414Y182218D01*
X471067Y182088D01*
X471720Y182218D01*
X472273Y182588D01*
X472643Y183141D01*
X472773Y183794D01*
X472643Y184447D01*
X472320Y184930D01*
X472643Y185413D01*
X472773Y186066D01*
X472643Y186719D01*
X472273Y187272D01*
X471720Y187642D01*
X471067Y187772D01*
D02*
G37*
G36*
X443755Y185028D02*
X443102Y184898D01*
X442549Y184529D01*
X442179Y183975D01*
X442049Y183322D01*
X442179Y182669D01*
X442549Y182116D01*
X443102Y181746D01*
X443755Y181616D01*
X444408Y181746D01*
X444961Y182116D01*
X445331Y182669D01*
X445461Y183322D01*
X445331Y183975D01*
X444961Y184529D01*
X444408Y184898D01*
X443755Y185028D01*
D02*
G37*
G36*
X282650Y184911D02*
X281997Y184781D01*
X281443Y184411D01*
X281073Y183858D01*
X280944Y183205D01*
X281073Y182552D01*
X281443Y181999D01*
X281997Y181629D01*
X282650Y181499D01*
X283302Y181629D01*
X283856Y181999D01*
X284226Y182552D01*
X284356Y183205D01*
X284226Y183858D01*
X283856Y184411D01*
X283302Y184781D01*
X282650Y184911D01*
D02*
G37*
G36*
X529556Y184762D02*
X528903Y184632D01*
X528349Y184262D01*
X527980Y183709D01*
X527850Y183056D01*
X527980Y182403D01*
X528349Y181849D01*
X528903Y181480D01*
X529556Y181350D01*
X530208Y181480D01*
X530762Y181849D01*
X531132Y182403D01*
X531262Y183056D01*
X531132Y183709D01*
X530762Y184262D01*
X530208Y184632D01*
X529556Y184762D01*
D02*
G37*
G36*
X304650Y183911D02*
X303997Y183781D01*
X303443Y183411D01*
X303074Y182858D01*
X302944Y182205D01*
X303074Y181552D01*
X303443Y180999D01*
X303997Y180629D01*
X304650Y180499D01*
X305303Y180629D01*
X305856Y180999D01*
X306226Y181552D01*
X306356Y182205D01*
X306226Y182858D01*
X305856Y183411D01*
X305303Y183781D01*
X304650Y183911D01*
D02*
G37*
G36*
X540043Y183543D02*
X532957D01*
Y178137D01*
X532457Y177967D01*
X532027Y178527D01*
X531287Y179095D01*
X530425Y179452D01*
X529500Y179574D01*
X528575Y179452D01*
X527713Y179095D01*
X526973Y178527D01*
X526405Y177787D01*
X526048Y176925D01*
X525926Y176000D01*
X526048Y175075D01*
X526405Y174213D01*
X526973Y173473D01*
X527713Y172905D01*
X528575Y172548D01*
X529500Y172426D01*
X530425Y172548D01*
X531287Y172905D01*
X532027Y173473D01*
X532595Y174213D01*
X532952Y175075D01*
X533074Y176000D01*
X533063Y176081D01*
X533393Y176457D01*
X540043D01*
Y183543D01*
D02*
G37*
G36*
X364000Y181206D02*
X363347Y181076D01*
X362794Y180706D01*
X362424Y180153D01*
X362294Y179500D01*
X362424Y178847D01*
X362794Y178294D01*
X363347Y177924D01*
X364000Y177794D01*
X364653Y177924D01*
X365206Y178294D01*
X365576Y178847D01*
X365706Y179500D01*
X365576Y180153D01*
X365206Y180706D01*
X364653Y181076D01*
X364000Y181206D01*
D02*
G37*
G36*
X358000D02*
X357347Y181076D01*
X356794Y180706D01*
X356424Y180153D01*
X356294Y179500D01*
X356424Y178847D01*
X356794Y178294D01*
X357347Y177924D01*
X358000Y177794D01*
X358653Y177924D01*
X359206Y178294D01*
X359576Y178847D01*
X359706Y179500D01*
X359576Y180153D01*
X359206Y180706D01*
X358653Y181076D01*
X358000Y181206D01*
D02*
G37*
G36*
X131800Y180633D02*
X131147Y180503D01*
X130594Y180133D01*
X130224Y179580D01*
X130094Y178927D01*
X130224Y178274D01*
X130594Y177720D01*
X131147Y177351D01*
X131800Y177221D01*
X132453Y177351D01*
X133007Y177720D01*
X133376Y178274D01*
X133506Y178927D01*
X133376Y179580D01*
X133007Y180133D01*
X132453Y180503D01*
X131800Y180633D01*
D02*
G37*
G36*
X113804D02*
X113152Y180503D01*
X112598Y180133D01*
X112228Y179580D01*
X112098Y178927D01*
X112228Y178274D01*
X112598Y177720D01*
X113152Y177351D01*
X113804Y177221D01*
X114457Y177351D01*
X115011Y177720D01*
X115381Y178274D01*
X115510Y178927D01*
X115381Y179580D01*
X115011Y180133D01*
X114457Y180503D01*
X113804Y180633D01*
D02*
G37*
G36*
X99300D02*
X98647Y180503D01*
X98094Y180133D01*
X97724Y179580D01*
X97594Y178927D01*
X97724Y178274D01*
X98094Y177720D01*
X98647Y177351D01*
X99300Y177221D01*
X99953Y177351D01*
X100506Y177720D01*
X100876Y178274D01*
X101006Y178927D01*
X100876Y179580D01*
X100506Y180133D01*
X99953Y180503D01*
X99300Y180633D01*
D02*
G37*
G36*
X400255Y180528D02*
X399602Y180398D01*
X399048Y180029D01*
X398679Y179475D01*
X398549Y178822D01*
X398679Y178169D01*
X399048Y177616D01*
X399602Y177246D01*
X400255Y177116D01*
X400908Y177246D01*
X401461Y177616D01*
X401831Y178169D01*
X401961Y178822D01*
X401831Y179475D01*
X401461Y180029D01*
X400908Y180398D01*
X400255Y180528D01*
D02*
G37*
G36*
X313650Y178655D02*
X312997Y178525D01*
X312443Y178155D01*
X312073Y177602D01*
X311944Y176949D01*
X312073Y176296D01*
X312443Y175742D01*
X312997Y175373D01*
X313650Y175243D01*
X314302Y175373D01*
X314856Y175742D01*
X315226Y176296D01*
X315356Y176949D01*
X315226Y177602D01*
X314856Y178155D01*
X314302Y178525D01*
X313650Y178655D01*
D02*
G37*
G36*
X393204Y178164D02*
X392551Y178034D01*
X391998Y177664D01*
X391628Y177111D01*
X391498Y176458D01*
X391628Y175805D01*
X391951Y175322D01*
X391628Y174839D01*
X391498Y174186D01*
X391628Y173533D01*
X391998Y172980D01*
X392551Y172610D01*
X393204Y172480D01*
X393857Y172610D01*
X394410Y172980D01*
X394780Y173533D01*
X394910Y174186D01*
X394780Y174839D01*
X394458Y175322D01*
X394780Y175805D01*
X394910Y176458D01*
X394780Y177111D01*
X394410Y177664D01*
X393857Y178034D01*
X393204Y178164D01*
D02*
G37*
G36*
X364322Y174292D02*
X363669Y174163D01*
X363116Y173793D01*
X362746Y173239D01*
X362616Y172586D01*
X362746Y171933D01*
X363116Y171380D01*
X363669Y171010D01*
X364322Y170880D01*
X364975Y171010D01*
X365529Y171380D01*
X365898Y171933D01*
X366028Y172586D01*
X365898Y173239D01*
X365529Y173793D01*
X364975Y174163D01*
X364322Y174292D01*
D02*
G37*
G36*
X443755Y173528D02*
X443102Y173398D01*
X442549Y173029D01*
X442179Y172475D01*
X442049Y171822D01*
X442179Y171169D01*
X442549Y170616D01*
X443102Y170246D01*
X443755Y170116D01*
X444408Y170246D01*
X444961Y170616D01*
X445331Y171169D01*
X445461Y171822D01*
X445331Y172475D01*
X444961Y173029D01*
X444408Y173398D01*
X443755Y173528D01*
D02*
G37*
G36*
X211500Y172706D02*
X210847Y172576D01*
X210294Y172206D01*
X209924Y171653D01*
X209794Y171000D01*
X209924Y170347D01*
X210294Y169794D01*
X210847Y169424D01*
X211500Y169294D01*
X212153Y169424D01*
X212706Y169794D01*
X213076Y170347D01*
X213206Y171000D01*
X213076Y171653D01*
X212706Y172206D01*
X212153Y172576D01*
X211500Y172706D01*
D02*
G37*
G36*
X198500Y172206D02*
X197847Y172076D01*
X197294Y171706D01*
X196924Y171153D01*
X196794Y170500D01*
X196924Y169847D01*
X197294Y169294D01*
X197847Y168924D01*
X198500Y168794D01*
X199153Y168924D01*
X199706Y169294D01*
X200076Y169847D01*
X200206Y170500D01*
X200076Y171153D01*
X199706Y171706D01*
X199153Y172076D01*
X198500Y172206D01*
D02*
G37*
G36*
X278650Y171911D02*
X277997Y171781D01*
X277443Y171411D01*
X277074Y170858D01*
X276944Y170205D01*
X277074Y169552D01*
X277443Y168999D01*
X277997Y168629D01*
X278650Y168499D01*
X279303Y168629D01*
X279856Y168999D01*
X280226Y169552D01*
X280356Y170205D01*
X280226Y170858D01*
X279856Y171411D01*
X279303Y171781D01*
X278650Y171911D01*
D02*
G37*
G36*
X536500Y175574D02*
X535575Y175452D01*
X534713Y175095D01*
X533973Y174527D01*
X533405Y173787D01*
X533048Y172925D01*
X532926Y172000D01*
X533048Y171075D01*
X533405Y170213D01*
X533973Y169473D01*
X534713Y168905D01*
X535575Y168548D01*
X536500Y168426D01*
X537425Y168548D01*
X538287Y168905D01*
X539027Y169473D01*
X539595Y170213D01*
X539952Y171075D01*
X540074Y172000D01*
X539952Y172925D01*
X539595Y173787D01*
X539027Y174527D01*
X538287Y175095D01*
X537425Y175452D01*
X536500Y175574D01*
D02*
G37*
G36*
X319650Y170911D02*
X318997Y170781D01*
X318443Y170411D01*
X318074Y169858D01*
X317944Y169205D01*
X318074Y168552D01*
X318443Y167999D01*
X318997Y167629D01*
X319650Y167499D01*
X320303Y167629D01*
X320856Y167999D01*
X321226Y168552D01*
X321356Y169205D01*
X321226Y169858D01*
X320856Y170411D01*
X320303Y170781D01*
X319650Y170911D01*
D02*
G37*
G36*
X519132Y169837D02*
X518479Y169708D01*
X517925Y169338D01*
X517555Y168784D01*
X517425Y168131D01*
X517555Y167479D01*
X517925Y166925D01*
X518479Y166555D01*
X519132Y166426D01*
X519784Y166555D01*
X520338Y166925D01*
X520708Y167479D01*
X520837Y168131D01*
X520708Y168784D01*
X520338Y169338D01*
X519784Y169708D01*
X519132Y169837D01*
D02*
G37*
G36*
X400255Y169028D02*
X399602Y168898D01*
X399048Y168529D01*
X398679Y167975D01*
X398549Y167322D01*
X398679Y166669D01*
X399048Y166116D01*
X399602Y165746D01*
X400255Y165616D01*
X400908Y165746D01*
X401461Y166116D01*
X401831Y166669D01*
X401961Y167322D01*
X401831Y167975D01*
X401461Y168529D01*
X400908Y168898D01*
X400255Y169028D01*
D02*
G37*
G36*
X471277Y170313D02*
X470625Y170183D01*
X470071Y169813D01*
X469701Y169260D01*
X469571Y168607D01*
X469701Y167954D01*
X470024Y167471D01*
X469701Y166988D01*
X469571Y166335D01*
X469701Y165682D01*
X470071Y165129D01*
X470625Y164759D01*
X471277Y164629D01*
X471930Y164759D01*
X472484Y165129D01*
X472854Y165682D01*
X472983Y166335D01*
X472854Y166988D01*
X472531Y167471D01*
X472854Y167954D01*
X472983Y168607D01*
X472854Y169260D01*
X472484Y169813D01*
X471930Y170183D01*
X471277Y170313D01*
D02*
G37*
G36*
X529500Y171574D02*
X528575Y171452D01*
X527713Y171095D01*
X526973Y170527D01*
X526405Y169787D01*
X526048Y168925D01*
X525926Y168000D01*
X526048Y167075D01*
X526405Y166213D01*
X526973Y165473D01*
X527713Y164905D01*
X528575Y164548D01*
X529500Y164426D01*
X530425Y164548D01*
X531287Y164905D01*
X532027Y165473D01*
X532595Y166213D01*
X532952Y167075D01*
X533074Y168000D01*
X532952Y168925D01*
X532595Y169787D01*
X532027Y170527D01*
X531287Y171095D01*
X530425Y171452D01*
X529500Y171574D01*
D02*
G37*
G36*
X358614Y167206D02*
X357961Y167076D01*
X357408Y166706D01*
X357038Y166153D01*
X356908Y165500D01*
X357038Y164847D01*
X357408Y164294D01*
X357961Y163924D01*
X358614Y163794D01*
X359267Y163924D01*
X359821Y164294D01*
X360190Y164847D01*
X360320Y165500D01*
X360190Y166153D01*
X359821Y166706D01*
X359267Y167076D01*
X358614Y167206D01*
D02*
G37*
G36*
X198000D02*
X197347Y167076D01*
X196794Y166706D01*
X196424Y166153D01*
X196294Y165500D01*
X196424Y164847D01*
X196794Y164294D01*
X197347Y163924D01*
X198000Y163794D01*
X198653Y163924D01*
X199206Y164294D01*
X199576Y164847D01*
X199706Y165500D01*
X199576Y166153D01*
X199206Y166706D01*
X198653Y167076D01*
X198000Y167206D01*
D02*
G37*
G36*
X269468Y164500D02*
X267500D01*
Y162531D01*
X269468D01*
Y164500D01*
D02*
G37*
G36*
X269256Y178256D02*
X258744D01*
Y172744D01*
Y167744D01*
Y162744D01*
X263531D01*
Y162531D01*
X265500D01*
Y165500D01*
X266500D01*
Y166500D01*
X269468D01*
Y168468D01*
X269256D01*
Y172744D01*
Y178256D01*
D02*
G37*
G36*
X522500Y165706D02*
X521847Y165576D01*
X521294Y165206D01*
X520924Y164653D01*
X520794Y164000D01*
X520924Y163347D01*
X521294Y162794D01*
X521847Y162424D01*
X522500Y162294D01*
X523153Y162424D01*
X523706Y162794D01*
X524076Y163347D01*
X524206Y164000D01*
X524076Y164653D01*
X523706Y165206D01*
X523153Y165576D01*
X522500Y165706D01*
D02*
G37*
G36*
X210500D02*
X209847Y165576D01*
X209294Y165206D01*
X208924Y164653D01*
X208794Y164000D01*
X208924Y163347D01*
X209294Y162794D01*
X209847Y162424D01*
X210500Y162294D01*
X211153Y162424D01*
X211706Y162794D01*
X212076Y163347D01*
X212206Y164000D01*
X212076Y164653D01*
X211706Y165206D01*
X211153Y165576D01*
X210500Y165706D01*
D02*
G37*
G36*
X536500Y167574D02*
X535575Y167452D01*
X534713Y167095D01*
X533973Y166527D01*
X533405Y165787D01*
X533048Y164925D01*
X532926Y164000D01*
X533048Y163075D01*
X533405Y162213D01*
X533973Y161473D01*
X534713Y160905D01*
X535575Y160548D01*
X536500Y160426D01*
X537425Y160548D01*
X538287Y160905D01*
X539027Y161473D01*
X539595Y162213D01*
X539952Y163075D01*
X540074Y164000D01*
X539952Y164925D01*
X539595Y165787D01*
X539027Y166527D01*
X538287Y167095D01*
X537425Y167452D01*
X536500Y167574D01*
D02*
G37*
G36*
X320000Y165842D02*
X319347Y165712D01*
X318794Y165342D01*
X318424Y164789D01*
X318294Y164136D01*
X318424Y163483D01*
X318747Y163000D01*
X318424Y162517D01*
X318294Y161864D01*
X318424Y161211D01*
X318794Y160658D01*
X319347Y160288D01*
X320000Y160158D01*
X320653Y160288D01*
X321206Y160658D01*
X321576Y161211D01*
X321706Y161864D01*
X321576Y162517D01*
X321253Y163000D01*
X321576Y163483D01*
X321706Y164136D01*
X321576Y164789D01*
X321206Y165342D01*
X320653Y165712D01*
X320000Y165842D01*
D02*
G37*
G36*
X299650Y162911D02*
X298997Y162781D01*
X298443Y162411D01*
X298074Y161858D01*
X297944Y161205D01*
X298074Y160552D01*
X298443Y159999D01*
X298997Y159629D01*
X299650Y159499D01*
X300303Y159629D01*
X300856Y159999D01*
X301226Y160552D01*
X301356Y161205D01*
X301226Y161858D01*
X300856Y162411D01*
X300303Y162781D01*
X299650Y162911D01*
D02*
G37*
G36*
X443755Y162530D02*
X443102Y162400D01*
X442549Y162030D01*
X442179Y161477D01*
X442049Y160824D01*
X442179Y160171D01*
X442549Y159618D01*
X443102Y159248D01*
X443755Y159118D01*
X444408Y159248D01*
X444961Y159618D01*
X445331Y160171D01*
X445461Y160824D01*
X445331Y161477D01*
X444961Y162030D01*
X444408Y162400D01*
X443755Y162530D01*
D02*
G37*
G36*
X205500Y162206D02*
X204847Y162076D01*
X204294Y161706D01*
X203924Y161153D01*
X203794Y160500D01*
X203924Y159847D01*
X204294Y159294D01*
X204847Y158924D01*
X205500Y158794D01*
X206153Y158924D01*
X206706Y159294D01*
X207076Y159847D01*
X207206Y160500D01*
X207076Y161153D01*
X206706Y161706D01*
X206153Y162076D01*
X205500Y162206D01*
D02*
G37*
G36*
X364000Y164706D02*
X363347Y164576D01*
X362794Y164206D01*
X362424Y163653D01*
X362294Y163000D01*
X362424Y162347D01*
X362638Y162027D01*
X362533Y161412D01*
X362433Y161345D01*
X362063Y160792D01*
X361933Y160139D01*
X362063Y159486D01*
X362433Y158933D01*
X362986Y158563D01*
X363639Y158433D01*
X364292Y158563D01*
X364845Y158933D01*
X365215Y159486D01*
X365345Y160139D01*
X365215Y160792D01*
X365001Y161112D01*
X365106Y161727D01*
X365206Y161794D01*
X365576Y162347D01*
X365706Y163000D01*
X365576Y163653D01*
X365206Y164206D01*
X364653Y164576D01*
X364000Y164706D01*
D02*
G37*
G36*
X345000Y164772D02*
X344024Y164644D01*
X343114Y164267D01*
X342333Y163668D01*
X341733Y162886D01*
X341356Y161976D01*
X341228Y161000D01*
X341356Y160024D01*
X341733Y159114D01*
X342333Y158333D01*
X343114Y157733D01*
X344024Y157356D01*
X345000Y157228D01*
X345976Y157356D01*
X346886Y157733D01*
X347668Y158333D01*
X348267Y159114D01*
X348644Y160024D01*
X348772Y161000D01*
X348644Y161976D01*
X348267Y162886D01*
X347668Y163668D01*
X346886Y164267D01*
X345976Y164644D01*
X345000Y164772D01*
D02*
G37*
G36*
X335000D02*
X334024Y164644D01*
X333114Y164267D01*
X332332Y163668D01*
X331733Y162886D01*
X331356Y161976D01*
X331228Y161000D01*
X331356Y160024D01*
X331733Y159114D01*
X332332Y158333D01*
X333114Y157733D01*
X334024Y157356D01*
X335000Y157228D01*
X335976Y157356D01*
X336886Y157733D01*
X337667Y158333D01*
X338267Y159114D01*
X338644Y160024D01*
X338772Y161000D01*
X338644Y161976D01*
X338267Y162886D01*
X337667Y163668D01*
X336886Y164267D01*
X335976Y164644D01*
X335000Y164772D01*
D02*
G37*
G36*
X391506Y162460D02*
X390853Y162331D01*
X390299Y161961D01*
X389930Y161407D01*
X389800Y160755D01*
X389930Y160102D01*
X390299Y159548D01*
X390853Y159178D01*
X391459Y159058D01*
X391422Y158872D01*
X391552Y158219D01*
X391922Y157666D01*
X392475Y157296D01*
X393128Y157166D01*
X393781Y157296D01*
X394334Y157666D01*
X394704Y158219D01*
X394834Y158872D01*
X394704Y159525D01*
X394334Y160078D01*
X393781Y160448D01*
X393175Y160569D01*
X393212Y160755D01*
X393082Y161407D01*
X392712Y161961D01*
X392159Y162331D01*
X391506Y162460D01*
D02*
G37*
G36*
X529500Y163574D02*
X528575Y163452D01*
X527713Y163095D01*
X526973Y162527D01*
X526405Y161787D01*
X526048Y160925D01*
X525926Y160000D01*
X526048Y159075D01*
X526405Y158213D01*
X526973Y157473D01*
X527713Y156905D01*
X528575Y156548D01*
X529500Y156426D01*
X530425Y156548D01*
X531287Y156905D01*
X532027Y157473D01*
X532595Y158213D01*
X532952Y159075D01*
X533074Y160000D01*
X532952Y160925D01*
X532595Y161787D01*
X532027Y162527D01*
X531287Y163095D01*
X530425Y163452D01*
X529500Y163574D01*
D02*
G37*
G36*
X304500Y159761D02*
X303847Y159631D01*
X303294Y159262D01*
X302924Y158708D01*
X302794Y158055D01*
X302924Y157402D01*
X303294Y156849D01*
X303847Y156479D01*
X304500Y156349D01*
X305153Y156479D01*
X305706Y156849D01*
X306076Y157402D01*
X306206Y158055D01*
X306076Y158708D01*
X305706Y159262D01*
X305153Y159631D01*
X304500Y159761D01*
D02*
G37*
G36*
X208500Y159706D02*
X207847Y159576D01*
X207294Y159206D01*
X206924Y158653D01*
X206794Y158000D01*
X206924Y157347D01*
X207294Y156794D01*
X207847Y156424D01*
X208500Y156294D01*
X209153Y156424D01*
X209706Y156794D01*
X210076Y157347D01*
X210206Y158000D01*
X210076Y158653D01*
X209706Y159206D01*
X209153Y159576D01*
X208500Y159706D01*
D02*
G37*
G36*
X182500Y159206D02*
X181847Y159076D01*
X181294Y158706D01*
X180924Y158153D01*
X180794Y157500D01*
X180924Y156847D01*
X181294Y156294D01*
X181847Y155924D01*
X182500Y155794D01*
X183153Y155924D01*
X183706Y156294D01*
X184076Y156847D01*
X184206Y157500D01*
X184076Y158153D01*
X183706Y158706D01*
X183153Y159076D01*
X182500Y159206D01*
D02*
G37*
G36*
X400255Y157528D02*
X399602Y157398D01*
X399048Y157029D01*
X398679Y156475D01*
X398549Y155822D01*
X398679Y155169D01*
X399048Y154616D01*
X399602Y154246D01*
X400255Y154116D01*
X400908Y154246D01*
X401461Y154616D01*
X401831Y155169D01*
X401961Y155822D01*
X401831Y156475D01*
X401461Y157029D01*
X400908Y157398D01*
X400255Y157528D01*
D02*
G37*
G36*
X536500Y159574D02*
X535575Y159452D01*
X534713Y159095D01*
X533973Y158527D01*
X533405Y157787D01*
X533048Y156925D01*
X532926Y156000D01*
X533048Y155075D01*
X533405Y154213D01*
X533973Y153473D01*
X534713Y152905D01*
X535575Y152548D01*
X536500Y152426D01*
X537425Y152548D01*
X538287Y152905D01*
X539027Y153473D01*
X539595Y154213D01*
X539952Y155075D01*
X540074Y156000D01*
X539952Y156925D01*
X539595Y157787D01*
X539027Y158527D01*
X538287Y159095D01*
X537425Y159452D01*
X536500Y159574D01*
D02*
G37*
G36*
X220000Y154706D02*
X219347Y154576D01*
X218794Y154206D01*
X218424Y153653D01*
X218294Y153000D01*
X218424Y152347D01*
X218794Y151794D01*
X219347Y151424D01*
X220000Y151294D01*
X220653Y151424D01*
X221206Y151794D01*
X221576Y152347D01*
X221706Y153000D01*
X221576Y153653D01*
X221206Y154206D01*
X220653Y154576D01*
X220000Y154706D01*
D02*
G37*
G36*
X198000D02*
X197347Y154576D01*
X196794Y154206D01*
X196424Y153653D01*
X196294Y153000D01*
X196424Y152347D01*
X196794Y151794D01*
X197347Y151424D01*
X198000Y151294D01*
X198653Y151424D01*
X199206Y151794D01*
X199576Y152347D01*
X199706Y153000D01*
X199576Y153653D01*
X199206Y154206D01*
X198653Y154576D01*
X198000Y154706D01*
D02*
G37*
G36*
X294650Y152911D02*
X293997Y152781D01*
X293443Y152411D01*
X293074Y151858D01*
X292944Y151205D01*
X293074Y150552D01*
X293443Y149998D01*
X293997Y149629D01*
X294650Y149499D01*
X295303Y149629D01*
X295856Y149998D01*
X296226Y150552D01*
X296356Y151205D01*
X296226Y151858D01*
X295856Y152411D01*
X295303Y152781D01*
X294650Y152911D01*
D02*
G37*
G36*
X529500Y155574D02*
X528575Y155452D01*
X527713Y155095D01*
X526973Y154527D01*
X526405Y153787D01*
X526048Y152925D01*
X525926Y152000D01*
X526048Y151075D01*
X526405Y150213D01*
X526973Y149473D01*
X527713Y148905D01*
X528575Y148548D01*
X529500Y148426D01*
X530425Y148548D01*
X531287Y148905D01*
X532027Y149473D01*
X532595Y150213D01*
X532952Y151075D01*
X533074Y152000D01*
X532952Y152925D01*
X532595Y153787D01*
X532027Y154527D01*
X531287Y155095D01*
X530425Y155452D01*
X529500Y155574D01*
D02*
G37*
G36*
X443755Y151028D02*
X443102Y150898D01*
X442549Y150529D01*
X442179Y149975D01*
X442049Y149322D01*
X442179Y148669D01*
X442549Y148116D01*
X443102Y147746D01*
X443755Y147616D01*
X444408Y147746D01*
X444961Y148116D01*
X445331Y148669D01*
X445461Y149322D01*
X445331Y149975D01*
X444961Y150529D01*
X444408Y150898D01*
X443755Y151028D01*
D02*
G37*
G36*
X345000Y154772D02*
X344024Y154644D01*
X343114Y154267D01*
X342333Y153667D01*
X341733Y152886D01*
X341356Y151976D01*
X341228Y151000D01*
X341356Y150024D01*
X341733Y149114D01*
X342333Y148333D01*
X343114Y147733D01*
X344024Y147356D01*
X345000Y147228D01*
X345976Y147356D01*
X346886Y147733D01*
X347668Y148333D01*
X348267Y149114D01*
X348644Y150024D01*
X348772Y151000D01*
X348644Y151976D01*
X348267Y152886D01*
X347668Y153667D01*
X346886Y154267D01*
X345976Y154644D01*
X345000Y154772D01*
D02*
G37*
G36*
X335000D02*
X334024Y154644D01*
X333114Y154267D01*
X332332Y153667D01*
X331733Y152886D01*
X331356Y151976D01*
X331228Y151000D01*
X331356Y150024D01*
X331733Y149114D01*
X332332Y148333D01*
X333114Y147733D01*
X334024Y147356D01*
X335000Y147228D01*
X335976Y147356D01*
X336886Y147733D01*
X337667Y148333D01*
X338267Y149114D01*
X338644Y150024D01*
X338772Y151000D01*
X338644Y151976D01*
X338267Y152886D01*
X337667Y153667D01*
X336886Y154267D01*
X335976Y154644D01*
X335000Y154772D01*
D02*
G37*
G36*
X211000Y149706D02*
X210347Y149576D01*
X209794Y149206D01*
X209424Y148653D01*
X209294Y148000D01*
X209424Y147347D01*
X209794Y146794D01*
X210347Y146424D01*
X211000Y146294D01*
X211653Y146424D01*
X212206Y146794D01*
X212576Y147347D01*
X212706Y148000D01*
X212576Y148653D01*
X212206Y149206D01*
X211653Y149576D01*
X211000Y149706D01*
D02*
G37*
G36*
X471000Y151810D02*
X470347Y151680D01*
X469794Y151311D01*
X469424Y150757D01*
X469294Y150104D01*
X469424Y149451D01*
X469747Y148969D01*
X469424Y148486D01*
X469294Y147833D01*
X469424Y147180D01*
X469794Y146626D01*
X470347Y146256D01*
X471000Y146127D01*
X471653Y146256D01*
X472206Y146626D01*
X472576Y147180D01*
X472706Y147833D01*
X472576Y148486D01*
X472253Y148969D01*
X472576Y149451D01*
X472706Y150104D01*
X472576Y150757D01*
X472206Y151311D01*
X471653Y151680D01*
X471000Y151810D01*
D02*
G37*
G36*
X265650Y147911D02*
X264997Y147781D01*
X264443Y147411D01*
X264073Y146858D01*
X263944Y146205D01*
X264073Y145552D01*
X264443Y144999D01*
X264997Y144629D01*
X265650Y144499D01*
X266302Y144629D01*
X266856Y144999D01*
X267226Y145552D01*
X267356Y146205D01*
X267226Y146858D01*
X266856Y147411D01*
X266302Y147781D01*
X265650Y147911D01*
D02*
G37*
G36*
X358811Y147517D02*
X358158Y147388D01*
X357605Y147018D01*
X357235Y146464D01*
X357105Y145811D01*
X357235Y145159D01*
X357605Y144605D01*
X358158Y144235D01*
X358811Y144105D01*
X359464Y144235D01*
X360018Y144605D01*
X360387Y145159D01*
X360517Y145811D01*
X360387Y146464D01*
X360018Y147018D01*
X359464Y147388D01*
X358811Y147517D01*
D02*
G37*
G36*
X400255Y146528D02*
X399602Y146398D01*
X399048Y146029D01*
X398679Y145475D01*
X398549Y144822D01*
X398679Y144169D01*
X399048Y143616D01*
X399602Y143246D01*
X400255Y143116D01*
X400908Y143246D01*
X401461Y143616D01*
X401831Y144169D01*
X401961Y144822D01*
X401831Y145475D01*
X401461Y146029D01*
X400908Y146398D01*
X400255Y146528D01*
D02*
G37*
G36*
X364500Y147706D02*
X363847Y147576D01*
X363294Y147206D01*
X362924Y146653D01*
X362794Y146000D01*
X362924Y145347D01*
X362602Y144960D01*
X362439Y144851D01*
X362069Y144298D01*
X361939Y143645D01*
X362069Y142992D01*
X362439Y142438D01*
X362992Y142069D01*
X363645Y141939D01*
X364298Y142069D01*
X364851Y142438D01*
X365221Y142992D01*
X365351Y143645D01*
X365221Y144298D01*
X365543Y144684D01*
X365706Y144794D01*
X366076Y145347D01*
X366206Y146000D01*
X366076Y146653D01*
X365706Y147206D01*
X365153Y147576D01*
X364500Y147706D01*
D02*
G37*
G36*
X280650Y144911D02*
X279997Y144781D01*
X279443Y144411D01*
X279074Y143858D01*
X278944Y143205D01*
X279074Y142552D01*
X279443Y141999D01*
X279997Y141629D01*
X280650Y141499D01*
X281302Y141629D01*
X281856Y141999D01*
X282226Y142552D01*
X282356Y143205D01*
X282226Y143858D01*
X281856Y144411D01*
X281302Y144781D01*
X280650Y144911D01*
D02*
G37*
G36*
X390555Y145758D02*
X389902Y145628D01*
X389349Y145258D01*
X388979Y144704D01*
X388849Y144052D01*
X388979Y143399D01*
X389349Y142845D01*
X389902Y142475D01*
X390472Y142362D01*
X390585Y141793D01*
X390955Y141239D01*
X391508Y140869D01*
X392161Y140739D01*
X392814Y140869D01*
X393367Y141239D01*
X393737Y141793D01*
X393867Y142445D01*
X393737Y143098D01*
X393367Y143652D01*
X392814Y144021D01*
X392244Y144135D01*
X392131Y144704D01*
X391761Y145258D01*
X391208Y145628D01*
X390555Y145758D01*
D02*
G37*
G36*
X345000Y144772D02*
X344024Y144644D01*
X343114Y144267D01*
X342333Y143667D01*
X341733Y142886D01*
X341356Y141976D01*
X341228Y141000D01*
X341356Y140024D01*
X341733Y139114D01*
X342333Y138332D01*
X343114Y137733D01*
X344024Y137356D01*
X345000Y137228D01*
X345976Y137356D01*
X346886Y137733D01*
X347668Y138332D01*
X348267Y139114D01*
X348644Y140024D01*
X348772Y141000D01*
X348644Y141976D01*
X348267Y142886D01*
X347668Y143667D01*
X346886Y144267D01*
X345976Y144644D01*
X345000Y144772D01*
D02*
G37*
G36*
X335000D02*
X334024Y144644D01*
X333114Y144267D01*
X332332Y143667D01*
X331733Y142886D01*
X331356Y141976D01*
X331228Y141000D01*
X331356Y140024D01*
X331733Y139114D01*
X332332Y138332D01*
X333114Y137733D01*
X334024Y137356D01*
X335000Y137228D01*
X335976Y137356D01*
X336886Y137733D01*
X337667Y138332D01*
X338267Y139114D01*
X338644Y140024D01*
X338772Y141000D01*
X338644Y141976D01*
X338267Y142886D01*
X337667Y143667D01*
X336886Y144267D01*
X335976Y144644D01*
X335000Y144772D01*
D02*
G37*
G36*
X300000Y134206D02*
X299347Y134076D01*
X298794Y133706D01*
X298424Y133153D01*
X298294Y132500D01*
X298424Y131847D01*
X298794Y131294D01*
X299347Y130924D01*
X300000Y130794D01*
X300653Y130924D01*
X301206Y131294D01*
X301576Y131847D01*
X301706Y132500D01*
X301576Y133153D01*
X301206Y133706D01*
X300653Y134076D01*
X300000Y134206D01*
D02*
G37*
G36*
X222905Y133667D02*
X222253Y133537D01*
X221699Y133167D01*
X221329Y132614D01*
X221199Y131961D01*
X221329Y131308D01*
X221699Y130754D01*
X222253Y130385D01*
X222905Y130255D01*
X223558Y130385D01*
X224112Y130754D01*
X224482Y131308D01*
X224611Y131961D01*
X224482Y132614D01*
X224112Y133167D01*
X223558Y133537D01*
X222905Y133667D01*
D02*
G37*
G36*
X244905Y132667D02*
X244253Y132537D01*
X243699Y132167D01*
X243329Y131614D01*
X243199Y130961D01*
X243329Y130308D01*
X243699Y129754D01*
X244253Y129385D01*
X244905Y129255D01*
X245558Y129385D01*
X246112Y129754D01*
X246482Y130308D01*
X246611Y130961D01*
X246482Y131614D01*
X246112Y132167D01*
X245558Y132537D01*
X244905Y132667D01*
D02*
G37*
G36*
X533000Y139559D02*
X531561Y139370D01*
X530220Y138815D01*
X529069Y137931D01*
X528185Y136780D01*
X527630Y135439D01*
X527441Y134000D01*
X527630Y132561D01*
X528185Y131220D01*
X529069Y130069D01*
X530220Y129185D01*
X531561Y128630D01*
X533000Y128441D01*
X534439Y128630D01*
X535780Y129185D01*
X536931Y130069D01*
X537815Y131220D01*
X538370Y132561D01*
X538559Y134000D01*
X538370Y135439D01*
X537815Y136780D01*
X536931Y137931D01*
X535780Y138815D01*
X534439Y139370D01*
X533000Y139559D01*
D02*
G37*
G36*
X364000Y131206D02*
X363347Y131076D01*
X362794Y130706D01*
X362424Y130153D01*
X362294Y129500D01*
X362424Y128847D01*
X362794Y128294D01*
X363347Y127924D01*
X364000Y127794D01*
X364653Y127924D01*
X365206Y128294D01*
X365576Y128847D01*
X365706Y129500D01*
X365576Y130153D01*
X365206Y130706D01*
X364653Y131076D01*
X364000Y131206D01*
D02*
G37*
G36*
X358556Y130762D02*
X357903Y130632D01*
X357349Y130262D01*
X356979Y129708D01*
X356850Y129056D01*
X356979Y128403D01*
X357349Y127849D01*
X357903Y127479D01*
X358556Y127349D01*
X359208Y127479D01*
X359762Y127849D01*
X360132Y128403D01*
X360262Y129056D01*
X360132Y129708D01*
X359762Y130262D01*
X359208Y130632D01*
X358556Y130762D01*
D02*
G37*
G36*
X338740Y134740D02*
X331260D01*
Y127260D01*
X338740D01*
Y134740D01*
D02*
G37*
G36*
X345000Y134772D02*
X344024Y134644D01*
X343114Y134267D01*
X342333Y133668D01*
X341733Y132886D01*
X341356Y131976D01*
X341228Y131000D01*
X341356Y130024D01*
X341733Y129114D01*
X342333Y128332D01*
X343114Y127733D01*
X344024Y127356D01*
X345000Y127228D01*
X345976Y127356D01*
X346886Y127733D01*
X347668Y128332D01*
X348267Y129114D01*
X348644Y130024D01*
X348772Y131000D01*
X348644Y131976D01*
X348267Y132886D01*
X347668Y133668D01*
X346886Y134267D01*
X345976Y134644D01*
X345000Y134772D01*
D02*
G37*
G36*
X211834Y128373D02*
X211181Y128243D01*
X210627Y127873D01*
X210257Y127319D01*
X210127Y126666D01*
X210257Y126014D01*
X210627Y125460D01*
X211181Y125090D01*
X211834Y124960D01*
X212486Y125090D01*
X213040Y125460D01*
X213410Y126014D01*
X213540Y126666D01*
X213410Y127319D01*
X213040Y127873D01*
X212486Y128243D01*
X211834Y128373D01*
D02*
G37*
G36*
X253906Y127411D02*
X253253Y127281D01*
X252699Y126911D01*
X252329Y126358D01*
X252200Y125705D01*
X252329Y125052D01*
X252699Y124498D01*
X253253Y124129D01*
X253906Y123999D01*
X254558Y124129D01*
X255112Y124498D01*
X255482Y125052D01*
X255611Y125705D01*
X255482Y126358D01*
X255112Y126911D01*
X254558Y127281D01*
X253906Y127411D01*
D02*
G37*
G36*
X394500Y128450D02*
X393847Y128320D01*
X393294Y127950D01*
X392924Y127397D01*
X392794Y126744D01*
X392924Y126091D01*
X393294Y125538D01*
X393042Y125104D01*
X392934Y124942D01*
X392804Y124289D01*
X392934Y123636D01*
X393304Y123083D01*
X393857Y122713D01*
X394510Y122583D01*
X395163Y122713D01*
X395717Y123083D01*
X396086Y123636D01*
X396216Y124289D01*
X396086Y124942D01*
X395717Y125496D01*
X395968Y125929D01*
X396076Y126091D01*
X396206Y126744D01*
X396076Y127397D01*
X395706Y127950D01*
X395153Y128320D01*
X394500Y128450D01*
D02*
G37*
G36*
X325500Y125206D02*
X324847Y125076D01*
X324294Y124706D01*
X323924Y124153D01*
X323794Y123500D01*
X323924Y122847D01*
X324294Y122294D01*
X324847Y121924D01*
X325500Y121794D01*
X326153Y121924D01*
X326706Y122294D01*
X327076Y122847D01*
X327206Y123500D01*
X327076Y124153D01*
X326706Y124706D01*
X326153Y125076D01*
X325500Y125206D01*
D02*
G37*
G36*
X309000Y120706D02*
X308347Y120576D01*
X307794Y120206D01*
X307424Y119653D01*
X307294Y119000D01*
X307424Y118347D01*
X307794Y117794D01*
X308347Y117424D01*
X309000Y117294D01*
X309653Y117424D01*
X310206Y117794D01*
X310576Y118347D01*
X310706Y119000D01*
X310576Y119653D01*
X310206Y120206D01*
X309653Y120576D01*
X309000Y120706D01*
D02*
G37*
G36*
X218905Y120667D02*
X218253Y120537D01*
X217699Y120167D01*
X217329Y119614D01*
X217199Y118961D01*
X217329Y118308D01*
X217699Y117754D01*
X218253Y117385D01*
X218905Y117255D01*
X219558Y117385D01*
X220112Y117754D01*
X220482Y118308D01*
X220612Y118961D01*
X220482Y119614D01*
X220112Y120167D01*
X219558Y120537D01*
X218905Y120667D01*
D02*
G37*
G36*
X259906Y119667D02*
X259253Y119537D01*
X258699Y119167D01*
X258329Y118614D01*
X258200Y117961D01*
X258329Y117308D01*
X258699Y116754D01*
X259253Y116385D01*
X259906Y116255D01*
X260558Y116385D01*
X261112Y116754D01*
X261482Y117308D01*
X261612Y117961D01*
X261482Y118614D01*
X261112Y119167D01*
X260558Y119537D01*
X259906Y119667D01*
D02*
G37*
G36*
X209724Y113256D02*
X207756D01*
Y111287D01*
X209724D01*
Y113256D01*
D02*
G37*
G36*
X209512Y127012D02*
X199000D01*
Y121500D01*
Y116500D01*
Y111500D01*
X203787D01*
Y111287D01*
X205756D01*
Y114256D01*
X206756D01*
Y115256D01*
X209724D01*
Y117224D01*
X209512D01*
Y121500D01*
Y127012D01*
D02*
G37*
G36*
X260000Y114598D02*
X259347Y114468D01*
X258794Y114098D01*
X258424Y113545D01*
X258294Y112892D01*
X258424Y112239D01*
X258747Y111756D01*
X258424Y111273D01*
X258294Y110620D01*
X258424Y109967D01*
X258794Y109414D01*
X259347Y109044D01*
X260000Y108914D01*
X260653Y109044D01*
X261206Y109414D01*
X261576Y109967D01*
X261706Y110620D01*
X261576Y111273D01*
X261253Y111756D01*
X261576Y112239D01*
X261706Y112892D01*
X261576Y113545D01*
X261206Y114098D01*
X260653Y114468D01*
X260000Y114598D01*
D02*
G37*
G36*
X239906Y111667D02*
X239253Y111537D01*
X238699Y111167D01*
X238329Y110614D01*
X238199Y109961D01*
X238329Y109308D01*
X238699Y108754D01*
X239253Y108385D01*
X239906Y108255D01*
X240558Y108385D01*
X241112Y108754D01*
X241482Y109308D01*
X241612Y109961D01*
X241482Y110614D01*
X241112Y111167D01*
X240558Y111537D01*
X239906Y111667D01*
D02*
G37*
G36*
X244756Y108517D02*
X244103Y108387D01*
X243550Y108017D01*
X243180Y107464D01*
X243050Y106811D01*
X243180Y106158D01*
X243550Y105605D01*
X244103Y105235D01*
X244756Y105105D01*
X245409Y105235D01*
X245962Y105605D01*
X246332Y106158D01*
X246462Y106811D01*
X246332Y107464D01*
X245962Y108017D01*
X245409Y108387D01*
X244756Y108517D01*
D02*
G37*
G36*
X345000Y106706D02*
X344347Y106576D01*
X343794Y106206D01*
X343424Y105653D01*
X343294Y105000D01*
X343424Y104347D01*
X343794Y103794D01*
X344347Y103424D01*
X345000Y103294D01*
X345653Y103424D01*
X346206Y103794D01*
X346576Y104347D01*
X346706Y105000D01*
X346576Y105653D01*
X346206Y106206D01*
X345653Y106576D01*
X345000Y106706D01*
D02*
G37*
G36*
X266000Y106206D02*
X265347Y106076D01*
X264794Y105706D01*
X264424Y105153D01*
X264294Y104500D01*
X264424Y103847D01*
X264794Y103294D01*
X265347Y102924D01*
X266000Y102794D01*
X266653Y102924D01*
X267206Y103294D01*
X267576Y103847D01*
X267706Y104500D01*
X267576Y105153D01*
X267206Y105706D01*
X266653Y106076D01*
X266000Y106206D01*
D02*
G37*
G36*
X284000Y105206D02*
X283347Y105076D01*
X282794Y104706D01*
X282424Y104153D01*
X282294Y103500D01*
X282424Y102847D01*
X282794Y102294D01*
X283347Y101924D01*
X284000Y101794D01*
X284653Y101924D01*
X285206Y102294D01*
X285576Y102847D01*
X285706Y103500D01*
X285576Y104153D01*
X285206Y104706D01*
X284653Y105076D01*
X284000Y105206D01*
D02*
G37*
G36*
X306000Y104206D02*
X305347Y104076D01*
X304794Y103706D01*
X304424Y103153D01*
X304294Y102500D01*
X304424Y101847D01*
X304794Y101294D01*
X305347Y100924D01*
X306000Y100794D01*
X306653Y100924D01*
X307206Y101294D01*
X307576Y101847D01*
X307706Y102500D01*
X307576Y103153D01*
X307206Y103706D01*
X306653Y104076D01*
X306000Y104206D01*
D02*
G37*
G36*
X374000Y103706D02*
X373347Y103576D01*
X372794Y103206D01*
X372424Y102653D01*
X372294Y102000D01*
X372424Y101347D01*
X372794Y100794D01*
X373347Y100424D01*
X374000Y100294D01*
X374653Y100424D01*
X375206Y100794D01*
X375576Y101347D01*
X375706Y102000D01*
X375576Y102653D01*
X375206Y103206D01*
X374653Y103576D01*
X374000Y103706D01*
D02*
G37*
G36*
X396000Y102706D02*
X395347Y102576D01*
X394794Y102206D01*
X394424Y101653D01*
X394294Y101000D01*
X394424Y100347D01*
X394794Y99794D01*
X395347Y99424D01*
X396000Y99294D01*
X396653Y99424D01*
X397206Y99794D01*
X397576Y100347D01*
X397706Y101000D01*
X397576Y101653D01*
X397206Y102206D01*
X396653Y102576D01*
X396000Y102706D01*
D02*
G37*
G36*
X477000Y106772D02*
X476024Y106644D01*
X475114Y106267D01*
X474333Y105667D01*
X473733Y104886D01*
X473356Y103976D01*
X473228Y103000D01*
X473356Y102024D01*
X473733Y101114D01*
X474333Y100332D01*
X475114Y99733D01*
X476024Y99356D01*
X477000Y99228D01*
X477976Y99356D01*
X478886Y99733D01*
X479668Y100332D01*
X480267Y101114D01*
X480644Y102024D01*
X480772Y103000D01*
X480644Y103976D01*
X480267Y104886D01*
X479668Y105667D01*
X478886Y106267D01*
X477976Y106644D01*
X477000Y106772D01*
D02*
G37*
G36*
X467000D02*
X466024Y106644D01*
X465114Y106267D01*
X464332Y105667D01*
X463733Y104886D01*
X463356Y103976D01*
X463228Y103000D01*
X463356Y102024D01*
X463733Y101114D01*
X464332Y100332D01*
X465114Y99733D01*
X466024Y99356D01*
X467000Y99228D01*
X467976Y99356D01*
X468886Y99733D01*
X469667Y100332D01*
X470267Y101114D01*
X470644Y102024D01*
X470772Y103000D01*
X470644Y103976D01*
X470267Y104886D01*
X469667Y105667D01*
X468886Y106267D01*
X467976Y106644D01*
X467000Y106772D01*
D02*
G37*
G36*
X457000D02*
X456024Y106644D01*
X455114Y106267D01*
X454332Y105667D01*
X453733Y104886D01*
X453356Y103976D01*
X453228Y103000D01*
X453356Y102024D01*
X453733Y101114D01*
X454332Y100332D01*
X455114Y99733D01*
X456024Y99356D01*
X457000Y99228D01*
X457976Y99356D01*
X458886Y99733D01*
X459667Y100332D01*
X460267Y101114D01*
X460644Y102024D01*
X460772Y103000D01*
X460644Y103976D01*
X460267Y104886D01*
X459667Y105667D01*
X458886Y106267D01*
X457976Y106644D01*
X457000Y106772D01*
D02*
G37*
G36*
X447000D02*
X446024Y106644D01*
X445114Y106267D01*
X444333Y105667D01*
X443733Y104886D01*
X443356Y103976D01*
X443228Y103000D01*
X443356Y102024D01*
X443733Y101114D01*
X444333Y100332D01*
X445114Y99733D01*
X446024Y99356D01*
X447000Y99228D01*
X447976Y99356D01*
X448886Y99733D01*
X449668Y100332D01*
X450267Y101114D01*
X450644Y102024D01*
X450772Y103000D01*
X450644Y103976D01*
X450267Y104886D01*
X449668Y105667D01*
X448886Y106267D01*
X447976Y106644D01*
X447000Y106772D01*
D02*
G37*
G36*
X234906Y101667D02*
X234253Y101537D01*
X233699Y101167D01*
X233329Y100614D01*
X233200Y99961D01*
X233329Y99308D01*
X233699Y98754D01*
X234253Y98385D01*
X234906Y98255D01*
X235558Y98385D01*
X236112Y98754D01*
X236482Y99308D01*
X236612Y99961D01*
X236482Y100614D01*
X236112Y101167D01*
X235558Y101537D01*
X234906Y101667D01*
D02*
G37*
G36*
X315000Y98950D02*
X314347Y98820D01*
X313794Y98450D01*
X313424Y97897D01*
X313294Y97244D01*
X313424Y96591D01*
X313794Y96038D01*
X314347Y95668D01*
X315000Y95538D01*
X315653Y95668D01*
X316206Y96038D01*
X316576Y96591D01*
X316706Y97244D01*
X316576Y97897D01*
X316206Y98450D01*
X315653Y98820D01*
X315000Y98950D01*
D02*
G37*
G36*
X405000Y97450D02*
X404347Y97320D01*
X403794Y96950D01*
X403424Y96397D01*
X403294Y95744D01*
X403424Y95091D01*
X403794Y94538D01*
X404347Y94168D01*
X405000Y94038D01*
X405653Y94168D01*
X406206Y94538D01*
X406576Y95091D01*
X406706Y95744D01*
X406576Y96397D01*
X406206Y96950D01*
X405653Y97320D01*
X405000Y97450D01*
D02*
G37*
G36*
X205906Y96667D02*
X205253Y96537D01*
X204699Y96167D01*
X204329Y95614D01*
X204200Y94961D01*
X204329Y94308D01*
X204699Y93754D01*
X205253Y93385D01*
X205906Y93255D01*
X206558Y93385D01*
X207112Y93754D01*
X207482Y94308D01*
X207611Y94961D01*
X207482Y95614D01*
X207112Y96167D01*
X206558Y96537D01*
X205906Y96667D01*
D02*
G37*
G36*
X220905Y93667D02*
X220253Y93537D01*
X219699Y93167D01*
X219329Y92614D01*
X219199Y91961D01*
X219329Y91308D01*
X219699Y90754D01*
X220253Y90385D01*
X220905Y90255D01*
X221558Y90385D01*
X222112Y90754D01*
X222482Y91308D01*
X222611Y91961D01*
X222482Y92614D01*
X222112Y93167D01*
X221558Y93537D01*
X220905Y93667D01*
D02*
G37*
G36*
X480740Y96740D02*
X473260D01*
Y89260D01*
X480740D01*
Y96740D01*
D02*
G37*
G36*
X467000Y96772D02*
X466024Y96644D01*
X465114Y96267D01*
X464332Y95667D01*
X463733Y94886D01*
X463356Y93976D01*
X463228Y93000D01*
X463356Y92024D01*
X463733Y91114D01*
X464332Y90333D01*
X465114Y89733D01*
X466024Y89356D01*
X467000Y89228D01*
X467976Y89356D01*
X468886Y89733D01*
X469667Y90333D01*
X470267Y91114D01*
X470644Y92024D01*
X470772Y93000D01*
X470644Y93976D01*
X470267Y94886D01*
X469667Y95667D01*
X468886Y96267D01*
X467976Y96644D01*
X467000Y96772D01*
D02*
G37*
G36*
X457000D02*
X456024Y96644D01*
X455114Y96267D01*
X454332Y95667D01*
X453733Y94886D01*
X453356Y93976D01*
X453228Y93000D01*
X453356Y92024D01*
X453733Y91114D01*
X454332Y90333D01*
X455114Y89733D01*
X456024Y89356D01*
X457000Y89228D01*
X457976Y89356D01*
X458886Y89733D01*
X459667Y90333D01*
X460267Y91114D01*
X460644Y92024D01*
X460772Y93000D01*
X460644Y93976D01*
X460267Y94886D01*
X459667Y95667D01*
X458886Y96267D01*
X457976Y96644D01*
X457000Y96772D01*
D02*
G37*
G36*
X447000D02*
X446024Y96644D01*
X445114Y96267D01*
X444333Y95667D01*
X443733Y94886D01*
X443356Y93976D01*
X443228Y93000D01*
X443356Y92024D01*
X443733Y91114D01*
X444333Y90333D01*
X445114Y89733D01*
X446024Y89356D01*
X447000Y89228D01*
X447976Y89356D01*
X448886Y89733D01*
X449668Y90333D01*
X450267Y91114D01*
X450644Y92024D01*
X450772Y93000D01*
X450644Y93976D01*
X450267Y94886D01*
X449668Y95667D01*
X448886Y96267D01*
X447976Y96644D01*
X447000Y96772D01*
D02*
G37*
G36*
X280000Y92206D02*
X279347Y92076D01*
X278794Y91706D01*
X278424Y91153D01*
X278294Y90500D01*
X278424Y89847D01*
X278794Y89294D01*
X279347Y88924D01*
X280000Y88794D01*
X280653Y88924D01*
X281206Y89294D01*
X281576Y89847D01*
X281706Y90500D01*
X281576Y91153D01*
X281206Y91706D01*
X280653Y92076D01*
X280000Y92206D01*
D02*
G37*
G36*
X321000Y91206D02*
X320347Y91076D01*
X319794Y90706D01*
X319424Y90153D01*
X319294Y89500D01*
X319424Y88847D01*
X319794Y88294D01*
X320347Y87924D01*
X321000Y87794D01*
X321653Y87924D01*
X322206Y88294D01*
X322576Y88847D01*
X322706Y89500D01*
X322576Y90153D01*
X322206Y90706D01*
X321653Y91076D01*
X321000Y91206D01*
D02*
G37*
G36*
X370000Y90706D02*
X369347Y90576D01*
X368794Y90206D01*
X368424Y89653D01*
X368294Y89000D01*
X368424Y88347D01*
X368794Y87794D01*
X369347Y87424D01*
X370000Y87294D01*
X370653Y87424D01*
X371206Y87794D01*
X371576Y88347D01*
X371706Y89000D01*
X371576Y89653D01*
X371206Y90206D01*
X370653Y90576D01*
X370000Y90706D01*
D02*
G37*
G36*
X411000Y89706D02*
X410347Y89576D01*
X409794Y89206D01*
X409424Y88653D01*
X409294Y88000D01*
X409424Y87347D01*
X409794Y86794D01*
X410347Y86424D01*
X411000Y86294D01*
X411653Y86424D01*
X412206Y86794D01*
X412576Y87347D01*
X412706Y88000D01*
X412576Y88653D01*
X412206Y89206D01*
X411653Y89576D01*
X411000Y89706D01*
D02*
G37*
G36*
X270819Y84795D02*
X268850D01*
Y82827D01*
X270819D01*
Y84795D01*
D02*
G37*
G36*
X270606Y98551D02*
X260094D01*
Y93039D01*
Y88039D01*
Y83039D01*
X264882D01*
Y82827D01*
X266850D01*
Y85795D01*
X267850D01*
Y86795D01*
X270819D01*
Y88764D01*
X270606D01*
Y93039D01*
Y98551D01*
D02*
G37*
G36*
X360819Y83295D02*
X358850D01*
Y81327D01*
X360819D01*
Y83295D01*
D02*
G37*
G36*
X360606Y97051D02*
X350095D01*
Y91539D01*
Y86539D01*
Y81539D01*
X354882D01*
Y81327D01*
X356850D01*
Y84295D01*
X357850D01*
Y85295D01*
X360819D01*
Y87264D01*
X360606D01*
Y91539D01*
Y97051D01*
D02*
G37*
G36*
X187000Y90706D02*
X186347Y90576D01*
X185794Y90206D01*
X185424Y89653D01*
X185294Y89000D01*
X184849Y88676D01*
X184347Y88576D01*
X183794Y88206D01*
X183424Y87653D01*
X183294Y87000D01*
X182849Y86676D01*
X182347Y86576D01*
X181794Y86206D01*
X181424Y85653D01*
X181294Y85000D01*
X180849Y84676D01*
X180347Y84576D01*
X179794Y84206D01*
X179424Y83653D01*
X179294Y83000D01*
X179424Y82347D01*
X179794Y81794D01*
X180347Y81424D01*
X181000Y81294D01*
X181653Y81424D01*
X182206Y81794D01*
X182576Y82347D01*
X182706Y83000D01*
X183151Y83324D01*
X183653Y83424D01*
X184206Y83794D01*
X184576Y84347D01*
X184706Y85000D01*
X185151Y85324D01*
X185653Y85424D01*
X186206Y85794D01*
X186576Y86347D01*
X186706Y87000D01*
X187151Y87324D01*
X187653Y87424D01*
X188206Y87794D01*
X188576Y88347D01*
X188706Y89000D01*
X188576Y89653D01*
X188206Y90206D01*
X187653Y90576D01*
X187000Y90706D01*
D02*
G37*
G36*
X321000Y86137D02*
X320347Y86007D01*
X319794Y85637D01*
X319424Y85084D01*
X319294Y84431D01*
X319424Y83778D01*
X319747Y83295D01*
X319424Y82812D01*
X319294Y82159D01*
X319424Y81507D01*
X319794Y80953D01*
X320347Y80583D01*
X321000Y80453D01*
X321653Y80583D01*
X322206Y80953D01*
X322576Y81507D01*
X322706Y82159D01*
X322576Y82812D01*
X322253Y83295D01*
X322576Y83778D01*
X322706Y84431D01*
X322576Y85084D01*
X322206Y85637D01*
X321653Y86007D01*
X321000Y86137D01*
D02*
G37*
G36*
X301000Y83206D02*
X300347Y83076D01*
X299794Y82706D01*
X299424Y82153D01*
X299294Y81500D01*
X299424Y80847D01*
X299794Y80294D01*
X300347Y79924D01*
X301000Y79794D01*
X301653Y79924D01*
X302206Y80294D01*
X302576Y80847D01*
X302706Y81500D01*
X302576Y82153D01*
X302206Y82706D01*
X301653Y83076D01*
X301000Y83206D01*
D02*
G37*
G36*
X411000Y84637D02*
X410347Y84507D01*
X409794Y84137D01*
X409424Y83584D01*
X409294Y82931D01*
X409424Y82278D01*
X409747Y81795D01*
X409424Y81312D01*
X409294Y80659D01*
X409424Y80006D01*
X409794Y79453D01*
X410347Y79083D01*
X411000Y78953D01*
X411653Y79083D01*
X412206Y79453D01*
X412576Y80006D01*
X412706Y80659D01*
X412576Y81312D01*
X412253Y81795D01*
X412576Y82278D01*
X412706Y82931D01*
X412576Y83584D01*
X412206Y84137D01*
X411653Y84507D01*
X411000Y84637D01*
D02*
G37*
G36*
X391000Y81706D02*
X390347Y81576D01*
X389794Y81206D01*
X389424Y80653D01*
X389294Y80000D01*
X389424Y79347D01*
X389794Y78794D01*
X390347Y78424D01*
X391000Y78294D01*
X391653Y78424D01*
X392206Y78794D01*
X392576Y79347D01*
X392706Y80000D01*
X392576Y80653D01*
X392206Y81206D01*
X391653Y81576D01*
X391000Y81706D01*
D02*
G37*
G36*
X305850Y80056D02*
X305198Y79927D01*
X304644Y79557D01*
X304274Y79003D01*
X304144Y78350D01*
X304274Y77698D01*
X304644Y77144D01*
X305198Y76774D01*
X305850Y76644D01*
X306503Y76774D01*
X307057Y77144D01*
X307427Y77698D01*
X307556Y78350D01*
X307427Y79003D01*
X307057Y79557D01*
X306503Y79927D01*
X305850Y80056D01*
D02*
G37*
G36*
X395850Y78556D02*
X395198Y78426D01*
X394644Y78057D01*
X394274Y77503D01*
X394144Y76850D01*
X394274Y76197D01*
X394644Y75644D01*
X395198Y75274D01*
X395850Y75144D01*
X396503Y75274D01*
X397057Y75644D01*
X397427Y76197D01*
X397556Y76850D01*
X397427Y77503D01*
X397057Y78057D01*
X396503Y78426D01*
X395850Y78556D01*
D02*
G37*
G36*
X296000Y73206D02*
X295347Y73076D01*
X294794Y72706D01*
X294424Y72153D01*
X294294Y71500D01*
X294424Y70847D01*
X294794Y70294D01*
X295347Y69924D01*
X296000Y69794D01*
X296653Y69924D01*
X297206Y70294D01*
X297576Y70847D01*
X297706Y71500D01*
X297576Y72153D01*
X297206Y72706D01*
X296653Y73076D01*
X296000Y73206D01*
D02*
G37*
G36*
X386000Y71706D02*
X385347Y71576D01*
X384794Y71206D01*
X384424Y70653D01*
X384294Y70000D01*
X384424Y69347D01*
X384794Y68794D01*
X385347Y68424D01*
X386000Y68294D01*
X386653Y68424D01*
X387206Y68794D01*
X387576Y69347D01*
X387706Y70000D01*
X387576Y70653D01*
X387206Y71206D01*
X386653Y71576D01*
X386000Y71706D01*
D02*
G37*
G36*
X267000Y68206D02*
X266347Y68076D01*
X265794Y67706D01*
X265424Y67153D01*
X265294Y66500D01*
X265424Y65847D01*
X265794Y65294D01*
X266347Y64924D01*
X267000Y64794D01*
X267653Y64924D01*
X268206Y65294D01*
X268576Y65847D01*
X268706Y66500D01*
X268576Y67153D01*
X268206Y67706D01*
X267653Y68076D01*
X267000Y68206D01*
D02*
G37*
G36*
X357000Y66706D02*
X356347Y66576D01*
X355794Y66206D01*
X355424Y65653D01*
X355294Y65000D01*
X355424Y64347D01*
X355794Y63794D01*
X356347Y63424D01*
X357000Y63294D01*
X357653Y63424D01*
X358206Y63794D01*
X358576Y64347D01*
X358706Y65000D01*
X358576Y65653D01*
X358206Y66206D01*
X357653Y66576D01*
X357000Y66706D01*
D02*
G37*
G36*
X282000Y65206D02*
X281347Y65076D01*
X280794Y64706D01*
X280424Y64153D01*
X280294Y63500D01*
X280424Y62847D01*
X280794Y62294D01*
X281347Y61924D01*
X282000Y61794D01*
X282653Y61924D01*
X283206Y62294D01*
X283576Y62847D01*
X283706Y63500D01*
X283576Y64153D01*
X283206Y64706D01*
X282653Y65076D01*
X282000Y65206D01*
D02*
G37*
G36*
X372000Y63706D02*
X371347Y63576D01*
X370794Y63206D01*
X370424Y62653D01*
X370294Y62000D01*
X370424Y61347D01*
X370794Y60794D01*
X371347Y60424D01*
X372000Y60294D01*
X372653Y60424D01*
X373206Y60794D01*
X373576Y61347D01*
X373706Y62000D01*
X373576Y62653D01*
X373206Y63206D01*
X372653Y63576D01*
X372000Y63706D01*
D02*
G37*
%LPD*%
D100*
X174500Y198500D02*
D03*
X106547Y214047D02*
D03*
X112453Y202236D02*
D03*
Y208142D02*
D03*
Y214047D02*
D03*
Y231764D02*
D03*
Y225858D02*
D03*
Y219953D02*
D03*
X118358Y202236D02*
D03*
Y208142D02*
D03*
Y214047D02*
D03*
Y231764D02*
D03*
Y225858D02*
D03*
Y219953D02*
D03*
X124264Y202236D02*
D03*
Y208142D02*
D03*
Y214047D02*
D03*
Y231764D02*
D03*
Y225858D02*
D03*
Y219953D02*
D03*
X106547Y202236D02*
D03*
Y208142D02*
D03*
Y231764D02*
D03*
Y225858D02*
D03*
Y219953D02*
D03*
X100642Y202236D02*
D03*
Y208142D02*
D03*
Y214047D02*
D03*
Y231764D02*
D03*
Y225858D02*
D03*
Y219953D02*
D03*
X94736Y202236D02*
D03*
Y208142D02*
D03*
Y214047D02*
D03*
Y231764D02*
D03*
Y225858D02*
D03*
Y219953D02*
D03*
X370500Y323000D02*
D03*
X284500Y348000D02*
D03*
X406000Y90500D02*
D03*
X217893Y364569D02*
D03*
X168000Y106000D02*
D03*
X150500D02*
D03*
X147000Y150000D02*
D03*
Y144500D02*
D03*
X111000Y122000D02*
D03*
X112500Y112500D02*
D03*
X217893Y301784D02*
D03*
X298959Y365203D02*
D03*
X385084Y340916D02*
D03*
X231500Y168000D02*
D03*
Y150500D02*
D03*
X220000Y155500D02*
D03*
Y163000D02*
D03*
X180500Y166000D02*
D03*
X182500Y163000D02*
D03*
X197500Y160500D02*
D03*
X182500Y148000D02*
D03*
X322500Y132000D02*
D03*
X302500Y126500D02*
D03*
X314799Y171133D02*
D03*
X264650Y151205D02*
D03*
X279650Y148205D02*
D03*
X286650Y173205D02*
D03*
X279650Y159205D02*
D03*
X292650Y190205D02*
D03*
X277992Y183500D02*
D03*
X255055Y119889D02*
D03*
X204906Y99961D02*
D03*
X219905Y96961D02*
D03*
X226905Y121961D02*
D03*
X219905Y107961D02*
D03*
X232906Y138961D02*
D03*
X218248Y132256D02*
D03*
X316149Y91429D02*
D03*
X266000Y71500D02*
D03*
X281000Y68500D02*
D03*
X288000Y93500D02*
D03*
X281000Y79500D02*
D03*
X294000Y110500D02*
D03*
X279343Y103795D02*
D03*
X384000Y109000D02*
D03*
X369343Y102295D02*
D03*
X371000Y67000D02*
D03*
X356000Y70000D02*
D03*
X371000Y78000D02*
D03*
X378000Y92000D02*
D03*
X236000Y215000D02*
D03*
X199000Y198000D02*
D03*
X272300Y285500D02*
D03*
X325200Y267500D02*
D03*
X272800D02*
D03*
X292000Y281000D02*
D03*
Y273000D02*
D03*
X314000Y274000D02*
D03*
X321000Y288000D02*
D03*
X257000Y298000D02*
D03*
X279008Y305110D02*
D03*
X256000Y303000D02*
D03*
X203000Y284000D02*
D03*
X213331Y347500D02*
D03*
X240307Y284292D02*
D03*
X190394Y261951D02*
D03*
X205898Y259492D02*
D03*
X204894Y270951D02*
D03*
X200858Y295848D02*
D03*
X240307Y347077D02*
D03*
X190394Y324736D02*
D03*
X205898Y322277D02*
D03*
X204894Y333736D02*
D03*
X200858Y358633D02*
D03*
X321299Y347695D02*
D03*
X271386Y325354D02*
D03*
X286890Y322895D02*
D03*
X285886Y334354D02*
D03*
X281850Y359251D02*
D03*
X367464Y334397D02*
D03*
X406913Y322841D02*
D03*
X371500Y309500D02*
D03*
X372504Y298041D02*
D03*
X357000Y300500D02*
D03*
X449437Y169667D02*
D03*
X449255Y183322D02*
D03*
X407255Y170322D02*
D03*
Y160822D02*
D03*
Y150822D02*
D03*
X410755Y140322D02*
D03*
X437755Y169822D02*
D03*
X437452Y159830D02*
D03*
X437758Y149842D02*
D03*
X449448Y158333D02*
D03*
X399255Y149322D02*
D03*
Y160822D02*
D03*
Y171675D02*
D03*
Y183322D02*
D03*
X449448Y147000D02*
D03*
X494255Y136822D02*
D03*
X494755Y154822D02*
D03*
X494255Y172822D02*
D03*
Y191322D02*
D03*
X494000Y224000D02*
D03*
X494500Y242000D02*
D03*
X494000Y260000D02*
D03*
Y278500D02*
D03*
X399000Y258852D02*
D03*
Y270500D02*
D03*
Y248000D02*
D03*
Y236500D02*
D03*
X407000Y257500D02*
D03*
X410500Y227500D02*
D03*
X407000Y238000D02*
D03*
Y248000D02*
D03*
X449194Y234178D02*
D03*
Y245511D02*
D03*
X449182Y256844D02*
D03*
X449000Y270500D02*
D03*
X437503Y237020D02*
D03*
X437197Y247008D02*
D03*
X437500Y257000D02*
D03*
X115300Y172808D02*
D03*
X98308Y173603D02*
D03*
X130300Y172808D02*
D03*
X95715Y248341D02*
D03*
X100642Y248142D02*
D03*
X140864Y235664D02*
D03*
X140300Y211996D02*
D03*
X78300Y206256D02*
D03*
X70800Y209308D02*
D03*
X78300Y225807D02*
D03*
X65300D02*
D03*
X95800Y185808D02*
D03*
X100300Y185308D02*
D03*
X108300Y185808D02*
D03*
X114300Y185308D02*
D03*
X122300Y185808D02*
D03*
X175000Y217500D02*
D03*
X147800Y182308D02*
D03*
X140300Y199308D02*
D03*
X142800Y196359D02*
D03*
X148300Y215307D02*
D03*
Y226308D02*
D03*
X140800Y222808D02*
D03*
X108300Y248307D02*
D03*
X122300D02*
D03*
X128300Y255280D02*
D03*
X117026Y255308D02*
D03*
X102800D02*
D03*
X114300Y248307D02*
D03*
D114*
X357850Y84295D02*
D03*
X267850Y85795D02*
D03*
X206756Y114256D02*
D03*
X266500Y165500D02*
D03*
X192358Y277392D02*
D03*
X192358Y340177D02*
D03*
X273350Y340795D02*
D03*
X358964Y315941D02*
D03*
D115*
X127500Y284000D02*
D03*
X18000Y149000D02*
D03*
D117*
X109500Y217000D02*
D03*
D120*
X512500Y83000D02*
D03*
Y43000D02*
D03*
D122*
X371755Y117322D02*
D03*
X372255Y183822D02*
D03*
X371755Y167322D02*
D03*
Y150822D02*
D03*
Y134322D02*
D03*
X372000Y271000D02*
D03*
X371500Y204500D02*
D03*
Y221500D02*
D03*
Y238000D02*
D03*
Y254500D02*
D03*
X178500Y69500D02*
D03*
X187500Y74000D02*
D03*
X108500Y161500D02*
D03*
X98500Y155500D02*
D03*
X529500Y107000D02*
D03*
X72835Y8505D02*
D03*
X62835D02*
D03*
X52835D02*
D03*
X47835Y18505D02*
D03*
X22835Y28505D02*
D03*
Y8505D02*
D03*
X12835Y28505D02*
D03*
Y8505D02*
D03*
X66000Y264500D02*
D03*
Y259500D02*
D03*
Y254500D02*
D03*
X71000D02*
D03*
X76000D02*
D03*
X81000D02*
D03*
Y259500D02*
D03*
Y264500D02*
D03*
X95500Y265000D02*
D03*
X100500D02*
D03*
X105500D02*
D03*
Y270000D02*
D03*
Y275000D02*
D03*
Y280000D02*
D03*
X100500D02*
D03*
X95500D02*
D03*
X-42000Y263478D02*
D03*
Y255000D02*
D03*
Y249000D02*
D03*
Y242500D02*
D03*
Y233500D02*
D03*
Y224000D02*
D03*
Y214500D02*
D03*
Y205000D02*
D03*
Y182827D02*
D03*
Y173500D02*
D03*
Y164000D02*
D03*
Y154500D02*
D03*
Y145000D02*
D03*
Y135500D02*
D03*
X141564Y66448D02*
D03*
X149046Y67653D02*
D03*
X141500Y75500D02*
D03*
X149046Y73847D02*
D03*
X149000Y93000D02*
D03*
X142000Y94000D02*
D03*
X103000Y112500D02*
D03*
X65578Y81377D02*
D03*
X65000Y63500D02*
D03*
X72000Y71000D02*
D03*
X83000Y66000D02*
D03*
X82500Y95500D02*
D03*
X60000D02*
D03*
X-19000Y128500D02*
D03*
X130000Y35500D02*
D03*
X116500Y39500D02*
D03*
X94829Y42716D02*
D03*
X102000Y42000D02*
D03*
X97000Y15000D02*
D03*
X102500Y20000D02*
D03*
M02*
