G04*
G04 #@! TF.GenerationSoftware,Altium Limited,Altium Designer,20.1.14 (287)*
G04*
G04 Layer_Color=8388736*
%FSLAX25Y25*%
%MOIN*%
G70*
G04*
G04 #@! TF.SameCoordinates,E9049712-5386-4971-9C9C-F13BCB6E38AD*
G04*
G04*
G04 #@! TF.FilePolarity,Negative*
G04*
G01*
G75*
%ADD58R,0.03950X0.05524*%
%ADD59R,0.05524X0.03950*%
%ADD60R,0.02769X0.03556*%
%ADD61R,0.03320X0.03556*%
%ADD62R,0.03556X0.02769*%
%ADD63R,0.03556X0.03320*%
%ADD64O,0.06706X0.02375*%
%ADD65R,0.03556X0.02375*%
%ADD66R,0.07296X0.01981*%
%ADD67R,0.05524X0.03556*%
%ADD68R,0.09068X0.05524*%
%ADD69R,0.03556X0.05524*%
%ADD70O,0.07099X0.01981*%
%ADD71R,0.04147X0.02178*%
%ADD72R,0.12217X0.20485*%
%ADD73R,0.11417X0.02559*%
%ADD74O,0.01981X0.09068*%
%ADD75O,0.09068X0.01981*%
%ADD76R,0.24410X0.24410*%
%ADD77R,0.06902X0.03162*%
%ADD78R,0.11036X0.13005*%
%ADD79O,0.06693X0.01575*%
%ADD80R,0.09265X0.13595*%
%ADD81R,0.09265X0.04540*%
%ADD82R,0.07099X0.01981*%
%ADD83R,0.05524X0.05131*%
%ADD84R,0.07887X0.08674*%
%ADD85O,0.07887X0.01981*%
%ADD86O,0.01981X0.07887*%
%ADD87R,0.05131X0.03162*%
%ADD88R,0.05524X0.09068*%
%ADD89R,0.06115X0.06902*%
%ADD90R,0.06902X0.06115*%
%ADD91R,0.12611X0.07099*%
%ADD92O,0.09461X0.03162*%
%ADD93C,0.06600*%
%ADD94R,0.04737X0.04737*%
%ADD95C,0.08674*%
%ADD96R,0.08674X0.08674*%
%ADD97C,0.06706*%
%ADD98C,0.05918*%
%ADD99R,0.05918X0.05918*%
%ADD100R,0.05918X0.05918*%
%ADD101R,0.06312X0.06312*%
%ADD102C,0.06312*%
%ADD103C,0.13595*%
%ADD104C,0.10249*%
%ADD105C,0.10800*%
%ADD106C,0.03162*%
%ADD107C,0.01772*%
%ADD108C,0.02769*%
D58*
X164512Y106000D02*
D03*
X159000D02*
D03*
X284350Y66295D02*
D03*
X278839D02*
D03*
X269350Y68795D02*
D03*
X263839D02*
D03*
X312839Y94295D02*
D03*
X318350D02*
D03*
X223256Y94756D02*
D03*
X217744D02*
D03*
X208256Y97256D02*
D03*
X202744D02*
D03*
X251744Y122756D02*
D03*
X257256D02*
D03*
X283000Y146000D02*
D03*
X277488D02*
D03*
X268000Y148500D02*
D03*
X262488D02*
D03*
X311488Y174000D02*
D03*
X317000D02*
D03*
X374350Y64795D02*
D03*
X368839D02*
D03*
X359350Y67295D02*
D03*
X353839D02*
D03*
X402839Y92795D02*
D03*
X408350D02*
D03*
X446749Y234178D02*
D03*
X441238D02*
D03*
X402389Y268178D02*
D03*
X396878D02*
D03*
X402401Y256844D02*
D03*
X396889D02*
D03*
X402389Y245511D02*
D03*
X396878D02*
D03*
X402401Y234178D02*
D03*
X396889D02*
D03*
X446749Y245511D02*
D03*
X441238D02*
D03*
X446749Y268178D02*
D03*
X441238D02*
D03*
X446738Y256844D02*
D03*
X441226D02*
D03*
X3177Y171941D02*
D03*
X8689D02*
D03*
X68636Y78224D02*
D03*
X63125D02*
D03*
X145988Y77000D02*
D03*
X151500D02*
D03*
X108125Y39723D02*
D03*
X113636D02*
D03*
X68625Y66224D02*
D03*
X63113D02*
D03*
X68625Y95723D02*
D03*
X63113D02*
D03*
X145613Y90223D02*
D03*
X151125D02*
D03*
X145988Y64500D02*
D03*
X151500D02*
D03*
X98136Y39724D02*
D03*
X92625D02*
D03*
X446992Y169667D02*
D03*
X441481D02*
D03*
X447004Y181000D02*
D03*
X441493D02*
D03*
X447004Y158333D02*
D03*
X441493D02*
D03*
X402656Y147000D02*
D03*
X397144D02*
D03*
X402644Y158333D02*
D03*
X397132D02*
D03*
X402656Y169667D02*
D03*
X397144D02*
D03*
X402644Y181000D02*
D03*
X397132D02*
D03*
X447004Y147000D02*
D03*
X441493D02*
D03*
X403953Y324441D02*
D03*
X409465D02*
D03*
X318339Y349295D02*
D03*
X323850D02*
D03*
X237347Y348677D02*
D03*
X242858D02*
D03*
X237347Y285892D02*
D03*
X242858D02*
D03*
X360465Y298941D02*
D03*
X354953D02*
D03*
X274850Y323795D02*
D03*
X269339D02*
D03*
X193858Y323177D02*
D03*
X188347D02*
D03*
X193858Y260392D02*
D03*
X188347D02*
D03*
X375465Y296441D02*
D03*
X369953D02*
D03*
X289850Y321295D02*
D03*
X284339D02*
D03*
X208858Y320677D02*
D03*
X203346D02*
D03*
X208858Y257892D02*
D03*
X203346D02*
D03*
X145288Y217319D02*
D03*
X150800D02*
D03*
X145300Y224319D02*
D03*
X150812D02*
D03*
X73800Y227319D02*
D03*
X68288D02*
D03*
X73800Y207319D02*
D03*
X68288D02*
D03*
X265310Y296110D02*
D03*
X259798D02*
D03*
X309713Y123000D02*
D03*
X304201D02*
D03*
X101488Y158000D02*
D03*
X107000D02*
D03*
X179000Y74000D02*
D03*
X184512D02*
D03*
D59*
X276350Y96295D02*
D03*
Y101807D02*
D03*
X215256Y124756D02*
D03*
Y130268D02*
D03*
X275000Y176000D02*
D03*
Y181512D02*
D03*
X366350Y94795D02*
D03*
Y100307D02*
D03*
X375000Y215500D02*
D03*
Y221012D02*
D03*
X368000Y221488D02*
D03*
Y227000D02*
D03*
X375000Y227000D02*
D03*
Y232512D02*
D03*
X368000Y232488D02*
D03*
Y238000D02*
D03*
X375000Y237988D02*
D03*
Y243500D02*
D03*
X368000Y243488D02*
D03*
Y249000D02*
D03*
X375000Y248988D02*
D03*
Y254500D02*
D03*
X368000Y254488D02*
D03*
Y260000D02*
D03*
X375000Y260000D02*
D03*
Y265512D02*
D03*
X368000Y265500D02*
D03*
Y271012D02*
D03*
X375000Y204488D02*
D03*
Y210000D02*
D03*
X368000Y209988D02*
D03*
Y215500D02*
D03*
X-20000Y173000D02*
D03*
Y167488D02*
D03*
X107625Y116223D02*
D03*
Y121735D02*
D03*
X114625Y116212D02*
D03*
Y121723D02*
D03*
X72625Y28735D02*
D03*
Y23223D02*
D03*
X114633Y318475D02*
D03*
Y323987D02*
D03*
X368255Y122810D02*
D03*
Y128322D02*
D03*
X375255Y117311D02*
D03*
Y122822D02*
D03*
X368255Y178322D02*
D03*
Y183834D02*
D03*
X375255Y172822D02*
D03*
Y178334D02*
D03*
X368255Y167311D02*
D03*
Y172822D02*
D03*
X375255Y161811D02*
D03*
Y167322D02*
D03*
Y150811D02*
D03*
Y156322D02*
D03*
X368255Y145310D02*
D03*
Y150822D02*
D03*
X375255Y139822D02*
D03*
Y145334D02*
D03*
X368255Y134310D02*
D03*
Y139822D02*
D03*
X375255Y128322D02*
D03*
Y133834D02*
D03*
X317500Y279000D02*
D03*
Y273488D02*
D03*
X186000Y157488D02*
D03*
Y163000D02*
D03*
X129800Y252319D02*
D03*
Y257831D02*
D03*
X115550Y252319D02*
D03*
Y257831D02*
D03*
X101300Y252319D02*
D03*
Y257831D02*
D03*
Y181319D02*
D03*
Y175807D02*
D03*
X115550Y181319D02*
D03*
Y175807D02*
D03*
X129800Y181319D02*
D03*
Y175807D02*
D03*
X144800Y199319D02*
D03*
Y193807D02*
D03*
X170800Y204012D02*
D03*
Y198500D02*
D03*
X170800Y212319D02*
D03*
Y217831D02*
D03*
X368255Y156310D02*
D03*
Y161822D02*
D03*
X232000Y210032D02*
D03*
Y215543D02*
D03*
X195000Y204031D02*
D03*
Y198520D02*
D03*
X259798Y308622D02*
D03*
Y303110D02*
D03*
X282000Y301488D02*
D03*
Y307000D02*
D03*
X302701Y135000D02*
D03*
Y129488D02*
D03*
X325701Y126500D02*
D03*
Y132012D02*
D03*
X367464Y326441D02*
D03*
Y331953D02*
D03*
X281850Y351295D02*
D03*
Y356807D02*
D03*
X200858Y350677D02*
D03*
Y356189D02*
D03*
X200858Y287892D02*
D03*
Y293404D02*
D03*
X143500Y144500D02*
D03*
Y150012D02*
D03*
X115000Y309724D02*
D03*
Y304213D02*
D03*
D60*
X299776Y105539D02*
D03*
X302925D02*
D03*
X299776Y111051D02*
D03*
X302925D02*
D03*
X238681Y134000D02*
D03*
X241831D02*
D03*
X238681Y139512D02*
D03*
X241831D02*
D03*
X298425Y185244D02*
D03*
X301575D02*
D03*
X298425Y190756D02*
D03*
X301575D02*
D03*
X389776Y104039D02*
D03*
X392925D02*
D03*
X389776Y109551D02*
D03*
X392925D02*
D03*
X410398Y317276D02*
D03*
X407248D02*
D03*
X410398Y311764D02*
D03*
X407248D02*
D03*
X324783Y342130D02*
D03*
X321634D02*
D03*
X324783Y336618D02*
D03*
X321634D02*
D03*
X243791Y341512D02*
D03*
X240642D02*
D03*
X243791Y336000D02*
D03*
X240642D02*
D03*
X243791Y278727D02*
D03*
X240642D02*
D03*
X243791Y273215D02*
D03*
X240642D02*
D03*
X390890Y335685D02*
D03*
X394039D02*
D03*
X390890Y341197D02*
D03*
X394039D02*
D03*
X305276Y360539D02*
D03*
X308425D02*
D03*
X305276Y366051D02*
D03*
X308425D02*
D03*
X224284Y359921D02*
D03*
X227433D02*
D03*
X224284Y365433D02*
D03*
X227433D02*
D03*
X224284Y297136D02*
D03*
X227433D02*
D03*
X224284Y302648D02*
D03*
X227433D02*
D03*
D61*
X296134Y105539D02*
D03*
X306567D02*
D03*
X296134Y111051D02*
D03*
X306567D02*
D03*
X235039Y134000D02*
D03*
X245472D02*
D03*
X235039Y139512D02*
D03*
X245472D02*
D03*
X294783Y185244D02*
D03*
X305217D02*
D03*
X294783Y190756D02*
D03*
X305217D02*
D03*
X386134Y104039D02*
D03*
X396567D02*
D03*
X386134Y109551D02*
D03*
X396567D02*
D03*
X414039Y317276D02*
D03*
X403606D02*
D03*
X414039Y311764D02*
D03*
X403606D02*
D03*
X328425Y342130D02*
D03*
X317992D02*
D03*
X328425Y336618D02*
D03*
X317992D02*
D03*
X247433Y341512D02*
D03*
X237000D02*
D03*
X247433Y336000D02*
D03*
X237000D02*
D03*
X247433Y278727D02*
D03*
X237000D02*
D03*
X247433Y273215D02*
D03*
X237000D02*
D03*
X387248Y335685D02*
D03*
X397681D02*
D03*
X387248Y341197D02*
D03*
X397681D02*
D03*
X301634Y360539D02*
D03*
X312067D02*
D03*
X301634Y366051D02*
D03*
X312067D02*
D03*
X220642Y359921D02*
D03*
X231075D02*
D03*
X220642Y365433D02*
D03*
X231075D02*
D03*
X220642Y297136D02*
D03*
X231075D02*
D03*
X220642Y302648D02*
D03*
X231075D02*
D03*
D62*
X312595Y84870D02*
D03*
Y81720D02*
D03*
X318106Y84870D02*
D03*
Y81720D02*
D03*
X251500Y113331D02*
D03*
Y110181D02*
D03*
X257012Y113331D02*
D03*
Y110181D02*
D03*
X311244Y164575D02*
D03*
Y161425D02*
D03*
X316756Y164575D02*
D03*
Y161425D02*
D03*
X402595Y83370D02*
D03*
Y80220D02*
D03*
X408106Y83370D02*
D03*
Y80220D02*
D03*
X419000Y277291D02*
D03*
Y274142D02*
D03*
X424512Y277291D02*
D03*
Y274142D02*
D03*
X418988Y220000D02*
D03*
Y216850D02*
D03*
X424500Y220000D02*
D03*
Y216850D02*
D03*
X419243Y132822D02*
D03*
Y129673D02*
D03*
X424755Y132822D02*
D03*
Y129673D02*
D03*
X419255Y190114D02*
D03*
Y186964D02*
D03*
X424767Y190114D02*
D03*
Y186964D02*
D03*
D63*
X312595Y88512D02*
D03*
Y78079D02*
D03*
X318106Y88512D02*
D03*
Y78079D02*
D03*
X251500Y116972D02*
D03*
Y106539D02*
D03*
X257012Y116972D02*
D03*
Y106539D02*
D03*
X311244Y168217D02*
D03*
Y157783D02*
D03*
X316756Y168217D02*
D03*
Y157783D02*
D03*
X402595Y87012D02*
D03*
Y76579D02*
D03*
X408106Y87012D02*
D03*
Y76579D02*
D03*
X419000Y280933D02*
D03*
Y270500D02*
D03*
X424512Y280933D02*
D03*
Y270500D02*
D03*
X418988Y223642D02*
D03*
Y213209D02*
D03*
X424500Y223642D02*
D03*
Y213209D02*
D03*
X419243Y136464D02*
D03*
Y126031D02*
D03*
X424755Y136464D02*
D03*
Y126031D02*
D03*
X419255Y193755D02*
D03*
Y183322D02*
D03*
X424767Y193755D02*
D03*
Y183322D02*
D03*
D64*
X284819Y79311D02*
D03*
Y76752D02*
D03*
Y74193D02*
D03*
Y71634D02*
D03*
X300922Y79311D02*
D03*
Y76752D02*
D03*
Y74193D02*
D03*
Y71634D02*
D03*
X223725Y107771D02*
D03*
Y105212D02*
D03*
Y102653D02*
D03*
Y100094D02*
D03*
X239827Y107771D02*
D03*
Y105212D02*
D03*
Y102653D02*
D03*
Y100094D02*
D03*
X283469Y159016D02*
D03*
Y156456D02*
D03*
Y153897D02*
D03*
Y151338D02*
D03*
X299571Y159016D02*
D03*
Y156456D02*
D03*
Y153897D02*
D03*
Y151338D02*
D03*
X374819Y77811D02*
D03*
Y75252D02*
D03*
Y72693D02*
D03*
Y70134D02*
D03*
X390921Y77811D02*
D03*
Y75252D02*
D03*
Y72693D02*
D03*
Y70134D02*
D03*
X209327Y333693D02*
D03*
Y331134D02*
D03*
Y328575D02*
D03*
Y326015D02*
D03*
X225429Y333693D02*
D03*
Y331134D02*
D03*
Y328575D02*
D03*
Y326015D02*
D03*
X375933Y309456D02*
D03*
Y306897D02*
D03*
Y304338D02*
D03*
Y301779D02*
D03*
X392036Y309456D02*
D03*
Y306897D02*
D03*
Y304338D02*
D03*
Y301779D02*
D03*
X290319Y334311D02*
D03*
Y331752D02*
D03*
Y329193D02*
D03*
Y326634D02*
D03*
X306421Y334311D02*
D03*
Y331752D02*
D03*
Y329193D02*
D03*
Y326634D02*
D03*
X209327Y270908D02*
D03*
Y268349D02*
D03*
Y265790D02*
D03*
Y263231D02*
D03*
X225429Y270908D02*
D03*
Y268349D02*
D03*
Y265790D02*
D03*
Y263231D02*
D03*
D65*
X277886Y74236D02*
D03*
Y76795D02*
D03*
Y79354D02*
D03*
X269815D02*
D03*
Y74236D02*
D03*
X216791Y102697D02*
D03*
Y105256D02*
D03*
Y107815D02*
D03*
X208721D02*
D03*
Y102697D02*
D03*
X276536Y153941D02*
D03*
Y156500D02*
D03*
Y159059D02*
D03*
X268465D02*
D03*
Y153941D02*
D03*
X367886Y72736D02*
D03*
Y75295D02*
D03*
Y77854D02*
D03*
X359815D02*
D03*
Y72736D02*
D03*
X369000Y304382D02*
D03*
Y306941D02*
D03*
Y309500D02*
D03*
X360929D02*
D03*
Y304382D02*
D03*
X283386Y329236D02*
D03*
Y331795D02*
D03*
Y334354D02*
D03*
X275315D02*
D03*
Y329236D02*
D03*
X202394Y328618D02*
D03*
Y331177D02*
D03*
Y333736D02*
D03*
X194323D02*
D03*
Y328618D02*
D03*
X202394Y265833D02*
D03*
Y268392D02*
D03*
Y270951D02*
D03*
X194323D02*
D03*
Y265833D02*
D03*
D66*
X284000Y100795D02*
D03*
Y98236D02*
D03*
Y95677D02*
D03*
Y93118D02*
D03*
Y90559D02*
D03*
Y88000D02*
D03*
Y85441D02*
D03*
X305850Y100795D02*
D03*
Y98236D02*
D03*
Y95677D02*
D03*
Y93118D02*
D03*
Y90559D02*
D03*
Y88000D02*
D03*
Y85441D02*
D03*
X244756Y113902D02*
D03*
Y116461D02*
D03*
Y119020D02*
D03*
Y121579D02*
D03*
Y124138D02*
D03*
Y126697D02*
D03*
Y129256D02*
D03*
X222905Y113902D02*
D03*
Y116461D02*
D03*
Y119020D02*
D03*
Y121579D02*
D03*
Y124138D02*
D03*
Y126697D02*
D03*
Y129256D02*
D03*
X282650Y180500D02*
D03*
Y177941D02*
D03*
Y175382D02*
D03*
Y172823D02*
D03*
Y170264D02*
D03*
Y167705D02*
D03*
Y165146D02*
D03*
X304500Y180500D02*
D03*
Y177941D02*
D03*
Y175382D02*
D03*
Y172823D02*
D03*
Y170264D02*
D03*
Y167705D02*
D03*
Y165146D02*
D03*
X395850Y83941D02*
D03*
Y86500D02*
D03*
Y89059D02*
D03*
Y91618D02*
D03*
Y94177D02*
D03*
Y96736D02*
D03*
Y99295D02*
D03*
X374000Y83941D02*
D03*
Y86500D02*
D03*
Y89059D02*
D03*
Y91618D02*
D03*
Y94177D02*
D03*
Y96736D02*
D03*
Y99295D02*
D03*
X396965Y315587D02*
D03*
Y318146D02*
D03*
Y320705D02*
D03*
Y323264D02*
D03*
Y325823D02*
D03*
Y328382D02*
D03*
Y330941D02*
D03*
X375114Y315587D02*
D03*
Y318146D02*
D03*
Y320705D02*
D03*
Y323264D02*
D03*
Y325823D02*
D03*
Y328382D02*
D03*
Y330941D02*
D03*
X311350Y340441D02*
D03*
Y343000D02*
D03*
Y345559D02*
D03*
Y348118D02*
D03*
Y350677D02*
D03*
Y353236D02*
D03*
Y355795D02*
D03*
X289500Y340441D02*
D03*
Y343000D02*
D03*
Y345559D02*
D03*
Y348118D02*
D03*
Y350677D02*
D03*
Y353236D02*
D03*
Y355795D02*
D03*
X230358Y339823D02*
D03*
Y342382D02*
D03*
Y344941D02*
D03*
Y347500D02*
D03*
Y350059D02*
D03*
Y352618D02*
D03*
Y355177D02*
D03*
X208508Y339823D02*
D03*
Y342382D02*
D03*
Y344941D02*
D03*
Y347500D02*
D03*
Y350059D02*
D03*
Y352618D02*
D03*
Y355177D02*
D03*
X230358Y277038D02*
D03*
Y279597D02*
D03*
Y282156D02*
D03*
Y284715D02*
D03*
Y287274D02*
D03*
Y289833D02*
D03*
Y292392D02*
D03*
X208508Y277038D02*
D03*
Y279597D02*
D03*
Y282156D02*
D03*
Y284715D02*
D03*
Y287274D02*
D03*
Y289833D02*
D03*
Y292392D02*
D03*
D67*
X494000Y280799D02*
D03*
Y274500D02*
D03*
Y262500D02*
D03*
Y256201D02*
D03*
X494500Y244799D02*
D03*
Y238500D02*
D03*
X494000Y226299D02*
D03*
Y220000D02*
D03*
X123125Y39223D02*
D03*
Y32924D02*
D03*
X398500Y32358D02*
D03*
Y26059D02*
D03*
X376000Y32157D02*
D03*
Y25858D02*
D03*
X353000Y31858D02*
D03*
Y25559D02*
D03*
X330500Y31858D02*
D03*
Y25559D02*
D03*
X241500Y32358D02*
D03*
Y26059D02*
D03*
X307500Y31858D02*
D03*
Y25559D02*
D03*
X285000Y32358D02*
D03*
Y26059D02*
D03*
X262500Y31657D02*
D03*
Y25358D02*
D03*
X83700Y115301D02*
D03*
Y121600D02*
D03*
X76700Y115301D02*
D03*
Y121600D02*
D03*
X20874Y365256D02*
D03*
Y358957D02*
D03*
X31976Y358760D02*
D03*
Y365059D02*
D03*
X151599Y199789D02*
D03*
Y193489D02*
D03*
Y188726D02*
D03*
Y182426D02*
D03*
X130125Y39223D02*
D03*
Y32924D02*
D03*
X-12000Y131299D02*
D03*
Y125000D02*
D03*
X-26000Y125000D02*
D03*
Y131299D02*
D03*
X-19000Y131299D02*
D03*
Y125000D02*
D03*
X147850Y298043D02*
D03*
Y304343D02*
D03*
X12954Y14322D02*
D03*
Y20621D02*
D03*
X494255Y139121D02*
D03*
Y132822D02*
D03*
X494755Y157621D02*
D03*
Y151322D02*
D03*
X494255Y175322D02*
D03*
Y169023D02*
D03*
Y193621D02*
D03*
Y187322D02*
D03*
D68*
X485500Y266367D02*
D03*
Y278178D02*
D03*
Y248304D02*
D03*
Y260115D02*
D03*
Y230241D02*
D03*
Y242052D02*
D03*
Y212178D02*
D03*
Y223989D02*
D03*
X471389Y212178D02*
D03*
Y223989D02*
D03*
Y230241D02*
D03*
Y242052D02*
D03*
Y248304D02*
D03*
Y260115D02*
D03*
Y266367D02*
D03*
Y278178D02*
D03*
X471644Y143063D02*
D03*
Y154874D02*
D03*
Y179189D02*
D03*
Y191000D02*
D03*
Y161126D02*
D03*
Y172937D02*
D03*
Y125000D02*
D03*
Y136811D02*
D03*
X106000Y312500D02*
D03*
Y324311D02*
D03*
X95449Y340059D02*
D03*
Y328248D02*
D03*
X85212Y340059D02*
D03*
Y328248D02*
D03*
X485755Y125000D02*
D03*
Y136811D02*
D03*
Y143063D02*
D03*
Y154874D02*
D03*
Y161126D02*
D03*
Y172937D02*
D03*
Y179189D02*
D03*
Y191000D02*
D03*
X523500Y118500D02*
D03*
Y106689D02*
D03*
X535500Y106689D02*
D03*
Y118500D02*
D03*
D69*
X388000Y209000D02*
D03*
X381701D02*
D03*
X462299Y217000D02*
D03*
X456000D02*
D03*
X462299Y223693D02*
D03*
X456000D02*
D03*
X388000Y216000D02*
D03*
X381701D02*
D03*
X388000Y226079D02*
D03*
X381701D02*
D03*
X462280Y235079D02*
D03*
X455980D02*
D03*
X462299Y241772D02*
D03*
X456000D02*
D03*
X388000Y233272D02*
D03*
X381701D02*
D03*
X388000Y242776D02*
D03*
X381701D02*
D03*
X462299Y249276D02*
D03*
X456000D02*
D03*
X462299Y255850D02*
D03*
X456000D02*
D03*
X388000Y249850D02*
D03*
X381701D02*
D03*
X388000Y259000D02*
D03*
X381701D02*
D03*
X462299Y266551D02*
D03*
X456000D02*
D03*
X462280Y273244D02*
D03*
X455980D02*
D03*
X388000Y266000D02*
D03*
X381701D02*
D03*
X388255Y178822D02*
D03*
X381956D02*
D03*
X462535Y186066D02*
D03*
X456235D02*
D03*
X462554Y179374D02*
D03*
X456255D02*
D03*
X388255Y171822D02*
D03*
X381956D02*
D03*
X388255Y162673D02*
D03*
X381956D02*
D03*
X462554Y168673D02*
D03*
X456255D02*
D03*
X462554Y162098D02*
D03*
X456255D02*
D03*
X388255Y155598D02*
D03*
X381956D02*
D03*
X388255Y146094D02*
D03*
X381956D02*
D03*
X462554Y154594D02*
D03*
X456255D02*
D03*
X462534Y147901D02*
D03*
X456235D02*
D03*
X388255Y138901D02*
D03*
X381956D02*
D03*
X388255Y128822D02*
D03*
X381956D02*
D03*
X462554Y136515D02*
D03*
X456255D02*
D03*
X462554Y129822D02*
D03*
X456255D02*
D03*
X388255Y121822D02*
D03*
X381956D02*
D03*
X316701Y285500D02*
D03*
X323000D02*
D03*
X316701Y267500D02*
D03*
X323000D02*
D03*
X281299D02*
D03*
X275000D02*
D03*
X280799Y285500D02*
D03*
X274500D02*
D03*
X187000Y150500D02*
D03*
X180701D02*
D03*
X187000Y169500D02*
D03*
X180701D02*
D03*
X223000Y168000D02*
D03*
X229299D02*
D03*
X223000Y150500D02*
D03*
X229299D02*
D03*
X164300Y218319D02*
D03*
X158001D02*
D03*
X157957Y205173D02*
D03*
X164256D02*
D03*
X157957Y211748D02*
D03*
X164256D02*
D03*
X69125Y89223D02*
D03*
X62825D02*
D03*
X69125Y102223D02*
D03*
X62825D02*
D03*
X142299Y301500D02*
D03*
X136000D02*
D03*
X102701Y305000D02*
D03*
X109000D02*
D03*
D70*
X410819Y264724D02*
D03*
Y262756D02*
D03*
Y260787D02*
D03*
Y258819D02*
D03*
Y256850D02*
D03*
Y254882D02*
D03*
Y252913D02*
D03*
Y250945D02*
D03*
Y248976D02*
D03*
Y247008D02*
D03*
Y245039D02*
D03*
Y243071D02*
D03*
Y241102D02*
D03*
Y239134D02*
D03*
Y237165D02*
D03*
Y235197D02*
D03*
Y233228D02*
D03*
Y231260D02*
D03*
Y229291D02*
D03*
X432866Y264724D02*
D03*
Y262756D02*
D03*
Y260787D02*
D03*
Y258819D02*
D03*
Y256850D02*
D03*
Y254882D02*
D03*
Y252913D02*
D03*
Y250945D02*
D03*
Y248976D02*
D03*
Y247008D02*
D03*
Y245039D02*
D03*
Y243071D02*
D03*
Y241102D02*
D03*
Y239134D02*
D03*
Y237165D02*
D03*
Y235197D02*
D03*
Y233228D02*
D03*
Y231260D02*
D03*
Y229291D02*
D03*
D71*
X-11240Y172618D02*
D03*
Y170059D02*
D03*
X-2500Y172618D02*
D03*
Y167500D02*
D03*
X-11240D02*
D03*
D72*
X155016Y357382D02*
D03*
X116039D02*
D03*
D73*
X-49027Y264732D02*
D03*
Y261583D02*
D03*
Y258433D02*
D03*
Y255283D02*
D03*
Y252134D02*
D03*
Y248984D02*
D03*
Y245835D02*
D03*
Y242685D02*
D03*
Y239535D02*
D03*
Y236386D02*
D03*
Y233236D02*
D03*
Y230087D02*
D03*
Y226937D02*
D03*
Y223787D02*
D03*
Y220638D02*
D03*
Y217488D02*
D03*
Y214338D02*
D03*
Y211189D02*
D03*
Y208039D02*
D03*
Y204890D02*
D03*
Y201740D02*
D03*
Y198591D02*
D03*
Y182843D02*
D03*
Y179693D02*
D03*
Y176543D02*
D03*
Y173394D02*
D03*
Y170244D02*
D03*
Y167094D02*
D03*
Y163945D02*
D03*
Y160795D02*
D03*
Y157646D02*
D03*
Y154496D02*
D03*
Y151346D02*
D03*
Y148197D02*
D03*
Y145047D02*
D03*
Y141898D02*
D03*
Y138748D02*
D03*
Y135598D02*
D03*
Y132449D02*
D03*
Y129299D02*
D03*
D74*
X126232Y191016D02*
D03*
X124264D02*
D03*
X120327D02*
D03*
X118358D02*
D03*
X112453D02*
D03*
X110484D02*
D03*
X106547D02*
D03*
X104579D02*
D03*
X128201D02*
D03*
X122295D02*
D03*
X116390D02*
D03*
X114421D02*
D03*
X108516D02*
D03*
X102610D02*
D03*
X100642D02*
D03*
X98673D02*
D03*
X96705D02*
D03*
X94736D02*
D03*
X92768D02*
D03*
X90799D02*
D03*
Y242984D02*
D03*
X92768D02*
D03*
X94736D02*
D03*
X96705D02*
D03*
X98673D02*
D03*
X100642D02*
D03*
X102610D02*
D03*
X108516D02*
D03*
X114421D02*
D03*
X116390D02*
D03*
X122295D02*
D03*
X128201D02*
D03*
X126232D02*
D03*
X124264D02*
D03*
X120327D02*
D03*
X118358D02*
D03*
X112453D02*
D03*
X110484D02*
D03*
X106547D02*
D03*
X104579D02*
D03*
D75*
X135484Y235701D02*
D03*
Y233732D02*
D03*
Y231764D02*
D03*
Y229795D02*
D03*
Y227827D02*
D03*
Y225858D02*
D03*
Y223890D02*
D03*
Y221921D02*
D03*
Y219953D02*
D03*
Y217984D02*
D03*
Y216016D02*
D03*
Y214047D02*
D03*
Y212079D02*
D03*
Y210110D02*
D03*
Y208142D02*
D03*
Y206173D02*
D03*
Y204205D02*
D03*
Y202236D02*
D03*
Y200268D02*
D03*
Y198299D02*
D03*
X83516D02*
D03*
Y200268D02*
D03*
Y202236D02*
D03*
Y204205D02*
D03*
Y206173D02*
D03*
Y208142D02*
D03*
Y210110D02*
D03*
Y212079D02*
D03*
Y214047D02*
D03*
Y216016D02*
D03*
Y217984D02*
D03*
Y219953D02*
D03*
Y221921D02*
D03*
Y223890D02*
D03*
Y225858D02*
D03*
Y227827D02*
D03*
Y229795D02*
D03*
Y231764D02*
D03*
Y233732D02*
D03*
Y235701D02*
D03*
D76*
X109500Y217000D02*
D03*
D77*
X122535Y323937D02*
D03*
Y318937D02*
D03*
Y313937D02*
D03*
Y308937D02*
D03*
X143795Y323937D02*
D03*
Y318937D02*
D03*
Y313937D02*
D03*
Y308937D02*
D03*
D78*
X133165Y316437D02*
D03*
D79*
X410871Y177547D02*
D03*
Y175578D02*
D03*
Y173610D02*
D03*
Y171641D02*
D03*
Y169673D02*
D03*
Y167704D02*
D03*
Y165736D02*
D03*
Y163767D02*
D03*
Y161799D02*
D03*
Y159830D02*
D03*
Y157862D02*
D03*
Y155893D02*
D03*
Y153925D02*
D03*
Y151956D02*
D03*
Y149988D02*
D03*
Y148019D02*
D03*
Y146051D02*
D03*
Y144082D02*
D03*
Y142114D02*
D03*
X432918Y177547D02*
D03*
Y175578D02*
D03*
Y173610D02*
D03*
Y171641D02*
D03*
Y169673D02*
D03*
Y167704D02*
D03*
Y165736D02*
D03*
Y163767D02*
D03*
Y161799D02*
D03*
Y159830D02*
D03*
Y157862D02*
D03*
Y155893D02*
D03*
Y153925D02*
D03*
Y151956D02*
D03*
Y149988D02*
D03*
Y148019D02*
D03*
Y146051D02*
D03*
Y144082D02*
D03*
Y142114D02*
D03*
D80*
X31583Y29000D02*
D03*
D81*
X54417Y38055D02*
D03*
Y29000D02*
D03*
Y19945D02*
D03*
D82*
X309906Y265000D02*
D03*
Y267559D02*
D03*
Y270118D02*
D03*
Y272677D02*
D03*
Y275236D02*
D03*
Y277795D02*
D03*
Y280354D02*
D03*
Y282913D02*
D03*
Y285472D02*
D03*
Y288032D02*
D03*
X287465Y265000D02*
D03*
Y267559D02*
D03*
Y270118D02*
D03*
Y272677D02*
D03*
Y275236D02*
D03*
Y277795D02*
D03*
Y280354D02*
D03*
Y282913D02*
D03*
Y285472D02*
D03*
Y288032D02*
D03*
X193478Y170847D02*
D03*
Y168288D02*
D03*
Y165729D02*
D03*
Y163170D02*
D03*
Y160611D02*
D03*
Y158052D02*
D03*
Y155493D02*
D03*
Y152934D02*
D03*
Y150375D02*
D03*
Y147816D02*
D03*
X215919Y170847D02*
D03*
Y168288D02*
D03*
Y165729D02*
D03*
Y163170D02*
D03*
Y160611D02*
D03*
Y158052D02*
D03*
Y155493D02*
D03*
Y152934D02*
D03*
Y150375D02*
D03*
Y147816D02*
D03*
D83*
X405623Y32925D02*
D03*
Y24657D02*
D03*
X383261Y32925D02*
D03*
Y24657D02*
D03*
X360000Y32992D02*
D03*
Y24724D02*
D03*
X337531Y32992D02*
D03*
Y24724D02*
D03*
X314578Y32925D02*
D03*
Y24657D02*
D03*
X292000Y32992D02*
D03*
Y24724D02*
D03*
X269804Y32925D02*
D03*
Y24657D02*
D03*
X248500Y32992D02*
D03*
Y24724D02*
D03*
X13000Y358366D02*
D03*
Y366634D02*
D03*
X39850Y357776D02*
D03*
Y366043D02*
D03*
X21625Y13590D02*
D03*
Y21857D02*
D03*
D84*
X82625Y14723D02*
D03*
Y31259D02*
D03*
X102625Y14723D02*
D03*
Y31180D02*
D03*
D85*
X77400Y54101D02*
D03*
Y56070D02*
D03*
Y58038D02*
D03*
Y60007D02*
D03*
Y61975D02*
D03*
Y63944D02*
D03*
Y65912D02*
D03*
Y67881D02*
D03*
Y69849D02*
D03*
Y71818D02*
D03*
Y73786D02*
D03*
Y75755D02*
D03*
Y77723D02*
D03*
Y79692D02*
D03*
Y81660D02*
D03*
Y83629D02*
D03*
Y85597D02*
D03*
Y87566D02*
D03*
Y89534D02*
D03*
Y91503D02*
D03*
Y93471D02*
D03*
Y95440D02*
D03*
Y97408D02*
D03*
Y99377D02*
D03*
Y101346D02*
D03*
X136849D02*
D03*
Y99377D02*
D03*
Y97408D02*
D03*
Y95440D02*
D03*
Y93471D02*
D03*
Y91503D02*
D03*
Y89534D02*
D03*
Y87566D02*
D03*
Y85597D02*
D03*
Y83629D02*
D03*
Y81660D02*
D03*
Y79692D02*
D03*
Y77723D02*
D03*
Y75755D02*
D03*
Y73786D02*
D03*
Y71818D02*
D03*
Y69849D02*
D03*
Y67881D02*
D03*
Y65912D02*
D03*
Y63944D02*
D03*
Y61975D02*
D03*
Y60007D02*
D03*
Y58038D02*
D03*
Y56070D02*
D03*
Y54101D02*
D03*
D86*
X83503Y107448D02*
D03*
X85471D02*
D03*
X87440D02*
D03*
X89408D02*
D03*
X91377D02*
D03*
X93345D02*
D03*
X95314D02*
D03*
X97282D02*
D03*
X99251D02*
D03*
X101219D02*
D03*
X103188D02*
D03*
X105156D02*
D03*
X107125D02*
D03*
X109093D02*
D03*
X111062D02*
D03*
X113030D02*
D03*
X114999D02*
D03*
X116967D02*
D03*
X118936D02*
D03*
X120904D02*
D03*
X122873D02*
D03*
X124841D02*
D03*
X126810D02*
D03*
X128778D02*
D03*
X130747D02*
D03*
Y47999D02*
D03*
X128778D02*
D03*
X126810D02*
D03*
X124841D02*
D03*
X122873D02*
D03*
X120904D02*
D03*
X118936D02*
D03*
X116967D02*
D03*
X114999D02*
D03*
X113030D02*
D03*
X111062D02*
D03*
X109093D02*
D03*
X107125D02*
D03*
X105156D02*
D03*
X103188D02*
D03*
X101219D02*
D03*
X99251D02*
D03*
X97282D02*
D03*
X95314D02*
D03*
X93345D02*
D03*
X91377D02*
D03*
X89408D02*
D03*
X87440D02*
D03*
X85471D02*
D03*
X83503D02*
D03*
D87*
X275916Y301370D02*
D03*
Y305110D02*
D03*
Y308850D02*
D03*
X265680D02*
D03*
Y301370D02*
D03*
X319819Y128260D02*
D03*
Y132000D02*
D03*
Y135740D02*
D03*
X309583D02*
D03*
Y128260D02*
D03*
D88*
X58000Y335000D02*
D03*
X69811D02*
D03*
X70000Y355000D02*
D03*
X58189D02*
D03*
D89*
X152063Y312500D02*
D03*
X160724D02*
D03*
X32947Y10197D02*
D03*
X41609D02*
D03*
D90*
X179300Y204981D02*
D03*
Y196319D02*
D03*
X179300Y212319D02*
D03*
Y220981D02*
D03*
X152457Y328642D02*
D03*
Y319980D02*
D03*
X64916Y31844D02*
D03*
Y23183D02*
D03*
X104819Y340059D02*
D03*
Y331398D02*
D03*
D91*
X47000Y259500D02*
D03*
Y250000D02*
D03*
Y185500D02*
D03*
Y176000D02*
D03*
X-9500Y260000D02*
D03*
Y250500D02*
D03*
X19500Y246000D02*
D03*
X19498Y236326D02*
D03*
X-9500Y239000D02*
D03*
Y229500D02*
D03*
X47000Y232000D02*
D03*
Y222500D02*
D03*
X20000Y220000D02*
D03*
Y210500D02*
D03*
X-9500Y216000D02*
D03*
X-9502Y206610D02*
D03*
X47000Y208500D02*
D03*
Y199000D02*
D03*
X20500Y194500D02*
D03*
Y185000D02*
D03*
D92*
X204051Y214531D02*
D03*
Y209531D02*
D03*
Y204532D02*
D03*
Y199531D02*
D03*
X222949Y214531D02*
D03*
Y209531D02*
D03*
Y204532D02*
D03*
Y199531D02*
D03*
D93*
X32500Y334000D02*
D03*
Y324000D02*
D03*
X22500Y334000D02*
D03*
Y324000D02*
D03*
D94*
X262850Y85795D02*
D03*
X267850D02*
D03*
X262850Y90795D02*
D03*
X267850D02*
D03*
X262850Y95795D02*
D03*
X267850D02*
D03*
X201756Y114256D02*
D03*
X206756D02*
D03*
X201756Y119256D02*
D03*
X206756D02*
D03*
X201756Y124256D02*
D03*
X206756D02*
D03*
X261500Y165500D02*
D03*
X266500D02*
D03*
X261500Y170500D02*
D03*
X266500D02*
D03*
X261500Y175500D02*
D03*
X266500D02*
D03*
X352850Y84295D02*
D03*
X357850D02*
D03*
X352850Y89295D02*
D03*
X357850D02*
D03*
X352850Y94295D02*
D03*
X357850D02*
D03*
X353964Y315941D02*
D03*
X358964D02*
D03*
X353964Y320941D02*
D03*
X358964D02*
D03*
X353964Y325941D02*
D03*
X358964D02*
D03*
X268350Y340795D02*
D03*
X273350D02*
D03*
X268350Y345795D02*
D03*
X273350D02*
D03*
X268350Y350795D02*
D03*
X273350D02*
D03*
X187358Y340177D02*
D03*
X192358D02*
D03*
X187358Y345177D02*
D03*
X192358D02*
D03*
X187358Y350177D02*
D03*
X192358D02*
D03*
X187358Y277392D02*
D03*
X192358D02*
D03*
X187358Y282392D02*
D03*
X192358D02*
D03*
X187358Y287392D02*
D03*
X192358D02*
D03*
D95*
X527500Y43000D02*
D03*
X517500D02*
D03*
X527500Y53000D02*
D03*
X517500D02*
D03*
X527500Y63000D02*
D03*
X517500D02*
D03*
X527500Y73000D02*
D03*
X517500D02*
D03*
X527500Y83000D02*
D03*
D96*
X517500D02*
D03*
D97*
X109500Y217000D02*
D03*
D98*
X34500Y294000D02*
D03*
X86500Y378390D02*
D03*
D99*
X20720Y294000D02*
D03*
D100*
X86500Y364610D02*
D03*
D101*
X536500Y180000D02*
D03*
Y242000D02*
D03*
D102*
X529500Y176000D02*
D03*
X536500Y172000D02*
D03*
X529500Y168000D02*
D03*
X536500Y164000D02*
D03*
X529500Y160000D02*
D03*
X536500Y156000D02*
D03*
X529500Y152000D02*
D03*
Y214000D02*
D03*
X536500Y218000D02*
D03*
X529500Y222000D02*
D03*
X536500Y226000D02*
D03*
X529500Y230000D02*
D03*
X536500Y234000D02*
D03*
X529500Y238000D02*
D03*
D103*
X546500Y141000D02*
D03*
Y253000D02*
D03*
D104*
X533000Y134000D02*
D03*
Y260000D02*
D03*
D105*
X59000Y378000D02*
D03*
X18000Y149000D02*
D03*
X127500Y284000D02*
D03*
X59500Y300000D02*
D03*
X36000Y64500D02*
D03*
X17000Y166000D02*
D03*
X158500Y229500D02*
D03*
X149000Y117000D02*
D03*
X148500Y239000D02*
D03*
X130500Y135500D02*
D03*
X65500Y140000D02*
D03*
D106*
X393400Y34300D02*
D03*
X370400Y33200D02*
D03*
X348500Y33500D02*
D03*
X325000Y33000D02*
D03*
X302000Y32000D02*
D03*
X280500Y33400D02*
D03*
X258000Y31800D02*
D03*
X237000Y32400D02*
D03*
X405500Y36500D02*
D03*
X383000D02*
D03*
X360000D02*
D03*
X337500D02*
D03*
X314500D02*
D03*
X292000D02*
D03*
X269500D02*
D03*
X248500D02*
D03*
D107*
X106547Y214047D02*
D03*
X112453Y208142D02*
D03*
Y214047D02*
D03*
Y225858D02*
D03*
Y219953D02*
D03*
X118358Y208142D02*
D03*
Y214047D02*
D03*
Y225858D02*
D03*
Y219953D02*
D03*
X106547Y208142D02*
D03*
Y225858D02*
D03*
Y219953D02*
D03*
X100642Y208142D02*
D03*
Y214047D02*
D03*
Y225858D02*
D03*
Y219953D02*
D03*
D108*
X131000Y320768D02*
D03*
X135331D02*
D03*
X131000Y316437D02*
D03*
X135331D02*
D03*
X131000Y312106D02*
D03*
X135331D02*
D03*
M02*
