G04*
G04 #@! TF.GenerationSoftware,Altium Limited,Altium Designer,20.1.11 (218)*
G04*
G04 Layer_Color=8388736*
%FSLAX25Y25*%
%MOIN*%
G70*
G04*
G04 #@! TF.SameCoordinates,6CC8ACCB-2A8E-4504-AA76-58F5339EE6F1*
G04*
G04*
G04 #@! TF.FilePolarity,Negative*
G04*
G01*
G75*
%ADD54R,0.03162X0.05131*%
%ADD55R,0.02375X0.04343*%
%ADD56R,0.05524X0.03950*%
%ADD57O,0.03162X0.09461*%
%ADD58R,0.09265X0.04540*%
%ADD59R,0.09265X0.13595*%
%ADD60R,0.07887X0.08674*%
%ADD61O,0.01981X0.07887*%
%ADD62O,0.07887X0.01981*%
%ADD63O,0.01981X0.09068*%
%ADD64R,0.24410X0.24410*%
%ADD65O,0.09068X0.01981*%
%ADD66R,0.09068X0.05524*%
%ADD67R,0.06115X0.06902*%
%ADD68R,0.06902X0.06115*%
%ADD69R,0.12611X0.07099*%
%ADD70R,0.12217X0.20485*%
%ADD71R,0.11417X0.02559*%
%ADD72R,0.06902X0.03162*%
%ADD73R,0.11036X0.13005*%
%ADD74O,0.06693X0.01575*%
%ADD75R,0.03556X0.02769*%
%ADD76R,0.03556X0.03320*%
%ADD77R,0.05524X0.05131*%
%ADD78R,0.05524X0.09068*%
%ADD79R,0.05524X0.03556*%
%ADD80R,0.03556X0.05524*%
%ADD81R,0.03950X0.05524*%
%ADD82R,0.04737X0.04737*%
%ADD83R,0.08674X0.08674*%
%ADD84C,0.08674*%
%ADD85C,0.06706*%
%ADD86C,0.05918*%
%ADD87R,0.05918X0.05918*%
%ADD88R,0.05918X0.05918*%
%ADD89C,0.06600*%
%ADD90R,0.06312X0.06312*%
%ADD91C,0.06312*%
%ADD92C,0.13595*%
%ADD93C,0.10249*%
%ADD94C,0.10800*%
%ADD95C,0.01772*%
%ADD96C,0.02769*%
D54*
X205240Y357882D02*
D03*
X197760D02*
D03*
Y368118D02*
D03*
X201500D02*
D03*
X205240D02*
D03*
X202240Y93618D02*
D03*
X198500D02*
D03*
X194760D02*
D03*
Y83382D02*
D03*
X202240D02*
D03*
D55*
X325441Y40709D02*
D03*
X328000D02*
D03*
X330559D02*
D03*
Y47008D02*
D03*
X328000D02*
D03*
X325441D02*
D03*
X302441D02*
D03*
X305000D02*
D03*
X307559D02*
D03*
Y40709D02*
D03*
X305000D02*
D03*
X302441D02*
D03*
X279941D02*
D03*
X282500D02*
D03*
X285059D02*
D03*
Y47008D02*
D03*
X282500D02*
D03*
X279941D02*
D03*
X236441D02*
D03*
X239000D02*
D03*
X241559D02*
D03*
Y40709D02*
D03*
X239000D02*
D03*
X236441D02*
D03*
X257941D02*
D03*
X260500D02*
D03*
X263059D02*
D03*
Y47008D02*
D03*
X260500D02*
D03*
X257941D02*
D03*
X347941D02*
D03*
X350500D02*
D03*
X353059D02*
D03*
Y40709D02*
D03*
X350500D02*
D03*
X347941D02*
D03*
X370941D02*
D03*
X373500D02*
D03*
X376059D02*
D03*
Y47008D02*
D03*
X373500D02*
D03*
X370941D02*
D03*
X393441Y47508D02*
D03*
X396000D02*
D03*
X398559D02*
D03*
Y41209D02*
D03*
X396000D02*
D03*
X393441D02*
D03*
D56*
X269000Y47000D02*
D03*
Y41488D02*
D03*
X404500Y47012D02*
D03*
Y41500D02*
D03*
X382000Y47012D02*
D03*
Y41500D02*
D03*
X359000Y46512D02*
D03*
Y41000D02*
D03*
X336500Y46500D02*
D03*
Y40988D02*
D03*
X313500Y46512D02*
D03*
Y41000D02*
D03*
X291000Y46500D02*
D03*
Y40988D02*
D03*
X247500Y47000D02*
D03*
Y41488D02*
D03*
X107625Y116223D02*
D03*
Y121735D02*
D03*
X114625Y116212D02*
D03*
Y121723D02*
D03*
X72625Y28735D02*
D03*
Y23223D02*
D03*
X114633Y318475D02*
D03*
Y323987D02*
D03*
X339611Y82736D02*
D03*
Y88248D02*
D03*
X343500Y252988D02*
D03*
Y258500D02*
D03*
X346611Y77236D02*
D03*
Y82748D02*
D03*
X350500Y247488D02*
D03*
Y253000D02*
D03*
X339611Y138248D02*
D03*
Y143759D02*
D03*
X343500Y308500D02*
D03*
Y314012D02*
D03*
X346611Y132747D02*
D03*
Y138259D02*
D03*
X350500Y303000D02*
D03*
Y308512D02*
D03*
X339611Y127236D02*
D03*
Y132747D02*
D03*
X343500Y297488D02*
D03*
Y303000D02*
D03*
X346611Y121736D02*
D03*
Y127248D02*
D03*
X350500Y291988D02*
D03*
Y297500D02*
D03*
X343500Y286488D02*
D03*
Y292000D02*
D03*
X346611Y110736D02*
D03*
Y116247D02*
D03*
X350500Y280988D02*
D03*
Y286500D02*
D03*
X339611Y105236D02*
D03*
Y110748D02*
D03*
X343500Y275488D02*
D03*
Y281000D02*
D03*
X346611Y99748D02*
D03*
Y105259D02*
D03*
X350500Y270000D02*
D03*
Y275512D02*
D03*
X339611Y94236D02*
D03*
Y99748D02*
D03*
X343500Y264488D02*
D03*
Y270000D02*
D03*
X346611Y88248D02*
D03*
Y93759D02*
D03*
X350500Y258500D02*
D03*
Y264012D02*
D03*
X129800Y252319D02*
D03*
Y257831D02*
D03*
X115550Y252319D02*
D03*
Y257831D02*
D03*
X101300Y252319D02*
D03*
Y257831D02*
D03*
Y181319D02*
D03*
Y175807D02*
D03*
X115550Y181319D02*
D03*
Y175807D02*
D03*
X129800Y181319D02*
D03*
Y175807D02*
D03*
X144800Y199319D02*
D03*
Y193807D02*
D03*
X170800Y204819D02*
D03*
Y199307D02*
D03*
Y212319D02*
D03*
Y217831D02*
D03*
X339611Y116236D02*
D03*
Y121748D02*
D03*
X210500Y357512D02*
D03*
Y352000D02*
D03*
X207500Y83512D02*
D03*
Y78000D02*
D03*
X143500Y144500D02*
D03*
Y150012D02*
D03*
X115000Y309724D02*
D03*
Y304213D02*
D03*
D57*
X214800Y200370D02*
D03*
X219800D02*
D03*
X224800D02*
D03*
X229800D02*
D03*
X214800Y219268D02*
D03*
X219800D02*
D03*
X224800D02*
D03*
X229800D02*
D03*
D58*
X54417Y19945D02*
D03*
Y29000D02*
D03*
Y38055D02*
D03*
D59*
X31583Y29000D02*
D03*
D60*
X102625Y31180D02*
D03*
Y14723D02*
D03*
X82625Y31259D02*
D03*
Y14723D02*
D03*
D61*
X83503Y47999D02*
D03*
X85471D02*
D03*
X87440D02*
D03*
X89408D02*
D03*
X91377D02*
D03*
X93345D02*
D03*
X95314D02*
D03*
X97282D02*
D03*
X99251D02*
D03*
X101219D02*
D03*
X103188D02*
D03*
X105156D02*
D03*
X107125D02*
D03*
X109093D02*
D03*
X111062D02*
D03*
X113030D02*
D03*
X114999D02*
D03*
X116967D02*
D03*
X118936D02*
D03*
X120904D02*
D03*
X122873D02*
D03*
X124841D02*
D03*
X126810D02*
D03*
X128778D02*
D03*
X130747D02*
D03*
Y107448D02*
D03*
X128778D02*
D03*
X126810D02*
D03*
X124841D02*
D03*
X122873D02*
D03*
X120904D02*
D03*
X118936D02*
D03*
X116967D02*
D03*
X114999D02*
D03*
X113030D02*
D03*
X111062D02*
D03*
X109093D02*
D03*
X107125D02*
D03*
X105156D02*
D03*
X103188D02*
D03*
X101219D02*
D03*
X99251D02*
D03*
X97282D02*
D03*
X95314D02*
D03*
X93345D02*
D03*
X91377D02*
D03*
X89408D02*
D03*
X87440D02*
D03*
X85471D02*
D03*
X83503D02*
D03*
D62*
X136849Y54101D02*
D03*
Y56070D02*
D03*
Y58038D02*
D03*
Y60007D02*
D03*
Y61975D02*
D03*
Y63944D02*
D03*
Y65912D02*
D03*
Y67881D02*
D03*
Y69849D02*
D03*
Y71818D02*
D03*
Y73786D02*
D03*
Y75755D02*
D03*
Y77723D02*
D03*
Y79692D02*
D03*
Y81660D02*
D03*
Y83629D02*
D03*
Y85597D02*
D03*
Y87566D02*
D03*
Y89534D02*
D03*
Y91503D02*
D03*
Y93471D02*
D03*
Y95440D02*
D03*
Y97408D02*
D03*
Y99377D02*
D03*
Y101346D02*
D03*
X77400D02*
D03*
Y99377D02*
D03*
Y97408D02*
D03*
Y95440D02*
D03*
Y93471D02*
D03*
Y91503D02*
D03*
Y89534D02*
D03*
Y87566D02*
D03*
Y85597D02*
D03*
Y83629D02*
D03*
Y81660D02*
D03*
Y79692D02*
D03*
Y77723D02*
D03*
Y75755D02*
D03*
Y73786D02*
D03*
Y71818D02*
D03*
Y69849D02*
D03*
Y67881D02*
D03*
Y65912D02*
D03*
Y63944D02*
D03*
Y61975D02*
D03*
Y60007D02*
D03*
Y58038D02*
D03*
Y56070D02*
D03*
Y54101D02*
D03*
D63*
X104579Y242984D02*
D03*
X106547D02*
D03*
X110484D02*
D03*
X112453D02*
D03*
X118358D02*
D03*
X120327D02*
D03*
X124264D02*
D03*
X126232D02*
D03*
X128201D02*
D03*
X122295D02*
D03*
X116390D02*
D03*
X114421D02*
D03*
X108516D02*
D03*
X102610D02*
D03*
X100642D02*
D03*
X98673D02*
D03*
X96705D02*
D03*
X94736D02*
D03*
X92768D02*
D03*
X90799D02*
D03*
Y191016D02*
D03*
X92768D02*
D03*
X94736D02*
D03*
X96705D02*
D03*
X98673D02*
D03*
X100642D02*
D03*
X102610D02*
D03*
X108516D02*
D03*
X114421D02*
D03*
X116390D02*
D03*
X122295D02*
D03*
X128201D02*
D03*
X104579D02*
D03*
X106547D02*
D03*
X110484D02*
D03*
X112453D02*
D03*
X118358D02*
D03*
X120327D02*
D03*
X124264D02*
D03*
X126232D02*
D03*
D64*
X109500Y217000D02*
D03*
D65*
X83516Y235701D02*
D03*
Y233732D02*
D03*
Y231764D02*
D03*
Y229795D02*
D03*
Y227827D02*
D03*
Y225858D02*
D03*
Y223890D02*
D03*
Y221921D02*
D03*
Y219953D02*
D03*
Y217984D02*
D03*
Y216016D02*
D03*
Y214047D02*
D03*
Y212079D02*
D03*
Y210110D02*
D03*
Y208142D02*
D03*
Y206173D02*
D03*
Y204205D02*
D03*
Y202236D02*
D03*
Y200268D02*
D03*
Y198299D02*
D03*
X135484D02*
D03*
Y200268D02*
D03*
Y202236D02*
D03*
Y204205D02*
D03*
Y206173D02*
D03*
Y208142D02*
D03*
Y210110D02*
D03*
Y212079D02*
D03*
Y214047D02*
D03*
Y216016D02*
D03*
Y217984D02*
D03*
Y219953D02*
D03*
Y221921D02*
D03*
Y223890D02*
D03*
Y225858D02*
D03*
Y227827D02*
D03*
Y229795D02*
D03*
Y231764D02*
D03*
Y233732D02*
D03*
Y235701D02*
D03*
D66*
X535500Y106689D02*
D03*
Y118500D02*
D03*
X443001Y102988D02*
D03*
Y114799D02*
D03*
Y139114D02*
D03*
Y150925D02*
D03*
X446889Y309367D02*
D03*
Y321178D02*
D03*
X443001Y121051D02*
D03*
Y132862D02*
D03*
X446889Y291304D02*
D03*
Y303115D02*
D03*
Y273241D02*
D03*
Y285052D02*
D03*
X443001Y84925D02*
D03*
Y96736D02*
D03*
X446889Y255178D02*
D03*
Y266989D02*
D03*
X106000Y312500D02*
D03*
Y324311D02*
D03*
X95449Y340059D02*
D03*
Y328248D02*
D03*
X85212Y340059D02*
D03*
Y328248D02*
D03*
X461000Y255178D02*
D03*
Y266989D02*
D03*
X457500Y84925D02*
D03*
Y96736D02*
D03*
X461000Y273241D02*
D03*
Y285052D02*
D03*
X457500Y102988D02*
D03*
Y114799D02*
D03*
X461000Y291304D02*
D03*
Y303115D02*
D03*
X457500Y121051D02*
D03*
Y132862D02*
D03*
X461000Y309367D02*
D03*
Y321178D02*
D03*
X457500Y139114D02*
D03*
Y150925D02*
D03*
X523500Y118500D02*
D03*
Y106689D02*
D03*
D67*
X160724Y312500D02*
D03*
X152063D02*
D03*
X41609Y10197D02*
D03*
X32947D02*
D03*
D68*
X179300Y204981D02*
D03*
Y196319D02*
D03*
X179300Y220981D02*
D03*
Y212319D02*
D03*
X152457Y328642D02*
D03*
Y319980D02*
D03*
X64916Y23183D02*
D03*
Y31844D02*
D03*
X104819Y340059D02*
D03*
Y331398D02*
D03*
D69*
X47000Y259500D02*
D03*
Y250000D02*
D03*
Y185500D02*
D03*
Y176000D02*
D03*
X-9500Y260000D02*
D03*
Y250500D02*
D03*
X19500Y246000D02*
D03*
X19498Y236326D02*
D03*
X-9500Y239000D02*
D03*
Y229500D02*
D03*
X47000Y232000D02*
D03*
Y222500D02*
D03*
X20000Y220000D02*
D03*
Y210500D02*
D03*
X-9500Y216000D02*
D03*
X-9502Y206610D02*
D03*
X47000Y208500D02*
D03*
Y199000D02*
D03*
X20500Y194500D02*
D03*
Y185000D02*
D03*
D70*
X155016Y357382D02*
D03*
X116039D02*
D03*
D71*
X-49027Y264732D02*
D03*
Y261583D02*
D03*
Y258433D02*
D03*
Y255283D02*
D03*
Y252134D02*
D03*
Y248984D02*
D03*
Y245835D02*
D03*
Y242685D02*
D03*
Y239535D02*
D03*
Y236386D02*
D03*
Y233236D02*
D03*
Y230087D02*
D03*
Y226937D02*
D03*
Y223787D02*
D03*
Y220638D02*
D03*
Y217488D02*
D03*
Y214338D02*
D03*
Y211189D02*
D03*
Y208039D02*
D03*
Y204890D02*
D03*
Y201740D02*
D03*
Y198591D02*
D03*
Y182843D02*
D03*
Y179693D02*
D03*
Y176543D02*
D03*
Y173394D02*
D03*
Y170244D02*
D03*
Y167094D02*
D03*
Y163945D02*
D03*
Y160795D02*
D03*
Y157646D02*
D03*
Y154496D02*
D03*
Y151346D02*
D03*
Y148197D02*
D03*
Y145047D02*
D03*
Y141898D02*
D03*
Y138748D02*
D03*
Y135598D02*
D03*
Y132449D02*
D03*
Y129299D02*
D03*
D72*
X122535Y323937D02*
D03*
Y318937D02*
D03*
Y313937D02*
D03*
Y308937D02*
D03*
X143795Y323937D02*
D03*
Y318937D02*
D03*
Y313937D02*
D03*
Y308937D02*
D03*
D73*
X133165Y316437D02*
D03*
D74*
X382430Y137472D02*
D03*
Y135503D02*
D03*
Y133535D02*
D03*
Y131566D02*
D03*
Y129598D02*
D03*
Y127629D02*
D03*
Y125661D02*
D03*
Y123692D02*
D03*
Y121724D02*
D03*
Y119755D02*
D03*
Y117787D02*
D03*
Y115818D02*
D03*
Y113850D02*
D03*
Y111881D02*
D03*
Y109913D02*
D03*
Y107944D02*
D03*
Y105976D02*
D03*
Y104007D02*
D03*
Y102039D02*
D03*
X404477Y137472D02*
D03*
Y135503D02*
D03*
Y133535D02*
D03*
Y131566D02*
D03*
Y129598D02*
D03*
Y127629D02*
D03*
Y125661D02*
D03*
Y123692D02*
D03*
Y121724D02*
D03*
Y119755D02*
D03*
Y117787D02*
D03*
Y115818D02*
D03*
Y113850D02*
D03*
Y111881D02*
D03*
Y109913D02*
D03*
Y107944D02*
D03*
Y105976D02*
D03*
Y104007D02*
D03*
Y102039D02*
D03*
X386319Y307724D02*
D03*
Y305756D02*
D03*
Y303787D02*
D03*
Y301819D02*
D03*
Y299850D02*
D03*
Y297882D02*
D03*
Y295913D02*
D03*
Y293945D02*
D03*
Y291976D02*
D03*
Y290008D02*
D03*
Y288039D02*
D03*
Y286071D02*
D03*
Y284102D02*
D03*
Y282134D02*
D03*
Y280165D02*
D03*
Y278197D02*
D03*
Y276228D02*
D03*
Y274260D02*
D03*
Y272291D02*
D03*
X408366Y307724D02*
D03*
Y305756D02*
D03*
Y303787D02*
D03*
Y301819D02*
D03*
Y299850D02*
D03*
Y297882D02*
D03*
Y295913D02*
D03*
Y293945D02*
D03*
Y291976D02*
D03*
Y290008D02*
D03*
Y288039D02*
D03*
Y286071D02*
D03*
Y284102D02*
D03*
Y282134D02*
D03*
Y280165D02*
D03*
Y278197D02*
D03*
Y276228D02*
D03*
Y274260D02*
D03*
Y272291D02*
D03*
D75*
X393877Y263753D02*
D03*
Y260603D02*
D03*
X399389Y263753D02*
D03*
Y260603D02*
D03*
X389988Y93500D02*
D03*
Y90350D02*
D03*
X395500Y93500D02*
D03*
Y90350D02*
D03*
X393877Y319753D02*
D03*
Y316603D02*
D03*
X399389Y319753D02*
D03*
Y316603D02*
D03*
X389988Y149500D02*
D03*
Y146350D02*
D03*
X395500Y149500D02*
D03*
Y146350D02*
D03*
D76*
X393877Y267394D02*
D03*
Y256961D02*
D03*
X399389Y267394D02*
D03*
Y256961D02*
D03*
X389988Y97142D02*
D03*
Y86709D02*
D03*
X395500Y97142D02*
D03*
Y86709D02*
D03*
X393877Y323394D02*
D03*
Y312961D02*
D03*
X399389Y323394D02*
D03*
Y312961D02*
D03*
X389988Y153142D02*
D03*
Y142709D02*
D03*
X395500Y153142D02*
D03*
Y142709D02*
D03*
D77*
X405623Y32925D02*
D03*
Y24657D02*
D03*
X383261Y32925D02*
D03*
Y24657D02*
D03*
X360000Y32992D02*
D03*
Y24724D02*
D03*
X337531Y32992D02*
D03*
Y24724D02*
D03*
X314578Y32925D02*
D03*
Y24657D02*
D03*
X292000Y32992D02*
D03*
Y24724D02*
D03*
X269804Y32925D02*
D03*
Y24657D02*
D03*
X248500Y32992D02*
D03*
Y24724D02*
D03*
X13000Y358366D02*
D03*
Y366634D02*
D03*
X39850Y357776D02*
D03*
Y366043D02*
D03*
X21625Y13590D02*
D03*
Y21857D02*
D03*
D78*
X58000Y335000D02*
D03*
X69811D02*
D03*
X70000Y355000D02*
D03*
X58189D02*
D03*
D79*
X123125Y39223D02*
D03*
Y32924D02*
D03*
X398500Y32358D02*
D03*
Y26059D02*
D03*
X376000Y32157D02*
D03*
Y25858D02*
D03*
X353000Y31858D02*
D03*
Y25559D02*
D03*
X330500Y31858D02*
D03*
Y25559D02*
D03*
X241500Y32358D02*
D03*
Y26059D02*
D03*
X307500Y31858D02*
D03*
Y25559D02*
D03*
X285000Y32358D02*
D03*
Y26059D02*
D03*
X262500Y31657D02*
D03*
Y25358D02*
D03*
X83500Y115500D02*
D03*
Y121799D02*
D03*
X76500Y115500D02*
D03*
Y121799D02*
D03*
X20874Y365256D02*
D03*
Y358957D02*
D03*
X31976Y358760D02*
D03*
Y365059D02*
D03*
X151599Y199789D02*
D03*
Y193489D02*
D03*
Y188726D02*
D03*
Y182426D02*
D03*
X130125Y39223D02*
D03*
Y32924D02*
D03*
X-12000Y131299D02*
D03*
Y125000D02*
D03*
X-26000Y125000D02*
D03*
Y131299D02*
D03*
X-19000Y131299D02*
D03*
Y125000D02*
D03*
X147850Y298043D02*
D03*
Y304343D02*
D03*
X12954Y14322D02*
D03*
Y20621D02*
D03*
D80*
X359611Y139248D02*
D03*
X353312D02*
D03*
X363500Y309000D02*
D03*
X357201D02*
D03*
X433891Y145991D02*
D03*
X427592D02*
D03*
X437780Y316244D02*
D03*
X431481D02*
D03*
X433911Y139299D02*
D03*
X427611D02*
D03*
X437799Y309552D02*
D03*
X431500D02*
D03*
X359611Y132247D02*
D03*
X353312D02*
D03*
X363500Y302000D02*
D03*
X357201D02*
D03*
X359611Y122598D02*
D03*
X353312D02*
D03*
X363500Y292850D02*
D03*
X357201D02*
D03*
X433911Y128598D02*
D03*
X427611D02*
D03*
X437799Y298850D02*
D03*
X431500D02*
D03*
X433911Y122023D02*
D03*
X427611D02*
D03*
X437799Y292276D02*
D03*
X431500D02*
D03*
X359611Y115523D02*
D03*
X353312D02*
D03*
X363500Y285776D02*
D03*
X357201D02*
D03*
X359611Y106019D02*
D03*
X353312D02*
D03*
X363500Y276272D02*
D03*
X357201D02*
D03*
X433911Y114519D02*
D03*
X427611D02*
D03*
X437799Y284772D02*
D03*
X431500D02*
D03*
X433891Y107826D02*
D03*
X427592D02*
D03*
X437780Y278079D02*
D03*
X431480D02*
D03*
X359611Y98826D02*
D03*
X353312D02*
D03*
X363500Y269079D02*
D03*
X357201D02*
D03*
X359611Y89248D02*
D03*
X353312D02*
D03*
X363500Y259000D02*
D03*
X357201D02*
D03*
X433911Y96440D02*
D03*
X427611D02*
D03*
X437799Y266693D02*
D03*
X431500D02*
D03*
X433911Y89748D02*
D03*
X427611D02*
D03*
X437799Y260000D02*
D03*
X431500D02*
D03*
X359611Y82248D02*
D03*
X353312D02*
D03*
X363500Y252000D02*
D03*
X357201D02*
D03*
X164300Y218319D02*
D03*
X158001D02*
D03*
X157957Y205173D02*
D03*
X164256D02*
D03*
X157957Y211748D02*
D03*
X164256D02*
D03*
X69125Y89223D02*
D03*
X62825D02*
D03*
X69125Y102223D02*
D03*
X62825D02*
D03*
X142299Y301500D02*
D03*
X136000D02*
D03*
X102701Y305000D02*
D03*
X109000D02*
D03*
D81*
X68636Y78224D02*
D03*
X63125D02*
D03*
X145988Y77000D02*
D03*
X151500D02*
D03*
X108125Y39723D02*
D03*
X113636D02*
D03*
X68625Y66224D02*
D03*
X63113D02*
D03*
X68625Y95723D02*
D03*
X63113D02*
D03*
X145613Y90223D02*
D03*
X151125D02*
D03*
X145988Y64500D02*
D03*
X151500D02*
D03*
X98136Y39724D02*
D03*
X92625D02*
D03*
X418512Y129500D02*
D03*
X413000D02*
D03*
X422238Y299844D02*
D03*
X416726D02*
D03*
X418361Y140925D02*
D03*
X412849D02*
D03*
X422250Y311178D02*
D03*
X416738D02*
D03*
X418361Y118259D02*
D03*
X412849D02*
D03*
X422250Y288511D02*
D03*
X416738D02*
D03*
X374012Y106925D02*
D03*
X368500D02*
D03*
X377901Y277178D02*
D03*
X372389D02*
D03*
X374001Y118259D02*
D03*
X368489D02*
D03*
X377889Y288511D02*
D03*
X372377D02*
D03*
X374012Y129592D02*
D03*
X368500D02*
D03*
X377901Y299844D02*
D03*
X372389D02*
D03*
X374001Y140925D02*
D03*
X368489D02*
D03*
X377889Y311178D02*
D03*
X372377D02*
D03*
X418361Y106925D02*
D03*
X412849D02*
D03*
X422250Y277178D02*
D03*
X416738D02*
D03*
X145288Y217319D02*
D03*
X150800D02*
D03*
X145300Y224319D02*
D03*
X150812D02*
D03*
X73800Y227319D02*
D03*
X68288D02*
D03*
X73800Y207319D02*
D03*
X68288D02*
D03*
X225300Y191319D02*
D03*
X230812D02*
D03*
X219300Y228319D02*
D03*
X213788D02*
D03*
X197988Y352000D02*
D03*
X203500D02*
D03*
X207500Y374000D02*
D03*
X201988D02*
D03*
X195500Y76500D02*
D03*
X201012D02*
D03*
X204000Y99500D02*
D03*
X198488D02*
D03*
X101488Y158000D02*
D03*
X107000D02*
D03*
X159988Y99500D02*
D03*
X165500D02*
D03*
X181000Y70000D02*
D03*
X186512D02*
D03*
D82*
X277402Y345861D02*
D03*
X272402D02*
D03*
X277402Y350861D02*
D03*
X272402D02*
D03*
X277402Y355861D02*
D03*
X272402D02*
D03*
X216500Y325000D02*
D03*
X221500D02*
D03*
X216500Y320000D02*
D03*
X221500D02*
D03*
X216500Y315000D02*
D03*
X221500D02*
D03*
X277402Y287361D02*
D03*
X272402D02*
D03*
X277402Y292361D02*
D03*
X272402D02*
D03*
X277402Y297361D02*
D03*
X272402D02*
D03*
X217500Y263500D02*
D03*
X222500D02*
D03*
X217500Y258500D02*
D03*
X222500D02*
D03*
X217500Y253500D02*
D03*
X222500D02*
D03*
X219500Y146000D02*
D03*
X214500D02*
D03*
X219500Y151000D02*
D03*
X214500D02*
D03*
X219500Y156000D02*
D03*
X214500D02*
D03*
X272500Y127500D02*
D03*
X277500D02*
D03*
X272500Y122500D02*
D03*
X277500D02*
D03*
X272500Y117500D02*
D03*
X277500D02*
D03*
X219500Y92500D02*
D03*
X214500D02*
D03*
X219500Y97500D02*
D03*
X214500D02*
D03*
X219500Y102500D02*
D03*
X214500D02*
D03*
X272402Y69861D02*
D03*
X277402D02*
D03*
X272402Y64861D02*
D03*
X277402D02*
D03*
X272402Y59861D02*
D03*
X277402D02*
D03*
D83*
X517500Y83000D02*
D03*
D84*
X527500D02*
D03*
X517500Y73000D02*
D03*
X527500D02*
D03*
X517500Y63000D02*
D03*
X527500D02*
D03*
X517500Y53000D02*
D03*
X527500D02*
D03*
X517500Y43000D02*
D03*
X527500D02*
D03*
D85*
X109500Y217000D02*
D03*
D86*
X34500Y294000D02*
D03*
X86500Y378390D02*
D03*
D87*
X20720Y294000D02*
D03*
D88*
X86500Y364610D02*
D03*
D89*
X22500Y324000D02*
D03*
Y334000D02*
D03*
X32500Y324000D02*
D03*
Y334000D02*
D03*
D90*
X536500Y180000D02*
D03*
Y242000D02*
D03*
D91*
X529500Y176000D02*
D03*
X536500Y172000D02*
D03*
X529500Y168000D02*
D03*
X536500Y164000D02*
D03*
X529500Y160000D02*
D03*
X536500Y156000D02*
D03*
X529500Y152000D02*
D03*
Y214000D02*
D03*
X536500Y218000D02*
D03*
X529500Y222000D02*
D03*
X536500Y226000D02*
D03*
X529500Y230000D02*
D03*
X536500Y234000D02*
D03*
X529500Y238000D02*
D03*
D92*
X546500Y141000D02*
D03*
Y253000D02*
D03*
D93*
X533000Y134000D02*
D03*
Y260000D02*
D03*
D94*
X59000Y378000D02*
D03*
X17000Y151000D02*
D03*
X168500Y273000D02*
D03*
X59500Y300000D02*
D03*
X36000Y64500D02*
D03*
X56000Y161500D02*
D03*
X158500Y229500D02*
D03*
X147500Y115000D02*
D03*
X148500Y239000D02*
D03*
X128500Y121500D02*
D03*
X65500Y140000D02*
D03*
D95*
X100642Y219953D02*
D03*
Y225858D02*
D03*
Y214047D02*
D03*
Y208142D02*
D03*
X106547Y219953D02*
D03*
Y225858D02*
D03*
Y208142D02*
D03*
X118358Y219953D02*
D03*
Y225858D02*
D03*
Y214047D02*
D03*
Y208142D02*
D03*
X112453Y219953D02*
D03*
Y225858D02*
D03*
Y214047D02*
D03*
Y208142D02*
D03*
X106547Y214047D02*
D03*
D96*
X131000Y320768D02*
D03*
X135331D02*
D03*
X131000Y316437D02*
D03*
X135331D02*
D03*
X131000Y312106D02*
D03*
X135331D02*
D03*
M02*
