G04*
G04 #@! TF.GenerationSoftware,Altium Limited,Altium Designer,20.0.13 (296)*
G04*
G04 Layer_Color=32896*
%FSLAX25Y25*%
%MOIN*%
G70*
G01*
G75*
%ADD10C,0.00787*%
%ADD16C,0.00800*%
%ADD21C,0.01000*%
%ADD129C,0.00013*%
%ADD130C,0.00598*%
G36*
X444919Y225206D02*
X445288Y225053D01*
X445604Y224810D01*
X445604Y224810D01*
X445605Y224810D01*
X445847Y224493D01*
X446000Y224124D01*
X446035Y223856D01*
X446052Y223728D01*
X446052Y223595D01*
Y202619D01*
X446041D01*
X446087Y202389D01*
X446217Y202193D01*
X446412Y202063D01*
X446642Y202017D01*
X446645Y202018D01*
X446775Y202028D01*
X461306D01*
Y202027D01*
X461526Y201983D01*
X461713Y201858D01*
X461783Y201753D01*
X461838Y201671D01*
X461882Y201450D01*
X461838Y201230D01*
X461713Y201043D01*
X461608Y200973D01*
X461526Y200918D01*
X461306Y200874D01*
Y200872D01*
X446425D01*
X446425Y200872D01*
X446033Y200924D01*
X445664Y201077D01*
X445441Y201248D01*
X445341Y201328D01*
X445103Y201638D01*
X444950Y202007D01*
X444898Y202404D01*
X444900Y202418D01*
X444898Y202418D01*
X444898Y202418D01*
Y223384D01*
X444909Y223514D01*
X444909Y223514D01*
X444863Y223745D01*
X444732Y223941D01*
X444536Y224072D01*
X444308Y224117D01*
X444308Y224107D01*
X444308Y224107D01*
X427060D01*
X427060Y224107D01*
X427060Y224117D01*
X426832Y224072D01*
X426636Y223941D01*
X426505Y223745D01*
X426459Y223514D01*
X426470Y223514D01*
Y202537D01*
X426470Y202404D01*
X426453Y202274D01*
X426418Y202007D01*
X426265Y201638D01*
X426021Y201320D01*
X425704Y201077D01*
X425335Y200924D01*
X424941Y200872D01*
Y200872D01*
X418686D01*
X418684Y200874D01*
X418684D01*
X418466Y200918D01*
X418379Y200976D01*
X418275Y201048D01*
X418154Y201230D01*
X418133Y201337D01*
X418111Y201456D01*
X418112Y201461D01*
X418135Y201586D01*
X418154Y201682D01*
X418279Y201869D01*
X418466Y201994D01*
X418684Y202037D01*
X418684Y202037D01*
Y202037D01*
X418686Y202040D01*
X424594D01*
X424723Y202029D01*
X424726Y202029D01*
X424956Y202074D01*
X425150Y202204D01*
X425151Y202205D01*
X425281Y202400D01*
X425327Y202630D01*
X425327Y202630D01*
X425316Y202759D01*
Y223595D01*
Y223728D01*
X425333Y223858D01*
X425368Y224124D01*
X425521Y224493D01*
X425764Y224810D01*
X425764Y224810D01*
X425764Y224810D01*
X426081Y225053D01*
X426449Y225206D01*
X426845Y225258D01*
X426845Y225258D01*
X444523D01*
X444523Y225258D01*
X444919Y225206D01*
D02*
G37*
G36*
X467983D02*
X468352Y225053D01*
X468669Y224810D01*
X468669Y224810D01*
X468669Y224810D01*
X468912Y224493D01*
X469065Y224124D01*
X469117Y223729D01*
X469117Y223728D01*
Y208499D01*
X469115D01*
X469071Y208278D01*
X469016Y208196D01*
X468946Y208091D01*
X468759Y207966D01*
X468665Y207948D01*
X468538Y207923D01*
Y207923D01*
X468319Y207966D01*
X468133Y208090D01*
X468008Y208277D01*
X467965Y208496D01*
X467965Y208499D01*
X467963Y208499D01*
X467963Y208499D01*
Y223511D01*
X467974Y223522D01*
X467928Y223753D01*
X467797Y223949D01*
X467601Y224080D01*
X467370Y224126D01*
Y224115D01*
X452368D01*
X452238Y224126D01*
X452236Y224127D01*
X452235Y224128D01*
X452113Y224077D01*
X452062Y223954D01*
X452063Y223953D01*
X452103Y223855D01*
X452185Y223751D01*
X468156Y202110D01*
X468156Y202107D01*
X468156Y202107D01*
X468239Y202051D01*
X468283Y202043D01*
X468285Y202042D01*
X485004D01*
X485134Y202032D01*
X485137Y202031D01*
X485367Y202077D01*
X485561Y202207D01*
X485561D01*
X485562Y202207D01*
X485692Y202402D01*
X485738Y202632D01*
Y202632D01*
X485727Y202762D01*
Y224565D01*
X485729Y224565D01*
X485773Y224786D01*
X485897Y224973D01*
X486085Y225098D01*
X486303Y225141D01*
Y225141D01*
X486432Y225116D01*
X486523Y225098D01*
X486605Y225043D01*
X486710Y224973D01*
X486835Y224786D01*
X486879Y224565D01*
X486881D01*
Y202537D01*
Y202404D01*
X486881D01*
X486864Y202274D01*
X486829Y202007D01*
X486676Y201638D01*
X486432Y201320D01*
X486115Y201077D01*
X485745Y200924D01*
X485352Y200872D01*
Y200872D01*
X468292D01*
X468285Y200879D01*
X468285D01*
X467985Y200919D01*
X467651Y201057D01*
X467364Y201278D01*
X467244Y201434D01*
X467244D01*
X467226Y201437D01*
X450524Y224042D01*
X450524Y224043D01*
X450532Y224050D01*
X450454Y224152D01*
X450381Y224329D01*
X450356Y224519D01*
X450381Y224709D01*
X450454Y224886D01*
X450571Y225038D01*
X450723Y225154D01*
X450900Y225228D01*
X451089Y225253D01*
X451135Y225247D01*
X451137Y225258D01*
X467588D01*
X467588Y225258D01*
X467983Y225206D01*
D02*
G37*
G36*
X436990Y193754D02*
X437785Y193596D01*
X438528Y193343D01*
X438530Y193340D01*
Y193340D01*
X438530Y193340D01*
X439109Y193055D01*
X439666Y192683D01*
X440170Y192241D01*
X440406Y191971D01*
X440407Y191971D01*
X440615Y191734D01*
X441065Y191060D01*
X441424Y190333D01*
X441609Y189787D01*
Y189787D01*
X441617Y189783D01*
X441845Y188872D01*
X441996Y187854D01*
X442046Y186826D01*
X441996Y185798D01*
X441845Y184780D01*
X441617Y183869D01*
X441608Y183864D01*
X441550Y183663D01*
X441277Y183002D01*
X440931Y182376D01*
X440517Y181793D01*
X440400Y181662D01*
X440398Y181664D01*
X440145Y181375D01*
X439652Y180942D01*
X439107Y180578D01*
X438538Y180298D01*
X438527Y180302D01*
X438286Y180202D01*
X437566Y179995D01*
X436827Y179869D01*
X436079Y179827D01*
X435330Y179869D01*
X434592Y179995D01*
X433872Y180202D01*
X433631Y180302D01*
X433621Y180298D01*
X433058Y180576D01*
X432498Y180950D01*
X431992Y181394D01*
X431748Y181672D01*
X431746Y181670D01*
X431640Y181789D01*
X431230Y182367D01*
X430888Y182986D01*
X430617Y183640D01*
X430550Y183873D01*
X430550D01*
X430541Y183878D01*
X430318Y184768D01*
X430167Y185788D01*
X430116Y186817D01*
X430167Y187847D01*
X430318Y188867D01*
X430542Y189758D01*
X430548Y189762D01*
X430548D01*
X430548Y189762D01*
X430732Y190304D01*
X431093Y191034D01*
X431545Y191711D01*
X431753Y191949D01*
X431754Y191949D01*
X432004Y192234D01*
X432506Y192674D01*
X433061Y193045D01*
X433623Y193322D01*
X433634Y193318D01*
X433958Y193452D01*
X434633Y193646D01*
X435326Y193764D01*
X435974Y193800D01*
X436108Y193799D01*
X436242Y193803D01*
X436990Y193754D01*
D02*
G37*
G36*
X466544Y193797D02*
X466678Y193800D01*
X467038Y193785D01*
X467171Y193779D01*
X467505Y193762D01*
X467506Y193762D01*
X467689Y193753D01*
X467949Y193714D01*
X468081Y193697D01*
X468366Y193648D01*
X468366Y193648D01*
Y193648D01*
X468630Y193603D01*
X468760Y193570D01*
X468915Y193539D01*
X469127Y193467D01*
X469127Y193467D01*
X469345Y193393D01*
X469470Y193350D01*
X469486Y193344D01*
X469595Y193303D01*
X469786Y193209D01*
X469909Y193157D01*
X470241Y192954D01*
X470350Y192886D01*
X470452Y192804D01*
X470766Y192536D01*
X471103Y192141D01*
X471389Y191675D01*
X471488Y191435D01*
X471488D01*
X471539Y191311D01*
X471611Y191139D01*
X471604Y191126D01*
X471671Y190929D01*
X471704Y190799D01*
X471730Y190672D01*
X471819Y190226D01*
X471804Y190170D01*
X471732Y190093D01*
X470482D01*
X470461Y190304D01*
X470326Y190752D01*
X470105Y191164D01*
X469809Y191525D01*
X469478Y191796D01*
X469447Y191822D01*
X469367Y191866D01*
Y191866D01*
X469166Y191973D01*
X469169Y191980D01*
X468948Y192072D01*
Y192072D01*
X468714Y192168D01*
X468715Y192170D01*
X468691Y192180D01*
X468588Y192205D01*
X468465Y192234D01*
X468459Y192245D01*
X468306Y192275D01*
X468182Y192299D01*
X468181Y192300D01*
X468180Y192300D01*
X468058Y192324D01*
X467890Y192358D01*
X467885Y192353D01*
X467709Y192383D01*
X467608Y192401D01*
X467579Y192404D01*
Y192404D01*
X467381Y192415D01*
X467248Y192423D01*
X466663Y192452D01*
X466549Y192458D01*
X466531Y192457D01*
X466397Y192456D01*
X466318Y192461D01*
X465610Y192415D01*
X464915Y192276D01*
X464501Y192136D01*
X464499Y192141D01*
X464499Y192141D01*
X464431Y192120D01*
X464375Y192090D01*
X464000Y191890D01*
X463622Y191579D01*
X463462Y191385D01*
X463380Y191285D01*
X463182Y190962D01*
X463008Y190542D01*
X462910Y190133D01*
X462902Y190099D01*
X462894Y190000D01*
X462879Y189867D01*
X462826Y189465D01*
X462784Y188504D01*
X462782Y188458D01*
Y188458D01*
X462785Y188384D01*
X462795Y188380D01*
X462795Y188379D01*
X462800Y188377D01*
X462800Y188377D01*
X462800D01*
X464392Y188377D01*
Y188376D01*
X464402Y188376D01*
X465025Y188356D01*
X465159Y188352D01*
X465292Y188347D01*
X465753Y188330D01*
X465886Y188322D01*
X466019Y188316D01*
X466020Y188316D01*
X466441Y188266D01*
X466573Y188250D01*
X466706Y188235D01*
X467221Y188167D01*
X467222Y188166D01*
X467400Y188143D01*
X467830Y188047D01*
Y188047D01*
X467961Y188020D01*
X468400Y187910D01*
X468400Y187910D01*
Y187910D01*
X468609Y187857D01*
X468929Y187743D01*
X469057Y187703D01*
X469419Y187553D01*
X469543Y187501D01*
X470055Y187249D01*
X470174Y187169D01*
X470282Y187096D01*
X470602Y186900D01*
X471079Y186492D01*
X471487Y186015D01*
X471815Y185479D01*
X472056Y184899D01*
X472202Y184289D01*
X472249Y183691D01*
X472247Y183601D01*
X472243Y183558D01*
X472243D01*
X472243Y183424D01*
X472205Y182946D01*
X472073Y182397D01*
X471971Y182151D01*
X471920Y182029D01*
X471920D01*
X471857Y181876D01*
X471569Y181406D01*
X471211Y180987D01*
X471049Y180849D01*
X471049Y180849D01*
X470788Y180626D01*
X470265Y180306D01*
X469866Y180140D01*
X469739Y180097D01*
X469431Y179992D01*
X468791Y179865D01*
X468233Y179829D01*
X468101Y179825D01*
X467967Y179827D01*
X467149Y179868D01*
X466804Y179919D01*
X466671Y179934D01*
X466028Y180061D01*
X465640Y180193D01*
X465517Y180235D01*
X465391Y180280D01*
X464827Y180514D01*
X464310Y180800D01*
X464196Y180870D01*
X464196D01*
X463800Y181108D01*
X463060Y181657D01*
X463010Y181702D01*
X462918Y181785D01*
X462805Y181888D01*
X462787Y181879D01*
X462784Y181874D01*
X462784Y181726D01*
Y181602D01*
Y180163D01*
X461405D01*
Y188850D01*
X461405Y188850D01*
X461411Y188850D01*
X461406Y188935D01*
X461451Y189738D01*
X461586Y190532D01*
X461696Y190913D01*
X461692Y190914D01*
X461722Y191041D01*
X461951Y191592D01*
X462263Y192102D01*
X462580Y192473D01*
X462674Y192566D01*
X463067Y192901D01*
X463598Y193227D01*
X464158Y193459D01*
X464169Y193454D01*
X464762Y193625D01*
X465563Y193761D01*
X466373Y193807D01*
X466544Y193797D01*
D02*
G37*
G36*
X426760Y180163D02*
X425380D01*
Y189879D01*
X425378Y189883D01*
X425383Y189887D01*
X424817Y190511D01*
X424078Y191181D01*
X423370Y191706D01*
X423277Y191775D01*
X423261Y191784D01*
X423256Y191777D01*
X422861Y192019D01*
X422278Y192261D01*
X421664Y192408D01*
X421060Y192456D01*
Y192456D01*
X420944Y192460D01*
X420927Y192459D01*
X420266Y192407D01*
X419720Y192276D01*
X419605Y192248D01*
X419590Y192242D01*
X419465Y192193D01*
X419455Y192190D01*
X419063Y191980D01*
X418719Y191698D01*
X418620Y191576D01*
X418620Y191576D01*
X418536Y191473D01*
X418465Y191386D01*
X418214Y190918D01*
X418075Y190459D01*
X418075Y190459D01*
X417951Y189730D01*
X417909Y188983D01*
X417907Y188947D01*
X417913Y188850D01*
X417918Y188718D01*
Y180163D01*
X416539D01*
Y188970D01*
X416539Y188970D01*
X416541Y188970D01*
X416540Y188993D01*
X416577Y189756D01*
X416588Y189889D01*
X416588D01*
X416597Y190035D01*
X416689Y190578D01*
X416716Y190709D01*
X416773Y190996D01*
X416922Y191434D01*
X416965Y191560D01*
X417111Y191912D01*
X417385Y192359D01*
X417725Y192757D01*
X418123Y193097D01*
X418564Y193368D01*
X418565Y193367D01*
X418565Y193367D01*
Y193367D01*
X419058Y193571D01*
X419186Y193604D01*
X419314Y193641D01*
X419912Y193760D01*
X420539Y193801D01*
X420652Y193802D01*
X420672Y193800D01*
Y193800D01*
X420804Y193795D01*
X421369Y193763D01*
X421698Y193707D01*
X421829Y193684D01*
X422201Y193610D01*
X422715Y193436D01*
X422840Y193391D01*
X422959Y193335D01*
X423505Y193066D01*
X424066Y192691D01*
X424067Y192685D01*
X424247Y192557D01*
X424951Y191928D01*
X425156Y191698D01*
X425238Y191606D01*
X425350Y191481D01*
X425364Y191486D01*
X425365Y191486D01*
X425370Y191488D01*
X425372Y191493D01*
X425372Y191657D01*
Y191657D01*
X425372Y191781D01*
X425380Y198961D01*
X426760D01*
Y180163D01*
D02*
G37*
G36*
X406864Y193797D02*
Y193797D01*
X406998Y193794D01*
X407539Y193764D01*
X407804Y193719D01*
X407814Y193725D01*
X408407Y193583D01*
X408840Y193403D01*
X408840D01*
X408840Y193404D01*
X409349Y193152D01*
X409993Y192722D01*
X409995Y192708D01*
Y192708D01*
X410234Y192531D01*
X410882Y191943D01*
X411105Y191698D01*
X411188Y191606D01*
X411188D01*
X411301Y191481D01*
X411314Y191486D01*
X411315Y191486D01*
X411315Y191486D01*
X411320Y191488D01*
X411320Y191488D01*
X411322Y191493D01*
Y191658D01*
X411322Y191781D01*
Y193463D01*
X412702D01*
Y180163D01*
X411322D01*
Y189845D01*
Y189845D01*
X411320Y189850D01*
X411322Y189851D01*
X411177Y190047D01*
X410534Y190756D01*
X409826Y191398D01*
X409328Y191767D01*
X409333Y191774D01*
X408867Y192060D01*
X408339Y192278D01*
X407783Y192412D01*
X407244Y192454D01*
Y192454D01*
X407145Y192457D01*
X407110Y192454D01*
X406623Y192416D01*
X406114Y192294D01*
X406108Y192291D01*
X405985Y192242D01*
X405925Y192224D01*
X405863Y192190D01*
X405606Y192053D01*
X405327Y191824D01*
X405145Y191602D01*
X405138Y191606D01*
X405138Y191606D01*
X405123Y191588D01*
X405070Y191490D01*
X404866Y191108D01*
X404716Y190615D01*
X404708Y190586D01*
X404698Y190483D01*
X404700Y190483D01*
X404606Y189846D01*
X404563Y188982D01*
X404563Y188968D01*
X404568Y188850D01*
X404574Y188717D01*
Y180158D01*
X403194D01*
Y189840D01*
X403192Y189844D01*
X403193Y189845D01*
X403026Y190070D01*
X402449Y190707D01*
X401812Y191284D01*
X401160Y191768D01*
X401157Y191764D01*
X400738Y192022D01*
X400165Y192259D01*
X399562Y192403D01*
X399120Y192438D01*
X398993Y192450D01*
Y192450D01*
X398989Y192450D01*
X398838Y192440D01*
X398704Y192432D01*
X398431Y192411D01*
Y192411D01*
X398320Y192401D01*
X398299Y192396D01*
X398176Y192366D01*
X398176Y192366D01*
X397937Y192309D01*
X397937Y192306D01*
X397812Y192268D01*
X397713Y192238D01*
X397677Y192226D01*
X397513Y192138D01*
X397513D01*
X397511Y192137D01*
X397511Y192137D01*
X397396Y192075D01*
X397323Y192036D01*
Y192036D01*
X397316Y192030D01*
X397226Y191957D01*
X397223Y191954D01*
X397219Y191952D01*
X397056Y191818D01*
X396880Y191602D01*
X396878Y191603D01*
X396878Y191603D01*
X396842Y191559D01*
X396768Y191422D01*
X396768Y191422D01*
X396768D01*
X396662Y191223D01*
X396666Y191221D01*
X396574Y191000D01*
X396573Y191000D01*
X396531Y190898D01*
X396528Y190886D01*
X396528Y190886D01*
X396526Y190877D01*
X396494Y190758D01*
X396476Y190704D01*
X396459Y190622D01*
X396433Y190492D01*
X396376Y190207D01*
X396376D01*
X396358Y190074D01*
X396350Y190029D01*
X396326Y189900D01*
X396315Y189704D01*
X396307Y189571D01*
X396278Y188982D01*
X396272Y188870D01*
X396273Y188850D01*
X396284Y188721D01*
Y180163D01*
X394999D01*
X394905Y180258D01*
X394921Y188970D01*
X394922Y188970D01*
X394921Y188999D01*
X394958Y189756D01*
X394968Y189889D01*
X394981Y190127D01*
X395058Y190579D01*
X395081Y190710D01*
X395108Y190840D01*
X395167Y191141D01*
X395267Y191434D01*
X395267Y191434D01*
X395267Y191434D01*
X395376Y191757D01*
X395526Y192061D01*
X395584Y192181D01*
X395789Y192516D01*
X396097Y192876D01*
X396458Y193184D01*
X396747Y193361D01*
X396747D01*
X396862Y193429D01*
X397179Y193560D01*
X397301Y193609D01*
X397425Y193639D01*
X397903Y193754D01*
X398506Y193801D01*
X398637Y193802D01*
X398639Y193802D01*
Y193802D01*
X398770Y193795D01*
X399342Y193763D01*
X399811Y193683D01*
X399812Y193682D01*
X400190Y193607D01*
X400835Y193388D01*
X401013Y193300D01*
X401012Y193299D01*
X401429Y193094D01*
X402047Y192680D01*
X402189Y192557D01*
X402188Y192555D01*
X402601Y192193D01*
X403136Y191583D01*
X403283Y191363D01*
X403313Y191369D01*
X403335Y191458D01*
X403347Y191490D01*
X403352Y191501D01*
X403539Y191952D01*
X403816Y192404D01*
X404161Y192808D01*
X404532Y193125D01*
X404644Y193197D01*
X404758Y193266D01*
X404937Y193376D01*
X405511Y193614D01*
X406115Y193759D01*
X406734Y193807D01*
X406864Y193797D01*
D02*
G37*
G36*
X457676Y197599D02*
X446006D01*
X446004Y197598D01*
X446002Y197597D01*
X446002Y197597D01*
X446001Y197597D01*
X446001Y197596D01*
X446000Y197594D01*
X445999Y197592D01*
X445999Y197592D01*
X445999Y197591D01*
X446000Y197589D01*
X446001Y197587D01*
X446101Y197465D01*
X446179Y197369D01*
X458803Y181974D01*
Y180163D01*
X444229D01*
Y181524D01*
X457123D01*
X457247Y181524D01*
X457405D01*
X457407Y181525D01*
X457409Y181525D01*
X457409Y181525D01*
X457409Y181526D01*
X457410Y181526D01*
X457411Y181528D01*
X457412Y181530D01*
X457412Y181530D01*
X457412Y181530D01*
X457412Y181531D01*
X457411Y181533D01*
X457410Y181535D01*
X457310Y181657D01*
Y181657D01*
X457231Y181753D01*
X444586Y197131D01*
Y198961D01*
X457676D01*
Y197599D01*
D02*
G37*
G36*
X487302Y193470D02*
X487304Y193465D01*
X487309Y193463D01*
X489016D01*
Y192103D01*
X487309D01*
X487304Y192101D01*
X487302Y192096D01*
Y183954D01*
X487302Y183954D01*
X487296Y183954D01*
X487301Y183831D01*
X487254Y182640D01*
X487204Y182210D01*
X487203Y182210D01*
X487186Y181992D01*
X487068Y181502D01*
X486898Y181091D01*
X486832Y180974D01*
X486832D01*
X486772Y180862D01*
X486555Y180598D01*
X486292Y180382D01*
X486013Y180233D01*
X486005Y180236D01*
X485782Y180144D01*
X485250Y180016D01*
X484705Y179973D01*
X484566Y179984D01*
X484438Y179974D01*
X484389Y179975D01*
X484330Y179976D01*
X484330D01*
X484287Y179977D01*
X484154Y179992D01*
X484154Y179992D01*
X483978Y180003D01*
X483844Y180001D01*
X483801Y180004D01*
X483683Y180014D01*
X483566Y180025D01*
X483396Y180043D01*
X483393Y181222D01*
X483445Y181288D01*
X483517Y181339D01*
X483522Y181339D01*
X483581Y181338D01*
X483581Y181338D01*
X483611Y181337D01*
X483612Y181337D01*
X483641Y181337D01*
X483698Y181337D01*
X483896D01*
X484027Y181329D01*
X484073Y181325D01*
X484161Y181332D01*
X484659Y181372D01*
X484706Y181383D01*
X484835Y181413D01*
X484902Y181422D01*
X484962Y181446D01*
X485169Y181532D01*
X485343Y181666D01*
X485398Y181708D01*
X485437Y181759D01*
X485435Y181760D01*
X485435Y181761D01*
X485435Y181761D01*
X485435Y181761D01*
X485552Y181903D01*
X485710Y182199D01*
X485807Y182518D01*
X485799Y182519D01*
X485887Y182959D01*
X485935Y183702D01*
X485926Y183837D01*
X485926Y183837D01*
X485926D01*
X485922Y183841D01*
Y192098D01*
X485920Y192104D01*
X485915Y192106D01*
X483722D01*
Y193466D01*
X485915D01*
X485920Y193468D01*
X485922Y193473D01*
Y196954D01*
X487302D01*
Y193470D01*
D02*
G37*
G36*
X512971Y188041D02*
X512970Y187861D01*
X512965Y187855D01*
X512948Y187291D01*
X512947D01*
X512944Y187157D01*
X512931Y186718D01*
X512931Y186718D01*
X512931D01*
X512939Y186709D01*
X512910Y186147D01*
X512897Y186135D01*
X512879Y185775D01*
X512739Y184828D01*
X512594Y184249D01*
X512594Y184249D01*
X512594D01*
X512594Y184248D01*
X512445Y183731D01*
X512145Y183004D01*
X511885Y182536D01*
X511885D01*
Y182536D01*
X511888Y182526D01*
X511564Y182043D01*
X511158Y181579D01*
X510737Y181210D01*
X510629Y181131D01*
X510629D01*
X510519Y181058D01*
X510108Y180783D01*
X509386Y180427D01*
X508645Y180175D01*
X508632Y180183D01*
X507979Y180019D01*
X506966Y179869D01*
X505943Y179819D01*
X505737Y179829D01*
X505736Y179832D01*
X505447Y179817D01*
X504495Y179864D01*
X503553Y180004D01*
X502628Y180235D01*
X502197Y180390D01*
X502196Y180388D01*
X502008Y180452D01*
X501412Y180746D01*
X500859Y181115D01*
X500360Y181553D01*
X499979Y181988D01*
X499980Y181993D01*
X499980Y181993D01*
X499980D01*
X499686Y182407D01*
X499343Y183028D01*
X499072Y183683D01*
X498875Y184364D01*
X498840Y184573D01*
X498841Y184574D01*
X498702Y185274D01*
X498550Y186560D01*
X498499Y187853D01*
X498506Y188039D01*
X498500Y188039D01*
X498500Y188039D01*
Y198961D01*
X499880D01*
Y188096D01*
X499878Y188095D01*
Y188095D01*
X499863Y187754D01*
X499913Y186610D01*
X500063Y185475D01*
X500256Y184604D01*
X500255Y184603D01*
X500274Y184508D01*
X500285Y184474D01*
X500481Y183898D01*
X500766Y183320D01*
X501124Y182784D01*
X501290Y182595D01*
X501376Y182496D01*
X501376Y182496D01*
X501376Y182496D01*
X501371Y182491D01*
X501406Y182450D01*
X501467Y182398D01*
X501857Y182065D01*
X502362Y181755D01*
X502910Y181528D01*
X503217Y181455D01*
X503217Y181455D01*
X503217Y181453D01*
X503569Y181365D01*
X504594Y181213D01*
X505595Y181164D01*
X505629Y181162D01*
X505728Y181167D01*
X505836Y181163D01*
X506842Y181212D01*
X507839Y181360D01*
X508214Y181454D01*
X508344Y181486D01*
X508503Y181524D01*
X509072Y181760D01*
X509597Y182081D01*
X510063Y182480D01*
X510057Y182487D01*
X510358Y182830D01*
X510708Y183355D01*
X510988Y183921D01*
X511172Y184465D01*
X511190Y184518D01*
X511205Y184595D01*
X511205Y184595D01*
X511410Y185519D01*
X511558Y186639D01*
X511607Y187767D01*
X511593Y188095D01*
X511593Y188095D01*
X511593D01*
X511591Y188096D01*
Y198961D01*
X512971D01*
Y188041D01*
D02*
G37*
G36*
X493645Y180163D02*
X492265D01*
Y198961D01*
X493645D01*
Y180163D01*
D02*
G37*
G36*
X474776Y193803D02*
X474776D01*
X475539Y193753D01*
X475691Y193723D01*
X475696Y193727D01*
X476307Y193580D01*
X476734Y193403D01*
X476734Y193403D01*
X477216Y193165D01*
X477740Y192815D01*
X477847Y192735D01*
X477986Y192636D01*
X478585Y192101D01*
X478816Y191842D01*
X478898Y191750D01*
X479013Y191622D01*
X479025Y191625D01*
X479025Y191625D01*
X479030Y191628D01*
X479032Y191633D01*
Y191636D01*
X479033Y191640D01*
X479032Y191641D01*
Y191801D01*
X479032Y191925D01*
Y193463D01*
X480412D01*
Y180163D01*
X479032D01*
Y189692D01*
X479031Y189696D01*
X479036Y189698D01*
X478985Y189790D01*
X478968Y189813D01*
X478545Y190410D01*
X478375Y190601D01*
X478286Y190700D01*
X478286Y190701D01*
X478285Y190701D01*
X478197Y190800D01*
X478000Y191021D01*
X477449Y191513D01*
X477356Y191584D01*
X477335Y191602D01*
X477247Y191661D01*
X476794Y191963D01*
X476295Y192210D01*
X476293Y192205D01*
X476029Y192315D01*
X475595Y192419D01*
X475274Y192444D01*
X475148Y192454D01*
X475144Y192454D01*
X475013Y192446D01*
X474769D01*
X474639Y192455D01*
X474624Y192457D01*
X474506Y192445D01*
X474331Y192428D01*
X474232Y192518D01*
X474245Y193781D01*
X474517Y193806D01*
X474773D01*
X474776Y193803D01*
D02*
G37*
G36*
X437542Y323065D02*
X437580D01*
X437592Y323060D01*
X437597D01*
X437625Y323054D01*
X437630Y323048D01*
X437636D01*
X437653Y323043D01*
X437658Y323037D01*
X438369Y322582D01*
X438396Y322566D01*
X438402Y322560D01*
X438407Y322554D01*
X438418Y322532D01*
X438424Y322527D01*
Y322521D01*
X438430Y322505D01*
Y322488D01*
X438435Y322477D01*
Y322471D01*
Y322427D01*
Y322410D01*
Y322405D01*
Y322366D01*
X438430Y322338D01*
Y322316D01*
Y322310D01*
X438424Y322288D01*
X438418Y322271D01*
X438407Y322266D01*
Y322260D01*
X438391Y322249D01*
X438363D01*
X438341Y322255D01*
X438319Y322266D01*
X438296Y322277D01*
X438291Y322283D01*
X437691Y322638D01*
Y320279D01*
X438341D01*
X438363Y320273D01*
X438369Y320268D01*
X438374D01*
X438396Y320246D01*
X438402Y320240D01*
Y320235D01*
X438413Y320201D01*
X438418Y320185D01*
Y320179D01*
X438424Y320157D01*
Y320135D01*
Y320112D01*
Y320107D01*
Y320074D01*
X438418Y320052D01*
Y320035D01*
Y320029D01*
X438407Y319996D01*
X438402Y319985D01*
Y319979D01*
X438380Y319957D01*
X438374Y319952D01*
X438352Y319946D01*
X436720D01*
X436698Y319952D01*
X436687D01*
X436665Y319968D01*
X436659Y319979D01*
X436648Y320013D01*
X436643Y320024D01*
Y320029D01*
X436637Y320057D01*
X436631Y320079D01*
Y320101D01*
Y320107D01*
Y320135D01*
X436637Y320162D01*
X436643Y320174D01*
Y320179D01*
X436648Y320201D01*
X436654Y320218D01*
X436659Y320229D01*
Y320235D01*
X436676Y320262D01*
X436681Y320268D01*
X436687D01*
X436709Y320279D01*
X437281D01*
Y322998D01*
X437286Y323021D01*
X437292Y323026D01*
X437297Y323037D01*
X437309Y323043D01*
X437314Y323048D01*
X437320D01*
X437336Y323054D01*
X437359Y323060D01*
X437375Y323065D01*
X437381D01*
X437414Y323071D01*
X437525D01*
X437542Y323065D01*
D02*
G37*
G36*
X440866Y323043D02*
X440899Y323026D01*
X440922Y323010D01*
X440933Y323004D01*
X440960Y322965D01*
X440977Y322921D01*
X440983Y322887D01*
Y322876D01*
Y322871D01*
Y320002D01*
X440977Y319979D01*
Y319974D01*
Y319968D01*
X440955Y319957D01*
X440949Y319952D01*
X440944D01*
X440899Y319946D01*
X440883Y319940D01*
X440877D01*
X440844Y319935D01*
X440811Y319929D01*
X440738D01*
X440711Y319935D01*
X440689Y319940D01*
X440683D01*
X440655Y319946D01*
X440638D01*
X440627Y319952D01*
X440622D01*
X440605Y319957D01*
X440594Y319963D01*
X440583Y319968D01*
X440572Y319990D01*
Y320002D01*
Y321123D01*
X440222D01*
X440117Y321128D01*
X440023Y321134D01*
X439939Y321145D01*
X439867Y321156D01*
X439806Y321167D01*
X439767Y321178D01*
X439739Y321189D01*
X439728D01*
X439651Y321217D01*
X439584Y321250D01*
X439523Y321284D01*
X439473Y321317D01*
X439429Y321350D01*
X439401Y321372D01*
X439379Y321389D01*
X439373Y321394D01*
X439323Y321445D01*
X439279Y321500D01*
X439240Y321555D01*
X439207Y321605D01*
X439184Y321650D01*
X439168Y321683D01*
X439157Y321711D01*
X439151Y321716D01*
X439123Y321789D01*
X439107Y321861D01*
X439090Y321933D01*
X439084Y322000D01*
X439079Y322055D01*
X439073Y322099D01*
Y322127D01*
Y322138D01*
X439079Y322260D01*
X439090Y322316D01*
X439096Y322360D01*
X439107Y322399D01*
X439118Y322427D01*
X439123Y322449D01*
Y322455D01*
X439168Y322554D01*
X439190Y322599D01*
X439212Y322638D01*
X439234Y322666D01*
X439251Y322693D01*
X439262Y322704D01*
X439268Y322710D01*
X439340Y322788D01*
X439412Y322849D01*
X439445Y322871D01*
X439467Y322887D01*
X439484Y322893D01*
X439490Y322899D01*
X439584Y322949D01*
X439628Y322965D01*
X439667Y322976D01*
X439695Y322987D01*
X439723Y322993D01*
X439739Y322998D01*
X439745D01*
X439834Y323015D01*
X439873Y323021D01*
X439906Y323026D01*
X439928Y323032D01*
X439950Y323037D01*
X439967D01*
X440034Y323043D01*
X440095Y323048D01*
X440822D01*
X440866Y323043D01*
D02*
G37*
G36*
X434889Y323060D02*
X434900D01*
X434933Y323054D01*
X434961Y323048D01*
X434983Y323043D01*
X434989D01*
X435011Y323037D01*
X435033Y323032D01*
X435044Y323026D01*
X435050Y323021D01*
X435072Y322998D01*
X435083Y322993D01*
Y322987D01*
X436193Y321100D01*
X436204Y321078D01*
X436215Y321056D01*
X436221Y321045D01*
Y321039D01*
X436237Y321001D01*
X436243Y320984D01*
Y320978D01*
X436248Y320934D01*
Y320917D01*
Y320912D01*
Y320884D01*
Y320862D01*
Y320840D01*
Y320834D01*
Y320795D01*
X436243Y320767D01*
Y320745D01*
Y320740D01*
X436237Y320718D01*
X436232Y320701D01*
X436226Y320690D01*
Y320684D01*
X436204Y320668D01*
X436193Y320662D01*
X436160Y320656D01*
X434867D01*
Y320002D01*
X434861Y319979D01*
Y319968D01*
X434839Y319952D01*
X434833Y319946D01*
X434828D01*
X434811Y319940D01*
X434789D01*
X434772Y319935D01*
X434767D01*
X434733Y319929D01*
X434628D01*
X434595Y319935D01*
X434567D01*
X434539Y319940D01*
X434522D01*
X434511Y319946D01*
X434506D01*
X434489Y319957D01*
X434478Y319963D01*
X434467Y319968D01*
X434456Y319990D01*
Y319996D01*
Y320002D01*
Y320656D01*
X434106D01*
X434078Y320662D01*
X434062Y320679D01*
X434051Y320695D01*
X434045Y320701D01*
X434028Y320740D01*
X434023Y320778D01*
X434017Y320812D01*
Y320817D01*
Y320823D01*
X434023Y320878D01*
X434028Y320917D01*
X434040Y320945D01*
X434045Y320951D01*
X434062Y320978D01*
X434084Y320989D01*
X434101Y320995D01*
X434456D01*
Y322976D01*
X434461Y322993D01*
X434467Y323004D01*
X434473Y323015D01*
X434478D01*
X434495Y323026D01*
X434517Y323032D01*
X434534Y323037D01*
X434539D01*
X434567Y323043D01*
X434600Y323048D01*
X434622Y323054D01*
X434633D01*
X434678Y323060D01*
X434722Y323065D01*
X434861D01*
X434889Y323060D01*
D02*
G37*
G36*
X435216Y112090D02*
X435266Y112084D01*
X435305Y112079D01*
X435344Y112073D01*
X435372Y112068D01*
X435388Y112062D01*
X435394D01*
X435488Y112040D01*
X435527Y112029D01*
X435560Y112018D01*
X435588Y112007D01*
X435610Y111996D01*
X435621Y111990D01*
X435627D01*
X435694Y111962D01*
X435749Y111935D01*
X435771Y111924D01*
X435788Y111913D01*
X435793Y111907D01*
X435799D01*
X435843Y111879D01*
X435871Y111857D01*
X435888Y111846D01*
X435893Y111840D01*
X435916Y111813D01*
X435927Y111807D01*
Y111802D01*
X435938Y111774D01*
X435943Y111768D01*
Y111763D01*
X435949Y111735D01*
Y111724D01*
Y111718D01*
Y111674D01*
Y111657D01*
Y111652D01*
Y111618D01*
Y111591D01*
Y111574D01*
Y111568D01*
X435943Y111546D01*
Y111530D01*
X435938Y111524D01*
Y111518D01*
X435921Y111502D01*
X435916Y111496D01*
X435893Y111491D01*
X435882D01*
X435860Y111496D01*
X435832Y111513D01*
X435816Y111524D01*
X435805Y111530D01*
X435754Y111563D01*
X435705Y111591D01*
X435688Y111602D01*
X435671Y111613D01*
X435660Y111618D01*
X435655D01*
X435582Y111652D01*
X435516Y111685D01*
X435488Y111696D01*
X435466Y111707D01*
X435449Y111713D01*
X435444D01*
X435355Y111740D01*
X435277Y111751D01*
X435244Y111757D01*
X435194D01*
X435105Y111751D01*
X435066Y111746D01*
X435033Y111740D01*
X435011Y111729D01*
X434989Y111724D01*
X434977Y111718D01*
X434972D01*
X434905Y111685D01*
X434855Y111652D01*
X434822Y111624D01*
X434811Y111618D01*
Y111613D01*
X434772Y111563D01*
X434739Y111513D01*
X434728Y111496D01*
X434722Y111480D01*
X434717Y111469D01*
Y111463D01*
X434694Y111396D01*
X434689Y111341D01*
X434683Y111313D01*
Y111296D01*
Y111285D01*
Y111280D01*
X434689Y111185D01*
X434700Y111147D01*
X434706Y111113D01*
X434717Y111080D01*
X434728Y111058D01*
X434733Y111047D01*
Y111041D01*
X434772Y110969D01*
X434817Y110908D01*
X434833Y110886D01*
X434850Y110875D01*
X434861Y110863D01*
X434867Y110858D01*
X434939Y110808D01*
X435005Y110769D01*
X435039Y110758D01*
X435061Y110747D01*
X435077Y110741D01*
X435083D01*
X435177Y110719D01*
X435222Y110714D01*
X435266Y110708D01*
X435305Y110703D01*
X435627D01*
X435655Y110697D01*
X435660Y110691D01*
X435666D01*
X435688Y110675D01*
X435694Y110669D01*
X435699Y110664D01*
X435705Y110647D01*
X435710Y110630D01*
X435716Y110619D01*
Y110614D01*
X435721Y110592D01*
Y110569D01*
Y110547D01*
Y110542D01*
Y110508D01*
X435716Y110481D01*
Y110464D01*
Y110458D01*
X435705Y110436D01*
X435699Y110419D01*
X435694Y110414D01*
Y110408D01*
X435671Y110386D01*
X435660Y110381D01*
X435632Y110375D01*
X435250D01*
X435188Y110370D01*
X435127Y110364D01*
X435077Y110353D01*
X435039Y110347D01*
X435011Y110336D01*
X434989Y110331D01*
X434983D01*
X434928Y110314D01*
X434883Y110297D01*
X434839Y110275D01*
X434800Y110259D01*
X434772Y110242D01*
X434750Y110225D01*
X434739Y110220D01*
X434733Y110214D01*
X434661Y110153D01*
X434611Y110092D01*
X434595Y110070D01*
X434584Y110048D01*
X434572Y110037D01*
Y110031D01*
X434539Y109948D01*
X434522Y109870D01*
X434517Y109842D01*
Y109815D01*
Y109798D01*
Y109792D01*
X434522Y109709D01*
X434539Y109637D01*
X434545Y109609D01*
X434556Y109587D01*
X434561Y109576D01*
Y109570D01*
X434600Y109498D01*
X434639Y109443D01*
X434661Y109421D01*
X434672Y109409D01*
X434683Y109398D01*
X434689Y109393D01*
X434756Y109343D01*
X434822Y109309D01*
X434850Y109298D01*
X434872Y109287D01*
X434889Y109282D01*
X434894D01*
X434989Y109260D01*
X435039Y109254D01*
X435083Y109248D01*
X435122Y109243D01*
X435177D01*
X435294Y109248D01*
X435349Y109254D01*
X435394Y109260D01*
X435427Y109265D01*
X435460Y109271D01*
X435477Y109276D01*
X435483D01*
X435577Y109304D01*
X435616Y109321D01*
X435649Y109332D01*
X435682Y109343D01*
X435705Y109354D01*
X435716Y109360D01*
X435721D01*
X435788Y109393D01*
X435843Y109421D01*
X435877Y109443D01*
X435882Y109448D01*
X435888D01*
X435932Y109470D01*
X435954Y109482D01*
X435971Y109487D01*
X435977D01*
X435993Y109482D01*
X436010Y109470D01*
X436015Y109454D01*
X436021Y109448D01*
X436032Y109415D01*
X436038Y109376D01*
Y109343D01*
Y109337D01*
Y109332D01*
Y109298D01*
Y109271D01*
Y109248D01*
Y109243D01*
X436032Y109221D01*
Y109204D01*
X436026Y109193D01*
Y109187D01*
X436015Y109160D01*
X436010Y109154D01*
Y109149D01*
X435993Y109126D01*
X435982Y109121D01*
Y109115D01*
X435960Y109099D01*
X435932Y109082D01*
X435910Y109065D01*
X435899Y109060D01*
X435838Y109032D01*
X435782Y109010D01*
X435760Y108999D01*
X435738Y108993D01*
X435727Y108988D01*
X435721D01*
X435638Y108965D01*
X435560Y108949D01*
X435533Y108943D01*
X435505Y108938D01*
X435488Y108932D01*
X435483D01*
X435377Y108915D01*
X435327Y108910D01*
X435283D01*
X435244Y108904D01*
X435188D01*
X435094Y108910D01*
X435011Y108915D01*
X434928Y108927D01*
X434861Y108938D01*
X434805Y108949D01*
X434761Y108954D01*
X434739Y108965D01*
X434728D01*
X434656Y108993D01*
X434589Y109021D01*
X434528Y109054D01*
X434478Y109088D01*
X434439Y109110D01*
X434406Y109132D01*
X434389Y109149D01*
X434384Y109154D01*
X434334Y109204D01*
X434289Y109254D01*
X434256Y109298D01*
X434228Y109348D01*
X434200Y109387D01*
X434184Y109421D01*
X434178Y109443D01*
X434173Y109448D01*
X434145Y109515D01*
X434128Y109581D01*
X434112Y109648D01*
X434106Y109709D01*
X434101Y109759D01*
X434095Y109798D01*
Y109826D01*
Y109837D01*
X434106Y109942D01*
X434112Y109987D01*
X434123Y110026D01*
X434134Y110059D01*
X434139Y110087D01*
X434151Y110103D01*
Y110109D01*
X434195Y110197D01*
X434223Y110236D01*
X434245Y110270D01*
X434267Y110292D01*
X434284Y110314D01*
X434295Y110325D01*
X434300Y110331D01*
X434378Y110397D01*
X434450Y110447D01*
X434478Y110469D01*
X434506Y110481D01*
X434522Y110492D01*
X434528D01*
X434628Y110530D01*
X434678Y110547D01*
X434722Y110558D01*
X434767Y110564D01*
X434794Y110569D01*
X434817Y110575D01*
X434822D01*
X434728Y110603D01*
X434683Y110619D01*
X434650Y110630D01*
X434617Y110647D01*
X434595Y110658D01*
X434584Y110669D01*
X434578D01*
X434500Y110725D01*
X434445Y110780D01*
X434422Y110802D01*
X434406Y110819D01*
X434400Y110830D01*
X434395Y110836D01*
X434345Y110914D01*
X434306Y110986D01*
X434295Y111013D01*
X434284Y111036D01*
X434278Y111052D01*
Y111058D01*
X434256Y111152D01*
X434250Y111202D01*
X434245Y111241D01*
X434239Y111280D01*
Y111308D01*
Y111324D01*
Y111330D01*
Y111391D01*
X434250Y111452D01*
X434256Y111502D01*
X434267Y111552D01*
X434278Y111585D01*
X434284Y111618D01*
X434295Y111635D01*
Y111641D01*
X434345Y111735D01*
X434373Y111779D01*
X434400Y111813D01*
X434422Y111840D01*
X434445Y111863D01*
X434456Y111874D01*
X434461Y111879D01*
X434506Y111918D01*
X434550Y111951D01*
X434639Y112001D01*
X434672Y112018D01*
X434706Y112029D01*
X434728Y112040D01*
X434733D01*
X434861Y112073D01*
X434922Y112084D01*
X434977Y112090D01*
X435028Y112096D01*
X435105D01*
X435216Y112090D01*
D02*
G37*
G36*
X437464Y112068D02*
X437503D01*
X437514Y112062D01*
X437519D01*
X437547Y112057D01*
X437553Y112051D01*
X437558D01*
X437575Y112046D01*
X437580Y112040D01*
X438291Y111585D01*
X438319Y111568D01*
X438324Y111563D01*
X438330Y111557D01*
X438341Y111535D01*
X438346Y111530D01*
Y111524D01*
X438352Y111507D01*
Y111491D01*
X438357Y111480D01*
Y111474D01*
Y111430D01*
Y111413D01*
Y111407D01*
Y111369D01*
X438352Y111341D01*
Y111319D01*
Y111313D01*
X438346Y111291D01*
X438341Y111274D01*
X438330Y111269D01*
Y111263D01*
X438313Y111252D01*
X438285D01*
X438263Y111258D01*
X438241Y111269D01*
X438219Y111280D01*
X438213Y111285D01*
X437614Y111641D01*
Y109282D01*
X438263D01*
X438285Y109276D01*
X438291Y109271D01*
X438296D01*
X438319Y109248D01*
X438324Y109243D01*
Y109237D01*
X438335Y109204D01*
X438341Y109187D01*
Y109182D01*
X438346Y109160D01*
Y109137D01*
Y109115D01*
Y109110D01*
Y109076D01*
X438341Y109054D01*
Y109038D01*
Y109032D01*
X438330Y108999D01*
X438324Y108988D01*
Y108982D01*
X438302Y108960D01*
X438296Y108954D01*
X438274Y108949D01*
X436643D01*
X436620Y108954D01*
X436609D01*
X436587Y108971D01*
X436582Y108982D01*
X436570Y109015D01*
X436565Y109027D01*
Y109032D01*
X436559Y109060D01*
X436554Y109082D01*
Y109104D01*
Y109110D01*
Y109137D01*
X436559Y109165D01*
X436565Y109176D01*
Y109182D01*
X436570Y109204D01*
X436576Y109221D01*
X436582Y109232D01*
Y109237D01*
X436598Y109265D01*
X436604Y109271D01*
X436609D01*
X436631Y109282D01*
X437203D01*
Y112001D01*
X437209Y112023D01*
X437214Y112029D01*
X437220Y112040D01*
X437231Y112046D01*
X437236Y112051D01*
X437242D01*
X437259Y112057D01*
X437281Y112062D01*
X437297Y112068D01*
X437303D01*
X437336Y112073D01*
X437447D01*
X437464Y112068D01*
D02*
G37*
G36*
X440788Y112046D02*
X440822Y112029D01*
X440844Y112012D01*
X440855Y112007D01*
X440883Y111968D01*
X440899Y111924D01*
X440905Y111890D01*
Y111879D01*
Y111874D01*
Y109004D01*
X440899Y108982D01*
Y108976D01*
Y108971D01*
X440877Y108960D01*
X440872Y108954D01*
X440866D01*
X440822Y108949D01*
X440805Y108943D01*
X440800D01*
X440766Y108938D01*
X440733Y108932D01*
X440661D01*
X440633Y108938D01*
X440611Y108943D01*
X440605D01*
X440578Y108949D01*
X440561D01*
X440550Y108954D01*
X440544D01*
X440527Y108960D01*
X440516Y108965D01*
X440505Y108971D01*
X440494Y108993D01*
Y109004D01*
Y110125D01*
X440145D01*
X440039Y110131D01*
X439945Y110136D01*
X439861Y110148D01*
X439789Y110159D01*
X439728Y110170D01*
X439689Y110181D01*
X439662Y110192D01*
X439651D01*
X439573Y110220D01*
X439506Y110253D01*
X439445Y110286D01*
X439395Y110320D01*
X439351Y110353D01*
X439323Y110375D01*
X439301Y110392D01*
X439295Y110397D01*
X439246Y110447D01*
X439201Y110503D01*
X439162Y110558D01*
X439129Y110608D01*
X439107Y110653D01*
X439090Y110686D01*
X439079Y110714D01*
X439073Y110719D01*
X439046Y110791D01*
X439029Y110863D01*
X439012Y110936D01*
X439007Y111002D01*
X439001Y111058D01*
X438996Y111102D01*
Y111130D01*
Y111141D01*
X439001Y111263D01*
X439012Y111319D01*
X439018Y111363D01*
X439029Y111402D01*
X439040Y111430D01*
X439046Y111452D01*
Y111457D01*
X439090Y111557D01*
X439112Y111602D01*
X439135Y111641D01*
X439157Y111668D01*
X439173Y111696D01*
X439184Y111707D01*
X439190Y111713D01*
X439262Y111790D01*
X439334Y111851D01*
X439368Y111874D01*
X439390Y111890D01*
X439406Y111896D01*
X439412Y111901D01*
X439506Y111951D01*
X439551Y111968D01*
X439590Y111979D01*
X439617Y111990D01*
X439645Y111996D01*
X439662Y112001D01*
X439667D01*
X439756Y112018D01*
X439795Y112023D01*
X439828Y112029D01*
X439850Y112035D01*
X439873Y112040D01*
X439889D01*
X439956Y112046D01*
X440017Y112051D01*
X440744D01*
X440788Y112046D01*
D02*
G37*
G36*
X91727Y175076D02*
X91772Y175071D01*
X91811Y175065D01*
X91844Y175059D01*
X91872Y175054D01*
X91888Y175048D01*
X91894D01*
X91983Y175026D01*
X92027Y175015D01*
X92060Y175004D01*
X92088Y174993D01*
X92110Y174982D01*
X92127Y174976D01*
X92132D01*
X92205Y174949D01*
X92260Y174921D01*
X92282Y174910D01*
X92299Y174899D01*
X92304Y174893D01*
X92310D01*
X92354Y174865D01*
X92388Y174843D01*
X92404Y174826D01*
X92410Y174821D01*
X92427Y174804D01*
X92438Y174793D01*
X92449Y174788D01*
Y174782D01*
X92460Y174754D01*
X92465Y174749D01*
Y174743D01*
X92471Y174715D01*
Y174704D01*
Y174699D01*
Y174660D01*
Y174643D01*
Y174638D01*
Y174604D01*
Y174577D01*
Y174555D01*
Y174549D01*
X92465Y174527D01*
Y174510D01*
X92460Y174499D01*
Y174494D01*
X92443Y174471D01*
X92438Y174460D01*
X92415Y174455D01*
X92404D01*
X92377Y174460D01*
X92343Y174477D01*
X92321Y174488D01*
X92310Y174494D01*
X92260Y174521D01*
X92210Y174555D01*
X92194Y174566D01*
X92177Y174577D01*
X92166Y174582D01*
X92160D01*
X92088Y174616D01*
X92021Y174643D01*
X91994Y174654D01*
X91971Y174665D01*
X91955Y174671D01*
X91949D01*
X91855Y174699D01*
X91811Y174704D01*
X91766Y174710D01*
X91733Y174715D01*
X91677D01*
X91588Y174710D01*
X91550Y174704D01*
X91516Y174693D01*
X91489Y174688D01*
X91466Y174677D01*
X91455Y174671D01*
X91450D01*
X91383Y174638D01*
X91328Y174599D01*
X91294Y174571D01*
X91289Y174566D01*
X91283Y174560D01*
X91239Y174504D01*
X91206Y174455D01*
X91194Y174432D01*
X91189Y174416D01*
X91183Y174405D01*
Y174399D01*
X91161Y174332D01*
X91150Y174272D01*
X91145Y174244D01*
Y174222D01*
Y174210D01*
Y174205D01*
X91150Y174127D01*
X91156Y174055D01*
X91161Y174027D01*
X91167Y174005D01*
X91172Y173988D01*
Y173983D01*
X91194Y173894D01*
X91228Y173811D01*
X91244Y173772D01*
X91255Y173744D01*
X91261Y173728D01*
X91267Y173722D01*
X91294Y173667D01*
X91328Y173611D01*
X91361Y173556D01*
X91389Y173505D01*
X91422Y173467D01*
X91444Y173428D01*
X91461Y173406D01*
X91466Y173400D01*
X91516Y173334D01*
X91572Y173267D01*
X91633Y173200D01*
X91688Y173139D01*
X91733Y173089D01*
X91777Y173050D01*
X91799Y173023D01*
X91811Y173012D01*
X92432Y172373D01*
X92449Y172351D01*
X92465Y172329D01*
X92476Y172318D01*
X92482Y172312D01*
X92504Y172274D01*
X92510Y172262D01*
Y172257D01*
X92521Y172218D01*
X92527Y172201D01*
Y172196D01*
Y172168D01*
Y172140D01*
Y172124D01*
Y172113D01*
Y172074D01*
X92521Y172046D01*
Y172024D01*
Y172018D01*
X92510Y171996D01*
X92504Y171979D01*
X92493Y171974D01*
Y171968D01*
X92465Y171946D01*
X92460Y171941D01*
X92454D01*
X92415Y171935D01*
X90678D01*
X90651Y171941D01*
X90640D01*
X90617Y171963D01*
X90612Y171968D01*
Y171974D01*
X90601Y172013D01*
X90595Y172029D01*
Y172035D01*
X90589Y172063D01*
X90584Y172085D01*
Y172101D01*
Y172107D01*
Y172140D01*
X90589Y172162D01*
X90595Y172179D01*
Y172185D01*
X90601Y172207D01*
X90606Y172223D01*
X90612Y172235D01*
Y172240D01*
X90634Y172268D01*
X90640Y172274D01*
X90645D01*
X90667Y172284D01*
X92027D01*
X91539Y172795D01*
X91444Y172895D01*
X91361Y172984D01*
X91289Y173067D01*
X91222Y173139D01*
X91178Y173195D01*
X91139Y173239D01*
X91117Y173267D01*
X91111Y173278D01*
X91056Y173356D01*
X91006Y173428D01*
X90961Y173489D01*
X90928Y173544D01*
X90900Y173594D01*
X90884Y173628D01*
X90873Y173650D01*
X90867Y173655D01*
X90834Y173716D01*
X90812Y173777D01*
X90789Y173833D01*
X90773Y173883D01*
X90762Y173922D01*
X90756Y173950D01*
X90750Y173972D01*
Y173977D01*
X90734Y174088D01*
X90728Y174138D01*
Y174183D01*
X90723Y174216D01*
Y174249D01*
Y174266D01*
Y174272D01*
X90734Y174388D01*
X90739Y174443D01*
X90750Y174488D01*
X90762Y174527D01*
X90767Y174560D01*
X90778Y174577D01*
Y174582D01*
X90800Y174638D01*
X90828Y174688D01*
X90856Y174732D01*
X90884Y174771D01*
X90911Y174799D01*
X90934Y174821D01*
X90945Y174838D01*
X90950Y174843D01*
X90995Y174882D01*
X91039Y174915D01*
X91133Y174971D01*
X91172Y174987D01*
X91206Y175004D01*
X91228Y175015D01*
X91233D01*
X91300Y175037D01*
X91366Y175054D01*
X91433Y175065D01*
X91494Y175076D01*
X91544D01*
X91588Y175082D01*
X91627D01*
X91727Y175076D01*
D02*
G37*
G36*
X93975Y175054D02*
X94014D01*
X94025Y175048D01*
X94030D01*
X94058Y175043D01*
X94064Y175037D01*
X94069D01*
X94086Y175032D01*
X94092Y175026D01*
X94802Y174571D01*
X94830Y174555D01*
X94835Y174549D01*
X94841Y174543D01*
X94852Y174521D01*
X94858Y174516D01*
Y174510D01*
X94863Y174494D01*
Y174477D01*
X94869Y174466D01*
Y174460D01*
Y174416D01*
Y174399D01*
Y174394D01*
Y174355D01*
X94863Y174327D01*
Y174305D01*
Y174299D01*
X94858Y174277D01*
X94852Y174260D01*
X94841Y174255D01*
Y174249D01*
X94824Y174238D01*
X94796D01*
X94774Y174244D01*
X94752Y174255D01*
X94730Y174266D01*
X94724Y174272D01*
X94125Y174627D01*
Y172268D01*
X94774D01*
X94796Y172262D01*
X94802Y172257D01*
X94807D01*
X94830Y172235D01*
X94835Y172229D01*
Y172223D01*
X94846Y172190D01*
X94852Y172174D01*
Y172168D01*
X94858Y172146D01*
Y172124D01*
Y172101D01*
Y172096D01*
Y172063D01*
X94852Y172040D01*
Y172024D01*
Y172018D01*
X94841Y171985D01*
X94835Y171974D01*
Y171968D01*
X94813Y171946D01*
X94807Y171941D01*
X94785Y171935D01*
X93154D01*
X93131Y171941D01*
X93120D01*
X93098Y171957D01*
X93093Y171968D01*
X93081Y172002D01*
X93076Y172013D01*
Y172018D01*
X93070Y172046D01*
X93065Y172068D01*
Y172090D01*
Y172096D01*
Y172124D01*
X93070Y172151D01*
X93076Y172162D01*
Y172168D01*
X93081Y172190D01*
X93087Y172207D01*
X93093Y172218D01*
Y172223D01*
X93109Y172251D01*
X93115Y172257D01*
X93120D01*
X93142Y172268D01*
X93714D01*
Y174987D01*
X93720Y175010D01*
X93725Y175015D01*
X93731Y175026D01*
X93742Y175032D01*
X93748Y175037D01*
X93753D01*
X93770Y175043D01*
X93792Y175048D01*
X93809Y175054D01*
X93814D01*
X93847Y175059D01*
X93958D01*
X93975Y175054D01*
D02*
G37*
G36*
X97299Y175032D02*
X97333Y175015D01*
X97355Y174998D01*
X97366Y174993D01*
X97394Y174954D01*
X97411Y174910D01*
X97416Y174876D01*
Y174865D01*
Y174860D01*
Y171990D01*
X97411Y171968D01*
Y171963D01*
Y171957D01*
X97388Y171946D01*
X97383Y171941D01*
X97377D01*
X97333Y171935D01*
X97316Y171929D01*
X97311D01*
X97277Y171924D01*
X97244Y171918D01*
X97172D01*
X97144Y171924D01*
X97122Y171929D01*
X97116D01*
X97089Y171935D01*
X97072D01*
X97061Y171941D01*
X97055D01*
X97039Y171946D01*
X97027Y171951D01*
X97016Y171957D01*
X97005Y171979D01*
Y171990D01*
Y173111D01*
X96656D01*
X96550Y173117D01*
X96456Y173123D01*
X96373Y173134D01*
X96301Y173145D01*
X96239Y173156D01*
X96201Y173167D01*
X96173Y173178D01*
X96162D01*
X96084Y173206D01*
X96017Y173239D01*
X95956Y173273D01*
X95906Y173306D01*
X95862Y173339D01*
X95834Y173361D01*
X95812Y173378D01*
X95806Y173383D01*
X95757Y173433D01*
X95712Y173489D01*
X95673Y173544D01*
X95640Y173594D01*
X95618Y173639D01*
X95601Y173672D01*
X95590Y173700D01*
X95584Y173705D01*
X95557Y173777D01*
X95540Y173850D01*
X95524Y173922D01*
X95518Y173988D01*
X95512Y174044D01*
X95507Y174088D01*
Y174116D01*
Y174127D01*
X95512Y174249D01*
X95524Y174305D01*
X95529Y174349D01*
X95540Y174388D01*
X95551Y174416D01*
X95557Y174438D01*
Y174443D01*
X95601Y174543D01*
X95623Y174588D01*
X95646Y174627D01*
X95668Y174654D01*
X95684Y174682D01*
X95696Y174693D01*
X95701Y174699D01*
X95773Y174776D01*
X95845Y174838D01*
X95879Y174860D01*
X95901Y174876D01*
X95917Y174882D01*
X95923Y174888D01*
X96017Y174937D01*
X96062Y174954D01*
X96101Y174965D01*
X96128Y174976D01*
X96156Y174982D01*
X96173Y174987D01*
X96178D01*
X96267Y175004D01*
X96306Y175010D01*
X96339Y175015D01*
X96362Y175021D01*
X96384Y175026D01*
X96400D01*
X96467Y175032D01*
X96528Y175037D01*
X97255D01*
X97299Y175032D01*
D02*
G37*
G36*
X31521Y264916D02*
X31526D01*
X31532D01*
X31543Y264894D01*
X31548Y264888D01*
Y264883D01*
X31554Y264838D01*
X31560Y264822D01*
Y264816D01*
X31565Y264783D01*
X31571Y264750D01*
Y264677D01*
X31565Y264650D01*
X31560Y264627D01*
Y264622D01*
X31554Y264594D01*
Y264578D01*
X31548Y264566D01*
Y264561D01*
X31543Y264544D01*
X31537Y264533D01*
X31532Y264522D01*
X31510Y264511D01*
X31499D01*
X30377D01*
Y264161D01*
X30372Y264056D01*
X30366Y263961D01*
X30355Y263878D01*
X30344Y263806D01*
X30333Y263745D01*
X30322Y263706D01*
X30311Y263678D01*
Y263667D01*
X30283Y263590D01*
X30250Y263523D01*
X30216Y263462D01*
X30183Y263412D01*
X30150Y263368D01*
X30128Y263340D01*
X30111Y263318D01*
X30105Y263312D01*
X30055Y263262D01*
X30000Y263218D01*
X29945Y263179D01*
X29895Y263146D01*
X29850Y263123D01*
X29817Y263107D01*
X29789Y263096D01*
X29783Y263090D01*
X29711Y263062D01*
X29639Y263046D01*
X29567Y263029D01*
X29500Y263023D01*
X29445Y263018D01*
X29401Y263012D01*
X29373D01*
X29362D01*
X29240Y263018D01*
X29184Y263029D01*
X29140Y263035D01*
X29101Y263046D01*
X29073Y263057D01*
X29051Y263062D01*
X29045D01*
X28945Y263107D01*
X28901Y263129D01*
X28862Y263151D01*
X28835Y263173D01*
X28807Y263190D01*
X28796Y263201D01*
X28790Y263207D01*
X28712Y263279D01*
X28651Y263351D01*
X28629Y263384D01*
X28613Y263406D01*
X28607Y263423D01*
X28601Y263429D01*
X28551Y263523D01*
X28535Y263567D01*
X28524Y263606D01*
X28513Y263634D01*
X28507Y263662D01*
X28501Y263678D01*
Y263684D01*
X28485Y263773D01*
X28479Y263812D01*
X28474Y263845D01*
X28468Y263867D01*
X28463Y263889D01*
Y263906D01*
X28457Y263972D01*
X28451Y264034D01*
Y264761D01*
X28457Y264805D01*
X28474Y264838D01*
X28490Y264861D01*
X28496Y264872D01*
X28535Y264899D01*
X28579Y264916D01*
X28613Y264922D01*
X28624D01*
X28629D01*
X31499D01*
X31521Y264916D01*
D02*
G37*
G36*
X29162Y262369D02*
X29184D01*
X29190D01*
X29212Y262363D01*
X29228Y262357D01*
X29234Y262346D01*
X29240D01*
X29251Y262330D01*
Y262302D01*
X29245Y262280D01*
X29234Y262258D01*
X29223Y262235D01*
X29217Y262230D01*
X28862Y261630D01*
X31221D01*
Y262280D01*
X31227Y262302D01*
X31232Y262308D01*
Y262313D01*
X31254Y262335D01*
X31260Y262341D01*
X31265D01*
X31299Y262352D01*
X31315Y262357D01*
X31321D01*
X31343Y262363D01*
X31365D01*
X31387D01*
X31393D01*
X31426D01*
X31449Y262357D01*
X31465D01*
X31471D01*
X31504Y262346D01*
X31515Y262341D01*
X31521D01*
X31543Y262319D01*
X31548Y262313D01*
X31554Y262291D01*
Y260659D01*
X31548Y260637D01*
Y260626D01*
X31532Y260604D01*
X31521Y260598D01*
X31487Y260587D01*
X31476Y260581D01*
X31471D01*
X31443Y260576D01*
X31421Y260570D01*
X31399D01*
X31393D01*
X31365D01*
X31337Y260576D01*
X31326Y260581D01*
X31321D01*
X31299Y260587D01*
X31282Y260593D01*
X31271Y260598D01*
X31265D01*
X31238Y260615D01*
X31232Y260620D01*
Y260626D01*
X31221Y260648D01*
Y261220D01*
X28501D01*
X28479Y261225D01*
X28474Y261231D01*
X28463Y261236D01*
X28457Y261247D01*
X28451Y261253D01*
Y261259D01*
X28446Y261275D01*
X28440Y261297D01*
X28435Y261314D01*
Y261320D01*
X28429Y261353D01*
Y261464D01*
X28435Y261481D01*
Y261519D01*
X28440Y261530D01*
Y261536D01*
X28446Y261564D01*
X28451Y261569D01*
Y261575D01*
X28457Y261592D01*
X28463Y261597D01*
X28918Y262308D01*
X28934Y262335D01*
X28940Y262341D01*
X28945Y262346D01*
X28968Y262357D01*
X28973Y262363D01*
X28979D01*
X28995Y262369D01*
X29012D01*
X29023Y262374D01*
X29029D01*
X29073D01*
X29090D01*
X29095D01*
X29134D01*
X29162Y262369D01*
D02*
G37*
G36*
Y259877D02*
X29184D01*
X29190D01*
X29212Y259871D01*
X29228Y259865D01*
X29234Y259854D01*
X29240D01*
X29251Y259838D01*
Y259810D01*
X29245Y259788D01*
X29234Y259766D01*
X29223Y259743D01*
X29217Y259738D01*
X28862Y259138D01*
X31221D01*
Y259788D01*
X31227Y259810D01*
X31232Y259816D01*
Y259821D01*
X31254Y259843D01*
X31260Y259849D01*
X31265D01*
X31299Y259860D01*
X31315Y259865D01*
X31321D01*
X31343Y259871D01*
X31365D01*
X31387D01*
X31393D01*
X31426D01*
X31449Y259865D01*
X31465D01*
X31471D01*
X31504Y259854D01*
X31515Y259849D01*
X31521D01*
X31543Y259827D01*
X31548Y259821D01*
X31554Y259799D01*
Y258167D01*
X31548Y258145D01*
Y258134D01*
X31532Y258112D01*
X31521Y258106D01*
X31487Y258095D01*
X31476Y258089D01*
X31471D01*
X31443Y258084D01*
X31421Y258078D01*
X31399D01*
X31393D01*
X31365D01*
X31337Y258084D01*
X31326Y258089D01*
X31321D01*
X31299Y258095D01*
X31282Y258101D01*
X31271Y258106D01*
X31265D01*
X31238Y258123D01*
X31232Y258128D01*
Y258134D01*
X31221Y258156D01*
Y258728D01*
X28501D01*
X28479Y258733D01*
X28474Y258739D01*
X28463Y258744D01*
X28457Y258755D01*
X28451Y258761D01*
Y258767D01*
X28446Y258783D01*
X28440Y258805D01*
X28435Y258822D01*
Y258828D01*
X28429Y258861D01*
Y258972D01*
X28435Y258989D01*
Y259028D01*
X28440Y259039D01*
Y259044D01*
X28446Y259072D01*
X28451Y259077D01*
Y259083D01*
X28457Y259100D01*
X28463Y259105D01*
X28918Y259816D01*
X28934Y259843D01*
X28940Y259849D01*
X28945Y259854D01*
X28968Y259865D01*
X28973Y259871D01*
X28979D01*
X28995Y259877D01*
X29012D01*
X29023Y259882D01*
X29029D01*
X29073D01*
X29090D01*
X29095D01*
X29134D01*
X29162Y259877D01*
D02*
G37*
G36*
X346028Y120068D02*
X346067D01*
X346078Y120062D01*
X346083D01*
X346111Y120057D01*
X346117Y120051D01*
X346122D01*
X346139Y120046D01*
X346144Y120040D01*
X346855Y119585D01*
X346883Y119568D01*
X346888Y119563D01*
X346894Y119557D01*
X346905Y119535D01*
X346910Y119529D01*
Y119524D01*
X346916Y119507D01*
Y119491D01*
X346921Y119480D01*
Y119474D01*
Y119430D01*
Y119413D01*
Y119407D01*
Y119369D01*
X346916Y119341D01*
Y119319D01*
Y119313D01*
X346910Y119291D01*
X346905Y119274D01*
X346894Y119269D01*
Y119263D01*
X346877Y119252D01*
X346849D01*
X346827Y119258D01*
X346805Y119269D01*
X346782Y119280D01*
X346777Y119285D01*
X346178Y119641D01*
Y117282D01*
X346827D01*
X346849Y117276D01*
X346855Y117271D01*
X346860D01*
X346883Y117248D01*
X346888Y117243D01*
Y117237D01*
X346899Y117204D01*
X346905Y117187D01*
Y117182D01*
X346910Y117160D01*
Y117138D01*
Y117115D01*
Y117110D01*
Y117076D01*
X346905Y117054D01*
Y117038D01*
Y117032D01*
X346894Y116999D01*
X346888Y116988D01*
Y116982D01*
X346866Y116960D01*
X346860Y116954D01*
X346838Y116949D01*
X345206D01*
X345184Y116954D01*
X345173D01*
X345151Y116971D01*
X345145Y116982D01*
X345134Y117015D01*
X345129Y117026D01*
Y117032D01*
X345123Y117060D01*
X345117Y117082D01*
Y117104D01*
Y117110D01*
Y117138D01*
X345123Y117165D01*
X345129Y117176D01*
Y117182D01*
X345134Y117204D01*
X345140Y117221D01*
X345145Y117232D01*
Y117237D01*
X345162Y117265D01*
X345167Y117271D01*
X345173D01*
X345195Y117282D01*
X345767D01*
Y120001D01*
X345772Y120024D01*
X345778Y120029D01*
X345784Y120040D01*
X345795Y120046D01*
X345800Y120051D01*
X345806D01*
X345822Y120057D01*
X345845Y120062D01*
X345861Y120068D01*
X345867D01*
X345900Y120073D01*
X346011D01*
X346028Y120068D01*
D02*
G37*
G36*
X349352Y120046D02*
X349385Y120029D01*
X349408Y120012D01*
X349419Y120007D01*
X349447Y119968D01*
X349463Y119924D01*
X349469Y119890D01*
Y119879D01*
Y119874D01*
Y117004D01*
X349463Y116982D01*
Y116976D01*
Y116971D01*
X349441Y116960D01*
X349435Y116954D01*
X349430D01*
X349385Y116949D01*
X349369Y116943D01*
X349363D01*
X349330Y116938D01*
X349297Y116932D01*
X349224D01*
X349197Y116938D01*
X349175Y116943D01*
X349169D01*
X349141Y116949D01*
X349125D01*
X349113Y116954D01*
X349108D01*
X349091Y116960D01*
X349080Y116965D01*
X349069Y116971D01*
X349058Y116993D01*
Y117004D01*
Y118125D01*
X348708D01*
X348603Y118131D01*
X348509Y118137D01*
X348425Y118148D01*
X348353Y118159D01*
X348292Y118170D01*
X348253Y118181D01*
X348226Y118192D01*
X348214D01*
X348137Y118220D01*
X348070Y118253D01*
X348009Y118286D01*
X347959Y118320D01*
X347915Y118353D01*
X347887Y118375D01*
X347865Y118392D01*
X347859Y118397D01*
X347809Y118447D01*
X347765Y118503D01*
X347726Y118558D01*
X347693Y118608D01*
X347671Y118653D01*
X347654Y118686D01*
X347643Y118714D01*
X347637Y118719D01*
X347609Y118791D01*
X347593Y118863D01*
X347576Y118936D01*
X347571Y119002D01*
X347565Y119058D01*
X347559Y119102D01*
Y119130D01*
Y119141D01*
X347565Y119263D01*
X347576Y119319D01*
X347582Y119363D01*
X347593Y119402D01*
X347604Y119430D01*
X347609Y119452D01*
Y119457D01*
X347654Y119557D01*
X347676Y119602D01*
X347698Y119641D01*
X347721Y119668D01*
X347737Y119696D01*
X347748Y119707D01*
X347754Y119713D01*
X347826Y119790D01*
X347898Y119851D01*
X347931Y119874D01*
X347954Y119890D01*
X347970Y119896D01*
X347976Y119901D01*
X348070Y119951D01*
X348115Y119968D01*
X348153Y119979D01*
X348181Y119990D01*
X348209Y119996D01*
X348226Y120001D01*
X348231D01*
X348320Y120018D01*
X348359Y120024D01*
X348392Y120029D01*
X348414Y120035D01*
X348436Y120040D01*
X348453D01*
X348520Y120046D01*
X348581Y120051D01*
X349308D01*
X349352Y120046D01*
D02*
G37*
G36*
X343691Y120090D02*
X343791Y120079D01*
X343880Y120057D01*
X343952Y120040D01*
X344013Y120018D01*
X344057Y119996D01*
X344085Y119985D01*
X344096Y119979D01*
X344174Y119929D01*
X344241Y119879D01*
X344296Y119824D01*
X344346Y119768D01*
X344385Y119718D01*
X344418Y119679D01*
X344435Y119657D01*
X344441Y119646D01*
X344485Y119563D01*
X344524Y119480D01*
X344557Y119396D01*
X344579Y119313D01*
X344601Y119246D01*
X344613Y119191D01*
X344618Y119169D01*
Y119152D01*
X344624Y119147D01*
Y119141D01*
X344640Y119030D01*
X344657Y118913D01*
X344668Y118808D01*
X344673Y118708D01*
Y118619D01*
X344679Y118580D01*
Y118553D01*
Y118525D01*
Y118508D01*
Y118497D01*
Y118492D01*
Y118353D01*
X344673Y118225D01*
X344662Y118109D01*
X344651Y118009D01*
X344646Y117926D01*
X344640Y117892D01*
X344635Y117865D01*
Y117837D01*
X344629Y117820D01*
Y117815D01*
Y117809D01*
X344607Y117704D01*
X344579Y117609D01*
X344551Y117520D01*
X344524Y117448D01*
X344496Y117393D01*
X344479Y117348D01*
X344463Y117321D01*
X344457Y117309D01*
X344407Y117237D01*
X344357Y117176D01*
X344302Y117126D01*
X344252Y117082D01*
X344207Y117049D01*
X344168Y117026D01*
X344146Y117010D01*
X344135Y117004D01*
X344057Y116971D01*
X343974Y116949D01*
X343891Y116927D01*
X343813Y116916D01*
X343747Y116910D01*
X343691Y116904D01*
X343641D01*
X343530Y116910D01*
X343430Y116921D01*
X343342Y116938D01*
X343264Y116960D01*
X343203Y116982D01*
X343158Y116999D01*
X343131Y117010D01*
X343120Y117015D01*
X343042Y117065D01*
X342975Y117115D01*
X342920Y117171D01*
X342870Y117221D01*
X342831Y117271D01*
X342803Y117309D01*
X342787Y117332D01*
X342781Y117343D01*
X342737Y117426D01*
X342698Y117515D01*
X342664Y117598D01*
X342637Y117681D01*
X342615Y117748D01*
X342603Y117804D01*
X342598Y117826D01*
X342592Y117842D01*
Y117848D01*
Y117853D01*
X342570Y117964D01*
X342559Y118081D01*
X342548Y118186D01*
X342537Y118286D01*
Y118375D01*
X342531Y118414D01*
Y118442D01*
Y118470D01*
Y118486D01*
Y118497D01*
Y118503D01*
Y118641D01*
X342542Y118769D01*
X342548Y118886D01*
X342559Y118986D01*
X342570Y119069D01*
X342576Y119102D01*
Y119130D01*
X342581Y119152D01*
X342587Y119169D01*
Y119174D01*
Y119180D01*
X342609Y119285D01*
X342637Y119385D01*
X342664Y119468D01*
X342692Y119541D01*
X342720Y119602D01*
X342737Y119646D01*
X342753Y119668D01*
X342759Y119679D01*
X342809Y119752D01*
X342859Y119813D01*
X342914Y119868D01*
X342964Y119913D01*
X343009Y119946D01*
X343047Y119968D01*
X343070Y119985D01*
X343081Y119990D01*
X343158Y120024D01*
X343242Y120051D01*
X343325Y120068D01*
X343403Y120085D01*
X343475Y120090D01*
X343530Y120096D01*
X343580D01*
X343691Y120090D01*
D02*
G37*
G36*
X344423Y245090D02*
X344512Y245085D01*
X344590Y245068D01*
X344662Y245051D01*
X344718Y245035D01*
X344762Y245023D01*
X344784Y245012D01*
X344795Y245007D01*
X344867Y244973D01*
X344928Y244935D01*
X344984Y244896D01*
X345028Y244863D01*
X345067Y244829D01*
X345095Y244801D01*
X345111Y244785D01*
X345117Y244779D01*
X345162Y244724D01*
X345200Y244668D01*
X345234Y244613D01*
X345261Y244563D01*
X345278Y244518D01*
X345295Y244485D01*
X345300Y244463D01*
X345306Y244452D01*
X345339Y244313D01*
X345350Y244247D01*
X345356Y244191D01*
Y244135D01*
X345361Y244097D01*
Y244074D01*
Y244063D01*
Y243991D01*
X345356Y243925D01*
X345345Y243858D01*
X345339Y243808D01*
X345328Y243758D01*
X345322Y243725D01*
X345317Y243703D01*
Y243697D01*
X345300Y243636D01*
X345272Y243581D01*
X345250Y243531D01*
X345222Y243492D01*
X345200Y243458D01*
X345184Y243431D01*
X345173Y243414D01*
X345167Y243408D01*
X345123Y243364D01*
X345078Y243325D01*
X345028Y243292D01*
X344984Y243264D01*
X344945Y243242D01*
X344912Y243225D01*
X344889Y243220D01*
X344884Y243214D01*
X344812Y243192D01*
X344740Y243175D01*
X344668Y243164D01*
X344595Y243159D01*
X344540Y243153D01*
X344490Y243148D01*
X344362D01*
X344285Y243159D01*
X344218Y243164D01*
X344157Y243175D01*
X344107Y243186D01*
X344074Y243192D01*
X344046Y243203D01*
X344040D01*
X343974Y243225D01*
X343918Y243248D01*
X343868Y243270D01*
X343818Y243292D01*
X343785Y243308D01*
X343757Y243325D01*
X343741Y243331D01*
X343735Y243336D01*
X343741Y243253D01*
X343746Y243175D01*
X343757Y243103D01*
X343768Y243042D01*
X343779Y242992D01*
X343785Y242948D01*
X343796Y242926D01*
Y242915D01*
X343818Y242842D01*
X343841Y242776D01*
X343868Y242715D01*
X343891Y242665D01*
X343913Y242620D01*
X343935Y242593D01*
X343946Y242570D01*
X343952Y242565D01*
X343996Y242509D01*
X344040Y242465D01*
X344085Y242426D01*
X344129Y242387D01*
X344162Y242365D01*
X344196Y242343D01*
X344218Y242332D01*
X344223Y242326D01*
X344290Y242298D01*
X344357Y242276D01*
X344423Y242260D01*
X344484Y242249D01*
X344540Y242243D01*
X344584Y242237D01*
X344623D01*
X344706Y242243D01*
X344745D01*
X344778Y242249D01*
X344806D01*
X344829Y242254D01*
X344845D01*
X344912Y242265D01*
X344962Y242282D01*
X344984Y242287D01*
X345001D01*
X345006Y242293D01*
X345012D01*
X345061Y242309D01*
X345100Y242321D01*
X345123Y242332D01*
X345134D01*
X345167Y242343D01*
X345189Y242348D01*
X345234D01*
X345239Y242343D01*
X345245D01*
X345256Y242332D01*
X345261Y242326D01*
Y242321D01*
X345267Y242304D01*
Y242287D01*
X345272Y242276D01*
Y242271D01*
Y242249D01*
Y242221D01*
Y242198D01*
Y242187D01*
Y242149D01*
X345267Y242115D01*
Y242093D01*
Y242088D01*
X345256Y242065D01*
X345245Y242049D01*
X345239Y242038D01*
X345234Y242032D01*
X345211Y242015D01*
X345184Y242004D01*
X345162Y241993D01*
X345156Y241988D01*
X345111Y241971D01*
X345067Y241960D01*
X345034Y241954D01*
X345028Y241949D01*
X345023D01*
X344962Y241938D01*
X344906Y241927D01*
X344884D01*
X344867Y241921D01*
X344851D01*
X344778Y241910D01*
X344712Y241904D01*
X344645D01*
X344551Y241910D01*
X344462Y241915D01*
X344379Y241927D01*
X344312Y241938D01*
X344257Y241949D01*
X344212Y241960D01*
X344190Y241971D01*
X344179D01*
X344107Y241999D01*
X344040Y242032D01*
X343979Y242065D01*
X343929Y242093D01*
X343885Y242121D01*
X343857Y242143D01*
X343835Y242160D01*
X343829Y242165D01*
X343774Y242215D01*
X343730Y242265D01*
X343685Y242315D01*
X343652Y242359D01*
X343624Y242398D01*
X343602Y242432D01*
X343591Y242454D01*
X343585Y242459D01*
X343519Y242587D01*
X343491Y242642D01*
X343469Y242698D01*
X343452Y242748D01*
X343441Y242781D01*
X343430Y242809D01*
Y242815D01*
X343391Y242959D01*
X343374Y243025D01*
X343363Y243087D01*
X343358Y243137D01*
X343352Y243181D01*
X343347Y243203D01*
Y243214D01*
X343330Y243364D01*
X343324Y243431D01*
Y243492D01*
X343319Y243547D01*
Y243586D01*
Y243608D01*
Y243619D01*
Y243697D01*
X343324Y243769D01*
Y243841D01*
X343330Y243902D01*
X343336Y243952D01*
Y243991D01*
X343341Y244013D01*
Y244024D01*
X343352Y244097D01*
X343363Y244163D01*
X343374Y244224D01*
X343385Y244280D01*
X343396Y244324D01*
X343402Y244357D01*
X343413Y244380D01*
Y244385D01*
X343430Y244446D01*
X343452Y244502D01*
X343469Y244552D01*
X343491Y244596D01*
X343508Y244629D01*
X343524Y244657D01*
X343530Y244674D01*
X343535Y244679D01*
X343596Y244768D01*
X343624Y244807D01*
X343652Y244840D01*
X343680Y244868D01*
X343702Y244885D01*
X343713Y244896D01*
X343718Y244901D01*
X343807Y244962D01*
X343891Y245007D01*
X343924Y245023D01*
X343952Y245035D01*
X343974Y245046D01*
X343979D01*
X344096Y245073D01*
X344151Y245085D01*
X344207Y245090D01*
X344251Y245096D01*
X344323D01*
X344423Y245090D01*
D02*
G37*
G36*
X347565Y245046D02*
X347598Y245029D01*
X347620Y245012D01*
X347631Y245007D01*
X347659Y244968D01*
X347676Y244924D01*
X347681Y244890D01*
Y244879D01*
Y244874D01*
Y242004D01*
X347676Y241982D01*
Y241976D01*
Y241971D01*
X347653Y241960D01*
X347648Y241954D01*
X347642D01*
X347598Y241949D01*
X347581Y241943D01*
X347576D01*
X347542Y241938D01*
X347509Y241932D01*
X347437D01*
X347409Y241938D01*
X347387Y241943D01*
X347381D01*
X347354Y241949D01*
X347337D01*
X347326Y241954D01*
X347320D01*
X347304Y241960D01*
X347293Y241965D01*
X347282Y241971D01*
X347270Y241993D01*
Y242004D01*
Y243125D01*
X346921D01*
X346815Y243131D01*
X346721Y243137D01*
X346638Y243148D01*
X346566Y243159D01*
X346505Y243170D01*
X346466Y243181D01*
X346438Y243192D01*
X346427D01*
X346349Y243220D01*
X346283Y243253D01*
X346221Y243286D01*
X346171Y243320D01*
X346127Y243353D01*
X346099Y243375D01*
X346077Y243392D01*
X346072Y243397D01*
X346022Y243447D01*
X345977Y243503D01*
X345938Y243558D01*
X345905Y243608D01*
X345883Y243653D01*
X345866Y243686D01*
X345855Y243714D01*
X345850Y243719D01*
X345822Y243791D01*
X345805Y243864D01*
X345789Y243936D01*
X345783Y244002D01*
X345778Y244058D01*
X345772Y244102D01*
Y244130D01*
Y244141D01*
X345778Y244263D01*
X345789Y244319D01*
X345794Y244363D01*
X345805Y244402D01*
X345816Y244430D01*
X345822Y244452D01*
Y244457D01*
X345866Y244557D01*
X345888Y244602D01*
X345911Y244640D01*
X345933Y244668D01*
X345950Y244696D01*
X345961Y244707D01*
X345966Y244713D01*
X346038Y244790D01*
X346111Y244851D01*
X346144Y244874D01*
X346166Y244890D01*
X346183Y244896D01*
X346188Y244901D01*
X346283Y244951D01*
X346327Y244968D01*
X346366Y244979D01*
X346394Y244990D01*
X346421Y244996D01*
X346438Y245001D01*
X346444D01*
X346532Y245018D01*
X346571Y245023D01*
X346604Y245029D01*
X346627Y245035D01*
X346649Y245040D01*
X346666D01*
X346732Y245046D01*
X346793Y245051D01*
X347520D01*
X347565Y245046D01*
D02*
G37*
G36*
X31518Y181201D02*
X31523D01*
X31529D01*
X31540Y181178D01*
X31546Y181173D01*
Y181167D01*
X31551Y181123D01*
X31557Y181106D01*
Y181101D01*
X31562Y181067D01*
X31568Y181034D01*
Y180962D01*
X31562Y180934D01*
X31557Y180912D01*
Y180906D01*
X31551Y180879D01*
Y180862D01*
X31546Y180851D01*
Y180845D01*
X31540Y180829D01*
X31535Y180818D01*
X31529Y180807D01*
X31507Y180795D01*
X31496D01*
X30375D01*
Y180446D01*
X30369Y180340D01*
X30364Y180246D01*
X30352Y180163D01*
X30341Y180091D01*
X30330Y180029D01*
X30319Y179991D01*
X30308Y179963D01*
Y179952D01*
X30280Y179874D01*
X30247Y179807D01*
X30214Y179746D01*
X30180Y179697D01*
X30147Y179652D01*
X30125Y179624D01*
X30108Y179602D01*
X30103Y179597D01*
X30053Y179547D01*
X29997Y179502D01*
X29942Y179463D01*
X29892Y179430D01*
X29847Y179408D01*
X29814Y179391D01*
X29786Y179380D01*
X29781Y179375D01*
X29709Y179347D01*
X29636Y179330D01*
X29564Y179314D01*
X29498Y179308D01*
X29442Y179303D01*
X29398Y179297D01*
X29370D01*
X29359D01*
X29237Y179303D01*
X29181Y179314D01*
X29137Y179319D01*
X29098Y179330D01*
X29070Y179341D01*
X29048Y179347D01*
X29043D01*
X28943Y179391D01*
X28898Y179413D01*
X28859Y179436D01*
X28832Y179458D01*
X28804Y179474D01*
X28793Y179486D01*
X28787Y179491D01*
X28710Y179563D01*
X28649Y179636D01*
X28626Y179669D01*
X28610Y179691D01*
X28604Y179708D01*
X28599Y179713D01*
X28549Y179807D01*
X28532Y179852D01*
X28521Y179891D01*
X28510Y179919D01*
X28504Y179946D01*
X28499Y179963D01*
Y179969D01*
X28482Y180057D01*
X28477Y180096D01*
X28471Y180129D01*
X28465Y180152D01*
X28460Y180174D01*
Y180191D01*
X28454Y180257D01*
X28449Y180318D01*
Y181045D01*
X28454Y181090D01*
X28471Y181123D01*
X28488Y181145D01*
X28493Y181156D01*
X28532Y181184D01*
X28576Y181201D01*
X28610Y181206D01*
X28621D01*
X28626D01*
X31496D01*
X31518Y181201D01*
D02*
G37*
G36*
X30896Y178881D02*
X30957Y178875D01*
X31013Y178864D01*
X31063Y178853D01*
X31102Y178842D01*
X31129Y178831D01*
X31152Y178820D01*
X31157D01*
X31257Y178759D01*
X31296Y178725D01*
X31335Y178692D01*
X31363Y178664D01*
X31385Y178642D01*
X31396Y178625D01*
X31401Y178620D01*
X31462Y178514D01*
X31490Y178459D01*
X31507Y178409D01*
X31523Y178365D01*
X31535Y178331D01*
X31546Y178304D01*
Y178298D01*
X31573Y178148D01*
X31585Y178076D01*
X31590Y178009D01*
Y177954D01*
X31596Y177904D01*
Y177771D01*
X31590Y177687D01*
X31579Y177610D01*
X31568Y177543D01*
X31562Y177488D01*
X31551Y177443D01*
X31546Y177421D01*
Y177410D01*
X31523Y177338D01*
X31496Y177271D01*
X31468Y177216D01*
X31446Y177166D01*
X31424Y177127D01*
X31401Y177099D01*
X31390Y177083D01*
X31385Y177077D01*
X31340Y177027D01*
X31296Y176983D01*
X31251Y176949D01*
X31207Y176921D01*
X31174Y176894D01*
X31146Y176877D01*
X31124Y176872D01*
X31118Y176866D01*
X31057Y176844D01*
X30996Y176822D01*
X30935Y176811D01*
X30880Y176805D01*
X30830Y176799D01*
X30791Y176794D01*
X30769D01*
X30758D01*
X30658Y176799D01*
X30619Y176811D01*
X30580Y176816D01*
X30552Y176827D01*
X30525Y176838D01*
X30513Y176844D01*
X30508D01*
X30425Y176883D01*
X30358Y176927D01*
X30330Y176949D01*
X30308Y176966D01*
X30297Y176977D01*
X30291Y176983D01*
X30219Y177055D01*
X30158Y177127D01*
X30136Y177160D01*
X30119Y177182D01*
X30108Y177199D01*
X30103Y177205D01*
X30036Y177310D01*
X30008Y177360D01*
X29981Y177404D01*
X29964Y177449D01*
X29947Y177482D01*
X29936Y177504D01*
X29931Y177510D01*
X29870Y177410D01*
X29842Y177366D01*
X29820Y177327D01*
X29797Y177299D01*
X29781Y177271D01*
X29770Y177260D01*
X29764Y177254D01*
X29697Y177177D01*
X29636Y177116D01*
X29614Y177094D01*
X29592Y177077D01*
X29581Y177071D01*
X29575Y177066D01*
X29498Y177016D01*
X29431Y176977D01*
X29403Y176966D01*
X29381Y176955D01*
X29370Y176949D01*
X29364D01*
X29276Y176921D01*
X29204Y176910D01*
X29170Y176905D01*
X29148D01*
X29131D01*
X29126D01*
X29020Y176916D01*
X28971Y176921D01*
X28932Y176933D01*
X28898Y176944D01*
X28871Y176949D01*
X28854Y176960D01*
X28848D01*
X28754Y177010D01*
X28715Y177038D01*
X28682Y177066D01*
X28660Y177088D01*
X28637Y177110D01*
X28626Y177121D01*
X28621Y177127D01*
X28587Y177171D01*
X28554Y177216D01*
X28504Y177310D01*
X28488Y177349D01*
X28477Y177382D01*
X28465Y177404D01*
Y177410D01*
X28443Y177477D01*
X28432Y177543D01*
X28421Y177615D01*
X28410Y177676D01*
Y177732D01*
X28404Y177776D01*
Y177904D01*
X28416Y177987D01*
X28427Y178059D01*
X28438Y178120D01*
X28449Y178170D01*
X28460Y178209D01*
X28465Y178231D01*
X28471Y178242D01*
X28493Y178309D01*
X28521Y178365D01*
X28549Y178420D01*
X28576Y178464D01*
X28599Y178498D01*
X28621Y178525D01*
X28632Y178542D01*
X28637Y178548D01*
X28715Y178625D01*
X28798Y178681D01*
X28832Y178698D01*
X28859Y178714D01*
X28876Y178720D01*
X28882Y178725D01*
X28993Y178759D01*
X29043Y178770D01*
X29087Y178775D01*
X29126D01*
X29159Y178781D01*
X29181D01*
X29187D01*
X29281Y178775D01*
X29320Y178770D01*
X29359Y178759D01*
X29387Y178753D01*
X29409Y178747D01*
X29426Y178742D01*
X29431D01*
X29509Y178709D01*
X29575Y178670D01*
X29598Y178653D01*
X29620Y178642D01*
X29631Y178637D01*
X29636Y178631D01*
X29703Y178570D01*
X29759Y178509D01*
X29781Y178481D01*
X29797Y178459D01*
X29809Y178448D01*
X29814Y178442D01*
X29875Y178353D01*
X29925Y178270D01*
X29942Y178237D01*
X29958Y178209D01*
X29964Y178192D01*
X29969Y178187D01*
X30031Y178298D01*
X30058Y178348D01*
X30086Y178392D01*
X30108Y178431D01*
X30125Y178459D01*
X30136Y178475D01*
X30141Y178481D01*
X30208Y178570D01*
X30241Y178609D01*
X30269Y178642D01*
X30297Y178670D01*
X30319Y178686D01*
X30330Y178698D01*
X30336Y178703D01*
X30413Y178764D01*
X30491Y178803D01*
X30519Y178820D01*
X30541Y178831D01*
X30558Y178842D01*
X30563D01*
X30658Y178870D01*
X30702Y178875D01*
X30741Y178881D01*
X30780Y178886D01*
X30808D01*
X30824D01*
X30830D01*
X30896Y178881D01*
D02*
G37*
G36*
X31510Y190690D02*
X31515D01*
X31521D01*
X31532Y190667D01*
X31537Y190662D01*
Y190656D01*
X31543Y190612D01*
X31548Y190595D01*
Y190590D01*
X31554Y190556D01*
X31560Y190523D01*
Y190451D01*
X31554Y190423D01*
X31548Y190401D01*
Y190395D01*
X31543Y190368D01*
Y190351D01*
X31537Y190340D01*
Y190334D01*
X31532Y190318D01*
X31526Y190306D01*
X31521Y190295D01*
X31499Y190284D01*
X31487D01*
X30366D01*
Y189935D01*
X30361Y189829D01*
X30355Y189735D01*
X30344Y189652D01*
X30333Y189579D01*
X30322Y189518D01*
X30311Y189480D01*
X30300Y189452D01*
Y189441D01*
X30272Y189363D01*
X30239Y189296D01*
X30205Y189235D01*
X30172Y189185D01*
X30139Y189141D01*
X30117Y189113D01*
X30100Y189091D01*
X30094Y189085D01*
X30044Y189036D01*
X29989Y188991D01*
X29933Y188952D01*
X29883Y188919D01*
X29839Y188897D01*
X29806Y188880D01*
X29778Y188869D01*
X29772Y188864D01*
X29700Y188836D01*
X29628Y188819D01*
X29556Y188803D01*
X29489Y188797D01*
X29434Y188791D01*
X29390Y188786D01*
X29362D01*
X29351D01*
X29228Y188791D01*
X29173Y188803D01*
X29129Y188808D01*
X29090Y188819D01*
X29062Y188830D01*
X29040Y188836D01*
X29034D01*
X28934Y188880D01*
X28890Y188902D01*
X28851Y188925D01*
X28823Y188947D01*
X28796Y188963D01*
X28784Y188974D01*
X28779Y188980D01*
X28701Y189052D01*
X28640Y189124D01*
X28618Y189158D01*
X28601Y189180D01*
X28596Y189197D01*
X28590Y189202D01*
X28540Y189296D01*
X28524Y189341D01*
X28513Y189380D01*
X28501Y189407D01*
X28496Y189435D01*
X28490Y189452D01*
Y189457D01*
X28474Y189546D01*
X28468Y189585D01*
X28463Y189618D01*
X28457Y189640D01*
X28451Y189663D01*
Y189679D01*
X28446Y189746D01*
X28440Y189807D01*
Y190534D01*
X28446Y190578D01*
X28463Y190612D01*
X28479Y190634D01*
X28485Y190645D01*
X28524Y190673D01*
X28568Y190690D01*
X28601Y190695D01*
X28613D01*
X28618D01*
X31487D01*
X31510Y190690D01*
D02*
G37*
G36*
X28679Y188325D02*
X28723Y188320D01*
X28746Y188314D01*
X28757Y188309D01*
X28784Y188286D01*
X28796Y188264D01*
X28801Y188248D01*
Y186749D01*
X31437Y187926D01*
X31460Y187937D01*
X31476Y187942D01*
X31487Y187948D01*
X31493D01*
X31510Y187942D01*
X31521Y187937D01*
X31526Y187931D01*
X31532D01*
X31537Y187909D01*
X31543Y187887D01*
X31548Y187870D01*
Y187864D01*
X31554Y187820D01*
X31560Y187781D01*
Y187692D01*
X31554Y187659D01*
Y187631D01*
X31548Y187604D01*
Y187576D01*
X31543Y187565D01*
Y187559D01*
X31526Y187526D01*
X31515Y187520D01*
Y187515D01*
X31487Y187487D01*
X31476Y187482D01*
X31471D01*
X28890Y186361D01*
X28868Y186349D01*
X28846Y186344D01*
X28835Y186338D01*
X28829D01*
X28807Y186333D01*
X28784Y186327D01*
X28773Y186322D01*
X28768D01*
X28746Y186316D01*
X28723D01*
X28707Y186311D01*
X28701D01*
X28673Y186305D01*
X28646D01*
X28624D01*
X28618D01*
X28585D01*
X28557Y186311D01*
X28540Y186316D01*
X28535D01*
X28513Y186322D01*
X28496Y186327D01*
X28485Y186333D01*
X28479Y186338D01*
X28463Y186349D01*
X28457Y186361D01*
X28451Y186372D01*
Y186377D01*
X28440Y186410D01*
Y188242D01*
X28446Y188270D01*
X28451Y188275D01*
Y188281D01*
X28463Y188292D01*
X28474Y188303D01*
X28485Y188309D01*
X28490D01*
X28524Y188320D01*
X28540Y188325D01*
X28546D01*
X28574Y188331D01*
X28596D01*
X28618D01*
X28624D01*
X28679Y188325D01*
D02*
G37*
G36*
X31518Y202203D02*
X31523D01*
X31529D01*
X31540Y202181D01*
X31546Y202176D01*
Y202170D01*
X31551Y202126D01*
X31557Y202109D01*
Y202103D01*
X31562Y202070D01*
X31568Y202037D01*
Y201965D01*
X31562Y201937D01*
X31557Y201915D01*
Y201909D01*
X31551Y201881D01*
Y201865D01*
X31546Y201854D01*
Y201848D01*
X31540Y201832D01*
X31535Y201820D01*
X31529Y201809D01*
X31507Y201798D01*
X31496D01*
X30375D01*
Y201449D01*
X30369Y201343D01*
X30364Y201249D01*
X30352Y201166D01*
X30341Y201093D01*
X30330Y201032D01*
X30319Y200993D01*
X30308Y200966D01*
Y200955D01*
X30280Y200877D01*
X30247Y200810D01*
X30214Y200749D01*
X30180Y200699D01*
X30147Y200655D01*
X30125Y200627D01*
X30108Y200605D01*
X30103Y200599D01*
X30053Y200550D01*
X29997Y200505D01*
X29942Y200466D01*
X29892Y200433D01*
X29847Y200411D01*
X29814Y200394D01*
X29786Y200383D01*
X29781Y200377D01*
X29709Y200350D01*
X29636Y200333D01*
X29564Y200316D01*
X29498Y200311D01*
X29442Y200305D01*
X29398Y200300D01*
X29370D01*
X29359D01*
X29237Y200305D01*
X29181Y200316D01*
X29137Y200322D01*
X29098Y200333D01*
X29070Y200344D01*
X29048Y200350D01*
X29043D01*
X28943Y200394D01*
X28898Y200416D01*
X28859Y200438D01*
X28832Y200461D01*
X28804Y200477D01*
X28793Y200488D01*
X28787Y200494D01*
X28710Y200566D01*
X28649Y200638D01*
X28626Y200672D01*
X28610Y200694D01*
X28604Y200710D01*
X28599Y200716D01*
X28549Y200810D01*
X28532Y200855D01*
X28521Y200894D01*
X28510Y200921D01*
X28504Y200949D01*
X28499Y200966D01*
Y200971D01*
X28482Y201060D01*
X28477Y201099D01*
X28471Y201132D01*
X28465Y201154D01*
X28460Y201177D01*
Y201193D01*
X28454Y201260D01*
X28449Y201321D01*
Y202048D01*
X28454Y202092D01*
X28471Y202126D01*
X28488Y202148D01*
X28493Y202159D01*
X28532Y202187D01*
X28576Y202203D01*
X28610Y202209D01*
X28621D01*
X28626D01*
X31496D01*
X31518Y202203D01*
D02*
G37*
G36*
X30280Y199822D02*
X30352D01*
X30413Y199817D01*
X30463D01*
X30508Y199811D01*
X30530D01*
X30541D01*
X30613Y199806D01*
X30680Y199795D01*
X30741Y199784D01*
X30796Y199773D01*
X30841Y199767D01*
X30874Y199756D01*
X30896Y199750D01*
X30902D01*
X30963Y199734D01*
X31018Y199711D01*
X31068Y199695D01*
X31113Y199673D01*
X31146Y199661D01*
X31174Y199645D01*
X31190Y199639D01*
X31196Y199634D01*
X31285Y199573D01*
X31318Y199539D01*
X31351Y199512D01*
X31379Y199489D01*
X31396Y199467D01*
X31407Y199456D01*
X31413Y199451D01*
X31473Y199362D01*
X31512Y199278D01*
X31529Y199245D01*
X31540Y199212D01*
X31551Y199195D01*
Y199190D01*
X31579Y199073D01*
X31585Y199012D01*
X31590Y198962D01*
X31596Y198912D01*
Y198846D01*
X31590Y198746D01*
X31585Y198657D01*
X31568Y198579D01*
X31551Y198513D01*
X31540Y198457D01*
X31523Y198413D01*
X31518Y198390D01*
X31512Y198379D01*
X31479Y198307D01*
X31440Y198246D01*
X31401Y198185D01*
X31363Y198141D01*
X31329Y198102D01*
X31302Y198074D01*
X31285Y198057D01*
X31279Y198052D01*
X31224Y198008D01*
X31168Y197963D01*
X31113Y197930D01*
X31057Y197902D01*
X31013Y197885D01*
X30980Y197869D01*
X30952Y197858D01*
X30946D01*
X30874Y197836D01*
X30802Y197819D01*
X30735Y197808D01*
X30674Y197797D01*
X30624D01*
X30580Y197791D01*
X30558D01*
X30547D01*
X30474D01*
X30413Y197797D01*
X30352Y197808D01*
X30303Y197813D01*
X30258Y197824D01*
X30225Y197836D01*
X30203Y197841D01*
X30197D01*
X30136Y197858D01*
X30081Y197885D01*
X30031Y197908D01*
X29992Y197930D01*
X29958Y197958D01*
X29931Y197974D01*
X29914Y197985D01*
X29908Y197991D01*
X29864Y198035D01*
X29825Y198080D01*
X29797Y198124D01*
X29770Y198174D01*
X29748Y198213D01*
X29731Y198246D01*
X29725Y198268D01*
X29720Y198274D01*
X29697Y198341D01*
X29675Y198413D01*
X29664Y198485D01*
X29659Y198551D01*
X29653Y198607D01*
X29648Y198651D01*
Y198696D01*
X29653Y198779D01*
X29659Y198851D01*
X29664Y198879D01*
Y198901D01*
X29670Y198912D01*
Y198918D01*
X29681Y198990D01*
X29697Y199051D01*
X29703Y199079D01*
X29709Y199095D01*
X29714Y199106D01*
Y199112D01*
X29736Y199179D01*
X29759Y199229D01*
X29764Y199251D01*
X29775Y199267D01*
X29781Y199278D01*
Y199284D01*
X29809Y199340D01*
X29831Y199384D01*
X29847Y199412D01*
X29853Y199417D01*
Y199423D01*
X29770Y199417D01*
X29692Y199412D01*
X29620Y199401D01*
X29559Y199390D01*
X29503Y199384D01*
X29464Y199373D01*
X29442Y199367D01*
X29431D01*
X29359Y199345D01*
X29287Y199323D01*
X29226Y199295D01*
X29176Y199273D01*
X29131Y199251D01*
X29098Y199234D01*
X29076Y199223D01*
X29070Y199217D01*
X29015Y199173D01*
X28965Y199129D01*
X28926Y199084D01*
X28887Y199045D01*
X28865Y199006D01*
X28843Y198979D01*
X28832Y198957D01*
X28826Y198951D01*
X28793Y198890D01*
X28771Y198823D01*
X28754Y198757D01*
X28743Y198701D01*
X28737Y198646D01*
X28732Y198607D01*
Y198568D01*
X28737Y198485D01*
Y198446D01*
X28743Y198418D01*
X28749Y198390D01*
Y198374D01*
X28754Y198363D01*
Y198357D01*
X28765Y198291D01*
X28782Y198246D01*
X28787Y198213D01*
X28793Y198202D01*
X28804Y198157D01*
X28815Y198119D01*
X28821Y198096D01*
X28826Y198091D01*
X28837Y198057D01*
X28843Y198035D01*
Y198019D01*
X28837Y197991D01*
X28832Y197985D01*
X28815Y197969D01*
X28804Y197963D01*
X28787Y197958D01*
X28771Y197952D01*
X28760D01*
X28754D01*
X28726Y197947D01*
X28704D01*
X28687D01*
X28682D01*
X28660D01*
X28643D01*
X28632Y197952D01*
X28626D01*
X28593D01*
X28587Y197958D01*
X28582D01*
X28560Y197969D01*
X28549Y197974D01*
X28526Y197985D01*
X28521Y197991D01*
Y197996D01*
X28510Y198013D01*
X28499Y198041D01*
X28493Y198057D01*
X28488Y198069D01*
X28471Y198107D01*
X28460Y198152D01*
X28449Y198185D01*
Y198196D01*
X28432Y198257D01*
X28421Y198307D01*
Y198329D01*
X28416Y198346D01*
Y198363D01*
X28410Y198429D01*
X28404Y198485D01*
Y198540D01*
X28410Y198635D01*
X28416Y198723D01*
X28427Y198807D01*
X28438Y198873D01*
X28454Y198929D01*
X28465Y198973D01*
X28471Y198995D01*
X28477Y199006D01*
X28504Y199079D01*
X28538Y199140D01*
X28571Y199201D01*
X28604Y199251D01*
X28632Y199290D01*
X28654Y199317D01*
X28671Y199340D01*
X28676Y199345D01*
X28726Y199395D01*
X28771Y199445D01*
X28821Y199484D01*
X28865Y199517D01*
X28904Y199545D01*
X28937Y199567D01*
X28959Y199578D01*
X28965Y199584D01*
X29093Y199645D01*
X29148Y199673D01*
X29204Y199695D01*
X29254Y199711D01*
X29287Y199723D01*
X29309Y199734D01*
X29320D01*
X29459Y199767D01*
X29526Y199784D01*
X29586Y199795D01*
X29636Y199800D01*
X29681Y199806D01*
X29703Y199811D01*
X29714D01*
X29864Y199822D01*
X29931D01*
X29992Y199828D01*
X30047D01*
X30086D01*
X30108D01*
X30119D01*
X30203D01*
X30280Y199822D01*
D02*
G37*
G36*
X31496Y211659D02*
X31501D01*
X31507D01*
X31518Y211637D01*
X31523Y211631D01*
Y211626D01*
X31529Y211581D01*
X31535Y211565D01*
Y211559D01*
X31540Y211526D01*
X31546Y211492D01*
Y211420D01*
X31540Y211392D01*
X31535Y211370D01*
Y211365D01*
X31529Y211337D01*
Y211320D01*
X31523Y211309D01*
Y211304D01*
X31518Y211287D01*
X31512Y211276D01*
X31507Y211265D01*
X31485Y211254D01*
X31473D01*
X30352D01*
Y210904D01*
X30347Y210799D01*
X30341Y210704D01*
X30330Y210621D01*
X30319Y210549D01*
X30308Y210488D01*
X30297Y210449D01*
X30286Y210421D01*
Y210410D01*
X30258Y210332D01*
X30225Y210266D01*
X30191Y210205D01*
X30158Y210155D01*
X30125Y210110D01*
X30103Y210083D01*
X30086Y210061D01*
X30081Y210055D01*
X30031Y210005D01*
X29975Y209961D01*
X29919Y209922D01*
X29870Y209889D01*
X29825Y209866D01*
X29792Y209850D01*
X29764Y209839D01*
X29759Y209833D01*
X29686Y209805D01*
X29614Y209789D01*
X29542Y209772D01*
X29476Y209766D01*
X29420Y209761D01*
X29376Y209755D01*
X29348D01*
X29337D01*
X29215Y209761D01*
X29159Y209772D01*
X29115Y209777D01*
X29076Y209789D01*
X29048Y209800D01*
X29026Y209805D01*
X29020D01*
X28921Y209850D01*
X28876Y209872D01*
X28837Y209894D01*
X28809Y209916D01*
X28782Y209933D01*
X28771Y209944D01*
X28765Y209949D01*
X28687Y210022D01*
X28626Y210094D01*
X28604Y210127D01*
X28587Y210149D01*
X28582Y210166D01*
X28576Y210172D01*
X28526Y210266D01*
X28510Y210310D01*
X28499Y210349D01*
X28488Y210377D01*
X28482Y210405D01*
X28477Y210421D01*
Y210427D01*
X28460Y210516D01*
X28454Y210555D01*
X28449Y210588D01*
X28443Y210610D01*
X28438Y210632D01*
Y210649D01*
X28432Y210716D01*
X28427Y210776D01*
Y211504D01*
X28432Y211548D01*
X28449Y211581D01*
X28465Y211603D01*
X28471Y211615D01*
X28510Y211642D01*
X28554Y211659D01*
X28587Y211665D01*
X28599D01*
X28604D01*
X31473D01*
X31496Y211659D01*
D02*
G37*
G36*
X31318Y209289D02*
X31329D01*
X31335D01*
X31363Y209278D01*
X31368Y209272D01*
X31374D01*
X31390Y209261D01*
X31396Y209250D01*
X31401D01*
X31413Y209228D01*
X31429Y209200D01*
X31440Y209178D01*
X31446Y209167D01*
X31468Y209111D01*
X31485Y209056D01*
X31490Y209034D01*
X31496Y209017D01*
X31501Y209006D01*
Y209000D01*
X31518Y208923D01*
X31535Y208851D01*
X31540Y208817D01*
X31546Y208795D01*
X31551Y208779D01*
Y208773D01*
X31562Y208673D01*
X31568Y208629D01*
Y208584D01*
X31573Y208545D01*
Y208495D01*
X31568Y208401D01*
X31562Y208312D01*
X31551Y208235D01*
X31540Y208168D01*
X31529Y208107D01*
X31518Y208068D01*
X31507Y208040D01*
Y208029D01*
X31479Y207951D01*
X31446Y207879D01*
X31413Y207818D01*
X31379Y207763D01*
X31351Y207724D01*
X31329Y207691D01*
X31313Y207668D01*
X31307Y207663D01*
X31257Y207608D01*
X31202Y207558D01*
X31146Y207519D01*
X31091Y207485D01*
X31046Y207458D01*
X31013Y207441D01*
X30991Y207430D01*
X30980Y207424D01*
X30902Y207397D01*
X30830Y207374D01*
X30752Y207358D01*
X30685Y207347D01*
X30624Y207341D01*
X30580Y207335D01*
X30547D01*
X30536D01*
X30463D01*
X30391Y207347D01*
X30330Y207358D01*
X30275Y207369D01*
X30230Y207380D01*
X30197Y207391D01*
X30175Y207397D01*
X30169Y207402D01*
X30108Y207430D01*
X30053Y207458D01*
X30008Y207491D01*
X29964Y207524D01*
X29931Y207552D01*
X29908Y207574D01*
X29892Y207591D01*
X29886Y207596D01*
X29847Y207646D01*
X29809Y207702D01*
X29781Y207752D01*
X29753Y207807D01*
X29736Y207852D01*
X29720Y207885D01*
X29709Y207907D01*
Y207918D01*
X29686Y207990D01*
X29670Y208068D01*
X29659Y208146D01*
X29648Y208212D01*
Y208274D01*
X29642Y208323D01*
Y208507D01*
X29648Y208529D01*
Y208623D01*
X29653Y208673D01*
X29659Y208695D01*
Y208712D01*
X29664Y208717D01*
Y208723D01*
X28787D01*
Y207619D01*
X28782Y207591D01*
X28765Y207574D01*
X28749Y207563D01*
X28743Y207558D01*
X28699Y207541D01*
X28660Y207535D01*
X28621Y207530D01*
X28615D01*
X28610D01*
X28576D01*
X28549Y207535D01*
X28532Y207541D01*
X28526D01*
X28504Y207546D01*
X28488Y207552D01*
X28477Y207558D01*
X28471D01*
X28443Y207574D01*
X28438Y207580D01*
Y207585D01*
X28427Y207613D01*
Y208995D01*
X28432Y209039D01*
X28443Y209073D01*
X28460Y209095D01*
X28465Y209100D01*
X28499Y209117D01*
X28543Y209128D01*
X28576Y209134D01*
X28582D01*
X28587D01*
X29847D01*
X29903Y209128D01*
X29942Y209117D01*
X29964Y209111D01*
X29969Y209106D01*
X29986Y209078D01*
X29997Y209050D01*
X30003Y209023D01*
Y209012D01*
X29997Y208945D01*
X29992Y208878D01*
Y208856D01*
X29986Y208834D01*
Y208817D01*
X29975Y208734D01*
X29969Y208651D01*
Y208495D01*
X29975Y208423D01*
X29981Y208362D01*
X29986Y208312D01*
X29997Y208268D01*
X30003Y208240D01*
X30008Y208218D01*
Y208212D01*
X30025Y208157D01*
X30042Y208113D01*
X30064Y208068D01*
X30081Y208035D01*
X30097Y208007D01*
X30114Y207985D01*
X30119Y207974D01*
X30125Y207968D01*
X30186Y207902D01*
X30247Y207857D01*
X30275Y207840D01*
X30291Y207829D01*
X30308Y207824D01*
X30314D01*
X30402Y207796D01*
X30486Y207780D01*
X30519Y207774D01*
X30547D01*
X30569D01*
X30574D01*
X30635D01*
X30696Y207785D01*
X30746Y207791D01*
X30791Y207802D01*
X30824Y207813D01*
X30852Y207818D01*
X30869Y207829D01*
X30874D01*
X30957Y207879D01*
X30991Y207902D01*
X31024Y207929D01*
X31046Y207951D01*
X31063Y207968D01*
X31074Y207979D01*
X31080Y207985D01*
X31135Y208063D01*
X31174Y208135D01*
X31185Y208168D01*
X31196Y208196D01*
X31202Y208212D01*
Y208218D01*
X31218Y208318D01*
X31229Y208368D01*
Y208412D01*
X31235Y208457D01*
Y208573D01*
X31229Y208629D01*
X31224Y208684D01*
X31218Y208729D01*
Y208762D01*
X31213Y208790D01*
X31207Y208806D01*
Y208812D01*
X31185Y208895D01*
X31174Y208934D01*
X31163Y208962D01*
X31152Y208989D01*
X31146Y209006D01*
X31141Y209017D01*
Y209023D01*
X31113Y209078D01*
X31091Y209123D01*
X31080Y209145D01*
X31074Y209156D01*
X31052Y209189D01*
X31046Y209211D01*
X31041Y209223D01*
Y209228D01*
X31046Y209250D01*
X31052Y209256D01*
Y209261D01*
X31074Y209278D01*
X31080Y209284D01*
X31085D01*
X31102Y209289D01*
X31118D01*
X31129Y209295D01*
X31135D01*
X31163D01*
X31185D01*
X31202D01*
X31207D01*
X31240D01*
X31263D01*
X31279D01*
X31285D01*
X31318Y209289D01*
D02*
G37*
G36*
X31518Y223231D02*
X31523D01*
X31529D01*
X31540Y223209D01*
X31546Y223203D01*
Y223198D01*
X31551Y223153D01*
X31557Y223137D01*
Y223131D01*
X31562Y223098D01*
X31568Y223065D01*
Y222992D01*
X31562Y222965D01*
X31557Y222942D01*
Y222937D01*
X31551Y222909D01*
Y222892D01*
X31546Y222881D01*
Y222876D01*
X31540Y222859D01*
X31535Y222848D01*
X31529Y222837D01*
X31507Y222826D01*
X31496D01*
X30375D01*
Y222476D01*
X30369Y222371D01*
X30364Y222276D01*
X30352Y222193D01*
X30341Y222121D01*
X30330Y222060D01*
X30319Y222021D01*
X30308Y221993D01*
Y221982D01*
X30280Y221905D01*
X30247Y221838D01*
X30214Y221777D01*
X30180Y221727D01*
X30147Y221683D01*
X30125Y221655D01*
X30108Y221633D01*
X30103Y221627D01*
X30053Y221577D01*
X29997Y221533D01*
X29942Y221494D01*
X29892Y221461D01*
X29847Y221439D01*
X29814Y221422D01*
X29786Y221411D01*
X29781Y221405D01*
X29709Y221377D01*
X29636Y221361D01*
X29564Y221344D01*
X29498Y221339D01*
X29442Y221333D01*
X29398Y221327D01*
X29370D01*
X29359D01*
X29237Y221333D01*
X29181Y221344D01*
X29137Y221350D01*
X29098Y221361D01*
X29070Y221372D01*
X29048Y221377D01*
X29043D01*
X28943Y221422D01*
X28898Y221444D01*
X28859Y221466D01*
X28832Y221488D01*
X28804Y221505D01*
X28793Y221516D01*
X28787Y221522D01*
X28710Y221594D01*
X28649Y221666D01*
X28626Y221699D01*
X28610Y221722D01*
X28604Y221738D01*
X28599Y221744D01*
X28549Y221838D01*
X28532Y221883D01*
X28521Y221921D01*
X28510Y221949D01*
X28504Y221977D01*
X28499Y221993D01*
Y221999D01*
X28482Y222088D01*
X28477Y222127D01*
X28471Y222160D01*
X28465Y222182D01*
X28460Y222204D01*
Y222221D01*
X28454Y222288D01*
X28449Y222349D01*
Y223076D01*
X28454Y223120D01*
X28471Y223153D01*
X28488Y223176D01*
X28493Y223187D01*
X28532Y223214D01*
X28576Y223231D01*
X28610Y223237D01*
X28621D01*
X28626D01*
X31496D01*
X31518Y223231D01*
D02*
G37*
G36*
X30730Y220989D02*
X30752D01*
X30758D01*
X30780Y220983D01*
X30796Y220978D01*
X30808Y220972D01*
X30813D01*
X30830Y220950D01*
X30835Y220939D01*
X30841Y220906D01*
Y219613D01*
X31496D01*
X31518Y219607D01*
X31529D01*
X31546Y219585D01*
X31551Y219579D01*
Y219574D01*
X31557Y219557D01*
Y219535D01*
X31562Y219518D01*
Y219513D01*
X31568Y219479D01*
Y219374D01*
X31562Y219340D01*
Y219313D01*
X31557Y219285D01*
Y219268D01*
X31551Y219257D01*
Y219252D01*
X31540Y219235D01*
X31535Y219224D01*
X31529Y219213D01*
X31507Y219202D01*
X31501D01*
X31496D01*
X30841D01*
Y218852D01*
X30835Y218824D01*
X30819Y218808D01*
X30802Y218797D01*
X30796Y218791D01*
X30758Y218774D01*
X30719Y218769D01*
X30685Y218763D01*
X30680D01*
X30674D01*
X30619Y218769D01*
X30580Y218774D01*
X30552Y218786D01*
X30547Y218791D01*
X30519Y218808D01*
X30508Y218830D01*
X30502Y218847D01*
Y219202D01*
X28521D01*
X28504Y219207D01*
X28493Y219213D01*
X28482Y219218D01*
Y219224D01*
X28471Y219241D01*
X28465Y219263D01*
X28460Y219280D01*
Y219285D01*
X28454Y219313D01*
X28449Y219346D01*
X28443Y219368D01*
Y219379D01*
X28438Y219424D01*
X28432Y219468D01*
Y219607D01*
X28438Y219635D01*
Y219646D01*
X28443Y219679D01*
X28449Y219707D01*
X28454Y219729D01*
Y219735D01*
X28460Y219757D01*
X28465Y219779D01*
X28471Y219790D01*
X28477Y219796D01*
X28499Y219818D01*
X28504Y219829D01*
X28510D01*
X30397Y220939D01*
X30419Y220950D01*
X30441Y220961D01*
X30452Y220967D01*
X30458D01*
X30497Y220983D01*
X30513Y220989D01*
X30519D01*
X30563Y220994D01*
X30580D01*
X30586D01*
X30613D01*
X30635D01*
X30658D01*
X30663D01*
X30702D01*
X30730Y220989D01*
D02*
G37*
G36*
X31518Y232653D02*
X31523D01*
X31529D01*
X31540Y232631D01*
X31546Y232626D01*
Y232620D01*
X31551Y232576D01*
X31557Y232559D01*
Y232554D01*
X31562Y232520D01*
X31568Y232487D01*
Y232415D01*
X31562Y232387D01*
X31557Y232365D01*
Y232359D01*
X31551Y232331D01*
Y232315D01*
X31546Y232304D01*
Y232298D01*
X31540Y232282D01*
X31535Y232270D01*
X31529Y232259D01*
X31507Y232248D01*
X31496D01*
X30375D01*
Y231899D01*
X30369Y231793D01*
X30364Y231699D01*
X30352Y231615D01*
X30341Y231543D01*
X30330Y231482D01*
X30319Y231444D01*
X30308Y231416D01*
Y231405D01*
X30280Y231327D01*
X30247Y231260D01*
X30214Y231199D01*
X30180Y231149D01*
X30147Y231105D01*
X30125Y231077D01*
X30108Y231055D01*
X30103Y231049D01*
X30053Y230999D01*
X29997Y230955D01*
X29942Y230916D01*
X29892Y230883D01*
X29847Y230861D01*
X29814Y230844D01*
X29786Y230833D01*
X29781Y230827D01*
X29709Y230800D01*
X29636Y230783D01*
X29564Y230766D01*
X29498Y230761D01*
X29442Y230755D01*
X29398Y230750D01*
X29370D01*
X29359D01*
X29237Y230755D01*
X29181Y230766D01*
X29137Y230772D01*
X29098Y230783D01*
X29070Y230794D01*
X29048Y230800D01*
X29043D01*
X28943Y230844D01*
X28898Y230866D01*
X28859Y230889D01*
X28832Y230911D01*
X28804Y230927D01*
X28793Y230939D01*
X28787Y230944D01*
X28710Y231016D01*
X28649Y231088D01*
X28626Y231122D01*
X28610Y231144D01*
X28604Y231160D01*
X28599Y231166D01*
X28549Y231260D01*
X28532Y231305D01*
X28521Y231344D01*
X28510Y231371D01*
X28504Y231399D01*
X28499Y231416D01*
Y231421D01*
X28482Y231510D01*
X28477Y231549D01*
X28471Y231582D01*
X28465Y231604D01*
X28460Y231627D01*
Y231643D01*
X28454Y231710D01*
X28449Y231771D01*
Y232498D01*
X28454Y232542D01*
X28471Y232576D01*
X28488Y232598D01*
X28493Y232609D01*
X28532Y232637D01*
X28576Y232653D01*
X28610Y232659D01*
X28621D01*
X28626D01*
X31496D01*
X31518Y232653D01*
D02*
G37*
G36*
X31279Y230278D02*
X31296D01*
X31307Y230272D01*
X31313D01*
X31340Y230261D01*
X31346Y230256D01*
X31351D01*
X31374Y230239D01*
X31379Y230228D01*
X31385D01*
X31401Y230206D01*
X31418Y230178D01*
X31435Y230156D01*
X31440Y230145D01*
X31468Y230084D01*
X31490Y230028D01*
X31501Y230006D01*
X31507Y229984D01*
X31512Y229973D01*
Y229967D01*
X31535Y229884D01*
X31551Y229806D01*
X31557Y229779D01*
X31562Y229751D01*
X31568Y229734D01*
Y229729D01*
X31585Y229623D01*
X31590Y229573D01*
Y229529D01*
X31596Y229490D01*
Y229434D01*
X31590Y229340D01*
X31585Y229257D01*
X31573Y229173D01*
X31562Y229107D01*
X31551Y229051D01*
X31546Y229007D01*
X31535Y228985D01*
Y228974D01*
X31507Y228902D01*
X31479Y228835D01*
X31446Y228774D01*
X31413Y228724D01*
X31390Y228685D01*
X31368Y228652D01*
X31351Y228635D01*
X31346Y228630D01*
X31296Y228580D01*
X31246Y228535D01*
X31202Y228502D01*
X31152Y228474D01*
X31113Y228447D01*
X31080Y228430D01*
X31057Y228424D01*
X31052Y228419D01*
X30985Y228391D01*
X30918Y228374D01*
X30852Y228358D01*
X30791Y228352D01*
X30741Y228347D01*
X30702Y228341D01*
X30674D01*
X30663D01*
X30558Y228352D01*
X30513Y228358D01*
X30474Y228369D01*
X30441Y228380D01*
X30413Y228385D01*
X30397Y228397D01*
X30391D01*
X30303Y228441D01*
X30264Y228469D01*
X30230Y228491D01*
X30208Y228513D01*
X30186Y228530D01*
X30175Y228541D01*
X30169Y228546D01*
X30103Y228624D01*
X30053Y228696D01*
X30031Y228724D01*
X30019Y228752D01*
X30008Y228768D01*
Y228774D01*
X29969Y228874D01*
X29953Y228924D01*
X29942Y228968D01*
X29936Y229013D01*
X29931Y229040D01*
X29925Y229063D01*
Y229068D01*
X29897Y228974D01*
X29881Y228929D01*
X29870Y228896D01*
X29853Y228863D01*
X29842Y228840D01*
X29831Y228829D01*
Y228824D01*
X29775Y228746D01*
X29720Y228691D01*
X29697Y228668D01*
X29681Y228652D01*
X29670Y228646D01*
X29664Y228641D01*
X29586Y228591D01*
X29514Y228552D01*
X29487Y228541D01*
X29464Y228530D01*
X29448Y228524D01*
X29442D01*
X29348Y228502D01*
X29298Y228497D01*
X29259Y228491D01*
X29220Y228485D01*
X29193D01*
X29176D01*
X29170D01*
X29109D01*
X29048Y228497D01*
X28998Y228502D01*
X28948Y228513D01*
X28915Y228524D01*
X28882Y228530D01*
X28865Y228541D01*
X28859D01*
X28765Y228591D01*
X28721Y228619D01*
X28687Y228646D01*
X28660Y228668D01*
X28637Y228691D01*
X28626Y228702D01*
X28621Y228707D01*
X28582Y228752D01*
X28549Y228796D01*
X28499Y228885D01*
X28482Y228918D01*
X28471Y228952D01*
X28460Y228974D01*
Y228979D01*
X28427Y229107D01*
X28416Y229168D01*
X28410Y229223D01*
X28404Y229274D01*
Y229351D01*
X28410Y229462D01*
X28416Y229512D01*
X28421Y229551D01*
X28427Y229590D01*
X28432Y229618D01*
X28438Y229634D01*
Y229640D01*
X28460Y229734D01*
X28471Y229773D01*
X28482Y229806D01*
X28493Y229834D01*
X28504Y229856D01*
X28510Y229867D01*
Y229873D01*
X28538Y229939D01*
X28565Y229995D01*
X28576Y230017D01*
X28587Y230034D01*
X28593Y230039D01*
Y230045D01*
X28621Y230089D01*
X28643Y230117D01*
X28654Y230134D01*
X28660Y230139D01*
X28687Y230161D01*
X28693Y230173D01*
X28699D01*
X28726Y230184D01*
X28732Y230189D01*
X28737D01*
X28765Y230195D01*
X28776D01*
X28782D01*
X28826D01*
X28843D01*
X28848D01*
X28882D01*
X28909D01*
X28926D01*
X28932D01*
X28954Y230189D01*
X28971D01*
X28976Y230184D01*
X28982D01*
X28998Y230167D01*
X29004Y230161D01*
X29009Y230139D01*
Y230128D01*
X29004Y230106D01*
X28987Y230078D01*
X28976Y230062D01*
X28971Y230050D01*
X28937Y230000D01*
X28909Y229951D01*
X28898Y229934D01*
X28887Y229917D01*
X28882Y229906D01*
Y229901D01*
X28848Y229829D01*
X28815Y229762D01*
X28804Y229734D01*
X28793Y229712D01*
X28787Y229695D01*
Y229690D01*
X28760Y229601D01*
X28749Y229523D01*
X28743Y229490D01*
Y229440D01*
X28749Y229351D01*
X28754Y229312D01*
X28760Y229279D01*
X28771Y229257D01*
X28776Y229235D01*
X28782Y229223D01*
Y229218D01*
X28815Y229151D01*
X28848Y229101D01*
X28876Y229068D01*
X28882Y229057D01*
X28887D01*
X28937Y229018D01*
X28987Y228985D01*
X29004Y228974D01*
X29020Y228968D01*
X29032Y228963D01*
X29037D01*
X29104Y228941D01*
X29159Y228935D01*
X29187Y228929D01*
X29204D01*
X29215D01*
X29220D01*
X29315Y228935D01*
X29353Y228946D01*
X29387Y228952D01*
X29420Y228963D01*
X29442Y228974D01*
X29453Y228979D01*
X29459D01*
X29531Y229018D01*
X29592Y229063D01*
X29614Y229079D01*
X29625Y229096D01*
X29636Y229107D01*
X29642Y229113D01*
X29692Y229185D01*
X29731Y229251D01*
X29742Y229285D01*
X29753Y229307D01*
X29759Y229323D01*
Y229329D01*
X29781Y229423D01*
X29786Y229468D01*
X29792Y229512D01*
X29797Y229551D01*
Y229873D01*
X29803Y229901D01*
X29809Y229906D01*
Y229912D01*
X29825Y229934D01*
X29831Y229939D01*
X29836Y229945D01*
X29853Y229951D01*
X29870Y229956D01*
X29881Y229962D01*
X29886D01*
X29908Y229967D01*
X29931D01*
X29953D01*
X29958D01*
X29992D01*
X30019Y229962D01*
X30036D01*
X30042D01*
X30064Y229951D01*
X30081Y229945D01*
X30086Y229939D01*
X30092D01*
X30114Y229917D01*
X30119Y229906D01*
X30125Y229878D01*
Y229495D01*
X30130Y229434D01*
X30136Y229373D01*
X30147Y229323D01*
X30153Y229285D01*
X30164Y229257D01*
X30169Y229235D01*
Y229229D01*
X30186Y229173D01*
X30203Y229129D01*
X30225Y229085D01*
X30241Y229046D01*
X30258Y229018D01*
X30275Y228996D01*
X30280Y228985D01*
X30286Y228979D01*
X30347Y228907D01*
X30408Y228857D01*
X30430Y228840D01*
X30452Y228829D01*
X30463Y228818D01*
X30469D01*
X30552Y228785D01*
X30630Y228768D01*
X30658Y228763D01*
X30685D01*
X30702D01*
X30708D01*
X30791Y228768D01*
X30863Y228785D01*
X30891Y228791D01*
X30913Y228802D01*
X30924Y228807D01*
X30930D01*
X31002Y228846D01*
X31057Y228885D01*
X31080Y228907D01*
X31091Y228918D01*
X31102Y228929D01*
X31107Y228935D01*
X31157Y229001D01*
X31190Y229068D01*
X31202Y229096D01*
X31213Y229118D01*
X31218Y229135D01*
Y229140D01*
X31240Y229235D01*
X31246Y229285D01*
X31251Y229329D01*
X31257Y229368D01*
Y229423D01*
X31251Y229540D01*
X31246Y229595D01*
X31240Y229640D01*
X31235Y229673D01*
X31229Y229706D01*
X31224Y229723D01*
Y229729D01*
X31196Y229823D01*
X31179Y229862D01*
X31168Y229895D01*
X31157Y229928D01*
X31146Y229951D01*
X31141Y229962D01*
Y229967D01*
X31107Y230034D01*
X31080Y230089D01*
X31057Y230123D01*
X31052Y230128D01*
Y230134D01*
X31029Y230178D01*
X31018Y230200D01*
X31013Y230217D01*
Y230223D01*
X31018Y230239D01*
X31029Y230256D01*
X31046Y230261D01*
X31052Y230267D01*
X31085Y230278D01*
X31124Y230284D01*
X31157D01*
X31163D01*
X31168D01*
X31202D01*
X31229D01*
X31251D01*
X31257D01*
X31279Y230278D01*
D02*
G37*
G36*
X31532Y244164D02*
X31537D01*
X31543D01*
X31554Y244142D01*
X31560Y244137D01*
Y244131D01*
X31565Y244087D01*
X31571Y244070D01*
Y244065D01*
X31576Y244031D01*
X31582Y243998D01*
Y243926D01*
X31576Y243898D01*
X31571Y243876D01*
Y243870D01*
X31565Y243843D01*
Y243826D01*
X31560Y243815D01*
Y243809D01*
X31554Y243793D01*
X31549Y243782D01*
X31543Y243770D01*
X31521Y243759D01*
X31510D01*
X30389D01*
Y243410D01*
X30383Y243304D01*
X30377Y243210D01*
X30366Y243127D01*
X30355Y243055D01*
X30344Y242993D01*
X30333Y242955D01*
X30322Y242927D01*
Y242916D01*
X30294Y242838D01*
X30261Y242772D01*
X30228Y242710D01*
X30194Y242660D01*
X30161Y242616D01*
X30139Y242588D01*
X30122Y242566D01*
X30117Y242561D01*
X30067Y242511D01*
X30011Y242466D01*
X29956Y242427D01*
X29906Y242394D01*
X29861Y242372D01*
X29828Y242355D01*
X29800Y242344D01*
X29795Y242338D01*
X29722Y242311D01*
X29650Y242294D01*
X29578Y242278D01*
X29512Y242272D01*
X29456Y242266D01*
X29412Y242261D01*
X29384D01*
X29373D01*
X29251Y242266D01*
X29195Y242278D01*
X29151Y242283D01*
X29112Y242294D01*
X29084Y242305D01*
X29062Y242311D01*
X29057D01*
X28957Y242355D01*
X28912Y242377D01*
X28873Y242400D01*
X28846Y242422D01*
X28818Y242439D01*
X28807Y242449D01*
X28801Y242455D01*
X28723Y242527D01*
X28662Y242599D01*
X28640Y242633D01*
X28624Y242655D01*
X28618Y242671D01*
X28613Y242677D01*
X28563Y242772D01*
X28546Y242816D01*
X28535Y242855D01*
X28524Y242882D01*
X28518Y242910D01*
X28513Y242927D01*
Y242932D01*
X28496Y243021D01*
X28490Y243060D01*
X28485Y243093D01*
X28479Y243115D01*
X28474Y243138D01*
Y243154D01*
X28468Y243221D01*
X28463Y243282D01*
Y244009D01*
X28468Y244054D01*
X28485Y244087D01*
X28501Y244109D01*
X28507Y244120D01*
X28546Y244148D01*
X28590Y244164D01*
X28624Y244170D01*
X28635D01*
X28640D01*
X31510D01*
X31532Y244164D01*
D02*
G37*
G36*
X31454Y241767D02*
X31476D01*
X31482D01*
X31504Y241756D01*
X31521Y241750D01*
X31526Y241739D01*
X31532D01*
X31554Y241711D01*
X31560Y241706D01*
Y241700D01*
X31565Y241662D01*
Y239924D01*
X31560Y239896D01*
Y239885D01*
X31537Y239863D01*
X31532Y239858D01*
X31526D01*
X31487Y239847D01*
X31471Y239841D01*
X31465D01*
X31438Y239836D01*
X31415Y239830D01*
X31399D01*
X31393D01*
X31360D01*
X31337Y239836D01*
X31321Y239841D01*
X31315D01*
X31293Y239847D01*
X31277Y239852D01*
X31265Y239858D01*
X31260D01*
X31232Y239880D01*
X31227Y239885D01*
Y239891D01*
X31215Y239913D01*
Y241273D01*
X30705Y240785D01*
X30605Y240690D01*
X30516Y240607D01*
X30433Y240535D01*
X30361Y240468D01*
X30305Y240424D01*
X30261Y240385D01*
X30233Y240363D01*
X30222Y240357D01*
X30144Y240302D01*
X30072Y240252D01*
X30011Y240207D01*
X29956Y240174D01*
X29906Y240146D01*
X29872Y240130D01*
X29850Y240119D01*
X29845Y240113D01*
X29784Y240080D01*
X29722Y240057D01*
X29667Y240035D01*
X29617Y240019D01*
X29578Y240007D01*
X29550Y240002D01*
X29528Y239997D01*
X29523D01*
X29412Y239980D01*
X29362Y239974D01*
X29317D01*
X29284Y239969D01*
X29251D01*
X29234D01*
X29229D01*
X29112Y239980D01*
X29057Y239985D01*
X29012Y239997D01*
X28973Y240007D01*
X28940Y240013D01*
X28923Y240024D01*
X28918D01*
X28862Y240046D01*
X28812Y240074D01*
X28768Y240102D01*
X28729Y240130D01*
X28701Y240157D01*
X28679Y240180D01*
X28662Y240191D01*
X28657Y240196D01*
X28618Y240241D01*
X28585Y240285D01*
X28529Y240379D01*
X28513Y240418D01*
X28496Y240452D01*
X28485Y240474D01*
Y240479D01*
X28463Y240546D01*
X28446Y240613D01*
X28435Y240679D01*
X28424Y240740D01*
Y240790D01*
X28418Y240834D01*
Y240873D01*
X28424Y240973D01*
X28429Y241018D01*
X28435Y241056D01*
X28440Y241090D01*
X28446Y241118D01*
X28451Y241134D01*
Y241140D01*
X28474Y241229D01*
X28485Y241273D01*
X28496Y241306D01*
X28507Y241334D01*
X28518Y241356D01*
X28524Y241373D01*
Y241378D01*
X28551Y241451D01*
X28579Y241506D01*
X28590Y241528D01*
X28601Y241545D01*
X28607Y241550D01*
Y241556D01*
X28635Y241600D01*
X28657Y241634D01*
X28674Y241650D01*
X28679Y241656D01*
X28696Y241673D01*
X28707Y241684D01*
X28712Y241695D01*
X28718D01*
X28746Y241706D01*
X28751Y241711D01*
X28757D01*
X28785Y241717D01*
X28796D01*
X28801D01*
X28840D01*
X28857D01*
X28862D01*
X28896D01*
X28923D01*
X28945D01*
X28951D01*
X28973Y241711D01*
X28990D01*
X29001Y241706D01*
X29006D01*
X29029Y241689D01*
X29040Y241684D01*
X29045Y241662D01*
Y241650D01*
X29040Y241623D01*
X29023Y241589D01*
X29012Y241567D01*
X29006Y241556D01*
X28979Y241506D01*
X28945Y241456D01*
X28934Y241439D01*
X28923Y241423D01*
X28918Y241412D01*
Y241406D01*
X28884Y241334D01*
X28857Y241267D01*
X28846Y241240D01*
X28835Y241217D01*
X28829Y241201D01*
Y241195D01*
X28801Y241101D01*
X28796Y241056D01*
X28790Y241012D01*
X28785Y240979D01*
Y240923D01*
X28790Y240834D01*
X28796Y240796D01*
X28807Y240762D01*
X28812Y240735D01*
X28823Y240712D01*
X28829Y240701D01*
Y240696D01*
X28862Y240629D01*
X28901Y240574D01*
X28929Y240540D01*
X28934Y240535D01*
X28940Y240529D01*
X28995Y240485D01*
X29045Y240452D01*
X29068Y240441D01*
X29084Y240435D01*
X29095Y240429D01*
X29101D01*
X29168Y240407D01*
X29229Y240396D01*
X29256Y240390D01*
X29278D01*
X29290D01*
X29295D01*
X29373Y240396D01*
X29445Y240402D01*
X29473Y240407D01*
X29495Y240413D01*
X29512Y240418D01*
X29517D01*
X29606Y240441D01*
X29689Y240474D01*
X29728Y240490D01*
X29756Y240501D01*
X29772Y240507D01*
X29778Y240513D01*
X29833Y240540D01*
X29889Y240574D01*
X29945Y240607D01*
X29994Y240635D01*
X30033Y240668D01*
X30072Y240690D01*
X30094Y240707D01*
X30100Y240712D01*
X30167Y240762D01*
X30233Y240818D01*
X30300Y240879D01*
X30361Y240934D01*
X30411Y240979D01*
X30450Y241023D01*
X30477Y241045D01*
X30488Y241056D01*
X31127Y241678D01*
X31149Y241695D01*
X31171Y241711D01*
X31182Y241722D01*
X31188Y241728D01*
X31227Y241750D01*
X31238Y241756D01*
X31243D01*
X31282Y241767D01*
X31299Y241772D01*
X31304D01*
X31332D01*
X31360D01*
X31376D01*
X31387D01*
X31426D01*
X31454Y241767D01*
D02*
G37*
G36*
X31521Y253670D02*
X31526D01*
X31532D01*
X31543Y253648D01*
X31548Y253642D01*
Y253637D01*
X31554Y253592D01*
X31560Y253576D01*
Y253570D01*
X31565Y253537D01*
X31571Y253504D01*
Y253431D01*
X31565Y253404D01*
X31560Y253381D01*
Y253376D01*
X31554Y253348D01*
Y253331D01*
X31548Y253320D01*
Y253315D01*
X31543Y253298D01*
X31537Y253287D01*
X31532Y253276D01*
X31510Y253265D01*
X31499D01*
X30377D01*
Y252915D01*
X30372Y252810D01*
X30366Y252715D01*
X30355Y252632D01*
X30344Y252560D01*
X30333Y252499D01*
X30322Y252460D01*
X30311Y252432D01*
Y252421D01*
X30283Y252344D01*
X30250Y252277D01*
X30216Y252216D01*
X30183Y252166D01*
X30150Y252122D01*
X30128Y252094D01*
X30111Y252072D01*
X30105Y252066D01*
X30055Y252016D01*
X30000Y251972D01*
X29945Y251933D01*
X29895Y251900D01*
X29850Y251877D01*
X29817Y251861D01*
X29789Y251850D01*
X29783Y251844D01*
X29711Y251816D01*
X29639Y251800D01*
X29567Y251783D01*
X29500Y251778D01*
X29445Y251772D01*
X29401Y251766D01*
X29373D01*
X29362D01*
X29240Y251772D01*
X29184Y251783D01*
X29140Y251789D01*
X29101Y251800D01*
X29073Y251811D01*
X29051Y251816D01*
X29045D01*
X28945Y251861D01*
X28901Y251883D01*
X28862Y251905D01*
X28835Y251927D01*
X28807Y251944D01*
X28796Y251955D01*
X28790Y251961D01*
X28712Y252033D01*
X28651Y252105D01*
X28629Y252138D01*
X28613Y252161D01*
X28607Y252177D01*
X28601Y252183D01*
X28551Y252277D01*
X28535Y252321D01*
X28524Y252360D01*
X28513Y252388D01*
X28507Y252416D01*
X28501Y252432D01*
Y252438D01*
X28485Y252527D01*
X28479Y252566D01*
X28474Y252599D01*
X28468Y252621D01*
X28463Y252643D01*
Y252660D01*
X28457Y252727D01*
X28451Y252788D01*
Y253515D01*
X28457Y253559D01*
X28474Y253592D01*
X28490Y253615D01*
X28496Y253626D01*
X28535Y253653D01*
X28579Y253670D01*
X28613Y253676D01*
X28624D01*
X28629D01*
X31499D01*
X31521Y253670D01*
D02*
G37*
G36*
X29162Y251123D02*
X29184D01*
X29190D01*
X29212Y251117D01*
X29228Y251112D01*
X29234Y251100D01*
X29240D01*
X29251Y251084D01*
Y251056D01*
X29245Y251034D01*
X29234Y251012D01*
X29223Y250989D01*
X29217Y250984D01*
X28862Y250384D01*
X31221D01*
Y251034D01*
X31227Y251056D01*
X31232Y251062D01*
Y251067D01*
X31254Y251089D01*
X31260Y251095D01*
X31265D01*
X31299Y251106D01*
X31315Y251112D01*
X31321D01*
X31343Y251117D01*
X31365D01*
X31387D01*
X31393D01*
X31426D01*
X31449Y251112D01*
X31465D01*
X31471D01*
X31504Y251100D01*
X31515Y251095D01*
X31521D01*
X31543Y251073D01*
X31548Y251067D01*
X31554Y251045D01*
Y249413D01*
X31548Y249391D01*
Y249380D01*
X31532Y249358D01*
X31521Y249352D01*
X31487Y249341D01*
X31476Y249336D01*
X31471D01*
X31443Y249330D01*
X31421Y249324D01*
X31399D01*
X31393D01*
X31365D01*
X31337Y249330D01*
X31326Y249336D01*
X31321D01*
X31299Y249341D01*
X31282Y249347D01*
X31271Y249352D01*
X31265D01*
X31238Y249369D01*
X31232Y249374D01*
Y249380D01*
X31221Y249402D01*
Y249974D01*
X28501D01*
X28479Y249979D01*
X28474Y249985D01*
X28463Y249990D01*
X28457Y250002D01*
X28451Y250007D01*
Y250013D01*
X28446Y250029D01*
X28440Y250051D01*
X28435Y250068D01*
Y250074D01*
X28429Y250107D01*
Y250218D01*
X28435Y250235D01*
Y250273D01*
X28440Y250285D01*
Y250290D01*
X28446Y250318D01*
X28451Y250323D01*
Y250329D01*
X28457Y250346D01*
X28463Y250351D01*
X28918Y251062D01*
X28934Y251089D01*
X28940Y251095D01*
X28945Y251100D01*
X28968Y251112D01*
X28973Y251117D01*
X28979D01*
X28995Y251123D01*
X29012D01*
X29023Y251128D01*
X29029D01*
X29073D01*
X29090D01*
X29095D01*
X29134D01*
X29162Y251123D01*
D02*
G37*
G36*
X-1340Y179124D02*
X-1301D01*
X-1290Y179119D01*
X-1284D01*
X-1256Y179113D01*
X-1251Y179108D01*
X-1245D01*
X-1229Y179102D01*
X-1223Y179097D01*
X-513Y178642D01*
X-485Y178625D01*
X-479Y178619D01*
X-474Y178614D01*
X-463Y178592D01*
X-457Y178586D01*
Y178580D01*
X-452Y178564D01*
Y178547D01*
X-446Y178536D01*
Y178531D01*
Y178486D01*
Y178470D01*
Y178464D01*
Y178425D01*
X-452Y178397D01*
Y178375D01*
Y178370D01*
X-457Y178347D01*
X-463Y178331D01*
X-474Y178325D01*
Y178320D01*
X-490Y178309D01*
X-518D01*
X-540Y178314D01*
X-563Y178325D01*
X-585Y178336D01*
X-590Y178342D01*
X-1190Y178697D01*
Y176338D01*
X-540D01*
X-518Y176333D01*
X-513Y176327D01*
X-507D01*
X-485Y176305D01*
X-479Y176300D01*
Y176294D01*
X-468Y176261D01*
X-463Y176244D01*
Y176238D01*
X-457Y176216D01*
Y176194D01*
Y176172D01*
Y176166D01*
Y176133D01*
X-463Y176111D01*
Y176094D01*
Y176089D01*
X-474Y176055D01*
X-479Y176044D01*
Y176039D01*
X-502Y176016D01*
X-507Y176011D01*
X-529Y176005D01*
X-2161D01*
X-2183Y176011D01*
X-2194D01*
X-2217Y176028D01*
X-2222Y176039D01*
X-2233Y176072D01*
X-2239Y176083D01*
Y176089D01*
X-2244Y176116D01*
X-2250Y176138D01*
Y176161D01*
Y176166D01*
Y176194D01*
X-2244Y176222D01*
X-2239Y176233D01*
Y176238D01*
X-2233Y176261D01*
X-2228Y176277D01*
X-2222Y176288D01*
Y176294D01*
X-2205Y176322D01*
X-2200Y176327D01*
X-2194D01*
X-2172Y176338D01*
X-1601D01*
Y179058D01*
X-1595Y179080D01*
X-1589Y179086D01*
X-1584Y179097D01*
X-1573Y179102D01*
X-1567Y179108D01*
X-1562D01*
X-1545Y179113D01*
X-1523Y179119D01*
X-1506Y179124D01*
X-1501D01*
X-1467Y179130D01*
X-1356D01*
X-1340Y179124D01*
D02*
G37*
G36*
X2124Y179102D02*
X2157Y179091D01*
X2179Y179075D01*
X2190Y179069D01*
X2218Y179030D01*
X2229Y178986D01*
X2235Y178952D01*
Y178941D01*
Y178936D01*
Y176061D01*
X2229Y176039D01*
Y176033D01*
Y176028D01*
X2207Y176016D01*
X2201Y176011D01*
X2196D01*
X2151Y176005D01*
X2135Y176000D01*
X2129D01*
X2096Y175994D01*
X2063Y175989D01*
X1990D01*
X1963Y175994D01*
X1940Y176000D01*
X1935D01*
X1907Y176005D01*
X1891D01*
X1879Y176011D01*
X1874D01*
X1857Y176016D01*
X1846Y176022D01*
X1835Y176028D01*
X1824Y176050D01*
Y176061D01*
Y177387D01*
X1552D01*
X1452Y177382D01*
X1413Y177376D01*
X1374Y177365D01*
X1347Y177359D01*
X1324Y177348D01*
X1313Y177343D01*
X1308D01*
X1241Y177304D01*
X1186Y177265D01*
X1163Y177249D01*
X1147Y177232D01*
X1141Y177226D01*
X1136Y177221D01*
X1080Y177165D01*
X1041Y177104D01*
X1025Y177082D01*
X1014Y177060D01*
X1003Y177049D01*
Y177043D01*
X964Y176965D01*
X930Y176893D01*
X914Y176860D01*
X908Y176838D01*
X897Y176821D01*
Y176816D01*
X614Y176083D01*
X597Y176050D01*
X592Y176039D01*
Y176033D01*
X564Y176011D01*
X558Y176005D01*
X553D01*
X536Y176000D01*
X514D01*
X497Y175994D01*
X492D01*
X459Y175989D01*
X337D01*
X303Y175994D01*
X275D01*
X248Y176000D01*
X225D01*
X214Y176005D01*
X209D01*
X192Y176016D01*
X181Y176022D01*
X175Y176028D01*
X170Y176050D01*
Y176061D01*
X175Y176100D01*
X181Y176111D01*
Y176116D01*
X187Y176150D01*
X203Y176189D01*
X214Y176222D01*
X220Y176233D01*
Y176238D01*
X497Y176921D01*
X536Y177004D01*
X564Y177071D01*
X581Y177099D01*
X586Y177115D01*
X597Y177126D01*
Y177132D01*
X631Y177199D01*
X664Y177249D01*
X675Y177271D01*
X686Y177287D01*
X697Y177293D01*
Y177298D01*
X736Y177348D01*
X775Y177387D01*
X803Y177410D01*
X808Y177421D01*
X814D01*
X864Y177454D01*
X908Y177482D01*
X941Y177504D01*
X947Y177509D01*
X953D01*
X853Y177548D01*
X814Y177565D01*
X775Y177582D01*
X747Y177598D01*
X719Y177609D01*
X708Y177620D01*
X703D01*
X625Y177676D01*
X564Y177731D01*
X542Y177754D01*
X525Y177770D01*
X520Y177781D01*
X514Y177787D01*
X464Y177859D01*
X425Y177931D01*
X409Y177959D01*
X398Y177981D01*
X392Y177998D01*
Y178003D01*
X364Y178103D01*
X359Y178148D01*
X353Y178192D01*
X348Y178231D01*
Y178259D01*
Y178281D01*
Y178286D01*
X353Y178403D01*
X364Y178453D01*
X370Y178492D01*
X381Y178531D01*
X392Y178558D01*
X398Y178575D01*
Y178580D01*
X436Y178675D01*
X459Y178714D01*
X481Y178747D01*
X503Y178775D01*
X520Y178797D01*
X531Y178808D01*
X536Y178814D01*
X614Y178886D01*
X686Y178941D01*
X719Y178958D01*
X747Y178975D01*
X764Y178980D01*
X769Y178986D01*
X875Y179030D01*
X930Y179047D01*
X980Y179063D01*
X1025Y179075D01*
X1058Y179080D01*
X1080Y179086D01*
X1086D01*
X1136Y179091D01*
X1180D01*
X1219Y179097D01*
X1230D01*
X1291Y179102D01*
X1358Y179108D01*
X2085D01*
X2124Y179102D01*
D02*
G37*
G36*
X-3610Y179141D02*
X-3537Y179130D01*
X-3476Y179119D01*
X-3426Y179108D01*
X-3388Y179097D01*
X-3365Y179091D01*
X-3354Y179086D01*
X-3288Y179063D01*
X-3232Y179036D01*
X-3177Y179008D01*
X-3132Y178980D01*
X-3099Y178958D01*
X-3071Y178936D01*
X-3055Y178925D01*
X-3049Y178919D01*
X-2971Y178841D01*
X-2916Y178758D01*
X-2899Y178725D01*
X-2882Y178697D01*
X-2877Y178680D01*
X-2871Y178675D01*
X-2838Y178564D01*
X-2827Y178514D01*
X-2822Y178470D01*
Y178431D01*
X-2816Y178397D01*
Y178375D01*
Y178370D01*
X-2822Y178275D01*
X-2827Y178236D01*
X-2838Y178198D01*
X-2844Y178170D01*
X-2849Y178148D01*
X-2855Y178131D01*
Y178125D01*
X-2888Y178048D01*
X-2927Y177981D01*
X-2944Y177959D01*
X-2955Y177937D01*
X-2960Y177926D01*
X-2966Y177920D01*
X-3027Y177854D01*
X-3088Y177798D01*
X-3116Y177776D01*
X-3138Y177759D01*
X-3149Y177748D01*
X-3154Y177743D01*
X-3243Y177681D01*
X-3326Y177631D01*
X-3360Y177615D01*
X-3388Y177598D01*
X-3404Y177593D01*
X-3410Y177587D01*
X-3299Y177526D01*
X-3249Y177498D01*
X-3204Y177471D01*
X-3166Y177448D01*
X-3138Y177432D01*
X-3121Y177421D01*
X-3116Y177415D01*
X-3027Y177348D01*
X-2988Y177315D01*
X-2955Y177287D01*
X-2927Y177260D01*
X-2910Y177237D01*
X-2899Y177226D01*
X-2894Y177221D01*
X-2833Y177143D01*
X-2794Y177065D01*
X-2777Y177038D01*
X-2766Y177015D01*
X-2755Y176999D01*
Y176993D01*
X-2727Y176899D01*
X-2722Y176855D01*
X-2716Y176816D01*
X-2710Y176777D01*
Y176749D01*
Y176732D01*
Y176727D01*
X-2716Y176660D01*
X-2722Y176599D01*
X-2733Y176544D01*
X-2744Y176494D01*
X-2755Y176455D01*
X-2766Y176427D01*
X-2777Y176405D01*
Y176399D01*
X-2838Y176300D01*
X-2871Y176261D01*
X-2905Y176222D01*
X-2932Y176194D01*
X-2955Y176172D01*
X-2971Y176161D01*
X-2977Y176155D01*
X-3082Y176094D01*
X-3138Y176066D01*
X-3188Y176050D01*
X-3232Y176033D01*
X-3266Y176022D01*
X-3293Y176011D01*
X-3299D01*
X-3449Y175983D01*
X-3521Y175972D01*
X-3587Y175967D01*
X-3643D01*
X-3693Y175961D01*
X-3826D01*
X-3909Y175967D01*
X-3987Y175978D01*
X-4054Y175989D01*
X-4109Y175994D01*
X-4154Y176005D01*
X-4176Y176011D01*
X-4187D01*
X-4259Y176033D01*
X-4326Y176061D01*
X-4381Y176089D01*
X-4431Y176111D01*
X-4470Y176133D01*
X-4498Y176155D01*
X-4514Y176166D01*
X-4520Y176172D01*
X-4570Y176216D01*
X-4614Y176261D01*
X-4647Y176305D01*
X-4675Y176349D01*
X-4703Y176383D01*
X-4720Y176410D01*
X-4725Y176433D01*
X-4731Y176438D01*
X-4753Y176499D01*
X-4775Y176560D01*
X-4786Y176621D01*
X-4792Y176677D01*
X-4797Y176727D01*
X-4803Y176766D01*
Y176788D01*
Y176799D01*
X-4797Y176899D01*
X-4786Y176938D01*
X-4781Y176977D01*
X-4769Y177004D01*
X-4758Y177032D01*
X-4753Y177043D01*
Y177049D01*
X-4714Y177132D01*
X-4670Y177199D01*
X-4647Y177226D01*
X-4631Y177249D01*
X-4620Y177260D01*
X-4614Y177265D01*
X-4542Y177337D01*
X-4470Y177398D01*
X-4436Y177421D01*
X-4414Y177437D01*
X-4398Y177448D01*
X-4392Y177454D01*
X-4287Y177521D01*
X-4237Y177548D01*
X-4192Y177576D01*
X-4148Y177593D01*
X-4115Y177609D01*
X-4092Y177620D01*
X-4087Y177626D01*
X-4187Y177687D01*
X-4231Y177715D01*
X-4270Y177737D01*
X-4298Y177759D01*
X-4326Y177776D01*
X-4337Y177787D01*
X-4342Y177792D01*
X-4420Y177859D01*
X-4481Y177920D01*
X-4503Y177942D01*
X-4520Y177964D01*
X-4525Y177976D01*
X-4531Y177981D01*
X-4581Y178059D01*
X-4620Y178125D01*
X-4631Y178153D01*
X-4642Y178175D01*
X-4647Y178187D01*
Y178192D01*
X-4675Y178281D01*
X-4686Y178353D01*
X-4692Y178386D01*
Y178409D01*
Y178425D01*
Y178431D01*
X-4681Y178536D01*
X-4675Y178586D01*
X-4664Y178625D01*
X-4653Y178658D01*
X-4647Y178686D01*
X-4636Y178703D01*
Y178708D01*
X-4586Y178803D01*
X-4559Y178841D01*
X-4531Y178875D01*
X-4509Y178897D01*
X-4487Y178919D01*
X-4475Y178930D01*
X-4470Y178936D01*
X-4425Y178969D01*
X-4381Y179002D01*
X-4287Y179052D01*
X-4248Y179069D01*
X-4214Y179080D01*
X-4192Y179091D01*
X-4187D01*
X-4120Y179113D01*
X-4054Y179124D01*
X-3981Y179136D01*
X-3920Y179147D01*
X-3865D01*
X-3821Y179152D01*
X-3693D01*
X-3610Y179141D01*
D02*
G37*
G36*
X-6168Y179147D02*
X-6068Y179136D01*
X-5979Y179113D01*
X-5907Y179097D01*
X-5846Y179075D01*
X-5802Y179052D01*
X-5774Y179041D01*
X-5763Y179036D01*
X-5685Y178986D01*
X-5619Y178936D01*
X-5563Y178880D01*
X-5513Y178825D01*
X-5474Y178775D01*
X-5441Y178736D01*
X-5424Y178714D01*
X-5419Y178703D01*
X-5375Y178619D01*
X-5336Y178536D01*
X-5302Y178453D01*
X-5280Y178370D01*
X-5258Y178303D01*
X-5247Y178247D01*
X-5241Y178225D01*
Y178209D01*
X-5236Y178203D01*
Y178198D01*
X-5219Y178087D01*
X-5202Y177970D01*
X-5191Y177865D01*
X-5186Y177765D01*
Y177676D01*
X-5180Y177637D01*
Y177609D01*
Y177582D01*
Y177565D01*
Y177554D01*
Y177548D01*
Y177410D01*
X-5186Y177282D01*
X-5197Y177165D01*
X-5208Y177065D01*
X-5213Y176982D01*
X-5219Y176949D01*
X-5225Y176921D01*
Y176893D01*
X-5230Y176877D01*
Y176871D01*
Y176866D01*
X-5252Y176760D01*
X-5280Y176666D01*
X-5308Y176577D01*
X-5336Y176505D01*
X-5363Y176449D01*
X-5380Y176405D01*
X-5397Y176377D01*
X-5402Y176366D01*
X-5452Y176294D01*
X-5502Y176233D01*
X-5558Y176183D01*
X-5608Y176138D01*
X-5652Y176105D01*
X-5691Y176083D01*
X-5713Y176066D01*
X-5724Y176061D01*
X-5802Y176028D01*
X-5885Y176005D01*
X-5968Y175983D01*
X-6046Y175972D01*
X-6113Y175967D01*
X-6168Y175961D01*
X-6218D01*
X-6329Y175967D01*
X-6429Y175978D01*
X-6518Y175994D01*
X-6595Y176016D01*
X-6656Y176039D01*
X-6701Y176055D01*
X-6729Y176066D01*
X-6740Y176072D01*
X-6818Y176122D01*
X-6884Y176172D01*
X-6940Y176227D01*
X-6989Y176277D01*
X-7028Y176327D01*
X-7056Y176366D01*
X-7073Y176388D01*
X-7078Y176399D01*
X-7123Y176483D01*
X-7162Y176571D01*
X-7195Y176655D01*
X-7223Y176738D01*
X-7245Y176804D01*
X-7256Y176860D01*
X-7261Y176882D01*
X-7267Y176899D01*
Y176904D01*
Y176910D01*
X-7289Y177021D01*
X-7300Y177137D01*
X-7311Y177243D01*
X-7322Y177343D01*
Y177432D01*
X-7328Y177471D01*
Y177498D01*
Y177526D01*
Y177543D01*
Y177554D01*
Y177559D01*
Y177698D01*
X-7317Y177826D01*
X-7311Y177942D01*
X-7300Y178042D01*
X-7289Y178125D01*
X-7284Y178159D01*
Y178187D01*
X-7278Y178209D01*
X-7273Y178225D01*
Y178231D01*
Y178236D01*
X-7250Y178342D01*
X-7223Y178442D01*
X-7195Y178525D01*
X-7167Y178597D01*
X-7139Y178658D01*
X-7123Y178703D01*
X-7106Y178725D01*
X-7101Y178736D01*
X-7051Y178808D01*
X-7001Y178869D01*
X-6945Y178925D01*
X-6895Y178969D01*
X-6851Y179002D01*
X-6812Y179025D01*
X-6790Y179041D01*
X-6779Y179047D01*
X-6701Y179080D01*
X-6618Y179108D01*
X-6534Y179124D01*
X-6457Y179141D01*
X-6385Y179147D01*
X-6329Y179152D01*
X-6279D01*
X-6168Y179147D01*
D02*
G37*
%LPC*%
G36*
X436116Y192456D02*
X435441Y192412D01*
X434777Y192280D01*
X434241Y192098D01*
X434243Y192093D01*
X433965Y191978D01*
X433445Y191660D01*
X432981Y191264D01*
X432880Y191144D01*
X432792Y191044D01*
X432792D01*
Y191044D01*
X432647Y190878D01*
X432293Y190347D01*
X432010Y189775D01*
X431846Y189291D01*
X431846Y189291D01*
X431672Y188598D01*
X431542Y187719D01*
X431498Y186831D01*
X431542Y185943D01*
X431672Y185064D01*
X431846Y184372D01*
X431888Y184248D01*
X432015Y183873D01*
X432306Y183282D01*
X432672Y182734D01*
X432791Y182599D01*
X432793Y182599D01*
X432794Y182599D01*
X433011Y182344D01*
X433466Y181956D01*
X433976Y181644D01*
X434243Y181533D01*
X434240Y181525D01*
X434803Y181334D01*
X435419Y181212D01*
X435975Y181175D01*
X436047Y181170D01*
X436108Y181175D01*
X436177Y181170D01*
X436810Y181212D01*
X437432Y181335D01*
X437993Y181526D01*
X437990Y181533D01*
X438257Y181644D01*
X438767Y181956D01*
X439221Y182344D01*
X439439Y182599D01*
X439439Y182599D01*
X439440Y182599D01*
X439441Y182599D01*
X439557Y182730D01*
X439916Y183268D01*
X440203Y183849D01*
X440380Y184371D01*
X440377Y184372D01*
X440536Y185007D01*
X440670Y185915D01*
X440715Y186831D01*
X440670Y187748D01*
X440536Y188656D01*
X440377Y189290D01*
X440380Y189291D01*
X440207Y189799D01*
X439930Y190361D01*
X439582Y190882D01*
X439440Y191044D01*
X439353Y191144D01*
X439353Y191145D01*
X439251Y191264D01*
X438787Y191660D01*
X438268Y191978D01*
X437990Y192093D01*
X437992Y192098D01*
X437456Y192280D01*
X436792Y192412D01*
X436116Y192456D01*
D02*
G37*
G36*
X438527Y180302D02*
X438527D01*
X438527D01*
D01*
D02*
G37*
G36*
X433631D02*
X433631D01*
D01*
X433631D01*
D02*
G37*
G36*
X471604Y191126D02*
Y191126D01*
D01*
Y191126D01*
D02*
G37*
G36*
X464915Y187028D02*
X464886Y187027D01*
X464756Y187017D01*
X462792D01*
X462787Y187015D01*
X462784Y187010D01*
Y183541D01*
X462786Y183536D01*
X462786Y183536D01*
X463031Y183266D01*
X463640Y182715D01*
X463644Y182715D01*
X463813Y182564D01*
X464496Y182080D01*
X464725Y181953D01*
X464725Y181953D01*
X465155Y181716D01*
X465816Y181442D01*
X465984Y181394D01*
Y181394D01*
X465984D01*
X465987Y181395D01*
X466201Y181322D01*
X466769Y181210D01*
X467346Y181172D01*
X467365Y181169D01*
X467368Y181169D01*
X467551Y181179D01*
X467683Y181187D01*
Y181187D01*
X467989Y181204D01*
X468122Y181215D01*
X468239Y181223D01*
X468281Y181231D01*
X468281Y181232D01*
X468426Y181261D01*
X468555Y181287D01*
X468556Y181286D01*
X468557Y181287D01*
Y181287D01*
X468558Y181287D01*
X468688Y181313D01*
X468823Y181340D01*
X468827Y181348D01*
X469063Y181404D01*
X469307Y181505D01*
X469307Y181505D01*
Y181505D01*
X469565Y181612D01*
X469934Y181838D01*
X469936Y181835D01*
X470253Y182095D01*
X470520Y182421D01*
X470719Y182793D01*
X470841Y183196D01*
X470882Y183616D01*
X470879Y183694D01*
X470884Y183742D01*
X470876Y183828D01*
X470832Y184273D01*
X470677Y184783D01*
X470426Y185253D01*
X470088Y185665D01*
X469676Y186003D01*
X469387Y186157D01*
X469387Y186158D01*
X469196Y186275D01*
X469077Y186325D01*
X468955Y186380D01*
X468860Y186427D01*
X468734Y186470D01*
X468734Y186470D01*
X468359Y186598D01*
X468359Y186597D01*
X467956Y186713D01*
X467956Y186714D01*
X467826Y186751D01*
X467527Y186802D01*
X467521Y186810D01*
X467055Y186879D01*
X467054Y186879D01*
X467054Y186880D01*
X466559Y186945D01*
Y186945D01*
X466555Y186942D01*
X466256Y186977D01*
X466165Y186981D01*
X466032Y186988D01*
X465018Y187024D01*
X464915Y187028D01*
D02*
G37*
G36*
X407804Y193719D02*
X407804Y193719D01*
X407804Y193719D01*
D01*
D02*
G37*
G36*
X440572Y322710D02*
X440189D01*
X440111Y322704D01*
X440039Y322699D01*
X440011Y322693D01*
X439989D01*
X439978Y322688D01*
X439972D01*
X439889Y322671D01*
X439823Y322643D01*
X439795Y322632D01*
X439773Y322621D01*
X439762Y322616D01*
X439756Y322610D01*
X439717Y322582D01*
X439684Y322554D01*
X439628Y322493D01*
X439606Y322466D01*
X439590Y322444D01*
X439584Y322427D01*
X439578Y322421D01*
X439556Y322371D01*
X439534Y322316D01*
X439523Y322266D01*
X439517Y322216D01*
X439512Y322171D01*
X439506Y322138D01*
Y322116D01*
Y322105D01*
X439512Y322005D01*
X439517Y321961D01*
X439529Y321922D01*
X439534Y321888D01*
X439545Y321866D01*
X439551Y321850D01*
Y321844D01*
X439590Y321761D01*
X439634Y321700D01*
X439651Y321672D01*
X439667Y321655D01*
X439678Y321644D01*
X439684Y321639D01*
X439750Y321583D01*
X439817Y321539D01*
X439845Y321528D01*
X439867Y321517D01*
X439884Y321505D01*
X439889D01*
X439939Y321489D01*
X439989Y321478D01*
X440039Y321472D01*
X440089Y321467D01*
X440133Y321461D01*
X440572D01*
Y322710D01*
D02*
G37*
G36*
X434872Y322699D02*
X434867D01*
Y320995D01*
X435877D01*
X434872Y322699D01*
D02*
G37*
G36*
X440494Y111713D02*
X440111D01*
X440034Y111707D01*
X439961Y111702D01*
X439934Y111696D01*
X439912D01*
X439900Y111690D01*
X439895D01*
X439812Y111674D01*
X439745Y111646D01*
X439717Y111635D01*
X439695Y111624D01*
X439684Y111618D01*
X439678Y111613D01*
X439640Y111585D01*
X439606Y111557D01*
X439551Y111496D01*
X439529Y111469D01*
X439512Y111446D01*
X439506Y111430D01*
X439501Y111424D01*
X439479Y111374D01*
X439456Y111319D01*
X439445Y111269D01*
X439440Y111219D01*
X439434Y111174D01*
X439429Y111141D01*
Y111119D01*
Y111108D01*
X439434Y111008D01*
X439440Y110963D01*
X439451Y110925D01*
X439456Y110891D01*
X439467Y110869D01*
X439473Y110852D01*
Y110847D01*
X439512Y110764D01*
X439556Y110703D01*
X439573Y110675D01*
X439590Y110658D01*
X439601Y110647D01*
X439606Y110642D01*
X439673Y110586D01*
X439739Y110542D01*
X439767Y110530D01*
X439789Y110519D01*
X439806Y110508D01*
X439812D01*
X439861Y110492D01*
X439912Y110481D01*
X439961Y110475D01*
X440011Y110469D01*
X440056Y110464D01*
X440494D01*
Y111713D01*
D02*
G37*
G36*
X97005Y174699D02*
X96622D01*
X96545Y174693D01*
X96473Y174688D01*
X96445Y174682D01*
X96423D01*
X96412Y174677D01*
X96406D01*
X96323Y174660D01*
X96256Y174632D01*
X96228Y174621D01*
X96206Y174610D01*
X96195Y174604D01*
X96189Y174599D01*
X96151Y174571D01*
X96117Y174543D01*
X96062Y174482D01*
X96040Y174455D01*
X96023Y174432D01*
X96017Y174416D01*
X96012Y174410D01*
X95990Y174360D01*
X95968Y174305D01*
X95956Y174255D01*
X95951Y174205D01*
X95945Y174160D01*
X95940Y174127D01*
Y174105D01*
Y174094D01*
X95945Y173994D01*
X95951Y173950D01*
X95962Y173911D01*
X95968Y173877D01*
X95979Y173855D01*
X95984Y173839D01*
Y173833D01*
X96023Y173750D01*
X96067Y173689D01*
X96084Y173661D01*
X96101Y173644D01*
X96112Y173633D01*
X96117Y173628D01*
X96184Y173572D01*
X96250Y173528D01*
X96278Y173517D01*
X96301Y173505D01*
X96317Y173495D01*
X96323D01*
X96373Y173478D01*
X96423Y173467D01*
X96473Y173461D01*
X96522Y173456D01*
X96567Y173450D01*
X97005D01*
Y174699D01*
D02*
G37*
G36*
X30039Y264511D02*
X28790D01*
Y264128D01*
X28796Y264050D01*
X28801Y263978D01*
X28807Y263950D01*
Y263928D01*
X28812Y263917D01*
Y263912D01*
X28829Y263828D01*
X28857Y263762D01*
X28868Y263734D01*
X28879Y263712D01*
X28884Y263701D01*
X28890Y263695D01*
X28918Y263656D01*
X28945Y263623D01*
X29006Y263567D01*
X29034Y263545D01*
X29057Y263528D01*
X29073Y263523D01*
X29079Y263517D01*
X29129Y263495D01*
X29184Y263473D01*
X29234Y263462D01*
X29284Y263456D01*
X29328Y263451D01*
X29362Y263445D01*
X29384D01*
X29395D01*
X29495Y263451D01*
X29539Y263456D01*
X29578Y263468D01*
X29612Y263473D01*
X29634Y263484D01*
X29650Y263490D01*
X29656D01*
X29739Y263528D01*
X29800Y263573D01*
X29828Y263590D01*
X29845Y263606D01*
X29856Y263617D01*
X29861Y263623D01*
X29917Y263689D01*
X29961Y263756D01*
X29972Y263784D01*
X29983Y263806D01*
X29994Y263823D01*
Y263828D01*
X30011Y263878D01*
X30022Y263928D01*
X30028Y263978D01*
X30033Y264028D01*
X30039Y264072D01*
Y264511D01*
D02*
G37*
G36*
X349058Y119713D02*
X348675D01*
X348597Y119707D01*
X348525Y119702D01*
X348498Y119696D01*
X348475D01*
X348464Y119691D01*
X348459D01*
X348375Y119674D01*
X348309Y119646D01*
X348281Y119635D01*
X348259Y119624D01*
X348248Y119618D01*
X348242Y119613D01*
X348203Y119585D01*
X348170Y119557D01*
X348115Y119496D01*
X348092Y119468D01*
X348076Y119446D01*
X348070Y119430D01*
X348065Y119424D01*
X348042Y119374D01*
X348020Y119319D01*
X348009Y119269D01*
X348004Y119219D01*
X347998Y119174D01*
X347992Y119141D01*
Y119119D01*
Y119108D01*
X347998Y119008D01*
X348004Y118963D01*
X348015Y118925D01*
X348020Y118891D01*
X348031Y118869D01*
X348037Y118852D01*
Y118847D01*
X348076Y118764D01*
X348120Y118703D01*
X348137Y118675D01*
X348153Y118658D01*
X348165Y118647D01*
X348170Y118641D01*
X348237Y118586D01*
X348303Y118542D01*
X348331Y118530D01*
X348353Y118519D01*
X348370Y118508D01*
X348375D01*
X348425Y118492D01*
X348475Y118481D01*
X348525Y118475D01*
X348575Y118470D01*
X348620Y118464D01*
X349058D01*
Y119713D01*
D02*
G37*
G36*
X343636Y119757D02*
X343602D01*
X343519Y119752D01*
X343458Y119740D01*
X343430Y119735D01*
X343414Y119729D01*
X343403Y119724D01*
X343397D01*
X343331Y119696D01*
X343281Y119668D01*
X343258Y119652D01*
X343242Y119641D01*
X343236Y119635D01*
X343231Y119629D01*
X343181Y119574D01*
X343142Y119518D01*
X343131Y119496D01*
X343120Y119474D01*
X343108Y119463D01*
Y119457D01*
X343070Y119380D01*
X343047Y119296D01*
X343036Y119263D01*
X343031Y119235D01*
X343025Y119219D01*
Y119213D01*
X343003Y119102D01*
X342992Y119052D01*
X342986Y119002D01*
X342981Y118958D01*
Y118925D01*
X342975Y118897D01*
Y118891D01*
X342964Y118747D01*
X342959Y118680D01*
X342953Y118614D01*
Y118558D01*
Y118514D01*
Y118486D01*
Y118475D01*
Y118353D01*
X342959Y118292D01*
Y118242D01*
Y118203D01*
X342964Y118170D01*
Y118148D01*
Y118142D01*
X342975Y118031D01*
X342981Y117981D01*
X342992Y117937D01*
X342997Y117898D01*
X343003Y117870D01*
X343009Y117853D01*
Y117848D01*
X343031Y117748D01*
X343047Y117709D01*
X343058Y117670D01*
X343070Y117642D01*
X343075Y117620D01*
X343086Y117604D01*
Y117598D01*
X343125Y117520D01*
X343158Y117459D01*
X343175Y117437D01*
X343192Y117420D01*
X343197Y117409D01*
X343203Y117404D01*
X343258Y117354D01*
X343319Y117315D01*
X343342Y117298D01*
X343364Y117293D01*
X343375Y117282D01*
X343380D01*
X343458Y117260D01*
X343536Y117248D01*
X343569Y117243D01*
X343619D01*
X343680Y117248D01*
X343736Y117254D01*
X343786Y117265D01*
X343830Y117276D01*
X343863Y117287D01*
X343891Y117298D01*
X343908Y117309D01*
X343913D01*
X343958Y117337D01*
X343991Y117376D01*
X344057Y117448D01*
X344080Y117482D01*
X344096Y117509D01*
X344108Y117526D01*
X344113Y117532D01*
X344141Y117593D01*
X344163Y117659D01*
X344180Y117726D01*
X344196Y117787D01*
X344207Y117842D01*
X344218Y117887D01*
X344224Y117914D01*
Y117926D01*
X344235Y118020D01*
X344241Y118120D01*
X344252Y118220D01*
Y118314D01*
X344257Y118397D01*
Y118464D01*
Y118486D01*
Y118503D01*
Y118514D01*
Y118519D01*
Y118614D01*
X344252Y118703D01*
Y118786D01*
X344246Y118858D01*
X344241Y118919D01*
Y118963D01*
X344235Y118991D01*
Y119002D01*
X344224Y119086D01*
X344207Y119158D01*
X344191Y119230D01*
X344174Y119285D01*
X344157Y119330D01*
X344146Y119369D01*
X344141Y119391D01*
X344135Y119396D01*
X344108Y119457D01*
X344074Y119507D01*
X344041Y119552D01*
X344007Y119591D01*
X343980Y119618D01*
X343958Y119641D01*
X343941Y119652D01*
X343935Y119657D01*
X343885Y119691D01*
X343830Y119713D01*
X343774Y119735D01*
X343719Y119746D01*
X343674Y119752D01*
X343636Y119757D01*
D02*
G37*
G36*
X344390Y244768D02*
X344307D01*
X344257Y244757D01*
X344212Y244752D01*
X344174Y244740D01*
X344146Y244729D01*
X344124Y244718D01*
X344107Y244713D01*
X344101Y244707D01*
X344057Y244685D01*
X344024Y244657D01*
X343963Y244591D01*
X343940Y244563D01*
X343918Y244541D01*
X343913Y244524D01*
X343907Y244518D01*
X343879Y244468D01*
X343852Y244413D01*
X343829Y244357D01*
X343813Y244302D01*
X343802Y244252D01*
X343791Y244213D01*
X343785Y244191D01*
Y244180D01*
X343768Y244097D01*
X343757Y244008D01*
X343752Y243925D01*
X343746Y243841D01*
X343741Y243769D01*
Y243714D01*
Y243691D01*
Y243675D01*
Y243669D01*
Y243664D01*
X343841Y243603D01*
X343885Y243581D01*
X343935Y243558D01*
X343974Y243542D01*
X344007Y243531D01*
X344029Y243519D01*
X344035D01*
X344157Y243492D01*
X344218Y243481D01*
X344268Y243475D01*
X344312D01*
X344346Y243470D01*
X344434D01*
X344490Y243475D01*
X344534Y243486D01*
X344573Y243492D01*
X344606Y243503D01*
X344629Y243508D01*
X344645Y243514D01*
X344651D01*
X344723Y243553D01*
X344778Y243592D01*
X344795Y243608D01*
X344812Y243625D01*
X344817Y243630D01*
X344823Y243636D01*
X344867Y243703D01*
X344895Y243769D01*
X344906Y243797D01*
X344912Y243819D01*
X344917Y243830D01*
Y243836D01*
X344934Y243925D01*
X344939Y244008D01*
X344945Y244047D01*
Y244074D01*
Y244091D01*
Y244097D01*
X344939Y244191D01*
X344934Y244230D01*
X344928Y244269D01*
X344923Y244296D01*
X344917Y244319D01*
X344912Y244335D01*
Y244341D01*
X344884Y244424D01*
X344867Y244463D01*
X344851Y244496D01*
X344834Y244518D01*
X344823Y244541D01*
X344812Y244552D01*
Y244557D01*
X344751Y244618D01*
X344695Y244668D01*
X344668Y244685D01*
X344645Y244696D01*
X344634Y244707D01*
X344629D01*
X344584Y244729D01*
X344540Y244740D01*
X344451Y244763D01*
X344418D01*
X344390Y244768D01*
D02*
G37*
G36*
X347270Y244713D02*
X346887D01*
X346810Y244707D01*
X346738Y244702D01*
X346710Y244696D01*
X346688D01*
X346677Y244690D01*
X346671D01*
X346588Y244674D01*
X346521Y244646D01*
X346493Y244635D01*
X346471Y244624D01*
X346460Y244618D01*
X346455Y244613D01*
X346416Y244585D01*
X346382Y244557D01*
X346327Y244496D01*
X346305Y244468D01*
X346288Y244446D01*
X346283Y244430D01*
X346277Y244424D01*
X346255Y244374D01*
X346233Y244319D01*
X346221Y244269D01*
X346216Y244219D01*
X346210Y244174D01*
X346205Y244141D01*
Y244119D01*
Y244108D01*
X346210Y244008D01*
X346216Y243963D01*
X346227Y243925D01*
X346233Y243891D01*
X346244Y243869D01*
X346249Y243852D01*
Y243847D01*
X346288Y243764D01*
X346333Y243703D01*
X346349Y243675D01*
X346366Y243658D01*
X346377Y243647D01*
X346382Y243641D01*
X346449Y243586D01*
X346516Y243542D01*
X346543Y243531D01*
X346566Y243519D01*
X346582Y243508D01*
X346588D01*
X346638Y243492D01*
X346688Y243481D01*
X346738Y243475D01*
X346788Y243470D01*
X346832Y243464D01*
X347270D01*
Y244713D01*
D02*
G37*
G36*
X30036Y180795D02*
X28787D01*
Y180412D01*
X28793Y180335D01*
X28798Y180263D01*
X28804Y180235D01*
Y180213D01*
X28809Y180202D01*
Y180196D01*
X28826Y180113D01*
X28854Y180046D01*
X28865Y180018D01*
X28876Y179996D01*
X28882Y179985D01*
X28887Y179980D01*
X28915Y179941D01*
X28943Y179907D01*
X29004Y179852D01*
X29032Y179830D01*
X29054Y179813D01*
X29070Y179807D01*
X29076Y179802D01*
X29126Y179780D01*
X29181Y179758D01*
X29231Y179746D01*
X29281Y179741D01*
X29326Y179735D01*
X29359Y179730D01*
X29381D01*
X29392D01*
X29492Y179735D01*
X29537Y179741D01*
X29575Y179752D01*
X29609Y179758D01*
X29631Y179769D01*
X29648Y179774D01*
X29653D01*
X29736Y179813D01*
X29797Y179858D01*
X29825Y179874D01*
X29842Y179891D01*
X29853Y179902D01*
X29858Y179907D01*
X29914Y179974D01*
X29958Y180041D01*
X29969Y180068D01*
X29981Y180091D01*
X29992Y180107D01*
Y180113D01*
X30008Y180163D01*
X30019Y180213D01*
X30025Y180263D01*
X30031Y180313D01*
X30036Y180357D01*
Y180795D01*
D02*
G37*
G36*
X29198Y178370D02*
X29181D01*
X29170D01*
X29165D01*
X29093Y178365D01*
X29032Y178348D01*
X28976Y178326D01*
X28932Y178304D01*
X28898Y178281D01*
X28871Y178259D01*
X28854Y178242D01*
X28848Y178237D01*
X28809Y178181D01*
X28776Y178120D01*
X28754Y178054D01*
X28743Y177987D01*
X28732Y177932D01*
X28726Y177887D01*
Y177843D01*
X28732Y177754D01*
X28737Y177715D01*
X28743Y177682D01*
X28749Y177654D01*
X28754Y177632D01*
X28760Y177621D01*
Y177615D01*
X28787Y177549D01*
X28815Y177493D01*
X28837Y177460D01*
X28843Y177454D01*
X28848Y177449D01*
X28893Y177404D01*
X28937Y177371D01*
X28971Y177354D01*
X28982Y177349D01*
X28987D01*
X29048Y177327D01*
X29104Y177316D01*
X29131Y177310D01*
X29148D01*
X29159D01*
X29165D01*
X29231Y177316D01*
X29292Y177332D01*
X29353Y177354D01*
X29403Y177377D01*
X29442Y177399D01*
X29476Y177421D01*
X29498Y177438D01*
X29503Y177443D01*
X29559Y177493D01*
X29609Y177554D01*
X29653Y177615D01*
X29697Y177676D01*
X29731Y177732D01*
X29753Y177776D01*
X29770Y177804D01*
X29775Y177810D01*
Y177815D01*
X29725Y177915D01*
X29697Y177959D01*
X29681Y177993D01*
X29659Y178026D01*
X29648Y178048D01*
X29642Y178059D01*
X29636Y178065D01*
X29581Y178137D01*
X29537Y178192D01*
X29520Y178215D01*
X29503Y178231D01*
X29498Y178237D01*
X29492Y178242D01*
X29437Y178287D01*
X29392Y178315D01*
X29353Y178337D01*
X29348Y178342D01*
X29342D01*
X29281Y178359D01*
X29220Y178365D01*
X29198Y178370D01*
D02*
G37*
G36*
X30830Y178470D02*
X30802D01*
X30791D01*
X30713Y178464D01*
X30652Y178453D01*
X30630Y178448D01*
X30613Y178442D01*
X30602Y178437D01*
X30597D01*
X30536Y178403D01*
X30480Y178365D01*
X30458Y178348D01*
X30441Y178337D01*
X30436Y178331D01*
X30430Y178326D01*
X30375Y178265D01*
X30325Y178204D01*
X30308Y178176D01*
X30291Y178154D01*
X30286Y178142D01*
X30280Y178137D01*
X30225Y178048D01*
X30175Y177959D01*
X30158Y177926D01*
X30141Y177898D01*
X30136Y177876D01*
X30130Y177871D01*
X30158Y177810D01*
X30186Y177760D01*
X30214Y177710D01*
X30236Y177671D01*
X30253Y177632D01*
X30269Y177610D01*
X30275Y177593D01*
X30280Y177587D01*
X30336Y177499D01*
X30358Y177465D01*
X30380Y177432D01*
X30402Y177410D01*
X30419Y177393D01*
X30425Y177382D01*
X30430Y177377D01*
X30491Y177321D01*
X30547Y177282D01*
X30569Y177271D01*
X30586Y177260D01*
X30597Y177254D01*
X30602D01*
X30669Y177227D01*
X30735Y177216D01*
X30763Y177210D01*
X30785D01*
X30796D01*
X30802D01*
X30880Y177216D01*
X30946Y177232D01*
X31007Y177260D01*
X31057Y177288D01*
X31096Y177321D01*
X31124Y177343D01*
X31141Y177366D01*
X31146Y177371D01*
X31190Y177438D01*
X31218Y177510D01*
X31240Y177587D01*
X31257Y177660D01*
X31268Y177732D01*
X31274Y177787D01*
Y177837D01*
X31268Y177948D01*
X31257Y178043D01*
X31235Y178126D01*
X31213Y178192D01*
X31190Y178248D01*
X31168Y178287D01*
X31157Y178309D01*
X31152Y178315D01*
X31102Y178365D01*
X31041Y178403D01*
X30980Y178431D01*
X30924Y178448D01*
X30869Y178459D01*
X30830Y178470D01*
D02*
G37*
G36*
X30028Y190284D02*
X28779D01*
Y189901D01*
X28784Y189824D01*
X28790Y189752D01*
X28796Y189724D01*
Y189702D01*
X28801Y189690D01*
Y189685D01*
X28818Y189602D01*
X28846Y189535D01*
X28857Y189507D01*
X28868Y189485D01*
X28873Y189474D01*
X28879Y189469D01*
X28907Y189430D01*
X28934Y189396D01*
X28995Y189341D01*
X29023Y189319D01*
X29045Y189302D01*
X29062Y189296D01*
X29068Y189291D01*
X29118Y189269D01*
X29173Y189246D01*
X29223Y189235D01*
X29273Y189230D01*
X29317Y189224D01*
X29351Y189219D01*
X29373D01*
X29384D01*
X29484Y189224D01*
X29528Y189230D01*
X29567Y189241D01*
X29600Y189246D01*
X29623Y189258D01*
X29639Y189263D01*
X29645D01*
X29728Y189302D01*
X29789Y189346D01*
X29817Y189363D01*
X29833Y189380D01*
X29845Y189391D01*
X29850Y189396D01*
X29906Y189463D01*
X29950Y189530D01*
X29961Y189557D01*
X29972Y189579D01*
X29983Y189596D01*
Y189602D01*
X30000Y189652D01*
X30011Y189702D01*
X30017Y189752D01*
X30022Y189802D01*
X30028Y189846D01*
Y190284D01*
D02*
G37*
G36*
X30036Y201798D02*
X28787D01*
Y201415D01*
X28793Y201338D01*
X28798Y201265D01*
X28804Y201238D01*
Y201216D01*
X28809Y201204D01*
Y201199D01*
X28826Y201116D01*
X28854Y201049D01*
X28865Y201021D01*
X28876Y200999D01*
X28882Y200988D01*
X28887Y200982D01*
X28915Y200943D01*
X28943Y200910D01*
X29004Y200855D01*
X29032Y200833D01*
X29054Y200816D01*
X29070Y200810D01*
X29076Y200805D01*
X29126Y200782D01*
X29181Y200760D01*
X29231Y200749D01*
X29281Y200744D01*
X29326Y200738D01*
X29359Y200733D01*
X29381D01*
X29392D01*
X29492Y200738D01*
X29537Y200744D01*
X29575Y200755D01*
X29609Y200760D01*
X29631Y200771D01*
X29648Y200777D01*
X29653D01*
X29736Y200816D01*
X29797Y200860D01*
X29825Y200877D01*
X29842Y200894D01*
X29853Y200905D01*
X29858Y200910D01*
X29914Y200977D01*
X29958Y201043D01*
X29969Y201071D01*
X29981Y201093D01*
X29992Y201110D01*
Y201116D01*
X30008Y201166D01*
X30019Y201216D01*
X30025Y201265D01*
X30031Y201315D01*
X30036Y201360D01*
Y201798D01*
D02*
G37*
G36*
X30291Y199412D02*
X30230D01*
X30208D01*
X30191D01*
X30186D01*
X30180D01*
X30147Y199367D01*
X30125Y199323D01*
X30108Y199290D01*
X30103Y199284D01*
Y199278D01*
X30075Y199223D01*
X30053Y199168D01*
X30047Y199145D01*
X30042Y199134D01*
X30036Y199123D01*
Y199118D01*
X30019Y199056D01*
X30003Y199001D01*
X29997Y198979D01*
Y198962D01*
X29992Y198951D01*
Y198945D01*
X29981Y198879D01*
X29975Y198823D01*
Y198712D01*
X29981Y198662D01*
X29986Y198618D01*
X29997Y198579D01*
X30003Y198546D01*
X30014Y198524D01*
X30019Y198513D01*
Y198507D01*
X30058Y198435D01*
X30097Y198374D01*
X30114Y198357D01*
X30130Y198341D01*
X30136Y198335D01*
X30141Y198329D01*
X30203Y198285D01*
X30269Y198257D01*
X30297Y198246D01*
X30314Y198241D01*
X30330Y198235D01*
X30336D01*
X30419Y198219D01*
X30502Y198213D01*
X30536Y198207D01*
X30563D01*
X30580D01*
X30586D01*
X30680Y198213D01*
X30719Y198219D01*
X30758Y198224D01*
X30791Y198235D01*
X30813Y198241D01*
X30830Y198246D01*
X30835D01*
X30918Y198280D01*
X30957Y198296D01*
X30991Y198313D01*
X31018Y198329D01*
X31041Y198346D01*
X31052Y198352D01*
X31057Y198357D01*
X31118Y198418D01*
X31168Y198474D01*
X31185Y198502D01*
X31196Y198524D01*
X31207Y198535D01*
Y198540D01*
X31240Y198629D01*
X31257Y198712D01*
Y198751D01*
X31263Y198779D01*
Y198807D01*
X31257Y198912D01*
X31246Y198957D01*
X31235Y198995D01*
X31229Y199029D01*
X31218Y199051D01*
X31213Y199068D01*
Y199073D01*
X31190Y199112D01*
X31163Y199151D01*
X31102Y199206D01*
X31074Y199229D01*
X31057Y199245D01*
X31041Y199256D01*
X31035Y199262D01*
X30985Y199290D01*
X30930Y199312D01*
X30874Y199328D01*
X30819Y199345D01*
X30774Y199356D01*
X30735Y199367D01*
X30713Y199373D01*
X30702D01*
X30619Y199384D01*
X30530Y199395D01*
X30447Y199401D01*
X30364Y199406D01*
X30291Y199412D01*
D02*
G37*
G36*
X30014Y211254D02*
X28765D01*
Y210871D01*
X28771Y210793D01*
X28776Y210721D01*
X28782Y210693D01*
Y210671D01*
X28787Y210660D01*
Y210654D01*
X28804Y210571D01*
X28832Y210505D01*
X28843Y210477D01*
X28854Y210455D01*
X28859Y210443D01*
X28865Y210438D01*
X28893Y210399D01*
X28921Y210366D01*
X28982Y210310D01*
X29009Y210288D01*
X29032Y210272D01*
X29048Y210266D01*
X29054Y210260D01*
X29104Y210238D01*
X29159Y210216D01*
X29209Y210205D01*
X29259Y210199D01*
X29304Y210194D01*
X29337Y210188D01*
X29359D01*
X29370D01*
X29470Y210194D01*
X29514Y210199D01*
X29553Y210210D01*
X29586Y210216D01*
X29609Y210227D01*
X29625Y210233D01*
X29631D01*
X29714Y210272D01*
X29775Y210316D01*
X29803Y210332D01*
X29820Y210349D01*
X29831Y210360D01*
X29836Y210366D01*
X29892Y210432D01*
X29936Y210499D01*
X29947Y210527D01*
X29958Y210549D01*
X29969Y210566D01*
Y210571D01*
X29986Y210621D01*
X29997Y210671D01*
X30003Y210721D01*
X30008Y210771D01*
X30014Y210815D01*
Y211254D01*
D02*
G37*
G36*
X30036Y222826D02*
X28787D01*
Y222443D01*
X28793Y222365D01*
X28798Y222293D01*
X28804Y222265D01*
Y222243D01*
X28809Y222232D01*
Y222227D01*
X28826Y222143D01*
X28854Y222077D01*
X28865Y222049D01*
X28876Y222027D01*
X28882Y222016D01*
X28887Y222010D01*
X28915Y221971D01*
X28943Y221938D01*
X29004Y221883D01*
X29032Y221860D01*
X29054Y221844D01*
X29070Y221838D01*
X29076Y221832D01*
X29126Y221810D01*
X29181Y221788D01*
X29231Y221777D01*
X29281Y221772D01*
X29326Y221766D01*
X29359Y221760D01*
X29381D01*
X29392D01*
X29492Y221766D01*
X29537Y221772D01*
X29575Y221782D01*
X29609Y221788D01*
X29631Y221799D01*
X29648Y221805D01*
X29653D01*
X29736Y221844D01*
X29797Y221888D01*
X29825Y221905D01*
X29842Y221921D01*
X29853Y221932D01*
X29858Y221938D01*
X29914Y222005D01*
X29958Y222071D01*
X29969Y222099D01*
X29981Y222121D01*
X29992Y222138D01*
Y222143D01*
X30008Y222193D01*
X30019Y222243D01*
X30025Y222293D01*
X30031Y222343D01*
X30036Y222388D01*
Y222826D01*
D02*
G37*
G36*
X30502Y220623D02*
X28798Y219618D01*
Y219613D01*
X30502D01*
Y220623D01*
D02*
G37*
G36*
X30036Y232248D02*
X28787D01*
Y231865D01*
X28793Y231788D01*
X28798Y231715D01*
X28804Y231688D01*
Y231665D01*
X28809Y231654D01*
Y231649D01*
X28826Y231566D01*
X28854Y231499D01*
X28865Y231471D01*
X28876Y231449D01*
X28882Y231438D01*
X28887Y231432D01*
X28915Y231394D01*
X28943Y231360D01*
X29004Y231305D01*
X29032Y231282D01*
X29054Y231266D01*
X29070Y231260D01*
X29076Y231255D01*
X29126Y231233D01*
X29181Y231210D01*
X29231Y231199D01*
X29281Y231194D01*
X29326Y231188D01*
X29359Y231183D01*
X29381D01*
X29392D01*
X29492Y231188D01*
X29537Y231194D01*
X29575Y231205D01*
X29609Y231210D01*
X29631Y231222D01*
X29648Y231227D01*
X29653D01*
X29736Y231266D01*
X29797Y231310D01*
X29825Y231327D01*
X29842Y231344D01*
X29853Y231355D01*
X29858Y231360D01*
X29914Y231427D01*
X29958Y231493D01*
X29969Y231521D01*
X29981Y231543D01*
X29992Y231560D01*
Y231566D01*
X30008Y231615D01*
X30019Y231665D01*
X30025Y231715D01*
X30031Y231765D01*
X30036Y231810D01*
Y232248D01*
D02*
G37*
G36*
X30050Y243759D02*
X28801D01*
Y243376D01*
X28807Y243299D01*
X28812Y243227D01*
X28818Y243199D01*
Y243177D01*
X28823Y243165D01*
Y243160D01*
X28840Y243077D01*
X28868Y243010D01*
X28879Y242982D01*
X28890Y242960D01*
X28896Y242949D01*
X28901Y242944D01*
X28929Y242905D01*
X28957Y242871D01*
X29018Y242816D01*
X29045Y242794D01*
X29068Y242777D01*
X29084Y242772D01*
X29090Y242766D01*
X29140Y242744D01*
X29195Y242722D01*
X29245Y242710D01*
X29295Y242705D01*
X29340Y242699D01*
X29373Y242694D01*
X29395D01*
X29406D01*
X29506Y242699D01*
X29550Y242705D01*
X29589Y242716D01*
X29623Y242722D01*
X29645Y242733D01*
X29662Y242738D01*
X29667D01*
X29750Y242777D01*
X29811Y242821D01*
X29839Y242838D01*
X29856Y242855D01*
X29867Y242866D01*
X29872Y242871D01*
X29928Y242938D01*
X29972Y243005D01*
X29983Y243032D01*
X29994Y243055D01*
X30005Y243071D01*
Y243077D01*
X30022Y243127D01*
X30033Y243177D01*
X30039Y243227D01*
X30044Y243277D01*
X30050Y243321D01*
Y243759D01*
D02*
G37*
G36*
X30039Y253265D02*
X28790D01*
Y252882D01*
X28796Y252804D01*
X28801Y252732D01*
X28807Y252704D01*
Y252682D01*
X28812Y252671D01*
Y252665D01*
X28829Y252582D01*
X28857Y252516D01*
X28868Y252488D01*
X28879Y252466D01*
X28884Y252455D01*
X28890Y252449D01*
X28918Y252410D01*
X28945Y252377D01*
X29006Y252321D01*
X29034Y252299D01*
X29057Y252283D01*
X29073Y252277D01*
X29079Y252272D01*
X29129Y252249D01*
X29184Y252227D01*
X29234Y252216D01*
X29284Y252210D01*
X29328Y252205D01*
X29362Y252199D01*
X29384D01*
X29395D01*
X29495Y252205D01*
X29539Y252210D01*
X29578Y252221D01*
X29612Y252227D01*
X29634Y252238D01*
X29650Y252244D01*
X29656D01*
X29739Y252283D01*
X29800Y252327D01*
X29828Y252344D01*
X29845Y252360D01*
X29856Y252371D01*
X29861Y252377D01*
X29917Y252444D01*
X29961Y252510D01*
X29972Y252538D01*
X29983Y252560D01*
X29994Y252577D01*
Y252582D01*
X30011Y252632D01*
X30022Y252682D01*
X30028Y252732D01*
X30033Y252782D01*
X30039Y252826D01*
Y253265D01*
D02*
G37*
G36*
X1824Y178769D02*
X1397D01*
X1363Y178764D01*
X1313D01*
X1291Y178758D01*
X1280D01*
X1225Y178753D01*
X1186Y178747D01*
X1158Y178742D01*
X1147Y178736D01*
X1080Y178714D01*
X1019Y178686D01*
X975Y178653D01*
X936Y178625D01*
X908Y178597D01*
X886Y178575D01*
X875Y178558D01*
X869Y178553D01*
X841Y178503D01*
X819Y178453D01*
X808Y178397D01*
X797Y178347D01*
X792Y178309D01*
X786Y178275D01*
Y178247D01*
Y178242D01*
X792Y178164D01*
X803Y178098D01*
X814Y178070D01*
X819Y178048D01*
X825Y178037D01*
Y178031D01*
X858Y177964D01*
X897Y177915D01*
X914Y177892D01*
X930Y177876D01*
X936Y177870D01*
X941Y177865D01*
X1003Y177820D01*
X1069Y177787D01*
X1097Y177776D01*
X1119Y177765D01*
X1136Y177759D01*
X1141D01*
X1236Y177737D01*
X1324Y177726D01*
X1363Y177720D01*
X1824D01*
Y178769D01*
D02*
G37*
G36*
X-3709Y178830D02*
X-3754D01*
X-3843Y178825D01*
X-3881Y178819D01*
X-3915Y178814D01*
X-3943Y178808D01*
X-3965Y178803D01*
X-3976Y178797D01*
X-3981D01*
X-4048Y178769D01*
X-4104Y178742D01*
X-4137Y178719D01*
X-4142Y178714D01*
X-4148Y178708D01*
X-4192Y178664D01*
X-4226Y178619D01*
X-4242Y178586D01*
X-4248Y178575D01*
Y178569D01*
X-4270Y178508D01*
X-4281Y178453D01*
X-4287Y178425D01*
Y178409D01*
Y178397D01*
Y178392D01*
X-4281Y178325D01*
X-4264Y178264D01*
X-4242Y178203D01*
X-4220Y178153D01*
X-4198Y178114D01*
X-4176Y178081D01*
X-4159Y178059D01*
X-4154Y178053D01*
X-4104Y177998D01*
X-4042Y177948D01*
X-3981Y177903D01*
X-3920Y177859D01*
X-3865Y177826D01*
X-3821Y177804D01*
X-3793Y177787D01*
X-3787Y177781D01*
X-3782D01*
X-3682Y177831D01*
X-3637Y177859D01*
X-3604Y177876D01*
X-3571Y177898D01*
X-3548Y177909D01*
X-3537Y177915D01*
X-3532Y177920D01*
X-3460Y177976D01*
X-3404Y178020D01*
X-3382Y178037D01*
X-3365Y178053D01*
X-3360Y178059D01*
X-3354Y178064D01*
X-3310Y178120D01*
X-3282Y178164D01*
X-3260Y178203D01*
X-3254Y178209D01*
Y178214D01*
X-3238Y178275D01*
X-3232Y178336D01*
X-3227Y178358D01*
Y178375D01*
Y178386D01*
Y178392D01*
X-3232Y178464D01*
X-3249Y178525D01*
X-3271Y178580D01*
X-3293Y178625D01*
X-3315Y178658D01*
X-3338Y178686D01*
X-3354Y178703D01*
X-3360Y178708D01*
X-3415Y178747D01*
X-3476Y178780D01*
X-3543Y178803D01*
X-3610Y178814D01*
X-3665Y178825D01*
X-3709Y178830D01*
D02*
G37*
G36*
X-3726Y177426D02*
X-3787Y177398D01*
X-3837Y177371D01*
X-3887Y177343D01*
X-3926Y177321D01*
X-3965Y177304D01*
X-3987Y177287D01*
X-4004Y177282D01*
X-4009Y177276D01*
X-4098Y177221D01*
X-4131Y177199D01*
X-4165Y177176D01*
X-4187Y177154D01*
X-4203Y177137D01*
X-4214Y177132D01*
X-4220Y177126D01*
X-4276Y177065D01*
X-4314Y177010D01*
X-4326Y176988D01*
X-4337Y176971D01*
X-4342Y176960D01*
Y176954D01*
X-4370Y176888D01*
X-4381Y176821D01*
X-4387Y176793D01*
Y176771D01*
Y176760D01*
Y176755D01*
X-4381Y176677D01*
X-4364Y176610D01*
X-4337Y176549D01*
X-4309Y176499D01*
X-4276Y176460D01*
X-4253Y176433D01*
X-4231Y176416D01*
X-4226Y176410D01*
X-4159Y176366D01*
X-4087Y176338D01*
X-4009Y176316D01*
X-3937Y176300D01*
X-3865Y176288D01*
X-3809Y176283D01*
X-3759D01*
X-3648Y176288D01*
X-3554Y176300D01*
X-3471Y176322D01*
X-3404Y176344D01*
X-3349Y176366D01*
X-3310Y176388D01*
X-3288Y176399D01*
X-3282Y176405D01*
X-3232Y176455D01*
X-3193Y176516D01*
X-3166Y176577D01*
X-3149Y176632D01*
X-3138Y176688D01*
X-3127Y176727D01*
Y176755D01*
Y176766D01*
X-3132Y176843D01*
X-3143Y176904D01*
X-3149Y176927D01*
X-3154Y176943D01*
X-3160Y176954D01*
Y176960D01*
X-3193Y177021D01*
X-3232Y177076D01*
X-3249Y177099D01*
X-3260Y177115D01*
X-3266Y177121D01*
X-3271Y177126D01*
X-3332Y177182D01*
X-3393Y177232D01*
X-3421Y177249D01*
X-3443Y177265D01*
X-3454Y177271D01*
X-3460Y177276D01*
X-3548Y177332D01*
X-3637Y177382D01*
X-3671Y177398D01*
X-3698Y177415D01*
X-3721Y177421D01*
X-3726Y177426D01*
D02*
G37*
G36*
X-6224Y178814D02*
X-6257D01*
X-6340Y178808D01*
X-6401Y178797D01*
X-6429Y178791D01*
X-6446Y178786D01*
X-6457Y178780D01*
X-6462D01*
X-6529Y178753D01*
X-6579Y178725D01*
X-6601Y178708D01*
X-6618Y178697D01*
X-6623Y178691D01*
X-6629Y178686D01*
X-6679Y178630D01*
X-6718Y178575D01*
X-6729Y178553D01*
X-6740Y178531D01*
X-6751Y178519D01*
Y178514D01*
X-6790Y178436D01*
X-6812Y178353D01*
X-6823Y178320D01*
X-6829Y178292D01*
X-6834Y178275D01*
Y178270D01*
X-6856Y178159D01*
X-6867Y178109D01*
X-6873Y178059D01*
X-6878Y178014D01*
Y177981D01*
X-6884Y177953D01*
Y177948D01*
X-6895Y177804D01*
X-6901Y177737D01*
X-6906Y177670D01*
Y177615D01*
Y177570D01*
Y177543D01*
Y177532D01*
Y177410D01*
X-6901Y177348D01*
Y177298D01*
Y177260D01*
X-6895Y177226D01*
Y177204D01*
Y177199D01*
X-6884Y177088D01*
X-6878Y177038D01*
X-6867Y176993D01*
X-6862Y176954D01*
X-6856Y176927D01*
X-6851Y176910D01*
Y176904D01*
X-6829Y176804D01*
X-6812Y176766D01*
X-6801Y176727D01*
X-6790Y176699D01*
X-6784Y176677D01*
X-6773Y176660D01*
Y176655D01*
X-6734Y176577D01*
X-6701Y176516D01*
X-6684Y176494D01*
X-6668Y176477D01*
X-6662Y176466D01*
X-6656Y176460D01*
X-6601Y176410D01*
X-6540Y176372D01*
X-6518Y176355D01*
X-6496Y176349D01*
X-6485Y176338D01*
X-6479D01*
X-6401Y176316D01*
X-6323Y176305D01*
X-6290Y176300D01*
X-6240D01*
X-6179Y176305D01*
X-6124Y176311D01*
X-6074Y176322D01*
X-6029Y176333D01*
X-5996Y176344D01*
X-5968Y176355D01*
X-5952Y176366D01*
X-5946D01*
X-5902Y176394D01*
X-5868Y176433D01*
X-5802Y176505D01*
X-5780Y176538D01*
X-5763Y176566D01*
X-5752Y176583D01*
X-5746Y176588D01*
X-5719Y176649D01*
X-5696Y176716D01*
X-5680Y176782D01*
X-5663Y176843D01*
X-5652Y176899D01*
X-5641Y176943D01*
X-5635Y176971D01*
Y176982D01*
X-5624Y177076D01*
X-5619Y177176D01*
X-5608Y177276D01*
Y177371D01*
X-5602Y177454D01*
Y177521D01*
Y177543D01*
Y177559D01*
Y177570D01*
Y177576D01*
Y177670D01*
X-5608Y177759D01*
Y177842D01*
X-5613Y177915D01*
X-5619Y177976D01*
Y178020D01*
X-5624Y178048D01*
Y178059D01*
X-5635Y178142D01*
X-5652Y178214D01*
X-5669Y178286D01*
X-5685Y178342D01*
X-5702Y178386D01*
X-5713Y178425D01*
X-5719Y178447D01*
X-5724Y178453D01*
X-5752Y178514D01*
X-5785Y178564D01*
X-5818Y178608D01*
X-5852Y178647D01*
X-5880Y178675D01*
X-5902Y178697D01*
X-5918Y178708D01*
X-5924Y178714D01*
X-5974Y178747D01*
X-6029Y178769D01*
X-6085Y178791D01*
X-6140Y178803D01*
X-6185Y178808D01*
X-6224Y178814D01*
D02*
G37*
%LPD*%
D10*
X442000Y299500D02*
Y319500D01*
X482000Y299500D02*
Y319500D01*
X442000D02*
X482000D01*
X442000Y299500D02*
X482000D01*
X442000Y88000D02*
Y108000D01*
X482000Y88000D02*
Y108000D01*
X442000D02*
X482000D01*
X442000Y88000D02*
X482000D01*
X69500Y165000D02*
X89500D01*
X69500D02*
Y175000D01*
X89500D01*
Y165000D02*
Y175000D01*
X32500Y245000D02*
Y265000D01*
X42500D01*
Y245000D02*
Y265000D01*
X32500Y245000D02*
X42500D01*
X330000Y166000D02*
X350000D01*
X330000Y126000D02*
X350000D01*
Y166000D01*
X330000Y126000D02*
Y166000D01*
X329000Y292000D02*
X349000D01*
X329000Y252000D02*
X349000D01*
Y292000D01*
X329000Y252000D02*
Y292000D01*
X32500Y161000D02*
Y181000D01*
X42500D01*
Y161000D02*
Y181000D01*
X32500Y161000D02*
X42500D01*
X17500Y170500D02*
Y190500D01*
X27500D01*
Y170500D02*
Y190500D01*
X17500Y170500D02*
X27500D01*
X32500Y182000D02*
Y202000D01*
X42500D01*
Y182000D02*
Y202000D01*
X32500Y182000D02*
X42500D01*
X17500Y191500D02*
Y211500D01*
X27500D01*
Y191500D02*
Y211500D01*
X17500Y191500D02*
X27500D01*
X32500Y203000D02*
Y223000D01*
X42500D01*
Y203000D02*
Y223000D01*
X32500Y203000D02*
X42500D01*
X17500Y212500D02*
Y232500D01*
X27500D01*
Y212500D02*
Y232500D01*
X17500Y212500D02*
X27500D01*
X32500Y224000D02*
Y244000D01*
X42500D01*
Y224000D02*
Y244000D01*
X32500Y224000D02*
X42500D01*
X17500Y233500D02*
Y253500D01*
X27500D01*
Y233500D02*
Y253500D01*
X17500Y233500D02*
X27500D01*
D16*
X441000Y316665D02*
X440167Y317498D01*
X438501D01*
X437668Y316665D01*
Y315832D01*
X438501Y314999D01*
X437668Y314166D01*
Y313333D01*
X438501Y312500D01*
X440167D01*
X441000Y313333D01*
Y314166D01*
X440167Y314999D01*
X441000Y315832D01*
Y316665D01*
X440167Y314999D02*
X438501D01*
X441000Y307498D02*
X437668D01*
Y306665D01*
X441000Y303333D01*
Y302500D01*
X485000D02*
X483334D01*
X484167D01*
Y307498D01*
X485000Y306665D01*
X483668Y312500D02*
X487000D01*
X483668Y315832D01*
Y316665D01*
X484501Y317498D01*
X486167D01*
X487000Y316665D01*
X441000Y105165D02*
X440167Y105998D01*
X438501D01*
X437668Y105165D01*
Y104332D01*
X438501Y103499D01*
X437668Y102666D01*
Y101833D01*
X438501Y101000D01*
X440167D01*
X441000Y101833D01*
Y102666D01*
X440167Y103499D01*
X441000Y104332D01*
Y105165D01*
X440167Y103499D02*
X438501D01*
X441000Y95998D02*
X437668D01*
Y95165D01*
X441000Y91833D01*
Y91000D01*
X485000D02*
X483334D01*
X484167D01*
Y95998D01*
X485000Y95165D01*
X483668Y101000D02*
X487000D01*
X483668Y104332D01*
Y105165D01*
X484501Y105998D01*
X486167D01*
X487000Y105165D01*
X347165Y167000D02*
X347998Y167833D01*
Y169499D01*
X347165Y170332D01*
X346332D01*
X345499Y169499D01*
X344666Y170332D01*
X343833D01*
X343000Y169499D01*
Y167833D01*
X343833Y167000D01*
X344666D01*
X345499Y167833D01*
X346332Y167000D01*
X347165D01*
X345499Y167833D02*
Y169499D01*
X337998Y167000D02*
Y170332D01*
X337165D01*
X333833Y167000D01*
X333000D01*
Y123000D02*
Y124666D01*
Y123833D01*
X337998D01*
X337165Y123000D01*
X343000Y124332D02*
Y121000D01*
X346332Y124332D01*
X347165D01*
X347998Y123499D01*
Y121833D01*
X347165Y121000D01*
X346165Y293000D02*
X346998Y293833D01*
Y295499D01*
X346165Y296332D01*
X345332D01*
X344499Y295499D01*
X343666Y296332D01*
X342833D01*
X342000Y295499D01*
Y293833D01*
X342833Y293000D01*
X343666D01*
X344499Y293833D01*
X345332Y293000D01*
X346165D01*
X344499Y293833D02*
Y295499D01*
X336998Y293000D02*
Y296332D01*
X336165D01*
X332833Y293000D01*
X332000D01*
Y249000D02*
Y250666D01*
Y249833D01*
X336998D01*
X336165Y249000D01*
X342000Y250332D02*
Y247000D01*
X345332Y250332D01*
X346165D01*
X346998Y249499D01*
Y247833D01*
X346165Y247000D01*
D21*
X14498Y203501D02*
Y209499D01*
X11499D01*
X10500Y208499D01*
Y206500D01*
X11499Y205500D01*
X14498D01*
X4502Y209499D02*
X8500D01*
Y206500D01*
X6501Y207500D01*
X5501D01*
X4502Y206500D01*
Y204501D01*
X5501Y203501D01*
X7501D01*
X8500Y204501D01*
X459999Y86498D02*
X454001D01*
Y83499D01*
X455001Y82500D01*
X457000D01*
X458000Y83499D01*
Y86498D01*
X455001Y80500D02*
X454001Y79501D01*
Y77501D01*
X455001Y76502D01*
X456000D01*
X457000Y77501D01*
Y78501D01*
Y77501D01*
X458000Y76502D01*
X458999D01*
X459999Y77501D01*
Y79501D01*
X458999Y80500D01*
X79994Y253499D02*
Y247501D01*
X75996D01*
X69998Y252499D02*
X70997Y253499D01*
X72997D01*
X73996Y252499D01*
Y248500D01*
X72997Y247501D01*
X70997D01*
X69998Y248500D01*
X67998Y253499D02*
Y247501D01*
X64000D01*
X62000Y253499D02*
Y247501D01*
Y249500D01*
X58002Y253499D01*
X61001Y250500D01*
X58002Y247501D01*
X56002Y246501D02*
X52004D01*
X50004Y247501D02*
Y253499D01*
X46005Y247501D01*
Y253499D01*
X361998Y158501D02*
Y164499D01*
X358000Y158501D01*
Y164499D01*
X353001Y158501D02*
Y164499D01*
X356000Y161500D01*
X352002D01*
X481995Y124001D02*
Y128000D01*
X479995Y129999D01*
X477996Y128000D01*
Y124001D01*
Y127000D01*
X481995D01*
X475997Y129999D02*
X473997D01*
X474997D01*
Y124001D01*
X475997D01*
X473997D01*
X470998D02*
Y129999D01*
X466999Y124001D01*
Y129999D01*
X455003D02*
X457003D01*
X456003D01*
Y125001D01*
X457003Y124001D01*
X458002D01*
X459002Y125001D01*
X449005Y124001D02*
X453004D01*
X449005Y128000D01*
Y128999D01*
X450005Y129999D01*
X452004D01*
X453004Y128999D01*
X360498Y274001D02*
Y279999D01*
X356500Y274001D01*
Y279999D01*
X354500Y278999D02*
X353501Y279999D01*
X351501D01*
X350502Y278999D01*
Y278000D01*
X351501Y277000D01*
X352501D01*
X351501D01*
X350502Y276000D01*
Y275001D01*
X351501Y274001D01*
X353501D01*
X354500Y275001D01*
X14498Y193501D02*
Y199499D01*
X10500Y193501D01*
Y199499D01*
X4502D02*
X8500D01*
Y196500D01*
X6501Y197500D01*
X5501D01*
X4502Y196500D01*
Y194501D01*
X5501Y193501D01*
X7501D01*
X8500Y194501D01*
X479999Y297499D02*
X474001D01*
Y294500D01*
X475001Y293500D01*
X477000D01*
X478000Y294500D01*
Y297499D01*
X479999Y291501D02*
Y289501D01*
Y290501D01*
X474001D01*
X475001Y291501D01*
X14499Y235001D02*
Y240999D01*
X10500Y235001D01*
Y240999D01*
X8501Y235001D02*
X6501D01*
X7501D01*
Y240999D01*
X8501Y239999D01*
X55498Y183501D02*
Y189499D01*
X51500Y183501D01*
Y189499D01*
X45502D02*
X47501Y188499D01*
X49500Y186500D01*
Y184501D01*
X48501Y183501D01*
X46501D01*
X45502Y184501D01*
Y185500D01*
X46501Y186500D01*
X49500D01*
X14498Y183501D02*
Y189499D01*
X11499D01*
X10500Y188499D01*
Y186500D01*
X11499Y185500D01*
X14498D01*
X8500Y189499D02*
X4502D01*
Y188499D01*
X8500Y184501D01*
Y183501D01*
X54498Y215001D02*
Y220999D01*
X51499D01*
X50500Y219999D01*
Y218000D01*
X51499Y217000D01*
X54498D01*
X45501Y215001D02*
Y220999D01*
X48500Y218000D01*
X44502D01*
X55498Y164501D02*
Y170499D01*
X51500Y164501D01*
Y170499D01*
X49500Y169499D02*
X48501Y170499D01*
X46501D01*
X45502Y169499D01*
Y168500D01*
X46501Y167500D01*
X45502Y166500D01*
Y165501D01*
X46501Y164501D01*
X48501D01*
X49500Y165501D01*
Y166500D01*
X48501Y167500D01*
X49500Y168500D01*
Y169499D01*
X48501Y167500D02*
X46501D01*
X363992Y300001D02*
Y304000D01*
X361993Y305999D01*
X359993Y304000D01*
Y300001D01*
Y303000D01*
X363992D01*
X357994Y305999D02*
Y300001D01*
X354995D01*
X353995Y301001D01*
Y304999D01*
X354995Y305999D01*
X357994D01*
X347997Y304999D02*
X348997Y305999D01*
X350996D01*
X351996Y304999D01*
Y301001D01*
X350996Y300001D01*
X348997D01*
X347997Y301001D01*
X340000Y305999D02*
X338000D01*
X339000D01*
Y300001D01*
X340000D01*
X338000D01*
X335001D02*
Y305999D01*
X331003Y300001D01*
Y305999D01*
X319007D02*
X321006D01*
X320006D01*
Y301001D01*
X321006Y300001D01*
X322006D01*
X323005Y301001D01*
X317007Y300001D02*
X315008D01*
X316008D01*
Y305999D01*
X317007Y304999D01*
X469999Y330998D02*
X464001D01*
X469999Y327000D01*
X464001D01*
X469999Y321002D02*
Y325000D01*
X466000Y321002D01*
X465001D01*
X464001Y322001D01*
Y324001D01*
X465001Y325000D01*
X54998Y193501D02*
Y199499D01*
X51999D01*
X51000Y198499D01*
Y196500D01*
X51999Y195500D01*
X54998D01*
X45002Y199499D02*
X47001Y198499D01*
X49000Y196500D01*
Y194501D01*
X48001Y193501D01*
X46001D01*
X45002Y194501D01*
Y195500D01*
X46001Y196500D01*
X49000D01*
X449999Y330998D02*
X444001D01*
X449999Y327000D01*
X444001D01*
X449999Y322001D02*
X444001D01*
X447000Y325000D01*
Y321002D01*
X479999Y119999D02*
X474001D01*
X479999Y116000D01*
X474001D01*
X479999Y114001D02*
Y112001D01*
Y113001D01*
X474001D01*
X475001Y114001D01*
X14498Y225001D02*
Y230999D01*
X11499D01*
X10500Y229999D01*
Y228000D01*
X11499Y227000D01*
X14498D01*
X8500Y229999D02*
X7501Y230999D01*
X5501D01*
X4502Y229999D01*
Y229000D01*
X5501Y228000D01*
X6501D01*
X5501D01*
X4502Y227000D01*
Y226001D01*
X5501Y225001D01*
X7501D01*
X8500Y226001D01*
X360498Y263501D02*
Y269499D01*
X356500Y263501D01*
Y269499D01*
X350502Y263501D02*
X354500D01*
X350502Y267500D01*
Y268499D01*
X351501Y269499D01*
X353501D01*
X354500Y268499D01*
X364492Y174501D02*
Y178500D01*
X362493Y180499D01*
X360493Y178500D01*
Y174501D01*
Y177500D01*
X364492D01*
X358494Y180499D02*
Y174501D01*
X355495D01*
X354495Y175501D01*
Y179499D01*
X355495Y180499D01*
X358494D01*
X348497Y179499D02*
X349497Y180499D01*
X351496D01*
X352496Y179499D01*
Y175501D01*
X351496Y174501D01*
X349497D01*
X348497Y175501D01*
X340500Y180499D02*
X338500D01*
X339500D01*
Y174501D01*
X340500D01*
X338500D01*
X335502D02*
Y180499D01*
X331503Y174501D01*
Y180499D01*
X319507D02*
X321506D01*
X320506D01*
Y175501D01*
X321506Y174501D01*
X322506D01*
X323505Y175501D01*
X317507Y174501D02*
X315508D01*
X316508D01*
Y180499D01*
X317507Y179499D01*
X459499Y119998D02*
X453501D01*
X459499Y116000D01*
X453501D01*
X454501Y114000D02*
X453501Y113001D01*
Y111001D01*
X454501Y110002D01*
X455500D01*
X456500Y111001D01*
Y112001D01*
Y111001D01*
X457500Y110002D01*
X458499D01*
X459499Y111001D01*
Y113001D01*
X458499Y114000D01*
X449499Y85998D02*
X443501D01*
Y82999D01*
X444501Y82000D01*
X446500D01*
X447500Y82999D01*
Y85998D01*
X449499Y77001D02*
X443501D01*
X446500Y80000D01*
Y76002D01*
X360499Y253501D02*
Y259499D01*
X356500Y253501D01*
Y259499D01*
X354501Y253501D02*
X352501D01*
X353501D01*
Y259499D01*
X354501Y258499D01*
X360498Y284001D02*
Y289999D01*
X356500Y284001D01*
Y289999D01*
X351501Y284001D02*
Y289999D01*
X354500Y287000D01*
X350502D01*
X449499Y296998D02*
X443501D01*
Y293999D01*
X444501Y293000D01*
X446500D01*
X447500Y293999D01*
Y296998D01*
X449499Y288001D02*
X443501D01*
X446500Y291000D01*
Y287002D01*
X327499Y128001D02*
Y133999D01*
X324500D01*
X323500Y132999D01*
Y131000D01*
X324500Y130000D01*
X327499D01*
X321501Y128001D02*
X319501D01*
X320501D01*
Y133999D01*
X321501Y132999D01*
X459499Y330998D02*
X453501D01*
X459499Y327000D01*
X453501D01*
X454501Y325000D02*
X453501Y324001D01*
Y322001D01*
X454501Y321002D01*
X455500D01*
X456500Y322001D01*
Y323001D01*
Y322001D01*
X457500Y321002D01*
X458499D01*
X459499Y322001D01*
Y324001D01*
X458499Y325000D01*
X86499Y157001D02*
Y162999D01*
X82501Y157001D01*
Y162999D01*
X479999Y330999D02*
X474001D01*
X479999Y327000D01*
X474001D01*
X479999Y325001D02*
Y323001D01*
Y324001D01*
X474001D01*
X475001Y325001D01*
X-6004Y158501D02*
Y164499D01*
X-9003D01*
X-10003Y163499D01*
Y161500D01*
X-9003Y160500D01*
X-6004D01*
X-12002Y164499D02*
X-14002D01*
X-13002D01*
Y158501D01*
X-12002D01*
X-14002D01*
X-17001D02*
Y164499D01*
X-21000Y158501D01*
Y164499D01*
X-26998D02*
X-22999D01*
Y161500D01*
X-24998Y162500D01*
X-25998D01*
X-26998Y161500D01*
Y159501D01*
X-25998Y158501D01*
X-23999D01*
X-22999Y159501D01*
X-32996Y164499D02*
X-28997D01*
Y161500D01*
X-30996Y162500D01*
X-31996D01*
X-32996Y161500D01*
Y159501D01*
X-31996Y158501D01*
X-29997D01*
X-28997Y159501D01*
X361998Y148501D02*
Y154499D01*
X358000Y148501D01*
Y154499D01*
X356000Y153499D02*
X355001Y154499D01*
X353001D01*
X352002Y153499D01*
Y152500D01*
X353001Y151500D01*
X354001D01*
X353001D01*
X352002Y150500D01*
Y149501D01*
X353001Y148501D01*
X355001D01*
X356000Y149501D01*
X479999Y86499D02*
X474001D01*
Y83500D01*
X475001Y82500D01*
X477000D01*
X478000Y83500D01*
Y86499D01*
X479999Y80501D02*
Y78501D01*
Y79501D01*
X474001D01*
X475001Y80501D01*
X469999Y297498D02*
X464001D01*
Y294499D01*
X465001Y293500D01*
X467000D01*
X468000Y294499D01*
Y297498D01*
X469999Y287502D02*
Y291500D01*
X466000Y287502D01*
X465001D01*
X464001Y288501D01*
Y290501D01*
X465001Y291500D01*
X327498Y148501D02*
Y154499D01*
X324499D01*
X323500Y153499D01*
Y151500D01*
X324499Y150500D01*
X327498D01*
X321500Y153499D02*
X320501Y154499D01*
X318501D01*
X317502Y153499D01*
Y152500D01*
X318501Y151500D01*
X319501D01*
X318501D01*
X317502Y150500D01*
Y149501D01*
X318501Y148501D01*
X320501D01*
X321500Y149501D01*
X361999Y128001D02*
Y133999D01*
X358000Y128001D01*
Y133999D01*
X356001Y128001D02*
X354001D01*
X355001D01*
Y133999D01*
X356001Y132999D01*
X14498Y172501D02*
Y178499D01*
X10500Y172501D01*
Y178499D01*
X8500D02*
X4502D01*
Y177499D01*
X8500Y173501D01*
Y172501D01*
X14498Y214501D02*
Y220499D01*
X10500Y214501D01*
Y220499D01*
X8500Y219499D02*
X7501Y220499D01*
X5501D01*
X4502Y219499D01*
Y218500D01*
X5501Y217500D01*
X6501D01*
X5501D01*
X4502Y216500D01*
Y215501D01*
X5501Y214501D01*
X7501D01*
X8500Y215501D01*
X54498Y205001D02*
Y210999D01*
X50500Y205001D01*
Y210999D01*
X45501Y205001D02*
Y210999D01*
X48500Y208000D01*
X44502D01*
X469999Y86498D02*
X464001D01*
Y83499D01*
X465001Y82500D01*
X467000D01*
X468000Y83499D01*
Y86498D01*
X469999Y76502D02*
Y80500D01*
X466000Y76502D01*
X465001D01*
X464001Y77501D01*
Y79501D01*
X465001Y80500D01*
X469999Y119998D02*
X464001D01*
X469999Y116000D01*
X464001D01*
X469999Y110002D02*
Y114000D01*
X466000Y110002D01*
X465001D01*
X464001Y111001D01*
Y113001D01*
X465001Y114000D01*
X326998Y284001D02*
Y289999D01*
X323999D01*
X323000Y288999D01*
Y287000D01*
X323999Y286000D01*
X326998D01*
X318001Y284001D02*
Y289999D01*
X321000Y287000D01*
X317002D01*
X55498Y236001D02*
Y241999D01*
X52499D01*
X51500Y240999D01*
Y239000D01*
X52499Y238000D01*
X55498D01*
X45502Y236001D02*
X49500D01*
X45502Y240000D01*
Y240999D01*
X46501Y241999D01*
X48501D01*
X49500Y240999D01*
X480744Y335501D02*
Y339500D01*
X478744Y341499D01*
X476745Y339500D01*
Y335501D01*
Y338500D01*
X480744D01*
X474746Y341499D02*
X472746D01*
X473746D01*
Y335501D01*
X474746D01*
X472746D01*
X469747D02*
Y341499D01*
X465749Y335501D01*
Y341499D01*
X453753D02*
X455752D01*
X454752D01*
Y336501D01*
X455752Y335501D01*
X456751D01*
X457751Y336501D01*
X451753Y335501D02*
X449754D01*
X450753D01*
Y341499D01*
X451753Y340499D01*
X14499Y245501D02*
Y251499D01*
X11500D01*
X10500Y250499D01*
Y248500D01*
X11500Y247500D01*
X14499D01*
X8501Y245501D02*
X6501D01*
X7501D01*
Y251499D01*
X8501Y250499D01*
X449999Y119998D02*
X444001D01*
X449999Y116000D01*
X444001D01*
X449999Y111001D02*
X444001D01*
X447000Y114000D01*
Y110002D01*
X327498Y158501D02*
Y164499D01*
X324499D01*
X323500Y163499D01*
Y161500D01*
X324499Y160500D01*
X327498D01*
X318501Y158501D02*
Y164499D01*
X321500Y161500D01*
X317502D01*
X361998Y138001D02*
Y143999D01*
X358000Y138001D01*
Y143999D01*
X352002Y138001D02*
X356000D01*
X352002Y142000D01*
Y142999D01*
X353001Y143999D01*
X355001D01*
X356000Y142999D01*
X89495Y176501D02*
Y180500D01*
X87496Y182499D01*
X85497Y180500D01*
Y176501D01*
Y179500D01*
X89495D01*
X83497Y182499D02*
Y176501D01*
X80498D01*
X79499Y177501D01*
Y181499D01*
X80498Y182499D01*
X83497D01*
X73501Y181499D02*
X74500Y182499D01*
X76500D01*
X77499Y181499D01*
Y177501D01*
X76500Y176501D01*
X74500D01*
X73501Y177501D01*
X71501Y182499D02*
Y176501D01*
X67503D01*
X65503Y182499D02*
Y176501D01*
Y178500D01*
X61505Y182499D01*
X64504Y179500D01*
X61505Y176501D01*
X459999Y297498D02*
X454001D01*
Y294499D01*
X455001Y293500D01*
X457000D01*
X458000Y294499D01*
Y297498D01*
X455001Y291500D02*
X454001Y290501D01*
Y288501D01*
X455001Y287502D01*
X456000D01*
X457000Y288501D01*
Y289501D01*
Y288501D01*
X458000Y287502D01*
X458999D01*
X459999Y288501D01*
Y290501D01*
X458999Y291500D01*
X-6004Y167501D02*
Y173499D01*
X-9003D01*
X-10003Y172499D01*
Y170500D01*
X-9003Y169500D01*
X-6004D01*
X-12002Y173499D02*
X-14002D01*
X-13002D01*
Y167501D01*
X-12002D01*
X-14002D01*
X-17001D02*
Y173499D01*
X-21000Y167501D01*
Y173499D01*
X-26998D02*
X-22999D01*
Y170500D01*
X-24998Y171500D01*
X-25998D01*
X-26998Y170500D01*
Y168501D01*
X-25998Y167501D01*
X-23999D01*
X-22999Y168501D01*
X-31996Y167501D02*
Y173499D01*
X-28997Y170500D01*
X-32996D01*
X76499Y157001D02*
Y162999D01*
X73500D01*
X72501Y161999D01*
Y160000D01*
X73500Y159000D01*
X76499D01*
X327498Y138501D02*
Y144499D01*
X324499D01*
X323500Y143499D01*
Y141500D01*
X324499Y140500D01*
X327498D01*
X317502Y138501D02*
X321500D01*
X317502Y142500D01*
Y143499D01*
X318501Y144499D01*
X320501D01*
X321500Y143499D01*
X326999Y253501D02*
Y259499D01*
X324000D01*
X323000Y258499D01*
Y256500D01*
X324000Y255500D01*
X326999D01*
X321001Y253501D02*
X319001D01*
X320001D01*
Y259499D01*
X321001Y258499D01*
X55498Y172501D02*
Y178499D01*
X52499D01*
X51500Y177499D01*
Y175500D01*
X52499Y174500D01*
X55498D01*
X49500Y177499D02*
X48501Y178499D01*
X46501D01*
X45502Y177499D01*
Y176500D01*
X46501Y175500D01*
X45502Y174500D01*
Y173501D01*
X46501Y172501D01*
X48501D01*
X49500Y173501D01*
Y174500D01*
X48501Y175500D01*
X49500Y176500D01*
Y177499D01*
X48501Y175500D02*
X46501D01*
X79495Y263499D02*
Y257501D01*
X75496D01*
X69498Y262499D02*
X70497Y263499D01*
X72497D01*
X73496Y262499D01*
Y258501D01*
X72497Y257501D01*
X70497D01*
X69498Y258501D01*
X67498Y263499D02*
Y257501D01*
X63500D01*
X61500Y263499D02*
Y257501D01*
Y259500D01*
X57502Y263499D01*
X60501Y260500D01*
X57502Y257501D01*
X55502Y256501D02*
X51503D01*
X49504Y257501D02*
Y263499D01*
X46505D01*
X45505Y262499D01*
Y260500D01*
X46505Y259500D01*
X49504D01*
X55498Y226001D02*
Y231999D01*
X51500Y226001D01*
Y231999D01*
X45502Y226001D02*
X49500D01*
X45502Y230000D01*
Y230999D01*
X46501Y231999D01*
X48501D01*
X49500Y230999D01*
X326998Y274001D02*
Y279999D01*
X323999D01*
X323000Y278999D01*
Y277000D01*
X323999Y276000D01*
X326998D01*
X321000Y278999D02*
X320001Y279999D01*
X318001D01*
X317002Y278999D01*
Y278000D01*
X318001Y277000D01*
X319001D01*
X318001D01*
X317002Y276000D01*
Y275001D01*
X318001Y274001D01*
X320001D01*
X321000Y275001D01*
X326998Y264001D02*
Y269999D01*
X323999D01*
X323000Y268999D01*
Y267000D01*
X323999Y266000D01*
X326998D01*
X317002Y264001D02*
X321000D01*
X317002Y268000D01*
Y268999D01*
X318001Y269999D01*
X320001D01*
X321000Y268999D01*
D129*
X484565Y179967D02*
G03*
X486012Y180218I140J3491D01*
G01*
X483977Y179983D02*
G03*
X484153Y179973I408J5762D01*
G01*
X486012Y180218D02*
G03*
X486849Y180965I-687J1611D01*
G01*
X483420Y181356D02*
G03*
X483486Y181350I178J1486D01*
G01*
X483486Y181350D02*
G03*
X483519Y181348I129J1715D01*
G01*
X483386Y181361D02*
G03*
X483420Y181356I195J1331D01*
G01*
X485430Y181765D02*
G03*
X485792Y182521I-1300J1088D01*
G01*
X486849Y180965D02*
G03*
X487223Y182208I-2834J1529D01*
G01*
X485792Y182521D02*
G03*
X485915Y183837I-5547J1181D01*
G01*
X487223Y182208D02*
G03*
X487309Y183954I-15101J1623D01*
G01*
X484027Y181344D02*
G03*
X484833Y181422I46J3725D01*
G01*
X484833Y181422D02*
G03*
X485430Y181765I-217J1068D01*
G01*
X465510Y180218D02*
G03*
X466801Y179900I2103J5762D01*
G01*
X468101Y179813D02*
G03*
X469746Y180078I39J4999D01*
G01*
X466801Y179900D02*
G03*
X468101Y179813I1281J9449D01*
G01*
X474639Y192438D02*
G03*
X474224Y192405I-15J-2412D01*
G01*
X475693Y193738D02*
G03*
X474776Y193813I-967J-6159D01*
G01*
X471623Y191132D02*
G03*
X471507Y191442I-3881J-1284D01*
G01*
X469162Y191966D02*
G03*
X468945Y192066I-1393J-2767D01*
G01*
X464504Y192129D02*
G03*
X463388Y191279I882J-2314D01*
G01*
X478281Y190696D02*
G03*
X477347Y191571I-4942J-4336D01*
G01*
X471719Y190803D02*
G03*
X471623Y191132I-4401J-1095D01*
G01*
X499887Y188094D02*
G03*
X500266Y184606I13101J-341D01*
G01*
X498493Y188039D02*
G03*
X498822Y184570I16489J-186D01*
G01*
X508637Y180165D02*
G03*
X510639Y181118I-1604J5947D01*
G01*
X505737Y179813D02*
G03*
X508637Y180165I206J10440D01*
G01*
X508213Y181461D02*
G03*
X510050Y182493I-921J3793D01*
G01*
X501381Y182501D02*
G03*
X503219Y181461I2696J2619D01*
G01*
X499965Y181983D02*
G03*
X502190Y180371I3987J3162D01*
G01*
X503219Y181461D02*
G03*
X505728Y181182I2411J10263D01*
G01*
Y181182D02*
G03*
X508213Y181461I108J10246D01*
G01*
X502190Y180371D02*
G03*
X505737Y179813I3257J9155D01*
G01*
X510639Y181118D02*
G03*
X511902Y182526I-2811J3792D01*
G01*
X470292Y187113D02*
G03*
X469427Y187571I-3165J-4935D01*
G01*
X468357Y186589D02*
G03*
X467953Y186701I-2091J-6773D01*
G01*
X467953D02*
G03*
X467519Y186795I-2018J-8232D01*
G01*
X468729Y186460D02*
G03*
X468357Y186589I-2121J-5535D01*
G01*
X468405Y187927D02*
G03*
X467834Y188066I-2694J-9754D01*
G01*
X467834Y188066D02*
G03*
X467225Y188181I-2505J-11664D01*
G01*
X468936Y187761D02*
G03*
X468405Y187927I-2819J-8119D01*
G01*
X469072Y186314D02*
G03*
X468729Y186460I-2120J-4495D01*
G01*
X471845Y190085D02*
G03*
X471719Y190803I-5396J-581D01*
G01*
X470476Y190085D02*
G03*
X469361Y191856I-2354J-246D01*
G01*
X470356Y192896D02*
G03*
X469794Y193227I-2164J-3030D01*
G01*
X471209Y192004D02*
G03*
X470356Y192896I-2784J-1809D01*
G01*
X469794Y193227D02*
G03*
X469476Y193365I-1939J-4042D01*
G01*
X469361Y191856D02*
G03*
X469162Y191966I-1400J-2276D01*
G01*
X469476Y193365D02*
G03*
X469132Y193484I-1864J-4810D01*
G01*
X471507Y191442D02*
G03*
X471209Y192004I-3334J-1406D01*
G01*
X468370Y193668D02*
G03*
X467951Y193732I-1440J-8015D01*
G01*
X468181Y192293D02*
G03*
X467888Y192345I-1199J-5845D01*
G01*
X467951Y193732D02*
G03*
X467507Y193777I-1194J-9437D01*
G01*
X467888Y192345D02*
G03*
X467577Y192386I-1070J-6955D01*
G01*
X469132Y193484D02*
G03*
X468763Y193585I-1764J-5718D01*
G01*
X468945Y192066D02*
G03*
X468709Y192153I-1378J-3358D01*
G01*
X468709Y192153D02*
G03*
X468454Y192229I-1345J-4059D01*
G01*
X468454Y192229D02*
G03*
X468181Y192293I-1289J-4884D01*
G01*
X467039Y193805D02*
G03*
X466545Y193813I-473J-12901D01*
G01*
Y193813D02*
G03*
X464163Y193470I-171J-7248D01*
G01*
X466531Y192438D02*
G03*
X464504Y192129I-213J-5397D01*
G01*
X467507Y193777D02*
G03*
X467039Y193805I-875J-11060D01*
G01*
X467247Y192415D02*
G03*
X466531Y192438I-698J-10448D01*
G01*
X464163Y193470D02*
G03*
X462569Y192483I1237J-3782D01*
G01*
X477857Y192748D02*
G03*
X476741Y193420I-3661J-4814D01*
G01*
X477347Y191571D02*
G03*
X476290Y192199I-3038J-3914D01*
G01*
X476741Y193420D02*
G03*
X475693Y193738I-1772J-3957D01*
G01*
X476290Y192199D02*
G03*
X475144Y192438I-1141J-2596D01*
G01*
X479025Y191633D02*
G03*
X477857Y192748I-5507J-4599D01*
G01*
X479025Y189692D02*
G03*
X478281Y190696I-5778J-3507D01*
G01*
X485134Y202050D02*
G03*
X485548Y202219I3J583D01*
G01*
X467228Y201422D02*
G03*
X468285Y200865I1116J835D01*
G01*
X461720Y201036D02*
G03*
X461891Y201450I-414J414D01*
G01*
X461720Y201864D02*
G03*
X461306Y202036I-414J-414D01*
G01*
X461891Y201450D02*
G03*
X461720Y201864I-586J0D01*
G01*
X461306Y200865D02*
G03*
X461720Y201036I0J586D01*
G01*
X485352Y200865D02*
G03*
X486888Y202404I-3J1539D01*
G01*
X468162Y202114D02*
G03*
X468285Y202050I200J233D01*
G01*
X467577Y192386D02*
G03*
X467247Y192415I-893J-8226D01*
G01*
X468763Y193585D02*
G03*
X468370Y193668I-1627J-6781D01*
G01*
X463388Y191279D02*
G03*
X462903Y189999I2376J-1633D01*
G01*
X462569Y192483D02*
G03*
X461676Y190919I2774J-2619D01*
G01*
X467053Y186872D02*
G03*
X466558Y186933I-1695J-11902D01*
G01*
X465887Y188333D02*
G03*
X465159Y188372I-1376J-19296D01*
G01*
X463648Y182724D02*
G03*
X464730Y181960I4820J5677D01*
G01*
X462903Y189999D02*
G03*
X462800Y188384I11429J-1541D01*
G01*
X466031Y186975D02*
G03*
X464886Y187010I-1116J-18102D01*
G01*
X462792Y183541D02*
G03*
X463648Y182724I7180J6667D01*
G01*
X465159Y188372D02*
G03*
X464392Y188384I-758J-22560D01*
G01*
X461676Y190919D02*
G03*
X461398Y188850I6909J-1984D01*
G01*
X469746Y180078D02*
G03*
X471062Y180834I-1257J3713D01*
G01*
X467988Y181214D02*
G03*
X468279Y181247I-513J5816D01*
G01*
X467365Y181188D02*
G03*
X467683Y181194I3J7520D01*
G01*
X467683Y181194D02*
G03*
X467988Y181214I-277J6618D01*
G01*
X468556Y181294D02*
G03*
X468819Y181353I-875J4486D01*
G01*
X468819Y181353D02*
G03*
X469304Y181512I-954J3737D01*
G01*
X468279Y181247D02*
G03*
X468556Y181294I-710J5108D01*
G01*
X464186Y180853D02*
G03*
X465510Y180218I3817J6255D01*
G01*
X464730Y181960D02*
G03*
X465987Y181403I3194J5506D01*
G01*
X469304Y181512D02*
G03*
X469927Y181849I-1133J2837D01*
G01*
X471062Y180834D02*
G03*
X471937Y182021I-2334J2637D01*
G01*
X465987Y181403D02*
G03*
X467365Y181188I1359J4191D01*
G01*
X462792Y181874D02*
G03*
X464186Y180853I6219J7033D01*
G01*
X404709Y190481D02*
G03*
X404581Y188850I8807J-1513D01*
G01*
X402200Y192570D02*
G03*
X401020Y193317I-3617J-4404D01*
G01*
X398993Y192433D02*
G03*
X398705Y192425I-4J-4850D01*
G01*
X398432Y192400D02*
G03*
X398177Y192358I433J-3442D01*
G01*
X404634Y193214D02*
G03*
X403298Y191373I1920J-2798D01*
G01*
X398705Y192425D02*
G03*
X398432Y192400I240J-4094D01*
G01*
X401020Y193317D02*
G03*
X399816Y193702I-2176J-4735D01*
G01*
X403298Y191373D02*
G03*
X402200Y192570I-5083J-3566D01*
G01*
X403187Y189840D02*
G03*
X401151Y191755I-6929J-5324D01*
G01*
Y191755D02*
G03*
X398993Y192433I-2207J-3254D01*
G01*
X405153Y191596D02*
G03*
X404709Y190481I2279J-1552D01*
G01*
X439434Y182604D02*
G03*
X440368Y184375I-3802J3138D01*
G01*
X440368Y184375D02*
G03*
X440368Y189288I-9006J2457D01*
G01*
X440413Y181651D02*
G03*
X441626Y183859I-4883J4119D01*
G01*
X441626D02*
G03*
X441626Y189793I-10067J2967D01*
G01*
X407244Y192438D02*
G03*
X405989Y192232I-99J-3319D01*
G01*
X411315Y191493D02*
G03*
X410007Y192723I-6735J-5852D01*
G01*
X405989Y192232D02*
G03*
X405153Y191596I642J-1713D01*
G01*
X409324Y191761D02*
G03*
X407244Y192438I-2110J-2947D01*
G01*
X411315Y189845D02*
G03*
X409324Y191761I-7672J-5981D01*
G01*
X410007Y192723D02*
G03*
X408847Y193420I-3738J-4906D01*
G01*
X418625Y191571D02*
G03*
X418090Y190456I2090J-1690D01*
G01*
X419181Y193619D02*
G03*
X418560Y193377I1028J-3554D01*
G01*
X418101Y201461D02*
G03*
X418268Y201041I585J-11D01*
G01*
X418684Y202047D02*
G03*
X418101Y201461I3J-586D01*
G01*
X418268Y201041D02*
G03*
X418684Y200865I419J409D01*
G01*
X416904Y191440D02*
G03*
X416697Y190714I5055J-1833D01*
G01*
X416697Y190714D02*
G03*
X416573Y189890I7044J-1484D01*
G01*
X419596Y192224D02*
G03*
X418625Y191571I727J-2129D01*
G01*
X421060Y192438D02*
G03*
X419596Y192224I-115J-4312D01*
G01*
X423251Y191769D02*
G03*
X421060Y192438I-2216J-3335D01*
G01*
X418090Y190456D02*
G03*
X417926Y188850I6805J-1508D01*
G01*
X418560Y193377D02*
G03*
X416904Y191440I1525J-2981D01*
G01*
X416573Y189890D02*
G03*
X416532Y188970I9702J-898D01*
G01*
X446059Y202619D02*
G03*
X446231Y202205I583J0D01*
G01*
D02*
G03*
X446645Y202036I411J413D01*
G01*
X444891Y202418D02*
G03*
X445335Y201322I1539J-14D01*
G01*
Y201322D02*
G03*
X446424Y200865I1095J1081D01*
G01*
X434245Y192087D02*
G03*
X432798Y191039I1484J-3571D01*
G01*
X440421Y191984D02*
G03*
X438534Y193350I-3875J-3367D01*
G01*
X437987Y192087D02*
G03*
X434245Y192087I-1871J-4807D01*
G01*
X438534Y193350D02*
G03*
X436108Y193813I-2353J-5743D01*
G01*
X433626Y193336D02*
G03*
X431739Y191962I1987J-4712D01*
G01*
X408847Y193420D02*
G03*
X407807Y193738I-1771J-3936D01*
G01*
X436108Y193813D02*
G03*
X433626Y193336I-81J-6276D01*
G01*
X425373Y189879D02*
G03*
X423251Y191769I-7742J-6554D01*
G01*
X420672Y193813D02*
G03*
X419181Y193619I-68J-5308D01*
G01*
X422844Y193401D02*
G03*
X421701Y193727I-1948J-4659D01*
G01*
X406865Y193813D02*
G03*
X404634Y193214I-130J-3966D01*
G01*
X407807Y193738D02*
G03*
X406865Y193813I-969J-6190D01*
G01*
X399816Y193702D02*
G03*
X398639Y193813I-1191J-6301D01*
G01*
X439434Y191039D02*
G03*
X437987Y192087I-2931J-2523D01*
G01*
X431739Y191962D02*
G03*
X430531Y189767I4742J-4039D01*
G01*
X441626Y189792D02*
G03*
X440421Y191984I-5928J-1831D01*
G01*
X440368Y189288D02*
G03*
X439434Y191039I-4584J-1321D01*
G01*
X431856Y184375D02*
G03*
X432798Y182604I4812J1425D01*
G01*
X432798Y191039D02*
G03*
X431856Y189288I3723J-3133D01*
G01*
X431856D02*
G03*
X431856Y184375I8699J-2457D01*
G01*
X437987Y181539D02*
G03*
X439434Y182604I-1460J3500D01*
G01*
X432798D02*
G03*
X434245Y181539I2907J2434D01*
G01*
X438534Y180284D02*
G03*
X440413Y181651I-1932J4632D01*
G01*
X434245Y181539D02*
G03*
X436108Y181188I1801J4436D01*
G01*
X431733Y181659D02*
G03*
X433624Y180284I3898J3374D01*
G01*
X436108Y181188D02*
G03*
X437987Y181539I69J4832D01*
G01*
X433624Y180284D02*
G03*
X438534Y180284I2455J6225D01*
G01*
X430531Y183867D02*
G03*
X431733Y181659I6045J1858D01*
G01*
X430531Y189767D02*
G03*
X430531Y183867I10089J-2950D01*
G01*
X396315Y189570D02*
G03*
X396291Y188850I10244J-700D01*
G01*
X395062Y190714D02*
G03*
X394951Y189890I7803J-1475D01*
G01*
X396441Y190490D02*
G03*
X396387Y190205I5254J-1137D01*
G01*
X396387D02*
G03*
X396345Y189898I6431J-1032D01*
G01*
X396345Y189898D02*
G03*
X396315Y189570I7801J-875D01*
G01*
X394951Y189890D02*
G03*
X394914Y188970I10776J-891D01*
G01*
X466558Y186933D02*
G03*
X466031Y186975I-1419J-14156D01*
G01*
X466576Y188270D02*
G03*
X465887Y188333I-1862J-16409D01*
G01*
X469927Y181849D02*
G03*
X470864Y183695I-1195J1767D01*
G01*
X470864Y183695D02*
G03*
X469383Y186151I-2699J48D01*
G01*
X467519Y186795D02*
G03*
X467053Y186872I-1890J-9935D01*
G01*
X469383Y186151D02*
G03*
X469072Y186314I-2101J-3632D01*
G01*
X467225Y188181D02*
G03*
X466576Y188270I-2233J-13873D01*
G01*
X469427Y187571D02*
G03*
X468936Y187761I-2894J-6731D01*
G01*
X472258Y183558D02*
G03*
X470292Y187113I-4008J105D01*
G01*
X471937Y182021D02*
G03*
X472258Y183558I-3287J1488D01*
G01*
X468125Y208085D02*
G03*
X468538Y207913I413J411D01*
G01*
X467956Y208499D02*
G03*
X468125Y208085I583J-3D01*
G01*
X468952Y208085D02*
G03*
X469124Y208499I-414J414D01*
G01*
X468538Y207913D02*
G03*
X468952Y208085I0J586D01*
G01*
X485548Y202219D02*
G03*
X485720Y202632I-411J413D01*
G01*
X467956Y223522D02*
G03*
X467784Y223936I-586J0D01*
G01*
X468674Y224815D02*
G03*
X467588Y225265I-1086J-1086D01*
G01*
X452099Y224024D02*
G03*
X452113Y223862I137J-70D01*
G01*
X451137Y225265D02*
G03*
X450422Y224856I-47J-746D01*
G01*
X444891Y223514D02*
G03*
X444308Y224099I-586J0D01*
G01*
X445609Y224815D02*
G03*
X444523Y225265I-1086J-1086D01*
G01*
X469124Y223728D02*
G03*
X468674Y224815I-1536J0D01*
G01*
X467784Y223936D02*
G03*
X467370Y224108I-414J-414D01*
G01*
X450422Y224856D02*
G03*
X450518Y224038I667J-337D01*
G01*
X486717Y224979D02*
G03*
X486302Y225150I-414J-414D01*
G01*
X446059Y223728D02*
G03*
X445609Y224815I-1536J0D01*
G01*
X452238Y224108D02*
G03*
X452099Y224024I-3J-153D01*
G01*
X486888Y224565D02*
G03*
X486717Y224979I-586J0D01*
G01*
X424941Y200865D02*
G03*
X426477Y202404I-3J1539D01*
G01*
X424723Y202047D02*
G03*
X425137Y202217I3J583D01*
G01*
X424077Y192698D02*
G03*
X422844Y193401I-3404J-4539D01*
G01*
X421701Y193727D02*
G03*
X420672Y193813I-1053J-6368D01*
G01*
X425365Y191493D02*
G03*
X424077Y192698I-6366J-5517D01*
G01*
X425137Y202217D02*
G03*
X425309Y202630I-411J413D01*
G01*
X396888Y191596D02*
G03*
X396775Y191418I1696J-1202D01*
G01*
D02*
G03*
X396673Y191218I2154J-1219D01*
G01*
X396673Y191218D02*
G03*
X396584Y190997I2722J-1230D01*
G01*
X398639Y193813D02*
G03*
X397297Y193619I-60J-4332D01*
G01*
X397516Y192132D02*
G03*
X397332Y192023I894J-1729D01*
G01*
X397297Y193619D02*
G03*
X396738Y193377I962J-2987D01*
G01*
X397939Y192299D02*
G03*
X397719Y192224I704J-2422D01*
G01*
X397719D02*
G03*
X397516Y192132I804J-2040D01*
G01*
X395248Y191440D02*
G03*
X395062Y190714I5555J-1809D01*
G01*
X396506Y190754D02*
G03*
X396441Y190490I4255J-1198D01*
G01*
X397332Y192023D02*
G03*
X396888Y191596I935J-1416D01*
G01*
X395509Y192070D02*
G03*
X395248Y191440I3910J-1987D01*
G01*
X396738Y193377D02*
G03*
X395509Y192070I1495J-2637D01*
G01*
X396584Y190997D02*
G03*
X396506Y190754I3417J-1226D01*
G01*
X398177Y192358D02*
G03*
X397939Y192299I584J-2887D01*
G01*
X486302Y225150D02*
G03*
X485720Y224565I3J-586D01*
G01*
X427060Y224099D02*
G03*
X426477Y223514I3J-586D01*
G01*
X426845Y225265D02*
G03*
X425759Y224815I0J-1536D01*
G01*
D02*
G03*
X425309Y223728I1086J-1086D01*
G01*
X512947Y186717D02*
G03*
X512967Y187291I-32723J1458D01*
G01*
X512967Y187291D02*
G03*
X512977Y187855I-28627J773D01*
G01*
X511193Y184598D02*
G03*
X511584Y188094I-12529J3169D01*
G01*
X512613Y184244D02*
G03*
X512917Y186134I-9437J2487D01*
G01*
X510050Y182493D02*
G03*
X511193Y184598I-3520J3274D01*
G01*
X500266Y184606D02*
G03*
X501381Y182501I4764J1176D01*
G01*
X511902Y182526D02*
G03*
X512613Y184244I-6077J3522D01*
G01*
X498822Y184570D02*
G03*
X499965Y181983I6220J1202D01*
G01*
X484507Y179967D02*
X484565Y179967D01*
X484448Y179967D02*
X484507Y179967D01*
X484389Y179968D02*
X484448Y179967D01*
X484271Y179970D02*
X484330Y179968D01*
X484212Y179971D02*
X484271Y179970D01*
X484153Y179973D02*
X484212Y179971D01*
X484330Y179968D02*
X484389Y179968D01*
X483918Y179988D02*
X483977Y179983D01*
X483801Y179997D02*
X483918Y179988D01*
X483683Y180007D02*
X483801Y179997D01*
X483565Y180018D02*
X483683Y180007D01*
X483550Y181346D02*
X483581Y181345D01*
X483612Y181344D01*
X483641Y181344D01*
X483698Y181344D01*
X484027D01*
X483386Y181361D02*
X483389Y180036D01*
X483565Y180018D01*
X483519Y181348D02*
X483550Y181346D01*
X492258Y180156D02*
X493652D01*
X479025D02*
X480419D01*
X489024Y192096D02*
Y193470D01*
X483715Y192098D02*
Y193473D01*
X474516Y193813D02*
X474776D01*
X474224Y192405D02*
X474238Y193788D01*
X474516Y193813D01*
X474639Y192438D02*
X475144D01*
X479025Y193470D02*
X480419D01*
X487309D02*
X489024D01*
X487309Y192096D02*
X489024D01*
X511584Y188094D02*
Y198969D01*
X470476Y190085D02*
X471845D01*
X479025Y191633D02*
Y193470D01*
X480419Y180156D02*
Y193470D01*
X479025Y180156D02*
Y189692D01*
X498493Y198969D02*
X499887D01*
X492258D02*
X493652D01*
X468285Y202050D02*
X485134D01*
X468285Y200865D02*
X485352D01*
X461398Y180156D02*
X462792D01*
Y181874D01*
Y183541D02*
Y187010D01*
X461398Y180156D02*
Y188850D01*
X462792Y187010D02*
X464886D01*
X462800Y188384D02*
X464392D01*
X487309Y193470D02*
Y196961D01*
X485915Y193473D02*
Y196961D01*
X499887Y188094D02*
Y198969D01*
X498493Y188039D02*
Y198969D01*
X493652Y180156D02*
Y198969D01*
X492258Y180156D02*
Y198969D01*
X487309Y183954D02*
Y192096D01*
X485915Y183837D02*
Y192098D01*
X483715Y193473D02*
X485915D01*
X483715Y192098D02*
X485915D01*
Y196961D02*
X487309D01*
X403187Y180151D02*
Y189840D01*
X404581Y180151D02*
Y188850D01*
X403187Y180151D02*
X404581D01*
X425365Y191493D02*
X425373Y198969D01*
X426767D01*
X418684Y202047D02*
X424723D01*
X418684Y200865D02*
X424941D01*
X426767Y180156D02*
Y198969D01*
X444222Y180156D02*
Y181531D01*
X416532Y180156D02*
X417926D01*
X416532D02*
Y188970D01*
X417926Y180156D02*
Y188850D01*
X412709Y180156D02*
Y193470D01*
X411315Y180156D02*
Y189845D01*
Y180156D02*
X412709D01*
X444579Y197128D02*
Y198969D01*
X411315Y191493D02*
Y193470D01*
X412709D01*
X425373Y180156D02*
Y189879D01*
Y180156D02*
X426767D01*
X394897D02*
X396291D01*
X394897D02*
X394914Y188970D01*
X396291Y180156D02*
Y188850D01*
X458810Y180156D02*
Y181977D01*
X444222Y181531D02*
X457405D01*
X446006Y197591D02*
X457684D01*
X446006D02*
X458810Y181977D01*
X444222Y180156D02*
X458810D01*
X486888Y202404D02*
Y224565D01*
X485720Y202632D02*
Y224565D01*
X467956Y208499D02*
Y223522D01*
X469124Y208499D02*
Y223728D01*
X446059Y202619D02*
Y223728D01*
X444891Y202418D02*
Y223514D01*
X450518Y224038D02*
X467228Y201422D01*
X452113Y223862D02*
X468162Y202114D01*
X451137Y225265D02*
X467588D01*
X452238Y224108D02*
X467370D01*
X457684Y197591D02*
Y198969D01*
X444579Y197128D02*
X457405Y181531D01*
X444579Y198969D02*
X457684D01*
X446424Y200865D02*
X461306D01*
X446645Y202036D02*
X461306D01*
X425309Y202630D02*
Y223728D01*
X426477Y202404D02*
Y223514D01*
X427060Y224099D02*
X444308D01*
X426845Y225265D02*
X444523D01*
X512917Y186134D02*
X512947Y186717D01*
X512977Y187855D02*
X512978Y188041D01*
Y198969D01*
X511584D02*
X512978D01*
D130*
X-3994Y168200D02*
Y169500D01*
X-594Y168200D02*
Y169500D01*
Y162500D02*
Y163800D01*
X-3994Y162500D02*
Y163800D01*
X-594Y162500D01*
M02*
