G04*
G04 #@! TF.GenerationSoftware,Altium Limited,Altium Designer,20.1.11 (218)*
G04*
G04 Layer_Physical_Order=6*
G04 Layer_Color=16711680*
%FSLAX25Y25*%
%MOIN*%
G70*
G04*
G04 #@! TF.SameCoordinates,EE22A08A-1BAA-4CEF-98F8-4511D2684688*
G04*
G04*
G04 #@! TF.FilePolarity,Positive*
G04*
G01*
G75*
%ADD18C,0.01000*%
%ADD22C,0.02000*%
%ADD26R,0.04724X0.03150*%
%ADD41R,0.11024X0.02165*%
%ADD45R,0.02756X0.01968*%
%ADD46R,0.02756X0.02520*%
%ADD49R,0.04724X0.02756*%
%ADD50R,0.02756X0.04724*%
%ADD51R,0.03150X0.04724*%
%ADD95C,0.01772*%
%ADD97C,0.00700*%
%ADD98C,0.01181*%
%ADD99C,0.03000*%
%ADD101R,0.03937X0.03937*%
%ADD102R,0.07874X0.07874*%
%ADD103C,0.07874*%
%ADD104C,0.05906*%
%ADD105C,0.05118*%
%ADD106R,0.05118X0.05118*%
%ADD107R,0.05118X0.05118*%
%ADD108C,0.06000*%
%ADD109R,0.05512X0.05512*%
%ADD110C,0.05512*%
%ADD111C,0.12795*%
%ADD112C,0.09449*%
%ADD113C,0.10000*%
%ADD114C,0.01968*%
%ADD115C,0.02362*%
%ADD116C,0.03150*%
%ADD117R,0.03347X0.01378*%
%ADD118O,0.05906X0.01575*%
%ADD119R,0.06496X0.01181*%
%ADD120R,0.06299X0.01181*%
%ADD121R,0.01181X0.06299*%
%ADD122R,0.02756X0.01575*%
%ADD123R,0.01968X0.02756*%
%ADD124R,0.02520X0.02756*%
%ADD125C,0.01900*%
%ADD126C,0.01575*%
G36*
X27500Y330500D02*
X28000Y330000D01*
X98000D01*
X108805Y319195D01*
Y318165D01*
X108922Y317580D01*
X109253Y317084D01*
X112500Y313837D01*
Y285000D01*
X50000D01*
X16000Y251000D01*
X-43015Y251000D01*
Y253101D01*
X-42515Y253388D01*
X-42000Y253286D01*
X-41344Y253416D01*
X-40788Y253788D01*
X-40416Y254344D01*
X-40286Y255000D01*
X-40416Y255656D01*
X-40788Y256212D01*
X-41344Y256584D01*
X-42000Y256714D01*
X-42109Y256692D01*
X-42299Y256730D01*
X-43015D01*
Y256866D01*
X-54500D01*
X-54500Y260000D01*
X-43015D01*
Y260136D01*
X-42335D01*
X-41749Y260252D01*
X-41253Y260584D01*
X-40919Y260919D01*
X-40587Y261415D01*
X-40471Y262000D01*
Y262741D01*
X-40416Y262822D01*
X-40286Y263478D01*
X-40416Y264134D01*
X-40788Y264690D01*
X-41344Y265061D01*
X-41440Y265081D01*
X-42090Y265731D01*
X-42586Y266062D01*
X-42611Y266068D01*
X-42698Y266244D01*
X-42387Y266744D01*
X-38814D01*
X-38765Y266754D01*
X-38714Y266747D01*
X-38328Y266766D01*
X-38182Y266803D01*
X-38031D01*
X-37274Y266953D01*
X-37088Y267030D01*
X-36891Y267069D01*
X-36178Y267364D01*
X-36011Y267476D01*
X-35826Y267553D01*
X-35184Y267982D01*
X-35042Y268124D01*
X-34875Y268235D01*
X-34329Y268781D01*
X-34328Y268783D01*
X-9917Y268783D01*
X-2114Y276587D01*
X-75D01*
X705Y276742D01*
X1367Y277184D01*
X1809Y277846D01*
X1964Y278626D01*
X1964Y342000D01*
X27500D01*
Y330500D01*
D02*
G37*
G36*
X141000Y306500D02*
X125500D01*
Y326500D01*
X141000D01*
Y306500D01*
D02*
G37*
%LPC*%
G36*
X57500Y329214D02*
X56844Y329084D01*
X56288Y328712D01*
X55916Y328156D01*
X55786Y327500D01*
X55916Y326844D01*
X56288Y326288D01*
X56844Y325916D01*
X57500Y325786D01*
X58156Y325916D01*
X58712Y326288D01*
X59084Y326844D01*
X59214Y327500D01*
X59084Y328156D01*
X58712Y328712D01*
X58156Y329084D01*
X57500Y329214D01*
D02*
G37*
G36*
X52500D02*
X51844Y329084D01*
X51288Y328712D01*
X50916Y328156D01*
X50786Y327500D01*
X50916Y326844D01*
X51288Y326288D01*
X51844Y325916D01*
X52500Y325786D01*
X53156Y325916D01*
X53712Y326288D01*
X54084Y326844D01*
X54214Y327500D01*
X54084Y328156D01*
X53712Y328712D01*
X53156Y329084D01*
X52500Y329214D01*
D02*
G37*
G36*
X32500Y327530D02*
X31586Y327410D01*
X30735Y327057D01*
X30004Y326496D01*
X29443Y325765D01*
X29090Y324914D01*
X28970Y324000D01*
X29090Y323086D01*
X29443Y322235D01*
X30004Y321504D01*
X30735Y320943D01*
X31586Y320590D01*
X32500Y320470D01*
X33414Y320590D01*
X34265Y320943D01*
X34996Y321504D01*
X35557Y322235D01*
X35910Y323086D01*
X36030Y324000D01*
X35910Y324914D01*
X35557Y325765D01*
X34996Y326496D01*
X34265Y327057D01*
X33414Y327410D01*
X32500Y327530D01*
D02*
G37*
G36*
X59500Y305547D02*
X58064Y305358D01*
X56726Y304804D01*
X55577Y303923D01*
X54696Y302774D01*
X54142Y301436D01*
X53952Y300000D01*
X54142Y298564D01*
X54696Y297226D01*
X55577Y296077D01*
X56726Y295196D01*
X58064Y294642D01*
X59500Y294453D01*
X60936Y294642D01*
X62274Y295196D01*
X63423Y296077D01*
X64304Y297226D01*
X64858Y298564D01*
X65048Y300000D01*
X64858Y301436D01*
X64304Y302774D01*
X63423Y303923D01*
X62274Y304804D01*
X60936Y305358D01*
X59500Y305547D01*
D02*
G37*
G36*
X34500Y297085D02*
X33701Y296980D01*
X32957Y296672D01*
X32318Y296182D01*
X31828Y295543D01*
X31520Y294799D01*
X31415Y294000D01*
X31520Y293201D01*
X31828Y292457D01*
X32318Y291818D01*
X32957Y291328D01*
X33701Y291020D01*
X34500Y290915D01*
X35299Y291020D01*
X36043Y291328D01*
X36682Y291818D01*
X37172Y292457D01*
X37480Y293201D01*
X37585Y294000D01*
X37480Y294799D01*
X37172Y295543D01*
X36682Y296182D01*
X36043Y296672D01*
X35299Y296980D01*
X34500Y297085D01*
D02*
G37*
%LPD*%
D18*
X17000Y169000D02*
X56000D01*
Y161500D02*
Y169000D01*
X86000D01*
X-8130Y173059D02*
X12941D01*
X17000Y169000D01*
X136500Y213000D02*
X141500Y218000D01*
X136500Y179500D02*
Y213000D01*
X133000Y176000D02*
X136500Y179500D01*
X93000Y176000D02*
X133000D01*
X86000Y169000D02*
X93000Y176000D01*
X156221Y173000D02*
X173500D01*
X267000Y282500D02*
X279000D01*
X136331Y155831D02*
X155500Y175000D01*
X157000Y171000D02*
X175000D01*
X147500Y141000D02*
Y161500D01*
X140181Y156960D02*
X156221Y173000D01*
X155500Y175000D02*
X172500D01*
X222500Y361500D02*
X277699D01*
X147500Y161500D02*
X157000Y171000D01*
X140181Y136681D02*
Y156960D01*
X131965Y155831D02*
X136331D01*
X160344Y125921D02*
X171276D01*
X158959Y127305D02*
X160344Y125921D01*
X175000Y119138D02*
Y123000D01*
Y119138D02*
X176591Y117546D01*
Y114912D02*
Y117546D01*
Y114912D02*
X176682Y114821D01*
X172448Y123000D02*
X175000D01*
X171862Y123586D02*
X172448Y123000D01*
X171862Y123586D02*
Y123792D01*
X171276Y124378D02*
X171862Y123792D01*
X160378Y124378D02*
X171276D01*
X159500Y123500D02*
X160378Y124378D01*
X177198Y126153D02*
X178146D01*
X171717Y126362D02*
X176989D01*
X177198Y126153D01*
X171276Y125921D02*
X171717Y126362D01*
X181800Y88300D02*
Y92380D01*
X178000Y84500D02*
X181800Y88300D01*
X175000Y75000D02*
X178000Y78000D01*
Y84500D01*
X174123Y92380D02*
X174214Y92290D01*
Y88287D02*
Y92290D01*
Y88287D02*
X178000Y84500D01*
X174000Y82701D02*
Y83500D01*
X169500Y78201D02*
X174000Y82701D01*
X152091Y155831D02*
X154405D01*
X152000Y155921D02*
X152091Y155831D01*
X152000Y155921D02*
Y160000D01*
X149500Y160500D02*
X158000Y169000D01*
X149500Y151298D02*
Y160500D01*
X158000Y169000D02*
X176000D01*
X169297Y101000D02*
X177631D01*
X267723Y76277D02*
X271032Y79585D01*
X167414Y111257D02*
Y111293D01*
X168500Y109854D02*
Y110171D01*
X146500Y103500D02*
X161831D01*
X171817D02*
X186000D01*
X166536Y112171D02*
Y114731D01*
Y112171D02*
X167414Y111293D01*
X168608Y100311D02*
X169297Y101000D01*
X161762Y107673D02*
X171887D01*
X171939Y105500D02*
X206406D01*
X82500Y101000D02*
X125394D01*
X126083Y100311D01*
X89000Y98500D02*
X168919D01*
X169919Y99500D02*
X173900D01*
X167414Y111257D02*
X168500Y110171D01*
X171887Y107673D02*
X172560Y107000D01*
X162383Y106173D02*
X171265D01*
X171939Y105500D01*
X161831Y103500D02*
X163005Y104673D01*
X126083Y100311D02*
X168608D01*
X166446Y114821D02*
X166536Y114731D01*
X188500Y107000D02*
X212000Y130500D01*
X143500Y107500D02*
X161589D01*
X206406Y105500D02*
X213130Y112224D01*
X145050Y105681D02*
X161891D01*
X266447Y75000D02*
X267723Y76277D01*
X161589Y107500D02*
X161762Y107673D01*
X172560Y107000D02*
X188500D01*
X161891Y105681D02*
X162383Y106173D01*
X163005Y104673D02*
X170644D01*
X171817Y103500D01*
X168919Y98500D02*
X169919Y99500D01*
X177631Y101000D02*
X178631Y100000D01*
X173900Y99500D02*
X175849Y97551D01*
X295500Y50129D02*
Y59500D01*
X298366Y47144D02*
Y47262D01*
X295500Y50129D02*
X298366Y47262D01*
X-17059Y170311D02*
X-16870Y170500D01*
X-18562Y170311D02*
X-17059D01*
X-18629Y170244D02*
X-18562Y170311D01*
X-49027Y170244D02*
X-18629D01*
X-3000Y166713D02*
Y167500D01*
Y166713D02*
X-634Y164347D01*
X-546D01*
X2512Y167500D02*
Y168287D01*
X146Y170653D02*
X2512Y168287D01*
X58Y170653D02*
X146D01*
X-8130Y167941D02*
X-3441D01*
X-3000Y167500D01*
X-23000Y173012D02*
X-23000Y173012D01*
X-23000Y173012D02*
Y176000D01*
X-23000Y173012D02*
X-22953Y173059D01*
X-16870D01*
X-21772Y167941D02*
X-16870D01*
X-22213Y167500D02*
X-21772Y167941D01*
X-21138Y165638D02*
Y166425D01*
X34500Y110000D02*
X40500D01*
X-21138Y165638D02*
X34500Y110000D01*
X-22213Y167500D02*
X-21138Y166425D01*
X167299Y154000D02*
Y154622D01*
X166421Y155500D02*
X167299Y154622D01*
X164500Y155500D02*
X166421D01*
X143000Y104000D02*
X143369D01*
X145050Y105681D01*
X270988Y109500D02*
X271988Y110500D01*
X268500Y109500D02*
X270988D01*
X266500Y113500D02*
X266747Y113747D01*
X269181D01*
X269434Y114000D01*
X212000Y130500D02*
X217000D01*
X236819Y130681D02*
X239000Y128500D01*
X217181Y130681D02*
X236819D01*
X217000Y130500D02*
X217181Y130681D01*
X274787Y114000D02*
X277500Y111287D01*
X269434Y114000D02*
X274787D01*
X279097Y120903D02*
X283090D01*
X277500Y111287D02*
X280469Y114256D01*
X282243Y120056D02*
X283090Y120903D01*
X280469Y118318D02*
X282207Y120056D01*
X277500Y110500D02*
Y111287D01*
X283090Y120903D02*
X285748D01*
X282207Y120056D02*
X282243D01*
X280469Y114256D02*
Y118318D01*
X277500Y122500D02*
X279097Y120903D01*
X192593Y165724D02*
X213721D01*
X191869Y165000D02*
X192593Y165724D01*
X191500Y165000D02*
X191869D01*
X154453Y145547D02*
X161047D01*
X161500Y146000D01*
X154405Y143035D02*
X160596D01*
X161131Y142500D01*
X161500D01*
X154405Y145595D02*
X154453Y145547D01*
X211788Y138000D02*
X212000Y137787D01*
X208500Y138000D02*
X211788D01*
X206205Y96193D02*
X206992D01*
X208067Y95118D01*
Y94331D02*
Y95118D01*
Y94331D02*
X208239Y94158D01*
Y93261D02*
Y94158D01*
Y93261D02*
X208500Y93000D01*
X260500Y351500D02*
Y355000D01*
X215215Y308000D02*
X217988D01*
X214215Y307000D02*
X215215Y308000D01*
X214000Y307000D02*
X214215D01*
X272369Y276000D02*
X276000D01*
X271576Y276792D02*
X272369Y276000D01*
X271208Y276792D02*
X271576D01*
X208075Y260488D02*
X208500D01*
X207000Y259413D02*
X208075Y260488D01*
X207000Y257500D02*
Y259413D01*
X196000Y198500D02*
Y335000D01*
X172500Y175000D02*
X196000Y198500D01*
X218839Y303500D02*
X224500Y309161D01*
X199000Y198500D02*
Y293500D01*
X173500Y173000D02*
X199000Y198500D01*
Y293500D02*
X209000Y303500D01*
X218839D01*
X201500Y278500D02*
X215500Y292500D01*
X175000Y171000D02*
X201500Y197500D01*
Y278500D01*
X176000Y169000D02*
X203500Y196500D01*
X207713Y266000D02*
X208500D01*
X203500Y261788D02*
X207713Y266000D01*
X203500Y196500D02*
Y261788D01*
X180512Y123000D02*
Y123787D01*
X178146Y126153D02*
X180512Y123787D01*
X184131Y110181D02*
X184500D01*
X182450Y108500D02*
X184131Y110181D01*
X173181Y108500D02*
X182450D01*
X171500Y110181D02*
X173181Y108500D01*
X168500Y128299D02*
X169484D01*
X170362Y129177D01*
Y130161D01*
X170739Y130539D01*
Y131739D01*
X171000Y132000D01*
X167299Y134500D02*
Y135484D01*
X166421Y136362D02*
X167299Y135484D01*
X164638Y136362D02*
X166421D01*
X164500Y136500D02*
X164638Y136362D01*
X154405Y132799D02*
X156965D01*
X160264Y129500D01*
X164000D01*
X119201Y134500D02*
Y135484D01*
X116500Y138185D02*
X119201Y135484D01*
X116500Y138185D02*
Y149000D01*
X136632Y137959D02*
X138000Y139327D01*
Y151500D01*
X124213Y146512D02*
X125000D01*
X122461Y144761D02*
X124213Y146512D01*
X121261Y144761D02*
X122461D01*
X121000Y144500D02*
X121261Y144761D01*
X125917Y145595D02*
X131965D01*
X125000Y146512D02*
X125917Y145595D01*
X127429Y148154D02*
X131965D01*
X125787Y146512D02*
X127429Y148154D01*
X125000Y146512D02*
X125787D01*
X135358Y150622D02*
X135411Y150568D01*
X136733D01*
X137665Y151500D01*
X138000D01*
X131965Y150713D02*
X132055Y150622D01*
X135358D01*
X129405Y150713D02*
X131965D01*
X136299Y132799D02*
X140181Y136681D01*
X205597Y133500D02*
X214799D01*
X189477Y117380D02*
X205597Y133500D01*
X214799D02*
X217512Y136213D01*
Y137000D02*
Y137787D01*
Y136213D02*
Y137000D01*
Y137787D02*
X222969Y143244D01*
Y149100D01*
X223869Y150000D01*
X265000Y66488D02*
X265000Y66488D01*
Y63500D02*
Y66488D01*
X213721Y177216D02*
Y178221D01*
Y170842D02*
Y177216D01*
X214188D01*
X211000D02*
X213721D01*
X214188D02*
X214256Y177283D01*
X228725Y173445D02*
Y181083D01*
X227756Y178996D02*
Y179783D01*
X225907Y177148D02*
X227756Y178996D01*
X224648Y177148D02*
X225907D01*
X224500Y177000D02*
X224648Y177148D01*
X361693Y209819D02*
X416738Y264864D01*
Y277178D01*
X221812Y209819D02*
X361693D01*
X7500Y339000D02*
Y366000D01*
X227748Y103580D02*
Y106139D01*
X298356Y104892D02*
X298465Y104783D01*
X296108Y104892D02*
X298356D01*
X296000Y105000D02*
X296108Y104892D01*
X417000Y311500D02*
X419000Y313500D01*
X417000Y304000D02*
X419000Y302000D01*
X417000Y304000D02*
Y311500D01*
Y300000D02*
X419000Y302000D01*
X417000Y292500D02*
X419000Y290500D01*
X417000Y292500D02*
Y300000D01*
Y288500D02*
X419000Y290500D01*
X417000Y284500D02*
Y288500D01*
X419000Y279500D02*
Y282500D01*
X417000Y284500D02*
X419000Y282500D01*
Y279440D02*
Y279500D01*
X416738Y277178D02*
X419000Y279440D01*
X413000Y111400D02*
X415400Y109000D01*
X413000Y118100D02*
X415400Y120500D01*
X413000Y111400D02*
Y118100D01*
X415400Y120500D02*
Y123100D01*
X414000Y124500D02*
X415400Y123100D01*
X415500Y131291D02*
Y131500D01*
X414000Y129791D02*
X415500Y131291D01*
X414000Y124500D02*
Y129791D01*
X413500Y133500D02*
X415500Y131500D01*
X413500Y141100D02*
X415400Y143000D01*
X413500Y133500D02*
Y141100D01*
X361693Y209819D02*
X415400Y156112D01*
Y143000D02*
Y156112D01*
X322814Y291500D02*
X323157D01*
X320314Y289000D02*
X322814Y291500D01*
X323791Y69000D02*
X324000D01*
X322979Y68187D02*
X323791Y69000D01*
X320673Y68187D02*
X322979D01*
X314402Y74219D02*
Y77861D01*
X307500Y70941D02*
X310157D01*
X311126Y71909D01*
X311466D01*
X312610Y73053D01*
X312843D01*
X314008Y74219D01*
X314402D01*
X313642Y68187D02*
X314402Y67427D01*
X311909Y68187D02*
X313642D01*
X311715Y68382D02*
X311909Y68187D01*
X307500Y68382D02*
X311715D01*
X313524Y70191D01*
Y70585D01*
X314008Y71069D01*
X314402D01*
X320170Y61644D02*
X320526Y62000D01*
X323500D01*
X314658Y62432D02*
X316500Y64274D01*
Y64500D01*
X314658Y61644D02*
Y62432D01*
X311357Y65732D02*
X314658Y62432D01*
X307591Y65732D02*
X311357D01*
X307500Y65823D02*
X307591Y65732D01*
X292681Y43573D02*
X294254Y42000D01*
X292681Y43573D02*
Y70319D01*
X294254Y42000D02*
X299000D01*
X298366Y52656D02*
X299005Y53294D01*
Y55534D01*
X300500Y57029D01*
X301995Y52669D02*
X302008Y52656D01*
X301995Y52669D02*
Y55534D01*
X300500Y57029D02*
X301995Y55534D01*
X300500Y57029D02*
Y61000D01*
X302764Y63264D01*
X307500D01*
X303205Y60705D02*
X307500D01*
X302500Y60000D02*
X303205Y60705D01*
X302500Y57500D02*
Y60000D01*
Y57500D02*
X304674Y55326D01*
Y53140D02*
X305158Y52656D01*
X304674Y53140D02*
Y55326D01*
X305158Y52656D02*
X308800D01*
X285650Y73500D02*
X288307D01*
X289366Y72441D01*
Y72000D02*
Y72441D01*
X285650Y70941D02*
X288307D01*
X289366Y72000D01*
X291000D01*
X292681Y70319D01*
X301524Y46660D02*
X302008Y47144D01*
X301524Y44524D02*
Y46660D01*
X299000Y42000D02*
X301524Y44524D01*
X285650Y65823D02*
X285650Y65823D01*
X290472D01*
X290472Y65823D01*
X286627Y79628D02*
X286736Y79738D01*
X290870D01*
X291131Y80000D01*
X291500D01*
X291000Y93475D02*
X291170Y93644D01*
X291000Y90000D02*
Y93475D01*
X282500Y97000D02*
X286627Y92874D01*
Y87306D02*
Y92874D01*
X279693Y84703D02*
X279715Y84725D01*
X286605D01*
X286627Y84747D01*
X279693Y82144D02*
X279715Y82166D01*
X286605D01*
X286627Y82188D01*
X279651Y79542D02*
X279693Y79585D01*
X276542Y79542D02*
X279651D01*
X276500Y79500D02*
X276542Y79542D01*
X277670Y90357D02*
Y91144D01*
X275919Y88605D02*
X277670Y90357D01*
X275919Y87720D02*
Y88605D01*
X275658Y87459D02*
X275919Y87720D01*
X271802Y91500D02*
X272158Y91144D01*
X269000Y91500D02*
X271802D01*
X271622Y84703D02*
Y90609D01*
X272158Y91144D01*
X213323Y112224D02*
X213610Y112512D01*
X213323Y112224D02*
X213721D01*
X213130D02*
X213323D01*
X213610Y112512D02*
Y114390D01*
X213500Y114500D02*
X213610Y114390D01*
X213757Y108502D02*
X242741D01*
X213171Y109087D02*
Y109181D01*
Y109087D02*
X213757Y108502D01*
X242741D02*
X245103Y106139D01*
X249598D01*
X242506Y119945D02*
X244827D01*
X241822Y119261D02*
X242506Y119945D01*
X240761Y119261D02*
X241822D01*
X240500Y119000D02*
X240761Y119261D01*
X227748Y93344D02*
X232156D01*
X233500Y92000D01*
X254000Y88500D02*
Y89041D01*
Y83004D02*
Y88500D01*
X244827Y112268D02*
X246481D01*
X246746Y112002D01*
Y109754D02*
Y112002D01*
Y109754D02*
X247000Y109500D01*
X240465Y79783D02*
Y79902D01*
X239705Y80661D02*
X240465Y79902D01*
X238331Y80661D02*
X239705D01*
X237180Y81812D02*
X238331Y80661D01*
X236812Y81812D02*
X237180D01*
X227590Y90785D02*
X227748D01*
X227500Y90695D02*
X227590Y90785D01*
X227500Y88000D02*
Y90695D01*
X238500Y77000D02*
X245099D01*
X227500Y88000D02*
X238500Y77000D01*
X247256Y79390D02*
Y79783D01*
X246091Y78224D02*
X247256Y79390D01*
X246091Y77991D02*
Y78224D01*
X245099Y77000D02*
X246091Y77991D01*
X227748Y103580D02*
X232420D01*
X236181Y99819D01*
Y85775D02*
Y99819D01*
Y85775D02*
X237673Y84284D01*
X241821Y82479D02*
X242846Y81454D01*
Y81438D02*
X244106Y80177D01*
X239229Y82479D02*
X241821D01*
X237673Y84035D02*
Y84284D01*
X244106Y79783D02*
Y80177D01*
X242846Y81438D02*
Y81454D01*
X237673Y84035D02*
X239229Y82479D01*
X250898Y79783D02*
Y79902D01*
X254000Y83004D01*
X249598Y90785D02*
X252256D01*
X254000Y89041D01*
X261894Y110500D02*
X262012D01*
X259394Y113000D02*
X261894Y110500D01*
X250693Y113000D02*
X259394D01*
X249914Y112221D02*
X250693Y113000D01*
X249598Y112221D02*
X249914D01*
X244827Y114827D02*
Y117386D01*
X249598Y106139D02*
Y112221D01*
X246992Y114827D02*
X249598Y112221D01*
X244827Y114827D02*
X246992D01*
X256106Y106858D02*
X256500Y107252D01*
Y110500D01*
X249598Y103580D02*
X252256D01*
X253224Y104549D01*
X253564D01*
X254708Y105693D01*
X254941D01*
X256106Y106858D01*
X256500D01*
X255740Y100827D02*
X256500Y100067D01*
X254007Y100827D02*
X255740D01*
X253813Y101021D02*
X254007Y100827D01*
X249598Y101021D02*
X253813D01*
X255622Y102831D01*
Y103224D01*
X256106Y103709D01*
X256500D01*
X247256Y85295D02*
X250898D01*
X240465D02*
X241224Y86055D01*
Y87396D01*
X242914Y89086D01*
X249508Y95813D02*
X249598Y95903D01*
X245813Y95813D02*
X249508D01*
X242914Y92914D02*
X245813Y95813D01*
X242914Y89086D02*
X244106Y87894D01*
X242914Y89086D02*
Y92914D01*
X244106Y85295D02*
Y87894D01*
X244694Y89865D02*
X246772Y87787D01*
X246941Y93344D02*
X249598D01*
X246094Y92497D02*
X246941Y93344D01*
X246057Y92497D02*
X246094D01*
X244694Y91133D02*
X246057Y92497D01*
X244694Y89865D02*
Y91133D01*
X246772Y85780D02*
X247256Y85295D01*
X246772Y85780D02*
Y87787D01*
X227748Y90785D02*
Y93344D01*
X219500Y92500D02*
X224246D01*
X225090Y93344D01*
X227748D01*
X262000Y94016D02*
X262268Y94283D01*
X262000Y90000D02*
Y94016D01*
X256756Y94283D02*
X257000Y94039D01*
Y90000D02*
Y94039D01*
X256756Y94283D02*
Y95071D01*
X253455Y98372D02*
X256756Y95071D01*
X249689Y98372D02*
X253455D01*
X249598Y98462D02*
X249689Y98372D01*
X227748Y98462D02*
X230405D01*
X231374Y97494D01*
X231506D01*
X233500Y95500D01*
X228725Y112268D02*
X228835Y112378D01*
X232878D01*
X233000Y112500D01*
X233268Y125496D02*
Y126283D01*
X231761Y123989D02*
X233268Y125496D01*
X231761Y123261D02*
Y123989D01*
X231500Y123000D02*
X231761Y123261D01*
X227325Y119945D02*
X228725D01*
X227059Y120211D02*
X227325Y119945D01*
X227059Y120211D02*
Y125941D01*
X224500Y128500D02*
X227059Y125941D01*
X221791Y117342D02*
X221813Y117364D01*
X228703D01*
X228725Y117386D01*
X221791Y114783D02*
X221813Y114805D01*
X228703D01*
X228725Y114827D01*
X221679Y112112D02*
X221791Y112224D01*
X218612Y112112D02*
X221679D01*
X218500Y112000D02*
X218612Y112112D01*
X219768Y122996D02*
Y123783D01*
X218017Y121245D02*
X219768Y122996D01*
X218017Y120359D02*
Y121245D01*
X217756Y120098D02*
X218017Y120359D01*
X213721Y117342D02*
Y125221D01*
X216000Y127500D01*
X319286Y115000D02*
Y116837D01*
X321000Y118551D01*
X315288Y114288D02*
Y114657D01*
X316500Y115869D01*
X315831Y116538D02*
X316500Y115869D01*
X315831Y116538D02*
Y118209D01*
X314756Y119283D02*
X315831Y118209D01*
X319252Y124307D02*
X320012Y125067D01*
X318767Y124307D02*
X319252D01*
X317500Y123040D02*
X318767Y124307D01*
X317500Y123000D02*
Y123040D01*
X266768Y132862D02*
X271130Y137224D01*
X262406Y128500D02*
X266768Y132862D01*
X281286Y133500D02*
X289500D01*
X291861Y131139D01*
X279201Y137224D02*
X279791D01*
X278286Y135369D02*
X278913Y135996D01*
Y136937D02*
X279201Y137224D01*
X278913Y135996D02*
Y136937D01*
X278286Y135000D02*
Y135369D01*
X303500Y134500D02*
Y137002D01*
X297500Y143131D02*
X299204Y144835D01*
X297500Y141000D02*
Y143131D01*
X299204Y144835D02*
X302717D01*
X289000Y147500D02*
Y147551D01*
X292000Y150551D01*
X286725Y144945D02*
Y152583D01*
X286641Y152500D02*
X286725Y152583D01*
X282000Y152500D02*
X286641D01*
X302717Y144835D02*
X302827Y144945D01*
X285748Y118344D02*
X285838Y118254D01*
X292247D01*
X292500Y118000D01*
X302827Y137268D02*
X303235D01*
X303500Y137002D01*
X291861Y131139D02*
X307598D01*
X308377Y138000D02*
X317394D01*
X307598Y137221D02*
X308377Y138000D01*
X319894Y135500D02*
X320012D01*
X317394Y138000D02*
X319894Y135500D01*
X302827Y139827D02*
Y142386D01*
X307598Y131139D02*
Y137221D01*
X304992Y139827D02*
X307598Y137221D01*
X302827Y139827D02*
X304992D01*
X314500Y131858D02*
Y135500D01*
X307598Y128580D02*
X310256D01*
X311224Y129549D01*
X311564D01*
X312708Y130693D01*
X312941D01*
X314106Y131858D01*
X314500D01*
X312500Y126021D02*
X313427D01*
X307598D02*
X312500D01*
X314106Y128709D02*
X314500D01*
X312500Y127102D02*
X314106Y128709D01*
X312500Y126021D02*
Y127102D01*
X313427Y126021D02*
X314382Y125067D01*
X314500D01*
X320268Y119283D02*
X321000Y118551D01*
X313681Y120358D02*
X314756Y119283D01*
X313681Y120358D02*
Y121819D01*
X307598Y123462D02*
X312038D01*
X313681Y121819D01*
X285591Y115785D02*
X285748D01*
X285500Y115695D02*
X285591Y115785D01*
X285500Y111000D02*
Y115695D01*
X294500Y102000D02*
X303099D01*
X285500Y111000D02*
X294500Y102000D01*
X305256Y104390D02*
Y104783D01*
X304090Y103224D02*
X305256Y104390D01*
X304090Y102991D02*
Y103224D01*
X303099Y102000D02*
X304090Y102991D01*
X285748Y128580D02*
Y131139D01*
X296000Y108500D02*
Y123084D01*
X290504Y128580D02*
X296000Y123084D01*
X285748Y128580D02*
X290504D01*
X296000Y108500D02*
X296961Y107539D01*
X299761D01*
X302106Y104783D02*
Y105177D01*
X300846Y106438D02*
X302106Y105177D01*
X300846Y106438D02*
Y106454D01*
X299761Y107539D02*
X300846Y106454D01*
X311996Y108000D02*
Y113504D01*
X307598Y115785D02*
X310256D01*
X310346Y115695D01*
Y115154D02*
Y115695D01*
Y115154D02*
X311996Y113504D01*
X308898Y104783D02*
Y104902D01*
X311996Y108000D01*
X305256Y110295D02*
X308898D01*
X298465D02*
Y110413D01*
X300059Y112008D01*
Y112559D01*
X301000Y113500D01*
X307508Y120813D02*
X307598Y120903D01*
X303813Y120813D02*
X307508D01*
X301000Y118000D02*
X303813Y120813D01*
X301000Y113500D02*
Y118000D01*
Y113500D02*
X301622Y112878D01*
Y110780D02*
X302106Y110295D01*
X301622Y110780D02*
Y112878D01*
X303194Y114365D02*
X304772Y112787D01*
X304941Y118344D02*
X307598D01*
X304094Y117497D02*
X304941Y118344D01*
X304057Y117497D02*
X304094D01*
X303194Y116633D02*
X304057Y117497D01*
X303194Y114365D02*
Y116633D01*
X304772Y110780D02*
X305256Y110295D01*
X304772Y110780D02*
Y112787D01*
X286703Y139805D02*
X286725Y139827D01*
X279813Y139805D02*
X286703D01*
X279791Y139783D02*
X279813Y139805D01*
X286703Y142364D02*
X286725Y142386D01*
X279813Y142364D02*
X286703D01*
X279791Y142342D02*
X279813Y142364D01*
X285748Y115785D02*
Y118344D01*
X277500Y117500D02*
X278344Y118344D01*
X290915Y122000D02*
X293681D01*
X285748Y123462D02*
X288405D01*
X289374Y122494D01*
X290422D01*
X290915Y122000D01*
X291268Y151283D02*
X292000Y150551D01*
X286725Y137268D02*
X286835Y137378D01*
X291378D01*
X291500Y137500D01*
X277768Y148575D02*
Y148783D01*
Y148575D02*
X278842Y147500D01*
X280500D01*
X271721Y142342D02*
Y149721D01*
X274500Y152500D01*
X184359Y114821D02*
X184430Y114751D01*
Y110251D02*
Y114751D01*
Y110251D02*
X184500Y110181D01*
X175403Y110097D02*
X178414D01*
X179150Y114731D02*
X179241Y114821D01*
X179150Y110833D02*
Y114731D01*
X178414Y110097D02*
X179150Y110833D01*
X174214Y111286D02*
X175403Y110097D01*
X174123Y114821D02*
X174214Y114731D01*
Y111286D02*
Y114731D01*
X171532Y114789D02*
X171564Y114821D01*
X171532Y110213D02*
Y114789D01*
X171500Y110181D02*
X171532Y110213D01*
X181800Y114821D02*
Y120924D01*
X180512Y122213D02*
X181800Y120924D01*
X179241Y114821D02*
Y120942D01*
X180512Y122213D01*
Y123000D01*
X186918Y114821D02*
Y121418D01*
X187500Y122000D01*
Y125500D02*
Y128299D01*
X169005Y114821D02*
Y121495D01*
X168500Y122000D02*
X169005Y121495D01*
X212469Y153032D02*
X214500Y151000D01*
X212117Y153032D02*
X212469D01*
X210307Y154842D02*
X212117Y153032D01*
X210307Y154842D02*
Y158500D01*
X214307Y162500D02*
X233500D01*
X210307Y158500D02*
X214307Y162500D01*
X236361Y159639D02*
X249598D01*
X233500Y162500D02*
X236361Y159639D01*
X244772Y173500D02*
X244827Y173445D01*
X241500Y173500D02*
X244772D01*
X239500Y171500D02*
X241500Y173500D01*
X233344Y146844D02*
X233500Y147000D01*
X227748Y146844D02*
X233344D01*
X254000Y136504D02*
Y141500D01*
Y142541D01*
X252256Y144285D02*
X254000Y142541D01*
X244827Y165768D02*
X246231D01*
X246496Y165502D01*
Y163504D02*
Y165502D01*
Y163504D02*
X246500Y163500D01*
X261894Y164000D02*
X262012D01*
X259531Y166362D02*
X261894Y164000D01*
X250239Y166362D02*
X259531D01*
X249598Y165721D02*
X250239Y166362D01*
X244827Y168327D02*
Y170886D01*
X249598Y159639D02*
Y165721D01*
X246992Y168327D02*
X249598Y165721D01*
X244827Y168327D02*
X246992D01*
X256500Y160358D02*
Y164000D01*
X249598Y157080D02*
X252256D01*
X253224Y158049D01*
X253564D01*
X254708Y159193D01*
X254941D01*
X256106Y160358D01*
X256500D01*
X255740Y154327D02*
X256500Y153567D01*
X254007Y154327D02*
X255740D01*
X253813Y154521D02*
X254007Y154327D01*
X249598Y154521D02*
X253813D01*
X255622Y156331D01*
Y156724D01*
X256106Y157209D01*
X256500D01*
X227748Y151962D02*
X232285D01*
X233247Y151000D01*
X233500D01*
X285650Y293323D02*
X288307D01*
X289276Y292354D01*
X289312D01*
X290558Y291108D01*
Y290495D02*
Y291108D01*
Y290495D02*
X290819Y290234D01*
X290782Y350718D02*
X291042Y350458D01*
X285650Y351823D02*
X288307D01*
X289411Y350718D01*
X290782D01*
X229748Y320962D02*
X229838Y320872D01*
X233675D01*
X234589Y319958D01*
X234958D01*
X237500Y322000D02*
X237586Y322086D01*
X237500Y302500D02*
X240094Y299905D01*
X237500Y302500D02*
Y322000D01*
X230748Y259462D02*
X230838Y259372D01*
X234760D01*
X235631Y258500D01*
X236000D01*
X262268Y147784D02*
X262484Y148000D01*
X265500D01*
X258000Y142319D02*
Y142677D01*
X256756Y143921D02*
Y147784D01*
Y143921D02*
X258000Y142677D01*
X256756Y147784D02*
Y148571D01*
X253455Y151872D02*
X256756Y148571D01*
X249689Y151872D02*
X253455D01*
X249598Y151962D02*
X249689Y151872D01*
X249598Y144285D02*
X252256D01*
X250898Y133283D02*
Y133402D01*
X254000Y136504D01*
X247256Y138795D02*
X250898D01*
X240465D02*
Y138913D01*
X243500Y141949D01*
Y142000D01*
X249508Y149494D02*
X249598Y149403D01*
X245506Y149494D02*
X249508D01*
X245500Y149500D02*
X245506Y149494D01*
X243500Y142000D02*
Y147500D01*
X245500Y149500D01*
X244106Y138795D02*
Y141394D01*
X243500Y142000D02*
X244106Y141394D01*
X249508Y146754D02*
X249598Y146844D01*
X245754Y146754D02*
X249508D01*
X245000Y146000D02*
X245754Y146754D01*
X245000Y143059D02*
Y146000D01*
Y143059D02*
X246772Y141287D01*
Y139279D02*
X247256Y138795D01*
X246772Y139279D02*
Y141287D01*
X240465Y133283D02*
Y133402D01*
X239705Y134161D02*
X240465Y133402D01*
X238717Y134161D02*
X239705D01*
X235500Y137379D02*
X238717Y134161D01*
X235500Y137379D02*
Y137500D01*
X227748Y157080D02*
Y159639D01*
Y157080D02*
X234920D01*
X238000Y154000D01*
Y137000D02*
Y154000D01*
X239000Y136000D02*
X243000D01*
X238000Y137000D02*
X239000Y136000D01*
X243622Y133768D02*
X244106Y133283D01*
X243622Y133768D02*
Y135378D01*
X243000Y136000D02*
X243622Y135378D01*
X227748Y140252D02*
Y144285D01*
Y140252D02*
X232500Y135500D01*
X234196D02*
X239323Y130373D01*
X232500Y135500D02*
X234196D01*
X247256Y132890D02*
Y133283D01*
X246091Y131724D02*
X247256Y132890D01*
X246091Y131491D02*
Y131724D01*
X244972Y130373D02*
X246091Y131491D01*
X239323Y130373D02*
X244972D01*
X227748Y144285D02*
Y146844D01*
X219500Y146000D02*
X220344Y146844D01*
X228703Y168305D02*
X228725Y168327D01*
X221813Y168305D02*
X228703D01*
X221791Y168283D02*
X221813Y168305D01*
X228703Y170864D02*
X228725Y170886D01*
X221813Y170864D02*
X228703D01*
X221791Y170842D02*
X221813Y170864D01*
X233268Y179783D02*
X233500Y179551D01*
Y175500D02*
Y179551D01*
X228725Y165768D02*
X228835Y165878D01*
X233378D01*
X233500Y166000D01*
X221679Y165612D02*
X221791Y165724D01*
X218612Y165612D02*
X221679D01*
X218500Y165500D02*
X218612Y165612D01*
X219768Y176496D02*
Y177283D01*
X218017Y174745D02*
X219768Y176496D01*
X218017Y173859D02*
Y174745D01*
X217756Y173598D02*
X218017Y173859D01*
X189387Y92471D02*
X189477Y92380D01*
X189387Y92471D02*
Y96245D01*
X188500Y97131D02*
X189387Y96245D01*
X188500Y97131D02*
Y97500D01*
X166446Y92380D02*
Y92409D01*
X166355Y92500D02*
X166446Y92409D01*
X164500Y92500D02*
X166355D01*
X186918Y85378D02*
Y92380D01*
Y85378D02*
X187796Y84500D01*
X188000D01*
Y78201D02*
Y81000D01*
X169005Y84995D02*
Y92380D01*
Y84995D02*
X169500Y84500D01*
X252598Y251785D02*
X255256D01*
X257000Y250041D01*
X247827Y273268D02*
X249231D01*
X249496Y273002D01*
Y270504D02*
Y273002D01*
Y270504D02*
X249500Y270500D01*
X259500Y267858D02*
Y271500D01*
X252598Y264580D02*
X255256D01*
X256224Y265549D01*
X256564D01*
X257708Y266693D01*
X257941D01*
X259106Y267858D01*
X259500D01*
X257000Y262021D02*
X258428D01*
X252598D02*
X257000D01*
X259106Y264709D02*
X259500D01*
X257000Y262602D02*
X259106Y264709D01*
X257000Y262021D02*
Y262602D01*
X258428Y262021D02*
X259382Y261067D01*
X259500D01*
X265268Y255283D02*
X265551Y255000D01*
X268500D01*
X259756Y254496D02*
Y255283D01*
Y254496D02*
X262122Y252130D01*
X262210D01*
X259756Y255283D02*
Y256071D01*
X256455Y259372D02*
X259756Y256071D01*
X252689Y259372D02*
X256455D01*
X252598Y259462D02*
X252689Y259372D01*
X230748Y264580D02*
Y267139D01*
Y264580D02*
X230828Y264500D01*
X236584D01*
X238500Y240389D02*
Y262584D01*
X236584Y264500D02*
X238500Y262584D01*
X241688Y237201D02*
X245201D01*
X238500Y240389D02*
X241688Y237201D01*
X246622Y240299D02*
X247106Y240784D01*
X246622Y238622D02*
Y240299D01*
X245201Y237201D02*
X246622Y238622D01*
X243465Y240784D02*
Y240902D01*
X241102Y243264D02*
X243465Y240902D01*
X241102Y243264D02*
Y243539D01*
X257000Y244004D02*
Y250041D01*
X253898Y240902D02*
X257000Y244004D01*
X253898Y240784D02*
Y240902D01*
X250256Y246295D02*
X253898D01*
X246690Y251500D02*
Y253688D01*
Y246712D02*
Y251500D01*
X243465Y246295D02*
X244224Y247055D01*
Y249035D01*
X246690Y251500D01*
X249814Y256813D02*
X252508D01*
X246690Y246712D02*
X247106Y246295D01*
X246690Y253688D02*
X249814Y256813D01*
X252508D02*
X252598Y256903D01*
X248190Y249464D02*
X249091Y248563D01*
X249941Y254344D02*
X252598D01*
X249094Y253497D02*
X249941Y254344D01*
X249057Y253497D02*
X249094D01*
X248190Y252629D02*
X249057Y253497D01*
X248190Y249464D02*
Y252629D01*
X250256Y246295D02*
Y246689D01*
X249091Y247854D02*
X250256Y246689D01*
X249091Y247854D02*
Y248563D01*
X231725Y273268D02*
X231835Y273378D01*
X236378D01*
X236500Y273500D01*
X236268Y286496D02*
Y287283D01*
X234166Y284395D02*
X236268Y286496D01*
X234166Y283674D02*
Y284395D01*
X233906Y283414D02*
X234166Y283674D01*
X230756Y287283D02*
Y288071D01*
X233004Y290319D01*
X233153D01*
X231725Y280945D02*
Y286315D01*
X230756Y287283D02*
X231725Y286315D01*
X224679Y273112D02*
X224791Y273224D01*
X221612Y273112D02*
X224679D01*
X221500Y273000D02*
X221612Y273112D01*
X222768Y283996D02*
Y284783D01*
X221017Y282245D02*
X222768Y283996D01*
X221017Y281359D02*
Y282245D01*
X220756Y281098D02*
X221017Y281359D01*
X216721Y278342D02*
Y284948D01*
X219710Y287937D01*
X251598Y313285D02*
X254256D01*
X256000Y311541D01*
X259947Y296000D02*
X271032Y307085D01*
X302729Y307129D02*
X302734D01*
X303000Y306863D01*
Y304681D02*
Y306863D01*
X314402Y301719D02*
Y305361D01*
X307500Y298441D02*
X310157D01*
X311126Y299410D01*
X311466D01*
X312610Y300553D01*
X312843D01*
X314008Y301719D01*
X314402D01*
X313642Y295687D02*
X314402Y294928D01*
X311909Y295687D02*
X313642D01*
X311715Y295882D02*
X311909Y295687D01*
X307500Y295882D02*
X311715D01*
X313524Y297691D01*
Y298085D01*
X314008Y298569D01*
X314402D01*
X320170Y289144D02*
X320314Y289000D01*
X314658Y288357D02*
Y289144D01*
Y288357D02*
X316739Y286275D01*
Y285761D02*
Y286275D01*
Y285761D02*
X317000Y285500D01*
X314658Y289144D02*
Y289932D01*
X311357Y293232D02*
X314658Y289932D01*
X307591Y293232D02*
X311357D01*
X307500Y293323D02*
X307591Y293232D01*
X285650Y298441D02*
Y301000D01*
Y298441D02*
X291144D01*
X293000Y296585D01*
Y273000D02*
X294000Y272000D01*
X293000Y273000D02*
Y296585D01*
X294000Y272000D02*
X299774D01*
X302008Y274250D02*
Y274644D01*
X300748Y272990D02*
X302008Y274250D01*
X300748Y272973D02*
Y272990D01*
X299774Y272000D02*
X300748Y272973D01*
X298366Y274644D02*
Y274762D01*
X296004Y277124D02*
X298366Y274762D01*
X307500Y285646D02*
X310157D01*
X312000Y283803D01*
Y277963D02*
Y283803D01*
X308800Y274644D02*
Y274762D01*
X312000Y277963D01*
X305158Y280156D02*
X308800D01*
X298366D02*
X299034Y280823D01*
Y283034D01*
X300500Y284500D01*
X302008Y280156D02*
Y282992D01*
X300500Y284500D02*
X302008Y282992D01*
X300500Y284500D02*
Y288000D01*
X303264Y290764D02*
X307500D01*
X300500Y288000D02*
X303264Y290764D01*
X307410Y288114D02*
X307500Y288205D01*
X303614Y288114D02*
X307410D01*
X302500Y287000D02*
X303614Y288114D01*
X302500Y285000D02*
Y287000D01*
X304674Y280640D02*
X305158Y280156D01*
X304674Y280640D02*
Y282826D01*
X302500Y285000D02*
X304674Y282826D01*
X285658Y321144D02*
Y321931D01*
X288024Y324297D01*
X288111D01*
X285923Y314806D02*
X286627D01*
X285658Y315071D02*
X285923Y314806D01*
X285658Y315071D02*
Y321144D01*
X291170Y320357D02*
Y321144D01*
X288804Y317991D02*
X291170Y320357D01*
X288716Y317991D02*
X288804D01*
X286627Y307129D02*
X286691Y307064D01*
X291436D01*
X291500Y307000D01*
X286605Y309666D02*
X286627Y309688D01*
X279715Y309666D02*
X286605D01*
X279693Y309644D02*
X279715Y309666D01*
X279693Y312203D02*
X279715Y312225D01*
X286605D01*
X286627Y312247D01*
X279651Y307043D02*
X279693Y307085D01*
X276542Y307043D02*
X279651D01*
X276500Y307000D02*
X276542Y307043D01*
X277670Y318575D02*
Y318644D01*
Y318575D02*
X278744Y317500D01*
X280500D01*
X271622Y312203D02*
Y318808D01*
X274611Y321797D01*
X285650Y356941D02*
Y359500D01*
X222585Y365585D02*
X271622D01*
X268639Y355861D02*
X272402D01*
X266000Y358500D02*
X268639Y355861D01*
X293000Y359500D02*
X307500D01*
X300564Y373306D02*
X302729D01*
X297261Y370003D02*
X300564Y373306D01*
X297261Y367761D02*
Y370003D01*
X297000Y367500D02*
X297261Y367761D01*
X285650Y346705D02*
X285740Y346614D01*
X290386D01*
X290500Y346500D01*
X319796Y363861D02*
X319914D01*
X317536Y366120D02*
X319796Y363861D01*
X308039Y366120D02*
X317536D01*
X307500Y365582D02*
X308039Y366120D01*
X302729Y368188D02*
Y370747D01*
X307500Y359500D02*
Y365582D01*
X304894Y368188D02*
X307500Y365582D01*
X302729Y368188D02*
X304894D01*
X320169Y347628D02*
X320298Y347500D01*
X323000D01*
X314658Y346841D02*
Y347628D01*
Y346841D02*
X317024Y344475D01*
X317111D01*
X314658Y347628D02*
Y348415D01*
X311341Y351732D02*
X314658Y348415D01*
X307591Y351732D02*
X311341D01*
X307500Y351823D02*
X307591Y351732D01*
X305158Y332750D02*
Y333144D01*
X303992Y331585D02*
X305158Y332750D01*
X303992Y331352D02*
Y331585D01*
X301641Y329000D02*
X303992Y331352D01*
X285650Y339688D02*
Y344146D01*
Y339688D02*
X296337Y329000D01*
X301641D01*
X292059Y356941D02*
X293500Y355500D01*
X285650Y356941D02*
X292059D01*
X293500Y333959D02*
X296692Y330766D01*
X293500Y333959D02*
Y355500D01*
X302008Y332750D02*
Y333144D01*
X300748Y331490D02*
X302008Y332750D01*
X300748Y331473D02*
Y331490D01*
X300041Y330766D02*
X300748Y331473D01*
X296692Y330766D02*
X300041D01*
X297607Y333904D02*
X298366Y333144D01*
X297607Y333904D02*
Y334700D01*
X297078Y335228D02*
X297607Y334700D01*
X297078Y335228D02*
Y335597D01*
X301524Y339140D02*
X302008Y338656D01*
X301524Y339140D02*
Y340976D01*
X300500Y342000D02*
X301524Y340976D01*
X299126Y340626D02*
X300500Y342000D01*
X298366Y338656D02*
X299126Y339416D01*
Y340626D01*
X300500Y342000D02*
Y346500D01*
X303264Y349264D01*
X307500D01*
X304842Y346705D02*
X307500D01*
X303995Y345858D02*
X304842Y346705D01*
X303959Y345858D02*
X303995D01*
X303000Y344899D02*
X303959Y345858D01*
X303000Y342822D02*
Y344899D01*
X304674Y339140D02*
X305158Y338656D01*
X304674Y339140D02*
Y341148D01*
X303000Y342822D02*
X304674Y341148D01*
X305158Y338656D02*
X308800D01*
X285650Y344146D02*
Y346705D01*
X278246D02*
X285650D01*
X277402Y345861D02*
X278246Y346705D01*
X285658Y379644D02*
Y380431D01*
X288024Y382797D01*
X288111D01*
X285923Y373306D02*
X286627D01*
X285658Y373571D02*
X285923Y373306D01*
X285658Y373571D02*
Y379644D01*
X291170Y378857D02*
Y379644D01*
X288792Y376479D02*
X291170Y378857D01*
X288792Y376181D02*
Y376479D01*
X286627Y365629D02*
X286691Y365564D01*
X290936D01*
X291000Y365500D01*
X228715Y334768D02*
X230725D01*
X227520Y333574D02*
X228715Y334768D01*
X227520Y332853D02*
Y333574D01*
X227260Y332592D02*
X227520Y332853D01*
X279693Y365585D02*
X280284D01*
X281869Y364000D01*
X282000D01*
X277670Y377144D02*
X278632Y376181D01*
X281000D01*
X271622Y370703D02*
Y377308D01*
X274611Y380297D01*
X235268Y347996D02*
Y348783D01*
X232902Y345630D02*
X235268Y347996D01*
X232814Y345630D02*
X232902D01*
X229756Y348783D02*
Y349571D01*
X232122Y351937D01*
X232210D01*
X229756Y342711D02*
Y348783D01*
Y342711D02*
X230021Y342445D01*
X230725D01*
X223679Y334612D02*
X223791Y334724D01*
X221112Y334612D02*
X223679D01*
X221000Y334500D02*
X221112Y334612D01*
X221768Y345496D02*
Y346283D01*
X220017Y343745D02*
X221768Y345496D01*
X220017Y342859D02*
Y343745D01*
X219756Y342598D02*
X220017Y342859D01*
X216256Y346283D02*
Y347071D01*
X218622Y349437D01*
X218710D01*
X216256Y340130D02*
Y346283D01*
X215968Y339842D02*
X216256Y340130D01*
X215721Y339842D02*
X215968D01*
X230703Y337305D02*
X230725Y337327D01*
X223813Y337305D02*
X230703D01*
X223791Y337283D02*
X223813Y337305D01*
X230703Y339864D02*
X230725Y339886D01*
X223813Y339864D02*
X230703D01*
X223791Y339842D02*
X223813Y339864D01*
X229748Y326080D02*
Y328639D01*
Y326080D02*
X235754D01*
X237586Y324249D01*
Y322086D02*
Y324249D01*
X246106Y301890D02*
Y302284D01*
X244846Y300629D02*
X246106Y301890D01*
X244846Y300613D02*
Y300629D01*
X244139Y299905D02*
X244846Y300613D01*
X240094Y299905D02*
X244139D01*
X242465Y302284D02*
Y302402D01*
X240102Y304764D02*
X242465Y302402D01*
X240102Y304764D02*
Y305039D01*
X256000Y305504D02*
Y311541D01*
X252898Y302284D02*
Y302402D01*
X256000Y305504D01*
X246106Y307795D02*
Y308189D01*
X244500Y309795D02*
X246106Y308189D01*
X244500Y309795D02*
Y309949D01*
X242465Y307795D02*
Y307913D01*
X244500Y309949D01*
Y316000D01*
X246903Y318403D02*
X251598D01*
X244500Y316000D02*
X246903Y318403D01*
X249256Y307795D02*
X252898D01*
X248772Y308279D02*
X249256Y307795D01*
X248772Y308279D02*
Y310228D01*
X247000Y312000D02*
X248772Y310228D01*
X247000Y312000D02*
Y315000D01*
X251508Y315754D02*
X251598Y315844D01*
X247754Y315754D02*
X251508D01*
X247000Y315000D02*
X247754Y315754D01*
X264268Y315996D02*
Y316783D01*
X261902Y313630D02*
X264268Y315996D01*
X261814Y313630D02*
X261902D01*
X258756Y316783D02*
Y317571D01*
X261256Y320071D01*
Y320205D01*
X255455Y320872D02*
X258756Y317571D01*
X251689Y320872D02*
X255455D01*
X251598Y320962D02*
X251689Y320872D01*
X257740Y323327D02*
X258500Y322567D01*
X256007Y323327D02*
X257740D01*
X255813Y323521D02*
X256007Y323327D01*
X251598Y323521D02*
X255813D01*
X257622Y325331D01*
Y325724D01*
X258106Y326209D01*
X258500D01*
Y329358D02*
Y333000D01*
X251598Y326080D02*
X254256D01*
X255224Y327049D01*
X255564D01*
X256708Y328193D01*
X256941D01*
X258106Y329358D01*
X258500D01*
X151847Y148154D02*
X154405D01*
X150999Y147306D02*
X151847Y148154D01*
X150963Y147306D02*
X150999D01*
X149942Y146285D02*
X150963Y147306D01*
X149942Y144576D02*
Y146285D01*
X149681Y144315D02*
X149942Y144576D01*
X151847Y140477D02*
X154405D01*
X150999Y141324D02*
X151847Y140477D01*
X150963Y141324D02*
X150999D01*
X149942Y142345D02*
X150963Y141324D01*
X149942Y142345D02*
Y144054D01*
X149681Y144315D02*
X149942Y144054D01*
X167299Y154000D02*
X167400Y154100D01*
X167299Y133878D02*
Y134500D01*
X166421Y133000D02*
X167299Y133878D01*
X154405Y135358D02*
X156965D01*
X157823Y134500D01*
X161000D01*
X119000Y153500D02*
Y154484D01*
X119878Y155362D01*
X121862D01*
X122000Y155500D01*
X119201Y133878D02*
Y134500D01*
Y133878D02*
X120079Y133000D01*
X125000Y141000D02*
X127992D01*
X125000D02*
X125622Y141622D01*
X127992D01*
X131965Y137917D02*
X132006Y137959D01*
X136632D01*
X129405Y143035D02*
X131965D01*
X127992Y141622D02*
X129405Y143035D01*
X125527Y153272D02*
X131965D01*
X125299Y153500D02*
X125527Y153272D01*
X126358Y135358D02*
X131965D01*
X125500Y134500D02*
X126358Y135358D01*
X217500Y56500D02*
X221500Y60500D01*
X117500Y56500D02*
X217500D01*
X220500Y55000D02*
X224000Y58500D01*
X116440Y55000D02*
X220500D01*
X223500Y53500D02*
X226500Y56500D01*
X115000Y53500D02*
X223500D01*
X226500Y52000D02*
X229000Y54500D01*
X114000Y52000D02*
X226500D01*
X231257Y52500D02*
X231500D01*
X229257Y50500D02*
X231257Y52500D01*
X112167Y50500D02*
X229257D01*
X230879Y50000D02*
X274000D01*
X276500Y47500D01*
X111500Y49000D02*
X229879D01*
X230879Y50000D01*
X253500Y48500D02*
X255000Y47000D01*
X231500Y48500D02*
X253500D01*
X230500Y47500D02*
X231500Y48500D01*
X87500Y75167D02*
X112167Y50500D01*
X87940Y83500D02*
X116440Y55000D01*
X87415Y83500D02*
X87940D01*
X83761Y87155D02*
X87415Y83500D01*
X88008Y77992D02*
X114000Y52000D01*
X89500Y64000D02*
X90879D01*
X108879Y46000D01*
X233500D01*
X109500Y47500D02*
X230500D01*
X87500Y69500D02*
X109500Y47500D01*
X87667Y80833D02*
X115000Y53500D01*
X87500Y86500D02*
X117500Y56500D01*
X83500Y72500D02*
X83681Y72319D01*
Y69819D02*
Y72319D01*
Y69819D02*
X89500Y64000D01*
X83761Y80871D02*
X86639Y77992D01*
X88008D01*
X88000Y72500D02*
X111500Y49000D01*
X83761Y75324D02*
X86585Y72500D01*
X88000D01*
X87500Y86500D02*
X87500D01*
X87500Y80833D02*
X87667D01*
X83500Y78000D02*
X83761Y77739D01*
Y75324D02*
Y77739D01*
X83500Y83500D02*
X83761Y83239D01*
Y80871D02*
Y83239D01*
Y87155D02*
Y88739D01*
X83500Y89000D02*
X83761Y88739D01*
X-37293Y176543D02*
X-37000Y176250D01*
X-49027Y176543D02*
X-37293D01*
X-1051Y132449D02*
X-1000Y132500D01*
X-49027Y132449D02*
X-1051D01*
X227748Y154521D02*
X227758Y154511D01*
X233489D01*
X233500Y154500D01*
X285748Y126021D02*
X289979D01*
X291500Y124500D01*
X234000Y98500D02*
Y98869D01*
X233000Y99869D02*
X234000Y98869D01*
X233000Y99869D02*
Y100000D01*
X227748Y101021D02*
X231979D01*
X233000Y100000D01*
X285650Y68382D02*
X285740Y68472D01*
X289604D01*
X262012Y153567D02*
X262045Y153533D01*
X265967D01*
X266000Y153500D01*
X319914Y67427D02*
X320673Y68187D01*
X320012Y125067D02*
X320130D01*
X259556Y101435D02*
X259924D01*
X260532Y100827D01*
X261252D01*
X262012Y100067D01*
X265012Y261067D02*
X267933D01*
X268000Y261000D01*
X319154Y295687D02*
X319914Y294928D01*
X318135Y295687D02*
X319154D01*
X317829Y295993D02*
X318135Y295687D01*
X317461Y295993D02*
X317829D01*
X264012Y322567D02*
X264772Y323327D01*
X266208D01*
X266631Y323750D01*
X267000D01*
X230748Y262021D02*
X230758Y262011D01*
X235989D01*
X236000Y262000D01*
X285650Y295882D02*
X285722Y295955D01*
X290400D01*
X290472Y296028D01*
X229748Y323521D02*
X229838Y323612D01*
X234862D01*
X235000Y323750D01*
X285650Y354382D02*
X285709Y354441D01*
X290441D01*
X290500Y354500D01*
X196500Y339500D02*
X222585Y365585D01*
X219500Y151000D02*
X220500Y150000D01*
X223869D01*
X227657Y149494D02*
X227748Y149403D01*
X224375Y149494D02*
X227657D01*
X223869Y150000D02*
X224375Y149494D01*
X189477Y114821D02*
Y117380D01*
X239000Y128500D02*
X262406D01*
X184000Y75500D02*
Y86500D01*
X184359Y86859D01*
Y92380D01*
X277402Y64861D02*
X278262Y64000D01*
X281000D01*
X285559Y63354D02*
X285650Y63264D01*
X281646Y63354D02*
X285559D01*
X281000Y64000D02*
Y72000D01*
Y64000D02*
X281646Y63354D01*
X279803Y73197D02*
X281000Y72000D01*
X186303Y73197D02*
X279803D01*
X184000Y75500D02*
X186303Y73197D01*
X219500Y97500D02*
X219922Y97078D01*
X222922D01*
X227657Y95994D02*
X227748Y95903D01*
X224006Y95994D02*
X227657D01*
X222922Y97078D02*
X224006Y95994D01*
X222922Y97078D02*
Y104960D01*
X211000Y106000D02*
X221883D01*
X222922Y104960D01*
X208000Y103000D02*
X211000Y106000D01*
X194000Y99000D02*
X198000Y103000D01*
X208000D01*
X171500Y97000D02*
X171564Y96936D01*
Y92380D02*
Y96936D01*
X277402Y350861D02*
X277763Y350500D01*
X281000D01*
X285559Y349354D02*
X285650Y349264D01*
X282146Y349354D02*
X285559D01*
X281000Y350500D02*
X282146Y349354D01*
X281000Y350500D02*
Y358200D01*
X277699Y361500D02*
X281000Y358200D01*
X196000Y335000D02*
X222500Y361500D01*
X221500Y320000D02*
X222969Y318531D01*
X225775D01*
X225903Y318403D01*
X224500Y317000D02*
X225903Y318403D01*
X229748D01*
X224500Y309161D02*
Y317000D01*
X131965Y132799D02*
X136299D01*
X277402Y292361D02*
X278870Y290892D01*
X281454D01*
X281673Y290673D01*
X285559D02*
X285650Y290764D01*
X281673Y290673D02*
X285559D01*
X281000Y290000D02*
X281673Y290673D01*
X281000Y284500D02*
Y290000D01*
X279000Y282500D02*
X281000Y284500D01*
X257000Y292500D02*
X267000Y282500D01*
X215500Y292500D02*
X257000D01*
X154315Y138008D02*
X154405Y137917D01*
X150492Y138008D02*
X154315D01*
X147500Y141000D02*
X150492Y138008D01*
X226000Y256903D02*
X230748D01*
X224097D02*
X226000D01*
X150086Y150713D02*
X154405D01*
X149500Y151298D02*
X150086Y150713D01*
X210500Y267500D02*
X224261D01*
X226000Y265761D01*
Y256903D02*
Y265761D01*
X222500Y258500D02*
X224097Y256903D01*
X271130Y137224D02*
X271721D01*
X271032Y79585D02*
X271622D01*
X214500Y75000D02*
X266447D01*
X186000Y103500D02*
X214500Y75000D01*
X175849Y97551D02*
X176218D01*
X179150Y92471D02*
X179241Y92380D01*
X179150Y92471D02*
Y99849D01*
X179000Y100000D02*
X179150Y99849D01*
X178631Y100000D02*
X179000D01*
X176682Y92380D02*
Y97086D01*
X176218Y97551D02*
X176682Y97086D01*
X212224Y273224D02*
X216721D01*
X211000Y272000D02*
X212224Y273224D01*
X213500Y296000D02*
X259947D01*
X210000Y292500D02*
X213500Y296000D01*
X271032Y307085D02*
X271622D01*
X211224Y334724D02*
X215721D01*
X208000Y331500D02*
X211224Y334724D01*
X-49027Y129299D02*
X-48877Y129150D01*
X-30650D01*
X-30500Y129000D01*
D22*
X-49027Y261583D02*
X-48944Y261665D01*
X-42335D01*
X-42000Y262000D01*
X-43172Y264650D02*
X-42000Y263478D01*
Y262000D02*
Y263478D01*
X-48944Y264650D02*
X-43172D01*
X-49027Y264732D02*
X-48944Y264650D01*
X-49027Y255283D02*
X-48944Y255201D01*
X-42299D01*
X-42098Y255000D01*
X-42000D01*
X-42016Y248984D02*
X-42000Y249000D01*
X-49027Y248984D02*
X-42016D01*
X-49027Y242685D02*
X-48944Y242602D01*
X-42200D01*
X-42098Y242500D01*
X-42000D01*
X-42264Y233236D02*
X-42000Y233500D01*
X-49027Y233236D02*
X-42264D01*
X-49027Y223787D02*
X-48944Y223870D01*
X-42228D01*
X-42098Y224000D01*
X-42000D01*
X-42162Y214338D02*
X-42000Y214500D01*
X-49027Y214338D02*
X-42162D01*
X-49027Y204890D02*
X-48971Y204945D01*
X-42055D01*
X-42000Y205000D01*
X-49027Y182843D02*
X-49019Y182835D01*
X-42008D01*
X-42000Y182827D01*
X-49027Y173394D02*
X-48973Y173447D01*
X-42053D01*
X-42000Y173500D01*
X-49027Y163945D02*
X-48999Y163972D01*
X-42028D01*
X-42000Y164000D01*
X-49027Y154496D02*
X-49025Y154498D01*
X-42002D01*
X-42000Y154500D01*
X-49027Y145047D02*
X-49003Y145024D01*
X-42024D01*
X-42000Y145000D01*
X-49027Y135598D02*
X-48977Y135549D01*
X-42049D01*
X-42000Y135500D01*
X110335Y318165D02*
Y343505D01*
Y318165D02*
X128000Y300500D01*
X151500D01*
D26*
X125000Y146512D02*
D03*
Y141000D02*
D03*
X260500Y360512D02*
D03*
Y355000D02*
D03*
X276000Y281512D02*
D03*
Y276000D02*
D03*
X208500Y266000D02*
D03*
Y260488D02*
D03*
X206205Y101705D02*
D03*
Y96193D02*
D03*
X265000Y72000D02*
D03*
Y66488D02*
D03*
X-23000Y167500D02*
D03*
Y173012D02*
D03*
D41*
X-49027Y264732D02*
D03*
Y261583D02*
D03*
Y258433D02*
D03*
Y255283D02*
D03*
Y252134D02*
D03*
Y248984D02*
D03*
Y245835D02*
D03*
Y242685D02*
D03*
Y239535D02*
D03*
Y236386D02*
D03*
Y233236D02*
D03*
Y230087D02*
D03*
Y226937D02*
D03*
Y223787D02*
D03*
Y220638D02*
D03*
Y217488D02*
D03*
Y214338D02*
D03*
Y211189D02*
D03*
Y208039D02*
D03*
Y204890D02*
D03*
Y201740D02*
D03*
Y198591D02*
D03*
Y182843D02*
D03*
Y179693D02*
D03*
Y176543D02*
D03*
Y173394D02*
D03*
Y170244D02*
D03*
Y167094D02*
D03*
Y163945D02*
D03*
Y160795D02*
D03*
Y157646D02*
D03*
Y154496D02*
D03*
Y151346D02*
D03*
Y148197D02*
D03*
Y145047D02*
D03*
Y141898D02*
D03*
Y138748D02*
D03*
Y135598D02*
D03*
Y132449D02*
D03*
Y129299D02*
D03*
D45*
X314402Y357069D02*
D03*
Y360219D02*
D03*
X319914Y357069D02*
D03*
Y360219D02*
D03*
X258500Y326209D02*
D03*
Y329358D02*
D03*
X264012Y326209D02*
D03*
Y329358D02*
D03*
X314402Y298569D02*
D03*
Y301719D02*
D03*
X319914Y298569D02*
D03*
Y301719D02*
D03*
X259500Y264709D02*
D03*
Y267858D02*
D03*
X265012Y264709D02*
D03*
Y267858D02*
D03*
X256500Y157209D02*
D03*
Y160358D02*
D03*
X262012Y157209D02*
D03*
Y160358D02*
D03*
X314500Y128709D02*
D03*
Y131858D02*
D03*
X320012Y128709D02*
D03*
Y131858D02*
D03*
X256500Y103709D02*
D03*
Y106858D02*
D03*
X262012Y103709D02*
D03*
Y106858D02*
D03*
X314402Y71069D02*
D03*
Y74219D02*
D03*
X319914Y71069D02*
D03*
Y74219D02*
D03*
D46*
X314402Y353428D02*
D03*
Y363861D02*
D03*
X319914Y353428D02*
D03*
Y363861D02*
D03*
X258500Y322567D02*
D03*
Y333000D02*
D03*
X264012Y322567D02*
D03*
Y333000D02*
D03*
X314402Y294928D02*
D03*
Y305361D02*
D03*
X319914Y294928D02*
D03*
Y305361D02*
D03*
X259500Y261067D02*
D03*
Y271500D02*
D03*
X265012Y261067D02*
D03*
Y271500D02*
D03*
X256500Y153567D02*
D03*
Y164000D02*
D03*
X262012Y153567D02*
D03*
Y164000D02*
D03*
X314500Y125067D02*
D03*
Y135500D02*
D03*
X320012Y125067D02*
D03*
Y135500D02*
D03*
X256500Y100067D02*
D03*
Y110500D02*
D03*
X262012Y100067D02*
D03*
Y110500D02*
D03*
X314402Y67427D02*
D03*
Y77861D02*
D03*
X319914Y67427D02*
D03*
Y77861D02*
D03*
D49*
X187500Y122000D02*
D03*
Y128299D02*
D03*
X168500Y122000D02*
D03*
Y128299D02*
D03*
X169500Y84500D02*
D03*
Y78201D02*
D03*
X188000Y84500D02*
D03*
Y78201D02*
D03*
D50*
X125299Y153500D02*
D03*
X119000D02*
D03*
X125500Y134500D02*
D03*
X119201D02*
D03*
X161000D02*
D03*
X167299D02*
D03*
X161000Y154000D02*
D03*
X167299D02*
D03*
D51*
X314658Y347628D02*
D03*
X320170D02*
D03*
X258756Y316783D02*
D03*
X264268D02*
D03*
X314658Y289144D02*
D03*
X320170D02*
D03*
X259756Y255283D02*
D03*
X265268D02*
D03*
X256756Y147784D02*
D03*
X262268D02*
D03*
X314756Y119283D02*
D03*
X320268D02*
D03*
X256756Y94283D02*
D03*
X262268D02*
D03*
X314658Y61644D02*
D03*
X320170D02*
D03*
X285658Y379644D02*
D03*
X291170D02*
D03*
X229756Y348783D02*
D03*
X235268D02*
D03*
X285658Y321144D02*
D03*
X291170D02*
D03*
X230756Y287283D02*
D03*
X236268D02*
D03*
X227756Y179783D02*
D03*
X233268D02*
D03*
X285756Y151284D02*
D03*
X291268D02*
D03*
X227756Y126284D02*
D03*
X233268D02*
D03*
X285658Y93644D02*
D03*
X291170D02*
D03*
X272158Y377144D02*
D03*
X277670D02*
D03*
X216256Y346284D02*
D03*
X221768D02*
D03*
X272158Y318644D02*
D03*
X277670D02*
D03*
X217256Y284784D02*
D03*
X222768D02*
D03*
X214256Y177284D02*
D03*
X219768D02*
D03*
X272256Y148784D02*
D03*
X277768D02*
D03*
X214256Y123784D02*
D03*
X219768D02*
D03*
X272158Y91144D02*
D03*
X277670D02*
D03*
X180512Y123000D02*
D03*
X175000D02*
D03*
X223500Y308000D02*
D03*
X217988D02*
D03*
X217512Y137787D02*
D03*
X212000D02*
D03*
X277500Y110500D02*
D03*
X271988D02*
D03*
X-3000Y167500D02*
D03*
X2512D02*
D03*
D95*
X94736Y219953D02*
D03*
Y225858D02*
D03*
Y231764D02*
D03*
Y214047D02*
D03*
Y208142D02*
D03*
Y202236D02*
D03*
X100642Y219953D02*
D03*
Y225858D02*
D03*
Y231764D02*
D03*
Y214047D02*
D03*
Y208142D02*
D03*
Y202236D02*
D03*
X106547Y219953D02*
D03*
Y225858D02*
D03*
Y231764D02*
D03*
Y208142D02*
D03*
Y202236D02*
D03*
X124264Y219953D02*
D03*
Y225858D02*
D03*
Y231764D02*
D03*
Y214047D02*
D03*
Y208142D02*
D03*
Y202236D02*
D03*
X118358Y219953D02*
D03*
Y225858D02*
D03*
Y231764D02*
D03*
Y214047D02*
D03*
Y208142D02*
D03*
Y202236D02*
D03*
X112453Y219953D02*
D03*
Y225858D02*
D03*
Y231764D02*
D03*
Y214047D02*
D03*
Y208142D02*
D03*
Y202236D02*
D03*
X106547Y214047D02*
D03*
X-24106Y193894D02*
D03*
X-22500Y195500D02*
D03*
X-30000Y200000D02*
D03*
X-27912Y200895D02*
D03*
X-32394Y212606D02*
D03*
X-34000Y211000D02*
D03*
X-31996Y220570D02*
D03*
X-34000Y219500D02*
D03*
X-35500Y231000D02*
D03*
X-33696Y232381D02*
D03*
X501500Y72500D02*
D03*
X492500Y42500D02*
D03*
X115300Y172808D02*
D03*
X98308Y173603D02*
D03*
X130300Y172808D02*
D03*
X158959Y127305D02*
D03*
X159500Y123500D02*
D03*
X175000Y75000D02*
D03*
X152000Y160000D02*
D03*
X154856Y160644D02*
D03*
X159000Y160000D02*
D03*
X157000Y162500D02*
D03*
X135000Y160500D02*
D03*
X141500Y218000D02*
D03*
X98000Y249500D02*
D03*
X141500Y232500D02*
D03*
X143000Y230000D02*
D03*
X141500Y227500D02*
D03*
X326500Y102500D02*
D03*
X325773Y96273D02*
D03*
X329052Y112552D02*
D03*
X329088Y117447D02*
D03*
X331500Y123000D02*
D03*
X331507Y127948D02*
D03*
X332773Y140273D02*
D03*
X333000Y145000D02*
D03*
X334500Y304736D02*
D03*
X333477Y301023D02*
D03*
X336000Y288224D02*
D03*
X335277Y284723D02*
D03*
X336500Y271736D02*
D03*
X336000Y268000D02*
D03*
X334982Y254724D02*
D03*
X333207Y251252D02*
D03*
X211000Y177216D02*
D03*
X224500Y177000D02*
D03*
X221812Y209819D02*
D03*
X522478Y236478D02*
D03*
X520000Y242000D02*
D03*
X522499Y169451D02*
D03*
X519500Y169500D02*
D03*
X95715Y248341D02*
D03*
X100642Y248142D02*
D03*
X140864Y235664D02*
D03*
X140300Y211996D02*
D03*
X110500Y38000D02*
D03*
X296000Y105000D02*
D03*
X78300Y206256D02*
D03*
X70800Y209308D02*
D03*
X71300Y205807D02*
D03*
X78300Y225807D02*
D03*
X65300D02*
D03*
X71300D02*
D03*
X95800Y185808D02*
D03*
X100300Y185308D02*
D03*
X99300Y178927D02*
D03*
X108300Y185808D02*
D03*
X114300Y185308D02*
D03*
X113804Y178927D02*
D03*
X122300Y185808D02*
D03*
X131800Y178927D02*
D03*
X228098Y194334D02*
D03*
X227800Y189307D02*
D03*
X161800Y220307D02*
D03*
X174300Y220808D02*
D03*
X174292Y197103D02*
D03*
X213788Y224583D02*
D03*
X147800Y182308D02*
D03*
X140300Y199308D02*
D03*
X142800Y196359D02*
D03*
X146800Y196808D02*
D03*
X148300Y215307D02*
D03*
Y226308D02*
D03*
X147300Y220808D02*
D03*
X140800Y222808D02*
D03*
X108300Y248307D02*
D03*
X122300D02*
D03*
X128300Y255280D02*
D03*
X131300Y254807D02*
D03*
X117026Y255308D02*
D03*
X113804Y254807D02*
D03*
X102800Y255308D02*
D03*
X99300Y254807D02*
D03*
X114300Y248307D02*
D03*
X368000Y304500D02*
D03*
X366500Y306886D02*
D03*
X369000Y289500D02*
D03*
X366500Y290500D02*
D03*
X366000Y274500D02*
D03*
X369179Y274321D02*
D03*
X369016Y256984D02*
D03*
X366160Y257340D02*
D03*
X363000Y86633D02*
D03*
Y84362D02*
D03*
X362445Y104403D02*
D03*
X362570Y102135D02*
D03*
X363003Y117925D02*
D03*
X362500Y120196D02*
D03*
X362750Y134223D02*
D03*
X362604Y136490D02*
D03*
X324000Y69000D02*
D03*
X343500Y77000D02*
D03*
Y94000D02*
D03*
Y110500D02*
D03*
Y127000D02*
D03*
Y143500D02*
D03*
X382500Y100000D02*
D03*
X378000Y111000D02*
D03*
Y121000D02*
D03*
Y130500D02*
D03*
X371203Y143940D02*
D03*
X371500Y138500D02*
D03*
Y127500D02*
D03*
X371000Y132000D02*
D03*
Y120500D02*
D03*
X371500Y116000D02*
D03*
X371000Y109000D02*
D03*
X371500Y105000D02*
D03*
X416000Y139000D02*
D03*
X415400Y143000D02*
D03*
X416000Y105000D02*
D03*
X415400Y109000D02*
D03*
X415810Y116000D02*
D03*
X415400Y120500D02*
D03*
X408500Y110000D02*
D03*
X408808Y119755D02*
D03*
X408500Y130000D02*
D03*
X416000Y127500D02*
D03*
X415500Y131500D02*
D03*
X347255Y314000D02*
D03*
Y297500D02*
D03*
Y281000D02*
D03*
X347500Y247500D02*
D03*
X347255Y264385D02*
D03*
X386000Y270500D02*
D03*
X382000Y281000D02*
D03*
X374500Y279500D02*
D03*
X375500Y275000D02*
D03*
X382000Y291000D02*
D03*
X374500Y286500D02*
D03*
X375500Y290500D02*
D03*
X375350Y302000D02*
D03*
X374500Y297500D02*
D03*
X382000Y300500D02*
D03*
X374500Y309000D02*
D03*
X375500Y313500D02*
D03*
X419698Y309000D02*
D03*
X419000Y313500D02*
D03*
X419698Y275000D02*
D03*
X419000Y279500D02*
D03*
X419698Y286500D02*
D03*
X419000Y290500D02*
D03*
X419687Y297500D02*
D03*
X419000Y302000D02*
D03*
D97*
X-36913Y199565D02*
X-31848Y194500D01*
X-43623Y199565D02*
X-36913D01*
X-24396Y193894D02*
X-24106D01*
X-31848Y194500D02*
X-25003D01*
X-44597Y198591D02*
X-43623Y199565D01*
X-49027Y198591D02*
X-44597D01*
X-25003Y194500D02*
X-24396Y193894D01*
X-36416Y200765D02*
X-31351Y195700D01*
X-43623Y200765D02*
X-36416D01*
X-22700Y195700D02*
X-22500Y195500D01*
X-31351Y195700D02*
X-22700D01*
X-44597Y201740D02*
X-43623Y200765D01*
X-49027Y201740D02*
X-44597D01*
X-38256Y209014D02*
X-30205Y200963D01*
X-43623Y209014D02*
X-38256D01*
X-44597Y208039D02*
X-43623Y209014D01*
X-49027Y208039D02*
X-44597D01*
X-37759Y210214D02*
X-28845Y201300D01*
X-43623Y210214D02*
X-37759D01*
X-44597Y211189D02*
X-43623Y210214D01*
X-49027Y211189D02*
X-44597D01*
X-40705Y218463D02*
X-34205Y211963D01*
X-43623Y218463D02*
X-40705D01*
X-44597Y217488D02*
X-43623Y218463D01*
X-49027Y217488D02*
X-44597D01*
X-40208Y219663D02*
X-33356Y212811D01*
X-43623Y219663D02*
X-40208D01*
X-44597Y220638D02*
X-43623Y219663D01*
X-49027Y220638D02*
X-44597D01*
Y230087D02*
X-43623Y229112D01*
X-40874D01*
X-49027Y230087D02*
X-44597D01*
X-40874Y229112D02*
X-32833Y221071D01*
X-41371Y227912D02*
X-34148Y220689D01*
Y219649D02*
Y220689D01*
X-43623Y227912D02*
X-41371D01*
X-44597Y226937D02*
X-43623Y227912D01*
X-49027Y226937D02*
X-44597D01*
X-34148Y219649D02*
X-34000Y219500D01*
X-43623Y237361D02*
X-40820D01*
X-44597Y236386D02*
X-43623Y237361D01*
X-49027Y236386D02*
X-44597D01*
X-35649Y231149D02*
X-35500Y231000D01*
X-40820Y237361D02*
X-35649Y232189D01*
Y231149D02*
Y232189D01*
X-49027Y239535D02*
X-44597D01*
X-34541Y232936D02*
X-33986Y232381D01*
X-33696D01*
X-43623Y238561D02*
X-40323D01*
X-44597Y239535D02*
X-43623Y238561D01*
X-34698Y232936D02*
X-34541D01*
X-40323Y238561D02*
X-34698Y232936D01*
X288669Y100528D02*
X360963D01*
X263380Y105884D02*
X283314D01*
X284016Y105181D02*
X288669Y100528D01*
X283314Y105884D02*
X284016Y105181D01*
X336503Y257300D02*
X366120D01*
X328119Y265684D02*
X336503Y257300D01*
X266380Y265684D02*
X328119D01*
X337000Y258500D02*
X364014D01*
X328617Y266883D02*
X337000Y258500D01*
X266380Y266883D02*
X328617D01*
X368000Y304500D02*
X368059D01*
X368709Y305150D01*
X325953Y359244D02*
X368709Y316488D01*
Y305150D02*
Y316488D01*
X366500Y306886D02*
Y317000D01*
X325456Y358044D02*
X366500Y317000D01*
X319914Y357069D02*
X320307D01*
X319914Y360219D02*
X320307D01*
X321282Y359244D01*
X325953D01*
X320307Y357069D02*
X321282Y358044D01*
X325456D01*
X364113Y292435D02*
X367020D01*
X369000Y290455D01*
Y289500D02*
Y290455D01*
X336548Y320000D02*
X364113Y292435D01*
X366295Y290295D02*
X366500Y290500D01*
X364910Y290295D02*
X366295D01*
X364733Y290118D02*
X364910Y290295D01*
X301700Y318800D02*
X336051D01*
X364733Y290118D01*
X302197Y320000D02*
X336548D01*
X293317Y327184D02*
X297500Y323000D01*
X298290Y322210D02*
X301700Y318800D01*
X298290Y322210D02*
X298290D01*
X297500Y323000D02*
X298290Y322210D01*
X265380Y328383D02*
X293814D01*
X264012Y326209D02*
X264405D01*
X265380Y327184D01*
X293317D01*
X264405Y329358D02*
X265380Y328383D01*
X293814D02*
X302197Y320000D01*
X264012Y329358D02*
X264405D01*
X365500Y274500D02*
X366000D01*
X366000Y277500D02*
X369179Y274321D01*
X364197Y277500D02*
X366000D01*
X346997Y294700D02*
X364197Y277500D01*
X346500Y293500D02*
X365500Y274500D01*
X321282Y300744D02*
X323293D01*
X322796Y299544D02*
X328840Y293500D01*
X323293Y300744D02*
X329337Y294700D01*
X321282Y299544D02*
X322796D01*
X320307Y298569D02*
X321282Y299544D01*
X329337Y294700D02*
X346997D01*
X319914Y301719D02*
X320307D01*
X328840Y293500D02*
X346500D01*
X319914Y298569D02*
X320307D01*
Y301719D02*
X321282Y300744D01*
X369016Y256984D02*
Y257274D01*
X368500Y257790D02*
X369016Y257274D01*
X368500Y257790D02*
Y258000D01*
X367000Y259500D02*
X368500Y258000D01*
X364014Y258500D02*
X365014Y259500D01*
X367000D01*
X366120Y257300D02*
X366160Y257340D01*
X265012Y264709D02*
X265406D01*
X266380Y265684D01*
X265406Y267858D02*
X266380Y266883D01*
X265012Y267858D02*
X265406D01*
X363723Y86777D02*
X364757Y85743D01*
X363000Y86633D02*
X363143Y86777D01*
X363723D01*
X364757Y83663D02*
Y85743D01*
X353137Y72044D02*
X364757Y83663D01*
X321282Y72044D02*
X353137D01*
X362795Y84157D02*
X363000Y84362D01*
X362157Y84157D02*
X362795D01*
X351244Y73244D02*
X362157Y84157D01*
X320307Y71069D02*
X321282Y72044D01*
X319914Y71069D02*
X320307D01*
Y74219D02*
X321282Y73244D01*
X319914Y74219D02*
X320307D01*
X321282Y73244D02*
X351244D01*
X362445Y104403D02*
X362735D01*
X363268Y103871D01*
X363289D01*
X364710Y102449D01*
X362328Y99328D02*
X364710Y101710D01*
Y102449D01*
X288172Y99328D02*
X362328D01*
X360963Y100528D02*
X362570Y102135D01*
X363003Y117925D02*
Y118003D01*
X364500Y119500D01*
Y123197D01*
X362500Y120196D02*
Y123500D01*
X320406Y131858D02*
X321380Y130884D01*
X320012Y131858D02*
X320406D01*
Y128709D02*
X321380Y129683D01*
X320012Y128709D02*
X320406D01*
X356317Y129683D02*
X362500Y123500D01*
X321380Y129683D02*
X356317D01*
X356814Y130884D02*
X364500Y123197D01*
X321380Y130884D02*
X356814D01*
X362750Y134223D02*
X362791D01*
X364339Y135771D01*
X345814Y159383D02*
X364339Y140858D01*
Y135771D02*
Y140858D01*
X362604Y136490D02*
Y140896D01*
X345317Y158184D02*
X362604Y140896D01*
X282817Y104683D02*
X287500Y100000D01*
X288172Y99328D01*
X262012Y103709D02*
X262405D01*
X263380Y104683D01*
X262405Y106858D02*
X263380Y105884D01*
X262012Y106858D02*
X262405D01*
X263380Y104683D02*
X282817D01*
X263380Y159383D02*
X345814D01*
X262012Y157209D02*
X262405D01*
Y160358D02*
X263380Y159383D01*
Y158184D02*
X345317D01*
X262012Y160358D02*
X262405D01*
Y157209D02*
X263380Y158184D01*
X314402Y360219D02*
Y363861D01*
X307500Y356941D02*
X310157D01*
X312801Y359585D01*
X313768D01*
X314402Y360219D01*
X314008Y357069D02*
X314402D01*
X311864Y354925D02*
X314008Y357069D01*
X311864Y354382D02*
Y354925D01*
X313492Y354337D02*
X314402Y353428D01*
X311908Y354337D02*
X313492D01*
X311864Y354382D02*
X311908Y354337D01*
X307500Y354382D02*
X311864D01*
D98*
X311339Y49992D02*
Y56965D01*
X311162Y49815D02*
X311339Y49992D01*
X310157Y58146D02*
X311339Y56965D01*
X311162Y49624D02*
Y49815D01*
X308800Y47262D02*
X311162Y49624D01*
X271500Y75500D02*
X291000D01*
X293000Y73500D02*
X307500D01*
X291000Y75500D02*
X293000Y73500D01*
X302729Y79628D02*
X302818D01*
X303000Y79447D01*
Y76500D02*
Y79447D01*
X307500Y58146D02*
X310157D01*
X308800Y47144D02*
Y47262D01*
X302715Y87320D02*
X302729Y87306D01*
X298500Y87320D02*
X302715D01*
X297500Y86000D02*
Y86320D01*
X298500Y87320D01*
X290205Y60705D02*
X290500Y61000D01*
X285650Y60705D02*
X290205D01*
X319796Y77861D02*
X319914D01*
X319126Y78530D02*
X319796Y77861D01*
X319126Y78530D02*
Y79874D01*
X308032Y80211D02*
X318789D01*
X319126Y79874D01*
X307500Y79678D02*
X308032Y80211D01*
X302729Y82188D02*
Y84747D01*
X307500Y73500D02*
Y79678D01*
X304991Y82188D02*
X307500Y79678D01*
X302729Y82188D02*
X304991D01*
X277402Y59861D02*
X282148D01*
X282992Y60705D01*
X285650D01*
Y58146D02*
Y60705D01*
Y48350D02*
Y58146D01*
Y48350D02*
X294000Y40000D01*
X300500D01*
X305158Y44658D01*
Y47144D01*
X239361Y267139D02*
X252598D01*
X239000Y267500D02*
X239361Y267139D01*
X230748Y248838D02*
Y251785D01*
Y245892D02*
Y248838D01*
X245555Y280945D02*
X247827D01*
X244336Y279726D02*
X245555Y280945D01*
X243226Y279726D02*
X244336D01*
X243000Y279500D02*
X243226Y279726D01*
X264894Y271500D02*
X265012D01*
X262531Y273862D02*
X264894Y271500D01*
X253142Y273862D02*
X262531D01*
X252598Y273318D02*
X253142Y273862D01*
X247827Y275827D02*
Y278386D01*
X252598Y267139D02*
Y273318D01*
X250089Y275827D02*
X252598Y273318D01*
X247827Y275827D02*
X250089D01*
X230748Y251785D02*
Y254344D01*
X249862Y239362D02*
Y240390D01*
X250256Y240784D01*
X246110Y235610D02*
X249862Y239362D01*
X230748Y245892D02*
X241029Y235610D01*
X246110D01*
X222500Y253500D02*
X227246D01*
X228090Y254344D01*
X230748D01*
X231703Y275805D02*
X231725Y275827D01*
X224813Y275805D02*
X231703D01*
X224791Y275783D02*
X224813Y275805D01*
X224791Y278342D02*
X224813Y278364D01*
X231703D01*
X231725Y278386D01*
X154405Y153272D02*
X160272D01*
X161000Y154000D01*
X229500Y311000D02*
Y314317D01*
X229748Y314565D02*
Y315844D01*
Y313285D02*
Y314565D01*
X229500Y314317D02*
X229748Y314565D01*
X296903Y301000D02*
X307500D01*
X294541Y303362D02*
X296903Y301000D01*
X268000Y299000D02*
X272362Y303362D01*
X294541D01*
X270461Y294302D02*
X272402Y292361D01*
X269982Y294302D02*
X270461D01*
X268000Y296283D02*
X269982Y294302D01*
X268000Y296283D02*
Y299000D01*
X285650Y283000D02*
Y285646D01*
Y278101D02*
Y283000D01*
X302654Y314730D02*
X302729Y314806D01*
X299050Y314730D02*
X302654D01*
X298320Y314000D02*
X299050Y314730D01*
X298000Y314000D02*
X298320D01*
X302729Y309688D02*
Y312247D01*
X310157Y301000D02*
Y305296D01*
X302729Y309688D02*
X304991D01*
X309382Y305296D01*
X310157D01*
X319796Y305361D02*
X319914D01*
X317156Y308000D02*
X319796Y305361D01*
X312861Y308000D02*
X317156D01*
X307500Y301000D02*
X310157D01*
Y305296D02*
X312861Y308000D01*
X282591Y288205D02*
X285650D01*
Y285646D02*
Y288205D01*
Y278101D02*
X293341Y270409D01*
X301678D01*
X305158Y274250D02*
Y274644D01*
X304083Y273176D02*
X305158Y274250D01*
X304083Y272814D02*
Y273176D01*
X301678Y270409D02*
X304083Y272814D01*
X311500Y335963D02*
Y342000D01*
X302729Y365629D02*
X302818D01*
X303000Y365447D01*
Y363000D02*
Y365447D01*
X311500Y342000D02*
Y342803D01*
X307500Y344146D02*
X310157D01*
X311500Y342803D01*
X308800Y333144D02*
Y333262D01*
X311500Y335963D01*
X286605Y368166D02*
X286627Y368188D01*
X279715Y368166D02*
X286605D01*
X279693Y368144D02*
X279715Y368166D01*
X246827Y334768D02*
X247000Y334595D01*
Y332000D02*
Y334595D01*
X246799Y342473D02*
X246827Y342445D01*
X242027Y342473D02*
X246799D01*
X242000Y342500D02*
X242027Y342473D01*
X229500Y311000D02*
X229703Y310797D01*
Y308047D02*
Y310797D01*
X214559Y321941D02*
X216500Y320000D01*
X214080Y321941D02*
X214559D01*
X212000Y324021D02*
X214080Y321941D01*
X212000Y324021D02*
Y326500D01*
X215000Y329500D02*
X225227D01*
X212000Y326500D02*
X215000Y329500D01*
X226048Y330321D02*
X233889D01*
X225227Y329500D02*
X226048Y330321D01*
X240896Y337327D02*
X246827D01*
X233889Y330321D02*
X240896Y337327D01*
X248862Y301890D02*
X249256Y302284D01*
X239436Y298315D02*
X246042D01*
X248862Y301135D01*
X229748Y313285D02*
X232405D01*
X229703Y308047D02*
X239436Y298315D01*
X248862Y301135D02*
Y301890D01*
X251598Y330598D02*
Y334818D01*
X263894Y333000D02*
X264012D01*
X261394Y335500D02*
X263894Y333000D01*
X256500Y335500D02*
X261394D01*
X251598Y328639D02*
Y330598D01*
X256500Y335500D01*
X246827Y337327D02*
Y339886D01*
X249089Y337327D02*
X251598Y334818D01*
X246827Y337327D02*
X249089D01*
D99*
X59000Y378000D02*
X72390Y364610D01*
X86500D01*
X47529Y366529D02*
X59000Y378000D01*
X44029Y366529D02*
X47529D01*
X44000Y366500D02*
X44029Y366529D01*
D101*
X277402Y345861D02*
D03*
X272402D02*
D03*
X277402Y350861D02*
D03*
X272402D02*
D03*
X277402Y355861D02*
D03*
X272402D02*
D03*
X216500Y325000D02*
D03*
X221500D02*
D03*
X216500Y320000D02*
D03*
X221500D02*
D03*
X216500Y315000D02*
D03*
X221500D02*
D03*
X277402Y287361D02*
D03*
X272402D02*
D03*
X277402Y292361D02*
D03*
X272402D02*
D03*
X277402Y297361D02*
D03*
X272402D02*
D03*
X217500Y263500D02*
D03*
X222500D02*
D03*
X217500Y258500D02*
D03*
X222500D02*
D03*
X217500Y253500D02*
D03*
X222500D02*
D03*
X219500Y146000D02*
D03*
X214500D02*
D03*
X219500Y151000D02*
D03*
X214500D02*
D03*
X219500Y156000D02*
D03*
X214500D02*
D03*
X272500Y127500D02*
D03*
X277500D02*
D03*
X272500Y122500D02*
D03*
X277500D02*
D03*
X272500Y117500D02*
D03*
X277500D02*
D03*
X219500Y92500D02*
D03*
X214500D02*
D03*
X219500Y97500D02*
D03*
X214500D02*
D03*
X219500Y102500D02*
D03*
X214500D02*
D03*
X272402Y69861D02*
D03*
X277402D02*
D03*
X272402Y64861D02*
D03*
X277402D02*
D03*
X272402Y59861D02*
D03*
X277402D02*
D03*
D102*
X517500Y83000D02*
D03*
D103*
X527500D02*
D03*
X517500Y73000D02*
D03*
X527500D02*
D03*
X517500Y63000D02*
D03*
X527500D02*
D03*
X517500Y53000D02*
D03*
X527500D02*
D03*
X517500Y43000D02*
D03*
X527500D02*
D03*
D104*
X109500Y217000D02*
D03*
D105*
X34500Y294000D02*
D03*
X86500Y378390D02*
D03*
D106*
X20720Y294000D02*
D03*
D107*
X86500Y364610D02*
D03*
D108*
X22500Y324000D02*
D03*
Y334000D02*
D03*
X32500Y324000D02*
D03*
Y334000D02*
D03*
D109*
X536500Y180000D02*
D03*
Y242000D02*
D03*
D110*
X529500Y176000D02*
D03*
X536500Y172000D02*
D03*
X529500Y168000D02*
D03*
X536500Y164000D02*
D03*
X529500Y160000D02*
D03*
X536500Y156000D02*
D03*
X529500Y152000D02*
D03*
Y214000D02*
D03*
X536500Y218000D02*
D03*
X529500Y222000D02*
D03*
X536500Y226000D02*
D03*
X529500Y230000D02*
D03*
X536500Y234000D02*
D03*
X529500Y238000D02*
D03*
D111*
X546500Y141000D02*
D03*
Y253000D02*
D03*
D112*
X533000Y134000D02*
D03*
Y260000D02*
D03*
D113*
X59000Y378000D02*
D03*
X17000Y151000D02*
D03*
X168500Y273000D02*
D03*
X59500Y300000D02*
D03*
X36000Y64500D02*
D03*
X56000Y161500D02*
D03*
X158500Y229500D02*
D03*
X147500Y115000D02*
D03*
X148500Y239000D02*
D03*
X128500Y121500D02*
D03*
X65500Y140000D02*
D03*
D114*
X131000Y320768D02*
D03*
X135331D02*
D03*
X131000Y316437D02*
D03*
X135331D02*
D03*
X131000Y312106D02*
D03*
X135331D02*
D03*
D115*
X180500Y65500D02*
D03*
X96250Y308750D02*
D03*
X174000Y83500D02*
D03*
X110335Y343505D02*
D03*
X189500Y70000D02*
D03*
X167705Y102492D02*
D03*
X168500Y109854D02*
D03*
X159500Y95500D02*
D03*
X143500Y141000D02*
D03*
Y153000D02*
D03*
X108500Y161500D02*
D03*
X98500Y155500D02*
D03*
X529500Y107000D02*
D03*
X295500Y59500D02*
D03*
X72835Y8505D02*
D03*
X62835D02*
D03*
X52835D02*
D03*
X47835Y18505D02*
D03*
X22835Y28505D02*
D03*
Y8505D02*
D03*
X12835Y28505D02*
D03*
Y8505D02*
D03*
X40000Y35000D02*
D03*
Y27500D02*
D03*
X30500Y17000D02*
D03*
X33500Y20000D02*
D03*
X27500D02*
D03*
X-546Y164347D02*
D03*
X58Y170653D02*
D03*
X-23000Y176000D02*
D03*
X164500Y155500D02*
D03*
X143500Y107500D02*
D03*
X143000Y104000D02*
D03*
X146500Y103500D02*
D03*
X268500Y109500D02*
D03*
X266500Y113500D02*
D03*
X191500Y165000D02*
D03*
X161500Y146000D02*
D03*
Y142500D02*
D03*
X208500Y138000D02*
D03*
Y93000D02*
D03*
X260500Y351500D02*
D03*
X214000Y307000D02*
D03*
X271208Y276792D02*
D03*
X207000Y257500D02*
D03*
X89500Y154000D02*
D03*
X171000Y132000D02*
D03*
X164500Y136500D02*
D03*
X164000Y129500D02*
D03*
X116500Y149000D02*
D03*
X121000Y144500D02*
D03*
X138000Y151500D02*
D03*
X80000Y124500D02*
D03*
X265000Y63500D02*
D03*
X40500Y110000D02*
D03*
X77500Y37500D02*
D03*
X73500Y32500D02*
D03*
X70000Y37500D02*
D03*
X521500Y164000D02*
D03*
X92500Y305000D02*
D03*
Y312500D02*
D03*
X100000Y305000D02*
D03*
Y312500D02*
D03*
X57500Y327500D02*
D03*
X52500D02*
D03*
Y332500D02*
D03*
Y337500D02*
D03*
Y342500D02*
D03*
X57500D02*
D03*
Y362500D02*
D03*
X52500D02*
D03*
Y357500D02*
D03*
Y352500D02*
D03*
Y347500D02*
D03*
X57500D02*
D03*
X66000Y264500D02*
D03*
Y259500D02*
D03*
Y254500D02*
D03*
X71000D02*
D03*
X76000D02*
D03*
X81000D02*
D03*
Y259500D02*
D03*
Y264500D02*
D03*
X95500Y265000D02*
D03*
X100500D02*
D03*
X105500D02*
D03*
Y270000D02*
D03*
Y275000D02*
D03*
Y280000D02*
D03*
X100500D02*
D03*
X95500D02*
D03*
X323157Y291500D02*
D03*
X412500Y300063D02*
D03*
Y280378D02*
D03*
X412697Y290220D02*
D03*
X-42000Y263478D02*
D03*
Y255000D02*
D03*
Y249000D02*
D03*
Y242500D02*
D03*
Y233500D02*
D03*
Y224000D02*
D03*
Y214500D02*
D03*
Y205000D02*
D03*
Y182827D02*
D03*
Y173500D02*
D03*
Y164000D02*
D03*
Y154500D02*
D03*
Y145000D02*
D03*
Y135500D02*
D03*
X311162Y49815D02*
D03*
X267500Y76500D02*
D03*
X271500Y75500D02*
D03*
X303000Y76500D02*
D03*
X297500Y86000D02*
D03*
X290500Y61000D02*
D03*
X323500Y62000D02*
D03*
X316500Y64500D02*
D03*
X290472Y65823D02*
D03*
X291500Y80000D02*
D03*
X291000Y90000D02*
D03*
X282500Y97000D02*
D03*
X276500Y79500D02*
D03*
X275658Y87459D02*
D03*
X269000Y91500D02*
D03*
X213500Y114500D02*
D03*
X213171Y109181D02*
D03*
X240500Y119000D02*
D03*
X233500Y92000D02*
D03*
X247000Y109500D02*
D03*
X254000Y88500D02*
D03*
X236812Y81812D02*
D03*
X262000Y90000D02*
D03*
X257000D02*
D03*
X233500Y95500D02*
D03*
X233000Y112500D02*
D03*
X231500Y123000D02*
D03*
X224500Y128500D02*
D03*
X218500Y112000D02*
D03*
X217756Y120098D02*
D03*
X216000Y127500D02*
D03*
X319286Y115000D02*
D03*
X315288Y114288D02*
D03*
X317500Y123000D02*
D03*
X266768Y132862D02*
D03*
X281286Y133500D02*
D03*
X278286Y135000D02*
D03*
X303500Y134500D02*
D03*
X297500Y141000D02*
D03*
X289000Y147500D02*
D03*
X282000Y152500D02*
D03*
X292500Y118000D02*
D03*
X311996Y113504D02*
D03*
X293681Y122000D02*
D03*
X291500Y137500D02*
D03*
X280500Y147500D02*
D03*
X274500Y152500D02*
D03*
X184500Y110181D02*
D03*
X187500Y125500D02*
D03*
X209000Y165000D02*
D03*
X239500Y171500D02*
D03*
X233500Y147000D02*
D03*
X254000Y141500D02*
D03*
X246500Y163500D02*
D03*
X233500Y151000D02*
D03*
X290819Y290234D02*
D03*
X291042Y350458D02*
D03*
X234958Y319958D02*
D03*
X236000Y258500D02*
D03*
X265500Y148000D02*
D03*
X258000Y142319D02*
D03*
X235500Y137500D02*
D03*
X233500Y175500D02*
D03*
Y166000D02*
D03*
X218500Y165500D02*
D03*
X217756Y173598D02*
D03*
X194319Y102403D02*
D03*
X204000Y75378D02*
D03*
X192000D02*
D03*
X188500Y97500D02*
D03*
X164500Y92500D02*
D03*
X188000Y81000D02*
D03*
X239000Y267500D02*
D03*
X243000Y279500D02*
D03*
X230748Y248838D02*
D03*
X249500Y270500D02*
D03*
X257000Y250041D02*
D03*
X268500Y255000D02*
D03*
X262210Y252130D02*
D03*
X241102Y243539D02*
D03*
X236500Y273500D02*
D03*
X233906Y283414D02*
D03*
X233153Y290319D02*
D03*
X221500Y273000D02*
D03*
X220756Y281098D02*
D03*
X219710Y287937D02*
D03*
X267500Y302319D02*
D03*
X298000Y314000D02*
D03*
X285650Y283000D02*
D03*
X303000Y304681D02*
D03*
X312000Y283803D02*
D03*
X317000Y285500D02*
D03*
X296004Y277124D02*
D03*
X288111Y324297D02*
D03*
X288716Y317991D02*
D03*
X291500Y307000D02*
D03*
X276500D02*
D03*
X280500Y317500D02*
D03*
X274611Y321797D02*
D03*
X267000Y365500D02*
D03*
X266000Y358500D02*
D03*
X293000Y359500D02*
D03*
X297000Y367500D02*
D03*
X290500Y346500D02*
D03*
X303000Y363000D02*
D03*
X311500Y342000D02*
D03*
X323000Y347500D02*
D03*
X317111Y344475D02*
D03*
X297078Y335597D02*
D03*
X288111Y382797D02*
D03*
X288792Y376181D02*
D03*
X291000Y365500D02*
D03*
X227260Y332592D02*
D03*
X282000Y364000D02*
D03*
X281000Y376181D02*
D03*
X274611Y380297D02*
D03*
X247000Y332000D02*
D03*
X256000Y311541D02*
D03*
X242000Y342500D02*
D03*
X229500Y311000D02*
D03*
X232814Y345630D02*
D03*
X232210Y351937D02*
D03*
X221000Y334500D02*
D03*
X219756Y342598D02*
D03*
X218710Y349437D02*
D03*
X240102Y305039D02*
D03*
X261814Y313630D02*
D03*
X261256Y320205D02*
D03*
X149681Y144315D02*
D03*
X122000Y155500D02*
D03*
X127992Y141622D02*
D03*
X200216Y371379D02*
D03*
X200000Y349000D02*
D03*
X201500Y354787D02*
D03*
X141564Y66448D02*
D03*
X149046Y67653D02*
D03*
X148244Y62181D02*
D03*
X141500Y75500D02*
D03*
X149046Y73847D02*
D03*
X148248Y79479D02*
D03*
X149000Y93000D02*
D03*
X147869Y88000D02*
D03*
X142000Y94000D02*
D03*
X103000Y112500D02*
D03*
X65578Y81377D02*
D03*
X65000Y63500D02*
D03*
X72000Y71000D02*
D03*
X83000Y66000D02*
D03*
X111000Y119147D02*
D03*
X117778Y118665D02*
D03*
X105000Y118500D02*
D03*
X67000Y75000D02*
D03*
X66500Y69000D02*
D03*
X400528Y41209D02*
D03*
X408500Y45000D02*
D03*
X386000D02*
D03*
X378028Y40709D02*
D03*
X363000Y44500D02*
D03*
X355028Y40709D02*
D03*
X340500Y45000D02*
D03*
X332528Y40709D02*
D03*
X309528D02*
D03*
X317500Y44500D02*
D03*
X287028Y40709D02*
D03*
X295000Y44500D02*
D03*
X265028Y40709D02*
D03*
X273000Y44500D02*
D03*
X243429Y41643D02*
D03*
X251000Y44500D02*
D03*
X221500Y60500D02*
D03*
X224000Y58500D02*
D03*
X226500Y56500D02*
D03*
X229000Y54500D02*
D03*
X231500Y52500D02*
D03*
X276500Y47500D02*
D03*
X255000Y47000D02*
D03*
X233500Y46000D02*
D03*
X87500Y86500D02*
D03*
X83500Y89000D02*
D03*
X87500Y80833D02*
D03*
X83500Y83500D02*
D03*
X87500Y75167D02*
D03*
X83500Y78000D02*
D03*
X87500Y69500D02*
D03*
X83500Y72500D02*
D03*
X66420Y98716D02*
D03*
X-37000Y176250D02*
D03*
X82500Y95500D02*
D03*
X60000D02*
D03*
X-1000Y132500D02*
D03*
X233500Y154500D02*
D03*
X291500Y124500D02*
D03*
X234000Y98500D02*
D03*
X290500Y69000D02*
D03*
X266000Y153500D02*
D03*
X259556Y101435D02*
D03*
X268000Y261000D02*
D03*
X317461Y295993D02*
D03*
X267000Y323750D02*
D03*
X317500Y354500D02*
D03*
X236000Y262000D02*
D03*
X290472Y296028D02*
D03*
X235000Y323750D02*
D03*
X290500Y354500D02*
D03*
X196500Y339500D02*
D03*
X194000Y99000D02*
D03*
X171500Y97000D02*
D03*
X193834Y70208D02*
D03*
Y66639D02*
D03*
Y63069D02*
D03*
X89000Y98500D02*
D03*
X82500Y101000D02*
D03*
X179000Y100000D02*
D03*
X176218Y97551D02*
D03*
X193834Y59500D02*
D03*
X211000Y272000D02*
D03*
X210000Y292500D02*
D03*
X208000Y331500D02*
D03*
X-12000Y128500D02*
D03*
X-19000D02*
D03*
X-30500Y129000D02*
D03*
X130000Y35500D02*
D03*
X123000D02*
D03*
X116500Y39500D02*
D03*
X94829Y42716D02*
D03*
X102000Y42000D02*
D03*
X97000Y15000D02*
D03*
X102500Y20000D02*
D03*
X96000Y36000D02*
D03*
D116*
X151500Y300500D02*
D03*
X7500Y366000D02*
D03*
X44000Y366500D02*
D03*
X-39500Y258500D02*
D03*
D117*
X-16870Y167941D02*
D03*
Y170500D02*
D03*
X-8130Y167941D02*
D03*
Y173059D02*
D03*
X-16870D02*
D03*
D118*
X302729Y314806D02*
D03*
Y312247D02*
D03*
Y309688D02*
D03*
Y307129D02*
D03*
X286627Y314806D02*
D03*
Y312247D02*
D03*
Y309688D02*
D03*
Y307129D02*
D03*
Y365629D02*
D03*
Y368188D02*
D03*
Y370747D02*
D03*
Y373306D02*
D03*
X302729Y365629D02*
D03*
Y368188D02*
D03*
Y370747D02*
D03*
Y373306D02*
D03*
X246827Y342445D02*
D03*
Y339886D02*
D03*
Y337327D02*
D03*
Y334768D02*
D03*
X230725Y342445D02*
D03*
Y339886D02*
D03*
Y337327D02*
D03*
Y334768D02*
D03*
X231725Y273268D02*
D03*
Y275827D02*
D03*
Y278386D02*
D03*
Y280945D02*
D03*
X247827Y273268D02*
D03*
Y275827D02*
D03*
Y278386D02*
D03*
Y280945D02*
D03*
X244827Y173445D02*
D03*
Y170886D02*
D03*
Y168327D02*
D03*
Y165768D02*
D03*
X228725Y173445D02*
D03*
Y170886D02*
D03*
Y168327D02*
D03*
Y165768D02*
D03*
X286725Y137268D02*
D03*
Y139827D02*
D03*
Y142386D02*
D03*
Y144945D02*
D03*
X302827Y137268D02*
D03*
Y139827D02*
D03*
Y142386D02*
D03*
Y144945D02*
D03*
X244827Y119945D02*
D03*
Y117386D02*
D03*
Y114827D02*
D03*
Y112268D02*
D03*
X228725Y119945D02*
D03*
Y117386D02*
D03*
Y114827D02*
D03*
Y112268D02*
D03*
X286627Y79628D02*
D03*
Y82188D02*
D03*
Y84747D02*
D03*
Y87306D02*
D03*
X302729Y79628D02*
D03*
Y82188D02*
D03*
Y84747D02*
D03*
Y87306D02*
D03*
D119*
X285650Y344146D02*
D03*
Y346705D02*
D03*
Y349264D02*
D03*
Y351823D02*
D03*
Y354382D02*
D03*
Y356941D02*
D03*
Y359500D02*
D03*
X307500Y344146D02*
D03*
Y346705D02*
D03*
Y349264D02*
D03*
Y351823D02*
D03*
Y354382D02*
D03*
Y356941D02*
D03*
Y359500D02*
D03*
X251598Y328639D02*
D03*
Y326080D02*
D03*
Y323521D02*
D03*
Y320962D02*
D03*
Y318403D02*
D03*
Y315844D02*
D03*
Y313285D02*
D03*
X229748Y328639D02*
D03*
Y326080D02*
D03*
Y323521D02*
D03*
Y320962D02*
D03*
Y318403D02*
D03*
Y315844D02*
D03*
Y313285D02*
D03*
X285650Y285646D02*
D03*
Y288205D02*
D03*
Y290764D02*
D03*
Y293323D02*
D03*
Y295882D02*
D03*
Y298441D02*
D03*
Y301000D02*
D03*
X307500Y285646D02*
D03*
Y288205D02*
D03*
Y290764D02*
D03*
Y293323D02*
D03*
Y295882D02*
D03*
Y298441D02*
D03*
Y301000D02*
D03*
X252598Y267139D02*
D03*
Y264580D02*
D03*
Y262021D02*
D03*
Y259462D02*
D03*
Y256903D02*
D03*
Y254344D02*
D03*
Y251785D02*
D03*
X230748Y267139D02*
D03*
Y264580D02*
D03*
Y262021D02*
D03*
Y259462D02*
D03*
Y256903D02*
D03*
Y254344D02*
D03*
Y251785D02*
D03*
X227748Y144285D02*
D03*
Y146844D02*
D03*
Y149403D02*
D03*
Y151962D02*
D03*
Y154521D02*
D03*
Y157080D02*
D03*
Y159639D02*
D03*
X249598Y144285D02*
D03*
Y146844D02*
D03*
Y149403D02*
D03*
Y151962D02*
D03*
Y154521D02*
D03*
Y157080D02*
D03*
Y159639D02*
D03*
X307598Y131139D02*
D03*
Y128580D02*
D03*
Y126021D02*
D03*
Y123462D02*
D03*
Y120903D02*
D03*
Y118344D02*
D03*
Y115785D02*
D03*
X285748Y131139D02*
D03*
Y128580D02*
D03*
Y126021D02*
D03*
Y123462D02*
D03*
Y120903D02*
D03*
Y118344D02*
D03*
Y115785D02*
D03*
X227748Y90785D02*
D03*
Y93344D02*
D03*
Y95903D02*
D03*
Y98462D02*
D03*
Y101021D02*
D03*
Y103580D02*
D03*
Y106139D02*
D03*
X249598Y90785D02*
D03*
Y93344D02*
D03*
Y95903D02*
D03*
Y98462D02*
D03*
Y101021D02*
D03*
Y103580D02*
D03*
Y106139D02*
D03*
X307500Y73500D02*
D03*
Y70941D02*
D03*
Y68382D02*
D03*
Y65823D02*
D03*
Y63264D02*
D03*
Y60705D02*
D03*
Y58146D02*
D03*
X285650Y73500D02*
D03*
Y70941D02*
D03*
Y68382D02*
D03*
Y65823D02*
D03*
Y63264D02*
D03*
Y60705D02*
D03*
Y58146D02*
D03*
D120*
X154405Y155831D02*
D03*
Y153272D02*
D03*
Y150713D02*
D03*
Y148154D02*
D03*
Y145595D02*
D03*
Y143035D02*
D03*
Y140477D02*
D03*
Y137917D02*
D03*
Y135358D02*
D03*
Y132799D02*
D03*
X131965Y155831D02*
D03*
Y153272D02*
D03*
Y150713D02*
D03*
Y148154D02*
D03*
Y145595D02*
D03*
Y143035D02*
D03*
Y140477D02*
D03*
Y137917D02*
D03*
Y135358D02*
D03*
Y132799D02*
D03*
D121*
X166446Y114821D02*
D03*
X169005D02*
D03*
X171564D02*
D03*
X174123D02*
D03*
X176682D02*
D03*
X179241D02*
D03*
X181800D02*
D03*
X184359D02*
D03*
X186918D02*
D03*
X189477D02*
D03*
X166446Y92380D02*
D03*
X169005D02*
D03*
X171564D02*
D03*
X174123D02*
D03*
X176682D02*
D03*
X179241D02*
D03*
X181800D02*
D03*
X184359D02*
D03*
X186918D02*
D03*
X189477D02*
D03*
D122*
X271622Y370703D02*
D03*
Y365585D02*
D03*
X279693D02*
D03*
Y368144D02*
D03*
Y370703D02*
D03*
X223791Y339842D02*
D03*
Y337283D02*
D03*
Y334724D02*
D03*
X215721D02*
D03*
Y339842D02*
D03*
X271622Y312203D02*
D03*
Y307085D02*
D03*
X279693D02*
D03*
Y309644D02*
D03*
Y312203D02*
D03*
X224791Y278342D02*
D03*
Y275783D02*
D03*
Y273224D02*
D03*
X216721D02*
D03*
Y278342D02*
D03*
X213721Y170842D02*
D03*
Y165724D02*
D03*
X221791D02*
D03*
Y168283D02*
D03*
Y170842D02*
D03*
X279791Y142342D02*
D03*
Y139783D02*
D03*
Y137224D02*
D03*
X271721D02*
D03*
Y142342D02*
D03*
X213721Y117342D02*
D03*
Y112224D02*
D03*
X221791D02*
D03*
Y114783D02*
D03*
Y117342D02*
D03*
X279693Y84703D02*
D03*
Y82144D02*
D03*
Y79585D02*
D03*
X271622D02*
D03*
Y84703D02*
D03*
D123*
X302008Y338656D02*
D03*
X305158D02*
D03*
X302008Y333144D02*
D03*
X305158D02*
D03*
X246106Y307795D02*
D03*
X249256D02*
D03*
X246106Y302284D02*
D03*
X249256D02*
D03*
X302008Y280156D02*
D03*
X305158D02*
D03*
X302008Y274644D02*
D03*
X305158D02*
D03*
X247106Y246295D02*
D03*
X250256D02*
D03*
X247106Y240784D02*
D03*
X250256D02*
D03*
X244106Y138795D02*
D03*
X247256D02*
D03*
X244106Y133283D02*
D03*
X247256D02*
D03*
X302106Y110295D02*
D03*
X305256D02*
D03*
X302106Y104783D02*
D03*
X305256D02*
D03*
X244106Y85295D02*
D03*
X247256D02*
D03*
X244106Y79783D02*
D03*
X247256D02*
D03*
X302008Y52656D02*
D03*
X305158D02*
D03*
X302008Y47144D02*
D03*
X305158D02*
D03*
D124*
X298366Y338656D02*
D03*
X308800D02*
D03*
X298366Y333144D02*
D03*
X308800D02*
D03*
X242465Y307795D02*
D03*
X252898D02*
D03*
X242465Y302284D02*
D03*
X252898D02*
D03*
X298366Y280156D02*
D03*
X308800D02*
D03*
X298366Y274644D02*
D03*
X308800D02*
D03*
X243465Y246295D02*
D03*
X253898D02*
D03*
X243465Y240784D02*
D03*
X253898D02*
D03*
X240465Y138795D02*
D03*
X250898D02*
D03*
X240465Y133283D02*
D03*
X250898D02*
D03*
X298465Y110295D02*
D03*
X308898D02*
D03*
X298465Y104783D02*
D03*
X308898D02*
D03*
X240465Y85295D02*
D03*
X250898D02*
D03*
X240465Y79783D02*
D03*
X250898D02*
D03*
X298366Y52656D02*
D03*
X308800D02*
D03*
X298366Y47144D02*
D03*
X308800D02*
D03*
D125*
X-49027Y258433D02*
X-48993Y258467D01*
X-39533D01*
X-39500Y258500D01*
D126*
X279693Y370703D02*
X284418D01*
X284461Y370747D01*
X286627D01*
M02*
