G04*
G04 #@! TF.GenerationSoftware,Altium Limited,Altium Designer,20.1.14 (287)*
G04*
G04 Layer_Physical_Order=4*
G04 Layer_Color=36540*
%FSLAX25Y25*%
%MOIN*%
G70*
G04*
G04 #@! TF.SameCoordinates,E9049712-5386-4971-9C9C-F13BCB6E38AD*
G04*
G04*
G04 #@! TF.FilePolarity,Positive*
G04*
G01*
G75*
%ADD107C,0.01772*%
%ADD115C,0.01500*%
%ADD130C,0.10000*%
%ADD131C,0.02362*%
G36*
X160000Y127500D02*
Y12500D01*
X157500Y10000D01*
X157303Y10197D01*
X73846D01*
X73603Y10360D01*
X72835Y10512D01*
X72066Y10360D01*
X71823Y10197D01*
X63846D01*
X63603Y10360D01*
X62835Y10512D01*
X62067Y10360D01*
X61823Y10197D01*
X53846D01*
X53603Y10360D01*
X52835Y10512D01*
X52066Y10360D01*
X51823Y10197D01*
X31697D01*
Y10262D01*
X25994Y15965D01*
X26034Y98534D01*
X57500Y130000D01*
X128655D01*
X128989Y129862D01*
X130500Y129663D01*
X132011Y129862D01*
X132345Y130000D01*
X157500D01*
X160000Y127500D01*
D02*
G37*
%LPC*%
G36*
X80000Y126507D02*
X79232Y126354D01*
X78581Y125919D01*
X78146Y125268D01*
X77993Y124500D01*
X78146Y123732D01*
X78581Y123081D01*
X79232Y122646D01*
X80000Y122493D01*
X80768Y122646D01*
X81419Y123081D01*
X81854Y123732D01*
X82007Y124500D01*
X81854Y125268D01*
X81419Y125919D01*
X80768Y126354D01*
X80000Y126507D01*
D02*
G37*
G36*
X111000Y123706D02*
X110347Y123576D01*
X109794Y123206D01*
X109424Y122653D01*
X109294Y122000D01*
X109424Y121347D01*
X109794Y120794D01*
X110347Y120424D01*
X111000Y120294D01*
X111653Y120424D01*
X112206Y120794D01*
X112576Y121347D01*
X112706Y122000D01*
X112576Y122653D01*
X112206Y123206D01*
X111653Y123576D01*
X111000Y123706D01*
D02*
G37*
G36*
X117000Y120206D02*
X116347Y120076D01*
X115794Y119706D01*
X115424Y119153D01*
X115294Y118500D01*
X115424Y117847D01*
X115794Y117294D01*
X116347Y116924D01*
X117000Y116794D01*
X117653Y116924D01*
X118206Y117294D01*
X118576Y117847D01*
X118706Y118500D01*
X118576Y119153D01*
X118206Y119706D01*
X117653Y120076D01*
X117000Y120206D01*
D02*
G37*
G36*
X149000Y122837D02*
X147489Y122638D01*
X146081Y122055D01*
X144872Y121128D01*
X143945Y119919D01*
X143362Y118511D01*
X143163Y117000D01*
X143362Y115489D01*
X143945Y114081D01*
X144872Y112872D01*
X146081Y111945D01*
X147489Y111362D01*
X149000Y111163D01*
X150511Y111362D01*
X151919Y111945D01*
X153128Y112872D01*
X154055Y114081D01*
X154638Y115489D01*
X154837Y117000D01*
X154638Y118511D01*
X154055Y119919D01*
X153128Y121128D01*
X151919Y122055D01*
X150511Y122638D01*
X149000Y122837D01*
D02*
G37*
G36*
X112500Y114206D02*
X111847Y114076D01*
X111294Y113706D01*
X110924Y113153D01*
X110794Y112500D01*
X110924Y111847D01*
X111294Y111294D01*
X111847Y110924D01*
X112500Y110794D01*
X113153Y110924D01*
X113706Y111294D01*
X114076Y111847D01*
X114206Y112500D01*
X114076Y113153D01*
X113706Y113706D01*
X113153Y114076D01*
X112500Y114206D01*
D02*
G37*
G36*
X103000Y114507D02*
X102232Y114354D01*
X101581Y113919D01*
X101146Y113268D01*
X100993Y112500D01*
X101146Y111732D01*
X101581Y111081D01*
X102232Y110646D01*
X103000Y110493D01*
X103768Y110646D01*
X104419Y111081D01*
X104854Y111732D01*
X105007Y112500D01*
X104854Y113268D01*
X104419Y113919D01*
X103768Y114354D01*
X103000Y114507D01*
D02*
G37*
G36*
X150500Y107706D02*
X149847Y107576D01*
X149294Y107206D01*
X148924Y106653D01*
X148794Y106000D01*
X148924Y105347D01*
X149294Y104794D01*
X149847Y104424D01*
X150500Y104294D01*
X151153Y104424D01*
X151706Y104794D01*
X152076Y105347D01*
X152206Y106000D01*
X152076Y106653D01*
X151706Y107206D01*
X151153Y107576D01*
X150500Y107706D01*
D02*
G37*
G36*
X86500Y104007D02*
X85732Y103854D01*
X85081Y103419D01*
X84646Y102768D01*
X84493Y102000D01*
X84620Y101360D01*
X84329Y100874D01*
X84232Y100854D01*
X83581Y100419D01*
X83146Y99768D01*
X82993Y99000D01*
X83146Y98232D01*
X83436Y97798D01*
X83110Y97386D01*
X82500Y97507D01*
X81732Y97354D01*
X81081Y96919D01*
X80646Y96268D01*
X80493Y95500D01*
X80646Y94732D01*
X81081Y94081D01*
X81732Y93646D01*
X82500Y93493D01*
X83268Y93646D01*
X83919Y94081D01*
X84354Y94732D01*
X84507Y95500D01*
X84354Y96268D01*
X84064Y96702D01*
X84390Y97114D01*
X85000Y96993D01*
X85768Y97146D01*
X86419Y97581D01*
X86854Y98232D01*
X87007Y99000D01*
X86880Y99640D01*
X87170Y100126D01*
X87268Y100146D01*
X87919Y100581D01*
X88354Y101232D01*
X88507Y102000D01*
X88354Y102768D01*
X87919Y103419D01*
X87268Y103854D01*
X86500Y104007D01*
D02*
G37*
G36*
X66420Y100723D02*
X65652Y100570D01*
X65001Y100135D01*
X64566Y99484D01*
X64413Y98716D01*
X64566Y97948D01*
X65001Y97296D01*
X65652Y96861D01*
X66420Y96709D01*
X67188Y96861D01*
X67839Y97296D01*
X68274Y97948D01*
X68427Y98716D01*
X68274Y99484D01*
X67839Y100135D01*
X67188Y100570D01*
X66420Y100723D01*
D02*
G37*
G36*
X60000Y97507D02*
X59232Y97354D01*
X58581Y96919D01*
X58146Y96268D01*
X57993Y95500D01*
X58146Y94732D01*
X58581Y94081D01*
X59232Y93646D01*
X60000Y93493D01*
X60768Y93646D01*
X61419Y94081D01*
X61854Y94732D01*
X62007Y95500D01*
X61854Y96268D01*
X61419Y96919D01*
X60768Y97354D01*
X60000Y97507D01*
D02*
G37*
G36*
X142000Y96007D02*
X141232Y95854D01*
X140581Y95419D01*
X140146Y94768D01*
X139993Y94000D01*
X140146Y93232D01*
X140581Y92581D01*
X141232Y92146D01*
X142000Y91993D01*
X142768Y92146D01*
X143419Y92581D01*
X143854Y93232D01*
X144007Y94000D01*
X143854Y94768D01*
X143419Y95419D01*
X142768Y95854D01*
X142000Y96007D01*
D02*
G37*
G36*
X149000Y95007D02*
X148232Y94854D01*
X147581Y94419D01*
X147146Y93768D01*
X146993Y93000D01*
X147146Y92232D01*
X147581Y91581D01*
X148232Y91146D01*
X149000Y90993D01*
X149768Y91146D01*
X150419Y91581D01*
X150854Y92232D01*
X151007Y93000D01*
X150854Y93768D01*
X150419Y94419D01*
X149768Y94854D01*
X149000Y95007D01*
D02*
G37*
G36*
X83500Y91007D02*
X82732Y90854D01*
X82081Y90419D01*
X81646Y89768D01*
X81493Y89000D01*
X81646Y88232D01*
X82081Y87581D01*
X82732Y87146D01*
X83500Y86993D01*
X84268Y87146D01*
X84919Y87581D01*
X85354Y88232D01*
X85507Y89000D01*
X85354Y89768D01*
X84919Y90419D01*
X84268Y90854D01*
X83500Y91007D01*
D02*
G37*
G36*
X87500Y88507D02*
X86732Y88354D01*
X86081Y87919D01*
X85646Y87268D01*
X85493Y86500D01*
X85646Y85732D01*
X86081Y85081D01*
X86732Y84646D01*
X87500Y84493D01*
X88268Y84646D01*
X88919Y85081D01*
X89354Y85732D01*
X89507Y86500D01*
X89354Y87268D01*
X88919Y87919D01*
X88268Y88354D01*
X87500Y88507D01*
D02*
G37*
G36*
X83500Y85507D02*
X82732Y85354D01*
X82081Y84919D01*
X81646Y84268D01*
X81493Y83500D01*
X81646Y82732D01*
X82081Y82081D01*
X82732Y81646D01*
X83500Y81493D01*
X84268Y81646D01*
X84919Y82081D01*
X85354Y82732D01*
X85507Y83500D01*
X85354Y84268D01*
X84919Y84919D01*
X84268Y85354D01*
X83500Y85507D01*
D02*
G37*
G36*
X147869Y90007D02*
X147101Y89854D01*
X146449Y89419D01*
X146014Y88768D01*
X145862Y88000D01*
X146014Y87232D01*
X146449Y86581D01*
X147101Y86146D01*
X147869Y85993D01*
X148637Y86146D01*
X148863Y86297D01*
X149313Y85996D01*
X149294Y85901D01*
X149424Y85248D01*
X149747Y84765D01*
X149424Y84282D01*
X149294Y83629D01*
X149424Y82976D01*
X149747Y82493D01*
X149424Y82010D01*
X149294Y81357D01*
X149424Y80704D01*
X149794Y80151D01*
X150347Y79781D01*
X151000Y79651D01*
X151653Y79781D01*
X152206Y80151D01*
X152576Y80704D01*
X152706Y81357D01*
X152576Y82010D01*
X152253Y82493D01*
X152576Y82976D01*
X152706Y83629D01*
X152576Y84282D01*
X152253Y84765D01*
X152576Y85248D01*
X152706Y85901D01*
X152576Y86554D01*
X152206Y87107D01*
X151653Y87477D01*
X151000Y87607D01*
X150347Y87477D01*
X150271Y87426D01*
X149821Y87727D01*
X149876Y88000D01*
X149723Y88768D01*
X149288Y89419D01*
X148637Y89854D01*
X147869Y90007D01*
D02*
G37*
G36*
X65578Y83384D02*
X64810Y83231D01*
X64159Y82796D01*
X63724Y82145D01*
X63571Y81377D01*
X63724Y80609D01*
X64159Y79958D01*
X64810Y79523D01*
X65578Y79370D01*
X66346Y79523D01*
X66997Y79958D01*
X67433Y80609D01*
X67585Y81377D01*
X67433Y82145D01*
X66997Y82796D01*
X66346Y83231D01*
X65578Y83384D01*
D02*
G37*
G36*
X87500Y82840D02*
X86732Y82688D01*
X86081Y82253D01*
X85646Y81601D01*
X85493Y80833D01*
X85646Y80065D01*
X86081Y79414D01*
X86732Y78979D01*
X87500Y78826D01*
X88268Y78979D01*
X88919Y79414D01*
X89354Y80065D01*
X89507Y80833D01*
X89354Y81601D01*
X88919Y82253D01*
X88268Y82688D01*
X87500Y82840D01*
D02*
G37*
G36*
X131500Y80206D02*
X130847Y80076D01*
X130294Y79706D01*
X129924Y79153D01*
X129794Y78500D01*
X129924Y77847D01*
X130294Y77294D01*
X130847Y76924D01*
X131500Y76794D01*
X132153Y76924D01*
X132706Y77294D01*
X133076Y77847D01*
X133206Y78500D01*
X133076Y79153D01*
X132706Y79706D01*
X132153Y80076D01*
X131500Y80206D01*
D02*
G37*
G36*
X83500Y80007D02*
X82732Y79854D01*
X82081Y79419D01*
X81646Y78768D01*
X81493Y78000D01*
X81646Y77232D01*
X82081Y76581D01*
X82732Y76146D01*
X83500Y75993D01*
X84268Y76146D01*
X84919Y76581D01*
X85354Y77232D01*
X85507Y78000D01*
X85354Y78768D01*
X84919Y79419D01*
X84268Y79854D01*
X83500Y80007D01*
D02*
G37*
G36*
X141500Y77507D02*
X140732Y77354D01*
X140081Y76919D01*
X139646Y76268D01*
X139493Y75500D01*
X139646Y74732D01*
X140081Y74081D01*
X140732Y73646D01*
X141500Y73493D01*
X142268Y73646D01*
X142919Y74081D01*
X143354Y74732D01*
X143507Y75500D01*
X143354Y76268D01*
X142919Y76919D01*
X142268Y77354D01*
X141500Y77507D01*
D02*
G37*
G36*
X87500Y77174D02*
X86732Y77021D01*
X86081Y76586D01*
X85646Y75935D01*
X85493Y75167D01*
X85646Y74399D01*
X86081Y73747D01*
X86732Y73312D01*
X87500Y73160D01*
X88268Y73312D01*
X88919Y73747D01*
X89354Y74399D01*
X89507Y75167D01*
X89354Y75935D01*
X88919Y76586D01*
X88268Y77021D01*
X87500Y77174D01*
D02*
G37*
G36*
X149046Y75854D02*
X148278Y75701D01*
X147627Y75266D01*
X147192Y74615D01*
X147039Y73847D01*
X147192Y73079D01*
X147627Y72427D01*
X148278Y71992D01*
X149046Y71840D01*
X149814Y71992D01*
X150466Y72427D01*
X150901Y73079D01*
X151053Y73847D01*
X150901Y74615D01*
X150466Y75266D01*
X149814Y75701D01*
X149046Y75854D01*
D02*
G37*
G36*
X83500Y74507D02*
X82732Y74354D01*
X82081Y73919D01*
X81646Y73268D01*
X81493Y72500D01*
X81646Y71732D01*
X82081Y71081D01*
X82732Y70646D01*
X83500Y70493D01*
X84268Y70646D01*
X84919Y71081D01*
X85354Y71732D01*
X85507Y72500D01*
X85354Y73268D01*
X84919Y73919D01*
X84268Y74354D01*
X83500Y74507D01*
D02*
G37*
G36*
X72000Y73007D02*
X71232Y72854D01*
X70581Y72419D01*
X70146Y71768D01*
X69993Y71000D01*
X70146Y70232D01*
X70581Y69581D01*
X71232Y69146D01*
X72000Y68993D01*
X72768Y69146D01*
X73419Y69581D01*
X73854Y70232D01*
X74007Y71000D01*
X73854Y71768D01*
X73419Y72419D01*
X72768Y72854D01*
X72000Y73007D01*
D02*
G37*
G36*
X87500Y71507D02*
X86732Y71354D01*
X86081Y70919D01*
X85646Y70268D01*
X85493Y69500D01*
X85646Y68732D01*
X86081Y68081D01*
X86732Y67646D01*
X87500Y67493D01*
X88268Y67646D01*
X88919Y68081D01*
X89354Y68732D01*
X89507Y69500D01*
X89354Y70268D01*
X88919Y70919D01*
X88268Y71354D01*
X87500Y71507D01*
D02*
G37*
G36*
X66500Y71007D02*
X65732Y70854D01*
X65081Y70419D01*
X64646Y69768D01*
X64493Y69000D01*
X64646Y68232D01*
X65081Y67581D01*
X65732Y67146D01*
X66500Y66993D01*
X67268Y67146D01*
X67919Y67581D01*
X68354Y68232D01*
X68507Y69000D01*
X68354Y69768D01*
X67919Y70419D01*
X67268Y70854D01*
X66500Y71007D01*
D02*
G37*
G36*
X149046Y69660D02*
X148278Y69508D01*
X147627Y69073D01*
X147192Y68421D01*
X147039Y67653D01*
X147192Y66885D01*
X147627Y66234D01*
X148278Y65799D01*
X149046Y65646D01*
X149814Y65799D01*
X150466Y66234D01*
X150901Y66885D01*
X151053Y67653D01*
X150901Y68421D01*
X150466Y69073D01*
X149814Y69508D01*
X149046Y69660D01*
D02*
G37*
G36*
X141564Y68455D02*
X140796Y68302D01*
X140145Y67867D01*
X139710Y67216D01*
X139557Y66448D01*
X139710Y65680D01*
X140145Y65029D01*
X140796Y64593D01*
X141564Y64441D01*
X142332Y64593D01*
X142983Y65029D01*
X143419Y65680D01*
X143571Y66448D01*
X143419Y67216D01*
X142983Y67867D01*
X142332Y68302D01*
X141564Y68455D01*
D02*
G37*
G36*
X83000Y68007D02*
X82232Y67854D01*
X81581Y67419D01*
X81146Y66768D01*
X80993Y66000D01*
X81146Y65232D01*
X81581Y64581D01*
X82232Y64146D01*
X83000Y63993D01*
X83768Y64146D01*
X84419Y64581D01*
X84854Y65232D01*
X85007Y66000D01*
X84854Y66768D01*
X84419Y67419D01*
X83768Y67854D01*
X83000Y68007D01*
D02*
G37*
G36*
X65000Y65507D02*
X64232Y65354D01*
X63581Y64919D01*
X63146Y64268D01*
X62993Y63500D01*
X63146Y62732D01*
X63581Y62081D01*
X64232Y61646D01*
X65000Y61493D01*
X65768Y61646D01*
X66419Y62081D01*
X66854Y62732D01*
X67007Y63500D01*
X66854Y64268D01*
X66419Y64919D01*
X65768Y65354D01*
X65000Y65507D01*
D02*
G37*
G36*
X148244Y64188D02*
X147476Y64035D01*
X146825Y63600D01*
X146390Y62949D01*
X146237Y62181D01*
X146390Y61413D01*
X146825Y60762D01*
X147476Y60327D01*
X148244Y60174D01*
X149012Y60327D01*
X149663Y60762D01*
X150098Y61413D01*
X150251Y62181D01*
X150098Y62949D01*
X149663Y63600D01*
X149012Y64035D01*
X148244Y64188D01*
D02*
G37*
G36*
X94829Y44723D02*
X94061Y44570D01*
X93410Y44135D01*
X92975Y43484D01*
X92822Y42716D01*
X92975Y41947D01*
X93410Y41296D01*
X94061Y40861D01*
X94829Y40709D01*
X95597Y40861D01*
X96249Y41296D01*
X96684Y41947D01*
X96837Y42716D01*
X96684Y43484D01*
X96249Y44135D01*
X95597Y44570D01*
X94829Y44723D01*
D02*
G37*
G36*
X102000Y44007D02*
X101232Y43854D01*
X100581Y43419D01*
X100146Y42768D01*
X99993Y42000D01*
X100146Y41232D01*
X100581Y40581D01*
X101232Y40146D01*
X102000Y39993D01*
X102768Y40146D01*
X103419Y40581D01*
X103854Y41232D01*
X104007Y42000D01*
X103854Y42768D01*
X103419Y43419D01*
X102768Y43854D01*
X102000Y44007D01*
D02*
G37*
G36*
X116500Y41507D02*
X115732Y41354D01*
X115081Y40919D01*
X114646Y40268D01*
X114493Y39500D01*
X114646Y38732D01*
X115081Y38081D01*
X115732Y37646D01*
X116500Y37493D01*
X117268Y37646D01*
X117919Y38081D01*
X118354Y38732D01*
X118507Y39500D01*
X118354Y40268D01*
X117919Y40919D01*
X117268Y41354D01*
X116500Y41507D01*
D02*
G37*
G36*
X77500Y39507D02*
X76732Y39354D01*
X76081Y38919D01*
X75646Y38268D01*
X75493Y37500D01*
X75646Y36732D01*
X76081Y36081D01*
X76732Y35646D01*
X77500Y35493D01*
X78268Y35646D01*
X78919Y36081D01*
X79354Y36732D01*
X79507Y37500D01*
X79354Y38268D01*
X78919Y38919D01*
X78268Y39354D01*
X77500Y39507D01*
D02*
G37*
G36*
X70000D02*
X69232Y39354D01*
X68581Y38919D01*
X68146Y38268D01*
X67993Y37500D01*
X68146Y36732D01*
X68581Y36081D01*
X69232Y35646D01*
X70000Y35493D01*
X70768Y35646D01*
X71419Y36081D01*
X71854Y36732D01*
X72007Y37500D01*
X71854Y38268D01*
X71419Y38919D01*
X70768Y39354D01*
X70000Y39507D01*
D02*
G37*
G36*
X96000Y38007D02*
X95232Y37854D01*
X94581Y37419D01*
X94146Y36768D01*
X93993Y36000D01*
X94146Y35232D01*
X94581Y34581D01*
X95232Y34146D01*
X96000Y33993D01*
X96768Y34146D01*
X97419Y34581D01*
X97854Y35232D01*
X98007Y36000D01*
X97854Y36768D01*
X97419Y37419D01*
X96768Y37854D01*
X96000Y38007D01*
D02*
G37*
G36*
X130000Y37507D02*
X129232Y37354D01*
X128581Y36919D01*
X128146Y36268D01*
X127993Y35500D01*
X128146Y34732D01*
X128581Y34081D01*
X129232Y33646D01*
X130000Y33493D01*
X130768Y33646D01*
X131419Y34081D01*
X131854Y34732D01*
X132007Y35500D01*
X131854Y36268D01*
X131419Y36919D01*
X130768Y37354D01*
X130000Y37507D01*
D02*
G37*
G36*
X123000D02*
X122232Y37354D01*
X121581Y36919D01*
X121146Y36268D01*
X120993Y35500D01*
X121146Y34732D01*
X121581Y34081D01*
X122232Y33646D01*
X123000Y33493D01*
X123768Y33646D01*
X124419Y34081D01*
X124854Y34732D01*
X125007Y35500D01*
X124854Y36268D01*
X124419Y36919D01*
X123768Y37354D01*
X123000Y37507D01*
D02*
G37*
G36*
X73500Y34507D02*
X72732Y34354D01*
X72081Y33919D01*
X71646Y33268D01*
X71493Y32500D01*
X71646Y31732D01*
X72081Y31081D01*
X72732Y30646D01*
X73500Y30493D01*
X74268Y30646D01*
X74919Y31081D01*
X75354Y31732D01*
X75507Y32500D01*
X75354Y33268D01*
X74919Y33919D01*
X74268Y34354D01*
X73500Y34507D01*
D02*
G37*
G36*
X102500Y22007D02*
X101732Y21854D01*
X101081Y21419D01*
X100646Y20768D01*
X100493Y20000D01*
X100646Y19232D01*
X101081Y18581D01*
X101732Y18146D01*
X102500Y17993D01*
X103268Y18146D01*
X103919Y18581D01*
X104354Y19232D01*
X104507Y20000D01*
X104354Y20768D01*
X103919Y21419D01*
X103268Y21854D01*
X102500Y22007D01*
D02*
G37*
G36*
X47835Y20512D02*
X47067Y20360D01*
X46415Y19925D01*
X45980Y19273D01*
X45827Y18505D01*
X45980Y17737D01*
X46415Y17086D01*
X47067Y16651D01*
X47835Y16498D01*
X48603Y16651D01*
X49254Y17086D01*
X49689Y17737D01*
X49842Y18505D01*
X49689Y19273D01*
X49254Y19925D01*
X48603Y20360D01*
X47835Y20512D01*
D02*
G37*
G36*
X97000Y17007D02*
X96232Y16854D01*
X95581Y16419D01*
X95146Y15768D01*
X94993Y15000D01*
X95146Y14232D01*
X95581Y13581D01*
X96232Y13146D01*
X97000Y12993D01*
X97768Y13146D01*
X98419Y13581D01*
X98854Y14232D01*
X99007Y15000D01*
X98854Y15768D01*
X98419Y16419D01*
X97768Y16854D01*
X97000Y17007D01*
D02*
G37*
%LPD*%
D107*
X105500Y118500D02*
D03*
X309000Y119000D02*
D03*
X325500Y123500D02*
D03*
X278650Y170205D02*
D03*
X319650Y169205D02*
D03*
X218905Y118961D02*
D03*
X259906Y117961D02*
D03*
X280000Y90500D02*
D03*
X321000Y89500D02*
D03*
X370000Y89000D02*
D03*
X411000Y88000D02*
D03*
X269279Y297545D02*
D03*
X286352Y303688D02*
D03*
X213000Y282000D02*
D03*
X250000Y273000D02*
D03*
X213000Y345000D02*
D03*
X247000Y333000D02*
D03*
X284000Y345000D02*
D03*
X328425Y334425D02*
D03*
X370000Y320000D02*
D03*
X414000Y309000D02*
D03*
X110500Y38000D02*
D03*
D115*
X278850Y350150D02*
X284000Y345000D01*
X278850Y350150D02*
Y353930D01*
X280713Y303713D02*
X286352D01*
X299713D01*
X328425Y332425D02*
Y334425D01*
X299713Y303713D02*
X328425Y332425D01*
Y334425D02*
X356850Y306000D01*
X280648Y90648D02*
X309000Y119000D01*
X280148Y90648D02*
X280648D01*
X280000Y90500D02*
X280148Y90648D01*
X325500Y123500D02*
Y163354D01*
Y105500D02*
Y123500D01*
Y93500D02*
Y105500D01*
X331500Y99500D01*
X366500D02*
X378000Y88000D01*
X331500Y99500D02*
X366500D01*
X378000Y88000D02*
X411000D01*
X321000Y89000D02*
X325500Y93500D01*
X319500Y169055D02*
Y169500D01*
X319650Y169205D02*
X325500Y163354D01*
X259906Y117961D02*
X268406D01*
X319500Y169055D01*
X219000Y118866D02*
Y119000D01*
X227406Y118961D02*
X278650Y170205D01*
X219039Y118961D02*
X227406D01*
X219000Y119000D02*
X219039Y118961D01*
X219000Y118866D02*
X235866Y102000D01*
X268500D02*
X280000Y90500D01*
X235866Y102000D02*
X268500D01*
X280000Y90500D02*
X280000D01*
X295500Y75000D01*
X356000D01*
X370000Y89000D01*
X269279Y297545D02*
X276639Y304906D01*
Y337639D01*
X284000Y345000D01*
X356850Y306000D02*
X398000D01*
X401000Y309000D02*
X414000D01*
X398000Y306000D02*
X401000Y309000D01*
X250000Y273000D02*
X280713Y303713D01*
X247000Y276000D02*
Y333000D01*
Y276000D02*
X250000Y273000D01*
X213000Y282000D02*
Y345000D01*
X226000D01*
X278265Y354516D02*
X278850Y353930D01*
X235516Y354516D02*
X278265D01*
X226000Y345000D02*
X235516Y354516D01*
X284000Y345000D02*
X343000D01*
X353000Y335000D01*
X357000D01*
X365000Y325000D02*
X370000Y320000D01*
X365000Y325000D02*
Y327000D01*
X357000Y335000D02*
X365000Y327000D01*
D130*
X36000Y64500D02*
D03*
D131*
X40000Y35000D02*
D03*
Y27500D02*
D03*
X30500Y17000D02*
D03*
X33500Y20000D02*
D03*
X27500D02*
D03*
X40500Y110000D02*
D03*
X148248Y79479D02*
D03*
X67000Y75000D02*
D03*
M02*
