G04*
G04 #@! TF.GenerationSoftware,Altium Limited,Altium Designer,20.1.11 (218)*
G04*
G04 Layer_Physical_Order=1*
G04 Layer_Color=255*
%FSLAX25Y25*%
%MOIN*%
G70*
G04*
G04 #@! TF.SameCoordinates,1AD583BF-7B8B-46F0-87DE-DFD4046007B5*
G04*
G04*
G04 #@! TF.FilePolarity,Positive*
G04*
G01*
G75*
%ADD18C,0.01000*%
%ADD22C,0.02000*%
%ADD24R,0.04724X0.02756*%
%ADD25R,0.02362X0.04331*%
%ADD26R,0.01575X0.03543*%
%ADD27R,0.04724X0.03150*%
%ADD28O,0.02362X0.08661*%
%ADD29R,0.08465X0.03740*%
%ADD30R,0.08465X0.12795*%
%ADD31R,0.07087X0.07874*%
%ADD32O,0.01181X0.07087*%
%ADD33O,0.07087X0.01181*%
%ADD34O,0.01181X0.08268*%
%ADD35R,0.39370X0.39370*%
%ADD36O,0.08268X0.01181*%
%ADD37R,0.08268X0.04724*%
%ADD38R,0.05315X0.06102*%
%ADD39R,0.06102X0.05315*%
%ADD40R,0.11811X0.06299*%
%ADD41R,0.11417X0.19685*%
%ADD42R,0.11024X0.02165*%
%ADD43R,0.06102X0.02362*%
%ADD44R,0.10236X0.12205*%
%ADD45O,0.06299X0.01181*%
%ADD46R,0.02756X0.01968*%
%ADD47R,0.02756X0.02520*%
%ADD48R,0.04724X0.04331*%
%ADD49R,0.04724X0.08268*%
%ADD50R,0.02756X0.04724*%
%ADD51R,0.03150X0.04724*%
%ADD52R,0.10000X0.10000*%
%ADD53R,0.10000X0.10000*%
%ADD95C,0.01772*%
%ADD97C,0.01400*%
%ADD98C,0.00700*%
%ADD99C,0.01181*%
%ADD100C,0.03000*%
%ADD101R,0.03937X0.03937*%
%ADD102R,0.07874X0.07874*%
%ADD103C,0.07874*%
%ADD104C,0.05906*%
%ADD105C,0.05118*%
%ADD106R,0.05118X0.05118*%
%ADD107R,0.05118X0.05118*%
%ADD108C,0.06000*%
%ADD109R,0.05512X0.05512*%
%ADD110C,0.05512*%
%ADD111C,0.12795*%
%ADD112C,0.09449*%
%ADD113C,0.10000*%
%ADD114C,0.02362*%
%ADD115C,0.01968*%
%ADD116C,0.03150*%
G36*
X167500Y307500D02*
X129867Y269867D01*
X116489D01*
X116157Y269801D01*
X115876Y269613D01*
X113263Y267000D01*
X108541D01*
Y282500D01*
X108383Y282883D01*
X108000Y283041D01*
X93000D01*
X92617Y282883D01*
X92459Y282500D01*
Y278000D01*
X92617Y277617D01*
X92786Y277547D01*
Y267453D01*
X92617Y267383D01*
X92459Y267000D01*
X84041D01*
X83883Y267383D01*
X83500Y267541D01*
X79000D01*
X78900Y267500D01*
X68099D01*
X68000Y267541D01*
X63500D01*
X63117Y267383D01*
X62959Y267000D01*
X21500D01*
X10000Y278500D01*
X2068D01*
X1964Y278626D01*
X1964Y392024D01*
X167500D01*
Y307500D01*
D02*
G37*
G36*
X83500Y252000D02*
X63500D01*
Y267000D01*
X68000D01*
Y266500D01*
X79000D01*
Y267000D01*
X83500D01*
Y252000D01*
D02*
G37*
G36*
X108000Y262500D02*
X93000D01*
Y267000D01*
X93786D01*
Y278000D01*
X93000D01*
Y282500D01*
X108000D01*
Y262500D01*
D02*
G37*
G36*
X87500Y26500D02*
X83644D01*
Y31259D01*
X83567Y31649D01*
X83346Y31980D01*
X83015Y32201D01*
X82625Y32278D01*
X82235Y32201D01*
X81904Y31980D01*
X81683Y31649D01*
X81605Y31259D01*
Y26500D01*
X66500D01*
X59500Y33500D01*
X49000D01*
X49000Y40500D01*
X87500Y40500D01*
X87500Y26500D01*
D02*
G37*
G36*
X48459Y40500D02*
X48459Y40500D01*
X48459Y33500D01*
X48617Y33117D01*
X49000Y32959D01*
X59276D01*
X59500Y32735D01*
Y25000D01*
X40000D01*
X36105Y21105D01*
Y6646D01*
X29790D01*
Y13889D01*
X24487Y19192D01*
X18762D01*
Y24523D01*
X24523D01*
X27000Y27000D01*
X26850Y27150D01*
Y40850D01*
X27000Y41000D01*
X48125D01*
X48459Y40500D01*
D02*
G37*
G36*
X26309Y27150D02*
X26309Y27150D01*
X26331Y27097D01*
X24298Y25064D01*
X18762D01*
X18380Y24905D01*
X18221Y24523D01*
Y19192D01*
X18380Y18809D01*
X18762Y18651D01*
X24263D01*
X29249Y13665D01*
Y6646D01*
X29407Y6263D01*
X29790Y6104D01*
X36105D01*
X36487Y6263D01*
X36646Y6646D01*
Y20881D01*
X40224Y24459D01*
X59500D01*
X59883Y24617D01*
X60041Y25000D01*
Y31540D01*
X60503Y31732D01*
X61365Y30869D01*
Y28687D01*
X63548D01*
X64933Y27302D01*
X64741Y26840D01*
X60865D01*
Y23683D01*
X64916D01*
Y23183D01*
X65416D01*
Y19525D01*
X68967D01*
Y20271D01*
X69262Y20649D01*
X69468Y20649D01*
X72125D01*
Y23223D01*
X72625D01*
Y23723D01*
X75987D01*
X75987Y25798D01*
X76420Y25959D01*
X78500D01*
Y2039D01*
X2039D01*
Y37500D01*
X26309D01*
Y27150D01*
D02*
G37*
%LPC*%
G36*
X87000Y381914D02*
Y378890D01*
X90024D01*
X89967Y379319D01*
X89609Y380185D01*
X89038Y380928D01*
X88295Y381499D01*
X87429Y381857D01*
X87000Y381914D01*
D02*
G37*
G36*
X86000Y381914D02*
X85571Y381857D01*
X84705Y381499D01*
X83962Y380928D01*
X83391Y380185D01*
X83033Y379319D01*
X82976Y378890D01*
X86000D01*
Y381914D01*
D02*
G37*
G36*
Y377890D02*
X82976D01*
X83033Y377461D01*
X83391Y376595D01*
X83962Y375851D01*
X84705Y375281D01*
X85571Y374922D01*
X86000Y374866D01*
Y377890D01*
D02*
G37*
G36*
X90024D02*
X87000D01*
Y374866D01*
X87429Y374922D01*
X88295Y375281D01*
X89038Y375851D01*
X89609Y376595D01*
X89967Y377461D01*
X90024Y377890D01*
D02*
G37*
G36*
X59000Y383547D02*
X57564Y383358D01*
X56226Y382804D01*
X55077Y381923D01*
X54196Y380774D01*
X53642Y379436D01*
X53452Y378000D01*
X53642Y376564D01*
X54196Y375226D01*
X55077Y374077D01*
X56226Y373196D01*
X57564Y372642D01*
X59000Y372452D01*
X60436Y372642D01*
X61774Y373196D01*
X62923Y374077D01*
X63804Y375226D01*
X64358Y376564D01*
X64547Y378000D01*
X64358Y379436D01*
X63804Y380774D01*
X62923Y381923D01*
X61774Y382804D01*
X60436Y383358D01*
X59000Y383547D01*
D02*
G37*
G36*
X15862Y369299D02*
X10138D01*
Y367020D01*
X9314D01*
X8996Y367496D01*
X8310Y367954D01*
X7500Y368115D01*
X6690Y367954D01*
X6004Y367496D01*
X5546Y366810D01*
X5385Y366000D01*
X5546Y365191D01*
X6004Y364504D01*
X6690Y364046D01*
X7500Y363884D01*
X8310Y364046D01*
X8996Y364504D01*
X9314Y364980D01*
X10138D01*
Y363968D01*
X15862D01*
Y369299D01*
D02*
G37*
G36*
X24236Y367634D02*
X21374D01*
Y365756D01*
X24236D01*
Y367634D01*
D02*
G37*
G36*
X20374D02*
X17512D01*
Y365756D01*
X20374D01*
Y367634D01*
D02*
G37*
G36*
X35339Y367437D02*
X32476D01*
Y365559D01*
X35339D01*
Y367437D01*
D02*
G37*
G36*
X31476D02*
X28614D01*
Y365559D01*
X31476D01*
Y367437D01*
D02*
G37*
G36*
X42713Y368709D02*
Y368709D01*
X36988D01*
Y363378D01*
X42713D01*
Y364289D01*
X43124Y364548D01*
X43213Y364541D01*
X44000Y364385D01*
X44810Y364546D01*
X45496Y365004D01*
X45954Y365690D01*
X46115Y366500D01*
X45954Y367309D01*
X45496Y367996D01*
X44810Y368454D01*
X44000Y368616D01*
X43213Y368459D01*
X43124Y368452D01*
X42713Y368709D01*
D02*
G37*
G36*
X24236Y364756D02*
X21374D01*
Y362878D01*
X24236D01*
Y364756D01*
D02*
G37*
G36*
X20374D02*
X17512D01*
Y362878D01*
X20374D01*
Y364756D01*
D02*
G37*
G36*
X35339Y364559D02*
X32476D01*
Y362681D01*
X35339D01*
Y364559D01*
D02*
G37*
G36*
X31476D02*
X28614D01*
Y362681D01*
X31476D01*
Y364559D01*
D02*
G37*
G36*
X15862Y361032D02*
X10138D01*
Y355701D01*
X15862D01*
Y357937D01*
X18012D01*
Y357079D01*
X23736D01*
Y360835D01*
X18012D01*
Y359976D01*
X15862D01*
Y361032D01*
D02*
G37*
G36*
X34839Y360638D02*
X29114D01*
Y356882D01*
X34839D01*
Y357740D01*
X36988D01*
Y355110D01*
X42713D01*
Y360441D01*
X36988D01*
Y359779D01*
X34839D01*
Y360638D01*
D02*
G37*
G36*
X33000Y337969D02*
Y334500D01*
X36469D01*
X36397Y335044D01*
X35994Y336017D01*
X35353Y336853D01*
X34517Y337494D01*
X33544Y337897D01*
X33000Y337969D01*
D02*
G37*
G36*
X32000Y337969D02*
X31456Y337897D01*
X30483Y337494D01*
X29647Y336853D01*
X29006Y336017D01*
X28603Y335044D01*
X28531Y334500D01*
X32000D01*
Y337969D01*
D02*
G37*
G36*
X87500Y373041D02*
X87117Y372883D01*
X74776Y360541D01*
X67500D01*
X67117Y360383D01*
X66959Y360000D01*
X66959Y339634D01*
X66949D01*
Y330366D01*
X67222D01*
X67471Y330117D01*
X67471Y330117D01*
X67853Y329959D01*
X67854Y329959D01*
X73000Y329959D01*
X73000Y329959D01*
X73383Y330117D01*
X73383Y330117D01*
X77724Y334459D01*
X100768Y334459D01*
Y332034D01*
X100583Y331610D01*
X95949D01*
Y328248D01*
Y324886D01*
X100583D01*
X100638Y324811D01*
X106000D01*
Y324311D01*
X106500D01*
Y320949D01*
X110476D01*
X110683Y320449D01*
X106276Y316041D01*
X90000D01*
X89617Y315883D01*
X89459Y315500D01*
X89459Y302000D01*
X89617Y301617D01*
X90000Y301459D01*
X103295Y301459D01*
X103678Y301617D01*
X104198Y302138D01*
X104579D01*
Y302518D01*
X106660Y304599D01*
X107122Y304408D01*
Y302138D01*
X110878D01*
Y306287D01*
X111148Y306497D01*
X111196Y306492D01*
X111638Y306277D01*
Y304713D01*
X114500D01*
Y306787D01*
X112007Y306787D01*
X111977D01*
D01*
X111952Y306787D01*
X111925Y306854D01*
X111745Y307287D01*
X112088Y307630D01*
X113925D01*
X114024Y307650D01*
X117862D01*
Y311778D01*
X118528Y312445D01*
X118984Y312256D01*
Y312256D01*
X126087D01*
Y315618D01*
X126087Y315618D01*
X126236Y316056D01*
X126383Y316117D01*
X126541Y316500D01*
Y320500D01*
X126383Y320883D01*
X126000Y321041D01*
X118598D01*
X118257Y321521D01*
X118350Y321749D01*
X118484Y321756D01*
Y321756D01*
X122036D01*
Y323937D01*
Y326118D01*
X118484D01*
Y326118D01*
X117995Y326145D01*
Y326562D01*
X115133D01*
Y323987D01*
X114133D01*
Y326562D01*
X111271D01*
X111134Y327005D01*
Y327673D01*
X109342D01*
X108870Y327740D01*
Y330898D01*
X104819D01*
Y331898D01*
X108870D01*
Y334459D01*
X110000D01*
X110000Y334459D01*
X110383Y334617D01*
X122883Y347117D01*
X123041Y347500D01*
X123041Y347500D01*
Y372500D01*
X122883Y372883D01*
X122500Y373041D01*
X87500D01*
X87500Y373041D01*
D02*
G37*
G36*
X22500Y337530D02*
X21586Y337410D01*
X20735Y337057D01*
X20004Y336496D01*
X19443Y335765D01*
X19090Y334914D01*
X18970Y334000D01*
X19090Y333086D01*
X19443Y332235D01*
X20004Y331504D01*
X20735Y330943D01*
X21586Y330590D01*
X22500Y330470D01*
X23414Y330590D01*
X24265Y330943D01*
X24996Y331504D01*
X25557Y332235D01*
X25910Y333086D01*
X26030Y334000D01*
X25910Y334914D01*
X25557Y335765D01*
X24996Y336496D01*
X24265Y337057D01*
X23414Y337410D01*
X22500Y337530D01*
D02*
G37*
G36*
X32000Y333500D02*
X28531D01*
X28603Y332956D01*
X29006Y331983D01*
X29647Y331147D01*
X30483Y330506D01*
X31456Y330103D01*
X32000Y330031D01*
Y333500D01*
D02*
G37*
G36*
X36469D02*
X33000D01*
Y330031D01*
X33544Y330103D01*
X34517Y330506D01*
X35353Y331147D01*
X35994Y331983D01*
X36397Y332956D01*
X36469Y333500D01*
D02*
G37*
G36*
X84712Y331610D02*
X80079D01*
Y328748D01*
X84712D01*
Y331610D01*
D02*
G37*
G36*
X94949Y331610D02*
X90315D01*
Y331610D01*
X85712D01*
Y328248D01*
Y324886D01*
X90346D01*
Y324886D01*
X94949D01*
Y328248D01*
Y331610D01*
D02*
G37*
G36*
X84712Y327748D02*
X80079D01*
Y324886D01*
X84712D01*
Y327748D01*
D02*
G37*
G36*
X33000Y327969D02*
Y324500D01*
X36469D01*
X36397Y325044D01*
X35994Y326017D01*
X35353Y326853D01*
X34517Y327494D01*
X33544Y327897D01*
X33000Y327969D01*
D02*
G37*
G36*
X32000Y327969D02*
X31456Y327897D01*
X30483Y327494D01*
X29647Y326853D01*
X29006Y326017D01*
X28603Y325044D01*
X28531Y324500D01*
X32000D01*
Y327969D01*
D02*
G37*
G36*
X62500Y365541D02*
X50000D01*
X49617Y365383D01*
X49459Y365000D01*
Y345000D01*
X49571Y344729D01*
X49459Y344459D01*
Y325000D01*
X49617Y324617D01*
X50000Y324459D01*
X62500D01*
X62883Y324617D01*
X63041Y325000D01*
Y344459D01*
X62929Y344729D01*
X63041Y345000D01*
Y365000D01*
X62883Y365383D01*
X62500Y365541D01*
D02*
G37*
G36*
X105500Y323811D02*
X100866D01*
Y320949D01*
X105500D01*
Y323811D01*
D02*
G37*
G36*
X22500Y327530D02*
X21586Y327410D01*
X20735Y327057D01*
X20004Y326496D01*
X19443Y325765D01*
X19090Y324914D01*
X18970Y324000D01*
X19090Y323086D01*
X19443Y322235D01*
X20004Y321504D01*
X20735Y320943D01*
X21586Y320590D01*
X22500Y320470D01*
X23414Y320590D01*
X24265Y320943D01*
X24996Y321504D01*
X25557Y322235D01*
X25910Y323086D01*
X26030Y324000D01*
X25910Y324914D01*
X25557Y325765D01*
X24996Y326496D01*
X24265Y327057D01*
X23414Y327410D01*
X22500Y327530D01*
D02*
G37*
G36*
X32000Y323500D02*
X28531D01*
X28603Y322956D01*
X29006Y321983D01*
X29647Y321147D01*
X30483Y320506D01*
X31456Y320103D01*
X32000Y320031D01*
Y323500D01*
D02*
G37*
G36*
X36469D02*
X33000D01*
Y320031D01*
X33544Y320103D01*
X34517Y320506D01*
X35353Y321147D01*
X35994Y321983D01*
X36397Y322956D01*
X36469Y323500D01*
D02*
G37*
G36*
X161000Y368041D02*
X149000D01*
X148617Y367883D01*
X148459Y367500D01*
Y334724D01*
X140117Y326383D01*
X139959Y326000D01*
X139959Y326000D01*
Y322500D01*
X140117Y322117D01*
X140500Y321959D01*
X147000D01*
X147000Y321959D01*
X147383Y322117D01*
X148407Y323142D01*
X148905Y322933D01*
X148905Y322723D01*
Y319957D01*
X147346D01*
Y320618D01*
X140244D01*
Y317256D01*
X147346D01*
Y317917D01*
X148905D01*
Y316823D01*
X156008D01*
Y323138D01*
X149353D01*
X149110Y323138D01*
X148902Y323636D01*
X150750Y325484D01*
X156008D01*
Y330742D01*
X161383Y336117D01*
X161541Y336500D01*
X161541Y336500D01*
Y367500D01*
X161383Y367883D01*
X161000Y368041D01*
D02*
G37*
G36*
X139284Y323539D02*
X133665D01*
Y316937D01*
X139284D01*
Y323539D01*
D02*
G37*
G36*
X126587Y326118D02*
X123036D01*
Y323937D01*
Y321756D01*
X126587D01*
Y321756D01*
X127047Y321661D01*
Y316937D01*
X132665D01*
Y323539D01*
X128489D01*
X127808Y324221D01*
X127477Y324442D01*
X127087Y324520D01*
X126587D01*
Y326118D01*
D02*
G37*
G36*
X155220Y316051D02*
X148906D01*
Y314957D01*
X147346D01*
Y315618D01*
X140244D01*
Y312256D01*
X147346D01*
Y312917D01*
X148906D01*
Y308949D01*
X155220D01*
Y316051D01*
D02*
G37*
G36*
X164382Y316551D02*
X161224D01*
Y313000D01*
X164382D01*
Y316551D01*
D02*
G37*
G36*
X160224D02*
X157067D01*
Y313000D01*
X160224D01*
Y316551D01*
D02*
G37*
G36*
X139284Y315937D02*
X133665D01*
Y309335D01*
X139284D01*
Y315937D01*
D02*
G37*
G36*
X132665D02*
X127047D01*
Y309335D01*
X132665D01*
Y315937D01*
D02*
G37*
G36*
X164382Y312000D02*
X161224D01*
Y308449D01*
X164382D01*
Y312000D01*
D02*
G37*
G36*
X160224D02*
X157067D01*
Y308449D01*
X160224D01*
Y312000D01*
D02*
G37*
G36*
X126087Y310618D02*
X118984D01*
Y307256D01*
X126087D01*
Y310618D01*
D02*
G37*
G36*
X115500Y306787D02*
Y304713D01*
X118362D01*
Y306787D01*
X115500D01*
D02*
G37*
G36*
X138378Y304862D02*
X136500D01*
Y302000D01*
X138378D01*
Y304862D01*
D02*
G37*
G36*
X135500D02*
X133622D01*
Y302000D01*
X135500D01*
Y304862D01*
D02*
G37*
G36*
X118362Y303713D02*
X115500D01*
Y301638D01*
X118362D01*
Y303713D01*
D02*
G37*
G36*
X114500D02*
X111638D01*
Y301638D01*
X114500D01*
Y303713D01*
D02*
G37*
G36*
X60000Y305980D02*
Y300500D01*
X65480D01*
X65413Y301176D01*
X65070Y302307D01*
X64513Y303349D01*
X63763Y304263D01*
X62849Y305013D01*
X61807Y305570D01*
X60676Y305913D01*
X60000Y305980D01*
D02*
G37*
G36*
X59000D02*
X58324Y305913D01*
X57193Y305570D01*
X56151Y305013D01*
X55237Y304263D01*
X54487Y303349D01*
X53930Y302307D01*
X53587Y301176D01*
X53520Y300500D01*
X59000D01*
Y305980D01*
D02*
G37*
G36*
X147346Y310618D02*
X140244D01*
Y307256D01*
X145327D01*
Y306220D01*
X144988D01*
Y305193D01*
X143988D01*
X143598Y305115D01*
X143267Y304894D01*
X142735Y304362D01*
X140421D01*
Y298638D01*
X144177D01*
Y302920D01*
X144411Y303154D01*
X144988D01*
Y302465D01*
X149806D01*
X149947Y302131D01*
X149983Y301965D01*
X149546Y301309D01*
X149384Y300500D01*
X149412Y300363D01*
X149034Y299921D01*
X144988D01*
Y296165D01*
X150713D01*
Y298031D01*
X151213Y298442D01*
X151500Y298384D01*
X152310Y298546D01*
X152996Y299004D01*
X153454Y299691D01*
X153615Y300500D01*
X153454Y301309D01*
X152996Y301996D01*
X152310Y302454D01*
X151500Y302615D01*
X151213Y302558D01*
X150713Y302969D01*
Y306220D01*
X147366D01*
Y308256D01*
X147346Y308354D01*
Y310618D01*
D02*
G37*
G36*
X138378Y301000D02*
X136500D01*
Y298138D01*
X138378D01*
Y301000D01*
D02*
G37*
G36*
X135500D02*
X133622D01*
Y298138D01*
X135500D01*
Y301000D01*
D02*
G37*
G36*
X35000Y297524D02*
Y294500D01*
X38024D01*
X37967Y294929D01*
X37609Y295795D01*
X37038Y296538D01*
X36295Y297109D01*
X35429Y297467D01*
X35000Y297524D01*
D02*
G37*
G36*
X34000D02*
X33571Y297467D01*
X32705Y297109D01*
X31962Y296538D01*
X31391Y295795D01*
X31033Y294929D01*
X30976Y294500D01*
X34000D01*
Y297524D01*
D02*
G37*
G36*
X65480Y299500D02*
X60000D01*
Y294020D01*
X60676Y294087D01*
X61807Y294430D01*
X62849Y294987D01*
X63763Y295737D01*
X64513Y296651D01*
X65070Y297693D01*
X65413Y298824D01*
X65480Y299500D01*
D02*
G37*
G36*
X59000D02*
X53520D01*
X53587Y298824D01*
X53930Y297693D01*
X54487Y296651D01*
X55237Y295737D01*
X56151Y294987D01*
X57193Y294430D01*
X58324Y294087D01*
X59000Y294020D01*
Y299500D01*
D02*
G37*
G36*
X23779Y297059D02*
X17661D01*
Y290941D01*
X23779D01*
Y297059D01*
D02*
G37*
G36*
X38024Y293500D02*
X35000D01*
Y290476D01*
X35429Y290533D01*
X36295Y290891D01*
X37038Y291462D01*
X37609Y292205D01*
X37967Y293071D01*
X38024Y293500D01*
D02*
G37*
G36*
X34000D02*
X30976D01*
X31033Y293071D01*
X31391Y292205D01*
X31962Y291462D01*
X32705Y290891D01*
X33571Y290533D01*
X34000Y290476D01*
Y293500D01*
D02*
G37*
%LPD*%
G36*
X122500Y347500D02*
X110000Y335000D01*
X77500Y335000D01*
X73000Y330500D01*
X67853Y330500D01*
X67500Y330854D01*
X67500Y360000D01*
X75000D01*
X87500Y372500D01*
X122500D01*
Y347500D01*
D02*
G37*
G36*
X126000Y316500D02*
X117795D01*
X113094Y311799D01*
X112138D01*
Y310843D01*
X109157Y307862D01*
X107122D01*
Y305827D01*
X103295Y302000D01*
X90000Y302000D01*
X90000Y315500D01*
X106500D01*
X111500Y320500D01*
X126000D01*
Y316500D01*
D02*
G37*
G36*
X62500Y345000D02*
X50000D01*
Y365000D01*
X62500D01*
Y345000D01*
D02*
G37*
G36*
Y325000D02*
X50000D01*
Y344459D01*
X62500D01*
Y325000D01*
D02*
G37*
G36*
X161000Y336500D02*
X147000Y322500D01*
X140500D01*
Y326000D01*
X149000Y334500D01*
Y367500D01*
X161000D01*
Y336500D01*
D02*
G37*
%LPC*%
G36*
X16316Y22999D02*
X13454D01*
Y21121D01*
X16316D01*
Y22999D01*
D02*
G37*
G36*
X12454D02*
X9592D01*
Y21121D01*
X12454D01*
Y22999D01*
D02*
G37*
G36*
X75987Y22723D02*
X73125D01*
Y20649D01*
X75987D01*
Y22723D01*
D02*
G37*
G36*
X59650Y22815D02*
X54917D01*
Y20445D01*
X59650D01*
Y22815D01*
D02*
G37*
G36*
X53917D02*
X49185D01*
Y20445D01*
X53917D01*
Y22815D01*
D02*
G37*
G36*
X64416Y22683D02*
X60865D01*
Y19525D01*
X64416D01*
Y22683D01*
D02*
G37*
G36*
X16316Y20121D02*
X13454D01*
Y18243D01*
X16316D01*
Y20121D01*
D02*
G37*
G36*
X12454D02*
X9592D01*
Y18243D01*
X12454D01*
Y20121D01*
D02*
G37*
G36*
X59650Y19445D02*
X54917D01*
Y17075D01*
X59650D01*
Y19445D01*
D02*
G37*
G36*
X53917D02*
X49185D01*
Y17075D01*
X53917D01*
Y19445D01*
D02*
G37*
G36*
X24487Y16255D02*
X18762D01*
Y15342D01*
X15816D01*
Y16200D01*
X10092D01*
Y12444D01*
X15816D01*
Y13303D01*
X18762D01*
Y10924D01*
X24487D01*
Y16255D01*
D02*
G37*
G36*
X45266Y14248D02*
X42109D01*
Y10697D01*
X45266D01*
Y14248D01*
D02*
G37*
G36*
X41109D02*
X37951D01*
Y10697D01*
X41109D01*
Y14248D01*
D02*
G37*
G36*
X45266Y9697D02*
X42109D01*
Y6146D01*
X45266D01*
Y9697D01*
D02*
G37*
G36*
X41109D02*
X37951D01*
Y6146D01*
X41109D01*
Y9697D01*
D02*
G37*
%LPD*%
D18*
X466000Y153299D02*
Y155500D01*
Y135000D02*
Y137201D01*
Y117299D02*
Y119500D01*
Y99299D02*
Y101500D01*
X469500Y323799D02*
Y325807D01*
Y305500D02*
Y307508D01*
X470000Y287799D02*
Y290000D01*
X469500Y269299D02*
Y271500D01*
X154000Y115000D02*
Y159580D01*
Y87748D02*
Y115000D01*
X147500D02*
X154000D01*
X158148Y229852D02*
X158500Y229500D01*
X143148Y229852D02*
X158148D01*
X143000Y230000D02*
X143148Y229852D01*
X141500Y232500D02*
X141709D01*
X141294D02*
X141500D01*
X148209Y239000D02*
X148500D01*
X141709Y232500D02*
X148209Y239000D01*
X128500Y121500D02*
X129000Y121000D01*
X135000D01*
X72500Y140000D02*
Y145500D01*
Y101044D02*
Y140000D01*
X65500D02*
X72500D01*
X180500Y69500D02*
X181000Y70000D01*
X180500Y65500D02*
Y69500D01*
X98308Y173603D02*
X98308D01*
X115300Y172808D02*
Y175557D01*
X98308Y173603D02*
X100513Y175807D01*
X101300D01*
X130300Y172808D02*
Y175308D01*
X447681Y18681D02*
X501500Y72500D01*
X434432Y18681D02*
X447681D01*
X465500Y15500D02*
X492500Y42500D01*
X451251Y15500D02*
X465500D01*
X178091Y13909D02*
X468409D01*
X517500Y63000D01*
X451590Y17090D02*
X517500Y83000D01*
X164250Y30000D02*
X178750Y15500D01*
X163591Y28409D02*
X178091Y13909D01*
X178750Y15500D02*
X451251D01*
X180068Y18681D02*
X434432D01*
X179410Y17090D02*
X451590D01*
X164910Y31591D02*
X179410Y17090D01*
X115000Y309724D02*
X115496D01*
X116571Y310799D01*
Y311929D01*
X118642Y314000D02*
X122472D01*
X116571Y311929D02*
X118642Y314000D01*
X122472D02*
X122535Y313937D01*
X109000Y305000D02*
Y305984D01*
X111665Y308650D01*
X113925D01*
X115000Y309724D01*
X157000Y86505D02*
Y158000D01*
X155500Y87126D02*
Y158621D01*
X151850Y85597D02*
X154000Y87748D01*
X152003Y83629D02*
X155500Y87126D01*
X152155Y81660D02*
X157000Y86505D01*
X154000Y159580D02*
X154856Y160435D01*
X156993Y162493D02*
X157000Y162500D01*
Y158000D02*
X159000Y160000D01*
X156993Y160114D02*
Y162493D01*
X154856Y160435D02*
Y160644D01*
X155500Y158621D02*
X156993Y160114D01*
X186512Y70000D02*
X186512Y70000D01*
X189500D01*
X168500Y109854D02*
X168854D01*
X167705Y102492D02*
X167705D01*
X165500Y100287D02*
X167705Y102492D01*
X168854Y109854D02*
X175681Y116681D01*
X165500Y99500D02*
Y100287D01*
X159500Y99012D02*
X159988Y99500D01*
X159500Y95500D02*
Y99012D01*
X143500Y144500D02*
X143500Y144500D01*
Y141000D02*
Y144500D01*
X143500Y150012D02*
X143500Y150012D01*
Y153000D01*
X107000Y158000D02*
X108075Y159075D01*
Y160706D01*
X108500Y161131D01*
Y161500D01*
X101488Y157213D02*
Y158000D01*
X100413Y156138D02*
X101488Y157213D01*
X99506Y156138D02*
X100413D01*
X98869Y155500D02*
X99506Y156138D01*
X98500Y155500D02*
X98869D01*
X143003Y107500D02*
X143500D01*
X136849Y101346D02*
X143003Y107500D01*
X136849Y99377D02*
X139851D01*
X140229Y99755D01*
X140461D01*
X142739Y102034D01*
Y103739D01*
X143000Y104000D01*
X136849Y97408D02*
X139851D01*
X140229Y97786D01*
X140786D01*
X146500Y103500D01*
X266500Y113500D02*
Y113869D01*
X265207Y115162D02*
X266500Y113869D01*
X265207Y115162D02*
Y115293D01*
X175681Y116681D02*
X263819D01*
X265207Y115293D01*
X205862Y101362D02*
X210500Y106000D01*
X255000D02*
X259000Y102000D01*
X210500Y106000D02*
X255000D01*
X89500Y114710D02*
Y154000D01*
X76500Y121799D02*
X77484D01*
X79322Y123637D01*
Y123822D01*
X80000Y124500D01*
Y124315D02*
Y124500D01*
Y124315D02*
X82516Y121799D01*
X83500D01*
X83503Y107448D02*
Y115497D01*
X83500Y115500D02*
X83503Y115497D01*
X76500Y101429D02*
X76618Y101311D01*
X76500Y101429D02*
Y115500D01*
X85471Y110450D02*
X85849Y110828D01*
Y111059D01*
X89500Y114710D01*
X85471Y107448D02*
Y110450D01*
X135484Y217984D02*
X135492Y217992D01*
X141492D01*
X141500Y218000D01*
X135484Y231764D02*
X140558D01*
X141294Y232500D01*
X135484Y229795D02*
X142587D01*
X142791Y230000D01*
X143000D01*
X135484Y227827D02*
X135519Y227792D01*
X140999D01*
X141291Y227500D01*
X141500D01*
X136849Y81660D02*
X152155D01*
X136849Y83629D02*
X152003D01*
X136849Y85597D02*
X151850D01*
X97686Y183686D02*
Y185360D01*
X96000Y182000D02*
X97686Y183686D01*
Y185360D02*
X98639Y186313D01*
Y190981D01*
X98673Y191016D01*
X96000Y169000D02*
Y182000D01*
X72500Y145500D02*
X96000Y169000D01*
X74398Y99377D02*
X77400D01*
X74020Y99755D02*
X74398Y99377D01*
X73789Y99755D02*
X74020D01*
X72500Y101044D02*
X73789Y99755D01*
X233962Y98462D02*
X234000Y98500D01*
X232571Y98462D02*
X233962D01*
X317500Y354500D02*
X317684D01*
X290500D02*
Y356000D01*
X219800Y207807D02*
X221812Y209819D01*
X165256Y211748D02*
X177729D01*
X164248D02*
X164256D01*
X164000Y211500D02*
X164248Y211748D01*
X164256Y205173D02*
X179107D01*
X167300Y189807D02*
X194800D01*
X96670Y243019D02*
X96705Y242984D01*
X95715Y248341D02*
X96670Y247386D01*
Y243019D02*
Y247386D01*
X95715Y248341D02*
Y248341D01*
X94736Y242984D02*
X94771Y243019D01*
Y247550D01*
X95561Y248341D01*
X95715D01*
X100642Y242984D02*
Y248142D01*
X102610Y242984D02*
Y251244D01*
X101535Y252319D02*
X102610Y251244D01*
X127087Y323500D02*
X130409Y320177D01*
X131000Y318602D02*
Y320768D01*
Y318602D02*
X133165Y316437D01*
X131000Y312106D02*
Y314272D01*
X133165Y316437D01*
X135484Y235701D02*
X135503Y235683D01*
X140845D01*
X140864Y235664D01*
Y235616D02*
Y235664D01*
X138980Y233732D02*
X140864Y235616D01*
X135484Y233732D02*
X138980D01*
X135484Y212079D02*
X135519Y212044D01*
X140252D01*
X140300Y211996D01*
X108125Y39075D02*
Y39724D01*
Y39075D02*
X109199Y38000D01*
X110500D01*
X83481Y206208D02*
X83516Y206173D01*
X78348Y206208D02*
X83481D01*
X78300Y206256D02*
X78348Y206208D01*
X68288Y207319D02*
Y208107D01*
X69363Y209181D01*
X70674D01*
X70800Y209308D01*
X73800Y206882D02*
Y207319D01*
X72725Y205807D02*
X73800Y206882D01*
X71300Y205807D02*
X72725D01*
X74623Y208142D02*
X83516D01*
X73800Y207319D02*
X74623Y208142D01*
X83490Y225833D02*
X83516Y225858D01*
X78325Y225833D02*
X83490D01*
X78300Y225807D02*
X78325Y225833D01*
X68288Y226882D02*
Y227319D01*
X67213Y225807D02*
X68288Y226882D01*
X65300Y225807D02*
X67213D01*
X73800Y226882D02*
Y227319D01*
X72725Y225807D02*
X73800Y226882D01*
X71300Y225807D02*
X72725D01*
X73800Y227319D02*
X77145D01*
X77653Y227827D01*
X83516D01*
X94736Y187423D02*
Y191016D01*
Y187423D02*
X95653Y186507D01*
Y185955D02*
Y186507D01*
Y185955D02*
X95800Y185808D01*
X96705Y187423D02*
Y191016D01*
X95948Y186667D02*
X96705Y187423D01*
X95948Y185955D02*
Y186667D01*
X95800Y185808D02*
X95948Y185955D01*
X100607Y190981D02*
X100642Y191016D01*
X100607Y185823D02*
Y190981D01*
X100300Y185516D02*
X100607Y185823D01*
X100300Y185308D02*
Y185516D01*
X99300Y178927D02*
X102610Y182237D01*
Y191016D01*
X108481Y190981D02*
X108516Y191016D01*
X108481Y186197D02*
Y190981D01*
X108300Y186016D02*
X108481Y186197D01*
X108300Y185808D02*
Y186016D01*
X114387Y190981D02*
X114421Y191016D01*
X114387Y185394D02*
Y190981D01*
X114300Y185308D02*
X114387Y185394D01*
X115300Y175557D02*
X115550Y175807D01*
X114879Y181319D02*
X115550D01*
X113804Y180245D02*
X114879Y181319D01*
X113804Y178927D02*
Y180245D01*
X116390Y182159D02*
Y191016D01*
X115550Y181319D02*
X116390Y182159D01*
X122295Y191016D02*
X122298Y191013D01*
Y185810D02*
Y191013D01*
Y185810D02*
X122300Y185808D01*
X129800Y175807D02*
X130300Y175308D01*
X129800Y181319D02*
X130587D01*
X131662Y180245D01*
Y179065D02*
Y180245D01*
Y179065D02*
X131800Y178927D01*
X129800Y181319D02*
Y185873D01*
X128201Y187472D02*
X129800Y185873D01*
X128201Y187472D02*
Y191016D01*
X221812Y209819D02*
X224800Y212807D01*
Y219268D01*
X219800Y200370D02*
Y207807D01*
X230812Y191319D02*
Y192107D01*
X228733Y194186D02*
X230812Y192107D01*
X228245Y194186D02*
X228733D01*
X228098Y194334D02*
X228245Y194186D01*
X224800Y192307D02*
X227800Y189307D01*
X224800Y192307D02*
Y200370D01*
X164300Y218319D02*
Y219303D01*
X163422Y220181D02*
X164300Y219303D01*
X161926Y220181D02*
X163422D01*
X161800Y220307D02*
X161926Y220181D01*
X158001Y217335D02*
Y218319D01*
X153973Y213307D02*
X158001Y217335D01*
X141800Y213307D02*
X153973D01*
X135484Y214047D02*
X141060D01*
X141800Y213307D01*
X179127Y220808D02*
X179300Y220981D01*
X175300Y220808D02*
X179127D01*
X170800Y217831D02*
X171588D01*
X174153Y220396D01*
Y220660D01*
X174300Y220808D01*
X178517Y197103D02*
X179300Y196319D01*
X173792Y197103D02*
X177517D01*
X170800Y199308D02*
X171588D01*
X173792Y197103D01*
Y197103D02*
Y197103D01*
X179107Y205173D02*
X179300Y204981D01*
X178729Y211748D02*
X179300Y212319D01*
X135484Y210110D02*
X157079D01*
X157957Y210988D01*
Y211748D01*
X135484Y208142D02*
X155973D01*
X157957Y206157D01*
Y205173D02*
Y206157D01*
X213788Y224583D02*
Y228319D01*
Y223798D02*
Y224583D01*
Y223798D02*
X214800Y222786D01*
Y219268D02*
Y222786D01*
X219800Y219268D02*
Y227819D01*
X219300Y228319D02*
X219800Y227819D01*
X194800Y189807D02*
X219560Y214567D01*
Y219028D02*
X219800Y219268D01*
X219560Y214567D02*
Y219028D01*
X150934Y206173D02*
X167300Y189807D01*
X135484Y206173D02*
X150934D01*
X151540Y182367D02*
X151599Y182426D01*
X147860Y182367D02*
X151540D01*
X147800Y182308D02*
X147860Y182367D01*
X151599Y188726D02*
Y193489D01*
X135484Y204205D02*
X146199D01*
X150615Y199789D01*
X151599D01*
X135484Y198299D02*
X139077D01*
X139937Y199160D01*
X140153D01*
X140300Y199308D01*
X135484Y200268D02*
X139077D01*
X139889Y199455D01*
X140153D01*
X140300Y199308D01*
X144013Y193807D02*
X144800D01*
X142938Y194882D02*
X144013Y193807D01*
X142938Y194882D02*
Y196221D01*
X142800Y196359D02*
X142938Y196221D01*
X144800Y199319D02*
X145588D01*
X146662Y198245D01*
Y196945D02*
Y198245D01*
Y196945D02*
X146800Y196808D01*
X135484Y202236D02*
X141118D01*
X142938Y200416D01*
Y200394D02*
Y200416D01*
Y200394D02*
X144013Y199319D01*
X144800D01*
X135484Y216016D02*
X135519Y215981D01*
X140042D01*
X140397Y215626D01*
X144213D01*
X145288Y216701D01*
Y217319D01*
X150800Y216532D02*
Y217319D01*
X149725Y215457D02*
X150800Y216532D01*
X148938Y215457D02*
X149725D01*
X148936Y215455D02*
X148938Y215457D01*
X148448Y215455D02*
X148936D01*
X148300Y215307D02*
X148448Y215455D01*
X150812Y224319D02*
Y225107D01*
X149737Y226182D02*
X150812Y225107D01*
X148426Y226182D02*
X149737D01*
X148300Y226308D02*
X148426Y226182D01*
X140653Y222660D02*
X140800Y222808D01*
X140653Y220660D02*
Y222660D01*
X139980Y219987D02*
X140653Y220660D01*
X135484Y219953D02*
X135519Y219987D01*
X139980D01*
X145288Y217319D02*
Y218107D01*
X147152Y219971D01*
Y220660D01*
X147300Y220808D01*
X147091D02*
X147300D01*
X146505Y221393D02*
X147091Y220808D01*
X146375Y221393D02*
X146505D01*
X146375D02*
Y223245D01*
X145300Y224319D02*
X146375Y223245D01*
X135484Y221921D02*
X139077D01*
X139815Y222660D01*
X140653D01*
X140159Y222808D02*
X140800D01*
X135484Y223890D02*
X139077D01*
X140159Y222808D01*
X135484Y225858D02*
X135519Y225824D01*
X139617D01*
X140519Y224922D01*
X144698D01*
X145300Y224319D01*
X108481Y243019D02*
X108516Y242984D01*
X108481Y243019D02*
Y247918D01*
X108300Y248099D02*
X108481Y247918D01*
X108300Y248099D02*
Y248307D01*
X122295Y242984D02*
X122298Y242987D01*
Y248305D01*
X122300Y248307D01*
X129375Y257831D02*
X129800D01*
X128300Y256756D02*
X129375Y257831D01*
X128300Y255280D02*
Y256756D01*
X129800Y252319D02*
X130225D01*
X131300Y253394D01*
Y254807D01*
X128201Y242984D02*
Y251244D01*
X129276Y252319D01*
X129800D01*
X115550Y257831D02*
X115952D01*
X117026Y256756D01*
Y255308D02*
Y256756D01*
X114879Y252319D02*
X115550D01*
X113804Y253394D02*
X114879Y252319D01*
X113804Y253394D02*
Y254807D01*
X101300Y257831D02*
X101725D01*
X102800Y256756D01*
Y255308D02*
Y256756D01*
X100513Y252319D02*
X101300D01*
X99438Y253394D02*
X100513Y252319D01*
X99438Y253394D02*
Y254670D01*
X99300Y254807D02*
X99438Y254670D01*
X101300Y252319D02*
X101535D01*
X114387Y243019D02*
X114421Y242984D01*
X114387Y243019D02*
Y248221D01*
X114300Y248307D02*
X114387Y248221D01*
X116390Y242984D02*
Y251480D01*
X115550Y252319D02*
X116390Y251480D01*
X346376Y77000D02*
X346611Y77236D01*
X343500Y77000D02*
X346376D01*
X346371Y94000D02*
X346611Y93759D01*
X343500Y94000D02*
X346371D01*
X339611Y94236D02*
X339847Y94000D01*
X343000D01*
X346376Y110500D02*
X346611Y110736D01*
X343500Y110500D02*
X346376D01*
X339611Y110748D02*
X339859Y110500D01*
X343000D01*
X346364Y127000D02*
X346611Y127248D01*
X343500Y127000D02*
X346364D01*
X339611Y127236D02*
X339847Y127000D01*
X343000D01*
X339611Y143759D02*
X339871Y143500D01*
X343000D01*
X382430Y102039D02*
X382500Y101969D01*
Y100000D02*
Y101969D01*
X382396Y109948D02*
X382430Y109913D01*
X379052Y109948D02*
X382396D01*
X378000Y111000D02*
X379052Y109948D01*
X379822Y111881D02*
X382430D01*
X379088Y111148D02*
X379822Y111881D01*
X378148Y111148D02*
X379088D01*
X378000Y111000D02*
X378148Y111148D01*
X379822Y119755D02*
X382430D01*
X379364Y120213D02*
X379822Y119755D01*
X378787Y120213D02*
X379364D01*
X378000Y121000D02*
X378787Y120213D01*
X382396Y121689D02*
X382430Y121724D01*
X378898Y121689D02*
X382396D01*
X378209Y121000D02*
X378898Y121689D01*
X378000Y121000D02*
X378209D01*
X379822Y131566D02*
X382430D01*
X378903Y130648D02*
X379822Y131566D01*
X378148Y130648D02*
X378903D01*
X378000Y130500D02*
X378148Y130648D01*
X379822Y129598D02*
X382430D01*
X379068Y130352D02*
X379822Y129598D01*
X378148Y130352D02*
X379068D01*
X378000Y130500D02*
X378148Y130352D01*
X368489Y140925D02*
Y141713D01*
X370568Y143792D01*
X371055D01*
X371203Y143940D01*
X374001Y140138D02*
Y140925D01*
X372926Y139063D02*
X374001Y140138D01*
X372272Y139063D02*
X372926D01*
X371709Y138500D02*
X372272Y139063D01*
X371500Y138500D02*
X371709D01*
X372937Y127730D02*
X374012Y128805D01*
X372150Y127730D02*
X372937D01*
X372068Y127648D02*
X372150Y127730D01*
X371648Y127648D02*
X372068D01*
X371500Y127500D02*
X371648Y127648D01*
X368500Y129592D02*
Y130379D01*
X369575Y131454D01*
X370245D01*
X370791Y132000D01*
X371000D01*
X368489Y118259D02*
Y119046D01*
X369564Y120121D01*
X370412D01*
X370791Y120500D01*
X371000D01*
X374001Y117471D02*
Y118259D01*
X372926Y116396D02*
X374001Y117471D01*
X372138Y116396D02*
X372926D01*
X371890Y116148D02*
X372138Y116396D01*
X371648Y116148D02*
X371890D01*
X371500Y116000D02*
X371648Y116148D01*
X368500Y106925D02*
Y107713D01*
X369575Y108787D01*
X370363D01*
X370428Y108852D01*
X370852D01*
X371000Y109000D01*
X374012Y106138D02*
Y106925D01*
X372937Y105063D02*
X374012Y106138D01*
X371563Y105063D02*
X372937D01*
X371500Y105000D02*
X371563Y105063D01*
X375031Y107944D02*
X382430D01*
X374012Y106925D02*
X375031Y107944D01*
X374472Y117787D02*
X382430D01*
X374001Y118259D02*
X374472Y117787D01*
X379920Y137472D02*
X382430D01*
X378422Y138970D02*
X379920Y137472D01*
X378422Y138970D02*
Y139578D01*
X377075Y140925D02*
X378422Y139578D01*
X374001Y140925D02*
X377075D01*
X375187Y127629D02*
X382430D01*
X374012Y128805D02*
X375187Y127629D01*
X374012Y128805D02*
Y129592D01*
X418361Y140138D02*
Y140925D01*
X417286Y139063D02*
X418361Y140138D01*
X416063Y139063D02*
X417286D01*
X416000Y139000D02*
X416063Y139063D01*
X412849Y140925D02*
Y141713D01*
X413924Y142787D01*
X414711D01*
X418361Y106138D02*
Y106925D01*
X417286Y105063D02*
X418361Y106138D01*
X416063Y105063D02*
X417286D01*
X416000Y105000D02*
X416063Y105063D01*
X412849Y106925D02*
Y107713D01*
X413924Y108787D01*
X414979D01*
X415191Y109000D01*
X415400D01*
X418361Y117471D02*
Y118259D01*
X417286Y116396D02*
X418361Y117471D01*
X416499Y116396D02*
X417286D01*
X416250Y116148D02*
X416499Y116396D01*
X415957Y116148D02*
X416250D01*
X415810Y116000D02*
X415957Y116148D01*
X412849Y118259D02*
Y119046D01*
X413924Y120121D01*
X414711D01*
X404477Y109913D02*
X404512Y109948D01*
X408448D01*
X408500Y110000D01*
X404477Y119755D02*
X408808D01*
X404477Y129598D02*
X404512Y129632D01*
X407924D01*
X408291Y130000D01*
X408500D01*
X418512Y128713D02*
Y129500D01*
X417437Y127638D02*
X418512Y128713D01*
X416138Y127638D02*
X417437D01*
X416000Y127500D02*
X416138Y127638D01*
X413000Y129500D02*
Y130287D01*
X414075Y131362D01*
X415362D01*
X415500Y131500D01*
X404477Y107944D02*
X411830D01*
X412849Y106925D01*
X404477Y117787D02*
X412377D01*
X412849Y118259D01*
X404477Y127629D02*
X411917D01*
X413000Y128713D01*
Y129500D01*
X409774Y140925D02*
X412849D01*
X407071Y138222D02*
X409774Y140925D01*
X407071Y137556D02*
Y138222D01*
X406987Y137472D02*
X407071Y137556D01*
X404477Y137472D02*
X406987D01*
X343500Y314012D02*
X343512Y314000D01*
X347000D01*
X343500Y297488D02*
X343512Y297500D01*
X350000D01*
X350488Y281000D02*
X350500Y280988D01*
X343500Y281000D02*
X349988D01*
X350488Y247500D02*
X350500Y247488D01*
X347500Y247500D02*
X350488D01*
X350127Y264385D02*
X350500Y264012D01*
X347255Y264385D02*
X350127D01*
X343500Y264488D02*
X343603Y264385D01*
X346755D01*
X386084Y272291D02*
X386319D01*
X386000Y272208D02*
X386084Y272291D01*
X386000Y270500D02*
Y272208D01*
X383711Y280165D02*
X386319D01*
X383024Y280852D02*
X383711Y280165D01*
X382148Y280852D02*
X383024D01*
X382000Y281000D02*
X382148Y280852D01*
X383711Y282134D02*
X386319D01*
X382577Y281000D02*
X383711Y282134D01*
X382000Y281000D02*
X382577D01*
X372389Y277178D02*
Y277965D01*
X373777Y279352D01*
X374352D01*
X374500Y279500D01*
X377901Y276390D02*
Y277178D01*
X376826Y275315D02*
X377901Y276390D01*
X376024Y275315D02*
X376826D01*
X375709Y275000D02*
X376024Y275315D01*
X375500Y275000D02*
X375709D01*
X383727Y290008D02*
X386319D01*
X382734Y291000D02*
X383727Y290008D01*
X382000Y291000D02*
X382734D01*
X383711Y291976D02*
X386319D01*
X382734Y291000D02*
X383711Y291976D01*
X372377Y287724D02*
Y288511D01*
Y287724D02*
X373452Y286649D01*
X374142D01*
X374291Y286500D01*
X374500D01*
X377889Y288511D02*
Y289299D01*
X376815Y290373D02*
X377889Y289299D01*
X375627Y290373D02*
X376815D01*
X375500Y290500D02*
X375627Y290373D01*
X377901Y299844D02*
Y300632D01*
X376826Y301707D02*
X377901Y300632D01*
X376039Y301707D02*
X376826D01*
X375893Y301852D02*
X376039Y301707D01*
X375498Y301852D02*
X375893D01*
X375350Y302000D02*
X375498Y301852D01*
X372389Y299057D02*
Y299844D01*
Y299057D02*
X373799Y297648D01*
X374352D01*
X374500Y297500D01*
X383711Y301819D02*
X386319D01*
X382540Y300648D02*
X383711Y301819D01*
X382148Y300648D02*
X382540D01*
X382000Y300500D02*
X382148Y300648D01*
X386284Y299885D02*
X386319Y299850D01*
X382824Y299885D02*
X386284D01*
X382209Y300500D02*
X382824Y299885D01*
X382000Y300500D02*
X382209D01*
X372377Y310390D02*
Y311178D01*
Y310390D02*
X373452Y309315D01*
X373976D01*
X374291Y309000D01*
X374500D01*
X377889Y311178D02*
Y311965D01*
X376815Y313040D02*
X377889Y311965D01*
X376169Y313040D02*
X376815D01*
X375709Y313500D02*
X376169Y313040D01*
X375500Y313500D02*
X375709D01*
X380555Y307724D02*
X386319D01*
X377889Y310390D02*
X380555Y307724D01*
X377889Y310390D02*
Y311178D01*
X379076Y297882D02*
X386319D01*
X377901Y299057D02*
X379076Y297882D01*
X377901Y299057D02*
Y299844D01*
X378361Y288039D02*
X386319D01*
X377889Y288511D02*
X378361Y288039D01*
X378920Y278197D02*
X386319D01*
X377901Y277178D02*
X378920Y278197D01*
X422250Y310390D02*
Y311178D01*
X421175Y309315D02*
X422250Y310390D01*
X420223Y309315D02*
X421175D01*
X419907Y309000D02*
X420223Y309315D01*
X419698Y309000D02*
X419907D01*
X416738Y311178D02*
Y311965D01*
X417813Y313040D01*
X418331D01*
X422250Y276390D02*
Y277178D01*
X421175Y275315D02*
X422250Y276390D01*
X420223Y275315D02*
X421175D01*
X419907Y275000D02*
X420223Y275315D01*
X419698Y275000D02*
X419907D01*
X416738Y277178D02*
Y277965D01*
X417813Y279040D01*
X418331D01*
X422250Y287724D02*
Y288511D01*
X421175Y286649D02*
X422250Y287724D01*
X420387Y286649D02*
X421175D01*
X420386Y286648D02*
X420387Y286649D01*
X419846Y286648D02*
X420386D01*
X419698Y286500D02*
X419846Y286648D01*
X416738Y288511D02*
Y289299D01*
X417813Y290373D01*
X418873D01*
X419000Y290500D01*
X422238Y299057D02*
Y299844D01*
X421163Y297982D02*
X422238Y299057D01*
X420377Y297982D02*
X421163D01*
X419895Y297500D02*
X420377Y297982D01*
X419687Y297500D02*
X419895D01*
X416726Y299844D02*
Y300632D01*
X417801Y301707D01*
X418498D01*
X418791Y302000D01*
X419000D01*
X408366Y307724D02*
X414072D01*
X416738Y310390D01*
Y311178D01*
X408366Y299850D02*
X408401Y299885D01*
X412322D01*
X412500Y300063D01*
X408366Y297882D02*
X415551D01*
X416726Y299057D01*
Y299844D01*
X408366Y280165D02*
X408401Y280200D01*
X412322D01*
X412500Y280378D01*
X408366Y290008D02*
X408401Y290042D01*
X412519D01*
X412697Y290220D01*
X408366Y288039D02*
X416266D01*
X416738Y288511D01*
X408366Y278197D02*
X415719D01*
X416738Y277178D01*
X235108Y52392D02*
X320057D01*
X236000Y53892D02*
X341057D01*
X236621Y55392D02*
X362557D01*
X237243Y56892D02*
X384057D01*
X392169Y48780D01*
X362557Y55392D02*
X369669Y48280D01*
X341057Y53892D02*
X346669Y48280D01*
X347654D01*
X347941Y47992D01*
X320057Y52392D02*
X324169Y48280D01*
X325153D01*
X325441Y47992D01*
X303500Y122000D02*
X311996Y113504D01*
X303500Y122000D02*
Y134500D01*
X267398Y132602D02*
X272500Y127500D01*
X267028Y132602D02*
X267398D01*
X266768Y132862D02*
X267028Y132602D01*
X297500Y122734D02*
Y141000D01*
X292766Y118000D02*
X297500Y122734D01*
X292500Y118000D02*
X292766D01*
X214500Y146000D02*
X216531Y143968D01*
Y143617D02*
Y143968D01*
Y143617D02*
X218649Y141500D01*
X254000D01*
X198488Y99500D02*
Y100287D01*
X197413Y101362D02*
X198488Y100287D01*
X196626Y101362D02*
X197413D01*
X195845Y102143D02*
X196626Y101362D01*
X194580Y102143D02*
X195845D01*
X194319Y102403D02*
X194580Y102143D01*
X201012Y76453D02*
Y77287D01*
X198500Y79799D02*
Y93618D01*
Y79799D02*
X201012Y77287D01*
X198488Y99500D02*
X198500Y99488D01*
Y93618D02*
Y99488D01*
X206713Y78000D02*
X207500D01*
X204091Y75378D02*
X206713Y78000D01*
X204000Y75378D02*
X204091D01*
X201012Y76453D02*
X202087Y75378D01*
X204000D01*
X195500Y76453D02*
Y76500D01*
X194425Y75378D02*
X195500Y76453D01*
X192000Y75378D02*
X194425D01*
X195500Y76500D02*
Y81657D01*
X194760Y82398D02*
X195500Y81657D01*
X194760Y82398D02*
Y83382D01*
Y93618D01*
X211261Y269739D02*
X217500Y263500D01*
X211261Y269739D02*
Y271739D01*
X211000Y272000D02*
X211261Y271739D01*
X201500Y368118D02*
Y371379D01*
X200216Y371440D02*
X201988Y373213D01*
Y374000D01*
X200216Y371379D02*
Y371440D01*
X197988Y351213D02*
Y352000D01*
Y351213D02*
X200000Y349201D01*
Y349000D02*
Y349201D01*
X203500Y352000D02*
X210500D01*
X201500Y354787D02*
Y368118D01*
Y354787D02*
X203500Y352787D01*
Y352000D02*
Y352787D01*
X197760Y357882D02*
Y368118D01*
Y352228D02*
X197988Y352000D01*
X197760Y352228D02*
Y357882D01*
X165568Y33181D02*
X180068Y18681D01*
X142612Y33181D02*
X165568D01*
X138742Y31591D02*
X164910D01*
X122485Y28409D02*
X163591D01*
X127500Y30000D02*
X164250D01*
X119123Y31772D02*
X122485Y28409D01*
X119123Y31772D02*
Y36206D01*
X122140Y39223D01*
X123125D01*
X130747Y45046D02*
Y47999D01*
Y45046D02*
X142612Y33181D01*
X130125Y39223D02*
X131109D01*
X138742Y31591D01*
X126672Y30828D02*
Y41053D01*
X126810Y41191D01*
Y47999D01*
X126672Y30828D02*
X127500Y30000D01*
X136849Y65912D02*
X136884Y65947D01*
X140695D01*
X141196Y66448D01*
X141564D01*
X148837Y67862D02*
X149046Y67653D01*
X143347Y67862D02*
X148837D01*
X141933Y66448D02*
X143347Y67862D01*
X141564Y66448D02*
X141933D01*
X151500Y64500D02*
Y65287D01*
X149134Y67653D02*
X151500Y65287D01*
X149046Y67653D02*
X149134D01*
X145988Y63713D02*
Y64500D01*
Y63713D02*
X147063Y62638D01*
X147419D01*
X147875Y62181D01*
X148244D01*
X142660Y64500D02*
X145988D01*
X142104Y63944D02*
X142660Y64500D01*
X136849Y63944D02*
X142104D01*
X136849Y75755D02*
X136884Y75720D01*
X141280D01*
X141500Y75500D01*
X148837Y73638D02*
X149046Y73847D01*
X143429Y73638D02*
X148837D01*
X141567Y75500D02*
X143429Y73638D01*
X141500Y75500D02*
X141567D01*
X151500Y76213D02*
Y77000D01*
X149134Y73847D02*
X151500Y76213D01*
X149046Y73847D02*
X149134D01*
X145988Y77787D02*
X147420Y79219D01*
X147987D01*
X148248Y79479D01*
X136849Y79692D02*
X144084D01*
X145988Y77787D01*
Y77000D02*
Y77787D01*
X142000Y94000D02*
X147631D01*
X148631Y93000D01*
X149000D01*
X151125Y90223D02*
Y91011D01*
X149135Y93000D02*
X151125Y91011D01*
X149000Y93000D02*
X149135D01*
X145613Y89436D02*
Y90223D01*
Y89436D02*
X146688Y88361D01*
X147139D01*
X147500Y88000D01*
X147869D01*
X136849Y93471D02*
X136884Y93506D01*
X141138D01*
X141631Y94000D01*
X142000D01*
X142538Y90223D02*
X145613D01*
X141293Y91468D02*
X142538Y90223D01*
X136884Y91468D02*
X141293D01*
X136849Y91503D02*
X136884Y91468D01*
X103153Y107483D02*
X103188Y107448D01*
X103153Y107483D02*
Y112347D01*
X103000Y112500D02*
X103153Y112347D01*
X63125Y78223D02*
Y79011D01*
X65491Y81377D01*
X65578D01*
X63113Y65436D02*
Y66223D01*
Y65436D02*
X65000Y63549D01*
Y63500D02*
Y63549D01*
X72000Y71000D02*
X72261Y70739D01*
Y69239D02*
Y70739D01*
Y69239D02*
X73584Y67916D01*
X71914Y72414D02*
X73252Y73752D01*
X71914Y71086D02*
X72000Y71000D01*
X71914Y71086D02*
Y72414D01*
X77366Y73752D02*
X77400Y73786D01*
X73252Y73752D02*
X77366D01*
X77400Y67881D02*
X77435Y67846D01*
X81055D01*
X82901Y66000D01*
X83000D01*
Y65500D02*
Y66000D01*
X77400Y63944D02*
X77435Y63978D01*
X81479D01*
X83000Y65500D01*
X111261Y119147D02*
X113837Y121723D01*
X111000Y118886D02*
X111261Y119147D01*
X111633Y119519D01*
X111000Y119147D02*
X111261D01*
X107625Y121735D02*
X108412D01*
X111000Y119147D01*
Y118886D02*
Y119147D01*
X113837Y121723D02*
X114625D01*
X111000Y114000D02*
Y118886D01*
X113030Y107448D02*
Y111970D01*
X111000Y114000D02*
X113030Y111970D01*
X114625Y116212D02*
X115412D01*
X117778Y118578D01*
Y118665D01*
X106837Y116223D02*
X107625D01*
X105261Y117800D02*
X106837Y116223D01*
X105261Y117800D02*
Y118239D01*
X105000Y118500D02*
X105261Y118239D01*
X107125Y107448D02*
Y115724D01*
X107625Y116223D01*
X67562Y77149D02*
X68636Y78223D01*
X67562Y75930D02*
Y77149D01*
X67000Y75369D02*
X67562Y75930D01*
X67000Y75000D02*
Y75369D01*
X68625Y66223D02*
Y67011D01*
X66636Y69000D02*
X68625Y67011D01*
X66500Y69000D02*
X66636D01*
X77366Y67916D02*
X77400Y67881D01*
X73584Y67916D02*
X77366D01*
X68625Y66223D02*
X74087D01*
X74398Y65912D01*
X77400D01*
X69136Y77723D02*
X77400D01*
X68636Y78223D02*
X69136Y77723D01*
X400528Y41209D02*
X405403D01*
X398559D02*
X400528D01*
X398559Y47508D02*
X405992D01*
X408500Y45000D01*
X396000Y41209D02*
X398559D01*
X405403D02*
X405500Y41306D01*
X396000Y41209D02*
Y47508D01*
X405426Y32925D02*
X405623D01*
X398847Y39505D02*
X405426Y32925D01*
X398847Y39505D02*
Y40921D01*
X398559Y41209D02*
X398847Y40921D01*
X398500Y26059D02*
X404222D01*
X405623Y24657D01*
X393441Y36433D02*
Y41209D01*
Y36433D02*
X397516Y32358D01*
X398500D01*
X376059Y47008D02*
X383992D01*
X386000Y45000D01*
X376552Y39437D02*
X383064Y32925D01*
X378028Y40709D02*
X382403D01*
X376059D02*
X378028D01*
X373500D02*
X376059D01*
X382403D02*
X383000Y41306D01*
X373500Y40709D02*
Y47008D01*
X383064Y32925D02*
X383261D01*
X376346Y39437D02*
X376552D01*
X376059Y39724D02*
X376346Y39437D01*
X376059Y39724D02*
Y40709D01*
X376000Y25858D02*
X382060D01*
X383261Y24657D01*
X370941Y36232D02*
Y40709D01*
Y36232D02*
X375016Y32157D01*
X376000D01*
X353059Y47008D02*
X360492D01*
X363000Y44500D01*
X353358Y39437D02*
X359803Y32992D01*
X355028Y40709D02*
X359903D01*
X353059D02*
X355028D01*
X359803Y32992D02*
X360000D01*
X353346Y39437D02*
X353358D01*
X353059Y39724D02*
X353346Y39437D01*
X353059Y39724D02*
Y40709D01*
X350500D02*
X353059D01*
X359903D02*
X360000Y40806D01*
X350500Y40709D02*
Y47008D01*
X353000Y25559D02*
X359165D01*
X360000Y24724D01*
X347941Y35933D02*
Y40709D01*
Y35933D02*
X352016Y31858D01*
X353000D01*
X330500Y25559D02*
X336697D01*
X337531Y24724D01*
X325441Y35933D02*
Y40709D01*
Y35933D02*
X329516Y31858D01*
X330500D01*
X330559Y47008D02*
X338492D01*
X340500Y45000D01*
X330890Y39437D02*
X337335Y32992D01*
X332528Y40709D02*
X337350D01*
X330559D02*
X332528D01*
X337335Y32992D02*
X337531D01*
X330847Y39437D02*
X330890D01*
X330559Y39724D02*
X330847Y39437D01*
X330559Y39724D02*
Y40709D01*
X328000D02*
X330559D01*
X337350D02*
X337500Y40858D01*
X328000Y40709D02*
Y47008D01*
X307869Y39437D02*
X314381Y32925D01*
X309528Y40709D02*
X314403D01*
X307559D02*
X309528D01*
X307500Y25559D02*
X313676D01*
X314578Y24657D01*
X302441Y35933D02*
Y40709D01*
Y35933D02*
X306516Y31858D01*
X307500D01*
X314500Y47011D02*
X314697D01*
X317208Y44500D01*
X317500D01*
X307559Y47008D02*
X314497D01*
X314500Y47011D01*
X314381Y32925D02*
X314578D01*
X307846Y39437D02*
X307869D01*
X307559Y39724D02*
X307846Y39437D01*
X307559Y39724D02*
Y40709D01*
X314403D02*
X314500Y40806D01*
X305000Y40709D02*
X307559D01*
X305000D02*
Y47008D01*
X285000Y26059D02*
X290665D01*
X292000Y24724D01*
X279941Y36433D02*
Y40709D01*
Y36433D02*
X284016Y32358D01*
X285000D01*
X285358Y39437D02*
X291803Y32992D01*
X287028Y40709D02*
X291903D01*
X285059D02*
X287028D01*
X291803Y32992D02*
X292000D01*
X285347Y39437D02*
X285358D01*
X285059Y39724D02*
X285347Y39437D01*
X285059Y39724D02*
Y40709D01*
X291903D02*
X292000Y40806D01*
X282500Y40709D02*
X285059D01*
X282500D02*
Y47008D01*
X292197Y47011D02*
X294708Y44500D01*
X295000D01*
X292000Y47011D02*
X292197D01*
X285059Y47008D02*
X291997D01*
X292000Y47011D01*
X262500Y25358D02*
X269104D01*
X269804Y24657D01*
X257941Y35232D02*
Y40709D01*
Y35232D02*
X261516Y31657D01*
X262500D01*
X265028Y40709D02*
X269903D01*
X263059D02*
X265028D01*
X269607Y32925D02*
X269804D01*
X263347Y39186D02*
X269607Y32925D01*
X263347Y39186D02*
Y40421D01*
X263059Y40709D02*
X263347Y40421D01*
X269903Y40709D02*
X270000Y40806D01*
X260500Y40709D02*
X263059D01*
X260500D02*
Y47008D01*
X270000Y47011D02*
X270197D01*
X272708Y44500D01*
X273000D01*
X263062Y47011D02*
X270000D01*
X263059Y47008D02*
X263062Y47011D01*
X242852Y42221D02*
X243429Y41643D01*
X242612Y41980D02*
X242852Y42221D01*
X241559Y40806D02*
Y41693D01*
X241846Y41980D01*
X242612D01*
X241559Y40806D02*
X248500D01*
X239097D02*
X241559D01*
Y40709D02*
Y40806D01*
X248500Y47011D02*
X248697D01*
X251000Y44708D01*
Y44500D02*
Y44708D01*
X248303Y32992D02*
X248500D01*
X241858Y39437D02*
X248303Y32992D01*
X241846Y39437D02*
X241858D01*
X241559Y39724D02*
X241846Y39437D01*
X241559Y39724D02*
Y40709D01*
X241500Y26059D02*
X247165D01*
X248500Y24724D01*
X240622Y33236D02*
X241500Y32358D01*
X239264Y33236D02*
X240622D01*
X236441Y36059D02*
X239264Y33236D01*
X236441Y36059D02*
Y40709D01*
X239000D02*
Y47008D01*
Y40709D02*
X239097Y40806D01*
X241562Y47011D02*
X248500D01*
X241559Y47008D02*
X241562Y47011D01*
X233454Y60681D02*
X237243Y56892D01*
X221500Y60500D02*
X221681Y60681D01*
X233454D01*
X233332Y58681D02*
X236621Y55392D01*
X224181Y58681D02*
X233332D01*
X224000Y58500D02*
X224181Y58681D01*
X233211Y56681D02*
X236000Y53892D01*
X226681Y56681D02*
X233211D01*
X226500Y56500D02*
X226681Y56681D01*
X229000Y54500D02*
X229181Y54681D01*
X232819D01*
X235108Y52392D01*
X233108Y50892D02*
X298557D01*
X231500Y52500D02*
X233108Y50892D01*
X279941Y47008D02*
Y47213D01*
X279654Y47500D02*
X279941Y47213D01*
X276500Y47500D02*
X279654D01*
X257933Y47000D02*
X257941Y47008D01*
X255000Y47000D02*
X257933D01*
X234715Y47008D02*
X236441D01*
X233707Y46000D02*
X234715Y47008D01*
X233500Y46000D02*
X233707D01*
X77400Y69849D02*
X86151D01*
X86500Y69500D01*
X87131Y75167D02*
X87500D01*
X86509Y75790D02*
X87131Y75167D01*
X80743Y81319D02*
X86451D01*
X77400Y81660D02*
X80402D01*
X80743Y81319D01*
X302441Y47008D02*
Y47992D01*
X302153Y48280D02*
X302441Y47992D01*
X301169Y48280D02*
X302153D01*
X298557Y50892D02*
X301169Y48280D01*
X325441Y47008D02*
Y47992D01*
X347941Y47008D02*
Y47992D01*
X370941Y47008D02*
Y47992D01*
X370654Y48280D02*
X370941Y47992D01*
X369669Y48280D02*
X370654D01*
X393154Y48780D02*
X393441Y48492D01*
Y47508D02*
Y48492D01*
X392169Y48780D02*
X393154D01*
X83477Y78500D02*
X83500D01*
X82760Y83629D02*
X83131Y84000D01*
X83500D01*
X83131Y89000D02*
X83500D01*
X82476Y88344D02*
X83131Y89000D01*
X81916Y88344D02*
X82476D01*
X81173Y87601D02*
X81916Y88344D01*
X77400Y87566D02*
X77435Y87601D01*
X81173D01*
X82052Y85632D02*
X82920Y86500D01*
X77435Y85632D02*
X82052D01*
X82920Y86500D02*
X86500D01*
X77400Y85597D02*
X77435Y85632D01*
X77400Y83629D02*
X82760D01*
X77400Y79692D02*
X82285D01*
X83477Y78500D01*
X77400Y75755D02*
X77435Y75790D01*
X86509D01*
X82853Y71853D02*
X83500Y72500D01*
X77400Y71818D02*
X77435Y71853D01*
X82853D01*
X66420Y98716D02*
X68625Y96511D01*
X64774Y100361D02*
X66420Y98716D01*
X-37000Y176000D02*
Y176250D01*
Y176000D02*
X32500Y106500D01*
X64848D01*
X69125Y102223D02*
Y103208D01*
X68247Y104086D02*
X69125Y103208D01*
X67262Y104086D02*
X68247D01*
X64848Y106500D02*
X67262Y104086D01*
X-49027Y176543D02*
X-41043D01*
X50000Y85500D01*
X77400Y95440D02*
X77430Y95470D01*
X82470D01*
X82500Y95500D01*
X68625Y95723D02*
Y96511D01*
Y94936D02*
Y95723D01*
X70089Y93471D02*
X77400D01*
X68625Y94936D02*
X70089Y93471D01*
X62889Y95500D02*
X63113Y95723D01*
X60000Y95500D02*
X62889D01*
X64774Y91086D02*
X68625Y94936D01*
X63703Y91086D02*
X64774D01*
X62825Y90208D02*
X63703Y91086D01*
X62825Y89223D02*
Y90208D01*
Y101239D02*
X63703Y100361D01*
X64774D01*
X62825Y101239D02*
Y102223D01*
X-1000Y132500D02*
X47500Y84000D01*
X69500D01*
X72000Y86500D01*
X69125Y88239D02*
Y89223D01*
X68247Y87361D02*
X69125Y88239D01*
X67262Y87361D02*
X68247D01*
X65401Y85500D02*
X67262Y87361D01*
X50000Y85500D02*
X65401D01*
X72000Y86500D02*
Y87500D01*
X74000Y89500D01*
X77366D02*
X77400Y89534D01*
X74000Y89500D02*
X77366D01*
X70420Y91503D02*
X77400D01*
X69125Y90208D02*
X70420Y91503D01*
X69125Y89223D02*
Y90208D01*
Y101239D02*
X72921Y97443D01*
X77366D02*
X77400Y97408D01*
X72921Y97443D02*
X77366D01*
X69125Y101239D02*
Y102223D01*
X204000Y99500D02*
Y100287D01*
X205075Y101362D01*
X205862D01*
X202240Y93618D02*
Y97052D01*
X202826Y97638D01*
X202925D01*
X204000Y98713D01*
Y99500D01*
X217620Y83512D02*
X232571Y98462D01*
X207500Y83512D02*
X217620D01*
X202240Y83382D02*
X207370D01*
X207500Y83512D01*
X219500Y361500D02*
X285000D01*
X290500Y356000D01*
X210500Y357512D02*
X215512D01*
X219500Y361500D01*
X205240Y357882D02*
X210130D01*
X210500Y357512D01*
X298000Y374000D02*
X317000Y355000D01*
X207500Y374000D02*
X298000D01*
X205240Y368118D02*
X205430Y368308D01*
Y371198D01*
X206370Y372138D01*
X206425D01*
X207500Y373213D01*
Y374000D01*
X136856Y60000D02*
X183626D01*
X193834Y70208D01*
X185234Y58038D02*
X193834Y66639D01*
X136849Y58038D02*
X185234D01*
X186835Y56070D02*
X193834Y63069D01*
X136849Y56070D02*
X186835D01*
X188435Y54101D02*
X193834Y59500D01*
X136849Y54101D02*
X188435D01*
X136849Y60007D02*
X136856Y60000D01*
X114999Y107448D02*
Y115838D01*
X114625Y116212D02*
X114999Y115838D01*
X88500Y98500D02*
X89000D01*
X83537Y103463D02*
X88500Y98500D01*
X82000Y101000D02*
X82500D01*
X76618Y101311D02*
X81689D01*
X82000Y101000D01*
X83503Y107448D02*
X83537Y107413D01*
Y103463D02*
Y107413D01*
X-12000Y128500D02*
Y131299D01*
X-19000Y128500D02*
Y131299D01*
X-26984Y131299D02*
X-26000D01*
X-29283Y129000D02*
X-26984Y131299D01*
X-30500Y129000D02*
X-29283D01*
X-31000Y125000D02*
X-12000D01*
X-12000Y125000D01*
X-49027Y129299D02*
X-35299D01*
X-31000Y125000D01*
X130125Y32924D02*
Y35375D01*
X130000Y35500D02*
X130125Y35375D01*
X123125Y32924D02*
Y35375D01*
X123000Y35500D02*
X123125Y35375D01*
X113636Y39724D02*
X113860Y39500D01*
X116500D01*
X128778Y43222D02*
Y47999D01*
X130125Y39223D02*
Y41875D01*
X128778Y43222D02*
X130125Y41875D01*
X123125Y39223D02*
Y41231D01*
X124841Y42948D02*
Y47999D01*
X123125Y41231D02*
X124841Y42948D01*
X92625Y40511D02*
X94829Y42716D01*
X95232D01*
X97247Y44731D01*
X103153Y47964D02*
X103188Y47999D01*
X103153Y43522D02*
Y47964D01*
X102000Y42369D02*
X103153Y43522D01*
X102000Y42000D02*
Y42369D01*
X101219Y42781D02*
Y47999D01*
Y42781D02*
X102000Y42000D01*
X92625Y39723D02*
Y40511D01*
X97247Y44731D02*
Y47964D01*
X97282Y47999D01*
X97277Y14723D02*
X102625D01*
X97000Y15000D02*
X97277Y14723D01*
X102625D02*
Y19875D01*
X102500Y20000D02*
X102625Y19875D01*
X105156Y33712D02*
Y47999D01*
X102625Y31180D02*
X105156Y33712D01*
X107125Y40723D02*
Y47999D01*
Y40723D02*
X108125Y39724D01*
X20892Y14322D02*
X21625Y13590D01*
X12954Y14322D02*
X20892D01*
X98136Y38936D02*
Y39723D01*
X96000Y36800D02*
X98136Y38936D01*
X96000Y36000D02*
Y36800D01*
X99251Y41625D02*
Y47999D01*
X98136Y40511D02*
X99251Y41625D01*
X98136Y39723D02*
Y40511D01*
X82625Y14723D02*
Y31259D01*
X151291Y300500D02*
X151500D01*
X148835Y298043D02*
X151291Y300500D01*
X147850Y298043D02*
X148835D01*
X143795Y318937D02*
X151413D01*
X152457Y319980D01*
X143795Y313937D02*
X150626D01*
X152063Y312500D01*
X147681Y304173D02*
X147850Y304343D01*
X143988Y304173D02*
X147681D01*
X142299Y302484D02*
X143988Y304173D01*
X142299Y301500D02*
Y302484D01*
X143795Y308937D02*
X145665D01*
X146346Y308256D01*
Y305221D02*
Y308256D01*
Y305221D02*
X147224Y304343D01*
X147850D01*
X12366Y366000D02*
X13000Y366634D01*
X7500Y366000D02*
X12366D01*
X40467Y366659D02*
X43841D01*
X44000Y366500D01*
X39850Y366043D02*
X40467Y366659D01*
X13000Y358366D02*
X13591Y358957D01*
X20874D01*
X38866Y358760D02*
X39850Y357776D01*
X31976Y358760D02*
X38866D01*
X122535Y323937D02*
X122972Y323500D01*
X127087D01*
X104228Y324311D02*
X106000D01*
X101276Y327264D02*
X104228Y324311D01*
X101276Y327264D02*
Y328248D01*
X95449D02*
X101276D01*
X104425Y331398D01*
X104819D01*
X85212Y328248D02*
X95449D01*
X95449Y328248D01*
X114633Y323987D02*
X114683Y323937D01*
X122535D01*
X106000Y324311D02*
X114309D01*
X114633Y323987D01*
D22*
X-49027Y264732D02*
X-44597D01*
X-43274Y263409D01*
X-42771D01*
X-48944Y261665D02*
X-44515D01*
X-42771Y263409D01*
X-42069D01*
X-42000Y263478D01*
X-49027Y261583D02*
X-48944Y261665D01*
X-42283Y255283D02*
X-42000Y255000D01*
X-49027Y255283D02*
X-42283D01*
X-49027Y248984D02*
X-49019Y248992D01*
X-42008D01*
X-42000Y249000D01*
X-42185Y242685D02*
X-42000Y242500D01*
X-49027Y242685D02*
X-42185D01*
X-49027Y233236D02*
X-48944Y233319D01*
X-42279D01*
X-42098Y233500D01*
X-42000D01*
X-49027Y223787D02*
X-48944Y223870D01*
X-42228D01*
X-42098Y224000D01*
X-42000D01*
X-49027Y204890D02*
X-48971Y204945D01*
X-42055D01*
X-42000Y205000D01*
X-49027Y214338D02*
X-48944Y214421D01*
X-42177D01*
X-42098Y214500D01*
X-42000D01*
X-49027Y182843D02*
X-49019Y182835D01*
X-42008D01*
X-42000Y182827D01*
X-49027Y173394D02*
X-48973Y173447D01*
X-42053D01*
X-42000Y173500D01*
X-49027Y163945D02*
X-48999Y163972D01*
X-42028D01*
X-42000Y164000D01*
X-49027Y154496D02*
X-49023Y154500D01*
X-42000D01*
X-49027Y145047D02*
X-49003Y145024D01*
X-42024D01*
X-42000Y145000D01*
X-49027Y135598D02*
X-48977Y135549D01*
X-42049D01*
X-42000Y135500D01*
D24*
X466000Y153299D02*
D03*
Y147000D02*
D03*
Y135000D02*
D03*
Y128701D02*
D03*
Y117299D02*
D03*
Y111000D02*
D03*
Y99299D02*
D03*
Y93000D02*
D03*
X469500Y323799D02*
D03*
Y317500D02*
D03*
Y305500D02*
D03*
Y299201D02*
D03*
X470000Y287799D02*
D03*
Y281500D02*
D03*
X469500Y269299D02*
D03*
Y263000D02*
D03*
X123125Y39223D02*
D03*
Y32924D02*
D03*
X398500Y32358D02*
D03*
Y26059D02*
D03*
X376000Y32157D02*
D03*
Y25858D02*
D03*
X353000Y31858D02*
D03*
Y25559D02*
D03*
X330500Y31858D02*
D03*
Y25559D02*
D03*
X241500Y32358D02*
D03*
Y26059D02*
D03*
X307500Y31858D02*
D03*
Y25559D02*
D03*
X285000Y32358D02*
D03*
Y26059D02*
D03*
X262500Y31657D02*
D03*
Y25358D02*
D03*
X83500Y115500D02*
D03*
Y121799D02*
D03*
X76500Y115500D02*
D03*
Y121799D02*
D03*
X20874Y365256D02*
D03*
Y358957D02*
D03*
X31976Y358760D02*
D03*
Y365059D02*
D03*
X151599Y199789D02*
D03*
Y193489D02*
D03*
Y188726D02*
D03*
Y182426D02*
D03*
X130125Y39223D02*
D03*
Y32924D02*
D03*
X-12000Y131299D02*
D03*
Y125000D02*
D03*
X-26000Y125000D02*
D03*
Y131299D02*
D03*
X-19000Y131299D02*
D03*
Y125000D02*
D03*
X147850Y298043D02*
D03*
Y304343D02*
D03*
X12954Y14322D02*
D03*
Y20621D02*
D03*
D25*
X205240Y357882D02*
D03*
X197760D02*
D03*
Y368118D02*
D03*
X201500D02*
D03*
X205240D02*
D03*
X202240Y93618D02*
D03*
X198500D02*
D03*
X194760D02*
D03*
Y83382D02*
D03*
X202240D02*
D03*
D26*
X325441Y40709D02*
D03*
X328000D02*
D03*
X330559D02*
D03*
Y47008D02*
D03*
X328000D02*
D03*
X325441D02*
D03*
X302441D02*
D03*
X305000D02*
D03*
X307559D02*
D03*
Y40709D02*
D03*
X305000D02*
D03*
X302441D02*
D03*
X279941D02*
D03*
X282500D02*
D03*
X285059D02*
D03*
Y47008D02*
D03*
X282500D02*
D03*
X279941D02*
D03*
X236441D02*
D03*
X239000D02*
D03*
X241559D02*
D03*
Y40709D02*
D03*
X239000D02*
D03*
X236441D02*
D03*
X257941D02*
D03*
X260500D02*
D03*
X263059D02*
D03*
Y47008D02*
D03*
X260500D02*
D03*
X257941D02*
D03*
X347941D02*
D03*
X350500D02*
D03*
X353059D02*
D03*
Y40709D02*
D03*
X350500D02*
D03*
X347941D02*
D03*
X370941D02*
D03*
X373500D02*
D03*
X376059D02*
D03*
Y47008D02*
D03*
X373500D02*
D03*
X370941D02*
D03*
X393441Y47508D02*
D03*
X396000D02*
D03*
X398559D02*
D03*
Y41209D02*
D03*
X396000D02*
D03*
X393441D02*
D03*
D27*
X269000Y47000D02*
D03*
Y41488D02*
D03*
X404500Y47012D02*
D03*
Y41500D02*
D03*
X382000Y47012D02*
D03*
Y41500D02*
D03*
X359000Y46512D02*
D03*
Y41000D02*
D03*
X336500Y46500D02*
D03*
Y40988D02*
D03*
X313500Y46512D02*
D03*
Y41000D02*
D03*
X291000Y46500D02*
D03*
Y40988D02*
D03*
X247500Y47000D02*
D03*
Y41488D02*
D03*
X107625Y116223D02*
D03*
Y121735D02*
D03*
X114625Y116212D02*
D03*
Y121723D02*
D03*
X72625Y28735D02*
D03*
Y23223D02*
D03*
X114633Y318475D02*
D03*
Y323987D02*
D03*
X339611Y82736D02*
D03*
Y88248D02*
D03*
X343500Y252988D02*
D03*
Y258500D02*
D03*
X346611Y77236D02*
D03*
Y82748D02*
D03*
X350500Y247488D02*
D03*
Y253000D02*
D03*
X339611Y138248D02*
D03*
Y143759D02*
D03*
X343500Y308500D02*
D03*
Y314012D02*
D03*
X346611Y132747D02*
D03*
Y138259D02*
D03*
X350500Y303000D02*
D03*
Y308512D02*
D03*
X339611Y127236D02*
D03*
Y132747D02*
D03*
X343500Y297488D02*
D03*
Y303000D02*
D03*
X346611Y121736D02*
D03*
Y127248D02*
D03*
X350500Y291988D02*
D03*
Y297500D02*
D03*
X343500Y286488D02*
D03*
Y292000D02*
D03*
X346611Y110736D02*
D03*
Y116247D02*
D03*
X350500Y280988D02*
D03*
Y286500D02*
D03*
X339611Y105236D02*
D03*
Y110748D02*
D03*
X343500Y275488D02*
D03*
Y281000D02*
D03*
X346611Y99748D02*
D03*
Y105259D02*
D03*
X350500Y270000D02*
D03*
Y275512D02*
D03*
X339611Y94236D02*
D03*
Y99748D02*
D03*
X343500Y264488D02*
D03*
Y270000D02*
D03*
X346611Y88248D02*
D03*
Y93759D02*
D03*
X350500Y258500D02*
D03*
Y264012D02*
D03*
X129800Y252319D02*
D03*
Y257831D02*
D03*
X115550Y252319D02*
D03*
Y257831D02*
D03*
X101300Y252319D02*
D03*
Y257831D02*
D03*
Y181319D02*
D03*
Y175807D02*
D03*
X115550Y181319D02*
D03*
Y175807D02*
D03*
X129800Y181319D02*
D03*
Y175807D02*
D03*
X144800Y199319D02*
D03*
Y193807D02*
D03*
X170800Y204819D02*
D03*
Y199307D02*
D03*
Y212319D02*
D03*
Y217831D02*
D03*
X339611Y116236D02*
D03*
Y121748D02*
D03*
X210500Y357512D02*
D03*
Y352000D02*
D03*
X207500Y83512D02*
D03*
Y78000D02*
D03*
X143500Y144500D02*
D03*
Y150012D02*
D03*
X115000Y309724D02*
D03*
Y304213D02*
D03*
D28*
X214800Y200370D02*
D03*
X219800D02*
D03*
X224800D02*
D03*
X229800D02*
D03*
X214800Y219268D02*
D03*
X219800D02*
D03*
X224800D02*
D03*
X229800D02*
D03*
D29*
X54417Y19945D02*
D03*
Y29000D02*
D03*
Y38055D02*
D03*
D30*
X31583Y29000D02*
D03*
D31*
X102625Y31180D02*
D03*
Y14723D02*
D03*
X82625Y31259D02*
D03*
Y14723D02*
D03*
D32*
X83503Y47999D02*
D03*
X85471D02*
D03*
X87440D02*
D03*
X89408D02*
D03*
X91377D02*
D03*
X93345D02*
D03*
X95314D02*
D03*
X97282D02*
D03*
X99251D02*
D03*
X101219D02*
D03*
X103188D02*
D03*
X105156D02*
D03*
X107125D02*
D03*
X109093D02*
D03*
X111062D02*
D03*
X113030D02*
D03*
X114999D02*
D03*
X116967D02*
D03*
X118936D02*
D03*
X120904D02*
D03*
X122873D02*
D03*
X124841D02*
D03*
X126810D02*
D03*
X128778D02*
D03*
X130747D02*
D03*
Y107448D02*
D03*
X128778D02*
D03*
X126810D02*
D03*
X124841D02*
D03*
X122873D02*
D03*
X120904D02*
D03*
X118936D02*
D03*
X116967D02*
D03*
X114999D02*
D03*
X113030D02*
D03*
X111062D02*
D03*
X109093D02*
D03*
X107125D02*
D03*
X105156D02*
D03*
X103188D02*
D03*
X101219D02*
D03*
X99251D02*
D03*
X97282D02*
D03*
X95314D02*
D03*
X93345D02*
D03*
X91377D02*
D03*
X89408D02*
D03*
X87440D02*
D03*
X85471D02*
D03*
X83503D02*
D03*
D33*
X136849Y54101D02*
D03*
Y56070D02*
D03*
Y58038D02*
D03*
Y60007D02*
D03*
Y61975D02*
D03*
Y63944D02*
D03*
Y65912D02*
D03*
Y67881D02*
D03*
Y69849D02*
D03*
Y71818D02*
D03*
Y73786D02*
D03*
Y75755D02*
D03*
Y77723D02*
D03*
Y79692D02*
D03*
Y81660D02*
D03*
Y83629D02*
D03*
Y85597D02*
D03*
Y87566D02*
D03*
Y89534D02*
D03*
Y91503D02*
D03*
Y93471D02*
D03*
Y95440D02*
D03*
Y97408D02*
D03*
Y99377D02*
D03*
Y101346D02*
D03*
X77400D02*
D03*
Y99377D02*
D03*
Y97408D02*
D03*
Y95440D02*
D03*
Y93471D02*
D03*
Y91503D02*
D03*
Y89534D02*
D03*
Y87566D02*
D03*
Y85597D02*
D03*
Y83629D02*
D03*
Y81660D02*
D03*
Y79692D02*
D03*
Y77723D02*
D03*
Y75755D02*
D03*
Y73786D02*
D03*
Y71818D02*
D03*
Y69849D02*
D03*
Y67881D02*
D03*
Y65912D02*
D03*
Y63944D02*
D03*
Y61975D02*
D03*
Y60007D02*
D03*
Y58038D02*
D03*
Y56070D02*
D03*
Y54101D02*
D03*
D34*
X104579Y242984D02*
D03*
X106547D02*
D03*
X110484D02*
D03*
X112453D02*
D03*
X118358D02*
D03*
X120327D02*
D03*
X124264D02*
D03*
X126232D02*
D03*
X128201D02*
D03*
X122295D02*
D03*
X116390D02*
D03*
X114421D02*
D03*
X108516D02*
D03*
X102610D02*
D03*
X100642D02*
D03*
X98673D02*
D03*
X96705D02*
D03*
X94736D02*
D03*
X92768D02*
D03*
X90799D02*
D03*
Y191016D02*
D03*
X92768D02*
D03*
X94736D02*
D03*
X96705D02*
D03*
X98673D02*
D03*
X100642D02*
D03*
X102610D02*
D03*
X108516D02*
D03*
X114421D02*
D03*
X116390D02*
D03*
X122295D02*
D03*
X128201D02*
D03*
X104579D02*
D03*
X106547D02*
D03*
X110484D02*
D03*
X112453D02*
D03*
X118358D02*
D03*
X120327D02*
D03*
X124264D02*
D03*
X126232D02*
D03*
D35*
X109500Y217000D02*
D03*
D36*
X83516Y235701D02*
D03*
Y233732D02*
D03*
Y231764D02*
D03*
Y229795D02*
D03*
Y227827D02*
D03*
Y225858D02*
D03*
Y223890D02*
D03*
Y221921D02*
D03*
Y219953D02*
D03*
Y217984D02*
D03*
Y216016D02*
D03*
Y214047D02*
D03*
Y212079D02*
D03*
Y210110D02*
D03*
Y208142D02*
D03*
Y206173D02*
D03*
Y204205D02*
D03*
Y202236D02*
D03*
Y200268D02*
D03*
Y198299D02*
D03*
X135484D02*
D03*
Y200268D02*
D03*
Y202236D02*
D03*
Y204205D02*
D03*
Y206173D02*
D03*
Y208142D02*
D03*
Y210110D02*
D03*
Y212079D02*
D03*
Y214047D02*
D03*
Y216016D02*
D03*
Y217984D02*
D03*
Y219953D02*
D03*
Y221921D02*
D03*
Y223890D02*
D03*
Y225858D02*
D03*
Y227827D02*
D03*
Y229795D02*
D03*
Y231764D02*
D03*
Y233732D02*
D03*
Y235701D02*
D03*
D37*
X535500Y106689D02*
D03*
Y118500D02*
D03*
X443001Y102988D02*
D03*
Y114799D02*
D03*
Y139114D02*
D03*
Y150925D02*
D03*
X446889Y309367D02*
D03*
Y321178D02*
D03*
X443001Y121051D02*
D03*
Y132862D02*
D03*
X446889Y291304D02*
D03*
Y303115D02*
D03*
Y273241D02*
D03*
Y285052D02*
D03*
X443001Y84925D02*
D03*
Y96736D02*
D03*
X446889Y255178D02*
D03*
Y266989D02*
D03*
X106000Y312500D02*
D03*
Y324311D02*
D03*
X95449Y340059D02*
D03*
Y328248D02*
D03*
X85212Y340059D02*
D03*
Y328248D02*
D03*
X461000Y255178D02*
D03*
Y266989D02*
D03*
X457500Y84925D02*
D03*
Y96736D02*
D03*
X461000Y273241D02*
D03*
Y285052D02*
D03*
X457500Y102988D02*
D03*
Y114799D02*
D03*
X461000Y291304D02*
D03*
Y303115D02*
D03*
X457500Y121051D02*
D03*
Y132862D02*
D03*
X461000Y309367D02*
D03*
Y321178D02*
D03*
X457500Y139114D02*
D03*
Y150925D02*
D03*
X523500Y118500D02*
D03*
Y106689D02*
D03*
D38*
X160724Y312500D02*
D03*
X152063D02*
D03*
X41609Y10197D02*
D03*
X32947D02*
D03*
D39*
X179300Y204981D02*
D03*
Y196319D02*
D03*
X179300Y220981D02*
D03*
Y212319D02*
D03*
X152457Y328642D02*
D03*
Y319980D02*
D03*
X64916Y23183D02*
D03*
Y31844D02*
D03*
X104819Y340059D02*
D03*
Y331398D02*
D03*
D40*
X47000Y259500D02*
D03*
Y250000D02*
D03*
Y185500D02*
D03*
Y176000D02*
D03*
X-9500Y260000D02*
D03*
Y250500D02*
D03*
X19500Y246000D02*
D03*
X19498Y236326D02*
D03*
X-9500Y239000D02*
D03*
Y229500D02*
D03*
X47000Y232000D02*
D03*
Y222500D02*
D03*
X20000Y220000D02*
D03*
Y210500D02*
D03*
X-9500Y216000D02*
D03*
X-9502Y206610D02*
D03*
X47000Y208500D02*
D03*
Y199000D02*
D03*
X20500Y194500D02*
D03*
Y185000D02*
D03*
D41*
X155016Y357382D02*
D03*
X116039D02*
D03*
D42*
X-49027Y264732D02*
D03*
Y261583D02*
D03*
Y258433D02*
D03*
Y255283D02*
D03*
Y252134D02*
D03*
Y248984D02*
D03*
Y245835D02*
D03*
Y242685D02*
D03*
Y239535D02*
D03*
Y236386D02*
D03*
Y233236D02*
D03*
Y230087D02*
D03*
Y226937D02*
D03*
Y223787D02*
D03*
Y220638D02*
D03*
Y217488D02*
D03*
Y214338D02*
D03*
Y211189D02*
D03*
Y208039D02*
D03*
Y204890D02*
D03*
Y201740D02*
D03*
Y198591D02*
D03*
Y182843D02*
D03*
Y179693D02*
D03*
Y176543D02*
D03*
Y173394D02*
D03*
Y170244D02*
D03*
Y167094D02*
D03*
Y163945D02*
D03*
Y160795D02*
D03*
Y157646D02*
D03*
Y154496D02*
D03*
Y151346D02*
D03*
Y148197D02*
D03*
Y145047D02*
D03*
Y141898D02*
D03*
Y138748D02*
D03*
Y135598D02*
D03*
Y132449D02*
D03*
Y129299D02*
D03*
D43*
X122535Y323937D02*
D03*
Y318937D02*
D03*
Y313937D02*
D03*
Y308937D02*
D03*
X143795Y323937D02*
D03*
Y318937D02*
D03*
Y313937D02*
D03*
Y308937D02*
D03*
D44*
X133165Y316437D02*
D03*
D45*
X382430Y137472D02*
D03*
Y135503D02*
D03*
Y133535D02*
D03*
Y131566D02*
D03*
Y129598D02*
D03*
Y127629D02*
D03*
Y125661D02*
D03*
Y123692D02*
D03*
Y121724D02*
D03*
Y119755D02*
D03*
Y117787D02*
D03*
Y115818D02*
D03*
Y113850D02*
D03*
Y111881D02*
D03*
Y109913D02*
D03*
Y107944D02*
D03*
Y105976D02*
D03*
Y104007D02*
D03*
Y102039D02*
D03*
X404477Y137472D02*
D03*
Y135503D02*
D03*
Y133535D02*
D03*
Y131566D02*
D03*
Y129598D02*
D03*
Y127629D02*
D03*
Y125661D02*
D03*
Y123692D02*
D03*
Y121724D02*
D03*
Y119755D02*
D03*
Y117787D02*
D03*
Y115818D02*
D03*
Y113850D02*
D03*
Y111881D02*
D03*
Y109913D02*
D03*
Y107944D02*
D03*
Y105976D02*
D03*
Y104007D02*
D03*
Y102039D02*
D03*
X386319Y307724D02*
D03*
Y305756D02*
D03*
Y303787D02*
D03*
Y301819D02*
D03*
Y299850D02*
D03*
Y297882D02*
D03*
Y295913D02*
D03*
Y293945D02*
D03*
Y291976D02*
D03*
Y290008D02*
D03*
Y288039D02*
D03*
Y286071D02*
D03*
Y284102D02*
D03*
Y282134D02*
D03*
Y280165D02*
D03*
Y278197D02*
D03*
Y276228D02*
D03*
Y274260D02*
D03*
Y272291D02*
D03*
X408366Y307724D02*
D03*
Y305756D02*
D03*
Y303787D02*
D03*
Y301819D02*
D03*
Y299850D02*
D03*
Y297882D02*
D03*
Y295913D02*
D03*
Y293945D02*
D03*
Y291976D02*
D03*
Y290008D02*
D03*
Y288039D02*
D03*
Y286071D02*
D03*
Y284102D02*
D03*
Y282134D02*
D03*
Y280165D02*
D03*
Y278197D02*
D03*
Y276228D02*
D03*
Y274260D02*
D03*
Y272291D02*
D03*
D46*
X393877Y263753D02*
D03*
Y260603D02*
D03*
X399389Y263753D02*
D03*
Y260603D02*
D03*
X389988Y93500D02*
D03*
Y90350D02*
D03*
X395500Y93500D02*
D03*
Y90350D02*
D03*
X393877Y319753D02*
D03*
Y316603D02*
D03*
X399389Y319753D02*
D03*
Y316603D02*
D03*
X389988Y149500D02*
D03*
Y146350D02*
D03*
X395500Y149500D02*
D03*
Y146350D02*
D03*
D47*
X393877Y267394D02*
D03*
Y256961D02*
D03*
X399389Y267394D02*
D03*
Y256961D02*
D03*
X389988Y97142D02*
D03*
Y86709D02*
D03*
X395500Y97142D02*
D03*
Y86709D02*
D03*
X393877Y323394D02*
D03*
Y312961D02*
D03*
X399389Y323394D02*
D03*
Y312961D02*
D03*
X389988Y153142D02*
D03*
Y142709D02*
D03*
X395500Y153142D02*
D03*
Y142709D02*
D03*
D48*
X405623Y32925D02*
D03*
Y24657D02*
D03*
X383261Y32925D02*
D03*
Y24657D02*
D03*
X360000Y32992D02*
D03*
Y24724D02*
D03*
X337531Y32992D02*
D03*
Y24724D02*
D03*
X314578Y32925D02*
D03*
Y24657D02*
D03*
X292000Y32992D02*
D03*
Y24724D02*
D03*
X269804Y32925D02*
D03*
Y24657D02*
D03*
X248500Y32992D02*
D03*
Y24724D02*
D03*
X13000Y358366D02*
D03*
Y366634D02*
D03*
X39850Y357776D02*
D03*
Y366043D02*
D03*
X21625Y13590D02*
D03*
Y21857D02*
D03*
D49*
X58000Y335000D02*
D03*
X69811D02*
D03*
X70000Y355000D02*
D03*
X58189D02*
D03*
D50*
X359611Y139248D02*
D03*
X353312D02*
D03*
X363500Y309000D02*
D03*
X357201D02*
D03*
X433891Y145991D02*
D03*
X427592D02*
D03*
X437780Y316244D02*
D03*
X431481D02*
D03*
X433911Y139299D02*
D03*
X427611D02*
D03*
X437799Y309552D02*
D03*
X431500D02*
D03*
X359611Y132247D02*
D03*
X353312D02*
D03*
X363500Y302000D02*
D03*
X357201D02*
D03*
X359611Y122598D02*
D03*
X353312D02*
D03*
X363500Y292850D02*
D03*
X357201D02*
D03*
X433911Y128598D02*
D03*
X427611D02*
D03*
X437799Y298850D02*
D03*
X431500D02*
D03*
X433911Y122023D02*
D03*
X427611D02*
D03*
X437799Y292276D02*
D03*
X431500D02*
D03*
X359611Y115523D02*
D03*
X353312D02*
D03*
X363500Y285776D02*
D03*
X357201D02*
D03*
X359611Y106019D02*
D03*
X353312D02*
D03*
X363500Y276272D02*
D03*
X357201D02*
D03*
X433911Y114519D02*
D03*
X427611D02*
D03*
X437799Y284772D02*
D03*
X431500D02*
D03*
X433891Y107826D02*
D03*
X427592D02*
D03*
X437780Y278079D02*
D03*
X431480D02*
D03*
X359611Y98826D02*
D03*
X353312D02*
D03*
X363500Y269079D02*
D03*
X357201D02*
D03*
X359611Y89248D02*
D03*
X353312D02*
D03*
X363500Y259000D02*
D03*
X357201D02*
D03*
X433911Y96440D02*
D03*
X427611D02*
D03*
X437799Y266693D02*
D03*
X431500D02*
D03*
X433911Y89748D02*
D03*
X427611D02*
D03*
X437799Y260000D02*
D03*
X431500D02*
D03*
X359611Y82248D02*
D03*
X353312D02*
D03*
X363500Y252000D02*
D03*
X357201D02*
D03*
X164300Y218319D02*
D03*
X158001D02*
D03*
X157957Y205173D02*
D03*
X164256D02*
D03*
X157957Y211748D02*
D03*
X164256D02*
D03*
X69125Y89223D02*
D03*
X62825D02*
D03*
X69125Y102223D02*
D03*
X62825D02*
D03*
X142299Y301500D02*
D03*
X136000D02*
D03*
X102701Y305000D02*
D03*
X109000D02*
D03*
D51*
X68636Y78224D02*
D03*
X63125D02*
D03*
X145988Y77000D02*
D03*
X151500D02*
D03*
X108125Y39723D02*
D03*
X113636D02*
D03*
X68625Y66224D02*
D03*
X63113D02*
D03*
X68625Y95723D02*
D03*
X63113D02*
D03*
X145613Y90223D02*
D03*
X151125D02*
D03*
X145988Y64500D02*
D03*
X151500D02*
D03*
X98136Y39724D02*
D03*
X92625D02*
D03*
X418512Y129500D02*
D03*
X413000D02*
D03*
X422238Y299844D02*
D03*
X416726D02*
D03*
X418361Y140925D02*
D03*
X412849D02*
D03*
X422250Y311178D02*
D03*
X416738D02*
D03*
X418361Y118259D02*
D03*
X412849D02*
D03*
X422250Y288511D02*
D03*
X416738D02*
D03*
X374012Y106925D02*
D03*
X368500D02*
D03*
X377901Y277178D02*
D03*
X372389D02*
D03*
X374001Y118259D02*
D03*
X368489D02*
D03*
X377889Y288511D02*
D03*
X372377D02*
D03*
X374012Y129592D02*
D03*
X368500D02*
D03*
X377901Y299844D02*
D03*
X372389D02*
D03*
X374001Y140925D02*
D03*
X368489D02*
D03*
X377889Y311178D02*
D03*
X372377D02*
D03*
X418361Y106925D02*
D03*
X412849D02*
D03*
X422250Y277178D02*
D03*
X416738D02*
D03*
X145288Y217319D02*
D03*
X150800D02*
D03*
X145300Y224319D02*
D03*
X150812D02*
D03*
X73800Y227319D02*
D03*
X68288D02*
D03*
X73800Y207319D02*
D03*
X68288D02*
D03*
X225300Y191319D02*
D03*
X230812D02*
D03*
X219300Y228319D02*
D03*
X213788D02*
D03*
X197988Y352000D02*
D03*
X203500D02*
D03*
X207500Y374000D02*
D03*
X201988D02*
D03*
X195500Y76500D02*
D03*
X201012D02*
D03*
X204000Y99500D02*
D03*
X198488D02*
D03*
X101488Y158000D02*
D03*
X107000D02*
D03*
X159988Y99500D02*
D03*
X165500D02*
D03*
X181000Y70000D02*
D03*
X186512D02*
D03*
D52*
X73500Y262000D02*
D03*
Y272000D02*
D03*
D53*
X88286Y272500D02*
D03*
X98286D02*
D03*
D95*
X466000Y155500D02*
D03*
Y137201D02*
D03*
Y119500D02*
D03*
Y101500D02*
D03*
X469500Y325807D02*
D03*
Y307508D02*
D03*
X470000Y290000D02*
D03*
X469500Y271500D02*
D03*
X94736Y219953D02*
D03*
Y225858D02*
D03*
Y231764D02*
D03*
Y214047D02*
D03*
Y208142D02*
D03*
Y202236D02*
D03*
X100642Y219953D02*
D03*
Y225858D02*
D03*
Y231764D02*
D03*
Y214047D02*
D03*
Y208142D02*
D03*
Y202236D02*
D03*
X106547Y219953D02*
D03*
Y225858D02*
D03*
Y231764D02*
D03*
Y208142D02*
D03*
Y202236D02*
D03*
X124264Y219953D02*
D03*
Y225858D02*
D03*
Y231764D02*
D03*
Y214047D02*
D03*
Y208142D02*
D03*
Y202236D02*
D03*
X118358Y219953D02*
D03*
Y225858D02*
D03*
Y231764D02*
D03*
Y214047D02*
D03*
Y208142D02*
D03*
Y202236D02*
D03*
X112453Y219953D02*
D03*
Y225858D02*
D03*
Y231764D02*
D03*
Y214047D02*
D03*
Y208142D02*
D03*
Y202236D02*
D03*
X106547Y214047D02*
D03*
X-24106Y193894D02*
D03*
X-22500Y195500D02*
D03*
X-30000Y200000D02*
D03*
X-27912Y200895D02*
D03*
X-32394Y212606D02*
D03*
X-34000Y211000D02*
D03*
X-31996Y220570D02*
D03*
X-34000Y219500D02*
D03*
X-35500Y231000D02*
D03*
X-33696Y232381D02*
D03*
X501500Y72500D02*
D03*
X492500Y42500D02*
D03*
X115300Y172808D02*
D03*
X98308Y173603D02*
D03*
X130300Y172808D02*
D03*
X158959Y127305D02*
D03*
X159500Y123500D02*
D03*
X175000Y75000D02*
D03*
X152000Y160000D02*
D03*
X154856Y160644D02*
D03*
X159000Y160000D02*
D03*
X157000Y162500D02*
D03*
X135000Y160500D02*
D03*
X141500Y218000D02*
D03*
X98000Y249500D02*
D03*
X141500Y232500D02*
D03*
X143000Y230000D02*
D03*
X141500Y227500D02*
D03*
X326500Y102500D02*
D03*
X325773Y96273D02*
D03*
X329052Y112552D02*
D03*
X329088Y117447D02*
D03*
X331500Y123000D02*
D03*
X331507Y127948D02*
D03*
X332773Y140273D02*
D03*
X333000Y145000D02*
D03*
X334500Y304736D02*
D03*
X333477Y301023D02*
D03*
X336000Y288224D02*
D03*
X335277Y284723D02*
D03*
X336500Y271736D02*
D03*
X336000Y268000D02*
D03*
X334982Y254724D02*
D03*
X333207Y251252D02*
D03*
X211000Y177216D02*
D03*
X224500Y177000D02*
D03*
X221812Y209819D02*
D03*
X522478Y236478D02*
D03*
X520000Y242000D02*
D03*
X522499Y169451D02*
D03*
X519500Y169500D02*
D03*
X95715Y248341D02*
D03*
X100642Y248142D02*
D03*
X140864Y235664D02*
D03*
X140300Y211996D02*
D03*
X110500Y38000D02*
D03*
X296000Y105000D02*
D03*
X78300Y206256D02*
D03*
X70800Y209308D02*
D03*
X71300Y205807D02*
D03*
X78300Y225807D02*
D03*
X65300D02*
D03*
X71300D02*
D03*
X95800Y185808D02*
D03*
X100300Y185308D02*
D03*
X99300Y178927D02*
D03*
X108300Y185808D02*
D03*
X114300Y185308D02*
D03*
X113804Y178927D02*
D03*
X122300Y185808D02*
D03*
X131800Y178927D02*
D03*
X228098Y194334D02*
D03*
X227800Y189307D02*
D03*
X161800Y220307D02*
D03*
X174300Y220808D02*
D03*
X174292Y197103D02*
D03*
X213788Y224583D02*
D03*
X147800Y182308D02*
D03*
X140300Y199308D02*
D03*
X142800Y196359D02*
D03*
X146800Y196808D02*
D03*
X148300Y215307D02*
D03*
Y226308D02*
D03*
X147300Y220808D02*
D03*
X140800Y222808D02*
D03*
X108300Y248307D02*
D03*
X122300D02*
D03*
X128300Y255280D02*
D03*
X131300Y254807D02*
D03*
X117026Y255308D02*
D03*
X113804Y254807D02*
D03*
X102800Y255308D02*
D03*
X99300Y254807D02*
D03*
X114300Y248307D02*
D03*
X368000Y304500D02*
D03*
X366500Y306886D02*
D03*
X369000Y289500D02*
D03*
X366500Y290500D02*
D03*
X366000Y274500D02*
D03*
X369179Y274321D02*
D03*
X369016Y256984D02*
D03*
X366160Y257340D02*
D03*
X363000Y86633D02*
D03*
Y84362D02*
D03*
X362445Y104403D02*
D03*
X362570Y102135D02*
D03*
X363003Y117925D02*
D03*
X362500Y120196D02*
D03*
X362750Y134223D02*
D03*
X362604Y136490D02*
D03*
X324000Y69000D02*
D03*
X343500Y77000D02*
D03*
Y94000D02*
D03*
Y110500D02*
D03*
Y127000D02*
D03*
Y143500D02*
D03*
X382500Y100000D02*
D03*
X378000Y111000D02*
D03*
Y121000D02*
D03*
Y130500D02*
D03*
X371203Y143940D02*
D03*
X371500Y138500D02*
D03*
Y127500D02*
D03*
X371000Y132000D02*
D03*
Y120500D02*
D03*
X371500Y116000D02*
D03*
X371000Y109000D02*
D03*
X371500Y105000D02*
D03*
X416000Y139000D02*
D03*
X415400Y143000D02*
D03*
X416000Y105000D02*
D03*
X415400Y109000D02*
D03*
X415810Y116000D02*
D03*
X415400Y120500D02*
D03*
X408500Y110000D02*
D03*
X408808Y119755D02*
D03*
X408500Y130000D02*
D03*
X416000Y127500D02*
D03*
X415500Y131500D02*
D03*
X347255Y314000D02*
D03*
Y297500D02*
D03*
Y281000D02*
D03*
X347500Y247500D02*
D03*
X347255Y264385D02*
D03*
X386000Y270500D02*
D03*
X382000Y281000D02*
D03*
X374500Y279500D02*
D03*
X375500Y275000D02*
D03*
X382000Y291000D02*
D03*
X374500Y286500D02*
D03*
X375500Y290500D02*
D03*
X375350Y302000D02*
D03*
X374500Y297500D02*
D03*
X382000Y300500D02*
D03*
X374500Y309000D02*
D03*
X375500Y313500D02*
D03*
X419698Y309000D02*
D03*
X419000Y313500D02*
D03*
X419698Y275000D02*
D03*
X419000Y279500D02*
D03*
X419698Y286500D02*
D03*
X419000Y290500D02*
D03*
X419687Y297500D02*
D03*
X419000Y302000D02*
D03*
D97*
X466500Y127907D02*
X477907D01*
X458320Y107944D02*
X471444D01*
X458320Y109844D02*
X470657D01*
X457500Y107124D02*
X458320Y107944D01*
X456680D02*
X457500Y107124D01*
Y102988D02*
Y107124D01*
X443821Y107944D02*
X456680D01*
X443001Y107124D02*
X443821Y107944D01*
X433891Y106842D02*
X436082Y104650D01*
X433891Y106842D02*
Y107826D01*
X441338Y104650D02*
X443001Y102988D01*
Y107124D01*
X436082Y104650D02*
X441338D01*
X529218Y168000D02*
X529500D01*
X522718Y161500D02*
X529218Y168000D01*
X457500Y110664D02*
Y114799D01*
X441338Y113137D02*
X443001Y114799D01*
X433911Y113815D02*
X434588Y113137D01*
X433911Y113815D02*
Y114519D01*
X434588Y113137D02*
X441338D01*
X457500Y110664D02*
X458320Y109844D01*
X456680D02*
X457500Y110664D01*
X443821Y109844D02*
X456680D01*
X443001Y110664D02*
Y114799D01*
Y110664D02*
X443821Y109844D01*
X517908Y154408D02*
Y156705D01*
X471444Y107944D02*
X517908Y154408D01*
X516008Y155195D02*
Y157492D01*
X470657Y109844D02*
X516008Y155195D01*
Y157492D02*
X521316Y162800D01*
X517908Y156705D02*
X522703Y161500D01*
X522718D01*
X521316Y162800D02*
Y162816D01*
X536456Y163956D02*
X536500Y164000D01*
X467500Y314322D02*
X529647Y252176D01*
X461820Y314322D02*
X467500D01*
X529647Y252176D02*
X533893D01*
X522478Y236478D02*
Y244968D01*
X519929Y242071D02*
X520000Y242000D01*
X519929Y242071D02*
Y244830D01*
X518704Y234044D02*
X531050D01*
X517917Y232144D02*
X526624D01*
X446889Y298979D02*
Y303115D01*
X446064D02*
X446889D01*
X460180Y298159D02*
X461000Y298979D01*
X446889D02*
X447709Y298159D01*
X460180D01*
X444402Y301452D02*
X446064Y303115D01*
X444402Y298979D02*
Y301452D01*
X443298Y297876D02*
X444402Y298979D01*
X441635Y297876D02*
X443298D01*
X440497Y296738D02*
X441635Y297876D01*
X437799Y297866D02*
X438928Y296738D01*
X440497D01*
X437799Y297866D02*
Y298850D01*
X460180Y296259D02*
X461000Y295439D01*
X446889D02*
X447709Y296259D01*
X460180D01*
X446889Y291304D02*
Y295439D01*
X446064Y291304D02*
X446889D01*
X442422Y295976D02*
X443582D01*
X441284Y294838D02*
X442422Y295976D01*
X443582D02*
X444402Y295156D01*
X437799Y293260D02*
X439377Y294838D01*
X441284D01*
X444402Y292966D02*
Y295156D01*
Y292966D02*
X446064Y291304D01*
X437799Y292276D02*
Y293260D01*
X468500Y296259D02*
X519929Y244830D01*
X469287Y298159D02*
X522478Y244968D01*
X461820Y298159D02*
X469287D01*
X461820Y296259D02*
X468500D01*
X461000Y295439D02*
X461820Y296259D01*
X461000Y291304D02*
Y295439D01*
Y298979D02*
X461820Y298159D01*
X461000Y298979D02*
Y303115D01*
X531050Y234044D02*
X533018Y232076D01*
Y231887D02*
X533733Y231172D01*
X533018Y231887D02*
Y232076D01*
X536500Y226000D02*
Y227113D01*
X533733Y229879D02*
X536500Y227113D01*
X533733Y229879D02*
Y231172D01*
X472652Y280096D02*
X518704Y234044D01*
X446889Y280916D02*
Y285052D01*
X460180Y280096D02*
X461000Y280916D01*
X446889D02*
X447709Y280096D01*
X460180D01*
X445227Y283389D02*
X446889Y285052D01*
X438477Y283389D02*
X445227D01*
X437799Y284068D02*
Y284772D01*
Y284068D02*
X438477Y283389D01*
X460180Y278196D02*
X461000Y277376D01*
X446889D02*
X447709Y278196D01*
X460180D01*
X446889Y273241D02*
Y277376D01*
X437780Y277095D02*
X439971Y274903D01*
X445227D01*
X437780Y277095D02*
Y278079D01*
X445227Y274903D02*
X446889Y273241D01*
X461000Y277376D02*
X461820Y278196D01*
X461000Y280916D02*
Y285052D01*
X526624Y232144D02*
X528768Y230000D01*
X461000Y273241D02*
Y277376D01*
X461820Y280096D02*
X472652D01*
X528768Y230000D02*
X529500D01*
X471865Y278196D02*
X517917Y232144D01*
X461820Y278196D02*
X471865D01*
X461000Y280916D02*
X461820Y280096D01*
X522401Y169451D02*
X522499D01*
X458320Y126007D02*
X478957D01*
X522401Y169451D01*
X458320Y127907D02*
X466500D01*
X477907D02*
X519500Y169500D01*
X457500Y125187D02*
X458320Y126007D01*
X456680D02*
X457500Y125187D01*
X443821Y126007D02*
X456680D01*
X457500Y121051D02*
Y125187D01*
X443001D02*
X443821Y126007D01*
X439693Y125724D02*
X440513Y124903D01*
Y122713D02*
Y124903D01*
X438533Y125724D02*
X439693D01*
X437395Y124585D02*
X438533Y125724D01*
X435488Y124585D02*
X437395D01*
X433911Y123007D02*
X435488Y124585D01*
X443001Y121051D02*
Y125187D01*
X442175Y121051D02*
X443001D01*
X433911Y122023D02*
Y123007D01*
X440513Y122713D02*
X442175Y121051D01*
X457500Y128727D02*
Y132862D01*
Y128727D02*
X458320Y127907D01*
X456680D02*
X457500Y128727D01*
X443001D02*
X443821Y127907D01*
X456680D01*
X442175Y132862D02*
X443001D01*
Y128727D02*
Y132862D01*
X440513Y128727D02*
Y131200D01*
X442175Y132862D01*
X439410Y127624D02*
X440513Y128727D01*
X437746Y127624D02*
X439410D01*
X436608Y126485D02*
X437746Y127624D01*
X435039Y126485D02*
X436608D01*
X433911Y127614D02*
Y128598D01*
Y127614D02*
X435039Y126485D01*
X460180Y260133D02*
X461000Y259313D01*
X446889D02*
X447709Y260133D01*
X460180D01*
X446889Y255178D02*
Y259313D01*
X437799Y259016D02*
X439975Y256840D01*
X445227D01*
X437799Y259016D02*
Y260000D01*
X445227Y256840D02*
X446889Y255178D01*
Y262853D02*
Y266989D01*
X460180Y262033D02*
X461000Y262853D01*
X446889D02*
X447709Y262033D01*
X460180D01*
X445227Y265326D02*
X446889Y266989D01*
X438477Y265326D02*
X445227D01*
X437799Y266004D02*
Y266693D01*
Y266004D02*
X438477Y265326D01*
X536256Y210872D02*
Y213606D01*
X535897Y217397D02*
X536500Y218000D01*
X521756Y209144D02*
X531841D01*
X532628Y207244D02*
X536256Y210872D01*
X535897Y213964D02*
Y217397D01*
X531841Y209144D02*
X534356Y211659D01*
X529500Y214000D02*
X529696Y213804D01*
X535897Y213964D02*
X536256Y213606D01*
X533371Y213804D02*
X534356Y212819D01*
Y211659D02*
Y212819D01*
X529696Y213804D02*
X533371D01*
X468080Y260133D02*
X520969Y207244D01*
X532628D01*
X461820Y260133D02*
X468080D01*
X468867Y262033D02*
X521756Y209144D01*
X461820Y262033D02*
X468867D01*
X461000Y259313D02*
X461820Y260133D01*
X461000Y255178D02*
Y259313D01*
Y262853D02*
X461820Y262033D01*
X461000Y262853D02*
Y266989D01*
X446889Y317042D02*
Y321178D01*
X460180Y316222D02*
X461000Y317042D01*
X446889D02*
X447709Y316222D01*
X460180D01*
X445227Y319515D02*
X446889Y321178D01*
X437780Y317228D02*
X440067Y319515D01*
X445227D01*
X437780Y316244D02*
Y317228D01*
X460180Y314322D02*
X461000Y313502D01*
X446889D02*
X447709Y314322D01*
X460180D01*
X446889Y309367D02*
Y313502D01*
X438477Y311029D02*
X445227D01*
X446889Y309367D01*
X437799Y310351D02*
X438477Y311029D01*
X437799Y309552D02*
Y310351D01*
X539709Y238000D02*
X541932Y240224D01*
Y246823D01*
X530434Y254076D02*
X534680D01*
X461820Y316222D02*
X468287D01*
X533893Y252176D02*
X540032Y246036D01*
X534680Y254076D02*
X541932Y246823D01*
X468287Y316222D02*
X530434Y254076D01*
X539212Y244056D02*
X540032Y244876D01*
Y246036D01*
X529500Y238000D02*
X539709D01*
X536500Y242000D02*
X538556Y244056D01*
X539212D01*
X461000Y313502D02*
X461820Y314322D01*
X461000Y309367D02*
Y313502D01*
Y317042D02*
X461820Y316222D01*
X461000Y317042D02*
Y321178D01*
X443001Y89061D02*
X443821Y89881D01*
X456680D01*
X457500Y89061D01*
X433911Y88763D02*
X436086Y86587D01*
X441338D01*
X433911Y88763D02*
Y89748D01*
X441338Y86587D02*
X443001Y84925D01*
Y89061D01*
X456680Y91781D02*
X457500Y92601D01*
X443821Y91781D02*
X456680D01*
X443001Y92601D02*
Y96736D01*
Y92601D02*
X443821Y91781D01*
X441338Y95074D02*
X443001Y96736D01*
X433911Y95752D02*
Y96440D01*
X434588Y95074D02*
X441338D01*
X433911Y95752D02*
X434588Y95074D01*
X536256Y148872D02*
Y151606D01*
X472781Y91781D02*
X521751Y140751D01*
X526235Y138851D02*
X536256Y148872D01*
X535897Y151964D02*
X536256Y151606D01*
X533371Y151804D02*
X534356Y150819D01*
Y149659D02*
Y150819D01*
X525448Y140751D02*
X534356Y149659D01*
X521751Y140751D02*
X525448D01*
X522538Y138851D02*
X526235D01*
X535897Y155397D02*
X536500Y156000D01*
X529696Y151804D02*
X533371D01*
X529500Y152000D02*
X529696Y151804D01*
X473568Y89881D02*
X522538Y138851D01*
X535897Y151964D02*
Y155397D01*
X458320Y89881D02*
X473568D01*
X457500Y89061D02*
X458320Y89881D01*
X457500Y84925D02*
Y89061D01*
X458320Y91781D02*
X472781D01*
X457500Y92601D02*
X458320Y91781D01*
X457500Y92601D02*
Y96736D01*
X506365Y171956D02*
X531050D01*
X533018Y173924D01*
Y174113D01*
X478478Y144070D02*
X506365Y171956D01*
X534444Y177944D02*
X536500Y180000D01*
X443001Y143250D02*
X443821Y144070D01*
X533018Y174113D02*
X534444Y175539D01*
X457500Y143250D02*
X458320Y144070D01*
X478478D01*
X534444Y175539D02*
Y177944D01*
X456680Y144070D02*
X457500Y143250D01*
X443821Y144070D02*
X456680D01*
X443001Y139114D02*
Y143250D01*
X434588Y140776D02*
X441338D01*
X433911Y140099D02*
X434588Y140776D01*
X433911Y139299D02*
Y140099D01*
X441338Y140776D02*
X443001Y139114D01*
X456680Y145970D02*
X457500Y146790D01*
X443821Y145970D02*
X456680D01*
X443001Y146790D02*
Y150925D01*
Y146790D02*
X443821Y145970D01*
X441338Y149263D02*
X443001Y150925D01*
X436178Y149263D02*
X441338D01*
X433891Y146975D02*
X436178Y149263D01*
X433891Y145991D02*
Y146975D01*
X528768Y176000D02*
X529500D01*
X457500Y146790D02*
Y150925D01*
Y139114D02*
Y143250D01*
X505578Y173856D02*
X526624D01*
X477691Y145970D02*
X505578Y173856D01*
X457500Y146790D02*
X458320Y145970D01*
X526624Y173856D02*
X528768Y176000D01*
X458320Y145970D02*
X477691D01*
D98*
X63303Y249000D02*
X90152D01*
X59651Y252652D02*
X63303Y249000D01*
X90152D02*
X91184Y247968D01*
X58862Y253441D02*
Y253441D01*
Y253441D02*
X59651Y252652D01*
X91184Y247042D02*
Y247968D01*
X90799Y246658D02*
X91184Y247042D01*
X90799Y242984D02*
Y246658D01*
X47150Y254150D02*
X58153D01*
X58862Y253441D01*
X47000Y254000D02*
X47150Y254150D01*
X47000Y250000D02*
Y254000D01*
X90649Y250200D02*
X92383Y248465D01*
Y247042D02*
Y248465D01*
X58650Y255350D02*
X63800Y250200D01*
X90649D01*
X92768Y242984D02*
Y246658D01*
X92383Y247042D02*
X92768Y246658D01*
X47150Y255350D02*
X58650D01*
X47000Y255500D02*
Y259500D01*
Y255500D02*
X47150Y255350D01*
X-49027Y239535D02*
X-44597D01*
X-43623Y238561D01*
X-38636D01*
X-49027Y236386D02*
X-44597D01*
X-43623Y237361D01*
X-38139D01*
X-38636Y238561D02*
X-26200Y250997D01*
Y256997D01*
X-38139Y237361D02*
X-25000Y250500D01*
Y256500D01*
X-26200Y256997D02*
X-16697Y266500D01*
X16647D01*
X-25000Y256500D02*
X-16200Y265300D01*
X16150D02*
X27150Y254300D01*
X47000D01*
X27647Y255500D02*
X47000D01*
X-16200Y265300D02*
X16150D01*
X16647Y266500D02*
X27647Y255500D01*
X47000Y254300D02*
X47150Y254150D01*
X-40595Y229905D02*
X-15775Y254725D01*
X-40595Y229025D02*
Y229905D01*
X-41795Y230402D02*
X-16272Y255925D01*
X-41795Y229522D02*
Y230402D01*
X23361Y253941D02*
Y253941D01*
X22653Y254650D02*
X23361Y253941D01*
X33803Y243500D02*
X67303D01*
X23361Y253941D02*
X24151Y253151D01*
X-9350Y254650D02*
X22653D01*
X-9425Y254725D02*
X-9350Y254650D01*
X-9500Y250500D02*
Y254500D01*
X79458Y234117D02*
X79842Y233732D01*
X83516D01*
X67303Y243500D02*
X76686Y234117D01*
X24151Y253151D02*
X33803Y243500D01*
X76686Y234117D02*
X79458D01*
X-15775Y254725D02*
X-9425D01*
X-9500Y254500D02*
X-9350Y254650D01*
X67800Y244700D02*
X70605Y241895D01*
X23150Y255850D02*
X34300Y244700D01*
X70605Y241895D02*
Y241895D01*
X34300Y244700D02*
X67800D01*
X-9500Y256000D02*
X-9350Y255850D01*
X-9500Y256000D02*
Y260000D01*
X-9350Y255850D02*
X23150D01*
X79842Y235701D02*
X83516D01*
X79458Y235316D02*
X79842Y235701D01*
X71000Y241500D02*
X77184Y235316D01*
X70605Y241895D02*
X71000Y241500D01*
X77184Y235316D02*
X79458D01*
X-9575Y255925D02*
X-9500Y256000D01*
X-16272Y255925D02*
X-9575D01*
X-42205Y229112D02*
X-41795Y229522D01*
X-44597Y230087D02*
X-43623Y229112D01*
X-49027Y230087D02*
X-44597D01*
X-49027Y226937D02*
X-44597D01*
X-43623Y229112D02*
X-42205D01*
X-41708Y227912D02*
X-40595Y229025D01*
X-43623Y227912D02*
X-41708D01*
X-44597Y226937D02*
X-43623Y227912D01*
X34153Y181350D02*
X47000D01*
Y185500D01*
X34650Y180150D02*
X47000D01*
X92768Y187342D02*
Y191016D01*
X92383Y185535D02*
Y186958D01*
X92768Y187342D01*
X86999Y180150D02*
X92383Y185535D01*
X47000Y180150D02*
X86999D01*
X49395Y176000D02*
X52195Y178800D01*
X47000Y176000D02*
X49395D01*
X-23144Y193689D02*
X-6103Y176648D01*
X-23901Y193689D02*
X-23144D01*
X31148Y176648D02*
X34650Y180150D01*
X-6103Y176648D02*
X31148D01*
X-24106Y193894D02*
X-23901Y193689D01*
X90799Y187342D02*
Y191016D01*
X91184Y186032D02*
Y186958D01*
X90799Y187342D02*
X91184Y186958D01*
X49395Y185500D02*
X52195Y182700D01*
X47000Y185500D02*
X49395D01*
X86502Y181350D02*
X91184Y186032D01*
X47000Y181350D02*
X86502D01*
X30652Y177848D02*
X34153Y181350D01*
X-22295Y194537D02*
X-5606Y177848D01*
X30652D01*
X-22500Y195500D02*
X-22295Y195295D01*
Y194537D02*
Y195295D01*
X47000Y176000D02*
Y180150D01*
X20500Y189148D02*
X32649D01*
X20500Y185000D02*
Y189148D01*
X-12846D02*
X20500D01*
Y190348D02*
X32151D01*
X-12348D02*
X20500D01*
X79458Y198684D02*
X79842Y198299D01*
X83516D01*
X77684Y198684D02*
X79458D01*
X70300Y191300D02*
X77684Y198684D01*
X34800Y191300D02*
X70300D01*
X32649Y189148D02*
X34800Y191300D01*
X18105Y185000D02*
X20500D01*
X-29305Y199595D02*
X-29067D01*
X-30000Y200000D02*
X-29710D01*
X-21786Y198089D02*
X-20849Y197152D01*
X-27561Y198089D02*
X-21786D01*
X-12847Y189150D02*
X-12846Y189148D01*
X-20849Y197152D02*
X-12847Y189150D01*
X-29710Y200000D02*
X-29305Y199595D01*
X-29067D02*
X-27561Y198089D01*
X79842Y200268D02*
X83516D01*
X79458Y199883D02*
X79842Y200268D01*
X77186Y199883D02*
X79458D01*
X69803Y192500D02*
X77186Y199883D01*
X34303Y192500D02*
X69803D01*
X32151Y190348D02*
X34303Y192500D01*
X-27912Y200895D02*
X-27707Y200690D01*
X-21289Y199289D02*
X-12348Y190348D01*
X-27707Y199932D02*
X-27064Y199289D01*
X-27707Y199932D02*
Y200690D01*
X-27064Y199289D02*
X-21289D01*
X20500Y190348D02*
Y194500D01*
X47497Y204350D02*
X54132D01*
X31787D02*
X47497D01*
Y203150D02*
X53635D01*
X32284D02*
X47497D01*
X54165Y202621D02*
X79458D01*
X53635Y203150D02*
X54165Y202621D01*
X79842Y202236D02*
X83516D01*
X79458Y202621D02*
X79842Y202236D01*
X47497Y199497D02*
Y203150D01*
X47000Y199000D02*
X47497Y199497D01*
X-18848Y200652D02*
X-18497Y200300D01*
X29434D01*
X-20828Y202631D02*
X-18848Y200652D01*
X-35970Y202631D02*
X-20828D01*
X-18848Y200652D02*
X-18848D01*
X29434Y200300D02*
X32284Y203150D01*
X-39036Y199565D02*
X-35970Y202631D01*
X-43623Y199565D02*
X-39036D01*
X-44597Y198591D02*
X-43623Y199565D01*
X-49027Y198591D02*
X-44597D01*
X47497Y204350D02*
Y208003D01*
X47000Y208500D02*
X47497Y208003D01*
X79842Y204205D02*
X83516D01*
X79458Y203820D02*
X79842Y204205D01*
X54132Y204350D02*
X54662Y203820D01*
X79458D01*
X28937Y201500D02*
X31787Y204350D01*
X-36467Y203831D02*
X-20331D01*
X-49027Y201740D02*
X-44597D01*
X-18000Y201500D02*
X28937D01*
X-20331Y203831D02*
X-18000Y201500D01*
X-39533Y200765D02*
X-36467Y203831D01*
X-43623Y200765D02*
X-39533D01*
X-44597Y201740D02*
X-43623Y200765D01*
X20497Y214650D02*
X35256D01*
X3653D02*
X20497D01*
Y215850D02*
X34759D01*
X4150D02*
X20497D01*
X68644Y214432D02*
X79458D01*
X67175Y215900D02*
X68644Y214432D01*
X79842Y214047D02*
X83516D01*
X79458Y214432D02*
X79842Y214047D01*
X36506Y215900D02*
X67175D01*
X35256Y214650D02*
X36506Y215900D01*
X20497Y210997D02*
Y214650D01*
X20000Y210500D02*
X20497Y210997D01*
X-20348Y220151D02*
X-1849D01*
X-25000Y215500D02*
X-20348Y220151D01*
X-32000Y215500D02*
X-25000D01*
X-38486Y209014D02*
X-32000Y215500D01*
X-43623Y209014D02*
X-38486D01*
X-44597Y208039D02*
X-43623Y209014D01*
X-49027Y208039D02*
X-44597D01*
X34759Y215850D02*
X36009Y217100D01*
X20000Y220000D02*
X20497Y219503D01*
X79842Y216016D02*
X83516D01*
X36009Y217100D02*
X67672D01*
X79458Y215632D02*
X79842Y216016D01*
X69141Y215632D02*
X79458D01*
X67672Y217100D02*
X69141Y215632D01*
X20497Y215850D02*
Y219503D01*
X-1352Y221352D02*
X-1000Y221000D01*
X4150Y215850D01*
X-20846Y221352D02*
X-1352D01*
X-25497Y216700D02*
X-20846Y221352D01*
X-32497Y216700D02*
X-25497D01*
X-38983Y210214D02*
X-32497Y216700D01*
X-43623Y210214D02*
X-38983D01*
X-44597Y211189D02*
X-43623Y210214D01*
X-49027Y211189D02*
X-44597D01*
X-1849Y220151D02*
X3653Y214650D01*
X76152Y211651D02*
X77308Y210494D01*
X64650Y211651D02*
X76152D01*
X77308Y210494D02*
X79458D01*
X62801Y213500D02*
X64650Y211651D01*
X37500Y213500D02*
X62801D01*
X1599Y210704D02*
X1651Y210651D01*
X79458Y210494D02*
X79842Y210110D01*
X83516D01*
X28148Y204149D02*
X37500Y213500D01*
X1651Y210651D02*
X8154Y204149D01*
X28148D01*
X-9090Y207022D02*
Y210704D01*
X1599D01*
X-9502Y206610D02*
X-9090Y207022D01*
X76648Y212852D02*
X77000Y212500D01*
X65147Y212852D02*
X76648D01*
X79842Y212079D02*
X83516D01*
X79458Y211695D02*
X79842Y212079D01*
X63298Y214700D02*
X65147Y212852D01*
X37003Y214700D02*
X63298D01*
X77000Y212500D02*
X77806Y211695D01*
X79458D01*
X27652Y205348D02*
X37003Y214700D01*
X2096Y211905D02*
X8652Y205348D01*
X27652D01*
X-9500Y216000D02*
X-9090Y215590D01*
Y211905D02*
Y215590D01*
Y211905D02*
X2096D01*
X-30061D02*
X-9090D01*
X-32189Y211644D02*
X-31545Y211000D01*
X-32394Y212606D02*
X-32189Y212401D01*
X-34000Y211000D02*
X-33795Y210795D01*
X-32042Y209800D02*
X-30468D01*
X-29564Y210704D02*
X-9090D01*
X-31545Y211000D02*
X-30965D01*
X-30061Y211905D01*
X-32189Y211644D02*
Y212401D01*
X-33795Y210795D02*
X-33037D01*
X-32042Y209800D01*
X-30468D02*
X-29564Y210704D01*
X-9003Y233650D02*
X1153D01*
X-23850D02*
X-9003D01*
Y234850D02*
X1650D01*
X-24347D02*
X-9003D01*
X53500Y237000D02*
X53500Y237000D01*
X39500Y237000D02*
X53500D01*
X56800Y229003D02*
Y233700D01*
X53500Y237000D02*
X56800Y233700D01*
X32000Y229500D02*
X39500Y237000D01*
X1153Y233650D02*
X5303Y229500D01*
X32000D01*
X79458Y222305D02*
X79842Y221921D01*
X83516D01*
X63497Y222305D02*
X79458D01*
X59361Y226441D02*
X59361D01*
X56800Y229003D02*
X59361Y226441D01*
X59361D02*
X63497Y222305D01*
X-9003Y229997D02*
Y233650D01*
X-39037Y218463D02*
X-23850Y233650D01*
X-9500Y229500D02*
X-9003Y229997D01*
X-43623Y218463D02*
X-39037D01*
X-44597Y217488D02*
X-43623Y218463D01*
X-49027Y217488D02*
X-44597D01*
X53997Y238200D02*
X58000Y234197D01*
X39003Y238200D02*
X53997D01*
X58000Y229500D02*
Y234197D01*
X31503Y230700D02*
X39003Y238200D01*
X1650Y234850D02*
X5800Y230700D01*
X31503D01*
X79842Y223890D02*
X83516D01*
X79458Y223505D02*
X79842Y223890D01*
X61000Y226500D02*
X63994Y223505D01*
X58000Y229500D02*
X61000Y226500D01*
X63994Y223505D02*
X79458D01*
X-9500Y239000D02*
X-9003Y238503D01*
Y234850D02*
Y238503D01*
X-39534Y219663D02*
X-24347Y234850D01*
X-43623Y219663D02*
X-39534D01*
X-44597Y220638D02*
X-43623Y219663D01*
X-49027Y220638D02*
X-44597D01*
X38504Y227852D02*
X47000D01*
X55648D01*
X47000D02*
Y232000D01*
X47076Y226652D02*
X55151D01*
X39002D02*
X47076D01*
X47000Y222500D02*
Y226575D01*
X47076Y226652D01*
X28153Y227850D02*
X38503D01*
X79842Y219953D02*
X83516D01*
X79458Y219568D02*
X79842Y219953D01*
X63932Y219568D02*
X79458D01*
X55648Y227852D02*
X56000Y227500D01*
X38503Y227850D02*
X38504Y227852D01*
X56000Y227500D02*
X63932Y219568D01*
X26651Y226348D02*
X28153Y227850D01*
X11849Y226348D02*
X26651D01*
X9500Y224000D02*
X11849Y226348D01*
X-22197Y224000D02*
X9500D01*
X-27097Y219100D02*
X-22197Y224000D01*
X-31284Y219100D02*
X-27097D01*
X-31791Y219607D02*
X-31284Y219100D01*
X-32081Y220365D02*
X-31791Y220075D01*
Y219607D02*
Y220075D01*
X39000Y226650D02*
X39002Y226652D01*
X28650Y226650D02*
X39000D01*
X27149Y225149D02*
X28650Y226650D01*
X12346Y225149D02*
X27149D01*
X79458Y218369D02*
X79842Y217984D01*
X83516D01*
X63434Y218369D02*
X79458D01*
X55151Y226652D02*
X63434Y218369D01*
X9997Y222800D02*
X12346Y225149D01*
X-21700Y222800D02*
X9997D01*
X-26600Y217900D02*
X-21700Y222800D01*
X-33176Y219295D02*
X-31781Y217900D01*
X-26600D01*
X-33795Y219295D02*
X-33176D01*
X-34000Y219500D02*
X-33795Y219295D01*
X25596Y240563D02*
X25659Y240500D01*
X19910Y240563D02*
X25596D01*
X55000Y240500D02*
X59000Y236500D01*
X25659Y240500D02*
X55000D01*
X19500Y240153D02*
X19910Y240563D01*
X19088Y240564D02*
X19498Y240153D01*
X19500Y236328D02*
Y240153D01*
X19498Y236326D02*
Y240153D01*
X79458Y230180D02*
X79842Y229795D01*
X83516D01*
X76623Y230180D02*
X79458D01*
X59000Y236500D02*
X62849Y232651D01*
X19498Y236326D02*
X19500Y236328D01*
X74151Y232651D02*
X76623Y230180D01*
X62849Y232651D02*
X74151D01*
X15741Y240564D02*
X19088D01*
X15740Y240563D02*
X15741Y240564D01*
X4240Y240563D02*
X15740D01*
X26094Y241763D02*
X26156Y241700D01*
X55497D01*
X19910Y241763D02*
X26094D01*
X59059Y238139D02*
X59059D01*
X55497Y241700D02*
X59059Y238139D01*
X19500Y242173D02*
Y246000D01*
X19498Y245998D02*
X19500Y246000D01*
Y242173D02*
X19910Y241763D01*
X19498Y242174D02*
Y245998D01*
X79842Y231764D02*
X83516D01*
X79458Y231380D02*
X79842Y231764D01*
X77121Y231380D02*
X79458D01*
X63346Y233852D02*
X74648D01*
X59059Y238139D02*
X63346Y233852D01*
X75000Y233500D02*
X77121Y231380D01*
X74648Y233852D02*
X75000Y233500D01*
X15244Y241763D02*
X19088D01*
X19498Y242174D01*
X15243Y241763D02*
X15244Y241763D01*
X4737Y241763D02*
X15243D01*
X-33491Y231280D02*
Y232176D01*
X-35295Y230795D02*
X-34703D01*
X-33413Y229506D01*
X-33491Y231280D02*
X-32916Y230706D01*
X-33696Y232381D02*
X-33491Y232176D01*
X-33413Y229506D02*
X-31494D01*
X-32916Y230706D02*
X-31991D01*
X-35500Y231000D02*
X-35295Y230795D01*
X-31991Y230706D02*
X-17497Y245200D01*
X1300D01*
X-31494Y229506D02*
X-17000Y244000D01*
X1300Y245200D02*
X4737Y241763D01*
X-17000Y244000D02*
X803D01*
X4240Y240563D01*
X339611Y116236D02*
X352599D01*
X353312Y115523D01*
X339611Y99748D02*
X352391D01*
X353312Y98826D01*
X339611Y82736D02*
X352824D01*
X325700Y103300D02*
X326500Y102500D01*
X324500Y100000D02*
Y140712D01*
X352824Y82736D02*
X353312Y82248D01*
X338824Y82736D02*
X339611D01*
X325978Y95582D02*
X338824Y82736D01*
X325978Y95582D02*
Y96068D01*
X325773Y96273D02*
X325978Y96068D01*
X339611Y88248D02*
X352312D01*
X336252D02*
X339611D01*
X324500Y100000D02*
X336252Y88248D01*
X352312D02*
X353312Y89248D01*
X170334Y180151D02*
X286757D01*
X106547Y187342D02*
Y191016D01*
X106163Y186958D02*
X106547Y187342D01*
X153982Y163800D02*
X170334Y180151D01*
X117806Y163800D02*
X153982D01*
X106163Y175443D02*
Y186958D01*
Y175443D02*
X117806Y163800D01*
X286260Y178952D02*
X305606Y159606D01*
X170831Y178952D02*
X286260D01*
X104579Y187342D02*
Y191016D01*
Y187342D02*
X104963Y186958D01*
X154479Y162600D02*
X170831Y178952D01*
X117309Y162600D02*
X154479D01*
X104963Y174946D02*
Y186958D01*
Y174946D02*
X117309Y162600D01*
X305606Y159606D02*
X324356Y140856D01*
X324500Y140712D01*
X325700Y103300D02*
Y141209D01*
X286757Y180151D02*
X325700Y141209D01*
X336000Y103359D02*
Y105605D01*
X337600Y100972D02*
X338825Y99748D01*
X339611D01*
X336000Y103359D02*
X337600Y101758D01*
Y100972D02*
Y101758D01*
X346611Y105236D02*
X352529D01*
X329052Y112552D02*
X336000Y105605D01*
X339611Y105236D02*
X346611D01*
X328798Y117447D02*
X329088D01*
X328388Y117857D02*
X328798Y117447D01*
X328300Y117857D02*
X328388D01*
X338824Y105236D02*
X339611D01*
X327100Y116960D02*
X338824Y105236D01*
X327100Y116960D02*
Y141506D01*
X352529Y105236D02*
X353312Y106019D01*
X328300Y117857D02*
Y142003D01*
X169837Y181351D02*
X287254D01*
X110484Y187342D02*
X110869Y186958D01*
X110484Y187342D02*
Y191016D01*
X110869Y172434D02*
Y186958D01*
X153485Y165000D02*
X169837Y181351D01*
X118303Y165000D02*
X153485D01*
X110869Y172434D02*
X118303Y165000D01*
X169340Y182552D02*
X287752D01*
X112453Y187342D02*
Y191016D01*
X112068Y186958D02*
X112453Y187342D01*
X112068Y172932D02*
Y186958D01*
X152988Y166200D02*
X169340Y182552D01*
X118800Y166200D02*
X152988D01*
X112068Y172932D02*
X118800Y166200D01*
X311052Y159251D02*
X311052D01*
X328300Y142003D01*
X310554Y158052D02*
X327100Y141506D01*
X294198Y174408D02*
X310554Y158052D01*
X310554D01*
X287752Y182552D02*
X294652Y175652D01*
X294198Y174408D02*
Y174408D01*
X287254Y181351D02*
X294198Y174408D01*
X294652Y175652D02*
X311052Y159251D01*
X331507Y127948D02*
Y128086D01*
X330560Y143137D02*
Y143243D01*
X335000Y122000D02*
X339611D01*
X346611D02*
X352714D01*
X288851Y184951D02*
X330560Y143243D01*
X330700Y128893D02*
X331507Y128086D01*
X330700Y128893D02*
Y142997D01*
X330560Y143137D02*
X330700Y142997D01*
X339611Y122000D02*
X346611D01*
X338824Y116236D02*
X339611D01*
X332265Y122795D02*
X338824Y116236D01*
X331705Y122795D02*
X332265D01*
X331500Y123000D02*
X331705Y122795D01*
X352714Y122000D02*
X353312Y122598D01*
X329500Y127500D02*
Y142500D01*
Y127500D02*
X335000Y122000D01*
X288248Y183751D02*
X329500Y142500D01*
X168843Y183751D02*
X288248D01*
X168346Y184951D02*
X288851D01*
X151994Y168600D02*
X168346Y184951D01*
X120327Y187342D02*
Y191016D01*
X119942Y186958D02*
X120327Y187342D01*
X119942Y183763D02*
Y186958D01*
X119962Y176144D02*
X127506Y168600D01*
X151994D01*
X119942Y183763D02*
X119962Y183743D01*
Y176144D02*
Y183743D01*
X152491Y167400D02*
X168843Y183751D01*
X118358Y187342D02*
X118743Y186958D01*
X118358Y187342D02*
Y191016D01*
X118743Y183266D02*
Y186958D01*
X118762Y175646D02*
X127009Y167400D01*
X152491D01*
X118743Y183266D02*
X118762Y183246D01*
Y175646D02*
Y183246D01*
X339611Y138259D02*
X346611D01*
X331992Y145205D02*
X332795D01*
X289846Y187352D02*
X331992Y145205D01*
X332795D02*
X333000Y145000D01*
X167351Y187352D02*
X289846D01*
X337241Y138259D02*
X339611D01*
X346611D02*
X352324D01*
X353312Y139248D01*
X339611Y132747D02*
X352812D01*
X353312Y132247D01*
X338824Y132747D02*
X339611D01*
X332978Y138594D02*
X338824Y132747D01*
X332978Y138594D02*
Y140068D01*
X332773Y140273D02*
X332978Y140068D01*
X126232Y187342D02*
Y191016D01*
X125848Y186958D02*
X126232Y187342D01*
X125848Y173652D02*
Y186958D01*
X151000Y171000D02*
X167351Y187352D01*
X128500Y171000D02*
X151000D01*
X125848Y173652D02*
X128500Y171000D01*
X124264Y187342D02*
X124648Y186958D01*
X124264Y187342D02*
Y191016D01*
X124648Y173155D02*
Y186958D01*
X151497Y169800D02*
X167849Y186152D01*
X128003Y169800D02*
X151497D01*
X124648Y173155D02*
X127652Y170151D01*
X128003Y169800D01*
X289349Y186152D02*
X337241Y138259D01*
X167849Y186152D02*
X289349D01*
X350500Y308500D02*
X356701D01*
X309400Y240400D02*
X329200Y260200D01*
Y299200D01*
X333000Y303000D01*
X343500Y308500D02*
X350500D01*
X309897Y239200D02*
X330400Y259703D01*
Y298703D02*
X332515Y300817D01*
X330400Y259703D02*
Y298703D01*
X350500Y303000D02*
X356201D01*
X333272Y300817D02*
X333477Y301023D01*
X332515Y300817D02*
X333272D01*
X343500Y303000D02*
X350500D01*
X338264Y308500D02*
X343500D01*
X334500Y304736D02*
X338264Y308500D01*
X333000Y303000D02*
X343500D01*
X356701Y308500D02*
X357201Y309000D01*
X356201Y303000D02*
X357201Y302000D01*
X332800Y258391D02*
Y283003D01*
X350500Y286488D02*
X356488D01*
X335072Y284518D02*
X335277Y284723D01*
X334315Y284518D02*
X335072D01*
X332800Y283003D02*
X334315Y284518D01*
X343500Y286488D02*
X350500D01*
X343500Y292000D02*
X356350D01*
X339776D02*
X343500D01*
X336000Y288224D02*
X339776Y292000D01*
X356350D02*
X357201Y292850D01*
X331600Y258888D02*
Y283500D01*
X334588Y286488D02*
X343500D01*
X331600Y283500D02*
X334588Y286488D01*
X356488D02*
X357201Y285776D01*
X310712Y238000D02*
X331600Y258888D01*
X311209Y236800D02*
X332800Y258391D01*
X350500Y270000D02*
X356280D01*
X336000Y267854D02*
Y268000D01*
X335200Y267054D02*
X336000Y267854D01*
X335200Y257397D02*
Y267054D01*
X312203Y234400D02*
X335200Y257397D01*
X343500Y270000D02*
X350500D01*
X343500Y275488D02*
X356417D01*
X340252D02*
X343500D01*
X336500Y271736D02*
X340252Y275488D01*
X334000Y257894D02*
Y268500D01*
X335500Y270000D02*
X343500D01*
X334000Y268500D02*
X335500Y270000D01*
X356417Y275488D02*
X357201Y276272D01*
X356280Y270000D02*
X357201Y269079D01*
X343500Y258500D02*
X356701D01*
X357201Y259000D01*
X338758Y258500D02*
X343500D01*
X334982Y254724D02*
X338758Y258500D01*
X350500Y252988D02*
X356213D01*
X313197Y232000D02*
X332244Y251047D01*
X333002D01*
X333207Y251252D01*
X343500Y252988D02*
X350500D01*
X332488D02*
X343500D01*
X312700Y233200D02*
X332488Y252988D01*
X356213D02*
X357201Y252000D01*
X106163Y256977D02*
X116986Y267800D01*
X139382D01*
X106163Y247042D02*
Y256977D01*
Y247042D02*
X106547Y246658D01*
X139382Y267800D02*
X167982Y239200D01*
X106547Y242984D02*
Y246658D01*
X104963Y257474D02*
X116489Y269000D01*
X140000D01*
X104963Y247042D02*
Y257474D01*
X104579Y246658D02*
X104963Y247042D01*
X140000Y269000D02*
X168600Y240400D01*
X104579Y242984D02*
Y246658D01*
X167982Y239200D02*
X309897D01*
X168600Y240400D02*
X309400D01*
X117483Y266600D02*
X138885D01*
X167485Y238000D01*
X310712D01*
X138388Y265400D02*
X166988Y236800D01*
X117980Y265400D02*
X138388D01*
X166988Y236800D02*
X311209D01*
X136500Y260500D02*
X165000Y232000D01*
X127393Y260500D02*
X136500D01*
X165000Y232000D02*
X313197D01*
X126896Y261700D02*
X136997D01*
X165497Y233200D02*
X312700D01*
X136997Y261700D02*
X165497Y233200D01*
X165994Y234400D02*
X312203D01*
X137394Y263000D02*
X165994Y234400D01*
X166491Y235600D02*
X311706D01*
X137891Y264200D02*
X166491Y235600D01*
X311706D02*
X334000Y257894D01*
X112068Y259489D02*
X117980Y265400D01*
X112068Y247042D02*
Y259489D01*
X112453Y242984D02*
Y246658D01*
X112068Y247042D02*
X112453Y246658D01*
X110869Y259986D02*
X117483Y266600D01*
X110869Y247042D02*
Y259986D01*
X110484Y246658D02*
X110869Y247042D01*
X110484Y242984D02*
Y246658D01*
X126436Y263000D02*
X137394D01*
X119962Y256526D02*
X126436Y263000D01*
X119962Y249895D02*
Y256526D01*
X119942Y247042D02*
X120327Y246658D01*
Y242984D02*
Y246658D01*
X119942Y249875D02*
X119962Y249895D01*
X119942Y247042D02*
Y249875D01*
X118762Y257024D02*
X125939Y264200D01*
X137891D01*
X118762Y250392D02*
Y257024D01*
X118743Y250373D02*
X118762Y250392D01*
X118743Y247042D02*
Y250373D01*
X118358Y246658D02*
X118743Y247042D01*
X118358Y242984D02*
Y246658D01*
X126652Y261456D02*
X126896Y261700D01*
X127148Y260256D02*
X127393Y260500D01*
X126232Y242984D02*
Y246658D01*
X124648Y247042D02*
Y259515D01*
X124264Y246658D02*
X124648Y247042D01*
X124264Y242984D02*
Y246658D01*
X127086Y260256D02*
X127148D01*
X126589Y261456D02*
X126652D01*
X124648Y259515D02*
X126589Y261456D01*
X125848Y259018D02*
X127086Y260256D01*
X125848Y247042D02*
Y259018D01*
Y247042D02*
X126232Y246658D01*
X364938Y305150D02*
X372481D01*
X364938Y306350D02*
X372978D01*
X392849Y320387D02*
Y320563D01*
X393483Y319753D02*
X393877D01*
X392849Y320387D02*
X393483Y319753D01*
X391449Y320973D02*
X392439D01*
X390449Y319973D02*
X391449Y320973D01*
X392439D02*
X392849Y320563D01*
X391848Y305285D02*
Y308954D01*
X390449Y310354D02*
X391848Y308954D01*
X390736Y304172D02*
X391848Y305285D01*
X389392Y304172D02*
X390736D01*
X390449Y310354D02*
Y319973D01*
X389008Y303787D02*
X389392Y304172D01*
X386319Y303787D02*
X389008D01*
X364528Y304740D02*
X364938Y305150D01*
X373459Y304172D02*
X383245D01*
X372481Y305150D02*
X373459Y304172D01*
X383245D02*
X383630Y303787D01*
X386319D01*
X364528Y303528D02*
Y304740D01*
X363500Y302500D02*
X364528Y303528D01*
X393759Y323394D02*
X393877D01*
X392538Y322173D02*
X393759Y323394D01*
X390952Y322173D02*
X392538D01*
X389249Y309857D02*
Y320470D01*
X390952Y322173D01*
X389249Y309857D02*
X390649Y308457D01*
Y305782D02*
Y308457D01*
X390238Y305372D02*
X390649Y305782D01*
X389392Y305372D02*
X390238D01*
X386319Y305756D02*
X389008D01*
X383630D02*
X386319D01*
X389008D02*
X389392Y305372D01*
X363500Y309000D02*
X364528Y307972D01*
Y306760D02*
Y307972D01*
X383245Y305372D02*
X383630Y305756D01*
X373956Y305372D02*
X383245D01*
X364528Y306760D02*
X364938Y306350D01*
X372978D02*
X373956Y305372D01*
X367440Y288713D02*
X373057Y294329D01*
X367015Y289985D02*
X372559Y295529D01*
X364938Y289913D02*
X366500D01*
X393877Y310320D02*
X394249Y309948D01*
Y297562D02*
Y309948D01*
X393877Y310320D02*
Y312961D01*
X391016Y294329D02*
X394249Y297562D01*
X389392Y294329D02*
X391016D01*
X389008Y293945D02*
X389392Y294329D01*
X386319Y293945D02*
X389008D01*
X383245Y294329D02*
X383630Y293945D01*
X386319D01*
X373057Y294329D02*
X383245D01*
X364938Y288713D02*
X367440D01*
X364528Y286804D02*
Y288303D01*
X364938Y288713D01*
X363500Y285776D02*
X364528Y286804D01*
X393483Y316603D02*
X393877D01*
X391649Y314769D02*
X393483Y316603D01*
X391649Y310851D02*
X393049Y309452D01*
X391649Y310851D02*
Y314769D01*
X393049Y298059D02*
Y309452D01*
X390518Y295529D02*
X393049Y298059D01*
X389008Y295913D02*
X389392Y295529D01*
X390518D01*
X386319Y295913D02*
X389008D01*
X383630D02*
X386319D01*
X383245Y295529D02*
X383630Y295913D01*
X372559Y295529D02*
X383245D01*
X363500Y292850D02*
X364528Y291822D01*
Y290323D02*
X364938Y289913D01*
X364528Y290323D02*
Y291822D01*
X366425Y272325D02*
X369965Y275865D01*
X366701Y274299D02*
X368764Y276362D01*
X393009Y268304D02*
X393918Y267394D01*
X390518Y284487D02*
X392719Y282287D01*
X389392Y284487D02*
X390518D01*
X392719Y270701D02*
Y282287D01*
X389008Y284102D02*
X389392Y284487D01*
X383245D02*
X383630Y284102D01*
X386319D02*
X389008D01*
X383630D02*
X386319D01*
X391649Y265782D02*
X392849Y264582D01*
X393483Y263753D02*
X393877D01*
X392849Y264387D02*
X393483Y263753D01*
X391649Y265782D02*
Y269631D01*
X392719Y270701D01*
X392849Y264387D02*
Y264582D01*
X380701Y284487D02*
X383245D01*
X379779Y283564D02*
X380701Y284487D01*
X373637Y283564D02*
X379779D01*
X369965Y279892D02*
X373637Y283564D01*
X369965Y275865D02*
Y279892D01*
X364938Y272325D02*
X366425D01*
X364528Y271915D02*
X364938Y272325D01*
X364528Y270607D02*
Y271915D01*
X363500Y269579D02*
X364528Y270607D01*
X389008Y286071D02*
X389392Y285687D01*
X391016D01*
X386319Y286071D02*
X389008D01*
X383630D02*
X386319D01*
X383245Y285687D02*
X383630Y286071D01*
X380204Y285687D02*
X383245D01*
X393918Y270203D02*
Y282784D01*
X391016Y285687D02*
X393918Y282784D01*
X393009Y268304D02*
Y269294D01*
X393918Y270203D01*
X379281Y284764D02*
X380204Y285687D01*
X373140Y284764D02*
X379281D01*
X368764Y276362D02*
Y280389D01*
X373140Y284764D01*
X363500Y276272D02*
X364528Y275244D01*
Y273935D02*
X364938Y273525D01*
X365928D01*
X364528Y273935D02*
Y275244D01*
X366425Y255150D02*
X381526Y270251D01*
X366539Y256961D02*
X380326Y270748D01*
X389084Y274247D02*
Y274336D01*
X391518Y271198D02*
Y274179D01*
X390528Y275169D02*
X391518Y274179D01*
X393483Y260603D02*
X393877D01*
X390410Y270090D02*
X391518Y271198D01*
X389008Y276228D02*
X389392Y275844D01*
X386319Y276228D02*
X389008D01*
X389853Y275844D02*
X390528Y275169D01*
X389392Y275844D02*
X389853D01*
X392849Y259969D02*
X393483Y260603D01*
X392849Y259873D02*
Y259969D01*
X392439Y259463D02*
X392849Y259873D01*
X390410Y260501D02*
X391449Y259463D01*
X390410Y260501D02*
Y270090D01*
X391449Y259463D02*
X392439D01*
X383630Y276228D02*
X386319D01*
X383245Y275844D02*
X383630Y276228D01*
X381622Y275844D02*
X383245D01*
X380326Y270748D02*
Y274548D01*
X381622Y275844D01*
X364938Y256350D02*
X365928D01*
X364528Y256760D02*
X364938Y256350D01*
X363500Y259000D02*
X364528Y257972D01*
Y256760D02*
Y257972D01*
X389590Y274231D02*
X390318Y273502D01*
X389084Y274247D02*
X389100Y274231D01*
X390318Y271695D02*
Y273502D01*
X389100Y274231D02*
X389590D01*
X389008Y274260D02*
X389084Y274336D01*
X386319Y274260D02*
X389008D01*
X383630D02*
X386319D01*
X392457Y258263D02*
X393759Y256961D01*
X393877D01*
X390952Y258263D02*
X392457D01*
X389211Y260004D02*
Y270587D01*
X390318Y271695D01*
X389211Y260004D02*
X390952Y258263D01*
X383245Y274644D02*
X383630Y274260D01*
X382119Y274644D02*
X383245D01*
X381526Y274051D02*
X382119Y274644D01*
X381526Y270251D02*
Y274051D01*
X364938Y255150D02*
X366425D01*
X364528Y254740D02*
X364938Y255150D01*
X364528Y253528D02*
Y254740D01*
X363500Y252500D02*
X364528Y253528D01*
X361049Y86098D02*
X366097D01*
X361049Y84898D02*
X366595D01*
X386402Y105592D02*
X387700Y104293D01*
X385504Y105592D02*
X386402D01*
X387700Y100391D02*
Y104293D01*
X386560Y99251D02*
X387700Y100391D01*
X385119Y105976D02*
X385504Y105592D01*
X382430Y105976D02*
X385119D01*
X379741D02*
X382430D01*
X389595Y90350D02*
X389988D01*
X388960Y89620D02*
Y89716D01*
X389595Y90350D01*
X386560Y90210D02*
X387560Y89210D01*
X386560Y90210D02*
Y99251D01*
X388550Y89210D02*
X388960Y89620D01*
X387560Y89210D02*
X388550D01*
X379357Y105592D02*
X379741Y105976D01*
X377733Y105592D02*
X379357D01*
X376500Y96500D02*
Y104358D01*
X377733Y105592D01*
X359611Y88748D02*
X360639Y87720D01*
Y86507D02*
Y87720D01*
X366097Y86098D02*
X376500Y96500D01*
X360639Y86507D02*
X361049Y86098D01*
X385946Y104350D02*
X386500Y103796D01*
X385462Y104350D02*
X385946D01*
X386500Y100888D02*
Y103796D01*
X385119Y104007D02*
X385462Y104350D01*
X379357Y104392D02*
X379741Y104007D01*
X382430D02*
X385119D01*
X379741D02*
X382430D01*
X388568Y88010D02*
X389870Y86709D01*
X389988D01*
X387063Y88010D02*
X388568D01*
X385360Y89713D02*
Y99748D01*
X386500Y100888D01*
X385360Y89713D02*
X387063Y88010D01*
X378231Y104392D02*
X379357D01*
X377700Y103861D02*
X378231Y104392D01*
X377700Y96003D02*
Y103861D01*
X366595Y84898D02*
X377700Y96003D01*
X360639Y84487D02*
X361049Y84898D01*
X360639Y83275D02*
Y84487D01*
X359611Y82248D02*
X360639Y83275D01*
X362507Y102135D02*
X362570D01*
X361971Y102671D02*
X362507Y102135D01*
X361049Y118461D02*
X363003D01*
X361049Y119660D02*
X362500D01*
X389988Y142709D02*
X390030Y142667D01*
Y126980D02*
Y142667D01*
X387127Y124077D02*
X390030Y126980D01*
X385504Y124077D02*
X387127D01*
X369168Y124077D02*
X379357D01*
X385119Y123692D02*
X385504Y124077D01*
X382430Y123692D02*
X385119D01*
X379357Y124077D02*
X379741Y123692D01*
X363552Y118461D02*
X369168Y124077D01*
X379741Y123692D02*
X382430D01*
X360639Y116551D02*
Y118050D01*
X361049Y118461D01*
X359611Y115523D02*
X360639Y116551D01*
X389595Y146350D02*
X389988D01*
X388830Y127477D02*
Y139614D01*
X387760Y144516D02*
X389595Y146350D01*
X387760Y140683D02*
X388830Y139614D01*
X387760Y140683D02*
Y144516D01*
X379741Y125661D02*
X382430D01*
X386630Y125277D02*
X388830Y127477D01*
X385119Y125661D02*
X385504Y125277D01*
X386630D01*
X382430Y125661D02*
X385119D01*
X379357Y125277D02*
X379741Y125661D01*
X368671Y125277D02*
X379357D01*
X359611Y122598D02*
X360639Y121570D01*
X363054Y119660D02*
X368671Y125277D01*
X360639Y120071D02*
X361049Y119660D01*
X360639Y120071D02*
Y121570D01*
X390100Y97142D02*
Y112461D01*
X385119Y115818D02*
X385504Y115434D01*
X382430Y115818D02*
X385119D01*
X385504Y115434D02*
X387127D01*
X379741Y115818D02*
X382430D01*
X379357Y115434D02*
X379741Y115818D01*
X376737Y115434D02*
X379357D01*
X387127D02*
X390100Y112461D01*
X374151Y112848D02*
X376737Y115434D01*
X366349Y112848D02*
X374151D01*
X363300Y104500D02*
Y109800D01*
X366349Y112848D01*
X360639Y104007D02*
X361955D01*
X359611Y105035D02*
Y106019D01*
Y105035D02*
X360639Y104007D01*
X385119Y113850D02*
X385504Y114234D01*
X386630D02*
X388900Y111964D01*
X385504Y114234D02*
X386630D01*
X379741Y113850D02*
X382430D01*
X379357Y114234D02*
X379741Y113850D01*
X382430D02*
X385119D01*
X387760Y95334D02*
X389595Y93500D01*
X389988D01*
X388900Y99893D02*
Y111964D01*
X387760Y98754D02*
X388900Y99893D01*
X387760Y95334D02*
Y98754D01*
X377234Y114234D02*
X379357D01*
X374648Y111648D02*
X377234Y114234D01*
X366846Y111648D02*
X374648D01*
X364500Y109303D02*
X366846Y111648D01*
X364500Y104003D02*
Y109303D01*
X363168Y102671D02*
X364500Y104003D01*
X359611Y100311D02*
X361971Y102671D01*
X359611Y99326D02*
Y100311D01*
X388960Y150134D02*
Y150311D01*
X389595Y149500D02*
X389988D01*
X388960Y150134D02*
X389595Y149500D01*
X387560Y150721D02*
X388550D01*
X386560Y149721D02*
X387560Y150721D01*
X388550D02*
X388960Y150311D01*
X386560Y140186D02*
X387630Y139117D01*
X386560Y140186D02*
Y149721D01*
X387630Y135306D02*
Y139117D01*
X386517Y134193D02*
X387630Y135306D01*
X385777Y134193D02*
X386517D01*
X385119Y133535D02*
X385777Y134193D01*
X382430Y133535D02*
X385119D01*
X363000Y134800D02*
X364710D01*
X365590Y133919D02*
X379357D01*
X364710Y134800D02*
X365590Y133919D01*
X360639Y134260D02*
X362460D01*
X379741Y133535D02*
X382430D01*
X379357Y133919D02*
X379741Y133535D01*
X359611Y133232D02*
X360639Y134260D01*
X359611Y132247D02*
Y133232D01*
X389870Y153142D02*
X389988D01*
X388649Y151921D02*
X389870Y153142D01*
X387063Y151921D02*
X388649D01*
X385360Y139689D02*
Y150218D01*
X387063Y151921D01*
X385360Y139689D02*
X385712Y139338D01*
X386430Y135803D02*
Y138620D01*
X385712Y139338D02*
X386430Y138620D01*
X386020Y135393D02*
X386430Y135803D01*
X385440Y135393D02*
X386020D01*
X382522Y135411D02*
X385421D01*
X382430Y135503D02*
X382522Y135411D01*
X385421D02*
X385440Y135393D01*
X359611Y137763D02*
Y138748D01*
X360639Y136735D02*
X362265D01*
X359611Y137763D02*
X360639Y136735D01*
X379741Y135503D02*
X382430D01*
X379357Y135119D02*
X379741Y135503D01*
X366088Y135119D02*
X379357D01*
X363000Y136000D02*
X365207D01*
X366088Y135119D01*
X417694Y135119D02*
X420911Y138337D01*
X404477Y135503D02*
X407167D01*
X426564Y144963D02*
X427592Y145991D01*
X404477Y133535D02*
X407167D01*
X418191Y133919D02*
X422111Y137840D01*
Y138969D01*
X426583Y140327D02*
X427611Y139299D01*
X420911Y139466D02*
X424686Y143241D01*
X426154D01*
X420911Y138337D02*
Y139466D01*
X425183Y142041D02*
X426173D01*
X426583Y140327D02*
Y141631D01*
X426564Y143651D02*
Y144963D01*
X426154Y143241D02*
X426564Y143651D01*
X407551Y135119D02*
X417694D01*
X407167Y135503D02*
X407551Y135119D01*
X407167Y133535D02*
X407551Y133919D01*
X418191D01*
X422111Y138969D02*
X425183Y142041D01*
X426173D02*
X426583Y141631D01*
X404477Y125661D02*
X407167D01*
X417975Y124077D02*
X418609Y124711D01*
X426173D01*
X426583Y124300D01*
Y123051D02*
Y124300D01*
Y123051D02*
X427611Y122023D01*
X407167Y125661D02*
X407551Y125277D01*
X426583Y127570D02*
X427611Y128598D01*
X426583Y126321D02*
Y127570D01*
X426173Y125910D02*
X426583Y126321D01*
X418112Y125910D02*
X426173D01*
X417478Y125277D02*
X418112Y125910D01*
X407551Y125277D02*
X417478D01*
X404477Y123692D02*
X407167D01*
X407551Y124077D01*
X417975D01*
X418950Y110736D02*
X419109Y110577D01*
X426154D01*
X404477Y115818D02*
X407167D01*
X407551Y115434D01*
X410534D01*
X426583Y113491D02*
X427611Y114519D01*
X426564Y108854D02*
Y110167D01*
Y108854D02*
X427592Y107826D01*
X410534Y115434D02*
X414033Y111936D01*
X426583Y112187D02*
Y113491D01*
X404477Y113850D02*
X407167D01*
X426154Y110577D02*
X426564Y110167D01*
X414033Y111936D02*
X419447D01*
X419606Y111777D01*
X426173D01*
X426583Y112187D01*
X407167Y113850D02*
X407551Y114234D01*
X410037D01*
X413535Y110736D01*
X418950D01*
X420003Y93694D02*
X426173D01*
X408106Y105592D02*
X420003Y93694D01*
X407551Y105592D02*
X408106D01*
X401788Y105976D02*
X407167D01*
X407551Y105592D01*
X407975Y104025D02*
X419506Y92494D01*
X404495Y104025D02*
X407975D01*
X404477Y104007D02*
X404495Y104025D01*
X419506Y92494D02*
X426173D01*
X401788Y104007D02*
X404477D01*
X426173Y93694D02*
X426583Y94104D01*
Y90775D02*
X427611Y89748D01*
X426583Y95412D02*
X427611Y96440D01*
X426583Y90775D02*
Y92084D01*
Y94104D02*
Y95412D01*
X426173Y92494D02*
X426583Y92084D01*
X396500Y112153D02*
X399781Y115434D01*
X395500Y97142D02*
X395590D01*
X396500Y98052D01*
Y112153D01*
X397728Y111684D02*
X400278Y114234D01*
X397728Y95334D02*
Y111684D01*
X398928Y90210D02*
Y104739D01*
X399781Y105592D01*
X400128Y103981D02*
X400538Y104392D01*
X401404D01*
X400128Y89713D02*
Y103981D01*
X396528Y89620D02*
X396938Y89210D01*
X395894Y90350D02*
X396528Y89716D01*
X397928Y89210D02*
X398928Y90210D01*
X395500Y90350D02*
X395894D01*
X396528Y89620D02*
Y89716D01*
X396938Y89210D02*
X397928D01*
X395500Y86709D02*
X395618D01*
X396920Y88010D01*
X398425D01*
X400128Y89713D01*
X395894Y93500D02*
X397728Y95334D01*
X395500Y93500D02*
X395894D01*
X401788Y115818D02*
X404477D01*
X401404Y114234D02*
X401788Y113850D01*
X404477D01*
X401404Y115434D02*
X401788Y115818D01*
X400278Y114234D02*
X401404D01*
X399781Y115434D02*
X401404D01*
Y105592D02*
X401788Y105976D01*
X399781Y105592D02*
X401404D01*
X401404Y104392D02*
X401788Y104007D01*
X397963Y150463D02*
X398000Y150500D01*
X396856Y150463D02*
X397963D01*
X395500Y149500D02*
X395894D01*
X396856Y150463D01*
X398000Y150500D02*
X399278Y149222D01*
X395500Y153142D02*
X396410Y152232D01*
X397965D01*
X400478Y149719D01*
Y136875D02*
Y149719D01*
X399278Y136107D02*
Y149222D01*
X395500Y146350D02*
X395894D01*
X397728Y144516D01*
Y127826D02*
Y144516D01*
X395800Y142000D02*
X396327D01*
X396528Y141799D01*
Y127329D02*
Y141799D01*
X400278Y125277D02*
X401404D01*
X399781Y124077D02*
X401404D01*
X397728Y127826D02*
X400278Y125277D01*
X396528Y127329D02*
X399781Y124077D01*
X401404Y125277D02*
X401788Y125661D01*
X404477D01*
X401404Y124077D02*
X401788Y123692D01*
X404477D01*
X401850Y133535D02*
X404477D01*
X401850Y135503D02*
X404477D01*
X400478Y136875D02*
X401850Y135503D01*
X399278Y136107D02*
X401850Y133535D01*
X400417Y320563D02*
X400827Y320973D01*
X401817D01*
X403167Y319623D01*
X399507Y323394D02*
X400728Y322173D01*
X399389Y323394D02*
X399507D01*
X400417Y320387D02*
Y320563D01*
X400728Y322173D02*
X402314D01*
X399389Y319753D02*
X399782D01*
X403167Y305558D02*
Y319623D01*
X402314Y322173D02*
X404367Y320121D01*
X399782Y319753D02*
X400417Y320387D01*
X399389Y312961D02*
X399507D01*
X400417Y297582D02*
X403670Y294329D01*
X399507Y312961D02*
X400417Y312051D01*
Y297582D02*
Y312051D01*
X401617Y298079D02*
Y314769D01*
Y298079D02*
X404167Y295529D01*
X399389Y316603D02*
X399782D01*
X401617Y314769D01*
X404167Y295529D02*
X405293D01*
X405293Y294329D02*
X405677Y293945D01*
X405293Y295529D02*
X405677Y295913D01*
X403670Y294329D02*
X405293D01*
X405677Y295913D02*
X408366D01*
X405677Y293945D02*
X408366D01*
X403167Y305558D02*
X404280Y304446D01*
X405019D02*
X405677Y303787D01*
X408274Y305664D02*
X408366Y305756D01*
X405677Y303787D02*
X408366D01*
X404367Y306055D02*
Y320121D01*
X404777Y305645D02*
X405357D01*
X405375Y305664D02*
X408274D01*
X404367Y306055D02*
X404777Y305645D01*
X405357D02*
X405375Y305664D01*
X404280Y304446D02*
X405019D01*
X400417Y259873D02*
Y259969D01*
X400808Y258263D02*
X402314D01*
X404367Y260316D01*
X401817Y259463D02*
X403167Y260813D01*
X399389Y256961D02*
X399507D01*
X400827Y259463D02*
X401817D01*
X399507Y256961D02*
X400808Y258263D01*
X400417Y259873D02*
X400827Y259463D01*
X399782Y260603D02*
X400417Y259969D01*
X399389Y260603D02*
X399782D01*
X401957Y281959D02*
X404484Y284487D01*
X401957Y266122D02*
Y281959D01*
X400417Y264582D02*
X401957Y266122D01*
X399389Y263753D02*
X399782D01*
X400417Y264387D01*
Y264582D01*
X400757Y268644D02*
Y282456D01*
X403987Y285687D01*
X399507Y267394D02*
X400757Y268644D01*
X399389Y267394D02*
X399507D01*
X405677Y286071D02*
X408366D01*
X405293Y285687D02*
X405677Y286071D01*
X404484Y284487D02*
X405293D01*
X403987Y285687D02*
X405293D01*
X405677Y284102D02*
X408366D01*
X405293Y284487D02*
X405677Y284102D01*
X404367Y260316D02*
Y273438D01*
X405433Y274504D01*
X403167Y273935D02*
X405075Y275844D01*
X403167Y260813D02*
Y273935D01*
X405433Y274504D02*
X405677Y274260D01*
X405075Y275844D02*
X405293D01*
X405677Y276228D01*
X408366D01*
X405677Y274260D02*
X408366D01*
X413926Y284487D02*
X417342Y281071D01*
X430452Y279107D02*
X431480Y278079D01*
X430452Y279107D02*
Y280661D01*
X429877Y281236D02*
X430452Y280661D01*
X417342Y281071D02*
X418116D01*
X418281Y281236D01*
X429877D01*
X431500Y283787D02*
Y284772D01*
X430321Y282759D02*
X430472D01*
X431500Y283787D01*
X430062Y282500D02*
X430321Y282759D01*
X417610Y282500D02*
X430062D01*
X424132Y262800D02*
X429684D01*
X431500Y260984D01*
X412298Y274634D02*
X424132Y262800D01*
X412785Y275844D02*
X424629Y264000D01*
X429791D01*
X431500Y260000D02*
Y260984D01*
Y265709D02*
Y266693D01*
X429791Y264000D02*
X431500Y265709D01*
X411055Y274260D02*
X411430Y274634D01*
X411440Y275844D02*
X412785D01*
X411430Y274634D02*
X412298D01*
X408366Y276228D02*
X411055D01*
X411440Y275844D01*
X408366Y274260D02*
X411055D01*
X414423Y285687D02*
X417610Y282500D01*
X411440Y285687D02*
X414423D01*
X411440Y284487D02*
X413926D01*
X408366Y286071D02*
X411055D01*
X411440Y285687D01*
X408366Y284102D02*
X411055D01*
X411440Y284487D01*
X430472Y294188D02*
X431500Y293160D01*
X411440Y294329D02*
X429447D01*
X429588Y294188D01*
X430472D01*
X431500Y292276D02*
Y293160D01*
X411440Y295529D02*
X429163D01*
X430472Y296838D02*
X430472D01*
X429163Y295529D02*
X430472Y296838D01*
X431500Y297866D02*
Y298850D01*
X430472Y296838D02*
X431500Y297866D01*
X411055Y295913D02*
X411440Y295529D01*
X408366Y295913D02*
X411055D01*
X408366Y293945D02*
X411055D01*
X411440Y294329D01*
X422869Y304172D02*
X428134Y309437D01*
Y311356D01*
X429072Y312294D01*
X426934Y311853D02*
X428575Y313494D01*
X426934Y309934D02*
Y311853D01*
X422372Y305372D02*
X426934Y309934D01*
X430042Y313494D02*
X430452Y313904D01*
X430062Y312294D02*
X430472Y311883D01*
Y310579D02*
Y311883D01*
Y310579D02*
X431500Y309552D01*
X430452Y313904D02*
Y315216D01*
X428575Y313494D02*
X430042D01*
X430452Y315216D02*
X431481Y316244D01*
X429072Y312294D02*
X430062D01*
X411440Y304172D02*
X422869D01*
X408366Y305756D02*
X411055D01*
X411440Y305372D01*
X422372D01*
X408366Y303787D02*
X411055D01*
X411440Y304172D01*
D99*
X135000Y121000D02*
Y160500D01*
Y105500D02*
Y121000D01*
X131000Y101500D02*
X135000Y105500D01*
X98673Y242984D02*
Y247315D01*
X98000Y249500D02*
X98665Y248835D01*
Y247323D02*
X98673Y247315D01*
X98665Y247323D02*
Y248835D01*
X131000Y80211D02*
Y101500D01*
X133487Y77723D02*
X136849D01*
X131000Y80211D02*
X133487Y77723D01*
X267726Y74537D02*
X272402Y69861D01*
X267726Y74537D02*
Y76274D01*
X267500Y76500D02*
X267726Y76274D01*
D100*
X524000Y106689D02*
X537000D01*
X537000Y106689D01*
X524000Y106689D02*
X524000Y106689D01*
X524000Y118500D02*
X533468D01*
X537000D01*
X533000Y118968D02*
X533468Y118500D01*
X533000Y118968D02*
Y134000D01*
X-49027Y258433D02*
X-39567D01*
X-39500Y258500D01*
D101*
X277402Y345861D02*
D03*
X272402D02*
D03*
X277402Y350861D02*
D03*
X272402D02*
D03*
X277402Y355861D02*
D03*
X272402D02*
D03*
X216500Y325000D02*
D03*
X221500D02*
D03*
X216500Y320000D02*
D03*
X221500D02*
D03*
X216500Y315000D02*
D03*
X221500D02*
D03*
X277402Y287361D02*
D03*
X272402D02*
D03*
X277402Y292361D02*
D03*
X272402D02*
D03*
X277402Y297361D02*
D03*
X272402D02*
D03*
X217500Y263500D02*
D03*
X222500D02*
D03*
X217500Y258500D02*
D03*
X222500D02*
D03*
X217500Y253500D02*
D03*
X222500D02*
D03*
X219500Y146000D02*
D03*
X214500D02*
D03*
X219500Y151000D02*
D03*
X214500D02*
D03*
X219500Y156000D02*
D03*
X214500D02*
D03*
X272500Y127500D02*
D03*
X277500D02*
D03*
X272500Y122500D02*
D03*
X277500D02*
D03*
X272500Y117500D02*
D03*
X277500D02*
D03*
X219500Y92500D02*
D03*
X214500D02*
D03*
X219500Y97500D02*
D03*
X214500D02*
D03*
X219500Y102500D02*
D03*
X214500D02*
D03*
X272402Y69861D02*
D03*
X277402D02*
D03*
X272402Y64861D02*
D03*
X277402D02*
D03*
X272402Y59861D02*
D03*
X277402D02*
D03*
D102*
X517500Y83000D02*
D03*
D103*
X527500D02*
D03*
X517500Y73000D02*
D03*
X527500D02*
D03*
X517500Y63000D02*
D03*
X527500D02*
D03*
X517500Y53000D02*
D03*
X527500D02*
D03*
X517500Y43000D02*
D03*
X527500D02*
D03*
D104*
X109500Y217000D02*
D03*
D105*
X34500Y294000D02*
D03*
X86500Y378390D02*
D03*
D106*
X20720Y294000D02*
D03*
D107*
X86500Y364610D02*
D03*
D108*
X22500Y324000D02*
D03*
Y334000D02*
D03*
X32500Y324000D02*
D03*
Y334000D02*
D03*
D109*
X536500Y180000D02*
D03*
Y242000D02*
D03*
D110*
X529500Y176000D02*
D03*
X536500Y172000D02*
D03*
X529500Y168000D02*
D03*
X536500Y164000D02*
D03*
X529500Y160000D02*
D03*
X536500Y156000D02*
D03*
X529500Y152000D02*
D03*
Y214000D02*
D03*
X536500Y218000D02*
D03*
X529500Y222000D02*
D03*
X536500Y226000D02*
D03*
X529500Y230000D02*
D03*
X536500Y234000D02*
D03*
X529500Y238000D02*
D03*
D111*
X546500Y141000D02*
D03*
Y253000D02*
D03*
D112*
X533000Y134000D02*
D03*
Y260000D02*
D03*
D113*
X59000Y378000D02*
D03*
X17000Y151000D02*
D03*
X168500Y273000D02*
D03*
X59500Y300000D02*
D03*
X36000Y64500D02*
D03*
X56000Y161500D02*
D03*
X158500Y229500D02*
D03*
X147500Y115000D02*
D03*
X148500Y239000D02*
D03*
X128500Y121500D02*
D03*
X65500Y140000D02*
D03*
D114*
X521500Y164000D02*
D03*
X180500Y65500D02*
D03*
X96250Y308750D02*
D03*
X174000Y83500D02*
D03*
X110335Y343505D02*
D03*
X189500Y70000D02*
D03*
X167705Y102492D02*
D03*
X168500Y109854D02*
D03*
X159500Y95500D02*
D03*
X143500Y141000D02*
D03*
Y153000D02*
D03*
X108500Y161500D02*
D03*
X98500Y155500D02*
D03*
X529500Y107000D02*
D03*
X295500Y59500D02*
D03*
X72835Y8505D02*
D03*
X62835D02*
D03*
X52835D02*
D03*
X47835Y18505D02*
D03*
X22835Y28505D02*
D03*
Y8505D02*
D03*
X12835Y28505D02*
D03*
Y8505D02*
D03*
X40000Y35000D02*
D03*
Y27500D02*
D03*
X30500Y17000D02*
D03*
X33500Y20000D02*
D03*
X27500D02*
D03*
X-546Y164347D02*
D03*
X58Y170653D02*
D03*
X-23000Y176000D02*
D03*
X164500Y155500D02*
D03*
X143500Y107500D02*
D03*
X143000Y104000D02*
D03*
X146500Y103500D02*
D03*
X268500Y109500D02*
D03*
X266500Y113500D02*
D03*
X191500Y165000D02*
D03*
X161500Y146000D02*
D03*
Y142500D02*
D03*
X208500Y138000D02*
D03*
Y93000D02*
D03*
X260500Y351500D02*
D03*
X214000Y307000D02*
D03*
X271208Y276792D02*
D03*
X207000Y257500D02*
D03*
X89500Y154000D02*
D03*
X171000Y132000D02*
D03*
X164500Y136500D02*
D03*
X164000Y129500D02*
D03*
X116500Y149000D02*
D03*
X121000Y144500D02*
D03*
X138000Y151500D02*
D03*
X80000Y124500D02*
D03*
X265000Y63500D02*
D03*
X40500Y110000D02*
D03*
X77500Y37500D02*
D03*
X73500Y32500D02*
D03*
X70000Y37500D02*
D03*
X92500Y305000D02*
D03*
Y312500D02*
D03*
X100000Y305000D02*
D03*
Y312500D02*
D03*
X57500Y327500D02*
D03*
X52500D02*
D03*
Y332500D02*
D03*
Y337500D02*
D03*
Y342500D02*
D03*
X57500D02*
D03*
Y362500D02*
D03*
X52500D02*
D03*
Y357500D02*
D03*
Y352500D02*
D03*
Y347500D02*
D03*
X57500D02*
D03*
X66000Y264500D02*
D03*
Y259500D02*
D03*
Y254500D02*
D03*
X71000D02*
D03*
X76000D02*
D03*
X81000D02*
D03*
Y259500D02*
D03*
Y264500D02*
D03*
X95500Y265000D02*
D03*
X100500D02*
D03*
X105500D02*
D03*
Y270000D02*
D03*
Y275000D02*
D03*
Y280000D02*
D03*
X100500D02*
D03*
X95500D02*
D03*
X323157Y291500D02*
D03*
X412500Y300063D02*
D03*
Y280378D02*
D03*
X412697Y290220D02*
D03*
X-42000Y263478D02*
D03*
Y255000D02*
D03*
Y249000D02*
D03*
Y242500D02*
D03*
Y233500D02*
D03*
Y224000D02*
D03*
Y214500D02*
D03*
Y205000D02*
D03*
Y182827D02*
D03*
Y173500D02*
D03*
Y164000D02*
D03*
Y154500D02*
D03*
Y145000D02*
D03*
Y135500D02*
D03*
X311162Y49815D02*
D03*
X267500Y76500D02*
D03*
X271500Y75500D02*
D03*
X303000Y76500D02*
D03*
X297500Y86000D02*
D03*
X290500Y61000D02*
D03*
X323500Y62000D02*
D03*
X316500Y64500D02*
D03*
X290472Y65823D02*
D03*
X291500Y80000D02*
D03*
X291000Y90000D02*
D03*
X282500Y97000D02*
D03*
X276500Y79500D02*
D03*
X275658Y87459D02*
D03*
X269000Y91500D02*
D03*
X213500Y114500D02*
D03*
X213171Y109181D02*
D03*
X240500Y119000D02*
D03*
X233500Y92000D02*
D03*
X247000Y109500D02*
D03*
X254000Y88500D02*
D03*
X236812Y81812D02*
D03*
X262000Y90000D02*
D03*
X257000D02*
D03*
X233500Y95500D02*
D03*
X233000Y112500D02*
D03*
X231500Y123000D02*
D03*
X224500Y128500D02*
D03*
X218500Y112000D02*
D03*
X217756Y120098D02*
D03*
X216000Y127500D02*
D03*
X319286Y115000D02*
D03*
X315288Y114288D02*
D03*
X317500Y123000D02*
D03*
X266768Y132862D02*
D03*
X281286Y133500D02*
D03*
X278286Y135000D02*
D03*
X303500Y134500D02*
D03*
X297500Y141000D02*
D03*
X289000Y147500D02*
D03*
X282000Y152500D02*
D03*
X292500Y118000D02*
D03*
X311996Y113504D02*
D03*
X293681Y122000D02*
D03*
X291500Y137500D02*
D03*
X280500Y147500D02*
D03*
X274500Y152500D02*
D03*
X184500Y110181D02*
D03*
X187500Y125500D02*
D03*
X209000Y165000D02*
D03*
X239500Y171500D02*
D03*
X233500Y147000D02*
D03*
X254000Y141500D02*
D03*
X246500Y163500D02*
D03*
X233500Y151000D02*
D03*
X290819Y290234D02*
D03*
X291042Y350458D02*
D03*
X234958Y319958D02*
D03*
X236000Y258500D02*
D03*
X265500Y148000D02*
D03*
X258000Y142319D02*
D03*
X235500Y137500D02*
D03*
X233500Y175500D02*
D03*
Y166000D02*
D03*
X218500Y165500D02*
D03*
X217756Y173598D02*
D03*
X194319Y102403D02*
D03*
X204000Y75378D02*
D03*
X192000D02*
D03*
X188500Y97500D02*
D03*
X164500Y92500D02*
D03*
X188000Y81000D02*
D03*
X239000Y267500D02*
D03*
X243000Y279500D02*
D03*
X230748Y248838D02*
D03*
X249500Y270500D02*
D03*
X257000Y250041D02*
D03*
X268500Y255000D02*
D03*
X262210Y252130D02*
D03*
X241102Y243539D02*
D03*
X236500Y273500D02*
D03*
X233906Y283414D02*
D03*
X233153Y290319D02*
D03*
X221500Y273000D02*
D03*
X220756Y281098D02*
D03*
X219710Y287937D02*
D03*
X267500Y302319D02*
D03*
X298000Y314000D02*
D03*
X285650Y283000D02*
D03*
X303000Y304681D02*
D03*
X312000Y283803D02*
D03*
X317000Y285500D02*
D03*
X296004Y277124D02*
D03*
X288111Y324297D02*
D03*
X288716Y317991D02*
D03*
X291500Y307000D02*
D03*
X276500D02*
D03*
X280500Y317500D02*
D03*
X274611Y321797D02*
D03*
X267000Y365500D02*
D03*
X266000Y358500D02*
D03*
X293000Y359500D02*
D03*
X297000Y367500D02*
D03*
X290500Y346500D02*
D03*
X303000Y363000D02*
D03*
X311500Y342000D02*
D03*
X323000Y347500D02*
D03*
X317111Y344475D02*
D03*
X297078Y335597D02*
D03*
X288111Y382797D02*
D03*
X288792Y376181D02*
D03*
X291000Y365500D02*
D03*
X227260Y332592D02*
D03*
X282000Y364000D02*
D03*
X281000Y376181D02*
D03*
X274611Y380297D02*
D03*
X247000Y332000D02*
D03*
X256000Y311541D02*
D03*
X242000Y342500D02*
D03*
X229500Y311000D02*
D03*
X232814Y345630D02*
D03*
X232210Y351937D02*
D03*
X221000Y334500D02*
D03*
X219756Y342598D02*
D03*
X218710Y349437D02*
D03*
X240102Y305039D02*
D03*
X261814Y313630D02*
D03*
X261256Y320205D02*
D03*
X149681Y144315D02*
D03*
X122000Y155500D02*
D03*
X127992Y141622D02*
D03*
X200216Y371379D02*
D03*
X200000Y349000D02*
D03*
X201500Y354787D02*
D03*
X141564Y66448D02*
D03*
X149046Y67653D02*
D03*
X148244Y62181D02*
D03*
X141500Y75500D02*
D03*
X149046Y73847D02*
D03*
X148248Y79479D02*
D03*
X149000Y93000D02*
D03*
X147869Y88000D02*
D03*
X142000Y94000D02*
D03*
X103000Y112500D02*
D03*
X65578Y81377D02*
D03*
X65000Y63500D02*
D03*
X72000Y71000D02*
D03*
X83000Y66000D02*
D03*
X111000Y119147D02*
D03*
X117778Y118665D02*
D03*
X105000Y118500D02*
D03*
X67000Y75000D02*
D03*
X66500Y69000D02*
D03*
X400528Y41209D02*
D03*
X408500Y45000D02*
D03*
X386000D02*
D03*
X378028Y40709D02*
D03*
X363000Y44500D02*
D03*
X355028Y40709D02*
D03*
X340500Y45000D02*
D03*
X332528Y40709D02*
D03*
X309528D02*
D03*
X317500Y44500D02*
D03*
X287028Y40709D02*
D03*
X295000Y44500D02*
D03*
X265028Y40709D02*
D03*
X273000Y44500D02*
D03*
X243429Y41643D02*
D03*
X251000Y44500D02*
D03*
X221500Y60500D02*
D03*
X224000Y58500D02*
D03*
X226500Y56500D02*
D03*
X229000Y54500D02*
D03*
X231500Y52500D02*
D03*
X276500Y47500D02*
D03*
X255000Y47000D02*
D03*
X233500Y46000D02*
D03*
X87500Y86500D02*
D03*
X83500Y89000D02*
D03*
X87500Y80833D02*
D03*
X83500Y83500D02*
D03*
X87500Y75167D02*
D03*
X83500Y78000D02*
D03*
X87500Y69500D02*
D03*
X83500Y72500D02*
D03*
X66420Y98716D02*
D03*
X-37000Y176250D02*
D03*
X82500Y95500D02*
D03*
X60000D02*
D03*
X-1000Y132500D02*
D03*
X233500Y154500D02*
D03*
X291500Y124500D02*
D03*
X234000Y98500D02*
D03*
X290500Y69000D02*
D03*
X266000Y153500D02*
D03*
X259556Y101435D02*
D03*
X268000Y261000D02*
D03*
X317461Y295993D02*
D03*
X267000Y323750D02*
D03*
X317500Y354500D02*
D03*
X236000Y262000D02*
D03*
X290472Y296028D02*
D03*
X235000Y323750D02*
D03*
X290500Y354500D02*
D03*
X196500Y339500D02*
D03*
X194000Y99000D02*
D03*
X171500Y97000D02*
D03*
X193834Y70208D02*
D03*
Y66639D02*
D03*
Y63069D02*
D03*
X89000Y98500D02*
D03*
X82500Y101000D02*
D03*
X179000Y100000D02*
D03*
X176218Y97551D02*
D03*
X193834Y59500D02*
D03*
X211000Y272000D02*
D03*
X210000Y292500D02*
D03*
X208000Y331500D02*
D03*
X-12000Y128500D02*
D03*
X-19000D02*
D03*
X-30500Y129000D02*
D03*
X130000Y35500D02*
D03*
X123000D02*
D03*
X116500Y39500D02*
D03*
X94829Y42716D02*
D03*
X102000Y42000D02*
D03*
X97000Y15000D02*
D03*
X102500Y20000D02*
D03*
X96000Y36000D02*
D03*
D115*
X131000Y320768D02*
D03*
X135331D02*
D03*
X131000Y316437D02*
D03*
X135331D02*
D03*
X131000Y312106D02*
D03*
X135331D02*
D03*
D116*
X151500Y300500D02*
D03*
X7500Y366000D02*
D03*
X44000Y366500D02*
D03*
X-39500Y258500D02*
D03*
M02*
