G04*
G04 #@! TF.GenerationSoftware,Altium Limited,Altium Designer,20.0.13 (296)*
G04*
G04 Layer_Physical_Order=6*
G04 Layer_Color=16711680*
%FSLAX25Y25*%
%MOIN*%
G70*
G01*
G75*
%ADD21C,0.01000*%
%ADD24C,0.02000*%
%ADD26C,0.00700*%
%ADD100C,0.01772*%
%ADD102C,0.00900*%
%ADD104R,0.11024X0.02165*%
%ADD106C,0.01500*%
%ADD107C,0.03000*%
%ADD109C,0.09449*%
%ADD110R,0.05512X0.05512*%
%ADD111C,0.05512*%
%ADD112C,0.12795*%
%ADD113C,0.05118*%
%ADD114R,0.03937X0.03937*%
%ADD115C,0.10000*%
%ADD116R,0.05906X0.05906*%
%ADD117C,0.05906*%
%ADD118R,0.05906X0.05906*%
%ADD119R,0.07874X0.07874*%
%ADD120C,0.07874*%
%ADD121C,0.06000*%
%ADD122C,0.02362*%
%ADD123C,0.01968*%
%ADD124C,0.03150*%
%ADD125R,0.03347X0.03347*%
%ADD126C,0.01400*%
%ADD127C,0.01900*%
G36*
X27500Y330500D02*
X28000Y330000D01*
X98000D01*
X108512Y319488D01*
Y318165D01*
X108512Y318165D01*
X108651Y317468D01*
X109046Y316877D01*
X112500Y313423D01*
Y285000D01*
X50000D01*
X16000Y251000D01*
X-41964Y251000D01*
X-42000Y251007D01*
X-42036Y251000D01*
X-42727D01*
Y252744D01*
X-42341Y253061D01*
X-42000Y252993D01*
X-41232Y253146D01*
X-40581Y253581D01*
X-40146Y254232D01*
X-39993Y255000D01*
X-40146Y255768D01*
X-40581Y256419D01*
X-41232Y256854D01*
X-42000Y257007D01*
X-42109Y256985D01*
X-42283Y257020D01*
X-42727Y257154D01*
Y257154D01*
X-54500D01*
Y259713D01*
X-42727D01*
Y259713D01*
X-42285Y259853D01*
X-41637Y259982D01*
X-41046Y260377D01*
X-40711Y260711D01*
X-40711Y260711D01*
X-40316Y261303D01*
X-40178Y262000D01*
Y262662D01*
X-40146Y262710D01*
X-39993Y263478D01*
X-40146Y264246D01*
X-40581Y264897D01*
X-41232Y265332D01*
X-41288Y265343D01*
X-41883Y265938D01*
X-42341Y266244D01*
X-42189Y266744D01*
X-38790D01*
X-38740Y266754D01*
X-38690Y266747D01*
X-38304Y266766D01*
X-38157Y266803D01*
X-38006D01*
X-37249Y266953D01*
X-37064Y267030D01*
X-36867Y267069D01*
X-36154Y267364D01*
X-35987Y267476D01*
X-35801Y267553D01*
X-35159Y267982D01*
X-35017Y268124D01*
X-34850Y268235D01*
X-34305Y268781D01*
X-34303Y268783D01*
X-9917Y268783D01*
X-2114Y276587D01*
X-50D01*
X730Y276742D01*
X1392Y277184D01*
X1834Y277846D01*
X1989Y278626D01*
X1988Y341646D01*
X2342Y342000D01*
X27500D01*
Y330500D01*
D02*
G37*
G36*
X141000Y306500D02*
X125500D01*
Y326500D01*
X141000D01*
Y306500D01*
D02*
G37*
%LPC*%
G36*
X57500Y329507D02*
X56732Y329354D01*
X56081Y328919D01*
X55646Y328268D01*
X55493Y327500D01*
X55646Y326732D01*
X56081Y326081D01*
X56732Y325646D01*
X57500Y325493D01*
X58268Y325646D01*
X58919Y326081D01*
X59354Y326732D01*
X59507Y327500D01*
X59354Y328268D01*
X58919Y328919D01*
X58268Y329354D01*
X57500Y329507D01*
D02*
G37*
G36*
X52500D02*
X51732Y329354D01*
X51081Y328919D01*
X50646Y328268D01*
X50493Y327500D01*
X50646Y326732D01*
X51081Y326081D01*
X51732Y325646D01*
X52500Y325493D01*
X53268Y325646D01*
X53919Y326081D01*
X54354Y326732D01*
X54507Y327500D01*
X54354Y328268D01*
X53919Y328919D01*
X53268Y329354D01*
X52500Y329507D01*
D02*
G37*
G36*
X32500Y327820D02*
X31511Y327690D01*
X30590Y327308D01*
X29799Y326701D01*
X29192Y325910D01*
X28810Y324989D01*
X28680Y324000D01*
X28810Y323011D01*
X29192Y322090D01*
X29799Y321299D01*
X30590Y320692D01*
X31511Y320310D01*
X32500Y320180D01*
X33489Y320310D01*
X34410Y320692D01*
X35201Y321299D01*
X35808Y322090D01*
X36190Y323011D01*
X36320Y324000D01*
X36190Y324989D01*
X35808Y325910D01*
X35201Y326701D01*
X34410Y327308D01*
X33489Y327690D01*
X32500Y327820D01*
D02*
G37*
G36*
X59500Y305837D02*
X57989Y305638D01*
X56581Y305055D01*
X55372Y304128D01*
X54445Y302919D01*
X53862Y301511D01*
X53663Y300000D01*
X53862Y298489D01*
X54445Y297081D01*
X55372Y295872D01*
X56581Y294945D01*
X57989Y294362D01*
X59500Y294163D01*
X61011Y294362D01*
X62419Y294945D01*
X63628Y295872D01*
X64555Y297081D01*
X65138Y298489D01*
X65337Y300000D01*
X65138Y301511D01*
X64555Y302919D01*
X63628Y304128D01*
X62419Y305055D01*
X61011Y305638D01*
X59500Y305837D01*
D02*
G37*
G36*
X32531Y297375D02*
X31658Y297260D01*
X30844Y296923D01*
X30145Y296387D01*
X29608Y295688D01*
X29271Y294874D01*
X29156Y294000D01*
X29271Y293126D01*
X29608Y292312D01*
X30145Y291613D01*
X30844Y291077D01*
X31658Y290740D01*
X32531Y290625D01*
X33405Y290740D01*
X34219Y291077D01*
X34918Y291613D01*
X35455Y292312D01*
X35792Y293126D01*
X35907Y294000D01*
X35792Y294874D01*
X35455Y295688D01*
X34918Y296387D01*
X34219Y296923D01*
X33405Y297260D01*
X32531Y297375D01*
D02*
G37*
%LPD*%
D21*
X8500Y339000D02*
X9000Y339500D01*
Y361500D01*
X493165Y73665D02*
X502500Y83000D01*
X493165Y60112D02*
Y73665D01*
X493500Y39500D02*
Y54000D01*
X502500Y63000D01*
X358000Y179500D02*
X364000D01*
X358614Y165500D02*
X361114Y163000D01*
X364000D01*
X359209Y129500D02*
X364000D01*
X358764Y129056D02*
X359209Y129500D01*
X358556Y129056D02*
X358764D01*
X363943Y214443D02*
X364000Y214386D01*
X358242Y214443D02*
X363943D01*
X358185Y214500D02*
X358242Y214443D01*
X358185Y214500D02*
X358410D01*
X358000Y226000D02*
X364000D01*
X358000Y242500D02*
X364000D01*
X358000Y259000D02*
X364000D01*
X27690Y154500D02*
X93000D01*
X138000Y214500D02*
X141500Y218000D01*
X138000Y174500D02*
Y214500D01*
X121500Y158000D02*
X138000Y174500D01*
X96500Y158000D02*
X121500D01*
X93000Y154500D02*
X96500Y158000D01*
X-2294Y166000D02*
X16190D01*
X27690Y154500D01*
X-2294Y171709D02*
X-2002Y172000D01*
X-3758Y170244D02*
X-2294Y171709D01*
X-49027Y170244D02*
X-3758D01*
X-2002Y172000D02*
X-2000D01*
X-2294Y160291D02*
X-2002Y160000D01*
X-9002Y167000D02*
X-2294Y160291D01*
X-2002Y160000D02*
X-2000D01*
X-39000Y167000D02*
X-9002D01*
X373900Y53800D02*
X393400Y34300D01*
X351709Y51891D02*
X370400Y33200D01*
X119409Y51891D02*
X351709D01*
X120200Y53800D02*
X373900D01*
X87500Y86500D02*
X120200Y53800D01*
X89681Y81619D02*
X119409Y51891D01*
X87500Y86500D02*
X87500D01*
X87918Y83500D02*
X89681Y81737D01*
X87415Y83500D02*
X87918D01*
X89681Y81619D02*
Y81737D01*
X83761Y87155D02*
Y88739D01*
Y87155D02*
X87415Y83500D01*
X83500Y89000D02*
X83761Y88739D01*
X87667Y80833D02*
X118300Y50200D01*
X331800D02*
X348500Y33500D01*
X118300Y50200D02*
X331800D01*
X88662Y74537D02*
X116500Y46700D01*
X287300D02*
X302000Y32000D01*
X116500Y46700D02*
X287300D01*
X88008Y77992D02*
X117500Y48500D01*
X309500D01*
X325000Y33000D01*
X88000Y72500D02*
X115500Y45000D01*
X268900D02*
X280500Y33400D01*
X115500Y45000D02*
X268900D01*
X246500Y43300D02*
X258000Y31800D01*
X114300Y43300D02*
X246500D01*
X88696Y68904D02*
X114300Y43300D01*
X227600Y41800D02*
X237000Y32400D01*
X113079Y41800D02*
X227600D01*
X90879Y64000D02*
X113079Y41800D01*
X87500Y80833D02*
X87667D01*
X83761Y80871D02*
Y83239D01*
X86639Y77992D02*
X88008D01*
X83500Y83500D02*
X83761Y83239D01*
Y80871D02*
X86639Y77992D01*
X83681Y69819D02*
Y72319D01*
X89500Y64000D02*
X90879D01*
X83500Y72500D02*
X83681Y72319D01*
Y69819D02*
X89500Y64000D01*
X88464Y68904D02*
X88696D01*
X87500Y69500D02*
X87869D01*
X88464Y68904D01*
X83761Y75324D02*
X86585Y72500D01*
X88000D01*
X83500Y78000D02*
X83761Y77739D01*
Y75324D02*
Y77739D01*
X87869Y75167D02*
X88498Y74537D01*
X88662D01*
X87500Y75167D02*
X87869D01*
X205500Y160500D02*
Y197000D01*
X263889Y255389D02*
X286000D01*
X205500Y197000D02*
X263889Y255389D01*
X208500Y196500D02*
X265000Y253000D01*
X287000D02*
X297500Y263500D01*
X265000Y253000D02*
X287000D01*
X297500Y263500D02*
Y272667D01*
X292167Y278000D02*
X297500Y272667D01*
X292000Y278000D02*
X292167D01*
X295500Y264889D02*
Y272167D01*
X292000Y275500D02*
X292167D01*
X295500Y272167D01*
X208500Y154000D02*
Y158000D01*
X195750Y141250D02*
X208500Y154000D01*
X195750Y87250D02*
Y141250D01*
X186250Y77750D02*
X195750Y87250D01*
X85000Y99000D02*
X147500D01*
X168750Y77750D01*
X186250D01*
X205500Y155500D02*
Y160500D01*
X193500Y143500D02*
X205500Y155500D01*
X193500Y89500D02*
Y143500D01*
X184000Y80000D02*
X193500Y89500D01*
X86500Y102000D02*
X149000D01*
X171000Y80000D01*
X184000D01*
X286000Y255389D02*
X295500Y264889D01*
X208500Y158000D02*
Y196500D01*
X223866Y135000D02*
X227906Y130961D01*
X212000Y135000D02*
X223866D01*
X273000Y106500D02*
X285000D01*
X273000Y106500D02*
X273000Y106500D01*
X262968Y177726D02*
X271447Y186205D01*
X271705D02*
X283650D01*
X271500Y186000D02*
X271705Y186205D01*
X262968Y176969D02*
Y177726D01*
X299650Y161205D02*
Y177205D01*
X304650Y182205D01*
X283650Y186205D02*
X287650Y182205D01*
X304650D01*
X261500Y175500D02*
X262968Y176969D01*
X279458Y180013D02*
X282650Y183205D01*
X271013Y180013D02*
X279458D01*
X282650Y163205D02*
Y183205D01*
Y163205D02*
X294650Y151205D01*
X266500Y175500D02*
X271013Y180013D01*
X203224Y125724D02*
Y126482D01*
X239906Y109961D02*
Y125961D01*
X244905Y130961D01*
X227906D02*
X244905D01*
X203224Y126482D02*
X211703Y134961D01*
X201756Y124256D02*
X203224Y125724D01*
X222905Y111961D02*
Y131961D01*
X219713Y128769D02*
X222905Y131961D01*
X211269Y128769D02*
X219713D01*
X222905Y111961D02*
X234906Y99961D01*
X206756Y124256D02*
X211269Y128769D01*
X264319Y97264D02*
Y98021D01*
X301000Y81500D02*
Y97500D01*
X306000Y102500D01*
X285000Y106500D02*
X289000Y102500D01*
X306000D01*
X264319Y98021D02*
X272797Y106500D01*
X262850Y95795D02*
X264319Y97264D01*
X280808Y100308D02*
X284000Y103500D01*
X272363Y100308D02*
X280808D01*
X284000Y83500D02*
Y103500D01*
Y83500D02*
X296000Y71500D01*
X267850Y95795D02*
X272363Y100308D01*
X391000Y96000D02*
X396000Y101000D01*
X391000Y80000D02*
Y96000D01*
X374000Y82000D02*
Y102000D01*
Y82000D02*
X386000Y70000D01*
X352850Y94295D02*
X354319Y95764D01*
Y96521D01*
X362797Y105000D01*
X375000D02*
X379000Y101000D01*
X362797Y105000D02*
X375000D01*
X379000Y101000D02*
X396000D01*
X357850Y94295D02*
X362363Y98808D01*
X370808D01*
X374000Y102000D01*
X208508Y275392D02*
Y291113D01*
Y275392D02*
X220756Y263145D01*
X392035Y263488D02*
X392837D01*
X390578Y264031D02*
Y287578D01*
Y264031D02*
X391164Y263445D01*
X390460Y261745D02*
X391801D01*
X391992Y263445D02*
X392035Y263488D01*
X391164Y263445D02*
X391992D01*
X390578Y287578D02*
X407000Y304000D01*
X391801Y261745D02*
X392035Y261512D01*
X388878Y288282D02*
X405798Y305202D01*
X388878Y263327D02*
X390460Y261745D01*
X388878Y263327D02*
Y288282D01*
X407493Y304298D02*
X407702D01*
X407195Y304000D02*
X407493Y304298D01*
X407000Y304000D02*
X407195D01*
X406096Y305695D02*
Y305904D01*
X405798Y305398D02*
X406096Y305695D01*
X405798Y305202D02*
Y305398D01*
X392837Y263488D02*
X392984Y263636D01*
X392837Y261512D02*
X392984Y261364D01*
X392035Y261512D02*
X392837D01*
X187000Y89000D02*
X189243Y91243D01*
Y207757D01*
X185000Y89667D02*
X187743Y92410D01*
X185000Y87000D02*
Y89667D01*
X187743Y92410D02*
Y209086D01*
X189243Y207757D02*
X254500Y273015D01*
X183000Y85000D02*
Y90000D01*
X186243Y93243D02*
Y210560D01*
X183000Y90000D02*
X186243Y93243D01*
X181000Y83000D02*
Y91000D01*
X184743Y94743D02*
Y263936D01*
X181000Y91000D02*
X184743Y94743D01*
Y263936D02*
X191758Y270951D01*
X186243Y210560D02*
X235000Y259317D01*
X254500Y288500D02*
X277613Y311613D01*
X358225D01*
X254500Y273015D02*
Y288500D01*
X247000Y268343D02*
Y310708D01*
X270646Y334354D01*
X187743Y209086D02*
X247000Y268343D01*
X190500Y333736D02*
X200764D01*
X235000Y299500D01*
Y259317D02*
Y299500D01*
X188827Y288861D02*
Y289619D01*
X196079Y291113D02*
X208508D01*
X192358Y287392D02*
X196079Y291113D01*
X230394Y277951D02*
Y294373D01*
X204815D02*
X230394D01*
X203394Y292951D02*
X204815Y294373D01*
X192160Y292951D02*
X203394D01*
X188827Y289619D02*
X192160Y292951D01*
X187358Y287392D02*
X188827Y288861D01*
X225394Y272951D02*
X230394Y277951D01*
X188827Y351646D02*
Y352403D01*
X196079Y353898D02*
X208508D01*
Y338177D02*
Y353898D01*
Y338177D02*
X220756Y325929D01*
X192358Y350177D02*
X196079Y353898D01*
X230394Y340736D02*
Y357157D01*
X204815D02*
X230394D01*
X203394Y355736D02*
X204815Y357157D01*
X192160Y355736D02*
X203394D01*
X188827Y352403D02*
X192160Y355736D01*
X187358Y350177D02*
X188827Y351646D01*
X225394Y335736D02*
X230394Y340736D01*
X269819Y352264D02*
Y353021D01*
X277071Y354516D02*
X289500D01*
Y338795D02*
Y354516D01*
Y338795D02*
X301748Y326548D01*
X273350Y350795D02*
X277071Y354516D01*
X311386Y341354D02*
Y357775D01*
X285807D02*
X311386D01*
X284386Y356354D02*
X285807Y357775D01*
X273152Y356354D02*
X284386D01*
X269819Y353021D02*
X273152Y356354D01*
X268350Y350795D02*
X269819Y352264D01*
X306386Y336354D02*
X311386Y341354D01*
X353964Y325941D02*
X355433Y327410D01*
Y328167D01*
X358766Y331500D01*
X370000D01*
X371421Y332921D02*
X397000D01*
X370000Y331500D02*
X371421Y332921D01*
X358964Y325941D02*
X362685Y329661D01*
X375114D01*
Y313941D02*
X387362Y301693D01*
X375114Y313941D02*
Y329661D01*
X397000Y316500D02*
Y332921D01*
X392000Y311500D02*
X397000Y316500D01*
X-37293Y176543D02*
X-37000Y176250D01*
X-49027Y176543D02*
X-37293D01*
X-1051Y132449D02*
X-1000Y132500D01*
X-49027Y132449D02*
X-1051D01*
X-49027Y129299D02*
X-48877Y129150D01*
X-30650D01*
X-30500Y129000D01*
D24*
X-49027Y261583D02*
X-48944Y261665D01*
X-42335D01*
X-42000Y262000D01*
X-43172Y264650D02*
X-42000Y263478D01*
Y262000D02*
Y263478D01*
X-48944Y264650D02*
X-43172D01*
X-49027Y264732D02*
X-48944Y264650D01*
X-49027Y255283D02*
X-48944Y255201D01*
X-42299D01*
X-42098Y255000D01*
X-42000D01*
X-42016Y248984D02*
X-42000Y249000D01*
X-49027Y248984D02*
X-42016D01*
X-49027Y242685D02*
X-48944Y242602D01*
X-42200D01*
X-42098Y242500D01*
X-42000D01*
X-42264Y233236D02*
X-42000Y233500D01*
X-49027Y233236D02*
X-42264D01*
X-49027Y223787D02*
X-48944Y223870D01*
X-42228D01*
X-42098Y224000D01*
X-42000D01*
X-42162Y214338D02*
X-42000Y214500D01*
X-49027Y214338D02*
X-42162D01*
X-49027Y204890D02*
X-48971Y204945D01*
X-42055D01*
X-42000Y205000D01*
X-49027Y182843D02*
X-49019Y182835D01*
X-42008D01*
X-42000Y182827D01*
X-49027Y173394D02*
X-48973Y173447D01*
X-42053D01*
X-42000Y173500D01*
X-49027Y163945D02*
X-48999Y163972D01*
X-42028D01*
X-42000Y164000D01*
X-49027Y154496D02*
X-49025Y154498D01*
X-42002D01*
X-42000Y154500D01*
X-49027Y145047D02*
X-49003Y145024D01*
X-42024D01*
X-42000Y145000D01*
X-49027Y135598D02*
X-48977Y135549D01*
X-42049D01*
X-42000Y135500D01*
X110335Y318165D02*
Y343505D01*
Y318165D02*
X128000Y300500D01*
X151500D01*
D26*
X-31848Y194500D02*
X-25003D01*
X-36913Y199565D02*
X-31848Y194500D01*
X-24396Y193894D02*
X-24106D01*
X-25003Y194500D02*
X-24396Y193894D01*
X-43623Y199565D02*
X-36913D01*
X-44597Y198591D02*
X-43623Y199565D01*
X-49027Y198591D02*
X-44597D01*
X-31351Y195700D02*
X-22700D01*
X-36416Y200765D02*
X-31351Y195700D01*
X-22700D02*
X-22500Y195500D01*
X-44597Y201740D02*
X-43623Y200765D01*
X-36416D01*
X-49027Y201740D02*
X-44597D01*
X-43623Y210214D02*
X-37759D01*
X-44597Y211189D02*
X-43623Y210214D01*
X-37759D02*
X-28845Y201300D01*
X-49027Y211189D02*
X-44597D01*
X-43623Y209014D02*
X-38256D01*
X-44597Y208039D02*
X-43623Y209014D01*
X-38256D02*
X-30205Y200963D01*
X-49027Y208039D02*
X-44597D01*
X-40208Y219663D02*
X-33356Y212811D01*
X-43623Y219663D02*
X-40208D01*
X-44597Y220638D02*
X-43623Y219663D01*
X-49027Y220638D02*
X-44597D01*
X-43623Y218463D02*
X-40705D01*
X-44597Y217488D02*
X-43623Y218463D01*
X-40705D02*
X-34205Y211963D01*
X-49027Y217488D02*
X-44597D01*
X-40874Y229112D02*
X-32833Y221071D01*
X-43623Y229112D02*
X-40874D01*
X-44597Y230087D02*
X-43623Y229112D01*
X-49027Y230087D02*
X-44597D01*
X-41371Y227912D02*
X-34148Y220689D01*
X-43623Y227912D02*
X-41371D01*
X-34148Y219649D02*
Y220689D01*
X-44597Y226937D02*
X-43623Y227912D01*
X-49027Y226937D02*
X-44597D01*
X-34148Y219649D02*
X-34000Y219500D01*
X-40323Y238561D02*
X-34698Y232936D01*
X-43623Y238561D02*
X-40323D01*
X-34698Y232936D02*
X-34541D01*
X-44597Y239535D02*
X-43623Y238561D01*
X-49027Y239535D02*
X-44597D01*
X-40820Y237361D02*
X-35649Y232189D01*
X-43623Y237361D02*
X-40820D01*
X-35649Y231149D02*
Y232189D01*
X-44597Y236386D02*
X-43623Y237361D01*
X-49027Y236386D02*
X-44597D01*
X-35649Y231149D02*
X-35500Y231000D01*
D100*
X9000Y361500D02*
D03*
X337500Y36500D02*
D03*
X314500D02*
D03*
X269500D02*
D03*
X248500D02*
D03*
X174500Y198500D02*
D03*
X106547Y214047D02*
D03*
X112453Y202236D02*
D03*
Y208142D02*
D03*
Y214047D02*
D03*
Y231764D02*
D03*
Y225858D02*
D03*
Y219953D02*
D03*
X118358Y202236D02*
D03*
Y208142D02*
D03*
Y214047D02*
D03*
Y231764D02*
D03*
Y225858D02*
D03*
Y219953D02*
D03*
X124264Y202236D02*
D03*
Y208142D02*
D03*
Y214047D02*
D03*
Y231764D02*
D03*
Y225858D02*
D03*
Y219953D02*
D03*
X106547Y202236D02*
D03*
Y208142D02*
D03*
Y231764D02*
D03*
Y225858D02*
D03*
Y219953D02*
D03*
X100642Y202236D02*
D03*
Y208142D02*
D03*
Y214047D02*
D03*
Y231764D02*
D03*
Y225858D02*
D03*
Y219953D02*
D03*
X94736Y202236D02*
D03*
Y208142D02*
D03*
Y214047D02*
D03*
Y231764D02*
D03*
Y225858D02*
D03*
Y219953D02*
D03*
X493165Y60112D02*
D03*
X493500Y39500D02*
D03*
X358000Y179500D02*
D03*
X358614Y165500D02*
D03*
X358811Y145811D02*
D03*
X364322Y172586D02*
D03*
X363645Y143645D02*
D03*
X363639Y160139D02*
D03*
X364000Y129500D02*
D03*
X358556Y129056D02*
D03*
X364000Y214386D02*
D03*
X358185Y214500D02*
D03*
X358000Y226000D02*
D03*
Y242500D02*
D03*
X362356Y212356D02*
D03*
X363512Y232488D02*
D03*
X363500Y245500D02*
D03*
X358000Y259000D02*
D03*
X364000D02*
D03*
X529556Y183056D02*
D03*
X471067Y183794D02*
D03*
Y186066D02*
D03*
X519132Y168131D02*
D03*
X471277Y168607D02*
D03*
Y166335D02*
D03*
X522500Y164000D02*
D03*
X471000Y150104D02*
D03*
Y147833D02*
D03*
X471547Y219227D02*
D03*
Y216956D02*
D03*
X471000Y234975D02*
D03*
Y237246D02*
D03*
X521000Y236500D02*
D03*
X524000Y237500D02*
D03*
X471000Y255616D02*
D03*
Y253344D02*
D03*
X527100Y245600D02*
D03*
X321728Y332728D02*
D03*
X324117Y332784D02*
D03*
X260000Y110620D02*
D03*
Y112892D02*
D03*
X-24106Y193894D02*
D03*
X-22500Y195500D02*
D03*
X-27912Y200895D02*
D03*
X-30000Y200000D02*
D03*
X-32394Y212606D02*
D03*
X-34000Y211000D02*
D03*
X-31996Y220570D02*
D03*
X-34000Y219500D02*
D03*
X-33696Y232381D02*
D03*
X-35500Y231000D02*
D03*
X370500Y323000D02*
D03*
X284500Y348000D02*
D03*
X406000Y90500D02*
D03*
X386000Y308500D02*
D03*
X217893Y364569D02*
D03*
X168000Y106000D02*
D03*
X150500D02*
D03*
X147000Y150000D02*
D03*
Y144500D02*
D03*
X117000Y118500D02*
D03*
X105500D02*
D03*
X111000Y122000D02*
D03*
X112500Y112500D02*
D03*
X131500Y78500D02*
D03*
X217893Y301784D02*
D03*
X298959Y365203D02*
D03*
X385084Y340916D02*
D03*
X292000Y278000D02*
D03*
Y275500D02*
D03*
X208500Y158000D02*
D03*
X205500Y160500D02*
D03*
X210500Y164000D02*
D03*
X266000Y104500D02*
D03*
X345000Y105000D02*
D03*
X220000Y153000D02*
D03*
X198500Y170500D02*
D03*
X211834Y126666D02*
D03*
X231500Y168000D02*
D03*
Y150500D02*
D03*
X211000Y148000D02*
D03*
X211500Y171000D02*
D03*
X220000Y155500D02*
D03*
Y163000D02*
D03*
X198000Y165500D02*
D03*
X180500Y166000D02*
D03*
X182500Y163000D02*
D03*
Y157500D02*
D03*
X197500Y160500D02*
D03*
X198000Y153000D02*
D03*
X182500Y148000D02*
D03*
X309000Y119000D02*
D03*
X325500Y123500D02*
D03*
X322500Y132000D02*
D03*
X302500Y126500D02*
D03*
X300000Y132500D02*
D03*
X320000Y164136D02*
D03*
Y161864D02*
D03*
X393204Y176458D02*
D03*
Y174186D02*
D03*
X393128Y158872D02*
D03*
X391506Y160755D02*
D03*
X321000Y82159D02*
D03*
Y84431D02*
D03*
X390555Y144052D02*
D03*
X392161Y142445D02*
D03*
X394500Y126744D02*
D03*
X394510Y124289D02*
D03*
X411000Y82931D02*
D03*
Y80659D02*
D03*
X151000Y85901D02*
D03*
Y81357D02*
D03*
Y83629D02*
D03*
X314799Y171133D02*
D03*
X313650Y176949D02*
D03*
X264650Y151205D02*
D03*
X265650Y146205D02*
D03*
X279650Y148205D02*
D03*
X280650Y143205D02*
D03*
X286650Y173205D02*
D03*
X278650Y170205D02*
D03*
X279650Y159205D02*
D03*
X304500Y158055D02*
D03*
X319650Y169205D02*
D03*
X304650Y182205D02*
D03*
X299650Y161205D02*
D03*
X292650Y190205D02*
D03*
X294650Y151205D02*
D03*
X282650Y183205D02*
D03*
X277992Y183500D02*
D03*
X255055Y119889D02*
D03*
X253906Y125705D02*
D03*
X204906Y99961D02*
D03*
X205906Y94961D02*
D03*
X219905Y96961D02*
D03*
X220905Y91961D02*
D03*
X226905Y121961D02*
D03*
X218905Y118961D02*
D03*
X219905Y107961D02*
D03*
X244756Y106811D02*
D03*
X259906Y117961D02*
D03*
X244905Y130961D02*
D03*
X239906Y109961D02*
D03*
X232906Y138961D02*
D03*
X234906Y99961D02*
D03*
X222905Y131961D02*
D03*
X218248Y132256D02*
D03*
X316149Y91429D02*
D03*
X315000Y97244D02*
D03*
X266000Y71500D02*
D03*
X267000Y66500D02*
D03*
X281000Y68500D02*
D03*
X282000Y63500D02*
D03*
X288000Y93500D02*
D03*
X280000Y90500D02*
D03*
X281000Y79500D02*
D03*
X305850Y78350D02*
D03*
X321000Y89500D02*
D03*
X306000Y102500D02*
D03*
X301000Y81500D02*
D03*
X294000Y110500D02*
D03*
X296000Y71500D02*
D03*
X284000Y103500D02*
D03*
X279343Y103795D02*
D03*
X395850Y76850D02*
D03*
X386000Y70000D02*
D03*
X391000Y80000D02*
D03*
X374000Y102000D02*
D03*
X384000Y109000D02*
D03*
X369343Y102295D02*
D03*
X371000Y67000D02*
D03*
X356000Y70000D02*
D03*
X357000Y65000D02*
D03*
X372000Y62000D02*
D03*
X371000Y78000D02*
D03*
X370000Y89000D02*
D03*
X411000Y88000D02*
D03*
X378000Y92000D02*
D03*
X396000Y101000D02*
D03*
X405000Y95744D02*
D03*
X443500Y200000D02*
D03*
X236000Y215000D02*
D03*
X235000Y210000D02*
D03*
X199000Y198000D02*
D03*
X221000Y268000D02*
D03*
X302000Y332000D02*
D03*
X241887Y266418D02*
D03*
X243494Y268024D02*
D03*
X392159Y213636D02*
D03*
Y211364D02*
D03*
X240728Y331000D02*
D03*
X243000D02*
D03*
X390645Y230811D02*
D03*
Y228539D02*
D03*
X221000Y331000D02*
D03*
X313993Y282748D02*
D03*
X313945Y270006D02*
D03*
X284185Y263516D02*
D03*
Y289114D02*
D03*
X391000Y245177D02*
D03*
Y247449D02*
D03*
X272300Y285500D02*
D03*
X325200Y267500D02*
D03*
X272800D02*
D03*
X292000Y281000D02*
D03*
Y273000D02*
D03*
X320287Y277000D02*
D03*
X314000Y274000D02*
D03*
X321000Y288000D02*
D03*
X269279Y297545D02*
D03*
X286352Y303688D02*
D03*
X257000Y298000D02*
D03*
X279008Y305110D02*
D03*
X256000Y303000D02*
D03*
Y309000D02*
D03*
X203000Y284000D02*
D03*
X213000Y282000D02*
D03*
X250000Y273000D02*
D03*
X213331Y347500D02*
D03*
X213000Y345000D02*
D03*
X247000Y333000D02*
D03*
X284000Y345000D02*
D03*
X328425Y334425D02*
D03*
X370000Y320000D02*
D03*
X414000Y309000D02*
D03*
X406096Y305904D02*
D03*
X407702Y304298D02*
D03*
X392984Y263636D02*
D03*
Y261364D02*
D03*
X187000Y89000D02*
D03*
X185000Y87000D02*
D03*
X183000Y85000D02*
D03*
X181000Y83000D02*
D03*
X358225Y311613D02*
D03*
X270646Y334354D02*
D03*
X190500Y333736D02*
D03*
X191758Y270951D02*
D03*
X239394Y287951D02*
D03*
X240307Y284292D02*
D03*
X191307Y258792D02*
D03*
X190394Y261951D02*
D03*
X206307Y256292D02*
D03*
X205898Y259492D02*
D03*
X204894Y270951D02*
D03*
X220756Y263145D02*
D03*
X208508Y291113D02*
D03*
X230394Y294373D02*
D03*
X225394Y272951D02*
D03*
X200858Y295848D02*
D03*
X239394Y350736D02*
D03*
X240307Y347077D02*
D03*
X191307Y321577D02*
D03*
X190394Y324736D02*
D03*
X206307Y319077D02*
D03*
X205898Y322277D02*
D03*
X204894Y333736D02*
D03*
X220756Y325929D02*
D03*
X208508Y353898D02*
D03*
X230394Y357157D02*
D03*
X225394Y335736D02*
D03*
X200858Y358633D02*
D03*
X320386Y351354D02*
D03*
X321299Y347695D02*
D03*
X272299Y322195D02*
D03*
X271386Y325354D02*
D03*
X287299Y319695D02*
D03*
X286890Y322895D02*
D03*
X285886Y334354D02*
D03*
X301748Y326548D02*
D03*
X289500Y354516D02*
D03*
X311386Y357775D02*
D03*
X306386Y336354D02*
D03*
X281850Y359251D02*
D03*
X375114Y329661D02*
D03*
X387362Y301693D02*
D03*
X392000Y311500D02*
D03*
X367464Y334397D02*
D03*
X406913Y322841D02*
D03*
X406000Y326500D02*
D03*
X371500Y309500D02*
D03*
X372504Y298041D02*
D03*
X372913Y294841D02*
D03*
X357000Y300500D02*
D03*
X357913Y297341D02*
D03*
X397000Y332921D02*
D03*
X364000Y163000D02*
D03*
X364500Y146000D02*
D03*
X364000Y179500D02*
D03*
Y242500D02*
D03*
Y226000D02*
D03*
X449437Y169667D02*
D03*
X443755Y171822D02*
D03*
X449255Y183322D02*
D03*
X443755D02*
D03*
X407255Y170322D02*
D03*
Y160822D02*
D03*
Y150822D02*
D03*
X410755Y140322D02*
D03*
X437755Y169822D02*
D03*
X437452Y159830D02*
D03*
X437758Y149842D02*
D03*
X449448Y158333D02*
D03*
X443755Y160824D02*
D03*
X400255Y144822D02*
D03*
X399255Y149322D02*
D03*
X400255Y155822D02*
D03*
X399255Y160822D02*
D03*
X400255Y167322D02*
D03*
X399255Y171675D02*
D03*
X400255Y178822D02*
D03*
X399255Y183322D02*
D03*
X449448Y147000D02*
D03*
X443755Y149322D02*
D03*
X494255Y136822D02*
D03*
X494755Y154822D02*
D03*
X494255Y172822D02*
D03*
Y191322D02*
D03*
X494000Y224000D02*
D03*
X494500Y242000D02*
D03*
X494000Y260000D02*
D03*
Y278500D02*
D03*
X399000Y258852D02*
D03*
Y270500D02*
D03*
X400000Y266000D02*
D03*
Y254500D02*
D03*
X399000Y248000D02*
D03*
X400000Y243000D02*
D03*
X399000Y236500D02*
D03*
X400000Y232000D02*
D03*
X407000Y257500D02*
D03*
X410500Y227500D02*
D03*
X407000Y238000D02*
D03*
Y248000D02*
D03*
X449194Y234178D02*
D03*
Y245511D02*
D03*
X449182Y256844D02*
D03*
X449000Y270500D02*
D03*
X437503Y237020D02*
D03*
X437197Y247008D02*
D03*
X437500Y257000D02*
D03*
X443500Y248002D02*
D03*
Y236500D02*
D03*
Y270500D02*
D03*
Y259000D02*
D03*
X115300Y172808D02*
D03*
X98308Y173603D02*
D03*
X130300Y172808D02*
D03*
X95715Y248341D02*
D03*
X100642Y248142D02*
D03*
X140864Y235664D02*
D03*
X140300Y211996D02*
D03*
X78300Y206256D02*
D03*
X70800Y209308D02*
D03*
X78300Y225807D02*
D03*
X65300D02*
D03*
X95800Y185808D02*
D03*
X100300Y185308D02*
D03*
X99300Y178927D02*
D03*
X108300Y185808D02*
D03*
X114300Y185308D02*
D03*
X113804Y178927D02*
D03*
X122300Y185808D02*
D03*
X131800Y178927D02*
D03*
X161800Y220307D02*
D03*
X175000Y217500D02*
D03*
X147800Y182308D02*
D03*
X140300Y199308D02*
D03*
X142800Y196359D02*
D03*
X146800Y196808D02*
D03*
X148300Y215307D02*
D03*
Y226308D02*
D03*
X147300Y220808D02*
D03*
X140800Y222808D02*
D03*
X108300Y248307D02*
D03*
X122300D02*
D03*
X128300Y255280D02*
D03*
X131300Y254807D02*
D03*
X117026Y255308D02*
D03*
X113804Y254807D02*
D03*
X102800Y255308D02*
D03*
X99300Y254807D02*
D03*
X114300Y248307D02*
D03*
X141500Y218000D02*
D03*
X98000Y249500D02*
D03*
X141500Y232500D02*
D03*
X143000Y230000D02*
D03*
X141500Y227500D02*
D03*
X110500Y38000D02*
D03*
X71300Y205807D02*
D03*
Y225807D02*
D03*
D102*
X527500Y164000D02*
X531500D01*
D104*
X-49027Y264732D02*
D03*
Y261583D02*
D03*
Y258433D02*
D03*
Y255283D02*
D03*
Y252134D02*
D03*
Y248984D02*
D03*
Y245835D02*
D03*
Y242685D02*
D03*
Y239535D02*
D03*
Y236386D02*
D03*
Y233236D02*
D03*
Y230087D02*
D03*
Y226937D02*
D03*
Y223787D02*
D03*
Y220638D02*
D03*
Y217488D02*
D03*
Y214338D02*
D03*
Y211189D02*
D03*
Y208039D02*
D03*
Y204890D02*
D03*
Y201740D02*
D03*
Y198591D02*
D03*
Y182843D02*
D03*
Y179693D02*
D03*
Y176543D02*
D03*
Y173394D02*
D03*
Y170244D02*
D03*
Y167094D02*
D03*
Y163945D02*
D03*
Y160795D02*
D03*
Y157646D02*
D03*
Y154496D02*
D03*
Y151346D02*
D03*
Y148197D02*
D03*
Y145047D02*
D03*
Y141898D02*
D03*
Y138748D02*
D03*
Y135598D02*
D03*
Y132449D02*
D03*
Y129299D02*
D03*
D106*
X529500Y183000D02*
X529556Y183056D01*
X529500Y176000D02*
Y183000D01*
X531500Y164000D02*
X536500D01*
X522500D02*
X527500D01*
X529500Y238000D02*
Y243200D01*
X527100Y245600D02*
X529500Y243200D01*
X443500Y149651D02*
Y236500D01*
Y259000D02*
Y270500D01*
Y248002D02*
Y259000D01*
Y236500D02*
Y248002D01*
Y149651D02*
X443755Y149396D01*
Y149322D02*
Y149396D01*
D107*
X59000Y378000D02*
X72390Y364610D01*
X86500D01*
X47529Y366529D02*
X59000Y378000D01*
X44029Y366529D02*
X47529D01*
X44000Y366500D02*
X44029Y366529D01*
D109*
X533000Y260000D02*
D03*
Y134000D02*
D03*
D110*
X536500Y180000D02*
D03*
Y242000D02*
D03*
D111*
X529500Y176000D02*
D03*
X536500Y172000D02*
D03*
X529500Y168000D02*
D03*
X536500Y164000D02*
D03*
X529500Y160000D02*
D03*
X536500Y156000D02*
D03*
X529500Y152000D02*
D03*
Y214000D02*
D03*
X536500Y218000D02*
D03*
X529500Y222000D02*
D03*
X536500Y226000D02*
D03*
X529500Y230000D02*
D03*
X536500Y234000D02*
D03*
X529500Y238000D02*
D03*
D112*
X546500Y141000D02*
D03*
Y253000D02*
D03*
D113*
X86500Y376421D02*
D03*
Y366579D02*
D03*
X32531Y294000D02*
D03*
X22689D02*
D03*
D114*
X357850Y94295D02*
D03*
X352850D02*
D03*
X357850Y89295D02*
D03*
X352850D02*
D03*
X357850Y84295D02*
D03*
X352850D02*
D03*
X262850Y85795D02*
D03*
X267850D02*
D03*
X262850Y90795D02*
D03*
X267850D02*
D03*
X262850Y95795D02*
D03*
X267850D02*
D03*
X206756Y124256D02*
D03*
X201756D02*
D03*
X206756Y119256D02*
D03*
X201756D02*
D03*
X206756Y114256D02*
D03*
X201756D02*
D03*
X261500Y165500D02*
D03*
X266500D02*
D03*
X261500Y170500D02*
D03*
X266500D02*
D03*
X261500Y175500D02*
D03*
X266500D02*
D03*
X192358Y287392D02*
D03*
X187358D02*
D03*
X192358Y282392D02*
D03*
X187358D02*
D03*
X192358Y277392D02*
D03*
X187358D02*
D03*
X187358Y340177D02*
D03*
X192358D02*
D03*
X187358Y345177D02*
D03*
X192358D02*
D03*
X187358Y350177D02*
D03*
X192358D02*
D03*
X273350Y350795D02*
D03*
X268350D02*
D03*
X273350Y345795D02*
D03*
X268350D02*
D03*
X273350Y340795D02*
D03*
X268350D02*
D03*
X353964Y315941D02*
D03*
X358964D02*
D03*
X353964Y320941D02*
D03*
X358964D02*
D03*
X353964Y325941D02*
D03*
X358964D02*
D03*
D115*
X65500Y140000D02*
D03*
X128000Y135000D02*
D03*
X148500Y239000D02*
D03*
X146000Y118000D02*
D03*
X158500Y229500D02*
D03*
X51000Y158500D02*
D03*
X36000Y64500D02*
D03*
X59500Y300000D02*
D03*
X127500Y284000D02*
D03*
X18000Y149000D02*
D03*
X59000Y378000D02*
D03*
D116*
X477000Y304500D02*
D03*
Y93000D02*
D03*
X74500Y170000D02*
D03*
D117*
X477000Y314500D02*
D03*
X467000Y304500D02*
D03*
Y314500D02*
D03*
X457000Y304500D02*
D03*
Y314500D02*
D03*
X447000Y304500D02*
D03*
Y314500D02*
D03*
X477000Y103000D02*
D03*
X467000Y93000D02*
D03*
Y103000D02*
D03*
X457000Y93000D02*
D03*
Y103000D02*
D03*
X447000Y93000D02*
D03*
Y103000D02*
D03*
X84500Y170000D02*
D03*
X37500Y250000D02*
D03*
X345000Y131000D02*
D03*
X335000Y141000D02*
D03*
X345000D02*
D03*
X335000Y151000D02*
D03*
X345000D02*
D03*
X335000Y161000D02*
D03*
X345000D02*
D03*
X344000Y257000D02*
D03*
X334000Y267000D02*
D03*
X344000D02*
D03*
X334000Y277000D02*
D03*
X344000D02*
D03*
X334000Y287000D02*
D03*
X344000D02*
D03*
X37500Y166000D02*
D03*
X22500Y175500D02*
D03*
X37500Y187000D02*
D03*
X22500Y196500D02*
D03*
X37500Y208000D02*
D03*
X22500Y217500D02*
D03*
X37500Y229000D02*
D03*
X22500Y238500D02*
D03*
X109500Y217000D02*
D03*
D118*
X37500Y260000D02*
D03*
X335000Y131000D02*
D03*
X334000Y257000D02*
D03*
X37500Y176000D02*
D03*
X22500Y185500D02*
D03*
X37500Y197000D02*
D03*
X22500Y206500D02*
D03*
X37500Y218000D02*
D03*
X22500Y227500D02*
D03*
X37500Y239000D02*
D03*
X22500Y248500D02*
D03*
D119*
X502500Y83000D02*
D03*
D120*
X512500D02*
D03*
X502500Y73000D02*
D03*
X512500D02*
D03*
X502500Y63000D02*
D03*
X512500D02*
D03*
X502500Y53000D02*
D03*
X512500D02*
D03*
X502500Y43000D02*
D03*
X512500D02*
D03*
D121*
X22500Y324000D02*
D03*
Y334000D02*
D03*
X32500Y324000D02*
D03*
Y334000D02*
D03*
D122*
X292000Y36500D02*
D03*
X360000D02*
D03*
X405500D02*
D03*
X-39000Y167000D02*
D03*
X393400Y34300D02*
D03*
X370400Y33200D02*
D03*
X87500Y86500D02*
D03*
X83500Y89000D02*
D03*
X348500Y33500D02*
D03*
X325000Y33000D02*
D03*
X302000Y32000D02*
D03*
X280500Y33400D02*
D03*
X258000Y31800D02*
D03*
X237000Y32400D02*
D03*
X87500Y80833D02*
D03*
X83500Y83500D02*
D03*
Y72500D02*
D03*
X87500Y69500D02*
D03*
X83500Y78000D02*
D03*
X87500Y75167D02*
D03*
X383000Y36500D02*
D03*
X85000Y99000D02*
D03*
X86500Y102000D02*
D03*
X371755Y117322D02*
D03*
X372255Y183822D02*
D03*
X371755Y167322D02*
D03*
Y150822D02*
D03*
Y134322D02*
D03*
X372000Y271000D02*
D03*
X371500Y204500D02*
D03*
Y221500D02*
D03*
Y238000D02*
D03*
Y254500D02*
D03*
X178500Y69500D02*
D03*
X187500Y74000D02*
D03*
X108500Y161500D02*
D03*
X98500Y155500D02*
D03*
X529500Y107000D02*
D03*
X72835Y8505D02*
D03*
X62835D02*
D03*
X52835D02*
D03*
X47835Y18505D02*
D03*
X22835Y28505D02*
D03*
Y8505D02*
D03*
X12835Y28505D02*
D03*
Y8505D02*
D03*
X57500Y362500D02*
D03*
X52500D02*
D03*
Y357500D02*
D03*
Y352500D02*
D03*
Y347500D02*
D03*
X57500D02*
D03*
X66000Y264500D02*
D03*
Y259500D02*
D03*
Y254500D02*
D03*
X71000D02*
D03*
X76000D02*
D03*
X81000D02*
D03*
Y259500D02*
D03*
Y264500D02*
D03*
X95500Y265000D02*
D03*
X100500D02*
D03*
X105500D02*
D03*
Y270000D02*
D03*
Y275000D02*
D03*
Y280000D02*
D03*
X100500D02*
D03*
X95500D02*
D03*
X-42000Y263478D02*
D03*
Y255000D02*
D03*
Y249000D02*
D03*
Y242500D02*
D03*
Y233500D02*
D03*
Y224000D02*
D03*
Y214500D02*
D03*
Y205000D02*
D03*
Y182827D02*
D03*
Y173500D02*
D03*
Y164000D02*
D03*
Y154500D02*
D03*
Y145000D02*
D03*
Y135500D02*
D03*
X141564Y66448D02*
D03*
X149046Y67653D02*
D03*
X141500Y75500D02*
D03*
X149046Y73847D02*
D03*
X149000Y93000D02*
D03*
X142000Y94000D02*
D03*
X103000Y112500D02*
D03*
X65578Y81377D02*
D03*
X65000Y63500D02*
D03*
X72000Y71000D02*
D03*
X83000Y66000D02*
D03*
X82500Y95500D02*
D03*
X60000D02*
D03*
X-19000Y128500D02*
D03*
X130000Y35500D02*
D03*
X116500Y39500D02*
D03*
X94829Y42716D02*
D03*
X102000Y42000D02*
D03*
X97000Y15000D02*
D03*
X102500Y20000D02*
D03*
X96250Y308750D02*
D03*
X110335Y343505D02*
D03*
X40000Y35000D02*
D03*
Y27500D02*
D03*
X30500Y17000D02*
D03*
X33500Y20000D02*
D03*
X27500D02*
D03*
X80000Y124500D02*
D03*
X40500Y110000D02*
D03*
X77500Y37500D02*
D03*
X73500Y32500D02*
D03*
X70000Y37500D02*
D03*
X92500Y305000D02*
D03*
Y312500D02*
D03*
X100000Y305000D02*
D03*
Y312500D02*
D03*
X57500Y327500D02*
D03*
X52500D02*
D03*
Y332500D02*
D03*
Y337500D02*
D03*
Y342500D02*
D03*
X57500D02*
D03*
X148244Y62181D02*
D03*
X148248Y79479D02*
D03*
X147869Y88000D02*
D03*
X67000Y75000D02*
D03*
X66500Y69000D02*
D03*
X66420Y98716D02*
D03*
X-37000Y176250D02*
D03*
X-1000Y132500D02*
D03*
X-12000Y128500D02*
D03*
X-30500Y129000D02*
D03*
X123000Y35500D02*
D03*
X96000Y36000D02*
D03*
D123*
X135331Y312106D02*
D03*
X131000D02*
D03*
X135331Y316437D02*
D03*
X131000D02*
D03*
X135331Y320768D02*
D03*
X131000D02*
D03*
D124*
X151500Y300500D02*
D03*
X44000Y366500D02*
D03*
X-39500Y258500D02*
D03*
D125*
X-2294Y166000D02*
D03*
Y171709D02*
D03*
Y160291D02*
D03*
D126*
X524000Y227500D02*
X529500Y222000D01*
X524000Y227500D02*
Y237500D01*
D127*
X-49027Y258433D02*
X-48993Y258467D01*
X-39533D01*
X-39500Y258500D01*
M02*
