G04*
G04 #@! TF.GenerationSoftware,Altium Limited,Altium Designer,21.2.1 (34)*
G04*
G04 Layer_Physical_Order=5*
G04 Layer_Color=16440176*
%FSLAX25Y25*%
%MOIN*%
G70*
G04*
G04 #@! TF.SameCoordinates,D5F05BBA-8F67-4778-AA46-9882F16BB5AB*
G04*
G04*
G04 #@! TF.FilePolarity,Positive*
G04*
G01*
G75*
%ADD21C,0.01000*%
%ADD100C,0.01772*%
%ADD102C,0.00900*%
%ADD106C,0.01500*%
%ADD108C,0.01181*%
%ADD111C,0.05512*%
%ADD114R,0.03937X0.03937*%
%ADD115C,0.10000*%
%ADD117C,0.05906*%
%ADD123C,0.01968*%
G36*
X162500Y305000D02*
X117500D01*
Y380000D01*
X162500D01*
Y305000D01*
D02*
G37*
D21*
X467000Y93000D02*
X467733Y93733D01*
X470474Y103823D02*
X471060Y104409D01*
X467000Y103000D02*
X467823Y103823D01*
X468000Y127115D02*
Y165517D01*
X467733Y93733D02*
Y97266D01*
X468000Y127115D02*
X472760Y122356D01*
Y102293D02*
Y122356D01*
X466300Y126411D02*
X471060Y121651D01*
Y104409D02*
Y121651D01*
X467733Y97266D02*
X472760Y102293D01*
X467823Y103823D02*
X470474D01*
X471130Y168459D02*
X471277Y168607D01*
X470328Y168459D02*
X471130D01*
X470190Y168321D02*
X470328Y168459D01*
X468400Y168321D02*
X470190D01*
X471130Y166483D02*
X471277Y166335D01*
X468000Y165517D02*
X469104Y166621D01*
X466300Y126411D02*
Y166221D01*
X470190Y166621D02*
X470328Y166483D01*
X471130D01*
X469104Y166621D02*
X470190D01*
X466300Y166221D02*
X468400Y168321D01*
X390051Y245325D02*
X390852D01*
X321531Y331988D02*
X322202Y331318D01*
X321728Y332185D02*
Y332728D01*
X321531Y331988D02*
X321728Y332185D01*
X323902Y332569D02*
X324117Y332784D01*
X323902Y321798D02*
Y332569D01*
Y321798D02*
X355000Y290700D01*
X322202Y321094D02*
Y331318D01*
Y321094D02*
X354296Y289000D01*
X373596D01*
X355000Y290700D02*
X374300D01*
X384514Y280486D01*
X373596Y289000D02*
X382814Y279781D01*
X390051Y247301D02*
X390852D01*
X391000Y247449D01*
X382814Y250771D02*
Y279781D01*
X388123Y245463D02*
X389912D01*
X390051Y245325D01*
X388827Y247163D02*
X389912D01*
X390051Y247301D01*
X382814Y250771D02*
X388123Y245463D01*
X384514Y251475D02*
X388827Y247163D01*
X384514Y251475D02*
Y280486D01*
X390852Y245325D02*
X391000Y245177D01*
X270451Y110906D02*
X273545Y114000D01*
X261088Y110906D02*
X270451D01*
X260949Y110768D02*
X261088Y110906D01*
X260148Y110768D02*
X260949D01*
X260000Y110620D02*
X260148Y110768D01*
X260949Y112744D02*
X261088Y112606D01*
X269747D02*
X272841Y115700D01*
X261088Y112606D02*
X269747D01*
X260148Y112744D02*
X260949D01*
X260000Y112892D02*
X260148Y112744D01*
X272841Y115700D02*
X357796D01*
X273545Y114000D02*
X358500D01*
X387185Y142685D01*
Y153598D01*
X392311Y158724D01*
X392981D02*
X393128Y158872D01*
X357796Y115700D02*
X385485Y143389D01*
Y154302D01*
X391120Y159937D01*
X391506Y160546D02*
Y160755D01*
X391120Y159937D02*
Y160160D01*
X391506Y160546D01*
X392311Y158724D02*
X392981D01*
X331457Y84145D02*
X389988Y142676D01*
X322088Y84145D02*
X331457D01*
X389988Y142676D02*
Y143276D01*
X332161Y82445D02*
X392161Y142445D01*
X322088Y82445D02*
X332161D01*
X320000Y164136D02*
X320148Y164284D01*
X320817D02*
X332706Y176172D01*
X320148Y164284D02*
X320817D01*
X320949Y162012D02*
X333410Y174472D01*
X332706Y176172D02*
X392117D01*
X333410Y174472D02*
X392117D01*
X320148Y162012D02*
X320949D01*
X155000Y87234D02*
Y221987D01*
X153000Y118000D02*
Y218000D01*
Y87901D02*
Y118000D01*
X146000D02*
X153000D01*
X128000Y135000D02*
X134000D01*
X134500Y104500D02*
Y235000D01*
X373896Y307000D02*
X375396Y308500D01*
X386000D01*
X131500Y101500D02*
X134500Y104500D01*
X131500Y78500D02*
Y101500D01*
X210500Y164000D02*
X215500Y159000D01*
Y146000D02*
X257000Y104500D01*
X215500Y146000D02*
Y159000D01*
X257000Y104500D02*
X266000D01*
X342500Y107500D02*
X345000Y105000D01*
X220000Y147000D02*
X259500Y107500D01*
X342500D01*
X220000Y147000D02*
Y153000D01*
X198500Y170500D02*
X201500Y167500D01*
Y137000D02*
Y167500D01*
Y137000D02*
X211834Y126666D01*
X392255Y174334D02*
X393057D01*
X393204Y174186D01*
X392117Y176172D02*
X392255Y176310D01*
X393057D02*
X393204Y176458D01*
X392255Y176310D02*
X393057D01*
X320000Y161864D02*
X320148Y162012D01*
X392117Y174472D02*
X392255Y174334D01*
X321000Y84431D02*
X321148Y84283D01*
X321949D02*
X322088Y84145D01*
X389988Y143276D02*
X390555Y143843D01*
X321148Y84283D02*
X321949D01*
X321000Y82159D02*
X321148Y82307D01*
X390555Y143843D02*
Y144052D01*
X321148Y82307D02*
X321949D01*
X322088Y82445D01*
X403000Y87500D02*
Y120762D01*
X397388Y126374D02*
X403000Y120762D01*
X395277Y126596D02*
X395499Y126374D01*
X394510Y124289D02*
X394658Y124437D01*
X394500Y126744D02*
X394648Y126596D01*
X401300Y86796D02*
Y120058D01*
X394658Y124437D02*
X395267D01*
X395504Y124674D02*
X396684D01*
X395267Y124437D02*
X395504Y124674D01*
X395499Y126374D02*
X397388D01*
X394648Y126596D02*
X395277D01*
X396684Y124674D02*
X401300Y120058D01*
Y86796D02*
X407151Y80945D01*
X409912Y82645D02*
X410051Y82783D01*
X407151Y80945D02*
X409912D01*
X410852Y82783D02*
X411000Y82931D01*
X410051Y82783D02*
X410852D01*
X407855Y82645D02*
X409912D01*
X403000Y87500D02*
X407855Y82645D01*
X410051Y80807D02*
X410852D01*
X409912Y80945D02*
X410051Y80807D01*
X410852D02*
X411000Y80659D01*
X157000Y86962D02*
Y222108D01*
X151395Y81357D02*
X157000Y86962D01*
X152213Y226896D02*
X157000Y222108D01*
X143500Y227500D02*
X153000Y218000D01*
X150713Y226274D02*
X155000Y221987D01*
X151395Y83629D02*
X155000Y87234D01*
X151000Y83629D02*
X151395D01*
X151000Y81357D02*
X151395D01*
X151000Y85901D02*
X153000Y87901D01*
X141500Y227500D02*
X143500D01*
X261205Y170205D02*
X261500Y170500D01*
X286396Y158055D02*
X304500D01*
X258650Y170205D02*
X261205D01*
X257307Y168862D02*
X258650Y170205D01*
X257307Y163000D02*
Y168862D01*
X285545Y157205D02*
X286396Y158055D01*
X257307Y163000D02*
X263102Y157205D01*
X285545D01*
X201461Y118961D02*
X201756Y119256D01*
X226652Y106811D02*
X244756D01*
X198906Y118961D02*
X201461D01*
X197563Y117618D02*
X198906Y118961D01*
X197563Y111756D02*
Y117618D01*
X225801Y105961D02*
X226652Y106811D01*
X197563Y111756D02*
X203358Y105961D01*
X225801D01*
X262555Y90500D02*
X262850Y90795D01*
X287746Y78350D02*
X305850D01*
X260000Y90500D02*
X262555D01*
X258658Y89157D02*
X260000Y90500D01*
X258658Y83295D02*
Y89157D01*
X286896Y77500D02*
X287746Y78350D01*
X258658Y83295D02*
X264453Y77500D01*
X286896D01*
X352555Y89000D02*
X352850Y89295D01*
X350000Y89000D02*
X352555D01*
X348657Y81795D02*
Y87657D01*
X350000Y89000D01*
X348657Y81795D02*
X354453Y76000D01*
X376896D01*
X377746Y76850D02*
X395850D01*
X376896Y76000D02*
X377746Y76850D01*
X350000Y311000D02*
Y319000D01*
X353105Y320082D02*
X353964Y320941D01*
X351082Y320082D02*
X353105D01*
X350000Y319000D02*
X351082Y320082D01*
X354000Y307000D02*
X373896D01*
X350000Y311000D02*
X354000Y307000D01*
X185890Y280924D02*
X187358Y282392D01*
X185132Y280924D02*
X185890D01*
X182000Y277792D02*
X185132Y280924D01*
X182000Y272000D02*
Y277792D01*
X186000Y268000D02*
X221000D01*
X182000Y272000D02*
X186000Y268000D01*
X266882Y344327D02*
X268350Y345795D01*
X266124Y344327D02*
X266882D01*
X263000Y341202D02*
X266124Y344327D01*
X263000Y337000D02*
Y341202D01*
X268000Y332000D02*
X302000D01*
X263000Y337000D02*
X268000Y332000D01*
X241887Y266418D02*
X291005Y217300D01*
X367356D01*
X243494Y268024D02*
X292518Y219000D01*
X368061D01*
X392011Y213488D02*
X392159Y213636D01*
X373007Y211650D02*
X391071D01*
X391210Y213488D02*
X392011D01*
X391210Y211512D02*
X392011D01*
X392159Y211364D01*
X373711Y213350D02*
X391071D01*
X368061Y219000D02*
X373711Y213350D01*
X367356Y217300D02*
X373007Y211650D01*
X391071Y213350D02*
X391210Y213488D01*
X391071Y211650D02*
X391210Y211512D01*
X242714Y293286D02*
X305475Y230525D01*
X242714Y293286D02*
Y329912D01*
X240876Y330051D02*
X241014Y329912D01*
X240876Y330051D02*
Y330852D01*
X242714Y329912D02*
X242852Y330051D01*
Y330852D02*
X243000Y331000D01*
X241014Y292582D02*
Y329912D01*
X240728Y331000D02*
X240876Y330852D01*
X242852Y330051D02*
Y330852D01*
X390497Y230663D02*
X390645Y230811D01*
X304771Y228825D02*
X389557D01*
X241014Y292582D02*
X304771Y228825D01*
X390497Y228687D02*
X390645Y228539D01*
X389557Y228825D02*
X389695Y228687D01*
X389557Y230525D02*
X389695Y230663D01*
Y228687D02*
X390497D01*
X389695Y230663D02*
X390497D01*
X305475Y230525D02*
X389557D01*
X150713Y226274D02*
Y226562D01*
X147275Y230000D02*
X150713Y226562D01*
X146896Y232500D02*
X152213Y227183D01*
Y226896D02*
Y227183D01*
X141500Y232500D02*
X146896D01*
X143000Y230000D02*
X147275D01*
D100*
X519132Y168131D02*
D03*
X471277Y168607D02*
D03*
Y166335D02*
D03*
X521000Y236500D02*
D03*
X321728Y332728D02*
D03*
X324117Y332784D02*
D03*
X260000Y110620D02*
D03*
Y112892D02*
D03*
X386000Y308500D02*
D03*
X131500Y78500D02*
D03*
X210500Y164000D02*
D03*
X266000Y104500D02*
D03*
X345000Y105000D02*
D03*
X220000Y153000D02*
D03*
X198500Y170500D02*
D03*
X211834Y126666D02*
D03*
X320000Y164136D02*
D03*
Y161864D02*
D03*
X393204Y176458D02*
D03*
Y174186D02*
D03*
X393128Y158872D02*
D03*
X391506Y160755D02*
D03*
X321000Y82159D02*
D03*
Y84431D02*
D03*
X390555Y144052D02*
D03*
X392161Y142445D02*
D03*
X394500Y126744D02*
D03*
X394510Y124289D02*
D03*
X411000Y82931D02*
D03*
Y80659D02*
D03*
X151000Y85901D02*
D03*
Y81357D02*
D03*
Y83629D02*
D03*
X304500Y158055D02*
D03*
X244756Y106811D02*
D03*
X305850Y78350D02*
D03*
X395850Y76850D02*
D03*
X221000Y268000D02*
D03*
X302000Y332000D02*
D03*
X241887Y266418D02*
D03*
X243494Y268024D02*
D03*
X392159Y213636D02*
D03*
Y211364D02*
D03*
X240728Y331000D02*
D03*
X243000D02*
D03*
X390645Y230811D02*
D03*
Y228539D02*
D03*
X391000Y245177D02*
D03*
Y247449D02*
D03*
X98000Y249500D02*
D03*
X141500Y232500D02*
D03*
X143000Y230000D02*
D03*
X141500Y227500D02*
D03*
D102*
X527000Y234000D02*
X531500D01*
D106*
X519132Y168131D02*
X521369D01*
X524636Y164864D02*
X529500Y160000D01*
X523385Y166136D02*
X524636Y164885D01*
X523364Y166136D02*
X523385D01*
X521369Y168131D02*
X523364Y166136D01*
X524636Y164864D02*
Y164885D01*
X531500Y234000D02*
X536500D01*
X521000Y236500D02*
X523500Y234000D01*
X527000D01*
D108*
X128000Y241500D02*
X134500Y235000D01*
X98000Y249500D02*
X98113Y249387D01*
Y247875D02*
Y249387D01*
Y247875D02*
X104488Y241500D01*
X128000D01*
D111*
X529500Y160000D02*
D03*
X536500Y234000D02*
D03*
D114*
X352850Y89295D02*
D03*
X262850Y90795D02*
D03*
X201756Y119256D02*
D03*
X261500Y170500D02*
D03*
X187358Y282392D02*
D03*
X268350Y345795D02*
D03*
X353964Y320941D02*
D03*
D115*
X128000Y135000D02*
D03*
X146000Y118000D02*
D03*
D117*
X467000Y93000D02*
D03*
Y103000D02*
D03*
D123*
X135331Y312106D02*
D03*
X131000D02*
D03*
X135331Y316437D02*
D03*
X131000D02*
D03*
X135331Y320768D02*
D03*
X131000D02*
D03*
M02*
