G04*
G04 #@! TF.GenerationSoftware,Altium Limited,Altium Designer,20.1.14 (287)*
G04*
G04 Layer_Color=16711935*
%FSLAX25Y25*%
%MOIN*%
G70*
G04*
G04 #@! TF.SameCoordinates,E9049712-5386-4971-9C9C-F13BCB6E38AD*
G04*
G04*
G04 #@! TF.FilePolarity,Negative*
G04*
G01*
G75*
%ADD73R,0.11417X0.02559*%
%ADD93C,0.06600*%
%ADD94R,0.04737X0.04737*%
%ADD95C,0.08674*%
%ADD96R,0.08674X0.08674*%
%ADD97C,0.06706*%
%ADD98C,0.05918*%
%ADD99R,0.05918X0.05918*%
%ADD100R,0.05918X0.05918*%
%ADD101R,0.06312X0.06312*%
%ADD102C,0.06312*%
%ADD103C,0.13595*%
%ADD104C,0.10249*%
%ADD105C,0.10800*%
%ADD106C,0.03162*%
D73*
X-49027Y264732D02*
D03*
Y261583D02*
D03*
Y258433D02*
D03*
Y255283D02*
D03*
Y252134D02*
D03*
Y248984D02*
D03*
Y245835D02*
D03*
Y242685D02*
D03*
Y239535D02*
D03*
Y236386D02*
D03*
Y233236D02*
D03*
Y230087D02*
D03*
Y226937D02*
D03*
Y223787D02*
D03*
Y220638D02*
D03*
Y217488D02*
D03*
Y214338D02*
D03*
Y211189D02*
D03*
Y208039D02*
D03*
Y204890D02*
D03*
Y201740D02*
D03*
Y198591D02*
D03*
Y182843D02*
D03*
Y179693D02*
D03*
Y176543D02*
D03*
Y173394D02*
D03*
Y170244D02*
D03*
Y167094D02*
D03*
Y163945D02*
D03*
Y160795D02*
D03*
Y157646D02*
D03*
Y154496D02*
D03*
Y151346D02*
D03*
Y148197D02*
D03*
Y145047D02*
D03*
Y141898D02*
D03*
Y138748D02*
D03*
Y135598D02*
D03*
Y132449D02*
D03*
Y129299D02*
D03*
D93*
X32500Y334000D02*
D03*
Y324000D02*
D03*
X22500Y334000D02*
D03*
Y324000D02*
D03*
D94*
X262850Y85795D02*
D03*
X267850D02*
D03*
X262850Y90795D02*
D03*
X267850D02*
D03*
X262850Y95795D02*
D03*
X267850D02*
D03*
X201756Y114256D02*
D03*
X206756D02*
D03*
X201756Y119256D02*
D03*
X206756D02*
D03*
X201756Y124256D02*
D03*
X206756D02*
D03*
X261500Y165500D02*
D03*
X266500D02*
D03*
X261500Y170500D02*
D03*
X266500D02*
D03*
X261500Y175500D02*
D03*
X266500D02*
D03*
X352850Y84295D02*
D03*
X357850D02*
D03*
X352850Y89295D02*
D03*
X357850D02*
D03*
X352850Y94295D02*
D03*
X357850D02*
D03*
X353964Y315941D02*
D03*
X358964D02*
D03*
X353964Y320941D02*
D03*
X358964D02*
D03*
X353964Y325941D02*
D03*
X358964D02*
D03*
X268350Y340795D02*
D03*
X273350D02*
D03*
X268350Y345795D02*
D03*
X273350D02*
D03*
X268350Y350795D02*
D03*
X273350D02*
D03*
X187358Y340177D02*
D03*
X192358D02*
D03*
X187358Y345177D02*
D03*
X192358D02*
D03*
X187358Y350177D02*
D03*
X192358D02*
D03*
X187358Y277392D02*
D03*
X192358D02*
D03*
X187358Y282392D02*
D03*
X192358D02*
D03*
X187358Y287392D02*
D03*
X192358D02*
D03*
D95*
X527500Y43000D02*
D03*
X517500D02*
D03*
X527500Y53000D02*
D03*
X517500D02*
D03*
X527500Y63000D02*
D03*
X517500D02*
D03*
X527500Y73000D02*
D03*
X517500D02*
D03*
X527500Y83000D02*
D03*
D96*
X517500D02*
D03*
D97*
X109500Y217000D02*
D03*
D98*
X34500Y294000D02*
D03*
X86500Y378390D02*
D03*
D99*
X20720Y294000D02*
D03*
D100*
X86500Y364610D02*
D03*
D101*
X536500Y180000D02*
D03*
Y242000D02*
D03*
D102*
X529500Y176000D02*
D03*
X536500Y172000D02*
D03*
X529500Y168000D02*
D03*
X536500Y164000D02*
D03*
X529500Y160000D02*
D03*
X536500Y156000D02*
D03*
X529500Y152000D02*
D03*
Y214000D02*
D03*
X536500Y218000D02*
D03*
X529500Y222000D02*
D03*
X536500Y226000D02*
D03*
X529500Y230000D02*
D03*
X536500Y234000D02*
D03*
X529500Y238000D02*
D03*
D103*
X546500Y141000D02*
D03*
Y253000D02*
D03*
D104*
X533000Y134000D02*
D03*
Y260000D02*
D03*
D105*
X59000Y378000D02*
D03*
X18000Y149000D02*
D03*
X127500Y284000D02*
D03*
X59500Y300000D02*
D03*
X36000Y64500D02*
D03*
X17000Y166000D02*
D03*
X158500Y229500D02*
D03*
X149000Y117000D02*
D03*
X148500Y239000D02*
D03*
X130500Y135500D02*
D03*
X65500Y140000D02*
D03*
D106*
X393400Y34300D02*
D03*
X370400Y33200D02*
D03*
X348500Y33500D02*
D03*
X325000Y33000D02*
D03*
X302000Y32000D02*
D03*
X280500Y33400D02*
D03*
X258000Y31800D02*
D03*
X237000Y32400D02*
D03*
X405500Y36500D02*
D03*
X383000D02*
D03*
X360000D02*
D03*
X337500D02*
D03*
X314500D02*
D03*
X292000D02*
D03*
X269500D02*
D03*
X248500D02*
D03*
M02*
