G04*
G04 #@! TF.GenerationSoftware,Altium Limited,Altium Designer,20.1.11 (218)*
G04*
G04 Layer_Color=8421504*
%FSLAX25Y25*%
%MOIN*%
G70*
G04*
G04 #@! TF.SameCoordinates,6CC8ACCB-2A8E-4504-AA76-58F5339EE6F1*
G04*
G04*
G04 #@! TF.FilePolarity,Positive*
G04*
G01*
G75*
%ADD24R,0.02362X0.04331*%
%ADD25R,0.01575X0.03543*%
%ADD26R,0.04724X0.03150*%
%ADD27O,0.02362X0.08661*%
%ADD28R,0.08465X0.03740*%
%ADD29R,0.08465X0.12795*%
%ADD30R,0.07087X0.07874*%
%ADD31O,0.01181X0.07087*%
%ADD32O,0.07087X0.01181*%
%ADD33O,0.01181X0.08268*%
%ADD34R,0.39370X0.39370*%
%ADD35O,0.08268X0.01181*%
%ADD36R,0.08268X0.04724*%
%ADD37R,0.05315X0.06102*%
%ADD38R,0.06102X0.05315*%
%ADD39R,0.11811X0.06299*%
%ADD40R,0.11417X0.19685*%
%ADD41R,0.11024X0.02165*%
%ADD42R,0.06102X0.02362*%
%ADD43R,0.10236X0.12205*%
%ADD44O,0.06299X0.01181*%
%ADD45R,0.02756X0.01968*%
%ADD46R,0.02756X0.02520*%
%ADD47R,0.04724X0.04331*%
%ADD48R,0.04724X0.08268*%
%ADD49R,0.04724X0.02756*%
%ADD50R,0.02756X0.04724*%
%ADD51R,0.03150X0.04724*%
%ADD52R,0.10000X0.10000*%
%ADD53R,0.10000X0.10000*%
D24*
X205240Y357882D02*
D03*
X197760D02*
D03*
Y368118D02*
D03*
X201500D02*
D03*
X205240D02*
D03*
X202240Y93618D02*
D03*
X198500D02*
D03*
X194760D02*
D03*
Y83382D02*
D03*
X202240D02*
D03*
D25*
X325441Y40709D02*
D03*
X328000D02*
D03*
X330559D02*
D03*
Y47008D02*
D03*
X328000D02*
D03*
X325441D02*
D03*
X302441D02*
D03*
X305000D02*
D03*
X307559D02*
D03*
Y40709D02*
D03*
X305000D02*
D03*
X302441D02*
D03*
X279941D02*
D03*
X282500D02*
D03*
X285059D02*
D03*
Y47008D02*
D03*
X282500D02*
D03*
X279941D02*
D03*
X236441D02*
D03*
X239000D02*
D03*
X241559D02*
D03*
Y40709D02*
D03*
X239000D02*
D03*
X236441D02*
D03*
X257941D02*
D03*
X260500D02*
D03*
X263059D02*
D03*
Y47008D02*
D03*
X260500D02*
D03*
X257941D02*
D03*
X347941D02*
D03*
X350500D02*
D03*
X353059D02*
D03*
Y40709D02*
D03*
X350500D02*
D03*
X347941D02*
D03*
X370941D02*
D03*
X373500D02*
D03*
X376059D02*
D03*
Y47008D02*
D03*
X373500D02*
D03*
X370941D02*
D03*
X393441Y47508D02*
D03*
X396000D02*
D03*
X398559D02*
D03*
Y41209D02*
D03*
X396000D02*
D03*
X393441D02*
D03*
D26*
X269000Y47000D02*
D03*
Y41488D02*
D03*
X404500Y47012D02*
D03*
Y41500D02*
D03*
X382000Y47012D02*
D03*
Y41500D02*
D03*
X359000Y46512D02*
D03*
Y41000D02*
D03*
X336500Y46500D02*
D03*
Y40988D02*
D03*
X313500Y46512D02*
D03*
Y41000D02*
D03*
X291000Y46500D02*
D03*
Y40988D02*
D03*
X247500Y47000D02*
D03*
Y41488D02*
D03*
X107625Y116223D02*
D03*
Y121735D02*
D03*
X114625Y116212D02*
D03*
Y121723D02*
D03*
X72625Y28735D02*
D03*
Y23223D02*
D03*
X114633Y318475D02*
D03*
Y323987D02*
D03*
X339611Y82736D02*
D03*
Y88248D02*
D03*
X343500Y252988D02*
D03*
Y258500D02*
D03*
X346611Y77236D02*
D03*
Y82748D02*
D03*
X350500Y247488D02*
D03*
Y253000D02*
D03*
X339611Y138248D02*
D03*
Y143759D02*
D03*
X343500Y308500D02*
D03*
Y314012D02*
D03*
X346611Y132747D02*
D03*
Y138259D02*
D03*
X350500Y303000D02*
D03*
Y308512D02*
D03*
X339611Y127236D02*
D03*
Y132747D02*
D03*
X343500Y297488D02*
D03*
Y303000D02*
D03*
X346611Y121736D02*
D03*
Y127248D02*
D03*
X350500Y291988D02*
D03*
Y297500D02*
D03*
X343500Y286488D02*
D03*
Y292000D02*
D03*
X346611Y110736D02*
D03*
Y116247D02*
D03*
X350500Y280988D02*
D03*
Y286500D02*
D03*
X339611Y105236D02*
D03*
Y110748D02*
D03*
X343500Y275488D02*
D03*
Y281000D02*
D03*
X346611Y99748D02*
D03*
Y105259D02*
D03*
X350500Y270000D02*
D03*
Y275512D02*
D03*
X339611Y94236D02*
D03*
Y99748D02*
D03*
X343500Y264488D02*
D03*
Y270000D02*
D03*
X346611Y88248D02*
D03*
Y93759D02*
D03*
X350500Y258500D02*
D03*
Y264012D02*
D03*
X129800Y252319D02*
D03*
Y257831D02*
D03*
X115550Y252319D02*
D03*
Y257831D02*
D03*
X101300Y252319D02*
D03*
Y257831D02*
D03*
Y181319D02*
D03*
Y175807D02*
D03*
X115550Y181319D02*
D03*
Y175807D02*
D03*
X129800Y181319D02*
D03*
Y175807D02*
D03*
X144800Y199319D02*
D03*
Y193807D02*
D03*
X170800Y204819D02*
D03*
Y199307D02*
D03*
Y212319D02*
D03*
Y217831D02*
D03*
X339611Y116236D02*
D03*
Y121748D02*
D03*
X210500Y357512D02*
D03*
Y352000D02*
D03*
X207500Y83512D02*
D03*
Y78000D02*
D03*
X143500Y144500D02*
D03*
Y150012D02*
D03*
X115000Y309724D02*
D03*
Y304213D02*
D03*
D27*
X214800Y200370D02*
D03*
X219800D02*
D03*
X224800D02*
D03*
X229800D02*
D03*
X214800Y219268D02*
D03*
X219800D02*
D03*
X224800D02*
D03*
X229800D02*
D03*
D28*
X54417Y19945D02*
D03*
Y29000D02*
D03*
Y38055D02*
D03*
D29*
X31583Y29000D02*
D03*
D30*
X102625Y31180D02*
D03*
Y14723D02*
D03*
X82625Y31259D02*
D03*
Y14723D02*
D03*
D31*
X83503Y47999D02*
D03*
X85471D02*
D03*
X87440D02*
D03*
X89408D02*
D03*
X91377D02*
D03*
X93345D02*
D03*
X95314D02*
D03*
X97282D02*
D03*
X99251D02*
D03*
X101219D02*
D03*
X103188D02*
D03*
X105156D02*
D03*
X107125D02*
D03*
X109093D02*
D03*
X111062D02*
D03*
X113030D02*
D03*
X114999D02*
D03*
X116967D02*
D03*
X118936D02*
D03*
X120904D02*
D03*
X122873D02*
D03*
X124841D02*
D03*
X126810D02*
D03*
X128778D02*
D03*
X130747D02*
D03*
Y107448D02*
D03*
X128778D02*
D03*
X126810D02*
D03*
X124841D02*
D03*
X122873D02*
D03*
X120904D02*
D03*
X118936D02*
D03*
X116967D02*
D03*
X114999D02*
D03*
X113030D02*
D03*
X111062D02*
D03*
X109093D02*
D03*
X107125D02*
D03*
X105156D02*
D03*
X103188D02*
D03*
X101219D02*
D03*
X99251D02*
D03*
X97282D02*
D03*
X95314D02*
D03*
X93345D02*
D03*
X91377D02*
D03*
X89408D02*
D03*
X87440D02*
D03*
X85471D02*
D03*
X83503D02*
D03*
D32*
X136849Y54101D02*
D03*
Y56070D02*
D03*
Y58038D02*
D03*
Y60007D02*
D03*
Y61975D02*
D03*
Y63944D02*
D03*
Y65912D02*
D03*
Y67881D02*
D03*
Y69849D02*
D03*
Y71818D02*
D03*
Y73786D02*
D03*
Y75755D02*
D03*
Y77723D02*
D03*
Y79692D02*
D03*
Y81660D02*
D03*
Y83629D02*
D03*
Y85597D02*
D03*
Y87566D02*
D03*
Y89534D02*
D03*
Y91503D02*
D03*
Y93471D02*
D03*
Y95440D02*
D03*
Y97408D02*
D03*
Y99377D02*
D03*
Y101346D02*
D03*
X77400D02*
D03*
Y99377D02*
D03*
Y97408D02*
D03*
Y95440D02*
D03*
Y93471D02*
D03*
Y91503D02*
D03*
Y89534D02*
D03*
Y87566D02*
D03*
Y85597D02*
D03*
Y83629D02*
D03*
Y81660D02*
D03*
Y79692D02*
D03*
Y77723D02*
D03*
Y75755D02*
D03*
Y73786D02*
D03*
Y71818D02*
D03*
Y69849D02*
D03*
Y67881D02*
D03*
Y65912D02*
D03*
Y63944D02*
D03*
Y61975D02*
D03*
Y60007D02*
D03*
Y58038D02*
D03*
Y56070D02*
D03*
Y54101D02*
D03*
D33*
X104579Y242984D02*
D03*
X106547D02*
D03*
X110484D02*
D03*
X112453D02*
D03*
X118358D02*
D03*
X120327D02*
D03*
X124264D02*
D03*
X126232D02*
D03*
X128201D02*
D03*
X122295D02*
D03*
X116390D02*
D03*
X114421D02*
D03*
X108516D02*
D03*
X102610D02*
D03*
X100642D02*
D03*
X98673D02*
D03*
X96705D02*
D03*
X94736D02*
D03*
X92768D02*
D03*
X90799D02*
D03*
Y191016D02*
D03*
X92768D02*
D03*
X94736D02*
D03*
X96705D02*
D03*
X98673D02*
D03*
X100642D02*
D03*
X102610D02*
D03*
X108516D02*
D03*
X114421D02*
D03*
X116390D02*
D03*
X122295D02*
D03*
X128201D02*
D03*
X104579D02*
D03*
X106547D02*
D03*
X110484D02*
D03*
X112453D02*
D03*
X118358D02*
D03*
X120327D02*
D03*
X124264D02*
D03*
X126232D02*
D03*
D34*
X109500Y217000D02*
D03*
D35*
X83516Y235701D02*
D03*
Y233732D02*
D03*
Y231764D02*
D03*
Y229795D02*
D03*
Y227827D02*
D03*
Y225858D02*
D03*
Y223890D02*
D03*
Y221921D02*
D03*
Y219953D02*
D03*
Y217984D02*
D03*
Y216016D02*
D03*
Y214047D02*
D03*
Y212079D02*
D03*
Y210110D02*
D03*
Y208142D02*
D03*
Y206173D02*
D03*
Y204205D02*
D03*
Y202236D02*
D03*
Y200268D02*
D03*
Y198299D02*
D03*
X135484D02*
D03*
Y200268D02*
D03*
Y202236D02*
D03*
Y204205D02*
D03*
Y206173D02*
D03*
Y208142D02*
D03*
Y210110D02*
D03*
Y212079D02*
D03*
Y214047D02*
D03*
Y216016D02*
D03*
Y217984D02*
D03*
Y219953D02*
D03*
Y221921D02*
D03*
Y223890D02*
D03*
Y225858D02*
D03*
Y227827D02*
D03*
Y229795D02*
D03*
Y231764D02*
D03*
Y233732D02*
D03*
Y235701D02*
D03*
D36*
X535500Y106689D02*
D03*
Y118500D02*
D03*
X443001Y102988D02*
D03*
Y114799D02*
D03*
Y139114D02*
D03*
Y150925D02*
D03*
X446889Y309367D02*
D03*
Y321178D02*
D03*
X443001Y121051D02*
D03*
Y132862D02*
D03*
X446889Y291304D02*
D03*
Y303115D02*
D03*
Y273241D02*
D03*
Y285052D02*
D03*
X443001Y84925D02*
D03*
Y96736D02*
D03*
X446889Y255178D02*
D03*
Y266989D02*
D03*
X106000Y312500D02*
D03*
Y324311D02*
D03*
X95449Y340059D02*
D03*
Y328248D02*
D03*
X85212Y340059D02*
D03*
Y328248D02*
D03*
X461000Y255178D02*
D03*
Y266989D02*
D03*
X457500Y84925D02*
D03*
Y96736D02*
D03*
X461000Y273241D02*
D03*
Y285052D02*
D03*
X457500Y102988D02*
D03*
Y114799D02*
D03*
X461000Y291304D02*
D03*
Y303115D02*
D03*
X457500Y121051D02*
D03*
Y132862D02*
D03*
X461000Y309367D02*
D03*
Y321178D02*
D03*
X457500Y139114D02*
D03*
Y150925D02*
D03*
X523500Y118500D02*
D03*
Y106689D02*
D03*
D37*
X160724Y312500D02*
D03*
X152063D02*
D03*
X41609Y10197D02*
D03*
X32947D02*
D03*
D38*
X179300Y204981D02*
D03*
Y196319D02*
D03*
X179300Y220981D02*
D03*
Y212319D02*
D03*
X152457Y328642D02*
D03*
Y319980D02*
D03*
X64916Y23183D02*
D03*
Y31844D02*
D03*
X104819Y340059D02*
D03*
Y331398D02*
D03*
D39*
X47000Y259500D02*
D03*
Y250000D02*
D03*
Y185500D02*
D03*
Y176000D02*
D03*
X-9500Y260000D02*
D03*
Y250500D02*
D03*
X19500Y246000D02*
D03*
X19498Y236326D02*
D03*
X-9500Y239000D02*
D03*
Y229500D02*
D03*
X47000Y232000D02*
D03*
Y222500D02*
D03*
X20000Y220000D02*
D03*
Y210500D02*
D03*
X-9500Y216000D02*
D03*
X-9502Y206610D02*
D03*
X47000Y208500D02*
D03*
Y199000D02*
D03*
X20500Y194500D02*
D03*
Y185000D02*
D03*
D40*
X155016Y357382D02*
D03*
X116039D02*
D03*
D41*
X-49027Y264732D02*
D03*
Y261583D02*
D03*
Y258433D02*
D03*
Y255283D02*
D03*
Y252134D02*
D03*
Y248984D02*
D03*
Y245835D02*
D03*
Y242685D02*
D03*
Y239535D02*
D03*
Y236386D02*
D03*
Y233236D02*
D03*
Y230087D02*
D03*
Y226937D02*
D03*
Y223787D02*
D03*
Y220638D02*
D03*
Y217488D02*
D03*
Y214338D02*
D03*
Y211189D02*
D03*
Y208039D02*
D03*
Y204890D02*
D03*
Y201740D02*
D03*
Y198591D02*
D03*
Y182843D02*
D03*
Y179693D02*
D03*
Y176543D02*
D03*
Y173394D02*
D03*
Y170244D02*
D03*
Y167094D02*
D03*
Y163945D02*
D03*
Y160795D02*
D03*
Y157646D02*
D03*
Y154496D02*
D03*
Y151346D02*
D03*
Y148197D02*
D03*
Y145047D02*
D03*
Y141898D02*
D03*
Y138748D02*
D03*
Y135598D02*
D03*
Y132449D02*
D03*
Y129299D02*
D03*
D42*
X122535Y323937D02*
D03*
Y318937D02*
D03*
Y313937D02*
D03*
Y308937D02*
D03*
X143795Y323937D02*
D03*
Y318937D02*
D03*
Y313937D02*
D03*
Y308937D02*
D03*
D43*
X133165Y316437D02*
D03*
D44*
X382430Y137472D02*
D03*
Y135503D02*
D03*
Y133535D02*
D03*
Y131566D02*
D03*
Y129598D02*
D03*
Y127629D02*
D03*
Y125661D02*
D03*
Y123692D02*
D03*
Y121724D02*
D03*
Y119755D02*
D03*
Y117787D02*
D03*
Y115818D02*
D03*
Y113850D02*
D03*
Y111881D02*
D03*
Y109913D02*
D03*
Y107944D02*
D03*
Y105976D02*
D03*
Y104007D02*
D03*
Y102039D02*
D03*
X404477Y137472D02*
D03*
Y135503D02*
D03*
Y133535D02*
D03*
Y131566D02*
D03*
Y129598D02*
D03*
Y127629D02*
D03*
Y125661D02*
D03*
Y123692D02*
D03*
Y121724D02*
D03*
Y119755D02*
D03*
Y117787D02*
D03*
Y115818D02*
D03*
Y113850D02*
D03*
Y111881D02*
D03*
Y109913D02*
D03*
Y107944D02*
D03*
Y105976D02*
D03*
Y104007D02*
D03*
Y102039D02*
D03*
X386319Y307724D02*
D03*
Y305756D02*
D03*
Y303787D02*
D03*
Y301819D02*
D03*
Y299850D02*
D03*
Y297882D02*
D03*
Y295913D02*
D03*
Y293945D02*
D03*
Y291976D02*
D03*
Y290008D02*
D03*
Y288039D02*
D03*
Y286071D02*
D03*
Y284102D02*
D03*
Y282134D02*
D03*
Y280165D02*
D03*
Y278197D02*
D03*
Y276228D02*
D03*
Y274260D02*
D03*
Y272291D02*
D03*
X408366Y307724D02*
D03*
Y305756D02*
D03*
Y303787D02*
D03*
Y301819D02*
D03*
Y299850D02*
D03*
Y297882D02*
D03*
Y295913D02*
D03*
Y293945D02*
D03*
Y291976D02*
D03*
Y290008D02*
D03*
Y288039D02*
D03*
Y286071D02*
D03*
Y284102D02*
D03*
Y282134D02*
D03*
Y280165D02*
D03*
Y278197D02*
D03*
Y276228D02*
D03*
Y274260D02*
D03*
Y272291D02*
D03*
D45*
X393877Y263753D02*
D03*
Y260603D02*
D03*
X399389Y263753D02*
D03*
Y260603D02*
D03*
X389988Y93500D02*
D03*
Y90350D02*
D03*
X395500Y93500D02*
D03*
Y90350D02*
D03*
X393877Y319753D02*
D03*
Y316603D02*
D03*
X399389Y319753D02*
D03*
Y316603D02*
D03*
X389988Y149500D02*
D03*
Y146350D02*
D03*
X395500Y149500D02*
D03*
Y146350D02*
D03*
D46*
X393877Y267394D02*
D03*
Y256961D02*
D03*
X399389Y267394D02*
D03*
Y256961D02*
D03*
X389988Y97142D02*
D03*
Y86709D02*
D03*
X395500Y97142D02*
D03*
Y86709D02*
D03*
X393877Y323394D02*
D03*
Y312961D02*
D03*
X399389Y323394D02*
D03*
Y312961D02*
D03*
X389988Y153142D02*
D03*
Y142709D02*
D03*
X395500Y153142D02*
D03*
Y142709D02*
D03*
D47*
X405623Y32925D02*
D03*
Y24657D02*
D03*
X383261Y32925D02*
D03*
Y24657D02*
D03*
X360000Y32992D02*
D03*
Y24724D02*
D03*
X337531Y32992D02*
D03*
Y24724D02*
D03*
X314578Y32925D02*
D03*
Y24657D02*
D03*
X292000Y32992D02*
D03*
Y24724D02*
D03*
X269804Y32925D02*
D03*
Y24657D02*
D03*
X248500Y32992D02*
D03*
Y24724D02*
D03*
X13000Y358366D02*
D03*
Y366634D02*
D03*
X39850Y357776D02*
D03*
Y366043D02*
D03*
X21625Y13590D02*
D03*
Y21857D02*
D03*
D48*
X58000Y335000D02*
D03*
X69811D02*
D03*
X70000Y355000D02*
D03*
X58189D02*
D03*
D49*
X123125Y39223D02*
D03*
Y32924D02*
D03*
X398500Y32358D02*
D03*
Y26059D02*
D03*
X376000Y32157D02*
D03*
Y25858D02*
D03*
X353000Y31858D02*
D03*
Y25559D02*
D03*
X330500Y31858D02*
D03*
Y25559D02*
D03*
X241500Y32358D02*
D03*
Y26059D02*
D03*
X307500Y31858D02*
D03*
Y25559D02*
D03*
X285000Y32358D02*
D03*
Y26059D02*
D03*
X262500Y31657D02*
D03*
Y25358D02*
D03*
X83500Y115500D02*
D03*
Y121799D02*
D03*
X76500Y115500D02*
D03*
Y121799D02*
D03*
X20874Y365256D02*
D03*
Y358957D02*
D03*
X31976Y358760D02*
D03*
Y365059D02*
D03*
X151599Y199789D02*
D03*
Y193489D02*
D03*
Y188726D02*
D03*
Y182426D02*
D03*
X130125Y39223D02*
D03*
Y32924D02*
D03*
X-12000Y131299D02*
D03*
Y125000D02*
D03*
X-26000Y125000D02*
D03*
Y131299D02*
D03*
X-19000Y131299D02*
D03*
Y125000D02*
D03*
X147850Y298043D02*
D03*
Y304343D02*
D03*
X12954Y14322D02*
D03*
Y20621D02*
D03*
D50*
X359611Y139248D02*
D03*
X353312D02*
D03*
X363500Y309000D02*
D03*
X357201D02*
D03*
X433891Y145991D02*
D03*
X427592D02*
D03*
X437780Y316244D02*
D03*
X431481D02*
D03*
X433911Y139299D02*
D03*
X427611D02*
D03*
X437799Y309552D02*
D03*
X431500D02*
D03*
X359611Y132247D02*
D03*
X353312D02*
D03*
X363500Y302000D02*
D03*
X357201D02*
D03*
X359611Y122598D02*
D03*
X353312D02*
D03*
X363500Y292850D02*
D03*
X357201D02*
D03*
X433911Y128598D02*
D03*
X427611D02*
D03*
X437799Y298850D02*
D03*
X431500D02*
D03*
X433911Y122023D02*
D03*
X427611D02*
D03*
X437799Y292276D02*
D03*
X431500D02*
D03*
X359611Y115523D02*
D03*
X353312D02*
D03*
X363500Y285776D02*
D03*
X357201D02*
D03*
X359611Y106019D02*
D03*
X353312D02*
D03*
X363500Y276272D02*
D03*
X357201D02*
D03*
X433911Y114519D02*
D03*
X427611D02*
D03*
X437799Y284772D02*
D03*
X431500D02*
D03*
X433891Y107826D02*
D03*
X427592D02*
D03*
X437780Y278079D02*
D03*
X431480D02*
D03*
X359611Y98826D02*
D03*
X353312D02*
D03*
X363500Y269079D02*
D03*
X357201D02*
D03*
X359611Y89248D02*
D03*
X353312D02*
D03*
X363500Y259000D02*
D03*
X357201D02*
D03*
X433911Y96440D02*
D03*
X427611D02*
D03*
X437799Y266693D02*
D03*
X431500D02*
D03*
X433911Y89748D02*
D03*
X427611D02*
D03*
X437799Y260000D02*
D03*
X431500D02*
D03*
X359611Y82248D02*
D03*
X353312D02*
D03*
X363500Y252000D02*
D03*
X357201D02*
D03*
X164300Y218319D02*
D03*
X158001D02*
D03*
X157957Y205173D02*
D03*
X164256D02*
D03*
X157957Y211748D02*
D03*
X164256D02*
D03*
X69125Y89223D02*
D03*
X62825D02*
D03*
X69125Y102223D02*
D03*
X62825D02*
D03*
X142299Y301500D02*
D03*
X136000D02*
D03*
X102701Y305000D02*
D03*
X109000D02*
D03*
D51*
X68636Y78224D02*
D03*
X63125D02*
D03*
X145988Y77000D02*
D03*
X151500D02*
D03*
X108125Y39723D02*
D03*
X113636D02*
D03*
X68625Y66224D02*
D03*
X63113D02*
D03*
X68625Y95723D02*
D03*
X63113D02*
D03*
X145613Y90223D02*
D03*
X151125D02*
D03*
X145988Y64500D02*
D03*
X151500D02*
D03*
X98136Y39724D02*
D03*
X92625D02*
D03*
X418512Y129500D02*
D03*
X413000D02*
D03*
X422238Y299844D02*
D03*
X416726D02*
D03*
X418361Y140925D02*
D03*
X412849D02*
D03*
X422250Y311178D02*
D03*
X416738D02*
D03*
X418361Y118259D02*
D03*
X412849D02*
D03*
X422250Y288511D02*
D03*
X416738D02*
D03*
X374012Y106925D02*
D03*
X368500D02*
D03*
X377901Y277178D02*
D03*
X372389D02*
D03*
X374001Y118259D02*
D03*
X368489D02*
D03*
X377889Y288511D02*
D03*
X372377D02*
D03*
X374012Y129592D02*
D03*
X368500D02*
D03*
X377901Y299844D02*
D03*
X372389D02*
D03*
X374001Y140925D02*
D03*
X368489D02*
D03*
X377889Y311178D02*
D03*
X372377D02*
D03*
X418361Y106925D02*
D03*
X412849D02*
D03*
X422250Y277178D02*
D03*
X416738D02*
D03*
X145288Y217319D02*
D03*
X150800D02*
D03*
X145300Y224319D02*
D03*
X150812D02*
D03*
X73800Y227319D02*
D03*
X68288D02*
D03*
X73800Y207319D02*
D03*
X68288D02*
D03*
X225300Y191319D02*
D03*
X230812D02*
D03*
X219300Y228319D02*
D03*
X213788D02*
D03*
X197988Y352000D02*
D03*
X203500D02*
D03*
X207500Y374000D02*
D03*
X201988D02*
D03*
X195500Y76500D02*
D03*
X201012D02*
D03*
X204000Y99500D02*
D03*
X198488D02*
D03*
X101488Y158000D02*
D03*
X107000D02*
D03*
X159988Y99500D02*
D03*
X165500D02*
D03*
X181000Y70000D02*
D03*
X186512D02*
D03*
D52*
X73500Y262000D02*
D03*
Y272000D02*
D03*
D53*
X88286Y272500D02*
D03*
X98286D02*
D03*
M02*
