M48
;Layer_Color=9474304
;FILE_FORMAT=4:4
METRIC,LZ
;TYPE=PLATED
T1F00S00C0.3000
T2F00S00C0.3300
T3F00S00C0.5000
T4F00S00C0.6350
T5F00S00C0.7000
T6F00S00C0.7620
T7F00S00C0.8890
T8F00S00C1.0000
T9F00S00C1.5748
T10F00S00C3.2766
%
T01
X00535465Y0010261
X00558316Y00105111
X00596466Y00092111
X00616765Y0009491
X00609765Y0007321
X00602665Y00116111
X00651865Y0010211
X00661665Y00097111
X00691756Y0008118
X00717923Y00085144
X00783673Y00061944
X00784523Y00046994
X00806873Y00062044
X00838823Y00062044
X00837823Y00052444
X00837022Y00081694
X00849723Y00125844
X00849456Y0003128
X00822723Y00035194
X00899723Y00037344
X00933623Y00055244
X00965844Y00073267
X00974164Y00067372
X00980256Y0004858
X00991344Y0004968
X01002456Y0005048
X01009456Y0004148
X01004343Y00086782
X00993344
X00650665Y00044111
X00639165Y00032611
X01038143Y00083973
X01051344Y00083872
X01068344Y00086782
X01079343
X01097434Y00114873
Y00125872
X01192569Y00081759
Y00074001
Y00066244
X01097143Y00135072
X01097843Y00147172
X01079343Y00198963
X01068344
X01036344Y00199673
X01009343Y00198963
X00998344
X00985253Y00165872
Y00154873
X00983044Y00142872
Y00132872
X00933623Y00156344
X00899723Y00138444
X00837823Y00153544
X00838823Y00163144
X00837022Y00182794
X00806873Y00163144
X00783673Y00163044
X00784523Y00148094
X00822723Y00136294
Y00237394
X00837823Y00254644
X00838823Y00264244
X00837022Y00283894
X00806873Y00264244
X00783673Y00264144
X00784523Y00249194
X00849723Y00226944
X00899723Y00239544
X00933623Y00257444
Y00358544
X00899723Y00340644
X00849723Y00328044
X00822723Y00338494
X00837823Y00355744
X00838823Y00365344
X00837022Y00384994
X00806873Y00365344
X00783673Y00365244
X00784523Y00350294
X00717923Y00388444
Y00287344
Y00186244
X00671665Y00143171
X00481941Y00263839
Y00280839
Y00314839
X00482092Y00323789
X00481941Y00331839
X00496991Y00348439
X00481941Y00366139
X00482292Y00374389
X00481941Y00382839
Y0041764
Y00434638
X00520792Y00400689
X00433491Y00379939
X00434391Y00355239
X00436591Y00330639
X00404191Y00335739
Y00362239
Y00386939
X00419491Y00412739
X00364491Y00446539
X00369436Y00473139
X00368841Y00528638
X00297191Y00507639
X00291591Y00497139
X00267391Y00484639
X00248091Y00459239
X00296091Y00426539
X00334592Y00434638
X00334391Y0041764
X00334391Y00386439
X00349991Y00384039
X00349391Y00358439
X00334891Y00367839
X00331891Y00334839
X00349591Y00332039
X00332991Y00315339
X00331591Y00280839
X00333092Y00263839
X00296091Y00272539
Y00323539
X00298892Y00352239
X00296091Y00374639
X00364491Y00302239
X00245858Y0024592
X00229391Y00454539
X00221791Y00456939
X00205691Y00444439
X00185591Y00450039
X00183791Y00457939
X00071565Y00461211
Y00469711
Y00485611
Y00494111
Y00520911
Y00529411
X00108492Y00519039
X00117391Y00518939
X-00092038Y0044042
X-00067828Y0032842
X-00097227Y0063242
X-00100227Y0064842
Y0066442
Y0067242
X00071565Y00594911
Y00586411
Y00567711
Y00559211
X00092436Y00553938
X00108492Y00579639
X00117391Y00579739
X00177091Y00636539
X00183491Y00640838
X00187491Y00647339
X00205691Y00654239
X00221791Y00641739
X00229391Y00644139
X00248091Y00639439
X00280291Y00629539
X00286891Y00602839
X00294791Y00592739
X00304891Y00589438
X00314491Y00588039
X00308491Y00571839
X00296791Y00563239
X00294891Y00548639
X00302891Y00536839
X00383891Y00564239
X00414642Y00577138
X00481941Y00663839
Y00680839
Y00714839
X00482391Y00723689
X00481941Y00731839
X00496991Y00748439
X00481941Y00766139
X00482291Y00774689
X00481941Y00782839
Y00817639
Y00834638
X00520991Y00800189
X00433491Y00779939
X00434391Y00755238
X00436591Y00730639
X00404191Y00735739
Y00762239
Y00786939
X00419491Y00812739
X00364491Y00846538
X00334592Y00834638
X0033439Y00817639
X00334391Y00786439
X00349991Y00784039
X00349391Y00758438
X00334891Y00767839
X00331891Y00734839
X00349591Y00732038
X00333464Y00715121
X00330291Y00680839
X00333091Y00663839
X00296091Y00672539
Y00723539
X00298891Y00752239
X00296091Y00774639
Y00826539
X00364491Y00702238
X00607165Y00911611
X00650965Y00925111
X00680867Y00896211
X00717923Y00851644
X00783673Y00828444
X00784523Y00813494
X00806873Y00828544
X00838823Y00828544
X00837823Y00818944
X00837022Y00848194
X00849723Y00892344
X00822723Y00902794
X00837823Y00920044
X00784523Y00914594
X00899723Y00904944
X00933623Y00922844
Y00821744
X00899723Y00803844
X00849723Y00791244
X00822723Y00801694
X00837022Y00747094
X00838823Y00727444
X00837823Y00717844
X00822723Y00700594
X00849723Y00690144
X00837022Y00645994
X00838823Y00626344
X00837823Y00616744
X00822723Y00599494
X00849723Y00589044
X00899723Y00601644
X00933623Y00619544
Y00720644
X00899723Y00702744
X00806873Y00727444
X00783673Y00727344
X00784523Y00712394
X00783673Y00626244
X00784523Y00611294
X00806873Y00626344
X00717272Y00657344
X00717923Y00750544
Y00952744
X00693165Y00954111
X00650965Y00937212
X00783673Y00929544
X00806873Y00929644
X00838823Y00929644
X00837022Y00949294
X00608565Y00956711
X00616965Y00931311
X00563365Y00941011
X00535265Y00935911
T02
X00245691Y00511839
Y00526839
X00230691
Y00511839
X00215691
Y00526839
X00200691
X00185691
X00170691
Y00511839
X00185691
X00200691
Y00541839
X00185691
X00170691
Y00556839
Y00571839
Y00586839
X00185691
Y00571839
Y00556839
X00200691
Y00571839
Y00586839
X00215691
X00230691
Y00571839
Y00556839
X00215691
Y00571839
Y00541839
X00230691
X00245691
Y00556839
Y00571839
Y00586839
T03
X00014756Y0002218
X00868814Y00100192
X01213272Y00040244
X01036344Y00162073
X00868814Y00201292
Y00302392
Y00403492
X00467942Y00461438
Y00478539
X00364491Y00410439
X00380991Y00384939
Y00360039
Y00334939
X00137756Y00350802
X00163591Y00415736
X00163591Y00455157
X00130756Y00226401
X-00091427Y0052042
Y0054442
Y0056842
Y0059242
X-00043127Y0061652
X00042565Y00856544
X00131473Y00857401
X00187373
X00364491Y00810439
X00380991Y00784939
Y00760039
Y00734939
X00868814Y00765592
Y00866692
Y00664492
Y00967792
X00599565Y00928111
X00170173Y00930501
X00114273
X00059665Y00931744
T04
X00018256Y0016548
Y0017818
X00030956
X00043656
X00056356
X00069056
X00081756
X00094456
Y0016548
X00081756
X00069056
X00056356
X00043656
X00030956
T05
X00029004Y0008197
Y00119928
X00154004Y00119928
Y0008197
X0012813Y0006092
X00249359Y0006092
X00279004Y0008197
Y00119928
X00404004Y00119928
Y0008197
X00370584Y0006092
X0049181
X00496772Y0010777
X00899665Y00104311
Y00091611
X00912365
Y00104311
X00925065
Y00091611
X00943697Y00068244
X00946533Y00122672
X01212965Y00109033
X01253544Y00111284
X01172093Y00038526
X01155266
X01196033Y00137673
X01196829Y00170514
X01188833Y00183773
X01145643Y00187072
X01168243Y00214673
X01115143Y00243272
X01103043Y00253172
X01084643
X01072543Y00243272
X01050143
X01038043Y00253172
X0120991Y0027303
X01213111Y0032342
X01019643Y00253172
X01007544Y00243272
X00943697Y00270444
X00925065Y00293811
X00912365
X00899665
Y00306511
X00912365
X00925065
X00943697Y00371544
X00925065Y00394911
Y00407611
X00912365
Y00394911
X00899665
Y00407611
Y00205414
X00912365
X00925065
Y00192714
X00912365
X00899665
X00943697Y00169344
X00946533Y00143973
X00338466Y00192911
X00338665Y00232111
X00307366Y00213911
Y0017611
X00214765Y00185311
X00141365
X00104756Y0032018
X00048756Y0031118
Y0029218
X00047926Y0038005
X-00047727Y0034812
X-00069227
X-00093228Y0035072
X-00093028Y0036842
Y0039242
Y0041642
X-00065627Y0044842
X-00048928Y0046442
X-00053927Y0064092
X-00078927Y0063022
X-00025Y00674
X00208191Y00549339
X00305591Y00555239
X00899665Y00655911
Y00668611
X00912365
Y00655911
X00925065
Y00668611
X00943697Y00632544
Y00733644
X00925065Y00757011
Y00769711
X00912365
Y00757011
X00899665
Y00769711
Y00858111
Y00870811
X00912365
Y00858111
X00925065
Y00870811
X00943697Y00834744
Y00935844
X00925065Y00959211
Y00971911
X00912365
Y00959211
X00899665
Y00971911
T06
X00083Y006492
Y006746
Y007
Y007508
Y007762
Y008016
Y00827
T07
X012477Y0042211
Y0044751
Y0047291
Y0049831
X012731Y0048561
Y0046021
Y0043481
Y0040941
Y0054911
Y0057451
Y0059991
Y0062531
X012477Y0061261
Y0063801
Y0058721
Y0056181
T08
X0127141Y0022212
Y0024752
Y0027292
Y0029832
Y0032372
X0129681
Y0029832
Y0027292
Y0024752
Y0022212
T09
X013823Y0036881
Y0067861
T10
X013366Y0039671
Y0065071
M30
