M48
;Layer_Color=9474304
;FILE_FORMAT=2:5
INCH,TZ
;TYPE=PLATED
T1F00S00C0.00787
T2F00S00C0.01181
T3F00S00C0.01575
T4F00S00C0.02756
T5F00S00C0.03150
T6F00S00C0.03543
T7F00S00C0.03937
T8F00S00C0.04000
T9F00S00C0.06299
;TYPE=NON_PLATED
T10F00S00C0.12795
%
T01
X110500Y38000
X248500Y36500
X269500
X314500
X337500
X493500Y39500
X493165Y60112
X494255Y136822
X494755Y154822
X494255Y172822
Y191322
X471067Y186066
Y183794
X471277Y168607
Y166335
X471000Y150104
Y147833
X449448Y147000
X443755Y149322
X437758Y149842
X437452Y159830
X443755Y160824
X449448Y158333
X449437Y169667
X443755Y171822
X437755Y169822
X443755Y183322
X449255
X443500Y200000
X407255Y170322
Y160822
Y150822
X410755Y140322
X405000Y95744
X406000Y90500
X411000Y88000
Y82931
Y80659
X522500Y164000
X519132Y168131
X529556Y183056
X399255Y183322
X400255Y178822
X399255Y171675
X400255Y167322
X399255Y160822
X400255Y155822
X399255Y149322
X400255Y144822
X390555Y144052
X392161Y142445
X393128Y158872
X391506Y160755
X393204Y174186
Y176458
X364000Y179500
X358000
X364322Y172586
X364000Y163000
X363639Y160139
X358614Y165500
X358811Y145811
X364500Y146000
X363645Y143645
X364000Y129500
X358556Y129056
X369343Y102295
X374000Y102000
X378000Y92000
X370000Y89000
X371000Y78000
Y67000
X372000Y62000
X357000Y65000
X356000Y70000
X386000
X391000Y80000
X395850Y76850
X396000Y101000
X384000Y109000
X394510Y124289
X394500Y126744
X345000Y105000
X315000Y97244
X316149Y91429
X321000Y89500
Y84431
Y82159
X305850Y78350
X301000Y81500
X296000Y71500
X281000Y68500
X282000Y63500
X281000Y79500
X280000Y90500
X288000Y93500
X284000Y103500
X279343Y103795
X266000Y104500
X260000Y110620
Y112892
X259906Y117961
X255055Y119889
X253906Y125705
X265650Y146205
X264650Y151205
X279650Y148205
X280650Y143205
X279650Y159205
X278650Y170205
X286650Y173205
X282650Y183205
X277992Y183500
X292650Y190205
X304650Y182205
X313650Y176949
X314799Y171133
X319650Y169205
X320000Y164136
Y161864
X304500Y158055
X299650Y161205
X294650Y151205
X300000Y132500
X302500Y126500
X309000Y119000
X306000Y102500
X294000Y110500
X325500Y123500
X322500Y132000
X266000Y71500
X267000Y66500
X244756Y106811
X239906Y109961
X234906Y99961
X219905Y96961
X220905Y91961
X219905Y107961
X218905Y118961
X226905Y121961
X222905Y131961
X218248Y132256
X211834Y126666
X211000Y148000
X208500Y158000
X205500Y160500
X197500
X198000Y165500
X198500Y170500
X211500Y171000
X210500Y164000
X220000Y163000
Y155500
Y153000
X231500Y150500
X232906Y138961
X244905Y130961
X231500Y168000
X198000Y153000
X182500Y157500
Y163000
X180500Y166000
X182500Y148000
X147000Y150000
Y144500
X147800Y182308
X146800Y196808
X142800Y196359
X140300Y199308
X124264Y202236
Y208142
X118358
Y202236
X112453
Y208142
X106547
X100642
X94736
Y202236
X100642
X106547
X108300Y185808
X114300Y185308
X113804Y178927
X115300Y172808
X130300
X131800Y178927
X122300Y185808
X100300Y185308
X95800Y185808
X99300Y178927
X98308Y173603
X105500Y118500
X111000Y122000
X117000Y118500
X112500Y112500
X150500Y106000
X168000
X187000Y89000
X185000Y87000
X183000Y85000
X181000Y83000
X151000Y83629
Y85901
Y81357
X131500Y78500
X205906Y94961
X204906Y99961
X199000Y198000
X174500Y198500
X78300Y206256
X71300Y205807
X-22500Y195500
X-24106Y193894
X-27912Y200895
X-30000Y200000
X-32394Y212606
X-34000Y211000
Y219500
X-31996Y220570
X-33696Y232381
X-35500Y231000
X65300Y225807
X71300
X78300
X70800Y209308
X9000Y361500
X131000Y320768
Y316437
Y312106
X135331
Y316437
Y320768
X191307Y321577
X190394Y324736
X190500Y333736
X204894Y333736
X205898Y322277
X206307Y319077
X220756Y325929
X221000Y331000
X225394Y335736
X240728Y331000
X243000
X247000Y333000
X240307Y347077
X239394Y350736
X230394Y357157
X217893Y364569
X208508Y353898
X213331Y347500
X213000Y345000
X200858Y358633
X200858Y295848
X208508Y291113
X203000Y284000
X213000Y282000
X204894Y270951
X205898Y259492
X206307Y256292
X191307Y258792
X190394Y261951
X191758Y270951
X221000Y268000
X220756Y263145
X225394Y272951
X241887Y266418
X243494Y268024
X240307Y284292
X239394Y287951
X230394Y294373
X217893Y301784
X236000Y215000
X235000Y210000
X175000Y217500
X161800Y220307
X147300Y220808
X148300Y215307
X141500Y218000
X140800Y222808
X141500Y227500
X143000Y230000
X141500Y232500
X140864Y235664
X148300Y226308
X140300Y211996
X124264Y214047
X118358
X112453
Y219953
X118358
X124264
Y225858
Y231764
X118358
Y225858
X112453
Y231764
X106547
X100642
X94736
Y225858
Y219953
X100642
Y225858
X106547
Y219953
Y214047
X100642
X94736
X95715Y248341
X98000Y249500
X100642Y248142
X108300Y248307
X114300
X113804Y254807
X117026Y255308
X128300Y255280
X131300Y254807
X122300Y248307
X102800Y255308
X99300Y254807
X250000Y273000
X272800Y267500
X284185Y263516
X292000Y273000
Y275500
Y278000
Y281000
X284185Y289114
X272300Y285500
X269279Y297545
X257000Y298000
X256000Y303000
Y309000
X279008Y305110
X286352Y303688
X287299Y319695
X286890Y322895
X285886Y334354
X284000Y345000
X284500Y348000
X289500Y354516
X281850Y359251
X311386Y357775
X320386Y351354
X321299Y347695
X321728Y332728
X324117Y332784
X328425Y334425
X306386Y336354
X302000Y332000
X301748Y326548
X271386Y325354
X272299Y322195
X270646Y334354
X313993Y282748
X314000Y274000
X313945Y270006
X320287Y277000
X321000Y288000
X325200Y267500
X358000Y259000
X364000
X363500Y245500
X364000Y242500
X358000
X363512Y232488
X364000Y226000
X358000
X358185Y214500
X364000Y214386
X362356Y212356
X392159Y211364
Y213636
X390645Y228539
Y230811
X400000Y232000
X399000Y236500
X400000Y243000
X399000Y248000
X400000Y254500
X399000Y258852
X400000Y266000
X399000Y270500
X392984Y263636
Y261364
X391000Y247449
Y245177
X387362Y301693
X386000Y308500
X392000Y311500
X371500Y309500
X370000Y320000
X370500Y323000
X375114Y329661
X367464Y334397
X385084Y340916
X397000Y332921
X372504Y298041
X372913Y294841
X357913Y297341
X357000Y300500
X358225Y311613
X406096Y305904
X407702Y304298
X414000Y309000
X406913Y322841
X406000Y326500
X407000Y257500
Y248000
Y238000
X410500Y227500
X437503Y237020
X443500Y236500
X449194Y234178
Y245511
X443500Y248002
X437197Y247008
X437500Y257000
X443500Y259000
X449182Y256844
X449000Y270500
X443500
X471000Y255616
Y253344
Y237246
Y234975
X471547Y219227
Y216956
X494000Y224000
X494500Y242000
X494000Y260000
Y278500
X527100Y245600
X524000Y237500
X521000Y236500
X298959Y365203
T02
X12835Y8505
X22835
X30500Y17000
X33500Y20000
X27500
X22835Y28505
X12835
X40000Y27500
Y35000
X47835Y18505
X52835Y8505
X62835
X72835
X73500Y32500
X70000Y37500
X77500
X96000Y36000
X94829Y42716
X102000Y42000
X116500Y39500
X123000Y35500
X130000
X102500Y20000
X97000Y15000
X237000Y32400
X258000Y31800
X280500Y33400
X292000Y36500
X302000Y32000
X325000Y33000
X348500Y33500
X360000Y36500
X370400Y33200
X383000Y36500
X393400Y34300
X405500Y36500
X529500Y107000
X371755Y117322
Y134322
Y150822
Y167322
X372255Y183822
X371500Y204500
X108500Y161500
X98500Y155500
X103000Y112500
X142000Y94000
X149000Y93000
X147869Y88000
X148248Y79479
X149046Y73847
X149046Y67653
X148244Y62181
X141564Y66448
X141500Y75500
X178500Y69500
X187500Y74000
X87500Y75167
Y80833
Y86500
X83500Y89000
Y83500
Y78000
Y72500
X87500Y69500
X83000Y66000
X72000Y71000
X66500Y69000
X67000Y75000
X65578Y81377
X66420Y98716
X60000Y95500
X82500
X85000Y99000
X86500Y102000
X80000Y124500
X40500Y110000
X-1000Y132500
X-12000Y128500
X-19000
X-30500Y129000
X-42000Y135500
Y145000
Y154500
Y164000
X-39000Y167000
X-42000Y173500
X-37000Y176250
X-42000Y182827
Y205000
X65000Y63500
X66000Y254500
Y259500
Y264500
X71000Y254500
X76000
X81000
Y259500
Y264500
X57500Y327500
X52500
Y332500
Y337500
Y342500
Y347500
Y352500
Y357500
Y362500
X57500
Y347500
Y342500
X-42000Y263478
Y255000
Y249000
Y242500
Y233500
Y224000
Y214500
X95500Y265000
X100500
X105500
Y270000
Y275000
Y280000
X100500
X95500
X92500Y305000
X96250Y308750
X92500Y312500
X100000
Y305000
X110335Y343505
X372000Y271000
X371500Y254500
Y238000
Y221500
T03
X-39500Y258500
X151500Y300500
X44000Y366500
T04
X262850Y85795
X267850
Y90795
X262850
Y95795
X267850
X266500Y165500
X261500
Y170500
X266500
Y175500
X261500
X352850Y94295
Y89295
Y84295
X357850
Y89295
Y94295
X206756Y114256
X201756
Y119256
X206756
Y124256
X201756
X192358Y277392
X187358
Y282392
X192358
Y287392
X187358
X187358Y340177
X192358
Y345177
X187358
Y350177
X192358
X268350Y350795
Y345795
Y340795
X273350
Y345795
Y350795
X353964Y325941
Y320941
Y315941
X358964
Y320941
Y325941
T05
X22689Y294000
X32531
X109500Y217000
X86500Y366579
Y376421
T06
X447000Y93000
X457000
X467000
X477000
Y103000
X467000
X457000
X447000
X529500Y152000
Y160000
Y168000
Y176000
X536500Y180000
Y172000
Y164000
Y156000
X345000Y151000
Y141000
Y131000
X335000
Y141000
Y151000
Y161000
X345000
X84500Y170000
X74500
X37500Y166000
Y176000
Y187000
Y197000
Y208000
X22500Y206500
Y196500
Y185500
Y175500
Y217500
Y227500
Y238500
Y248500
X37500Y250000
Y260000
Y239000
Y229000
Y218000
X334000Y257000
X344000
Y267000
X334000
Y277000
X344000
Y287000
X334000
X447000Y304500
X457000
X467000
X477000
Y314500
X467000
X457000
X447000
X529500Y238000
Y230000
Y222000
Y214000
X536500Y218000
Y226000
Y234000
Y242000
T07
X502500Y43000
X512500
Y53000
X502500
Y63000
X512500
Y73000
X502500
Y83000
X512500
T08
X22500Y324000
Y334000
X32500
Y324000
T09
X533000Y134000
X146000Y118000
X128000Y135000
X65500Y140000
X51000Y158500
X18000Y149000
X36000Y64500
X59500Y300000
X127500Y284000
X148500Y239000
X158500Y229500
X533000Y260000
X59000Y378000
T10
X546500Y141000
Y253000
M30
