G04*
G04 #@! TF.GenerationSoftware,Altium Limited,Altium Designer,20.1.11 (218)*
G04*
G04 Layer_Color=16711935*
%FSLAX44Y44*%
%MOMM*%
G71*
G04*
G04 #@! TF.SameCoordinates,E25B43FC-70F8-4359-BC63-D8F09BEAA3E7*
G04*
G04*
G04 #@! TF.FilePolarity,Positive*
G04*
G01*
G75*
%ADD19C,0.2540*%
D19*
X-96590Y472460D02*
G03*
X-96590Y496460I0J12000D01*
G01*
X-70790Y717710D02*
G03*
X-60790Y707710I10000J0D01*
G01*
Y293210D02*
G03*
X-70790Y283210I0J-10000D01*
G01*
X-88589Y308210D02*
G03*
X-98589Y318210I-10000J0D01*
G01*
X-70790Y723710D02*
G03*
X-74790Y727710I-4000J0D01*
G01*
Y273210D02*
G03*
X-70790Y277210I0J4000D01*
G01*
X-98589Y682710D02*
G03*
X-88589Y692710I0J10000D01*
G01*
X1411600Y0D02*
Y1000730D01*
X-190Y1000920D02*
X1411410D01*
X0Y0D02*
X1411600D01*
X-190Y1000920D02*
X-190Y707710D01*
X-0Y293210D02*
X0Y0D01*
X-190Y293210D02*
X-0D01*
X-140796Y496460D02*
X-96590D01*
X-140796Y472460D02*
X-96590D01*
X-148590Y496460D02*
X-140796D01*
X-148590Y472460D02*
X-140796D01*
X-148590Y496460D02*
Y682710D01*
Y318210D02*
Y472460D01*
X-60790Y707710D02*
X-190D01*
X-60790Y293210D02*
X-190D01*
X-140796Y682710D02*
X-98589D01*
X-140796Y318210D02*
X-98589D01*
X-88589Y727710D02*
X-74790D01*
X-88589Y273210D02*
X-74790D01*
X-88589D02*
Y308210D01*
Y692710D02*
Y727710D01*
X-70790Y717710D02*
Y723710D01*
Y277210D02*
Y283210D01*
X-148590Y682710D02*
X-140796D01*
X-148590Y318210D02*
X-140796D01*
M02*
