G04*
G04 #@! TF.GenerationSoftware,Altium Limited,Altium Designer,20.1.11 (218)*
G04*
G04 Layer_Color=16711935*
%FSLAX44Y44*%
%MOMM*%
G71*
G04*
G04 #@! TF.SameCoordinates,E25B43FC-70F8-4359-BC63-D8F09BEAA3E7*
G04*
G04*
G04 #@! TF.FilePolarity,Negative*
G04*
G01*
G75*
%ADD55R,2.9000X0.6500*%
%ADD59R,0.9032X1.4032*%
%ADD60R,1.4032X1.0032*%
%ADD62R,1.0032X1.4032*%
%ADD67R,1.4032X0.9032*%
%ADD74R,0.9032X0.7032*%
%ADD75R,0.9032X0.8432*%
%ADD84C,2.7432*%
%ADD85C,1.7032*%
%ADD86R,1.5032X1.5032*%
%ADD87C,1.5032*%
%ADD88R,1.2032X1.2032*%
%ADD89R,1.5032X1.5032*%
%ADD90C,1.6764*%
%ADD91R,1.6032X1.6032*%
%ADD92C,1.6032*%
%ADD93C,3.4532*%
%ADD94C,2.6032*%
%ADD95R,2.2032X2.2032*%
%ADD96C,2.2032*%
%ADD128R,1.0532X0.5532*%
%ADD129O,1.7032X0.6032*%
%ADD130R,0.5032X1.8032*%
%ADD131R,1.8032X0.5032*%
%ADD132R,0.8432X0.9032*%
%ADD133R,0.7032X0.9032*%
%ADD134R,1.8532X0.5032*%
%ADD135R,0.9032X0.6032*%
D55*
X-124528Y672420D02*
D03*
Y664420D02*
D03*
Y656420D02*
D03*
Y648420D02*
D03*
Y640420D02*
D03*
Y632420D02*
D03*
Y624420D02*
D03*
Y616420D02*
D03*
Y608420D02*
D03*
Y600420D02*
D03*
Y592420D02*
D03*
Y584420D02*
D03*
Y576420D02*
D03*
Y568420D02*
D03*
Y560420D02*
D03*
Y552420D02*
D03*
Y544420D02*
D03*
Y536420D02*
D03*
Y528420D02*
D03*
Y520420D02*
D03*
Y512420D02*
D03*
Y504420D02*
D03*
Y464420D02*
D03*
Y456420D02*
D03*
Y448420D02*
D03*
Y440420D02*
D03*
Y432420D02*
D03*
Y424420D02*
D03*
Y416420D02*
D03*
Y408420D02*
D03*
Y400420D02*
D03*
Y392420D02*
D03*
Y384420D02*
D03*
Y376420D02*
D03*
Y368420D02*
D03*
Y360420D02*
D03*
Y352420D02*
D03*
Y344420D02*
D03*
Y336420D02*
D03*
Y328420D02*
D03*
D59*
X424940Y341630D02*
D03*
X408940D02*
D03*
X302770D02*
D03*
X318770D02*
D03*
X424940Y391160D02*
D03*
X408940D02*
D03*
X302260Y389890D02*
D03*
X318260D02*
D03*
D60*
X673100Y168880D02*
D03*
Y182880D02*
D03*
X529590Y675640D02*
D03*
Y661640D02*
D03*
X701040Y715040D02*
D03*
Y701040D02*
D03*
X661670Y915700D02*
D03*
Y901700D02*
D03*
X523760Y258330D02*
D03*
Y244330D02*
D03*
X-58420Y425450D02*
D03*
Y439450D02*
D03*
X317500Y358140D02*
D03*
Y372140D02*
D03*
D62*
X704850Y280670D02*
D03*
X690850D02*
D03*
X552480Y349980D02*
D03*
X538480D02*
D03*
X567690Y782320D02*
D03*
X553690D02*
D03*
X-7620Y425450D02*
D03*
X6380D02*
D03*
X444500Y312420D02*
D03*
X458500D02*
D03*
X813231Y156576D02*
D03*
X799231D02*
D03*
X739571Y237856D02*
D03*
X725571D02*
D03*
X666160Y239480D02*
D03*
X652160D02*
D03*
X592500Y320760D02*
D03*
X578500D02*
D03*
X813480Y302980D02*
D03*
X799480D02*
D03*
X739820Y384260D02*
D03*
X725820D02*
D03*
X666160Y375370D02*
D03*
X652160D02*
D03*
X592500Y456650D02*
D03*
X578500D02*
D03*
X673780Y648420D02*
D03*
X659780D02*
D03*
X600120Y729700D02*
D03*
X586120D02*
D03*
X671240Y804630D02*
D03*
X657240D02*
D03*
X597580Y885910D02*
D03*
X583580D02*
D03*
X813231Y734426D02*
D03*
X799231D02*
D03*
X739571Y815706D02*
D03*
X725571D02*
D03*
X813231Y882975D02*
D03*
X799231D02*
D03*
X739571Y964296D02*
D03*
X725571D02*
D03*
X691281Y957946D02*
D03*
X705281D02*
D03*
X549290Y879560D02*
D03*
X563290D02*
D03*
X691281Y231506D02*
D03*
X705281D02*
D03*
X691281Y809356D02*
D03*
X705281D02*
D03*
X551830Y723350D02*
D03*
X565830D02*
D03*
X544210Y450300D02*
D03*
X558210D02*
D03*
X691530Y377910D02*
D03*
X705530D02*
D03*
X544210Y314410D02*
D03*
X558210D02*
D03*
D67*
X477520Y198630D02*
D03*
Y214630D02*
D03*
X427990Y325880D02*
D03*
Y309880D02*
D03*
X430530Y198630D02*
D03*
Y214630D02*
D03*
X476250Y325880D02*
D03*
Y309880D02*
D03*
D74*
X812581Y188516D02*
D03*
Y180516D02*
D03*
X798581Y188516D02*
D03*
Y180516D02*
D03*
X665510Y271420D02*
D03*
Y263420D02*
D03*
X651510Y271420D02*
D03*
Y263420D02*
D03*
X812830Y334920D02*
D03*
Y326920D02*
D03*
X798830Y334920D02*
D03*
Y326920D02*
D03*
X665510Y407310D02*
D03*
Y399310D02*
D03*
X651510Y407310D02*
D03*
Y399310D02*
D03*
X673130Y680360D02*
D03*
Y672360D02*
D03*
X659130Y680360D02*
D03*
Y672360D02*
D03*
X670590Y836570D02*
D03*
Y828570D02*
D03*
X656590Y836570D02*
D03*
Y828570D02*
D03*
X812581Y766366D02*
D03*
Y758366D02*
D03*
X798581Y766366D02*
D03*
Y758366D02*
D03*
X812581Y914956D02*
D03*
Y906956D02*
D03*
X798581Y914956D02*
D03*
Y906956D02*
D03*
D75*
X812581Y197766D02*
D03*
Y171266D02*
D03*
X798581Y197766D02*
D03*
Y171266D02*
D03*
X665510Y280670D02*
D03*
Y254170D02*
D03*
X651510Y280670D02*
D03*
Y254170D02*
D03*
X812830Y344170D02*
D03*
Y317670D02*
D03*
X798830Y344170D02*
D03*
Y317670D02*
D03*
X665510Y416560D02*
D03*
Y390060D02*
D03*
X651510Y416560D02*
D03*
Y390060D02*
D03*
X673130Y689610D02*
D03*
Y663110D02*
D03*
X659130Y689610D02*
D03*
Y663110D02*
D03*
X670590Y845820D02*
D03*
Y819320D02*
D03*
X656590Y845820D02*
D03*
Y819320D02*
D03*
X812581Y775616D02*
D03*
Y749116D02*
D03*
X798581Y775616D02*
D03*
Y749116D02*
D03*
X812581Y924206D02*
D03*
Y897706D02*
D03*
X798581Y924206D02*
D03*
Y897706D02*
D03*
D84*
X195580Y444500D02*
D03*
X64770Y449580D02*
D03*
Y485140D02*
D03*
X78740Y615950D02*
D03*
Y651510D02*
D03*
X402590Y582930D02*
D03*
X374650Y292100D02*
D03*
X377190Y607060D02*
D03*
X326390Y308610D02*
D03*
X166370Y355600D02*
D03*
X149860Y960120D02*
D03*
X99060Y405130D02*
D03*
X427990Y693420D02*
D03*
X151130Y762000D02*
D03*
X91440Y163830D02*
D03*
D85*
X278130Y551180D02*
D03*
D86*
X52630Y746760D02*
D03*
D87*
X87630D02*
D03*
X219710Y961110D02*
D03*
D88*
X704601Y152046D02*
D03*
X691901D02*
D03*
X704601Y164746D02*
D03*
X691901D02*
D03*
X704601Y177446D02*
D03*
X691901D02*
D03*
X544830Y260350D02*
D03*
X557530D02*
D03*
X544830Y247650D02*
D03*
X557530D02*
D03*
X544830Y234950D02*
D03*
X557530D02*
D03*
X704850Y298450D02*
D03*
X692150D02*
D03*
X704850Y311150D02*
D03*
X692150D02*
D03*
X704850Y323850D02*
D03*
X692150D02*
D03*
X544830Y396240D02*
D03*
X557530D02*
D03*
X544830Y383540D02*
D03*
X557530D02*
D03*
X544830Y370840D02*
D03*
X557530D02*
D03*
X565150Y643890D02*
D03*
X552450D02*
D03*
X565150Y656590D02*
D03*
X552450D02*
D03*
X565150Y669290D02*
D03*
X552450D02*
D03*
X562610Y800100D02*
D03*
X549910D02*
D03*
X562610Y812800D02*
D03*
X549910D02*
D03*
X562610Y825500D02*
D03*
X549910D02*
D03*
X691901Y755296D02*
D03*
X704601D02*
D03*
X691901Y742596D02*
D03*
X704601D02*
D03*
X691901Y729896D02*
D03*
X704601D02*
D03*
X691901Y903886D02*
D03*
X704601D02*
D03*
X691901Y891186D02*
D03*
X704601D02*
D03*
X691901Y878486D02*
D03*
X704601D02*
D03*
D89*
X219710Y926110D02*
D03*
D90*
X57150Y822960D02*
D03*
Y848360D02*
D03*
X82550Y822960D02*
D03*
Y848360D02*
D03*
D91*
X1362710Y457200D02*
D03*
Y614680D02*
D03*
D92*
X1344930Y447040D02*
D03*
X1362710Y436880D02*
D03*
X1344930Y426720D02*
D03*
X1362710Y416560D02*
D03*
X1344930Y406400D02*
D03*
X1362710Y396240D02*
D03*
X1344930Y386080D02*
D03*
Y543560D02*
D03*
X1362710Y553720D02*
D03*
X1344930Y563880D02*
D03*
X1362710Y574040D02*
D03*
X1344930Y584200D02*
D03*
X1362710Y594360D02*
D03*
X1344930Y604520D02*
D03*
D93*
X1388110Y358140D02*
D03*
Y642620D02*
D03*
D94*
X1353820Y340360D02*
D03*
Y660400D02*
D03*
D95*
X1314450Y210820D02*
D03*
D96*
X1339850D02*
D03*
X1314450Y185420D02*
D03*
X1339850D02*
D03*
X1314450Y160020D02*
D03*
X1339850D02*
D03*
X1314450Y134620D02*
D03*
X1339850D02*
D03*
X1314450Y109220D02*
D03*
X1339850D02*
D03*
D128*
X-42850Y426570D02*
D03*
Y433070D02*
D03*
X-20650Y426570D02*
D03*
Y439570D02*
D03*
X-42850D02*
D03*
D129*
X728031Y780106D02*
D03*
Y786606D02*
D03*
Y793106D02*
D03*
Y799606D02*
D03*
X768931Y780106D02*
D03*
Y786606D02*
D03*
Y793106D02*
D03*
Y799606D02*
D03*
Y948196D02*
D03*
Y941696D02*
D03*
Y935196D02*
D03*
Y928696D02*
D03*
X728031Y948196D02*
D03*
Y941696D02*
D03*
Y935196D02*
D03*
Y928696D02*
D03*
X586040Y850311D02*
D03*
Y856811D02*
D03*
Y863310D02*
D03*
Y869810D02*
D03*
X626940Y850311D02*
D03*
Y856811D02*
D03*
Y863310D02*
D03*
Y869810D02*
D03*
X629481Y713600D02*
D03*
Y707101D02*
D03*
Y700601D02*
D03*
Y694100D02*
D03*
X588581Y713600D02*
D03*
Y707101D02*
D03*
Y700601D02*
D03*
Y694100D02*
D03*
X580961Y421050D02*
D03*
Y427551D02*
D03*
Y434050D02*
D03*
Y440550D02*
D03*
X621861Y421050D02*
D03*
Y427551D02*
D03*
Y434050D02*
D03*
Y440550D02*
D03*
X769181Y368161D02*
D03*
Y361660D02*
D03*
Y355160D02*
D03*
Y348661D02*
D03*
X728280Y368161D02*
D03*
Y361660D02*
D03*
Y355160D02*
D03*
Y348661D02*
D03*
X580961Y285161D02*
D03*
Y291660D02*
D03*
Y298160D02*
D03*
Y304660D02*
D03*
X621861Y285161D02*
D03*
Y291660D02*
D03*
Y298160D02*
D03*
Y304660D02*
D03*
X768931Y221756D02*
D03*
Y215256D02*
D03*
Y208756D02*
D03*
Y202256D02*
D03*
X728031Y221756D02*
D03*
Y215256D02*
D03*
Y208756D02*
D03*
Y202256D02*
D03*
D130*
X481272Y234645D02*
D03*
X474772D02*
D03*
X468272D02*
D03*
X461772D02*
D03*
X455272D02*
D03*
X448772D02*
D03*
X442272D02*
D03*
X435772D02*
D03*
X429272D02*
D03*
X422772D02*
D03*
X481272Y291645D02*
D03*
X474772D02*
D03*
X468272D02*
D03*
X461772D02*
D03*
X455272D02*
D03*
X448772D02*
D03*
X442272D02*
D03*
X435772D02*
D03*
X429272D02*
D03*
X422772D02*
D03*
D131*
X335190Y337310D02*
D03*
Y343810D02*
D03*
Y350310D02*
D03*
Y356810D02*
D03*
Y363310D02*
D03*
Y369810D02*
D03*
Y376310D02*
D03*
Y382810D02*
D03*
Y389310D02*
D03*
Y395810D02*
D03*
X392190Y337310D02*
D03*
Y343810D02*
D03*
Y350310D02*
D03*
Y356810D02*
D03*
Y363310D02*
D03*
Y369810D02*
D03*
Y376310D02*
D03*
Y382810D02*
D03*
Y389310D02*
D03*
Y395810D02*
D03*
D132*
X784351Y119746D02*
D03*
X757851D02*
D03*
X784351Y133746D02*
D03*
X757851D02*
D03*
X637280Y202650D02*
D03*
X610780D02*
D03*
X637280Y216650D02*
D03*
X610780D02*
D03*
X784600Y266150D02*
D03*
X758100D02*
D03*
X784600Y280150D02*
D03*
X758100D02*
D03*
X637280Y338540D02*
D03*
X610780D02*
D03*
X637280Y352540D02*
D03*
X610780D02*
D03*
X644900Y611590D02*
D03*
X618400D02*
D03*
X644900Y625590D02*
D03*
X618400D02*
D03*
X642360Y767800D02*
D03*
X615860D02*
D03*
X642360Y781800D02*
D03*
X615860D02*
D03*
X784351Y697596D02*
D03*
X757851D02*
D03*
X784351Y711596D02*
D03*
X757851D02*
D03*
X784351Y846186D02*
D03*
X757851D02*
D03*
X784351Y860186D02*
D03*
X757851D02*
D03*
D133*
X775101Y119746D02*
D03*
X767101D02*
D03*
X775101Y133746D02*
D03*
X767101D02*
D03*
X628030Y202650D02*
D03*
X620030D02*
D03*
X628030Y216650D02*
D03*
X620030D02*
D03*
X775350Y266150D02*
D03*
X767350D02*
D03*
X775350Y280150D02*
D03*
X767350D02*
D03*
X628030Y338540D02*
D03*
X620030D02*
D03*
X628030Y352540D02*
D03*
X620030D02*
D03*
X635650Y611590D02*
D03*
X627650D02*
D03*
X635650Y625590D02*
D03*
X627650D02*
D03*
X633110Y767800D02*
D03*
X625110D02*
D03*
X633110Y781800D02*
D03*
X625110D02*
D03*
X775101Y697596D02*
D03*
X767101D02*
D03*
X775101Y711596D02*
D03*
X767101D02*
D03*
X775101Y846186D02*
D03*
X767101D02*
D03*
X775101Y860186D02*
D03*
X767101D02*
D03*
D134*
X781050Y913130D02*
D03*
Y906630D02*
D03*
Y900130D02*
D03*
Y893630D02*
D03*
Y887130D02*
D03*
Y880630D02*
D03*
Y874130D02*
D03*
X725550Y913130D02*
D03*
Y906630D02*
D03*
Y900130D02*
D03*
Y893630D02*
D03*
Y887130D02*
D03*
Y880630D02*
D03*
Y874130D02*
D03*
X639059Y834744D02*
D03*
Y828244D02*
D03*
Y821744D02*
D03*
Y815244D02*
D03*
Y808744D02*
D03*
Y802244D02*
D03*
Y795744D02*
D03*
X583559Y834744D02*
D03*
Y828244D02*
D03*
Y821744D02*
D03*
Y815244D02*
D03*
Y808744D02*
D03*
Y802244D02*
D03*
Y795744D02*
D03*
X781050Y186690D02*
D03*
Y180190D02*
D03*
Y173690D02*
D03*
Y167190D02*
D03*
Y160690D02*
D03*
Y154190D02*
D03*
Y147690D02*
D03*
X725550Y186690D02*
D03*
Y180190D02*
D03*
Y173690D02*
D03*
Y167190D02*
D03*
Y160690D02*
D03*
Y154190D02*
D03*
Y147690D02*
D03*
X781050Y764540D02*
D03*
Y758040D02*
D03*
Y751540D02*
D03*
Y745040D02*
D03*
Y738540D02*
D03*
Y732040D02*
D03*
Y725540D02*
D03*
X725550Y764540D02*
D03*
Y758040D02*
D03*
Y751540D02*
D03*
Y745040D02*
D03*
Y738540D02*
D03*
Y732040D02*
D03*
Y725540D02*
D03*
X641599Y678534D02*
D03*
Y672034D02*
D03*
Y665534D02*
D03*
Y659034D02*
D03*
Y652534D02*
D03*
Y646034D02*
D03*
Y639534D02*
D03*
X586099Y678534D02*
D03*
Y672034D02*
D03*
Y665534D02*
D03*
Y659034D02*
D03*
Y652534D02*
D03*
Y646034D02*
D03*
Y639534D02*
D03*
X633979Y405484D02*
D03*
Y398984D02*
D03*
Y392484D02*
D03*
Y385984D02*
D03*
Y379484D02*
D03*
Y372984D02*
D03*
Y366484D02*
D03*
X578479Y405484D02*
D03*
Y398984D02*
D03*
Y392484D02*
D03*
Y385984D02*
D03*
Y379484D02*
D03*
Y372984D02*
D03*
Y366484D02*
D03*
X781299Y333094D02*
D03*
Y326594D02*
D03*
Y320094D02*
D03*
Y313594D02*
D03*
Y307094D02*
D03*
Y300594D02*
D03*
Y294094D02*
D03*
X725799Y333094D02*
D03*
Y326594D02*
D03*
Y320094D02*
D03*
Y313594D02*
D03*
Y307094D02*
D03*
Y300594D02*
D03*
Y294094D02*
D03*
X633979Y269594D02*
D03*
Y263094D02*
D03*
Y256594D02*
D03*
Y250094D02*
D03*
Y243594D02*
D03*
Y237094D02*
D03*
Y230594D02*
D03*
X578479Y269594D02*
D03*
Y263094D02*
D03*
Y256594D02*
D03*
Y250094D02*
D03*
Y243594D02*
D03*
Y237094D02*
D03*
Y230594D02*
D03*
D135*
X689921Y941586D02*
D03*
Y928586D02*
D03*
X710421D02*
D03*
Y935086D02*
D03*
Y941586D02*
D03*
X547930Y863200D02*
D03*
Y850200D02*
D03*
X568430D02*
D03*
Y856700D02*
D03*
Y863200D02*
D03*
X689921Y215146D02*
D03*
Y202146D02*
D03*
X710421D02*
D03*
Y208646D02*
D03*
Y215146D02*
D03*
X689921Y792996D02*
D03*
Y779996D02*
D03*
X710421D02*
D03*
Y786496D02*
D03*
Y792996D02*
D03*
X550470Y706990D02*
D03*
Y693990D02*
D03*
X570970D02*
D03*
Y700490D02*
D03*
Y706990D02*
D03*
X542850Y433940D02*
D03*
Y420940D02*
D03*
X563350D02*
D03*
Y427440D02*
D03*
Y433940D02*
D03*
X690170Y361550D02*
D03*
Y348550D02*
D03*
X710670D02*
D03*
Y355050D02*
D03*
Y361550D02*
D03*
X542850Y298050D02*
D03*
Y285050D02*
D03*
X563350D02*
D03*
Y291550D02*
D03*
Y298050D02*
D03*
M02*
