G04*
G04 #@! TF.GenerationSoftware,Altium Limited,Altium Designer,20.1.11 (218)*
G04*
G04 Layer_Color=16711935*
%FSLAX44Y44*%
%MOMM*%
G71*
G04*
G04 #@! TF.SameCoordinates,E25B43FC-70F8-4359-BC63-D8F09BEAA3E7*
G04*
G04*
G04 #@! TF.FilePolarity,Positive*
G04*
G01*
G75*
%ADD13C,0.1000*%
D13*
X334130Y602180D02*
G03*
X334130Y602180I-5000J0D01*
G01*
X332240Y819750D02*
G03*
X332240Y819750I-5000J0D01*
G01*
X216096Y136418D02*
G03*
X216096Y136418I-5000J0D01*
G01*
X218130Y491180D02*
Y611180D01*
X338130Y491180D02*
Y611180D01*
X218130Y491180D02*
X338130D01*
X218130Y611180D02*
X338130D01*
X127720Y40160D02*
Y107160D01*
X90720Y40160D02*
Y107160D01*
Y40160D02*
X127720D01*
X90720Y107160D02*
X127720D01*
X-38750Y422070D02*
Y444070D01*
X-24750Y422070D02*
Y444070D01*
X-38750Y422070D02*
X-24750D01*
X-38750Y444070D02*
X-24750D01*
X318240Y778750D02*
X358240D01*
X318240Y828750D02*
X358240D01*
Y778750D02*
Y828750D01*
X318240Y778750D02*
Y828750D01*
X994590Y105920D02*
X1017090D01*
X994590Y119420D02*
X1017090D01*
X994590Y105920D02*
Y119420D01*
X1017090Y105920D02*
Y119420D01*
X937440Y104650D02*
X959940D01*
X937440Y118150D02*
X959940D01*
X937440Y104650D02*
Y118150D01*
X959940Y104650D02*
Y118150D01*
X879020Y104650D02*
X901520D01*
X879020Y118150D02*
X901520D01*
X879020Y104650D02*
Y118150D01*
X901520Y104650D02*
Y118150D01*
X650420Y104650D02*
X672920D01*
X650420Y118150D02*
X672920D01*
X650420Y104650D02*
Y118150D01*
X672920Y104650D02*
Y118150D01*
X844370Y104650D02*
Y118150D01*
X821870Y104650D02*
Y118150D01*
X844370D01*
X821870Y104650D02*
X844370D01*
X785950D02*
Y118150D01*
X763450Y104650D02*
Y118150D01*
X785950D01*
X763450Y104650D02*
X785950D01*
X728800D02*
Y118150D01*
X706300Y104650D02*
Y118150D01*
X728800D01*
X706300Y104650D02*
X728800D01*
X618310D02*
Y118150D01*
X595810Y104650D02*
Y118150D01*
X618310D01*
X595810Y104650D02*
X618310D01*
X48176Y34518D02*
Y55518D01*
X61677Y34518D02*
Y55518D01*
X48176Y34518D02*
X61677D01*
X48176Y55518D02*
X61677D01*
X94470Y908750D02*
Y929750D01*
X107970Y908750D02*
Y929750D01*
X94470Y908750D02*
X107970D01*
X94470Y929750D02*
X107970D01*
X26270Y910250D02*
Y931250D01*
X39770Y910250D02*
Y931250D01*
X26270Y910250D02*
X39770D01*
X26270Y931250D02*
X39770D01*
X693171Y924086D02*
X707171D01*
X693171Y946086D02*
X707171D01*
X693171Y924086D02*
Y946086D01*
X707171Y924086D02*
Y946086D01*
X551180Y845700D02*
X565180D01*
X551180Y867700D02*
X565180D01*
X551180Y845700D02*
Y867700D01*
X565180Y845700D02*
Y867700D01*
X693171Y197646D02*
X707171D01*
X693171Y219646D02*
X707171D01*
X693171Y197646D02*
Y219646D01*
X707171Y197646D02*
Y219646D01*
X693171Y775496D02*
X707171D01*
X693171Y797496D02*
X707171D01*
X693171Y775496D02*
Y797496D01*
X707171Y775496D02*
Y797496D01*
X553720Y689490D02*
X567720D01*
X553720Y711490D02*
X567720D01*
X553720Y689490D02*
Y711490D01*
X567720Y689490D02*
Y711490D01*
X546100Y416440D02*
X560100D01*
X546100Y438440D02*
X560100D01*
X546100Y416440D02*
Y438440D01*
X560100Y416440D02*
Y438440D01*
X693420Y344050D02*
X707420D01*
X693420Y366050D02*
X707420D01*
X693420Y344050D02*
Y366050D01*
X707420Y344050D02*
Y366050D01*
X546100Y280550D02*
X560100D01*
X546100Y302550D02*
X560100D01*
X546100Y280550D02*
Y302550D01*
X560100Y280550D02*
Y302550D01*
X792277Y62630D02*
X805777D01*
X792277Y83630D02*
X805777D01*
X792277Y62630D02*
Y83630D01*
X805777Y62630D02*
Y83630D01*
X734930Y62800D02*
X748430D01*
X734930Y83800D02*
X748430D01*
X734930Y62800D02*
Y83800D01*
X748430Y62800D02*
Y83800D01*
X678553Y62630D02*
X692053D01*
X678553Y83630D02*
X692053D01*
X678553Y62630D02*
Y83630D01*
X692053Y62630D02*
Y83630D01*
X624440Y62800D02*
X637940D01*
X624440Y83800D02*
X637940D01*
X624440Y62800D02*
Y83800D01*
X637940Y62800D02*
Y83800D01*
X1023533Y62630D02*
X1037033D01*
X1023533Y83630D02*
X1037033D01*
X1023533Y62630D02*
Y83630D01*
X1037033Y62630D02*
Y83630D01*
X966733Y62630D02*
X980233D01*
X966733Y83630D02*
X980233D01*
X966733Y62630D02*
Y83630D01*
X980233Y62630D02*
Y83630D01*
X907650Y62800D02*
X921150D01*
X907650Y83800D02*
X921150D01*
X907650Y62800D02*
Y83800D01*
X921150Y62800D02*
Y83800D01*
X850580Y62800D02*
X864080D01*
X850580Y83800D02*
X864080D01*
X850580Y62800D02*
Y83800D01*
X864080Y62800D02*
Y83800D01*
X202097Y127417D02*
X342096D01*
X202097Y267418D02*
X342096D01*
X202097Y127417D02*
Y267418D01*
X342096Y127417D02*
Y267418D01*
M02*
