G04 Layer_Color=32768*
%FSLAX44Y44*%
%MOMM*%
G71*
G01*
G75*
%ADD113C,0.1000*%
%ADD114C,0.5080*%
%ADD115C,0.0762*%
D113*
X126691Y630839D02*
X289691D01*
X126691Y467839D02*
X289691D01*
Y630839D01*
X126691Y467839D02*
Y630839D01*
X208191Y544339D02*
Y554339D01*
X203191Y549339D02*
X213191D01*
X126473Y920001D02*
X136473D01*
X131473Y915001D02*
Y925001D01*
X122583Y899681D02*
Y939051D01*
X140363Y899681D02*
Y939051D01*
X122583Y899681D02*
X140363D01*
X122583Y939051D02*
X140363D01*
X37465Y921244D02*
X47465D01*
X42465Y916244D02*
Y926244D01*
X33575Y900924D02*
Y940294D01*
X51355Y900924D02*
Y940294D01*
X33575Y900924D02*
X51355D01*
X33575Y940294D02*
X51355D01*
X182373Y920001D02*
X192373D01*
X187373Y915001D02*
Y925001D01*
X178483Y899681D02*
Y939051D01*
X196263Y899681D02*
Y939051D01*
X178483Y899681D02*
X196263D01*
X178483Y939051D02*
X196263D01*
X427991Y307839D02*
Y407839D01*
X355991Y307839D02*
Y407839D01*
Y307839D02*
X427991D01*
X355991Y407839D02*
X427991D01*
X386991Y357839D02*
X396991D01*
X391991Y352839D02*
Y362839D01*
X427991Y707839D02*
Y807839D01*
X355991Y707839D02*
Y807839D01*
Y707839D02*
X427991D01*
X355991Y807839D02*
X427991D01*
X386991Y757839D02*
X396991D01*
X391991Y752839D02*
Y762839D01*
X915022Y621044D02*
Y631044D01*
X910023Y626044D02*
X920023D01*
X898773Y639544D02*
X931272D01*
X898773Y612544D02*
X931272D01*
Y639544D01*
X898773Y612544D02*
Y639544D01*
X915022Y722144D02*
Y732144D01*
X910023Y727144D02*
X920023D01*
X898773Y740644D02*
X931272D01*
X898773Y713644D02*
X931272D01*
Y740644D01*
X898773Y713644D02*
Y740644D01*
X915022Y360044D02*
Y370044D01*
X910023Y365044D02*
X920023D01*
X898773Y378544D02*
X931272D01*
X898773Y351544D02*
X931272D01*
Y378544D01*
X898773Y351544D02*
Y378544D01*
X915022Y823244D02*
Y833244D01*
X910023Y828244D02*
X920023D01*
X898773Y841744D02*
X931272D01*
X898773Y814744D02*
X931272D01*
Y841744D01*
X898773Y814744D02*
Y841744D01*
X915022Y924344D02*
Y934344D01*
X910023Y929344D02*
X920023D01*
X898773Y942844D02*
X931272D01*
X898773Y915844D02*
X931272D01*
Y942844D01*
X898773Y915844D02*
Y942844D01*
X915022Y56744D02*
Y66744D01*
X910023Y61744D02*
X920023D01*
X898773Y75244D02*
X931272D01*
X898773Y48244D02*
X931272D01*
Y75244D01*
X898773Y48244D02*
Y75244D01*
X915022Y157844D02*
Y167844D01*
X910023Y162844D02*
X920023D01*
X898773Y176344D02*
X931272D01*
X898773Y149344D02*
X931272D01*
Y176344D01*
X898773Y149344D02*
Y176344D01*
X915022Y258944D02*
Y268944D01*
X910023Y263944D02*
X920023D01*
X898773Y277444D02*
X931272D01*
X898773Y250444D02*
X931272D01*
Y277444D01*
X898773Y250444D02*
Y277444D01*
X411973Y73520D02*
Y128520D01*
X486973Y73520D02*
Y128520D01*
X411973D02*
X486973D01*
X411973Y73520D02*
X486973D01*
X444473Y101020D02*
X454473D01*
X449473Y96020D02*
Y106020D01*
X344533Y30870D02*
X362313D01*
X344533Y70240D02*
X362313D01*
X344533Y30870D02*
Y70240D01*
X362313Y30870D02*
Y70240D01*
X353423Y44920D02*
Y54920D01*
X348423Y49920D02*
X358423D01*
X283920Y30870D02*
X301700D01*
X283920Y70240D02*
X301700D01*
X283920Y30870D02*
Y70240D01*
X301700Y30870D02*
Y70240D01*
X292810Y44920D02*
Y54920D01*
X287810Y49920D02*
X297810D01*
X465759Y30870D02*
X483539D01*
X465759Y70240D02*
X483539D01*
X465759Y30870D02*
Y70240D01*
X483539Y30870D02*
Y70240D01*
X474649Y44920D02*
Y54920D01*
X469649Y49920D02*
X479649D01*
X405146Y30870D02*
X422926D01*
X405146Y70240D02*
X422926D01*
X405146Y30870D02*
Y70240D01*
X422926Y30870D02*
Y70240D01*
X414036Y44920D02*
Y54920D01*
X409036Y49920D02*
X419036D01*
X286973Y73520D02*
Y128520D01*
X361973Y73520D02*
Y128520D01*
X286973D02*
X361973D01*
X286973Y73520D02*
X361973D01*
X319473Y101020D02*
X329473D01*
X324473Y96020D02*
Y106020D01*
X102079Y30870D02*
X119859D01*
X102079Y70240D02*
X119859D01*
X102079Y30870D02*
Y70240D01*
X119859Y30870D02*
Y70240D01*
X110969Y44920D02*
Y54920D01*
X105969Y49920D02*
X115969D01*
X41469Y30870D02*
X59248D01*
X41469Y70240D02*
X59248D01*
X41469Y30870D02*
Y70240D01*
X59248Y30870D02*
Y70240D01*
X50359Y44920D02*
Y54920D01*
X45359Y49920D02*
X55359D01*
X223307Y30870D02*
X241087D01*
X223307Y70240D02*
X241087D01*
X223307Y30870D02*
Y70240D01*
X241087Y30870D02*
Y70240D01*
X232197Y44920D02*
Y54920D01*
X227197Y49920D02*
X237197D01*
X162694Y30870D02*
X180474D01*
X162694Y70240D02*
X180474D01*
X162694Y30870D02*
Y70240D01*
X180474Y30870D02*
Y70240D01*
X171584Y44920D02*
Y54920D01*
X166584Y49920D02*
X176584D01*
X161973Y73520D02*
Y128520D01*
X236973Y73520D02*
Y128520D01*
X161973D02*
X236973D01*
X161973Y73520D02*
X236973D01*
X194473Y101020D02*
X204473D01*
X199473Y96020D02*
Y106020D01*
X36972Y73520D02*
Y128520D01*
X111973Y73520D02*
Y128520D01*
X36972D02*
X111973D01*
X36972Y73520D02*
X111973D01*
X69472Y101020D02*
X79472D01*
X74472Y96020D02*
Y106020D01*
X1128344Y55873D02*
Y229872D01*
X954343Y55873D02*
Y229872D01*
Y55873D02*
X1128344D01*
X954343Y229872D02*
X1128344D01*
X1036344Y142872D02*
X1046343D01*
X1041344Y137872D02*
Y147872D01*
X428692Y526638D02*
X438692D01*
X433692Y521639D02*
Y531639D01*
X406192Y489138D02*
Y564138D01*
X461192Y489138D02*
Y564138D01*
X406192Y489138D02*
X461192D01*
X406192Y564138D02*
X461192D01*
D114*
X870523Y629144D02*
D03*
Y730244D02*
D03*
Y932444D02*
D03*
Y64844D02*
D03*
Y165944D02*
D03*
Y267044D02*
D03*
Y368144D02*
D03*
Y831344D02*
D03*
D115*
X886972Y599944D02*
Y658644D01*
X854972Y599944D02*
Y658644D01*
Y599944D02*
X886972D01*
X854972Y658644D02*
X886972D01*
Y701044D02*
Y759744D01*
X854972Y701044D02*
Y759744D01*
Y701044D02*
X886972D01*
X854972Y759744D02*
X886972D01*
Y903244D02*
Y961944D01*
X854972Y903244D02*
Y961944D01*
Y903244D02*
X886972D01*
X854972Y961944D02*
X886972D01*
Y35644D02*
Y94344D01*
X854972Y35644D02*
Y94344D01*
Y35644D02*
X886972D01*
X854972Y94344D02*
X886972D01*
Y136744D02*
Y195444D01*
X854972Y136744D02*
Y195444D01*
Y136744D02*
X886972D01*
X854972Y195444D02*
X886972D01*
Y237844D02*
Y296544D01*
X854972Y237844D02*
Y296544D01*
Y237844D02*
X886972D01*
X854972Y296544D02*
X886972D01*
Y338944D02*
Y397644D01*
X854972Y338944D02*
Y397644D01*
Y338944D02*
X886972D01*
X854972Y397644D02*
X886972D01*
Y802144D02*
Y860844D01*
X854972Y802144D02*
Y860844D01*
Y802144D02*
X886972D01*
X854972Y860844D02*
X886972D01*
M02*
