G04*
G04 #@! TF.GenerationSoftware,Altium Limited,Altium Designer,20.1.11 (218)*
G04*
G04 Layer_Color=12632256*
%FSLAX44Y44*%
%MOMM*%
G71*
G04*
G04 #@! TF.SameCoordinates,E9406FBE-0CF5-42A4-9056-286B0C8E7C04*
G04*
G04*
G04 #@! TF.FilePolarity,Positive*
G04*
G01*
G75*
%ADD103C,2.5400*%
%ADD104C,1.5000*%
%ADD105R,1.3000X1.3000*%
%ADD106C,1.3000*%
%ADD107R,1.0000X1.0000*%
%ADD108R,1.3000X1.3000*%
%ADD109C,1.5240*%
%ADD110R,1.4000X1.4000*%
%ADD111C,1.4000*%
%ADD112C,3.2500*%
%ADD113C,2.4000*%
%ADD114R,2.0000X2.0000*%
%ADD115C,2.0000*%
D103*
X142240Y410210D02*
D03*
X402590Y582930D02*
D03*
X374650Y292100D02*
D03*
X377190Y607060D02*
D03*
X326390Y308610D02*
D03*
X166370Y355600D02*
D03*
X149860Y960120D02*
D03*
X43180Y383540D02*
D03*
X427990Y693420D02*
D03*
X151130Y762000D02*
D03*
X91440Y163830D02*
D03*
D104*
X278130Y551180D02*
D03*
D105*
X52630Y746760D02*
D03*
D106*
X87630D02*
D03*
X219710Y961110D02*
D03*
D107*
X704601Y152046D02*
D03*
X691901D02*
D03*
X704601Y164746D02*
D03*
X691901D02*
D03*
X704601Y177446D02*
D03*
X691901D02*
D03*
X544830Y260350D02*
D03*
X557530D02*
D03*
X544830Y247650D02*
D03*
X557530D02*
D03*
X544830Y234950D02*
D03*
X557530D02*
D03*
X704850Y298450D02*
D03*
X692150D02*
D03*
X704850Y311150D02*
D03*
X692150D02*
D03*
X704850Y323850D02*
D03*
X692150D02*
D03*
X544830Y396240D02*
D03*
X557530D02*
D03*
X544830Y383540D02*
D03*
X557530D02*
D03*
X544830Y370840D02*
D03*
X557530D02*
D03*
X565150Y643890D02*
D03*
X552450D02*
D03*
X565150Y656590D02*
D03*
X552450D02*
D03*
X565150Y669290D02*
D03*
X552450D02*
D03*
X562610Y800100D02*
D03*
X549910D02*
D03*
X562610Y812800D02*
D03*
X549910D02*
D03*
X562610Y825500D02*
D03*
X549910D02*
D03*
X691901Y755296D02*
D03*
X704601D02*
D03*
X691901Y742596D02*
D03*
X704601D02*
D03*
X691901Y729896D02*
D03*
X704601D02*
D03*
X691901Y903886D02*
D03*
X704601D02*
D03*
X691901Y891186D02*
D03*
X704601D02*
D03*
X691901Y878486D02*
D03*
X704601D02*
D03*
D108*
X219710Y926110D02*
D03*
D109*
X57150Y822960D02*
D03*
Y848360D02*
D03*
X82550Y822960D02*
D03*
Y848360D02*
D03*
D110*
X1362710Y457200D02*
D03*
Y614680D02*
D03*
D111*
X1344930Y447040D02*
D03*
X1362710Y436880D02*
D03*
X1344930Y426720D02*
D03*
X1362710Y416560D02*
D03*
X1344930Y406400D02*
D03*
X1362710Y396240D02*
D03*
X1344930Y386080D02*
D03*
Y543560D02*
D03*
X1362710Y553720D02*
D03*
X1344930Y563880D02*
D03*
X1362710Y574040D02*
D03*
X1344930Y584200D02*
D03*
X1362710Y594360D02*
D03*
X1344930Y604520D02*
D03*
D112*
X1388110Y358140D02*
D03*
Y642620D02*
D03*
D113*
X1353820Y340360D02*
D03*
Y660400D02*
D03*
D114*
X1314450Y210820D02*
D03*
D115*
X1339850D02*
D03*
X1314450Y185420D02*
D03*
X1339850D02*
D03*
X1314450Y160020D02*
D03*
X1339850D02*
D03*
X1314450Y134620D02*
D03*
X1339850D02*
D03*
X1314450Y109220D02*
D03*
X1339850D02*
D03*
M02*
