G04 Layer_Color=16711935*
%FSLAX44Y44*%
%MOMM*%
G71*
G01*
G75*
%ADD68R,0.9032X1.4032*%
%ADD75R,1.4032X1.0032*%
%ADD76R,1.0032X1.4032*%
%ADD87R,2.9000X0.6500*%
%ADD92R,2.2032X2.2032*%
%ADD93C,2.2032*%
%ADD94R,1.2032X1.2032*%
%ADD95C,1.7272*%
%ADD96C,4.7032*%
%ADD97C,2.2860*%
%ADD98C,1.5032*%
%ADD99C,0.9032*%
%ADD100C,1.2032*%
%ADD101C,0.7032*%
%ADD102C,1.3032*%
%ADD103C,1.7032*%
%ADD104C,0.5400*%
%ADD105R,1.7532X1.5532*%
%ADD106R,1.2032X1.8032*%
%ADD107R,2.5032X2.4032*%
%ADD108R,1.8532X0.5032*%
%ADD109R,0.9032X0.6032*%
%ADD110O,0.6032X1.7032*%
%ADD111C,0.6332*%
D68*
X108492Y542339D02*
D03*
X92492D02*
D03*
X641165Y943612D02*
D03*
X625165D02*
D03*
X641165Y920111D02*
D03*
X625165D02*
D03*
X700623Y608394D02*
D03*
X716622D02*
D03*
X729623D02*
D03*
X745623D02*
D03*
X700623Y633944D02*
D03*
X716622D02*
D03*
X745622D02*
D03*
X729622D02*
D03*
X813623Y661944D02*
D03*
X797623D02*
D03*
X783223D02*
D03*
X767223D02*
D03*
X745622Y651144D02*
D03*
X729622D02*
D03*
X700623Y709494D02*
D03*
X716622D02*
D03*
X729623D02*
D03*
X745623D02*
D03*
X700623Y735044D02*
D03*
X716622D02*
D03*
X745622D02*
D03*
X729622D02*
D03*
X813623Y763044D02*
D03*
X797623D02*
D03*
X783223D02*
D03*
X767223D02*
D03*
X745622Y752244D02*
D03*
X729622D02*
D03*
X700623Y347394D02*
D03*
X716622D02*
D03*
X729623D02*
D03*
X745623D02*
D03*
X700623Y372944D02*
D03*
X716622D02*
D03*
X745622D02*
D03*
X729622D02*
D03*
X813623Y400944D02*
D03*
X797623D02*
D03*
X783223D02*
D03*
X767223D02*
D03*
X745622Y390144D02*
D03*
X729622D02*
D03*
X700623Y810594D02*
D03*
X716622D02*
D03*
X729623D02*
D03*
X745623D02*
D03*
X700623Y836144D02*
D03*
X716622D02*
D03*
X745622D02*
D03*
X729622D02*
D03*
X813623Y864144D02*
D03*
X797623D02*
D03*
X783223D02*
D03*
X767223D02*
D03*
X745622Y853344D02*
D03*
X729622D02*
D03*
X700623Y911694D02*
D03*
X716622D02*
D03*
X729623D02*
D03*
X745623D02*
D03*
X700623Y937244D02*
D03*
X716622D02*
D03*
X745622D02*
D03*
X729622D02*
D03*
X813623Y965244D02*
D03*
X797623D02*
D03*
X783223D02*
D03*
X767223D02*
D03*
X745622Y954444D02*
D03*
X729622D02*
D03*
X700623Y44094D02*
D03*
X716622D02*
D03*
X729623D02*
D03*
X745623D02*
D03*
X700623Y69644D02*
D03*
X716622D02*
D03*
X745622D02*
D03*
X729622D02*
D03*
X813623Y97644D02*
D03*
X797623D02*
D03*
X783223D02*
D03*
X767223D02*
D03*
X745622Y86844D02*
D03*
X729622D02*
D03*
X700623Y145194D02*
D03*
X716622D02*
D03*
X729623D02*
D03*
X745623D02*
D03*
X700623Y170744D02*
D03*
X716622D02*
D03*
X745622D02*
D03*
X729622D02*
D03*
X813623Y198744D02*
D03*
X797623D02*
D03*
X783223D02*
D03*
X767223D02*
D03*
X745622Y187944D02*
D03*
X729622D02*
D03*
X700623Y246294D02*
D03*
X716622D02*
D03*
X729623D02*
D03*
X745623D02*
D03*
X700623Y271844D02*
D03*
X716622D02*
D03*
X745622D02*
D03*
X729622D02*
D03*
X813623Y299844D02*
D03*
X797623D02*
D03*
X783223D02*
D03*
X767223D02*
D03*
X745622Y289044D02*
D03*
X729622D02*
D03*
D75*
X998543Y140273D02*
D03*
Y126272D02*
D03*
X1036343Y188472D02*
D03*
Y174473D02*
D03*
X1084743Y155273D02*
D03*
Y141272D02*
D03*
X998143Y167572D02*
D03*
Y153573D02*
D03*
X1084743Y124373D02*
D03*
Y110373D02*
D03*
X1066544Y97072D02*
D03*
Y111073D02*
D03*
D76*
X1037344Y97172D02*
D03*
X1051344D02*
D03*
X1011543Y185963D02*
D03*
X997543D02*
D03*
X1080844D02*
D03*
X1066843D02*
D03*
X1005944Y99172D02*
D03*
X991944D02*
D03*
X215891Y656739D02*
D03*
X229891D02*
D03*
X173491Y659739D02*
D03*
X187491D02*
D03*
X118391Y506339D02*
D03*
X104391D02*
D03*
Y566838D02*
D03*
X118391D02*
D03*
X173491Y438939D02*
D03*
X187491D02*
D03*
X215891Y441939D02*
D03*
X229891D02*
D03*
X334891Y571738D02*
D03*
X320891D02*
D03*
X334891Y544339D02*
D03*
X320891D02*
D03*
X334891Y507639D02*
D03*
X320891D02*
D03*
X450541Y327839D02*
D03*
X464542D02*
D03*
X450541Y412739D02*
D03*
X464542D02*
D03*
X464642Y352939D02*
D03*
X450642D02*
D03*
X323092Y374639D02*
D03*
X309091D02*
D03*
X323092Y348139D02*
D03*
X309091D02*
D03*
X323092Y323439D02*
D03*
X309091D02*
D03*
X464641Y377939D02*
D03*
X450642D02*
D03*
X323792Y774955D02*
D03*
X309792D02*
D03*
X323792Y748455D02*
D03*
X309792D02*
D03*
X323792Y723755D02*
D03*
X309792D02*
D03*
X464542Y752839D02*
D03*
X450541D02*
D03*
X464541Y777839D02*
D03*
X450541D02*
D03*
X925523Y601844D02*
D03*
X911523D02*
D03*
X925523Y702944D02*
D03*
X911523D02*
D03*
X925523Y340844D02*
D03*
X911523D02*
D03*
X925523Y804044D02*
D03*
X911523D02*
D03*
X925523Y905144D02*
D03*
X911523D02*
D03*
X925523Y37544D02*
D03*
X911523D02*
D03*
X925523Y138644D02*
D03*
X911523D02*
D03*
X925523Y239744D02*
D03*
X911523D02*
D03*
X450541Y727839D02*
D03*
X464541D02*
D03*
X450541Y812739D02*
D03*
X464541D02*
D03*
D87*
X-124528Y328420D02*
D03*
Y336420D02*
D03*
Y344420D02*
D03*
Y352420D02*
D03*
Y360420D02*
D03*
Y368420D02*
D03*
Y376420D02*
D03*
Y384420D02*
D03*
Y392420D02*
D03*
Y400420D02*
D03*
Y408420D02*
D03*
Y416420D02*
D03*
Y424420D02*
D03*
Y432420D02*
D03*
Y440420D02*
D03*
Y448420D02*
D03*
Y456420D02*
D03*
Y464420D02*
D03*
Y504420D02*
D03*
Y512420D02*
D03*
Y520420D02*
D03*
Y528420D02*
D03*
Y536420D02*
D03*
Y544420D02*
D03*
Y552420D02*
D03*
Y560420D02*
D03*
Y568420D02*
D03*
Y576420D02*
D03*
Y584420D02*
D03*
Y592420D02*
D03*
Y600420D02*
D03*
Y608420D02*
D03*
Y616420D02*
D03*
Y624420D02*
D03*
Y632420D02*
D03*
Y640420D02*
D03*
Y648420D02*
D03*
Y656420D02*
D03*
Y664420D02*
D03*
Y672420D02*
D03*
D92*
X83000Y649200D02*
D03*
X1271410Y323720D02*
D03*
D93*
X83000Y674600D02*
D03*
Y776200D02*
D03*
Y801600D02*
D03*
Y827000D02*
D03*
Y700000D02*
D03*
Y750800D02*
D03*
X1296810Y323720D02*
D03*
X1271410Y298320D02*
D03*
X1296810D02*
D03*
X1271410Y272920D02*
D03*
X1296810D02*
D03*
X1271410Y247520D02*
D03*
X1296810D02*
D03*
X1271410Y222120D02*
D03*
X1296810D02*
D03*
D94*
X899665Y668611D02*
D03*
Y655911D02*
D03*
X912365Y668611D02*
D03*
Y655911D02*
D03*
X925065Y668611D02*
D03*
Y655911D02*
D03*
Y757011D02*
D03*
Y769711D02*
D03*
X912365Y757011D02*
D03*
Y769711D02*
D03*
X899665Y757011D02*
D03*
Y769711D02*
D03*
Y870811D02*
D03*
Y858111D02*
D03*
X912365Y870811D02*
D03*
Y858111D02*
D03*
X925065Y870811D02*
D03*
Y858111D02*
D03*
Y959211D02*
D03*
Y971911D02*
D03*
X912365Y959211D02*
D03*
Y971911D02*
D03*
X899665Y959211D02*
D03*
Y971911D02*
D03*
Y104311D02*
D03*
Y91611D02*
D03*
X912365Y104311D02*
D03*
Y91611D02*
D03*
X925065Y104311D02*
D03*
Y91611D02*
D03*
Y192714D02*
D03*
Y205414D02*
D03*
X912365Y192714D02*
D03*
Y205414D02*
D03*
X899665Y192714D02*
D03*
Y205414D02*
D03*
Y306511D02*
D03*
Y293811D02*
D03*
X912365Y306511D02*
D03*
Y293811D02*
D03*
X925065Y306511D02*
D03*
Y293811D02*
D03*
Y394911D02*
D03*
Y407611D02*
D03*
X912365Y394911D02*
D03*
Y407611D02*
D03*
X899665Y394911D02*
D03*
Y407611D02*
D03*
D95*
X1273100Y549110D02*
D03*
X1247700Y561810D02*
D03*
X1273100Y599910D02*
D03*
X1247700Y612610D02*
D03*
X1273100Y625310D02*
D03*
X1247700Y638010D02*
D03*
Y498310D02*
D03*
X1273100Y485610D02*
D03*
X1247700Y472910D02*
D03*
X1273100Y460210D02*
D03*
X1247700Y447510D02*
D03*
X1273100Y434810D02*
D03*
X1247700Y422110D02*
D03*
X1273100Y409410D02*
D03*
Y574510D02*
D03*
X1247700Y587210D02*
D03*
D96*
X1336600Y396710D02*
D03*
Y650710D02*
D03*
D97*
X1382300Y368810D02*
D03*
Y678610D02*
D03*
D98*
X-25000Y674000D02*
D03*
X307366Y176110D02*
D03*
Y213911D02*
D03*
X-78927Y630220D02*
D03*
X-53927Y640920D02*
D03*
X-48928Y464420D02*
D03*
X-93028Y416420D02*
D03*
Y392420D02*
D03*
Y368420D02*
D03*
X-93228Y350720D02*
D03*
X-47727Y348120D02*
D03*
X-69227D02*
D03*
X1209910Y273030D02*
D03*
X1145643Y187072D02*
D03*
X1168243Y214673D02*
D03*
X1213111Y323420D02*
D03*
X208191Y549339D02*
D03*
X404004Y81970D02*
D03*
X279004Y81970D02*
D03*
Y119928D02*
D03*
X154004Y81970D02*
D03*
Y119928D02*
D03*
X29004Y81970D02*
D03*
Y119928D02*
D03*
X404004D02*
D03*
X496772Y107770D02*
D03*
X-65627Y448420D02*
D03*
X1196829Y170514D02*
D03*
X1253544Y111284D02*
D03*
X1196033Y137673D02*
D03*
X1188833Y183773D02*
D03*
X946533Y122672D02*
D03*
Y143973D02*
D03*
X491810Y60920D02*
D03*
X370584D02*
D03*
X249359D02*
D03*
X128130Y60920D02*
D03*
X94456Y165480D02*
D03*
Y178180D02*
D03*
X81756D02*
D03*
X69056D02*
D03*
X56356D02*
D03*
X43656D02*
D03*
X30956D02*
D03*
X18256D02*
D03*
Y165480D02*
D03*
X30956D02*
D03*
X43656D02*
D03*
X56356D02*
D03*
X69056D02*
D03*
X81756D02*
D03*
X338665Y232111D02*
D03*
X338466Y192911D02*
D03*
D99*
X-100227Y648420D02*
D03*
Y664420D02*
D03*
Y672420D02*
D03*
X680867Y896211D02*
D03*
X717272Y657344D02*
D03*
X-67828Y328420D02*
D03*
X650965Y925111D02*
D03*
Y937212D02*
D03*
X899723Y138444D02*
D03*
X717923Y186244D02*
D03*
X783673Y163044D02*
D03*
X784523Y148094D02*
D03*
X822723Y136294D02*
D03*
X837823Y153544D02*
D03*
X806873Y163144D02*
D03*
X838823Y163144D02*
D03*
X837022Y182794D02*
D03*
X933623Y156344D02*
D03*
X849723Y125844D02*
D03*
X899723Y904944D02*
D03*
X717923Y952744D02*
D03*
X783673Y929544D02*
D03*
X784523Y914594D02*
D03*
X822723Y902794D02*
D03*
X837823Y920044D02*
D03*
X806873Y929644D02*
D03*
X838823Y929644D02*
D03*
X837022Y949294D02*
D03*
X933623Y922844D02*
D03*
X849723Y892344D02*
D03*
X899723Y702744D02*
D03*
X717923Y750544D02*
D03*
X783673Y727344D02*
D03*
X784523Y712394D02*
D03*
X822723Y700594D02*
D03*
X837823Y717844D02*
D03*
X806873Y727444D02*
D03*
X838823Y727444D02*
D03*
X837022Y747094D02*
D03*
X933623Y720644D02*
D03*
X849723Y690144D02*
D03*
X899723Y340644D02*
D03*
X717923Y388444D02*
D03*
X783673Y365244D02*
D03*
X784523Y350294D02*
D03*
X822723Y338494D02*
D03*
X837823Y355744D02*
D03*
X806873Y365344D02*
D03*
X838823Y365344D02*
D03*
X837022Y384994D02*
D03*
X933623Y358544D02*
D03*
X849723Y328044D02*
D03*
X899723Y803844D02*
D03*
X717923Y851644D02*
D03*
X783673Y828444D02*
D03*
X784523Y813494D02*
D03*
X822723Y801694D02*
D03*
X837823Y818944D02*
D03*
X806873Y828544D02*
D03*
X838823Y828544D02*
D03*
X837022Y848194D02*
D03*
X933623Y821744D02*
D03*
X849723Y791244D02*
D03*
X899723Y601644D02*
D03*
X783673Y626244D02*
D03*
X784523Y611294D02*
D03*
X822723Y599494D02*
D03*
X837823Y616744D02*
D03*
X806873Y626344D02*
D03*
X838823Y626344D02*
D03*
X837022Y645994D02*
D03*
X933623Y619544D02*
D03*
X849723Y589044D02*
D03*
X899723Y37344D02*
D03*
X717923Y85144D02*
D03*
X783673Y61944D02*
D03*
X784523Y46994D02*
D03*
X822723Y35194D02*
D03*
X837823Y52444D02*
D03*
X806873Y62044D02*
D03*
X838823Y62044D02*
D03*
X837022Y81694D02*
D03*
X933623Y55244D02*
D03*
X419491Y412739D02*
D03*
X404191Y386939D02*
D03*
X837823Y254644D02*
D03*
X520792Y400689D02*
D03*
X520991Y800189D02*
D03*
X837022Y283894D02*
D03*
X616765Y94910D02*
D03*
X609765Y73210D02*
D03*
X558316Y105111D02*
D03*
X596466Y92111D02*
D03*
X535465Y102610D02*
D03*
X693165Y954111D02*
D03*
X607165Y911611D02*
D03*
X608565Y956711D02*
D03*
X616965Y931311D02*
D03*
X535265Y935911D02*
D03*
X563365Y941011D02*
D03*
X92436Y553938D02*
D03*
X286891Y602839D02*
D03*
X368841Y528638D02*
D03*
X383891Y564239D02*
D03*
X414642Y577138D02*
D03*
X291591Y497139D02*
D03*
X267391Y484639D02*
D03*
X280291Y629539D02*
D03*
X297191Y507639D02*
D03*
X308491Y571839D02*
D03*
X349991Y784039D02*
D03*
X783673Y264144D02*
D03*
X806873Y264244D02*
D03*
X849723Y226944D02*
D03*
X899723Y239544D02*
D03*
X717923Y287344D02*
D03*
X822723Y237394D02*
D03*
X784523Y249194D02*
D03*
X838823Y264244D02*
D03*
X933623Y257444D02*
D03*
X419491Y812739D02*
D03*
X496991Y748439D02*
D03*
X436591Y730639D02*
D03*
X434391Y755238D02*
D03*
X433491Y779939D02*
D03*
X364491Y846538D02*
D03*
X349591Y732038D02*
D03*
X349391Y758438D02*
D03*
X296091Y672539D02*
D03*
Y723539D02*
D03*
Y774639D02*
D03*
Y826539D02*
D03*
X298891Y752239D02*
D03*
X404191Y735739D02*
D03*
Y762239D02*
D03*
Y786939D02*
D03*
X364491Y702238D02*
D03*
X369436Y473139D02*
D03*
X364491Y446539D02*
D03*
X296091Y374639D02*
D03*
X349991Y384039D02*
D03*
X298892Y352239D02*
D03*
X349391Y358439D02*
D03*
X296091Y323539D02*
D03*
X349591Y332039D02*
D03*
X433491Y379939D02*
D03*
X496991Y348439D02*
D03*
X434391Y355239D02*
D03*
X436591Y330639D02*
D03*
X404191Y335739D02*
D03*
Y362239D02*
D03*
X364491Y302239D02*
D03*
X296091Y272539D02*
D03*
Y426539D02*
D03*
X334592Y434638D02*
D03*
X481941D02*
D03*
X334391Y417640D02*
D03*
X481941D02*
D03*
X333092Y263839D02*
D03*
X481941D02*
D03*
X331591Y280839D02*
D03*
X481941D02*
D03*
X332991Y315339D02*
D03*
X481941Y314839D02*
D03*
X331891Y334839D02*
D03*
X481941Y331839D02*
D03*
X334891Y367839D02*
D03*
X481941Y366139D02*
D03*
X334391Y386439D02*
D03*
X481941Y382839D02*
D03*
X691756Y81180D02*
D03*
X671665Y143171D02*
D03*
X849456Y31280D02*
D03*
X1009456Y41480D02*
D03*
X1002456Y50480D02*
D03*
X991344Y49680D02*
D03*
X980256Y48580D02*
D03*
X974164Y67372D02*
D03*
X965844Y73267D02*
D03*
X661665Y97111D02*
D03*
X651865Y102110D02*
D03*
X602665Y116111D02*
D03*
X639165Y32611D02*
D03*
X650665Y44111D02*
D03*
X245858Y245920D02*
D03*
X334390Y817639D02*
D03*
X481941D02*
D03*
X334592Y834638D02*
D03*
X481941D02*
D03*
X334891Y767839D02*
D03*
X481941Y766139D02*
D03*
X334391Y786439D02*
D03*
X481941Y782839D02*
D03*
X333464Y715121D02*
D03*
X481941Y714839D02*
D03*
X331891Y734839D02*
D03*
X481941Y731839D02*
D03*
X330291Y680839D02*
D03*
X481941D02*
D03*
X333091Y663839D02*
D03*
X481941D02*
D03*
X314491Y588039D02*
D03*
X304891Y589438D02*
D03*
X294791Y592739D02*
D03*
D100*
X868814Y967792D02*
D03*
Y866692D02*
D03*
Y765592D02*
D03*
Y664492D02*
D03*
Y403492D02*
D03*
Y302392D02*
D03*
Y201292D02*
D03*
Y100192D02*
D03*
X1036344Y162073D02*
D03*
X-43127Y616520D02*
D03*
X-91427Y592420D02*
D03*
Y568420D02*
D03*
Y544420D02*
D03*
Y520420D02*
D03*
X943697Y371544D02*
D03*
Y270444D02*
D03*
Y169344D02*
D03*
Y68244D02*
D03*
X380991Y384939D02*
D03*
X42565Y856544D02*
D03*
X59665Y931744D02*
D03*
X131473Y857401D02*
D03*
X114273Y930501D02*
D03*
X170173D02*
D03*
X187373Y857401D02*
D03*
X163591Y415736D02*
D03*
X163591Y455157D02*
D03*
X599565Y928111D02*
D03*
X467942Y461438D02*
D03*
Y478539D02*
D03*
X364491Y810439D02*
D03*
X380991Y784939D02*
D03*
Y760039D02*
D03*
Y734939D02*
D03*
X364491Y410439D02*
D03*
X380991Y334939D02*
D03*
Y360039D02*
D03*
X137756Y350802D02*
D03*
X14756Y22180D02*
D03*
X943697Y935844D02*
D03*
Y834744D02*
D03*
Y733644D02*
D03*
Y632544D02*
D03*
X1213272Y40244D02*
D03*
D101*
X1051344Y83872D02*
D03*
X1038143Y83973D02*
D03*
X1068344Y86782D02*
D03*
X1079343D02*
D03*
X1097843Y147172D02*
D03*
X1097143Y135072D02*
D03*
X1097434Y114873D02*
D03*
Y125872D02*
D03*
X993344Y86782D02*
D03*
X1004343D02*
D03*
X983044Y132872D02*
D03*
Y142872D02*
D03*
X985253Y165872D02*
D03*
Y154873D02*
D03*
X1036344Y199673D02*
D03*
X1009343Y198963D02*
D03*
X998344D02*
D03*
X1068344D02*
D03*
X1079343D02*
D03*
X-97227Y632420D02*
D03*
X177091Y636539D02*
D03*
X482092Y323789D02*
D03*
X482292Y374389D02*
D03*
X482391Y723689D02*
D03*
X482291Y774689D02*
D03*
X248091Y639439D02*
D03*
X187491Y647339D02*
D03*
X183491Y640838D02*
D03*
X221791Y641739D02*
D03*
X205691Y654239D02*
D03*
X108492Y579639D02*
D03*
X117391Y579739D02*
D03*
X108492Y519039D02*
D03*
X117391Y518939D02*
D03*
X183791Y457939D02*
D03*
X185591Y450039D02*
D03*
X205691Y444439D02*
D03*
X221791Y456939D02*
D03*
X229391Y454539D02*
D03*
X248091Y459239D02*
D03*
X294891Y548639D02*
D03*
X302891Y536839D02*
D03*
X296791Y563239D02*
D03*
X229391Y644139D02*
D03*
X-92038Y440420D02*
D03*
X71565Y461211D02*
D03*
Y469711D02*
D03*
Y485611D02*
D03*
Y494111D02*
D03*
Y520911D02*
D03*
Y529411D02*
D03*
Y586411D02*
D03*
Y594911D02*
D03*
Y559211D02*
D03*
Y567711D02*
D03*
D102*
X1050143Y243272D02*
D03*
X1072543D02*
D03*
X1084643Y253172D02*
D03*
X1103043D02*
D03*
X1115143Y243272D02*
D03*
X305591Y555239D02*
D03*
X130756Y226401D02*
D03*
X1007544Y243272D02*
D03*
X1019643Y253172D02*
D03*
X1038043D02*
D03*
D103*
X1155266Y38526D02*
D03*
X1172093D02*
D03*
X1212965Y109033D02*
D03*
X214765Y185311D02*
D03*
X141365D02*
D03*
X48756Y292180D02*
D03*
Y311180D02*
D03*
X104756Y320180D02*
D03*
X47926Y380050D02*
D03*
D104*
X1192569Y81759D02*
D03*
Y66244D02*
D03*
Y74001D02*
D03*
D105*
X-3000Y673000D02*
D03*
Y651000D02*
D03*
X53000Y673000D02*
D03*
Y651000D02*
D03*
D106*
X35000Y673000D02*
D03*
X15000D02*
D03*
D107*
X388391Y509639D02*
D03*
X445391D02*
D03*
X388391Y544338D02*
D03*
X445391D02*
D03*
D108*
X767223Y606844D02*
D03*
Y613344D02*
D03*
Y619844D02*
D03*
Y626344D02*
D03*
Y632844D02*
D03*
Y639344D02*
D03*
Y645844D02*
D03*
X822723Y606844D02*
D03*
Y613344D02*
D03*
Y619844D02*
D03*
Y626344D02*
D03*
Y632844D02*
D03*
Y639344D02*
D03*
Y645844D02*
D03*
X767223Y707944D02*
D03*
Y714444D02*
D03*
Y720944D02*
D03*
Y727444D02*
D03*
Y733944D02*
D03*
Y740444D02*
D03*
Y746944D02*
D03*
X822723Y707944D02*
D03*
Y714444D02*
D03*
Y720944D02*
D03*
Y727444D02*
D03*
Y733944D02*
D03*
Y740444D02*
D03*
Y746944D02*
D03*
X767223Y345844D02*
D03*
Y352344D02*
D03*
Y358844D02*
D03*
Y365344D02*
D03*
Y371844D02*
D03*
Y378344D02*
D03*
Y384844D02*
D03*
X822723Y345844D02*
D03*
Y352344D02*
D03*
Y358844D02*
D03*
Y365344D02*
D03*
Y371844D02*
D03*
Y378344D02*
D03*
Y384844D02*
D03*
X767223Y809044D02*
D03*
Y815544D02*
D03*
Y822044D02*
D03*
Y828544D02*
D03*
Y835044D02*
D03*
Y841544D02*
D03*
Y848044D02*
D03*
X822723Y809044D02*
D03*
Y815544D02*
D03*
Y822044D02*
D03*
Y828544D02*
D03*
Y835044D02*
D03*
Y841544D02*
D03*
Y848044D02*
D03*
X767223Y910144D02*
D03*
Y916644D02*
D03*
Y923144D02*
D03*
Y929644D02*
D03*
Y936144D02*
D03*
Y942644D02*
D03*
Y949144D02*
D03*
X822723Y910144D02*
D03*
Y916644D02*
D03*
Y923144D02*
D03*
Y929644D02*
D03*
Y936144D02*
D03*
Y942644D02*
D03*
Y949144D02*
D03*
X767223Y42544D02*
D03*
Y49044D02*
D03*
Y55544D02*
D03*
Y62044D02*
D03*
Y68544D02*
D03*
Y75044D02*
D03*
Y81544D02*
D03*
X822723Y42544D02*
D03*
Y49044D02*
D03*
Y55544D02*
D03*
Y62044D02*
D03*
Y68544D02*
D03*
Y75044D02*
D03*
Y81544D02*
D03*
X767223Y143644D02*
D03*
Y150144D02*
D03*
Y156644D02*
D03*
Y163144D02*
D03*
Y169644D02*
D03*
Y176144D02*
D03*
Y182644D02*
D03*
X822723Y143644D02*
D03*
Y150144D02*
D03*
Y156644D02*
D03*
Y163144D02*
D03*
Y169644D02*
D03*
Y176144D02*
D03*
Y182644D02*
D03*
X767223Y244744D02*
D03*
Y251244D02*
D03*
Y257744D02*
D03*
Y264244D02*
D03*
Y270744D02*
D03*
Y277244D02*
D03*
Y283744D02*
D03*
X822723Y244744D02*
D03*
Y251244D02*
D03*
Y257744D02*
D03*
Y264244D02*
D03*
Y270744D02*
D03*
Y277244D02*
D03*
Y283744D02*
D03*
D109*
X925272Y619544D02*
D03*
Y632544D02*
D03*
X904772D02*
D03*
Y626044D02*
D03*
Y619544D02*
D03*
X925272Y720644D02*
D03*
Y733644D02*
D03*
X904772D02*
D03*
Y727144D02*
D03*
Y720644D02*
D03*
X925272Y358544D02*
D03*
Y371544D02*
D03*
X904772D02*
D03*
Y365044D02*
D03*
Y358544D02*
D03*
X925272Y821744D02*
D03*
Y834744D02*
D03*
X904772D02*
D03*
Y828244D02*
D03*
Y821744D02*
D03*
X925272Y922844D02*
D03*
Y935844D02*
D03*
X904772D02*
D03*
Y929344D02*
D03*
Y922844D02*
D03*
X925272Y55244D02*
D03*
Y68244D02*
D03*
X904772D02*
D03*
Y61744D02*
D03*
Y55244D02*
D03*
X925272Y156344D02*
D03*
Y169344D02*
D03*
X904772D02*
D03*
Y162844D02*
D03*
Y156344D02*
D03*
X925272Y257444D02*
D03*
Y270444D02*
D03*
X904772D02*
D03*
Y263944D02*
D03*
Y257444D02*
D03*
D110*
X880722Y608744D02*
D03*
X874222D02*
D03*
X867722D02*
D03*
X861222D02*
D03*
X880722Y649644D02*
D03*
X874222D02*
D03*
X867722D02*
D03*
X861222D02*
D03*
X880722Y709844D02*
D03*
X874222D02*
D03*
X867722D02*
D03*
X861222D02*
D03*
X880722Y750744D02*
D03*
X874222D02*
D03*
X867722D02*
D03*
X861222D02*
D03*
X880722Y912044D02*
D03*
X874222D02*
D03*
X867722D02*
D03*
X861222D02*
D03*
X880722Y952944D02*
D03*
X874222D02*
D03*
X867722D02*
D03*
X861222D02*
D03*
X880722Y44444D02*
D03*
X874222D02*
D03*
X867722D02*
D03*
X861222D02*
D03*
X880722Y85344D02*
D03*
X874222D02*
D03*
X867722D02*
D03*
X861222D02*
D03*
X880722Y145544D02*
D03*
X874222D02*
D03*
X867722D02*
D03*
X861222D02*
D03*
X880722Y186444D02*
D03*
X874222D02*
D03*
X867722D02*
D03*
X861222D02*
D03*
X880722Y246644D02*
D03*
X874222D02*
D03*
X867722D02*
D03*
X861222D02*
D03*
X880722Y287544D02*
D03*
X874222D02*
D03*
X867722D02*
D03*
X861222D02*
D03*
X880722Y347744D02*
D03*
X874222D02*
D03*
X867722D02*
D03*
X861222D02*
D03*
X880722Y388644D02*
D03*
X874222D02*
D03*
X867722D02*
D03*
X861222D02*
D03*
X880722Y810944D02*
D03*
X874222D02*
D03*
X867722D02*
D03*
X861222D02*
D03*
X880722Y851844D02*
D03*
X874222D02*
D03*
X867722D02*
D03*
X861222D02*
D03*
D111*
X170691Y556839D02*
D03*
Y571839D02*
D03*
Y586839D02*
D03*
Y541839D02*
D03*
Y526839D02*
D03*
Y511839D02*
D03*
X185691Y556839D02*
D03*
Y571839D02*
D03*
Y586839D02*
D03*
Y541839D02*
D03*
Y526839D02*
D03*
Y511839D02*
D03*
X200691Y556839D02*
D03*
Y571839D02*
D03*
Y586839D02*
D03*
Y526839D02*
D03*
Y511839D02*
D03*
X245691Y556839D02*
D03*
Y571839D02*
D03*
Y586839D02*
D03*
Y541839D02*
D03*
Y526839D02*
D03*
Y511839D02*
D03*
X230691Y556839D02*
D03*
Y571839D02*
D03*
Y586839D02*
D03*
Y541839D02*
D03*
Y526839D02*
D03*
Y511839D02*
D03*
X215691Y556839D02*
D03*
Y571839D02*
D03*
Y586839D02*
D03*
Y541839D02*
D03*
Y526839D02*
D03*
Y511839D02*
D03*
X200691Y541839D02*
D03*
M02*
