G04*
G04 #@! TF.GenerationSoftware,Altium Limited,Altium Designer,20.1.11 (218)*
G04*
G04 Layer_Physical_Order=5*
G04 Layer_Color=16440176*
%FSLAX44Y44*%
%MOMM*%
G71*
G04*
G04 #@! TF.SameCoordinates,E25B43FC-70F8-4359-BC63-D8F09BEAA3E7*
G04*
G04*
G04 #@! TF.FilePolarity,Positive*
G04*
G01*
G75*
%ADD19C,0.2540*%
%ADD97C,0.3000*%
%ADD101C,2.5400*%
%ADD105R,1.0000X1.0000*%
%ADD114C,0.4500*%
%ADD115C,0.6000*%
%ADD116C,0.5000*%
G36*
X402382Y327868D02*
X402023Y326431D01*
X401219Y325894D01*
X400441Y324729D01*
X400168Y323356D01*
X400441Y321982D01*
X401219Y320818D01*
X402383Y320040D01*
X403757Y319767D01*
X405130Y320040D01*
X406400Y319361D01*
Y318027D01*
X405418Y317222D01*
X405130Y317279D01*
X403757Y317006D01*
X402592Y316228D01*
X401814Y315063D01*
X401541Y313690D01*
X401814Y312317D01*
X402592Y311152D01*
X403757Y310374D01*
X405130Y310101D01*
X405418Y310158D01*
X406400Y309353D01*
Y247672D01*
X405418Y246866D01*
X405130Y246924D01*
X403464Y246592D01*
X402052Y245648D01*
X401108Y244236D01*
X400776Y242570D01*
X401108Y240904D01*
X402052Y239492D01*
X403464Y238548D01*
X405130Y238216D01*
X405418Y238274D01*
X406400Y237468D01*
Y31750D01*
X400050Y25400D01*
X399550Y25900D01*
X185287D01*
X185000Y25957D01*
X184713Y25900D01*
X159887D01*
X159600Y25957D01*
X159313Y25900D01*
X134487D01*
X134200Y25957D01*
X133913Y25900D01*
X80510D01*
Y26065D01*
X66025Y40550D01*
X66126Y250276D01*
X146050Y330200D01*
X400050D01*
X402382Y327868D01*
D02*
G37*
G36*
X412750Y774700D02*
X298450D01*
Y965200D01*
X412750D01*
Y774700D01*
D02*
G37*
%LPC*%
G36*
X203200Y320584D02*
X201534Y320252D01*
X200121Y319308D01*
X199178Y317896D01*
X198846Y316230D01*
X199178Y314564D01*
X200121Y313151D01*
X201534Y312208D01*
X203200Y311876D01*
X204866Y312208D01*
X206278Y313151D01*
X207222Y314564D01*
X207554Y316230D01*
X207222Y317896D01*
X206278Y319308D01*
X204866Y320252D01*
X203200Y320584D01*
D02*
G37*
G36*
X281940Y306987D02*
X280274Y306656D01*
X278862Y305712D01*
X277918Y304300D01*
X277586Y302634D01*
X277918Y300968D01*
X278862Y299555D01*
X280274Y298612D01*
X281940Y298280D01*
X283606Y298612D01*
X285019Y299555D01*
X285962Y300968D01*
X286294Y302634D01*
X285962Y304300D01*
X285019Y305712D01*
X283606Y306656D01*
X281940Y306987D01*
D02*
G37*
G36*
X299156Y305764D02*
X297490Y305432D01*
X296078Y304488D01*
X295134Y303076D01*
X294802Y301410D01*
X295134Y299744D01*
X296078Y298332D01*
X297490Y297388D01*
X299156Y297056D01*
X300822Y297388D01*
X302235Y298332D01*
X303178Y299744D01*
X303510Y301410D01*
X303178Y303076D01*
X302235Y304488D01*
X300822Y305432D01*
X299156Y305764D01*
D02*
G37*
G36*
X261620Y290104D02*
X259954Y289772D01*
X258542Y288829D01*
X257598Y287416D01*
X257266Y285750D01*
X257598Y284084D01*
X258542Y282672D01*
X259954Y281728D01*
X261620Y281396D01*
X263286Y281728D01*
X264699Y282672D01*
X265642Y284084D01*
X265974Y285750D01*
X265642Y287416D01*
X264699Y288829D01*
X263286Y289772D01*
X261620Y290104D01*
D02*
G37*
G36*
X364490Y277404D02*
X362824Y277072D01*
X361412Y276129D01*
X360468Y274716D01*
X360136Y273050D01*
X360468Y271384D01*
X361412Y269972D01*
X362014Y269569D01*
X361746Y268221D01*
X361554Y268182D01*
X360141Y267239D01*
X359198Y265826D01*
X358866Y264160D01*
X359198Y262494D01*
X360141Y261082D01*
X361554Y260138D01*
X363220Y259806D01*
X364886Y260138D01*
X366298Y261082D01*
X366701Y261684D01*
X368050Y261416D01*
X368088Y261224D01*
X369031Y259811D01*
X370444Y258868D01*
X372110Y258536D01*
X373776Y258868D01*
X375188Y259811D01*
X376132Y261224D01*
X376464Y262890D01*
X376132Y264556D01*
X375188Y265968D01*
X373776Y266912D01*
X372110Y267244D01*
X370444Y266912D01*
X369031Y265968D01*
X368629Y265366D01*
X367281Y265634D01*
X367242Y265826D01*
X366298Y267239D01*
X365696Y267641D01*
X365964Y268990D01*
X366156Y269028D01*
X367569Y269972D01*
X368512Y271384D01*
X368844Y273050D01*
X368512Y274716D01*
X367569Y276129D01*
X366156Y277072D01*
X364490Y277404D01*
D02*
G37*
G36*
X209550Y260894D02*
X207884Y260562D01*
X206472Y259618D01*
X205528Y258206D01*
X205196Y256540D01*
X205528Y254874D01*
X206472Y253461D01*
X207884Y252518D01*
X209550Y252186D01*
X211216Y252518D01*
X212628Y253461D01*
X213572Y254874D01*
X213904Y256540D01*
X213572Y258206D01*
X212628Y259618D01*
X211216Y260562D01*
X209550Y260894D01*
D02*
G37*
G36*
X168706Y255091D02*
X167040Y254760D01*
X165628Y253816D01*
X164684Y252404D01*
X164353Y250737D01*
X164684Y249072D01*
X165628Y247659D01*
X167040Y246715D01*
X168706Y246384D01*
X170373Y246715D01*
X171785Y247659D01*
X172729Y249072D01*
X173060Y250737D01*
X172729Y252404D01*
X171785Y253816D01*
X170373Y254760D01*
X168706Y255091D01*
D02*
G37*
G36*
X226060Y254544D02*
X224394Y254212D01*
X222981Y253269D01*
X222038Y251856D01*
X221706Y250190D01*
X222038Y248524D01*
X222981Y247111D01*
X224394Y246168D01*
X226060Y245836D01*
X227726Y246168D01*
X229139Y247111D01*
X230082Y248524D01*
X230414Y250190D01*
X230082Y251856D01*
X229139Y253269D01*
X227726Y254212D01*
X226060Y254544D01*
D02*
G37*
G36*
X209550Y246924D02*
X207884Y246592D01*
X206472Y245648D01*
X205528Y244236D01*
X205196Y242570D01*
X205528Y240904D01*
X206472Y239492D01*
X207884Y238548D01*
X209550Y238216D01*
X211216Y238548D01*
X212628Y239492D01*
X213572Y240904D01*
X213904Y242570D01*
X213572Y244236D01*
X212628Y245648D01*
X211216Y246592D01*
X209550Y246924D01*
D02*
G37*
G36*
X152400D02*
X150734Y246592D01*
X149321Y245648D01*
X148378Y244236D01*
X148046Y242570D01*
X148378Y240904D01*
X149321Y239492D01*
X150734Y238548D01*
X152400Y238216D01*
X154066Y238548D01*
X155478Y239492D01*
X156422Y240904D01*
X156754Y242570D01*
X156422Y244236D01*
X155478Y245648D01*
X154066Y246592D01*
X152400Y246924D01*
D02*
G37*
G36*
X360680Y243114D02*
X359014Y242782D01*
X357602Y241838D01*
X356658Y240426D01*
X356326Y238760D01*
X356658Y237094D01*
X357602Y235681D01*
X359014Y234738D01*
X360680Y234406D01*
X362346Y234738D01*
X363759Y235681D01*
X364702Y237094D01*
X365034Y238760D01*
X364702Y240426D01*
X363759Y241838D01*
X362346Y242782D01*
X360680Y243114D01*
D02*
G37*
G36*
X378460Y240574D02*
X376794Y240242D01*
X375382Y239298D01*
X374438Y237886D01*
X374106Y236220D01*
X374438Y234554D01*
X375382Y233141D01*
X376794Y232198D01*
X378460Y231866D01*
X380126Y232198D01*
X381539Y233141D01*
X382482Y234554D01*
X382814Y236220D01*
X382482Y237886D01*
X381539Y239298D01*
X380126Y240242D01*
X378460Y240574D01*
D02*
G37*
G36*
X212090Y230414D02*
X210424Y230082D01*
X209011Y229139D01*
X208068Y227726D01*
X207736Y226060D01*
X208068Y224394D01*
X209011Y222981D01*
X210424Y222038D01*
X212090Y221706D01*
X213756Y222038D01*
X215168Y222981D01*
X216112Y224394D01*
X216444Y226060D01*
X216112Y227726D01*
X215168Y229139D01*
X213756Y230082D01*
X212090Y230414D01*
D02*
G37*
G36*
X375587Y227874D02*
X373921Y227542D01*
X372508Y226598D01*
X371564Y225186D01*
X371233Y223520D01*
X371564Y221854D01*
X372508Y220441D01*
X373921Y219498D01*
X375587Y219166D01*
X377253Y219498D01*
X378665Y220441D01*
X379609Y221854D01*
X379940Y223520D01*
X379609Y225186D01*
X378665Y226598D01*
X377253Y227542D01*
X375587Y227874D01*
D02*
G37*
G36*
X222250Y224064D02*
X220584Y223732D01*
X219172Y222788D01*
X218228Y221376D01*
X217896Y219710D01*
X218228Y218044D01*
X219172Y216632D01*
X220584Y215688D01*
X222250Y215356D01*
X223916Y215688D01*
X225329Y216632D01*
X226272Y218044D01*
X226604Y219710D01*
X226272Y221376D01*
X225329Y222788D01*
X223916Y223732D01*
X222250Y224064D01*
D02*
G37*
G36*
X212090Y216444D02*
X210424Y216112D01*
X209011Y215168D01*
X208068Y213756D01*
X207736Y212090D01*
X208068Y210424D01*
X209011Y209011D01*
X210424Y208068D01*
X212090Y207736D01*
X213756Y208068D01*
X215168Y209011D01*
X216112Y210424D01*
X216444Y212090D01*
X216112Y213756D01*
X215168Y215168D01*
X213756Y216112D01*
X212090Y216444D01*
D02*
G37*
G36*
X166569Y211051D02*
X164903Y210719D01*
X163490Y209776D01*
X162547Y208363D01*
X162215Y206697D01*
X162547Y205031D01*
X163490Y203619D01*
X164903Y202675D01*
X166569Y202343D01*
X168235Y202675D01*
X169647Y203619D01*
X170591Y205031D01*
X170923Y206697D01*
X170591Y208363D01*
X169647Y209776D01*
X168235Y210719D01*
X166569Y211051D01*
D02*
G37*
G36*
X222250Y209670D02*
X220584Y209339D01*
X219172Y208395D01*
X218228Y206983D01*
X217896Y205317D01*
X218228Y203651D01*
X219172Y202238D01*
X220584Y201294D01*
X222250Y200963D01*
X223916Y201294D01*
X225329Y202238D01*
X226272Y203651D01*
X226604Y205317D01*
X226272Y206983D01*
X225329Y208395D01*
X223916Y209339D01*
X222250Y209670D01*
D02*
G37*
G36*
X212090Y202474D02*
X210424Y202142D01*
X209011Y201199D01*
X208068Y199786D01*
X207736Y198120D01*
X208068Y196454D01*
X209011Y195042D01*
X210424Y194098D01*
X212090Y193766D01*
X213756Y194098D01*
X215168Y195042D01*
X216112Y196454D01*
X216444Y198120D01*
X216112Y199786D01*
X215168Y201199D01*
X213756Y202142D01*
X212090Y202474D01*
D02*
G37*
G36*
X359410Y196124D02*
X357744Y195792D01*
X356331Y194848D01*
X355388Y193436D01*
X355056Y191770D01*
X355388Y190104D01*
X356331Y188692D01*
X357744Y187748D01*
X359410Y187416D01*
X361076Y187748D01*
X362489Y188692D01*
X363432Y190104D01*
X363764Y191770D01*
X363432Y193436D01*
X362489Y194848D01*
X361076Y195792D01*
X359410Y196124D01*
D02*
G37*
G36*
X222250Y195277D02*
X220584Y194946D01*
X219172Y194002D01*
X218228Y192589D01*
X217896Y190923D01*
X218228Y189257D01*
X219172Y187845D01*
X220584Y186901D01*
X222250Y186570D01*
X223916Y186901D01*
X225329Y187845D01*
X226272Y189257D01*
X226604Y190923D01*
X226272Y192589D01*
X225329Y194002D01*
X223916Y194946D01*
X222250Y195277D01*
D02*
G37*
G36*
X378578Y191924D02*
X376912Y191593D01*
X375499Y190649D01*
X374555Y189237D01*
X374224Y187570D01*
X374555Y185904D01*
X375499Y184492D01*
X376912Y183548D01*
X378578Y183217D01*
X380244Y183548D01*
X381656Y184492D01*
X382600Y185904D01*
X382931Y187570D01*
X382600Y189237D01*
X381656Y190649D01*
X380244Y191593D01*
X378578Y191924D01*
D02*
G37*
G36*
X212090Y188504D02*
X210424Y188172D01*
X209011Y187229D01*
X208068Y185816D01*
X207736Y184150D01*
X208068Y182484D01*
X209011Y181071D01*
X210424Y180128D01*
X212090Y179796D01*
X213756Y180128D01*
X215168Y181071D01*
X216112Y182484D01*
X216444Y184150D01*
X216112Y185816D01*
X215168Y187229D01*
X213756Y188172D01*
X212090Y188504D01*
D02*
G37*
G36*
X182880Y184694D02*
X181214Y184362D01*
X179802Y183419D01*
X178858Y182006D01*
X178526Y180340D01*
X178858Y178674D01*
X179802Y177262D01*
X181214Y176318D01*
X182880Y175986D01*
X184546Y176318D01*
X185958Y177262D01*
X186902Y178674D01*
X187234Y180340D01*
X186902Y182006D01*
X185958Y183419D01*
X184546Y184362D01*
X182880Y184694D01*
D02*
G37*
G36*
X222250Y180884D02*
X220584Y180552D01*
X219172Y179608D01*
X218228Y178196D01*
X217896Y176530D01*
X218228Y174864D01*
X219172Y173451D01*
X220584Y172508D01*
X222250Y172176D01*
X223916Y172508D01*
X225329Y173451D01*
X226272Y174864D01*
X226604Y176530D01*
X226272Y178196D01*
X225329Y179608D01*
X223916Y180552D01*
X222250Y180884D01*
D02*
G37*
G36*
X168910Y179614D02*
X167244Y179282D01*
X165832Y178339D01*
X164888Y176926D01*
X164556Y175260D01*
X164888Y173594D01*
X165832Y172181D01*
X167244Y171238D01*
X168910Y170906D01*
X170576Y171238D01*
X171989Y172181D01*
X172932Y173594D01*
X173264Y175260D01*
X172932Y176926D01*
X171989Y178339D01*
X170576Y179282D01*
X168910Y179614D01*
D02*
G37*
G36*
X378578Y176193D02*
X376912Y175861D01*
X375499Y174918D01*
X374556Y173505D01*
X374224Y171839D01*
X374556Y170173D01*
X375499Y168761D01*
X376912Y167817D01*
X378578Y167486D01*
X380244Y167817D01*
X381656Y168761D01*
X382600Y170173D01*
X382931Y171839D01*
X382600Y173505D01*
X381656Y174918D01*
X380244Y175861D01*
X378578Y176193D01*
D02*
G37*
G36*
X359573Y173131D02*
X357907Y172799D01*
X356495Y171856D01*
X355551Y170443D01*
X355220Y168777D01*
X355551Y167111D01*
X356495Y165699D01*
X357907Y164755D01*
X359573Y164424D01*
X361239Y164755D01*
X362652Y165699D01*
X363596Y167111D01*
X363927Y168777D01*
X363596Y170443D01*
X362652Y171856D01*
X361239Y172799D01*
X359573Y173131D01*
D02*
G37*
G36*
X210820Y171994D02*
X209154Y171662D01*
X207742Y170718D01*
X206798Y169306D01*
X206466Y167640D01*
X206798Y165974D01*
X207742Y164562D01*
X209154Y163618D01*
X210820Y163286D01*
X212486Y163618D01*
X213899Y164562D01*
X214842Y165974D01*
X215174Y167640D01*
X214842Y169306D01*
X213899Y170718D01*
X212486Y171662D01*
X210820Y171994D01*
D02*
G37*
G36*
X165100Y165644D02*
X163434Y165312D01*
X162022Y164368D01*
X161078Y162956D01*
X160746Y161290D01*
X161078Y159624D01*
X162022Y158211D01*
X163434Y157268D01*
X165100Y156936D01*
X166766Y157268D01*
X168179Y158211D01*
X169122Y159624D01*
X169454Y161290D01*
X169122Y162956D01*
X168179Y164368D01*
X166766Y165312D01*
X165100Y165644D01*
D02*
G37*
G36*
X376540Y162294D02*
X374874Y161962D01*
X373461Y161019D01*
X372518Y159606D01*
X372186Y157940D01*
X372518Y156274D01*
X373461Y154861D01*
X374874Y153918D01*
X376540Y153586D01*
X378206Y153918D01*
X379618Y154861D01*
X380562Y156274D01*
X380894Y157940D01*
X380562Y159606D01*
X379618Y161019D01*
X378206Y161962D01*
X376540Y162294D01*
D02*
G37*
G36*
X240867Y112851D02*
X239201Y112520D01*
X237788Y111576D01*
X236844Y110164D01*
X236513Y108498D01*
X236844Y106832D01*
X237788Y105419D01*
X239201Y104475D01*
X240867Y104144D01*
X242533Y104475D01*
X243945Y105419D01*
X244889Y106832D01*
X245220Y108498D01*
X244889Y110164D01*
X243945Y111576D01*
X242533Y112520D01*
X240867Y112851D01*
D02*
G37*
G36*
X259080Y111034D02*
X257414Y110702D01*
X256001Y109759D01*
X255058Y108346D01*
X254726Y106680D01*
X255058Y105014D01*
X256001Y103602D01*
X257414Y102658D01*
X259080Y102326D01*
X260746Y102658D01*
X262159Y103602D01*
X263102Y105014D01*
X263434Y106680D01*
X263102Y108346D01*
X262159Y109759D01*
X260746Y110702D01*
X259080Y111034D01*
D02*
G37*
G36*
X295910Y104684D02*
X294244Y104352D01*
X292831Y103408D01*
X291888Y101996D01*
X291556Y100330D01*
X291888Y98664D01*
X292831Y97252D01*
X294244Y96308D01*
X295910Y95976D01*
X297576Y96308D01*
X298988Y97252D01*
X299932Y98664D01*
X300264Y100330D01*
X299932Y101996D01*
X298988Y103408D01*
X297576Y104352D01*
X295910Y104684D01*
D02*
G37*
G36*
X196850Y99604D02*
X195184Y99272D01*
X193771Y98329D01*
X192828Y96916D01*
X192496Y95250D01*
X192828Y93584D01*
X193771Y92171D01*
X195184Y91228D01*
X196850Y90896D01*
X198516Y91228D01*
X199928Y92171D01*
X200872Y93584D01*
X201204Y95250D01*
X200872Y96916D01*
X199928Y98329D01*
X198516Y99272D01*
X196850Y99604D01*
D02*
G37*
G36*
X177800D02*
X176134Y99272D01*
X174722Y98329D01*
X173778Y96916D01*
X173446Y95250D01*
X173778Y93584D01*
X174722Y92171D01*
X176134Y91228D01*
X177800Y90896D01*
X179466Y91228D01*
X180879Y92171D01*
X181822Y93584D01*
X182154Y95250D01*
X181822Y96916D01*
X180879Y98329D01*
X179466Y99272D01*
X177800Y99604D01*
D02*
G37*
G36*
X243840Y95794D02*
X242174Y95462D01*
X240762Y94518D01*
X239818Y93106D01*
X239486Y91440D01*
X239818Y89774D01*
X240762Y88362D01*
X242174Y87418D01*
X243840Y87086D01*
X245506Y87418D01*
X246919Y88362D01*
X247862Y89774D01*
X248194Y91440D01*
X247862Y93106D01*
X246919Y94518D01*
X245506Y95462D01*
X243840Y95794D01*
D02*
G37*
G36*
X330200Y94524D02*
X328534Y94192D01*
X327122Y93249D01*
X326178Y91836D01*
X325846Y90170D01*
X326178Y88504D01*
X327122Y87092D01*
X328534Y86148D01*
X330200Y85816D01*
X331866Y86148D01*
X333279Y87092D01*
X334222Y88504D01*
X334554Y90170D01*
X334222Y91836D01*
X333279Y93249D01*
X331866Y94192D01*
X330200Y94524D01*
D02*
G37*
G36*
X312420D02*
X310754Y94192D01*
X309342Y93249D01*
X308398Y91836D01*
X308066Y90170D01*
X308398Y88504D01*
X309342Y87092D01*
X310754Y86148D01*
X312420Y85816D01*
X314086Y86148D01*
X315499Y87092D01*
X316442Y88504D01*
X316774Y90170D01*
X316442Y91836D01*
X315499Y93249D01*
X314086Y94192D01*
X312420Y94524D01*
D02*
G37*
G36*
X186690Y86904D02*
X185024Y86572D01*
X183612Y85628D01*
X182668Y84216D01*
X182336Y82550D01*
X182668Y80884D01*
X183612Y79472D01*
X185024Y78528D01*
X186690Y78196D01*
X188356Y78528D01*
X189769Y79472D01*
X190712Y80884D01*
X191044Y82550D01*
X190712Y84216D01*
X189769Y85628D01*
X188356Y86572D01*
X186690Y86904D01*
D02*
G37*
G36*
X260350Y55154D02*
X258684Y54822D01*
X257271Y53878D01*
X256328Y52466D01*
X255996Y50800D01*
X256328Y49134D01*
X257271Y47722D01*
X258684Y46778D01*
X260350Y46446D01*
X262016Y46778D01*
X263428Y47722D01*
X264372Y49134D01*
X264704Y50800D01*
X264372Y52466D01*
X263428Y53878D01*
X262016Y54822D01*
X260350Y55154D01*
D02*
G37*
G36*
X121500Y51357D02*
X119834Y51026D01*
X118421Y50082D01*
X117478Y48670D01*
X117146Y47004D01*
X117478Y45338D01*
X118421Y43925D01*
X119834Y42981D01*
X121500Y42650D01*
X123166Y42981D01*
X124578Y43925D01*
X125522Y45338D01*
X125853Y47004D01*
X125522Y48670D01*
X124578Y50082D01*
X123166Y51026D01*
X121500Y51357D01*
D02*
G37*
G36*
X246380Y42454D02*
X244714Y42122D01*
X243302Y41178D01*
X242358Y39766D01*
X242026Y38100D01*
X242358Y36434D01*
X243302Y35022D01*
X244714Y34078D01*
X246380Y33746D01*
X248046Y34078D01*
X249459Y35022D01*
X250402Y36434D01*
X250734Y38100D01*
X250402Y39766D01*
X249459Y41178D01*
X248046Y42122D01*
X246380Y42454D01*
D02*
G37*
%LPD*%
D19*
X227330Y391160D02*
X236680Y400510D01*
X444960D01*
X393334Y408036D02*
X393700Y408402D01*
Y548640D01*
X704850Y298450D02*
X706120Y299720D01*
X742950D01*
X463550Y419100D02*
X486410D01*
X444960Y400510D02*
X463550Y419100D01*
X431800Y370840D02*
X464100Y338540D01*
X410210Y370840D02*
X431800D01*
X447593Y247779D02*
Y305353D01*
X458470Y316230D01*
X430530Y361950D02*
X458470Y334010D01*
Y316230D02*
Y334010D01*
X410210Y361950D02*
X430530D01*
X464100Y312420D02*
Y338540D01*
X454660Y302980D02*
X464100Y312420D01*
X454660Y254000D02*
Y302980D01*
X557530Y370840D02*
X560070Y373380D01*
X593090D01*
X403860Y406400D02*
Y559806D01*
X398780Y412750D02*
Y559497D01*
X374077Y584200D02*
X398780Y559497D01*
X373116Y590550D02*
X403860Y559806D01*
X364490Y577850D02*
X393700Y548640D01*
X359410Y577850D02*
X364490D01*
X359410Y590550D02*
X373116D01*
X363220Y584200D02*
X374077D01*
X499110Y185420D02*
Y862330D01*
X502920Y180340D02*
Y815674D01*
X528320Y841074D01*
X822960Y175260D02*
Y225728D01*
X791044Y257644D02*
X822960Y225728D01*
X806450Y312420D02*
X819150Y299720D01*
Y285750D02*
Y299720D01*
X659271Y257644D02*
X791044D01*
X819150Y285750D01*
X542290D02*
X549910Y278130D01*
X542290Y285750D02*
Y290830D01*
X544830Y260350D02*
Y269160D01*
X549910Y274240D01*
Y278130D01*
X541100Y251380D02*
X544830Y247650D01*
X537290Y251380D02*
X541100D01*
X534670Y254000D02*
X537290Y251380D01*
X534670Y270535D02*
X541455Y277320D01*
X534670Y254000D02*
Y270535D01*
X544830Y234950D02*
X549990Y229790D01*
Y228898D02*
Y229790D01*
Y228898D02*
X554098Y224790D01*
X645160D01*
X609600Y250190D02*
Y300990D01*
X610870Y302260D01*
X593090Y233680D02*
X609600Y250190D01*
X627380Y278130D02*
X633730Y271780D01*
Y236220D02*
X645160Y224790D01*
X633730Y236220D02*
Y271780D01*
X753110Y312420D02*
X806450D01*
X675640Y389890D02*
X753110Y312420D01*
X709386Y334010D02*
X714466Y339090D01*
X687070Y334010D02*
X709386D01*
X692150Y298450D02*
X697310Y293290D01*
Y292398D02*
Y293290D01*
Y292398D02*
X701408Y288300D01*
X792470D01*
X682988Y330200D02*
X683260D01*
X686990Y316310D02*
X692150Y311150D01*
X686098Y316310D02*
X686990D01*
X682988Y319420D02*
X686098Y316310D01*
X682988Y319420D02*
Y330200D01*
X683260D02*
X687070Y334010D01*
X530860Y410210D02*
X544830Y396240D01*
X530860Y410210D02*
Y419100D01*
X608330Y388620D02*
Y435610D01*
X593090Y373380D02*
X608330Y388620D01*
X645160Y359410D02*
Y396240D01*
X626110Y415290D02*
X645160Y396240D01*
X552450Y632460D02*
Y643890D01*
Y632460D02*
X561340Y623570D01*
X599440D01*
X610974Y635103D02*
X652780D01*
X599440Y623570D02*
X610974Y635103D01*
X633730Y687070D02*
X634666D01*
X637206Y684530D01*
X637540D01*
Y650343D02*
X652780Y635103D01*
X637540Y650343D02*
Y684530D01*
X679450Y767747D02*
X691901Y755296D01*
X679450Y767747D02*
Y767890D01*
X691901Y729896D02*
X697061Y724736D01*
Y723844D02*
Y724736D01*
Y723844D02*
X708435Y712470D01*
X737870D01*
X746260Y720860D02*
X792480D01*
X737870Y712470D02*
X746260Y720860D01*
X769620Y743720D02*
X792480Y720860D01*
X769620Y743720D02*
Y773890D01*
X675640Y910590D02*
Y924894D01*
X678180Y927434D01*
Y928370D01*
X689007Y894080D02*
X691901Y891186D01*
X683260Y894080D02*
X689007D01*
X679450Y897890D02*
Y905510D01*
Y897890D02*
X683260Y894080D01*
X679450Y905510D02*
X687070Y913130D01*
X744220D01*
X737870Y880110D02*
X754380Y896620D01*
Y933450D01*
X534062Y841348D02*
X549910Y825500D01*
X528982Y841348D02*
X534062D01*
X528320Y842010D02*
X528982Y841348D01*
X440690Y241300D02*
X482600D01*
X492760Y251460D01*
X435610Y246380D02*
X440690Y241300D01*
X492339Y151130D02*
X510540Y169331D01*
Y664544D01*
X506730Y174588D02*
Y716280D01*
X492339Y160196D02*
X506730Y174588D01*
X492339Y169263D02*
Y169759D01*
X502920Y180340D01*
X492339Y178649D02*
X499110Y185420D01*
X492339Y178329D02*
Y178649D01*
X510540Y664544D02*
X535940Y689944D01*
X506730Y716280D02*
X533400Y742950D01*
X535940Y689944D02*
Y690880D01*
X528320Y841074D02*
Y842010D01*
D97*
X342900Y407670D02*
Y595630D01*
X248920Y633730D02*
X249207Y633443D01*
Y629604D02*
Y633443D01*
Y629604D02*
X265401Y613410D01*
X325120D01*
X342900Y595630D01*
X782519Y134361D02*
X790351Y126529D01*
X708368Y134361D02*
X782519D01*
X790351Y126529D02*
Y173579D01*
X769620Y194310D02*
X790351Y173579D01*
X691901Y152046D02*
X696831Y147116D01*
Y145899D02*
Y147116D01*
Y145899D02*
X708368Y134361D01*
X688401Y168246D02*
X691901Y164746D01*
X683924Y168246D02*
X688401D01*
X681990Y170180D02*
X683924Y168246D01*
X681990Y184150D02*
X689610Y191770D01*
X681990Y170180D02*
Y184150D01*
X737870Y154940D02*
X755650Y172720D01*
Y218440D01*
X756920Y744220D02*
Y797560D01*
X731520Y718820D02*
X756920Y744220D01*
X715677Y718820D02*
X731520D01*
X551180Y657860D02*
X552450Y656590D01*
X544830Y657860D02*
X551180D01*
X542263Y674343D02*
X547370Y679450D01*
X542263Y660427D02*
Y674343D01*
Y660427D02*
X544830Y657860D01*
X547370Y679450D02*
X607060D01*
X617220Y663170D02*
Y709930D01*
X586099Y632050D02*
X617220Y663170D01*
X704601Y729896D02*
X715677Y718820D01*
X691901Y878486D02*
X696831Y873556D01*
Y872338D02*
Y873556D01*
Y872338D02*
X700489Y868680D01*
X791210D01*
Y900430D01*
X769620Y922020D02*
X791210Y900430D01*
X650240Y791313D02*
Y820420D01*
X627380Y843280D02*
X650240Y820420D01*
X642516Y783590D02*
X650240Y791313D01*
X549910Y800100D02*
X554840Y795170D01*
Y793953D02*
Y795170D01*
Y793953D02*
X565203Y783590D01*
X642516D01*
X582930Y838200D02*
X614680Y869950D01*
X582930Y789940D02*
Y838200D01*
X562610Y800100D02*
X572770D01*
X582930Y789940D01*
D101*
X374650Y292100D02*
D03*
X326390Y308610D02*
D03*
X91440Y163830D02*
D03*
D105*
X691901Y152046D02*
D03*
Y164746D02*
D03*
X544830Y260350D02*
D03*
Y247650D02*
D03*
Y234950D02*
D03*
X704850Y298450D02*
D03*
X692150D02*
D03*
Y311150D02*
D03*
X544830Y396240D02*
D03*
X557530Y370840D02*
D03*
X552450Y643890D02*
D03*
Y656590D02*
D03*
X562610Y800100D02*
D03*
X549910D02*
D03*
Y825500D02*
D03*
X691901Y755296D02*
D03*
Y729896D02*
D03*
X704601D02*
D03*
X691901Y891186D02*
D03*
Y878486D02*
D03*
D114*
X393334Y408036D02*
D03*
X403860Y406400D02*
D03*
X398780Y412750D02*
D03*
X342900Y407670D02*
D03*
X248920Y633730D02*
D03*
X359410Y590550D02*
D03*
X363220Y584200D02*
D03*
X359410Y577850D02*
D03*
X280670Y96520D02*
D03*
X822960Y175260D02*
D03*
D115*
X101600Y88900D02*
D03*
Y69850D02*
D03*
X77470Y43180D02*
D03*
X85090Y50800D02*
D03*
X69850D02*
D03*
X486410Y419100D02*
D03*
X410210Y370840D02*
D03*
Y361950D02*
D03*
X227330Y391160D02*
D03*
X102870Y279400D02*
D03*
X790351Y126529D02*
D03*
X689610Y191770D02*
D03*
X769620Y194310D02*
D03*
X755650Y218440D02*
D03*
X737870Y154940D02*
D03*
X542290Y290830D02*
D03*
X541455Y277320D02*
D03*
X610870Y302260D02*
D03*
X593090Y233680D02*
D03*
X627380Y278130D02*
D03*
X645160Y224790D02*
D03*
X806450Y312420D02*
D03*
X714466Y339090D02*
D03*
X742950Y299720D02*
D03*
X792470Y288300D02*
D03*
X530860Y419100D02*
D03*
X608330Y435610D02*
D03*
X593090Y373380D02*
D03*
X645160Y359410D02*
D03*
X626110Y415290D02*
D03*
X607060Y679450D02*
D03*
X617220Y709930D02*
D03*
X586099Y632050D02*
D03*
X633730Y687070D02*
D03*
X652780Y635103D02*
D03*
X679450Y767890D02*
D03*
X756920Y797560D02*
D03*
X725550Y718820D02*
D03*
X769620Y773890D02*
D03*
X792480Y720860D02*
D03*
X678180Y928370D02*
D03*
X675640Y910590D02*
D03*
X744220Y913130D02*
D03*
X754380Y933450D02*
D03*
X737870Y880110D02*
D03*
X769620Y922020D02*
D03*
X791210Y868680D02*
D03*
X627380Y843280D02*
D03*
X650240Y791313D02*
D03*
X614680Y869950D02*
D03*
X582930Y789940D02*
D03*
X376550Y201877D02*
D03*
X266700Y300990D02*
D03*
X170180Y190500D02*
D03*
X675640Y389890D02*
D03*
X659271Y257644D02*
D03*
X499110Y862330D02*
D03*
X492760Y251460D02*
D03*
X435610Y246380D02*
D03*
X492339Y178329D02*
D03*
Y169263D02*
D03*
Y160196D02*
D03*
X454660Y254000D02*
D03*
X447593Y247779D02*
D03*
X492339Y151130D02*
D03*
X535940Y690880D02*
D03*
X533400Y742950D02*
D03*
X528320Y842010D02*
D03*
D116*
X343740Y792750D02*
D03*
X332740D02*
D03*
X343740Y803750D02*
D03*
X332740D02*
D03*
X343740Y814750D02*
D03*
X332740D02*
D03*
M02*
