G04 Layer_Physical_Order=2*
G04 Layer_Color=6736896*
%FSLAX44Y44*%
%MOMM*%
G71*
G01*
G75*
%ADD34C,0.5000*%
%ADD35C,0.3000*%
%ADD46C,2.0000*%
%ADD47R,1.0000X1.0000*%
%ADD51C,1.3000*%
%ADD52C,0.7000*%
%ADD53C,1.0000*%
%ADD54C,0.5000*%
%ADD56C,1.5000*%
G36*
X1407715Y3885D02*
X3885D01*
X3885Y293210D01*
X3589Y294697D01*
X2747Y295957D01*
X1487Y296799D01*
X-0Y297095D01*
X-60790D01*
Y297139D01*
X-64395Y296665D01*
X-67755Y295273D01*
X-70639Y293059D01*
X-72853Y290175D01*
X-74245Y286815D01*
X-74719Y283210D01*
X-74675D01*
Y277210D01*
X-74722D01*
X-74742Y277162D01*
X-74790Y277142D01*
Y277095D01*
X-84704D01*
Y308210D01*
X-84659D01*
X-85134Y311815D01*
X-86526Y315175D01*
X-88739Y318059D01*
X-91624Y320273D01*
X-94983Y321665D01*
X-98589Y322139D01*
Y322095D01*
X-144705D01*
Y468575D01*
X-96590D01*
Y468573D01*
X-93491Y468879D01*
X-90511Y469783D01*
X-87764Y471251D01*
X-85357Y473227D01*
X-83381Y475634D01*
X-81913Y478381D01*
X-81009Y481361D01*
X-80703Y484460D01*
X-81009Y487559D01*
X-81913Y490540D01*
X-83381Y493286D01*
X-85357Y495694D01*
X-87764Y497669D01*
X-90511Y499137D01*
X-93491Y500041D01*
X-96590Y500346D01*
Y500345D01*
X-144705D01*
Y678825D01*
X-103799D01*
X-103413Y677555D01*
X-104582Y676775D01*
X-105917Y674777D01*
X-106386Y672420D01*
X-105917Y670063D01*
X-104819Y668420D01*
X-105917Y666777D01*
X-106386Y664420D01*
X-105917Y662063D01*
X-104582Y660065D01*
X-102584Y658730D01*
X-100227Y658261D01*
X-97871Y658730D01*
X-95873Y660065D01*
X-94538Y662063D01*
X-94069Y664420D01*
X-94538Y666777D01*
X-95636Y668420D01*
X-94538Y670063D01*
X-94069Y672420D01*
X-94538Y674777D01*
X-95873Y676775D01*
X-97227Y677679D01*
X-96919Y679001D01*
X-94983Y679256D01*
X-91624Y680647D01*
X-88739Y682861D01*
X-86526Y685745D01*
X-85134Y689105D01*
X-84659Y692710D01*
X-84704D01*
Y723825D01*
X-74790D01*
Y723778D01*
X-74742Y723758D01*
X-74722Y723710D01*
X-74675D01*
Y717710D01*
X-74719D01*
X-74245Y714105D01*
X-72853Y710745D01*
X-70639Y707861D01*
X-67755Y705647D01*
X-64395Y704256D01*
X-60790Y703781D01*
Y703825D01*
X-190D01*
X1297Y704121D01*
X2557Y704963D01*
X3399Y706223D01*
X3695Y707710D01*
X3695Y997035D01*
X1407715D01*
Y3885D01*
D02*
G37*
%LPC*%
G36*
X908005Y987330D02*
X870940D01*
X869363Y987017D01*
X868027Y986124D01*
X837514Y955611D01*
X837431Y955549D01*
X837327Y955482D01*
X837244Y955438D01*
X837198Y955417D01*
X837022Y955452D01*
X834666Y954984D01*
X832668Y953649D01*
X831333Y951651D01*
X830864Y949294D01*
X831333Y946937D01*
X832668Y944939D01*
X834666Y943605D01*
X837022Y943136D01*
X839379Y943605D01*
X841377Y944939D01*
X842712Y946937D01*
X843181Y949294D01*
X843146Y949469D01*
X843166Y949515D01*
X843211Y949598D01*
X843278Y949702D01*
X843339Y949786D01*
X860210Y966656D01*
X861412Y966247D01*
X861468Y965824D01*
X862228Y963990D01*
X863436Y962415D01*
X865011Y961206D01*
X866845Y960446D01*
X868814Y960187D01*
X870782Y960446D01*
X872616Y961206D01*
X874191Y962415D01*
X875400Y963990D01*
X876160Y965824D01*
X876419Y967792D01*
X876160Y969761D01*
X875400Y971595D01*
X874191Y973170D01*
X872616Y974378D01*
X870782Y975138D01*
X870359Y975194D01*
X869950Y976396D01*
X872646Y979092D01*
X892125D01*
Y964371D01*
Y951671D01*
X932605D01*
Y964371D01*
Y979451D01*
X916365D01*
X916171Y980427D01*
X915278Y981764D01*
X910918Y986124D01*
X909581Y987017D01*
X908005Y987330D01*
D02*
G37*
G36*
X608565Y962870D02*
X606208Y962401D01*
X604211Y961066D01*
X602876Y959068D01*
X602407Y956711D01*
X602876Y954355D01*
X604211Y952357D01*
X606208Y951022D01*
X608565Y950553D01*
X610922Y951022D01*
X612920Y952357D01*
X614255Y954355D01*
X614724Y956711D01*
X614255Y959068D01*
X612920Y961066D01*
X610922Y962401D01*
X608565Y962870D01*
D02*
G37*
G36*
X693165Y960270D02*
X690808Y959801D01*
X688811Y958466D01*
X687476Y956468D01*
X687007Y954111D01*
X687476Y951755D01*
X688811Y949757D01*
X690808Y948422D01*
X693165Y947953D01*
X695522Y948422D01*
X697520Y949757D01*
X698855Y951755D01*
X699324Y954111D01*
X698855Y956468D01*
X697520Y958466D01*
X695522Y959801D01*
X693165Y960270D01*
D02*
G37*
G36*
X717923Y958902D02*
X715566Y958433D01*
X713568Y957098D01*
X712233Y955100D01*
X711764Y952744D01*
X712233Y950387D01*
X713568Y948389D01*
X715566Y947054D01*
X717923Y946585D01*
X720279Y947054D01*
X722277Y948389D01*
X723612Y950387D01*
X724081Y952744D01*
X723612Y955100D01*
X722277Y957098D01*
X720279Y958433D01*
X717923Y958902D01*
D02*
G37*
G36*
X563365Y947170D02*
X561008Y946701D01*
X559011Y945366D01*
X557676Y943368D01*
X557207Y941011D01*
X557676Y938655D01*
X559011Y936657D01*
X561008Y935322D01*
X563365Y934853D01*
X565722Y935322D01*
X567720Y936657D01*
X569055Y938655D01*
X569524Y941011D01*
X569055Y943368D01*
X567720Y945366D01*
X565722Y946701D01*
X563365Y947170D01*
D02*
G37*
G36*
X535265Y942070D02*
X532909Y941601D01*
X530911Y940266D01*
X529576Y938268D01*
X529107Y935911D01*
X529576Y933555D01*
X530911Y931557D01*
X532909Y930222D01*
X535265Y929753D01*
X537622Y930222D01*
X539620Y931557D01*
X540955Y933555D01*
X541423Y935911D01*
X540955Y938268D01*
X539620Y940266D01*
X537622Y941601D01*
X535265Y942070D01*
D02*
G37*
G36*
X943697Y943449D02*
X941728Y943190D01*
X939894Y942430D01*
X938319Y941221D01*
X937110Y939646D01*
X936351Y937812D01*
X936091Y935844D01*
X936351Y933876D01*
X937110Y932041D01*
X938319Y930466D01*
X939894Y929258D01*
X941728Y928498D01*
X943697Y928239D01*
X945665Y928498D01*
X947499Y929258D01*
X949074Y930466D01*
X950283Y932041D01*
X951042Y933876D01*
X951302Y935844D01*
X951042Y937812D01*
X950283Y939646D01*
X949074Y941221D01*
X947499Y942430D01*
X945665Y943190D01*
X943697Y943449D01*
D02*
G37*
G36*
X616965Y937470D02*
X614608Y937001D01*
X612611Y935666D01*
X611276Y933668D01*
X610807Y931311D01*
X611276Y928955D01*
X612611Y926957D01*
X614608Y925622D01*
X616965Y925153D01*
X619322Y925622D01*
X621320Y926957D01*
X622655Y928955D01*
X623124Y931311D01*
X622655Y933668D01*
X621320Y935666D01*
X619322Y937001D01*
X616965Y937470D01*
D02*
G37*
G36*
X59665Y939349D02*
X57697Y939090D01*
X55863Y938330D01*
X54288Y937121D01*
X53079Y935546D01*
X52319Y933712D01*
X52060Y931744D01*
X52319Y929775D01*
X53079Y927941D01*
X54288Y926366D01*
X55863Y925158D01*
X57697Y924398D01*
X59665Y924139D01*
X61634Y924398D01*
X63468Y925158D01*
X65043Y926366D01*
X66251Y927941D01*
X67011Y929775D01*
X67270Y931744D01*
X67011Y933712D01*
X66251Y935546D01*
X65043Y937121D01*
X63468Y938330D01*
X61634Y939090D01*
X59665Y939349D01*
D02*
G37*
G36*
X806873Y935802D02*
X804516Y935333D01*
X802518Y933998D01*
X801183Y932001D01*
X800714Y929644D01*
X801183Y927287D01*
X802518Y925289D01*
X804516Y923954D01*
X806873Y923485D01*
X809229Y923954D01*
X811227Y925289D01*
X812562Y927287D01*
X813031Y929644D01*
X812562Y932001D01*
X811227Y933998D01*
X809229Y935333D01*
X806873Y935802D01*
D02*
G37*
G36*
X783673Y935702D02*
X781316Y935233D01*
X779318Y933898D01*
X777983Y931900D01*
X777514Y929544D01*
X777983Y927187D01*
X779318Y925189D01*
X781316Y923854D01*
X783673Y923385D01*
X786029Y923854D01*
X788027Y925189D01*
X789362Y927187D01*
X789831Y929544D01*
X789362Y931900D01*
X788027Y933898D01*
X786029Y935233D01*
X783673Y935702D01*
D02*
G37*
G36*
X170173Y938106D02*
X168204Y937847D01*
X166370Y937087D01*
X164795Y935879D01*
X163587Y934304D01*
X162827Y932470D01*
X162568Y930501D01*
X162827Y928533D01*
X163587Y926699D01*
X164795Y925124D01*
X166370Y923915D01*
X168204Y923155D01*
X170173Y922896D01*
X172141Y923155D01*
X173975Y923915D01*
X175550Y925124D01*
X176759Y926699D01*
X177519Y928533D01*
X177778Y930501D01*
X177519Y932470D01*
X176759Y934304D01*
X175550Y935879D01*
X173975Y937087D01*
X172141Y937847D01*
X170173Y938106D01*
D02*
G37*
G36*
X838823Y935802D02*
X836466Y935333D01*
X834468Y933998D01*
X833133Y932001D01*
X832664Y929644D01*
X833133Y927287D01*
X833894Y926149D01*
X833579Y924472D01*
X833468Y924398D01*
X832133Y922401D01*
X831664Y920044D01*
X832133Y917687D01*
X833468Y915689D01*
X835466Y914354D01*
X837823Y913885D01*
X840179Y914354D01*
X842177Y915689D01*
X843512Y917687D01*
X843981Y920044D01*
X843512Y922401D01*
X842751Y923539D01*
X843067Y925215D01*
X843177Y925289D01*
X844512Y927287D01*
X844981Y929644D01*
X844512Y932001D01*
X843177Y933998D01*
X841179Y935333D01*
X838823Y935802D01*
D02*
G37*
G36*
X784523Y920752D02*
X782166Y920283D01*
X780168Y918948D01*
X778833Y916951D01*
X778364Y914594D01*
X778833Y912237D01*
X780168Y910239D01*
X782166Y908904D01*
X784523Y908436D01*
X786879Y908904D01*
X788877Y910239D01*
X790212Y912237D01*
X790681Y914594D01*
X790212Y916951D01*
X788877Y918948D01*
X786879Y920283D01*
X784523Y920752D01*
D02*
G37*
G36*
X607165Y917770D02*
X604809Y917301D01*
X602811Y915966D01*
X601476Y913968D01*
X601007Y911611D01*
X601476Y909255D01*
X602811Y907257D01*
X604809Y905922D01*
X607165Y905453D01*
X609522Y905922D01*
X611520Y907257D01*
X612855Y909255D01*
X613324Y911611D01*
X612855Y913968D01*
X611520Y915966D01*
X609522Y917301D01*
X607165Y917770D01*
D02*
G37*
G36*
X899723Y911102D02*
X897366Y910633D01*
X895368Y909298D01*
X894033Y907300D01*
X893564Y904944D01*
X894033Y902587D01*
X895368Y900589D01*
X897366Y899254D01*
X899723Y898785D01*
X902079Y899254D01*
X904077Y900589D01*
X905412Y902587D01*
X905881Y904944D01*
X905412Y907300D01*
X904077Y909298D01*
X902079Y910633D01*
X899723Y911102D01*
D02*
G37*
G36*
X822723Y908952D02*
X820366Y908483D01*
X818368Y907148D01*
X817033Y905151D01*
X816564Y902794D01*
X817033Y900437D01*
X818368Y898439D01*
X820366Y897104D01*
X822723Y896636D01*
X825079Y897104D01*
X827077Y898439D01*
X828412Y900437D01*
X828881Y902794D01*
X828412Y905151D01*
X827077Y907148D01*
X825079Y908483D01*
X822723Y908952D01*
D02*
G37*
G36*
X680867Y902370D02*
X678510Y901901D01*
X676512Y900566D01*
X675177Y898568D01*
X674708Y896211D01*
X675177Y893855D01*
X676512Y891857D01*
X678510Y890522D01*
X680867Y890053D01*
X683223Y890522D01*
X685221Y891857D01*
X686556Y893855D01*
X687025Y896211D01*
X686556Y898568D01*
X685221Y900566D01*
X683223Y901901D01*
X680867Y902370D01*
D02*
G37*
G36*
X849723Y898502D02*
X847366Y898033D01*
X845368Y896698D01*
X844033Y894700D01*
X843564Y892344D01*
X844033Y889987D01*
X845368Y887989D01*
X847366Y886654D01*
X849723Y886186D01*
X852079Y886654D01*
X854077Y887989D01*
X855412Y889987D01*
X855881Y892344D01*
X855412Y894700D01*
X854077Y896698D01*
X852079Y898033D01*
X849723Y898502D01*
D02*
G37*
G36*
X908005Y886230D02*
X870940D01*
X869363Y885917D01*
X868027Y885024D01*
X837514Y854511D01*
X837431Y854449D01*
X837327Y854382D01*
X837244Y854338D01*
X837198Y854317D01*
X837022Y854352D01*
X834666Y853884D01*
X832668Y852549D01*
X831333Y850551D01*
X830864Y848194D01*
X831333Y845837D01*
X832668Y843839D01*
X834666Y842505D01*
X837022Y842036D01*
X839379Y842505D01*
X841377Y843839D01*
X842712Y845837D01*
X843181Y848194D01*
X843146Y848369D01*
X843166Y848415D01*
X843211Y848498D01*
X843278Y848602D01*
X843339Y848686D01*
X860210Y865556D01*
X861412Y865147D01*
X861468Y864724D01*
X862228Y862890D01*
X863436Y861315D01*
X865011Y860106D01*
X866845Y859346D01*
X868814Y859087D01*
X870782Y859346D01*
X872616Y860106D01*
X874191Y861315D01*
X875400Y862890D01*
X876160Y864724D01*
X876419Y866692D01*
X876160Y868661D01*
X875400Y870495D01*
X874191Y872070D01*
X872616Y873278D01*
X870782Y874038D01*
X870359Y874094D01*
X869950Y875296D01*
X872646Y877992D01*
X892125D01*
Y863271D01*
Y850571D01*
X932605D01*
Y863271D01*
Y878351D01*
X916365D01*
X916171Y879327D01*
X915278Y880664D01*
X910918Y885024D01*
X909581Y885917D01*
X908005Y886230D01*
D02*
G37*
G36*
X187373Y865006D02*
X185404Y864747D01*
X183570Y863987D01*
X181995Y862779D01*
X180787Y861204D01*
X180027Y859370D01*
X179768Y857401D01*
X180027Y855433D01*
X180787Y853599D01*
X181995Y852024D01*
X183570Y850815D01*
X185404Y850055D01*
X187373Y849796D01*
X189341Y850055D01*
X191175Y850815D01*
X192750Y852024D01*
X193959Y853599D01*
X194719Y855433D01*
X194978Y857401D01*
X194719Y859370D01*
X193959Y861204D01*
X192750Y862779D01*
X191175Y863987D01*
X189341Y864747D01*
X187373Y865006D01*
D02*
G37*
G36*
X131473D02*
X129504Y864747D01*
X127670Y863987D01*
X126095Y862779D01*
X124887Y861204D01*
X124127Y859370D01*
X123868Y857401D01*
X124127Y855433D01*
X124887Y853599D01*
X126095Y852024D01*
X127670Y850815D01*
X129504Y850055D01*
X131473Y849796D01*
X133441Y850055D01*
X135275Y850815D01*
X136850Y852024D01*
X138059Y853599D01*
X138819Y855433D01*
X139078Y857401D01*
X138819Y859370D01*
X138059Y861204D01*
X136850Y862779D01*
X135275Y863987D01*
X133441Y864747D01*
X131473Y865006D01*
D02*
G37*
G36*
X42565Y864149D02*
X40597Y863890D01*
X38763Y863130D01*
X37188Y861921D01*
X35979Y860346D01*
X35219Y858512D01*
X34960Y856544D01*
X35219Y854576D01*
X35979Y852741D01*
X37188Y851166D01*
X38763Y849958D01*
X40597Y849198D01*
X42565Y848939D01*
X44534Y849198D01*
X46368Y849958D01*
X47943Y851166D01*
X49151Y852741D01*
X49911Y854576D01*
X50170Y856544D01*
X49911Y858512D01*
X49151Y860346D01*
X47943Y861921D01*
X46368Y863130D01*
X44534Y863890D01*
X42565Y864149D01*
D02*
G37*
G36*
X717923Y857802D02*
X715566Y857333D01*
X713568Y855998D01*
X712233Y854000D01*
X711764Y851644D01*
X712233Y849287D01*
X713568Y847289D01*
X715566Y845954D01*
X717923Y845486D01*
X720279Y845954D01*
X722277Y847289D01*
X723612Y849287D01*
X724081Y851644D01*
X723612Y854000D01*
X722277Y855998D01*
X720279Y857333D01*
X717923Y857802D01*
D02*
G37*
G36*
X364491Y852697D02*
X362135Y852228D01*
X360137Y850893D01*
X358802Y848895D01*
X358333Y846538D01*
X358802Y844182D01*
X360137Y842184D01*
X362135Y840849D01*
X364491Y840380D01*
X366848Y840849D01*
X368846Y842184D01*
X370181Y844182D01*
X370649Y846538D01*
X370181Y848895D01*
X368846Y850893D01*
X366848Y852228D01*
X364491Y852697D01*
D02*
G37*
G36*
X481941Y840796D02*
X479585Y840327D01*
X477587Y838992D01*
X476252Y836994D01*
X475783Y834638D01*
X476252Y832281D01*
X477587Y830283D01*
X479585Y828948D01*
X481941Y828479D01*
X484298Y828948D01*
X486296Y830283D01*
X487631Y832281D01*
X488100Y834638D01*
X487631Y836994D01*
X486296Y838992D01*
X484298Y840327D01*
X481941Y840796D01*
D02*
G37*
G36*
X334592D02*
X332236Y840327D01*
X330238Y838992D01*
X328903Y836994D01*
X328434Y834638D01*
X328903Y832281D01*
X330238Y830283D01*
X332236Y828948D01*
X334592Y828479D01*
X336949Y828948D01*
X338947Y830283D01*
X340282Y832281D01*
X340751Y834638D01*
X340282Y836994D01*
X338947Y838992D01*
X336949Y840327D01*
X334592Y840796D01*
D02*
G37*
G36*
X943697Y842349D02*
X941728Y842090D01*
X939894Y841330D01*
X938319Y840121D01*
X937110Y838546D01*
X936351Y836712D01*
X936091Y834744D01*
X936351Y832775D01*
X937110Y830941D01*
X938319Y829366D01*
X939894Y828158D01*
X941728Y827398D01*
X943697Y827139D01*
X945665Y827398D01*
X947499Y828158D01*
X949074Y829366D01*
X950283Y830941D01*
X951042Y832775D01*
X951302Y834744D01*
X951042Y836712D01*
X950283Y838546D01*
X949074Y840121D01*
X947499Y841330D01*
X945665Y842090D01*
X943697Y842349D01*
D02*
G37*
G36*
X806873Y834702D02*
X804516Y834233D01*
X802518Y832898D01*
X801183Y830900D01*
X800714Y828544D01*
X801183Y826187D01*
X802518Y824189D01*
X804516Y822854D01*
X806873Y822385D01*
X809229Y822854D01*
X811227Y824189D01*
X812562Y826187D01*
X813031Y828544D01*
X812562Y830900D01*
X811227Y832898D01*
X809229Y834233D01*
X806873Y834702D01*
D02*
G37*
G36*
X783673Y834602D02*
X781316Y834133D01*
X779318Y832798D01*
X777983Y830800D01*
X777514Y828444D01*
X777983Y826087D01*
X779318Y824089D01*
X781316Y822754D01*
X783673Y822286D01*
X786029Y822754D01*
X788027Y824089D01*
X789362Y826087D01*
X789831Y828444D01*
X789362Y830800D01*
X788027Y832798D01*
X786029Y834133D01*
X783673Y834602D01*
D02*
G37*
G36*
X296091Y832697D02*
X293734Y832228D01*
X291737Y830893D01*
X290402Y828895D01*
X289933Y826539D01*
X290402Y824182D01*
X291737Y822184D01*
X293734Y820849D01*
X296091Y820380D01*
X298448Y820849D01*
X300446Y822184D01*
X301781Y824182D01*
X302250Y826539D01*
X301781Y828895D01*
X300446Y830893D01*
X298448Y832228D01*
X296091Y832697D01*
D02*
G37*
G36*
X838823Y834702D02*
X836466Y834233D01*
X834468Y832898D01*
X833133Y830900D01*
X832664Y828544D01*
X833133Y826187D01*
X833894Y825049D01*
X833579Y823372D01*
X833468Y823298D01*
X832133Y821301D01*
X831664Y818944D01*
X832133Y816587D01*
X833468Y814589D01*
X835466Y813254D01*
X837823Y812785D01*
X840179Y813254D01*
X842177Y814589D01*
X843512Y816587D01*
X843981Y818944D01*
X843512Y821301D01*
X842751Y822439D01*
X843067Y824115D01*
X843177Y824189D01*
X844512Y826187D01*
X844981Y828544D01*
X844512Y830900D01*
X843177Y832898D01*
X841179Y834233D01*
X838823Y834702D01*
D02*
G37*
G36*
X481941Y823798D02*
X479585Y823329D01*
X477587Y821994D01*
X476252Y819996D01*
X475783Y817639D01*
X476252Y815283D01*
X477587Y813285D01*
X479585Y811950D01*
X481941Y811481D01*
X484298Y811950D01*
X486296Y813285D01*
X487631Y815283D01*
X488100Y817639D01*
X487631Y819996D01*
X486296Y821994D01*
X484298Y823329D01*
X481941Y823798D01*
D02*
G37*
G36*
X334390D02*
X332034Y823329D01*
X330036Y821994D01*
X328701Y819996D01*
X328232Y817639D01*
X328701Y815283D01*
X330036Y813285D01*
X332034Y811950D01*
X334390Y811481D01*
X336747Y811950D01*
X338745Y813285D01*
X340080Y815283D01*
X340549Y817639D01*
X340080Y819996D01*
X338745Y821994D01*
X336747Y823329D01*
X334390Y823798D01*
D02*
G37*
G36*
X784523Y819652D02*
X782166Y819183D01*
X780168Y817848D01*
X778833Y815851D01*
X778364Y813494D01*
X778833Y811137D01*
X780168Y809139D01*
X782166Y807804D01*
X784523Y807336D01*
X786879Y807804D01*
X788877Y809139D01*
X790212Y811137D01*
X790681Y813494D01*
X790212Y815851D01*
X788877Y817848D01*
X786879Y819183D01*
X784523Y819652D01*
D02*
G37*
G36*
X419491Y818897D02*
X417135Y818428D01*
X415137Y817093D01*
X413802Y815095D01*
X413333Y812739D01*
X413802Y810382D01*
X415137Y808384D01*
X417135Y807049D01*
X419491Y806580D01*
X421848Y807049D01*
X423846Y808384D01*
X425181Y810382D01*
X425650Y812739D01*
X425181Y815095D01*
X423846Y817093D01*
X421848Y818428D01*
X419491Y818897D01*
D02*
G37*
G36*
X364491Y818044D02*
X362523Y817785D01*
X360689Y817025D01*
X359114Y815816D01*
X357905Y814241D01*
X357145Y812407D01*
X356886Y810439D01*
X357145Y808470D01*
X357905Y806636D01*
X359114Y805061D01*
X360689Y803852D01*
X362523Y803093D01*
X364491Y802833D01*
X366460Y803093D01*
X368294Y803852D01*
X369869Y805061D01*
X371077Y806636D01*
X371837Y808470D01*
X372096Y810439D01*
X371837Y812407D01*
X371077Y814241D01*
X369869Y815816D01*
X368294Y817025D01*
X366460Y817785D01*
X364491Y818044D01*
D02*
G37*
G36*
X899723Y810002D02*
X897366Y809533D01*
X895368Y808198D01*
X894033Y806200D01*
X893564Y803844D01*
X894033Y801487D01*
X895368Y799489D01*
X897366Y798154D01*
X899723Y797685D01*
X902079Y798154D01*
X904077Y799489D01*
X905412Y801487D01*
X905881Y803844D01*
X905412Y806200D01*
X904077Y808198D01*
X902079Y809533D01*
X899723Y810002D01*
D02*
G37*
G36*
X822723Y807852D02*
X820366Y807383D01*
X818368Y806048D01*
X817033Y804051D01*
X816564Y801694D01*
X817033Y799337D01*
X818368Y797339D01*
X820366Y796004D01*
X822723Y795536D01*
X825079Y796004D01*
X827077Y797339D01*
X828412Y799337D01*
X828881Y801694D01*
X828412Y804051D01*
X827077Y806048D01*
X825079Y807383D01*
X822723Y807852D01*
D02*
G37*
G36*
X520991Y806347D02*
X518635Y805878D01*
X516637Y804543D01*
X515302Y802545D01*
X514833Y800189D01*
X515302Y797832D01*
X516637Y795834D01*
X518635Y794499D01*
X520991Y794031D01*
X523348Y794499D01*
X525346Y795834D01*
X526681Y797832D01*
X527150Y800189D01*
X526681Y802545D01*
X525346Y804543D01*
X523348Y805878D01*
X520991Y806347D01*
D02*
G37*
G36*
X849723Y797402D02*
X847366Y796933D01*
X845368Y795598D01*
X844033Y793600D01*
X843564Y791244D01*
X844033Y788887D01*
X845368Y786889D01*
X847366Y785554D01*
X849723Y785086D01*
X852079Y785554D01*
X854077Y786889D01*
X855412Y788887D01*
X855881Y791244D01*
X855412Y793600D01*
X854077Y795598D01*
X852079Y796933D01*
X849723Y797402D01*
D02*
G37*
G36*
X404191Y793097D02*
X401835Y792628D01*
X399837Y791293D01*
X398502Y789295D01*
X398033Y786939D01*
X398502Y784582D01*
X399837Y782584D01*
X401835Y781249D01*
X404191Y780780D01*
X406548Y781249D01*
X408546Y782584D01*
X409881Y784582D01*
X410350Y786939D01*
X409881Y789295D01*
X408546Y791293D01*
X406548Y792628D01*
X404191Y793097D01*
D02*
G37*
G36*
X334391Y792597D02*
X332035Y792128D01*
X330037Y790793D01*
X328702Y788795D01*
X328233Y786439D01*
X328702Y784082D01*
X330037Y782084D01*
X332035Y780749D01*
X334391Y780280D01*
X336748Y780749D01*
X338746Y782084D01*
X340081Y784082D01*
X340550Y786439D01*
X340081Y788795D01*
X338746Y790793D01*
X336748Y792128D01*
X334391Y792597D01*
D02*
G37*
G36*
X349991Y790197D02*
X347635Y789728D01*
X345637Y788393D01*
X344302Y786395D01*
X343833Y784039D01*
X344302Y781682D01*
X345637Y779684D01*
X347635Y778349D01*
X349991Y777880D01*
X352348Y778349D01*
X354346Y779684D01*
X355681Y781682D01*
X356150Y784039D01*
X355681Y786395D01*
X354346Y788393D01*
X352348Y789728D01*
X349991Y790197D01*
D02*
G37*
G36*
X380991Y792544D02*
X379023Y792284D01*
X377189Y791525D01*
X375614Y790316D01*
X374405Y788741D01*
X373645Y786907D01*
X373386Y784939D01*
X373645Y782970D01*
X374405Y781136D01*
X375614Y779561D01*
X377189Y778352D01*
X379023Y777593D01*
X380991Y777334D01*
X382960Y777593D01*
X384794Y778352D01*
X386369Y779561D01*
X387577Y781136D01*
X388337Y782970D01*
X388596Y784939D01*
X388337Y786907D01*
X387577Y788741D01*
X386369Y790316D01*
X384794Y791525D01*
X382960Y792284D01*
X380991Y792544D01*
D02*
G37*
G36*
X433491Y786097D02*
X431135Y785628D01*
X429137Y784293D01*
X427802Y782295D01*
X427333Y779939D01*
X427802Y777582D01*
X429137Y775584D01*
X431135Y774249D01*
X433491Y773780D01*
X435848Y774249D01*
X437846Y775584D01*
X439181Y777582D01*
X439650Y779939D01*
X439181Y782295D01*
X437846Y784293D01*
X435848Y785628D01*
X433491Y786097D01*
D02*
G37*
G36*
X296091Y780797D02*
X293734Y780328D01*
X291737Y778993D01*
X290402Y776995D01*
X289933Y774639D01*
X290402Y772282D01*
X291737Y770284D01*
X293734Y768949D01*
X296091Y768480D01*
X298448Y768949D01*
X300446Y770284D01*
X301781Y772282D01*
X302250Y774639D01*
X301781Y776995D01*
X300446Y778993D01*
X298448Y780328D01*
X296091Y780797D01*
D02*
G37*
G36*
X334891Y773997D02*
X332535Y773528D01*
X330537Y772193D01*
X329202Y770195D01*
X328733Y767839D01*
X329202Y765482D01*
X330537Y763484D01*
X332535Y762149D01*
X334891Y761680D01*
X337248Y762149D01*
X339246Y763484D01*
X340581Y765482D01*
X341050Y767839D01*
X340581Y770195D01*
X339246Y772193D01*
X337248Y773528D01*
X334891Y773997D01*
D02*
G37*
G36*
X481941Y788997D02*
X479585Y788528D01*
X477587Y787193D01*
X476252Y785195D01*
X475783Y782839D01*
X476252Y780482D01*
X477587Y778484D01*
X477655Y778438D01*
X477903Y777193D01*
X477544Y776655D01*
X477152Y774689D01*
X477544Y772722D01*
X478088Y771908D01*
X477840Y770662D01*
X477587Y770493D01*
X476252Y768495D01*
X475783Y766139D01*
X476252Y763782D01*
X477587Y761784D01*
X479585Y760449D01*
X481941Y759980D01*
X484298Y760449D01*
X486296Y761784D01*
X487631Y763782D01*
X488100Y766139D01*
X487631Y768495D01*
X486296Y770493D01*
X486485Y771894D01*
X487039Y772722D01*
X487430Y774689D01*
X487039Y776655D01*
X486186Y777932D01*
X486296Y778484D01*
X487631Y780482D01*
X488100Y782839D01*
X487631Y785195D01*
X486296Y787193D01*
X484298Y788528D01*
X481941Y788997D01*
D02*
G37*
G36*
X404191Y768397D02*
X401835Y767928D01*
X399837Y766593D01*
X398502Y764595D01*
X398033Y762239D01*
X398502Y759882D01*
X399837Y757884D01*
X401835Y756549D01*
X404191Y756080D01*
X406548Y756549D01*
X408546Y757884D01*
X409881Y759882D01*
X410350Y762239D01*
X409881Y764595D01*
X408546Y766593D01*
X406548Y767928D01*
X404191Y768397D01*
D02*
G37*
G36*
X380991Y767644D02*
X379023Y767384D01*
X377189Y766625D01*
X375614Y765416D01*
X374405Y763841D01*
X373645Y762007D01*
X373386Y760039D01*
X373645Y758070D01*
X374405Y756236D01*
X375614Y754661D01*
X377189Y753452D01*
X379023Y752693D01*
X380991Y752433D01*
X382960Y752693D01*
X384794Y753452D01*
X386369Y754661D01*
X387577Y756236D01*
X388337Y758070D01*
X388596Y760039D01*
X388337Y762007D01*
X387577Y763841D01*
X386369Y765416D01*
X384794Y766625D01*
X382960Y767384D01*
X380991Y767644D01*
D02*
G37*
G36*
X349391Y764597D02*
X347034Y764128D01*
X345037Y762793D01*
X343702Y760795D01*
X343233Y758438D01*
X343702Y756082D01*
X345037Y754084D01*
X347034Y752749D01*
X349391Y752280D01*
X351748Y752749D01*
X353746Y754084D01*
X355081Y756082D01*
X355550Y758438D01*
X355081Y760795D01*
X353746Y762793D01*
X351748Y764128D01*
X349391Y764597D01*
D02*
G37*
G36*
X908005Y785130D02*
X870940D01*
X869363Y784817D01*
X868027Y783924D01*
X837514Y753411D01*
X837431Y753349D01*
X837327Y753282D01*
X837244Y753238D01*
X837198Y753217D01*
X837022Y753252D01*
X834666Y752784D01*
X832668Y751449D01*
X831333Y749451D01*
X830864Y747094D01*
X831333Y744737D01*
X832668Y742739D01*
X834666Y741404D01*
X837022Y740936D01*
X839379Y741404D01*
X841377Y742739D01*
X842712Y744737D01*
X843181Y747094D01*
X843146Y747269D01*
X843166Y747315D01*
X843211Y747398D01*
X843278Y747502D01*
X843339Y747586D01*
X860210Y764456D01*
X861412Y764047D01*
X861468Y763624D01*
X862228Y761790D01*
X863436Y760215D01*
X865011Y759006D01*
X866845Y758246D01*
X868814Y757987D01*
X870782Y758246D01*
X872616Y759006D01*
X874191Y760215D01*
X875400Y761790D01*
X876160Y763624D01*
X876419Y765592D01*
X876160Y767561D01*
X875400Y769395D01*
X874191Y770970D01*
X872616Y772178D01*
X870782Y772938D01*
X870359Y772994D01*
X869950Y774196D01*
X872646Y776892D01*
X892125D01*
Y762171D01*
Y749471D01*
X932605D01*
Y762171D01*
Y777251D01*
X916365D01*
X916171Y778227D01*
X915278Y779564D01*
X910918Y783924D01*
X909581Y784817D01*
X908005Y785130D01*
D02*
G37*
G36*
X434391Y761397D02*
X432035Y760928D01*
X430037Y759593D01*
X428702Y757595D01*
X428233Y755238D01*
X428702Y752882D01*
X430037Y750884D01*
X432035Y749549D01*
X434391Y749080D01*
X436748Y749549D01*
X438746Y750884D01*
X440081Y752882D01*
X440550Y755238D01*
X440081Y757595D01*
X438746Y759593D01*
X436748Y760928D01*
X434391Y761397D01*
D02*
G37*
G36*
X298891Y758397D02*
X296535Y757928D01*
X294537Y756593D01*
X293202Y754595D01*
X292733Y752239D01*
X293202Y749882D01*
X294537Y747884D01*
X296535Y746549D01*
X298891Y746080D01*
X301248Y746549D01*
X303246Y747884D01*
X304581Y749882D01*
X305050Y752239D01*
X304581Y754595D01*
X303246Y756593D01*
X301248Y757928D01*
X298891Y758397D01*
D02*
G37*
G36*
X717923Y756702D02*
X715566Y756233D01*
X713568Y754898D01*
X712233Y752900D01*
X711764Y750544D01*
X712233Y748187D01*
X713568Y746189D01*
X715566Y744854D01*
X717923Y744386D01*
X720279Y744854D01*
X722277Y746189D01*
X723612Y748187D01*
X724081Y750544D01*
X723612Y752900D01*
X722277Y754898D01*
X720279Y756233D01*
X717923Y756702D01*
D02*
G37*
G36*
X496991Y754597D02*
X494635Y754128D01*
X492637Y752793D01*
X491302Y750795D01*
X490833Y748439D01*
X491302Y746082D01*
X492637Y744084D01*
X494635Y742749D01*
X496991Y742280D01*
X499348Y742749D01*
X501346Y744084D01*
X502681Y746082D01*
X503150Y748439D01*
X502681Y750795D01*
X501346Y752793D01*
X499348Y754128D01*
X496991Y754597D01*
D02*
G37*
G36*
X83000Y839648D02*
X79726Y839217D01*
X76676Y837954D01*
X74056Y835944D01*
X72046Y833324D01*
X70783Y830274D01*
X70352Y827000D01*
X70783Y823726D01*
X72046Y820676D01*
X74056Y818056D01*
X76676Y816046D01*
X79233Y814987D01*
Y813613D01*
X76676Y812554D01*
X74056Y810544D01*
X72046Y807924D01*
X70783Y804874D01*
X70352Y801600D01*
X70783Y798326D01*
X72046Y795276D01*
X74056Y792656D01*
X76676Y790646D01*
X79233Y789587D01*
Y788213D01*
X76676Y787154D01*
X74056Y785144D01*
X72046Y782524D01*
X70783Y779474D01*
X70352Y776200D01*
X70783Y772926D01*
X72046Y769876D01*
X74056Y767256D01*
X76676Y765246D01*
X79233Y764187D01*
Y762813D01*
X76676Y761754D01*
X74056Y759744D01*
X72046Y757124D01*
X70783Y754074D01*
X70352Y750800D01*
X70783Y747526D01*
X72046Y744476D01*
X74056Y741856D01*
X76676Y739846D01*
X79726Y738583D01*
X83000Y738152D01*
X86274Y738583D01*
X89324Y739846D01*
X91944Y741856D01*
X93954Y744476D01*
X95217Y747526D01*
X95648Y750800D01*
X95217Y754074D01*
X93954Y757124D01*
X91944Y759744D01*
X89324Y761754D01*
X86767Y762813D01*
Y764187D01*
X89324Y765246D01*
X91944Y767256D01*
X93954Y769876D01*
X95217Y772926D01*
X95648Y776200D01*
X95217Y779474D01*
X93954Y782524D01*
X91944Y785144D01*
X89324Y787154D01*
X86767Y788213D01*
Y789587D01*
X89324Y790646D01*
X91944Y792656D01*
X93954Y795276D01*
X95217Y798326D01*
X95648Y801600D01*
X95217Y804874D01*
X93954Y807924D01*
X91944Y810544D01*
X89324Y812554D01*
X86767Y813613D01*
Y814987D01*
X89324Y816046D01*
X91944Y818056D01*
X93954Y820676D01*
X95217Y823726D01*
X95648Y827000D01*
X95217Y830274D01*
X93954Y833324D01*
X91944Y835944D01*
X89324Y837954D01*
X86274Y839217D01*
X83000Y839648D01*
D02*
G37*
G36*
X404191Y741897D02*
X401835Y741428D01*
X399837Y740093D01*
X398502Y738095D01*
X398033Y735739D01*
X398502Y733382D01*
X399837Y731384D01*
X401835Y730049D01*
X404191Y729580D01*
X406548Y730049D01*
X408546Y731384D01*
X409881Y733382D01*
X410350Y735739D01*
X409881Y738095D01*
X408546Y740093D01*
X406548Y741428D01*
X404191Y741897D01*
D02*
G37*
G36*
X331891Y740997D02*
X329534Y740528D01*
X327537Y739193D01*
X326202Y737195D01*
X325733Y734839D01*
X326202Y732482D01*
X327537Y730484D01*
X329534Y729149D01*
X331891Y728680D01*
X334248Y729149D01*
X336246Y730484D01*
X337581Y732482D01*
X338050Y734839D01*
X337581Y737195D01*
X336246Y739193D01*
X334248Y740528D01*
X331891Y740997D01*
D02*
G37*
G36*
X380991Y742544D02*
X379023Y742284D01*
X377189Y741525D01*
X375614Y740316D01*
X374405Y738741D01*
X373645Y736907D01*
X373386Y734939D01*
X373645Y732970D01*
X374405Y731136D01*
X375614Y729561D01*
X377189Y728352D01*
X379023Y727593D01*
X380991Y727334D01*
X382960Y727593D01*
X384794Y728352D01*
X386369Y729561D01*
X387577Y731136D01*
X388337Y732970D01*
X388596Y734939D01*
X388337Y736907D01*
X387577Y738741D01*
X386369Y740316D01*
X384794Y741525D01*
X382960Y742284D01*
X380991Y742544D01*
D02*
G37*
G36*
X943697Y741249D02*
X941728Y740990D01*
X939894Y740230D01*
X938319Y739021D01*
X937110Y737446D01*
X936351Y735612D01*
X936091Y733644D01*
X936351Y731675D01*
X937110Y729841D01*
X938319Y728266D01*
X939894Y727058D01*
X941728Y726298D01*
X943697Y726039D01*
X945665Y726298D01*
X947499Y727058D01*
X949074Y728266D01*
X950283Y729841D01*
X951042Y731675D01*
X951302Y733644D01*
X951042Y735612D01*
X950283Y737446D01*
X949074Y739021D01*
X947499Y740230D01*
X945665Y740990D01*
X943697Y741249D01*
D02*
G37*
G36*
X349591Y738197D02*
X347234Y737728D01*
X345237Y736393D01*
X343902Y734395D01*
X343433Y732038D01*
X343902Y729682D01*
X345237Y727684D01*
X347234Y726349D01*
X349591Y725880D01*
X351948Y726349D01*
X353946Y727684D01*
X355281Y729682D01*
X355750Y732038D01*
X355281Y734395D01*
X353946Y736393D01*
X351948Y737728D01*
X349591Y738197D01*
D02*
G37*
G36*
X436591Y736797D02*
X434235Y736328D01*
X432237Y734993D01*
X430902Y732995D01*
X430433Y730639D01*
X430902Y728282D01*
X432237Y726284D01*
X434235Y724949D01*
X436591Y724480D01*
X438948Y724949D01*
X440946Y726284D01*
X442281Y728282D01*
X442750Y730639D01*
X442281Y732995D01*
X440946Y734993D01*
X438948Y736328D01*
X436591Y736797D01*
D02*
G37*
G36*
X806873Y733602D02*
X804516Y733133D01*
X802518Y731798D01*
X801183Y729800D01*
X800714Y727444D01*
X801183Y725087D01*
X802518Y723089D01*
X804516Y721754D01*
X806873Y721285D01*
X809229Y721754D01*
X811227Y723089D01*
X812562Y725087D01*
X813031Y727444D01*
X812562Y729800D01*
X811227Y731798D01*
X809229Y733133D01*
X806873Y733602D01*
D02*
G37*
G36*
X783673Y733502D02*
X781316Y733033D01*
X779318Y731698D01*
X777983Y729700D01*
X777514Y727344D01*
X777983Y724987D01*
X779318Y722989D01*
X781316Y721654D01*
X783673Y721186D01*
X786029Y721654D01*
X788027Y722989D01*
X789362Y724987D01*
X789831Y727344D01*
X789362Y729700D01*
X788027Y731698D01*
X786029Y733033D01*
X783673Y733502D01*
D02*
G37*
G36*
X296091Y729697D02*
X293734Y729228D01*
X291737Y727893D01*
X290402Y725895D01*
X289933Y723539D01*
X290402Y721182D01*
X291737Y719184D01*
X293734Y717849D01*
X296091Y717380D01*
X298448Y717849D01*
X300446Y719184D01*
X301781Y721182D01*
X302250Y723539D01*
X301781Y725895D01*
X300446Y727893D01*
X298448Y729228D01*
X296091Y729697D01*
D02*
G37*
G36*
X838823Y733602D02*
X836466Y733133D01*
X834468Y731798D01*
X833133Y729800D01*
X832664Y727444D01*
X833133Y725087D01*
X834468Y723089D01*
Y722867D01*
X833468Y722198D01*
X832133Y720201D01*
X831664Y717844D01*
X832133Y715487D01*
X833468Y713489D01*
X835466Y712154D01*
X837823Y711685D01*
X840179Y712154D01*
X842177Y713489D01*
X843512Y715487D01*
X843981Y717844D01*
X843512Y720201D01*
X842177Y722198D01*
Y722421D01*
X843177Y723089D01*
X844512Y725087D01*
X844981Y727444D01*
X844512Y729800D01*
X843177Y731798D01*
X841179Y733133D01*
X838823Y733602D01*
D02*
G37*
G36*
X333464Y721280D02*
X331107Y720811D01*
X329109Y719476D01*
X327774Y717478D01*
X327305Y715121D01*
X327774Y712765D01*
X329109Y710767D01*
X331107Y709432D01*
X333464Y708963D01*
X335820Y709432D01*
X337818Y710767D01*
X339153Y712765D01*
X339622Y715121D01*
X339153Y717478D01*
X337818Y719476D01*
X335820Y720811D01*
X333464Y721280D01*
D02*
G37*
G36*
X481941Y737997D02*
X479585Y737528D01*
X477587Y736193D01*
X476252Y734195D01*
X475783Y731839D01*
X476252Y729482D01*
X477587Y727484D01*
X477724Y727392D01*
X477972Y726147D01*
X477644Y725655D01*
X477253Y723689D01*
X477644Y721722D01*
X478089Y721056D01*
X477761Y719310D01*
X477587Y719193D01*
X476252Y717195D01*
X475783Y714839D01*
X476252Y712482D01*
X477587Y710484D01*
X479585Y709149D01*
X481941Y708680D01*
X484298Y709149D01*
X486296Y710484D01*
X487631Y712482D01*
X488100Y714839D01*
X487631Y717195D01*
X486296Y719193D01*
X486416Y720640D01*
X487139Y721722D01*
X487530Y723689D01*
X487139Y725655D01*
X486209Y727047D01*
X486296Y727484D01*
X487631Y729482D01*
X488100Y731839D01*
X487631Y734195D01*
X486296Y736193D01*
X484298Y737528D01*
X481941Y737997D01*
D02*
G37*
G36*
X784523Y718552D02*
X782166Y718083D01*
X780168Y716748D01*
X778833Y714751D01*
X778364Y712394D01*
X778833Y710037D01*
X780168Y708039D01*
X782166Y706704D01*
X784523Y706236D01*
X786879Y706704D01*
X788877Y708039D01*
X790212Y710037D01*
X790681Y712394D01*
X790212Y714751D01*
X788877Y716748D01*
X786879Y718083D01*
X784523Y718552D01*
D02*
G37*
G36*
X899723Y708902D02*
X897366Y708433D01*
X895368Y707098D01*
X894033Y705100D01*
X893564Y702744D01*
X894033Y700387D01*
X895368Y698389D01*
X897366Y697054D01*
X899723Y696585D01*
X902079Y697054D01*
X904077Y698389D01*
X905412Y700387D01*
X905881Y702744D01*
X905412Y705100D01*
X904077Y707098D01*
X902079Y708433D01*
X899723Y708902D01*
D02*
G37*
G36*
X364491Y708397D02*
X362135Y707928D01*
X360137Y706593D01*
X358802Y704595D01*
X358333Y702238D01*
X358802Y699882D01*
X360137Y697884D01*
X362135Y696549D01*
X364491Y696080D01*
X366848Y696549D01*
X368846Y697884D01*
X370181Y699882D01*
X370650Y702238D01*
X370181Y704595D01*
X368846Y706593D01*
X366848Y707928D01*
X364491Y708397D01*
D02*
G37*
G36*
X822723Y706752D02*
X820366Y706283D01*
X818368Y704948D01*
X817033Y702951D01*
X816564Y700594D01*
X817033Y698237D01*
X818368Y696239D01*
X820366Y694904D01*
X822723Y694436D01*
X825079Y694904D01*
X827077Y696239D01*
X828412Y698237D01*
X828881Y700594D01*
X828412Y702951D01*
X827077Y704948D01*
X825079Y706283D01*
X822723Y706752D01*
D02*
G37*
G36*
X849723Y696302D02*
X847366Y695833D01*
X845368Y694498D01*
X844033Y692501D01*
X843564Y690144D01*
X844033Y687787D01*
X845368Y685789D01*
X847366Y684454D01*
X849723Y683986D01*
X852079Y684454D01*
X854077Y685789D01*
X855412Y687787D01*
X855881Y690144D01*
X855412Y692501D01*
X854077Y694498D01*
X852079Y695833D01*
X849723Y696302D01*
D02*
G37*
G36*
X481941Y686997D02*
X479585Y686528D01*
X477587Y685193D01*
X476252Y683195D01*
X475783Y680839D01*
X476252Y678482D01*
X477587Y676484D01*
X479585Y675149D01*
X481941Y674680D01*
X484298Y675149D01*
X486296Y676484D01*
X487631Y678482D01*
X488100Y680839D01*
X487631Y683195D01*
X486296Y685193D01*
X484298Y686528D01*
X481941Y686997D01*
D02*
G37*
G36*
X330291D02*
X327935Y686528D01*
X325937Y685193D01*
X324602Y683195D01*
X324133Y680839D01*
X324602Y678482D01*
X325937Y676484D01*
X327935Y675149D01*
X330291Y674680D01*
X332648Y675149D01*
X334646Y676484D01*
X335981Y678482D01*
X336450Y680839D01*
X335981Y683195D01*
X334646Y685193D01*
X332648Y686528D01*
X330291Y686997D01*
D02*
G37*
G36*
X296091Y678697D02*
X293734Y678228D01*
X291737Y676893D01*
X290402Y674895D01*
X289933Y672539D01*
X290402Y670182D01*
X291737Y668184D01*
X293734Y666849D01*
X296091Y666380D01*
X298448Y666849D01*
X300446Y668184D01*
X301781Y670182D01*
X302250Y672539D01*
X301781Y674895D01*
X300446Y676893D01*
X298448Y678228D01*
X296091Y678697D01*
D02*
G37*
G36*
X1382300Y691676D02*
X1378918Y691231D01*
X1375767Y689925D01*
X1373061Y687849D01*
X1370985Y685143D01*
X1369679Y681992D01*
X1369234Y678610D01*
X1369679Y675228D01*
X1370985Y672077D01*
X1373061Y669371D01*
X1375767Y667295D01*
X1378918Y665989D01*
X1382300Y665544D01*
X1385682Y665989D01*
X1388833Y667295D01*
X1391539Y669371D01*
X1393615Y672077D01*
X1394921Y675228D01*
X1395366Y678610D01*
X1394921Y681992D01*
X1393615Y685143D01*
X1391539Y687849D01*
X1388833Y689925D01*
X1385682Y691231D01*
X1382300Y691676D01*
D02*
G37*
G36*
X-25000Y683118D02*
X-27360Y682807D01*
X-29559Y681896D01*
X-31447Y680447D01*
X-32896Y678559D01*
X-33807Y676360D01*
X-34118Y674000D01*
X-33807Y671640D01*
X-32896Y669441D01*
X-31447Y667553D01*
X-29559Y666104D01*
X-27360Y665193D01*
X-25000Y664882D01*
X-22640Y665193D01*
X-20441Y666104D01*
X-18553Y667553D01*
X-17104Y669441D01*
X-16193Y671640D01*
X-15882Y674000D01*
X-16193Y676360D01*
X-17104Y678559D01*
X-18553Y680447D01*
X-20441Y681896D01*
X-22640Y682807D01*
X-25000Y683118D01*
D02*
G37*
G36*
X481941Y669997D02*
X479585Y669528D01*
X477587Y668193D01*
X476252Y666195D01*
X475783Y663839D01*
X476252Y661482D01*
X477587Y659484D01*
X479585Y658149D01*
X481941Y657680D01*
X484298Y658149D01*
X486296Y659484D01*
X487631Y661482D01*
X488100Y663839D01*
X487631Y666195D01*
X486296Y668193D01*
X484298Y669528D01*
X481941Y669997D01*
D02*
G37*
G36*
X333091D02*
X330735Y669528D01*
X328737Y668193D01*
X327402Y666195D01*
X326933Y663839D01*
X327402Y661482D01*
X328737Y659484D01*
X330735Y658149D01*
X333091Y657680D01*
X335448Y658149D01*
X337446Y659484D01*
X338781Y661482D01*
X339250Y663839D01*
X338781Y666195D01*
X337446Y668193D01*
X335448Y669528D01*
X333091Y669997D01*
D02*
G37*
G36*
X717272Y663502D02*
X714916Y663033D01*
X712918Y661698D01*
X711583Y659700D01*
X711114Y657344D01*
X711583Y654987D01*
X712918Y652989D01*
X714916Y651654D01*
X717272Y651185D01*
X719629Y651654D01*
X721627Y652989D01*
X722962Y654987D01*
X723431Y657344D01*
X722962Y659700D01*
X721627Y661698D01*
X719629Y663033D01*
X717272Y663502D01*
D02*
G37*
G36*
X205691Y659377D02*
X203725Y658986D01*
X202058Y657872D01*
X200944Y656205D01*
X200553Y654239D01*
X200944Y652272D01*
X202058Y650605D01*
X203725Y649491D01*
X205691Y649100D01*
X207658Y649491D01*
X209325Y650605D01*
X210439Y652272D01*
X210830Y654239D01*
X210439Y656205D01*
X209325Y657872D01*
X207658Y658986D01*
X205691Y659377D01*
D02*
G37*
G36*
X908005Y684031D02*
X870940D01*
X869363Y683717D01*
X868027Y682824D01*
X837514Y652311D01*
X837431Y652249D01*
X837327Y652182D01*
X837244Y652138D01*
X837198Y652117D01*
X837022Y652152D01*
X834666Y651684D01*
X832668Y650349D01*
X831333Y648351D01*
X830864Y645994D01*
X831333Y643637D01*
X832668Y641639D01*
X834666Y640304D01*
X837022Y639836D01*
X839379Y640304D01*
X841377Y641639D01*
X842712Y643637D01*
X843181Y645994D01*
X843146Y646169D01*
X843166Y646215D01*
X843211Y646298D01*
X843278Y646402D01*
X843339Y646486D01*
X860210Y663356D01*
X861412Y662947D01*
X861468Y662524D01*
X862228Y660690D01*
X863436Y659115D01*
X865011Y657906D01*
X866845Y657146D01*
X868814Y656887D01*
X870782Y657146D01*
X872616Y657906D01*
X874191Y659115D01*
X875400Y660690D01*
X876160Y662524D01*
X876419Y664492D01*
X876160Y666460D01*
X875400Y668295D01*
X874191Y669870D01*
X872616Y671078D01*
X870782Y671838D01*
X870359Y671894D01*
X869950Y673096D01*
X872646Y675792D01*
X892125D01*
Y661071D01*
Y648371D01*
X932605D01*
Y661071D01*
Y676151D01*
X916365D01*
X916171Y677127D01*
X915278Y678464D01*
X910918Y682824D01*
X909581Y683717D01*
X908005Y684031D01*
D02*
G37*
G36*
X229391Y649277D02*
X227425Y648886D01*
X225758Y647772D01*
X224644Y646105D01*
X224449Y646024D01*
X223758Y646486D01*
X221791Y646877D01*
X219825Y646486D01*
X218158Y645372D01*
X217044Y643705D01*
X216653Y641739D01*
X217044Y639772D01*
X218158Y638105D01*
X219825Y636991D01*
X221791Y636600D01*
X223758Y636991D01*
X225425Y638105D01*
X226539Y639772D01*
X226734Y639853D01*
X227425Y639391D01*
X229391Y639000D01*
X231358Y639391D01*
X233025Y640505D01*
X234139Y642172D01*
X234530Y644139D01*
X234139Y646105D01*
X233025Y647772D01*
X231358Y648886D01*
X229391Y649277D01*
D02*
G37*
G36*
X-100227Y654578D02*
X-102584Y654109D01*
X-104582Y652775D01*
X-105917Y650777D01*
X-106386Y648420D01*
X-105917Y646063D01*
X-104582Y644065D01*
X-102584Y642730D01*
X-100227Y642262D01*
X-97871Y642730D01*
X-95873Y644065D01*
X-94538Y646063D01*
X-94069Y648420D01*
X-94538Y650777D01*
X-95873Y652775D01*
X-97871Y654109D01*
X-100227Y654578D01*
D02*
G37*
G36*
X187491Y652477D02*
X185525Y652086D01*
X183858Y650972D01*
X182744Y649305D01*
X182353Y647339D01*
X182656Y645811D01*
X181525Y645586D01*
X179858Y644472D01*
X178744Y642805D01*
X178465Y641404D01*
X177091Y641677D01*
X175125Y641286D01*
X173458Y640172D01*
X172344Y638505D01*
X171952Y636539D01*
X172344Y634572D01*
X173458Y632905D01*
X175125Y631791D01*
X177091Y631400D01*
X179058Y631791D01*
X180725Y632905D01*
X181839Y634572D01*
X182117Y635973D01*
X183491Y635700D01*
X185458Y636091D01*
X187125Y637205D01*
X188239Y638872D01*
X188630Y640838D01*
X188326Y642366D01*
X189458Y642591D01*
X191125Y643705D01*
X192239Y645372D01*
X192630Y647339D01*
X192239Y649305D01*
X191125Y650972D01*
X189458Y652086D01*
X187491Y652477D01*
D02*
G37*
G36*
X83000Y712648D02*
X79726Y712217D01*
X76676Y710954D01*
X74056Y708944D01*
X72046Y706324D01*
X70783Y703274D01*
X70352Y700000D01*
X70783Y696726D01*
X72046Y693676D01*
X74056Y691056D01*
X76676Y689046D01*
X79233Y687987D01*
Y686613D01*
X76676Y685554D01*
X74056Y683544D01*
X72046Y680924D01*
X70783Y677874D01*
X70352Y674600D01*
X70783Y671326D01*
X72046Y668276D01*
X74056Y665656D01*
X76676Y663646D01*
X78212Y663010D01*
X77959Y661740D01*
X70460D01*
Y636660D01*
X95540D01*
Y661740D01*
X88041D01*
X87788Y663010D01*
X89324Y663646D01*
X91944Y665656D01*
X93954Y668276D01*
X95217Y671326D01*
X95648Y674600D01*
X95217Y677874D01*
X93954Y680924D01*
X91944Y683544D01*
X89324Y685554D01*
X86767Y686613D01*
Y687987D01*
X89324Y689046D01*
X91944Y691056D01*
X93954Y693676D01*
X95217Y696726D01*
X95648Y700000D01*
X95217Y703274D01*
X93954Y706324D01*
X91944Y708944D01*
X89324Y710954D01*
X86274Y712217D01*
X83000Y712648D01*
D02*
G37*
G36*
X248091Y644577D02*
X246125Y644186D01*
X244458Y643072D01*
X243344Y641405D01*
X242952Y639439D01*
X243344Y637472D01*
X244458Y635805D01*
X246125Y634691D01*
X248091Y634300D01*
X250058Y634691D01*
X251725Y635805D01*
X252839Y637472D01*
X253230Y639439D01*
X252839Y641405D01*
X251725Y643072D01*
X250058Y644186D01*
X248091Y644577D01*
D02*
G37*
G36*
X-53927Y650038D02*
X-56287Y649727D01*
X-58486Y648816D01*
X-60375Y647367D01*
X-61824Y645479D01*
X-62735Y643280D01*
X-63046Y640920D01*
X-62735Y638560D01*
X-61824Y636361D01*
X-60375Y634473D01*
X-58486Y633023D01*
X-56287Y632113D01*
X-53927Y631802D01*
X-51568Y632113D01*
X-49369Y633023D01*
X-47480Y634473D01*
X-46031Y636361D01*
X-45120Y638560D01*
X-44809Y640920D01*
X-45120Y643280D01*
X-46031Y645479D01*
X-47480Y647367D01*
X-49369Y648816D01*
X-51568Y649727D01*
X-53927Y650038D01*
D02*
G37*
G36*
X1247700Y648258D02*
X1245048Y647908D01*
X1242576Y646885D01*
X1240454Y645256D01*
X1238825Y643134D01*
X1237801Y640662D01*
X1237452Y638010D01*
X1237801Y635358D01*
X1238825Y632886D01*
X1240454Y630764D01*
X1242576Y629135D01*
X1245048Y628111D01*
X1247700Y627762D01*
X1250352Y628111D01*
X1252824Y629135D01*
X1254946Y630764D01*
X1256575Y632886D01*
X1257598Y635358D01*
X1257948Y638010D01*
X1257598Y640662D01*
X1256575Y643134D01*
X1254946Y645256D01*
X1252824Y646885D01*
X1250352Y647908D01*
X1247700Y648258D01*
D02*
G37*
G36*
X-97227Y637559D02*
X-99194Y637167D01*
X-100861Y636054D01*
X-101975Y634386D01*
X-102366Y632420D01*
X-101975Y630453D01*
X-100861Y628786D01*
X-99194Y627672D01*
X-97227Y627281D01*
X-95261Y627672D01*
X-93594Y628786D01*
X-92480Y630453D01*
X-92089Y632420D01*
X-92480Y634386D01*
X-93594Y636054D01*
X-95261Y637167D01*
X-97227Y637559D01*
D02*
G37*
G36*
X1336600Y675871D02*
X1331691Y675388D01*
X1326971Y673956D01*
X1322621Y671631D01*
X1318808Y668502D01*
X1315679Y664689D01*
X1313354Y660339D01*
X1311922Y655619D01*
X1311439Y650710D01*
X1311922Y645801D01*
X1313354Y641081D01*
X1315679Y636731D01*
X1318808Y632918D01*
X1322621Y629789D01*
X1326971Y627464D01*
X1331691Y626032D01*
X1336600Y625549D01*
X1341509Y626032D01*
X1346229Y627464D01*
X1350579Y629789D01*
X1354392Y632918D01*
X1357521Y636731D01*
X1359846Y641081D01*
X1361278Y645801D01*
X1361761Y650710D01*
X1361278Y655619D01*
X1359846Y660339D01*
X1357521Y664689D01*
X1354392Y668502D01*
X1350579Y671631D01*
X1346229Y673956D01*
X1341509Y675388D01*
X1336600Y675871D01*
D02*
G37*
G36*
X943697Y640149D02*
X941728Y639890D01*
X939894Y639130D01*
X938319Y637921D01*
X937110Y636346D01*
X936351Y634512D01*
X936091Y632544D01*
X936351Y630575D01*
X937110Y628741D01*
X938319Y627166D01*
X939894Y625958D01*
X941728Y625198D01*
X943697Y624939D01*
X945665Y625198D01*
X947499Y625958D01*
X949074Y627166D01*
X950283Y628741D01*
X951042Y630575D01*
X951302Y632544D01*
X951042Y634512D01*
X950283Y636346D01*
X949074Y637921D01*
X947499Y639130D01*
X945665Y639890D01*
X943697Y640149D01*
D02*
G37*
G36*
X280291Y635697D02*
X277934Y635228D01*
X275937Y633893D01*
X274602Y631895D01*
X274133Y629539D01*
X274602Y627182D01*
X275937Y625184D01*
X277934Y623849D01*
X280291Y623380D01*
X282648Y623849D01*
X284646Y625184D01*
X285981Y627182D01*
X286450Y629539D01*
X285981Y631895D01*
X284646Y633893D01*
X282648Y635228D01*
X280291Y635697D01*
D02*
G37*
G36*
X806873Y632502D02*
X804516Y632033D01*
X802518Y630698D01*
X801183Y628700D01*
X800714Y626344D01*
X801183Y623987D01*
X802518Y621989D01*
X804516Y620654D01*
X806873Y620186D01*
X809229Y620654D01*
X811227Y621989D01*
X812562Y623987D01*
X813031Y626344D01*
X812562Y628700D01*
X811227Y630698D01*
X809229Y632033D01*
X806873Y632502D01*
D02*
G37*
G36*
X783673Y632402D02*
X781316Y631933D01*
X779318Y630598D01*
X777983Y628601D01*
X777514Y626244D01*
X777983Y623887D01*
X779318Y621889D01*
X781316Y620554D01*
X783673Y620085D01*
X786029Y620554D01*
X788027Y621889D01*
X789362Y623887D01*
X789831Y626244D01*
X789362Y628601D01*
X788027Y630598D01*
X786029Y631933D01*
X783673Y632402D01*
D02*
G37*
G36*
X1273100Y635558D02*
X1270448Y635209D01*
X1267976Y634185D01*
X1265854Y632556D01*
X1264225Y630434D01*
X1263201Y627962D01*
X1262852Y625310D01*
X1263201Y622658D01*
X1264225Y620186D01*
X1265854Y618064D01*
X1267976Y616435D01*
X1270448Y615411D01*
X1273100Y615062D01*
X1275752Y615411D01*
X1278224Y616435D01*
X1280346Y618064D01*
X1281975Y620186D01*
X1282998Y622658D01*
X1283348Y625310D01*
X1282998Y627962D01*
X1281975Y630434D01*
X1280346Y632556D01*
X1278224Y634185D01*
X1275752Y635209D01*
X1273100Y635558D01*
D02*
G37*
G36*
X838823Y632502D02*
X836466Y632033D01*
X834468Y630698D01*
X833133Y628700D01*
X832664Y626344D01*
X833133Y623987D01*
X834468Y621989D01*
Y621767D01*
X833468Y621098D01*
X832133Y619100D01*
X831664Y616744D01*
X832133Y614387D01*
X833468Y612389D01*
X835466Y611054D01*
X837823Y610586D01*
X840179Y611054D01*
X842177Y612389D01*
X843512Y614387D01*
X843981Y616744D01*
X843512Y619100D01*
X842177Y621098D01*
Y621321D01*
X843177Y621989D01*
X844512Y623987D01*
X844981Y626344D01*
X844512Y628700D01*
X843177Y630698D01*
X841179Y632033D01*
X838823Y632502D01*
D02*
G37*
G36*
X-43127Y624125D02*
X-45096Y623866D01*
X-46930Y623106D01*
X-48505Y621898D01*
X-49714Y620322D01*
X-50473Y618488D01*
X-50733Y616520D01*
X-50473Y614552D01*
X-49714Y612717D01*
X-48505Y611142D01*
X-46930Y609934D01*
X-45096Y609174D01*
X-43127Y608915D01*
X-41159Y609174D01*
X-39325Y609934D01*
X-37750Y611142D01*
X-36541Y612717D01*
X-35782Y614552D01*
X-35522Y616520D01*
X-35782Y618488D01*
X-36541Y620322D01*
X-37750Y621898D01*
X-39325Y623106D01*
X-41159Y623866D01*
X-43127Y624125D01*
D02*
G37*
G36*
X784523Y617452D02*
X782166Y616983D01*
X780168Y615648D01*
X778833Y613651D01*
X778364Y611294D01*
X778833Y608937D01*
X780168Y606939D01*
X782166Y605604D01*
X784523Y605135D01*
X786879Y605604D01*
X788877Y606939D01*
X790212Y608937D01*
X790681Y611294D01*
X790212Y613651D01*
X788877Y615648D01*
X786879Y616983D01*
X784523Y617452D01*
D02*
G37*
G36*
X1247700Y622858D02*
X1245048Y622509D01*
X1242576Y621485D01*
X1240454Y619856D01*
X1238825Y617734D01*
X1237801Y615262D01*
X1237452Y612610D01*
X1237801Y609958D01*
X1238825Y607486D01*
X1240454Y605364D01*
X1242576Y603735D01*
X1245048Y602711D01*
X1247700Y602362D01*
X1250352Y602711D01*
X1252824Y603735D01*
X1254946Y605364D01*
X1256575Y607486D01*
X1257598Y609958D01*
X1257948Y612610D01*
X1257598Y615262D01*
X1256575Y617734D01*
X1254946Y619856D01*
X1252824Y621485D01*
X1250352Y622509D01*
X1247700Y622858D01*
D02*
G37*
G36*
X899723Y607802D02*
X897366Y607333D01*
X895368Y605998D01*
X894033Y604001D01*
X893564Y601644D01*
X894033Y599287D01*
X895368Y597289D01*
X897366Y595954D01*
X899723Y595485D01*
X902079Y595954D01*
X904077Y597289D01*
X905412Y599287D01*
X905881Y601644D01*
X905412Y604001D01*
X904077Y605998D01*
X902079Y607333D01*
X899723Y607802D01*
D02*
G37*
G36*
X822723Y605652D02*
X820366Y605183D01*
X818368Y603848D01*
X817033Y601851D01*
X816564Y599494D01*
X817033Y597137D01*
X818368Y595139D01*
X820366Y593804D01*
X822723Y593335D01*
X825079Y593804D01*
X827077Y595139D01*
X828412Y597137D01*
X828881Y599494D01*
X828412Y601851D01*
X827077Y603848D01*
X825079Y605183D01*
X822723Y605652D01*
D02*
G37*
G36*
X1273100Y610158D02*
X1270448Y609809D01*
X1267976Y608785D01*
X1265854Y607156D01*
X1264225Y605034D01*
X1263201Y602562D01*
X1262852Y599910D01*
X1263201Y597258D01*
X1264225Y594786D01*
X1265854Y592664D01*
X1267976Y591035D01*
X1270448Y590011D01*
X1273100Y589662D01*
X1275752Y590011D01*
X1278224Y591035D01*
X1280346Y592664D01*
X1281975Y594786D01*
X1282998Y597258D01*
X1283348Y599910D01*
X1282998Y602562D01*
X1281975Y605034D01*
X1280346Y607156D01*
X1278224Y608785D01*
X1275752Y609809D01*
X1273100Y610158D01*
D02*
G37*
G36*
X-91427Y600025D02*
X-93396Y599766D01*
X-95230Y599006D01*
X-96805Y597798D01*
X-98014Y596222D01*
X-98773Y594388D01*
X-99033Y592420D01*
X-98773Y590452D01*
X-98014Y588617D01*
X-96805Y587042D01*
X-95230Y585834D01*
X-93396Y585074D01*
X-91427Y584815D01*
X-89459Y585074D01*
X-87625Y585834D01*
X-86050Y587042D01*
X-84841Y588617D01*
X-84082Y590452D01*
X-83822Y592420D01*
X-84082Y594388D01*
X-84841Y596222D01*
X-86050Y597798D01*
X-87625Y599006D01*
X-89459Y599766D01*
X-91427Y600025D01*
D02*
G37*
G36*
X117391Y584877D02*
X115425Y584486D01*
X113758Y583372D01*
X113543Y583051D01*
X112273D01*
X112125Y583272D01*
X110458Y584386D01*
X108492Y584777D01*
X106525Y584386D01*
X104858Y583272D01*
X103744Y581605D01*
X103353Y579639D01*
X103744Y577672D01*
X104858Y576005D01*
X106525Y574891D01*
X108492Y574500D01*
X110458Y574891D01*
X112125Y576005D01*
X112340Y576326D01*
X113610D01*
X113758Y576105D01*
X115425Y574991D01*
X117391Y574600D01*
X119358Y574991D01*
X121025Y576105D01*
X122139Y577772D01*
X122530Y579739D01*
X122139Y581705D01*
X121025Y583372D01*
X119358Y584486D01*
X117391Y584877D01*
D02*
G37*
G36*
X849723Y595202D02*
X847366Y594733D01*
X845368Y593398D01*
X844033Y591400D01*
X843564Y589044D01*
X844033Y586687D01*
X845368Y584689D01*
X847366Y583354D01*
X849723Y582886D01*
X852079Y583354D01*
X854077Y584689D01*
X855412Y586687D01*
X855881Y589044D01*
X855412Y591400D01*
X854077Y593398D01*
X852079Y594733D01*
X849723Y595202D01*
D02*
G37*
G36*
X245691Y591620D02*
X243861Y591256D01*
X242310Y590220D01*
X241273Y588669D01*
X240909Y586839D01*
X241273Y585009D01*
X242310Y583457D01*
X243861Y582421D01*
X245691Y582057D01*
X247521Y582421D01*
X249072Y583457D01*
X250109Y585009D01*
X250473Y586839D01*
X250109Y588669D01*
X249072Y590220D01*
X247521Y591256D01*
X245691Y591620D01*
D02*
G37*
G36*
X230691D02*
X228861Y591256D01*
X227310Y590220D01*
X226273Y588669D01*
X225909Y586839D01*
X226273Y585009D01*
X227310Y583457D01*
X228861Y582421D01*
X230691Y582057D01*
X232521Y582421D01*
X234072Y583457D01*
X235109Y585009D01*
X235473Y586839D01*
X235109Y588669D01*
X234072Y590220D01*
X232521Y591256D01*
X230691Y591620D01*
D02*
G37*
G36*
X215691D02*
X213861Y591256D01*
X212310Y590220D01*
X211273Y588669D01*
X210909Y586839D01*
X211273Y585009D01*
X212310Y583457D01*
X213861Y582421D01*
X215691Y582057D01*
X217521Y582421D01*
X219072Y583457D01*
X220109Y585009D01*
X220473Y586839D01*
X220109Y588669D01*
X219072Y590220D01*
X217521Y591256D01*
X215691Y591620D01*
D02*
G37*
G36*
X200691D02*
X198861Y591256D01*
X197310Y590220D01*
X196273Y588669D01*
X195909Y586839D01*
X196273Y585009D01*
X197310Y583457D01*
X198861Y582421D01*
X200691Y582057D01*
X202521Y582421D01*
X204072Y583457D01*
X205109Y585009D01*
X205473Y586839D01*
X205109Y588669D01*
X204072Y590220D01*
X202521Y591256D01*
X200691Y591620D01*
D02*
G37*
G36*
X185691D02*
X183861Y591256D01*
X182310Y590220D01*
X181273Y588669D01*
X180909Y586839D01*
X181273Y585009D01*
X182310Y583457D01*
X183861Y582421D01*
X185691Y582057D01*
X187521Y582421D01*
X189072Y583457D01*
X190109Y585009D01*
X190473Y586839D01*
X190109Y588669D01*
X189072Y590220D01*
X187521Y591256D01*
X185691Y591620D01*
D02*
G37*
G36*
X170691D02*
X168861Y591256D01*
X167310Y590220D01*
X166273Y588669D01*
X165909Y586839D01*
X166273Y585009D01*
X167310Y583457D01*
X168861Y582421D01*
X170691Y582057D01*
X172521Y582421D01*
X174072Y583457D01*
X175109Y585009D01*
X175473Y586839D01*
X175109Y588669D01*
X174072Y590220D01*
X172521Y591256D01*
X170691Y591620D01*
D02*
G37*
G36*
X286891Y608997D02*
X284535Y608528D01*
X282537Y607193D01*
X281202Y605195D01*
X280733Y602839D01*
X281202Y600482D01*
X282537Y598484D01*
X284535Y597149D01*
X286891Y596680D01*
X288900Y597080D01*
X289692Y596158D01*
X289740Y596051D01*
X289102Y595095D01*
X288633Y592739D01*
X289102Y590382D01*
X290437Y588384D01*
X292435Y587049D01*
X294791Y586580D01*
X297148Y587049D01*
X298016Y587629D01*
X299189Y587143D01*
X299202Y587082D01*
X300537Y585084D01*
X302535Y583749D01*
X304891Y583280D01*
X307248Y583749D01*
X309215Y585063D01*
X310137Y583684D01*
X312134Y582349D01*
X314491Y581880D01*
X316848Y582349D01*
X318846Y583684D01*
X320181Y585682D01*
X320649Y588039D01*
X320181Y590395D01*
X318846Y592393D01*
X316848Y593728D01*
X314491Y594197D01*
X312134Y593728D01*
X310167Y592414D01*
X309246Y593793D01*
X307248Y595128D01*
X304891Y595597D01*
X302535Y595128D01*
X301666Y594548D01*
X300493Y595034D01*
X300481Y595095D01*
X299146Y597093D01*
X297148Y598428D01*
X294791Y598897D01*
X292782Y598497D01*
X291991Y599419D01*
X291943Y599527D01*
X292581Y600482D01*
X293050Y602839D01*
X292581Y605195D01*
X291246Y607193D01*
X289248Y608528D01*
X286891Y608997D01*
D02*
G37*
G36*
X71565Y600050D02*
X69599Y599659D01*
X67932Y598545D01*
X66818Y596878D01*
X66427Y594911D01*
X66818Y592945D01*
X67795Y591481D01*
X67922Y590661D01*
X67795Y589841D01*
X66818Y588378D01*
X66427Y586411D01*
X66818Y584445D01*
X67932Y582778D01*
X69599Y581664D01*
X71565Y581273D01*
X73532Y581664D01*
X75199Y582778D01*
X76313Y584445D01*
X76704Y586411D01*
X76313Y588378D01*
X75335Y589841D01*
X75208Y590661D01*
X75335Y591481D01*
X76313Y592945D01*
X76704Y594911D01*
X76313Y596878D01*
X75199Y598545D01*
X73532Y599659D01*
X71565Y600050D01*
D02*
G37*
G36*
X1247700Y597458D02*
X1245048Y597108D01*
X1242576Y596085D01*
X1240454Y594456D01*
X1238825Y592334D01*
X1237801Y589862D01*
X1237452Y587210D01*
X1237801Y584558D01*
X1238825Y582086D01*
X1240454Y579964D01*
X1242576Y578335D01*
X1245048Y577312D01*
X1247700Y576962D01*
X1250352Y577312D01*
X1252824Y578335D01*
X1254946Y579964D01*
X1256575Y582086D01*
X1257598Y584558D01*
X1257948Y587210D01*
X1257598Y589862D01*
X1256575Y592334D01*
X1254946Y594456D01*
X1252824Y596085D01*
X1250352Y597108D01*
X1247700Y597458D01*
D02*
G37*
G36*
X414642Y583297D02*
X412285Y582828D01*
X410287Y581493D01*
X408952Y579495D01*
X408483Y577138D01*
X408952Y574782D01*
X410287Y572784D01*
X412285Y571449D01*
X414642Y570980D01*
X416998Y571449D01*
X418996Y572784D01*
X420331Y574782D01*
X420800Y577138D01*
X420331Y579495D01*
X418996Y581493D01*
X416998Y582828D01*
X414642Y583297D01*
D02*
G37*
G36*
X245691Y576620D02*
X243861Y576256D01*
X242310Y575220D01*
X241273Y573669D01*
X240909Y571839D01*
X241273Y570009D01*
X242310Y568457D01*
X243861Y567421D01*
X245691Y567057D01*
X247521Y567421D01*
X249072Y568457D01*
X250109Y570009D01*
X250473Y571839D01*
X250109Y573669D01*
X249072Y575220D01*
X247521Y576256D01*
X245691Y576620D01*
D02*
G37*
G36*
X230691D02*
X228861Y576256D01*
X227310Y575220D01*
X226273Y573669D01*
X225909Y571839D01*
X226273Y570009D01*
X227310Y568457D01*
X228861Y567421D01*
X230691Y567057D01*
X232521Y567421D01*
X234072Y568457D01*
X235109Y570009D01*
X235473Y571839D01*
X235109Y573669D01*
X234072Y575220D01*
X232521Y576256D01*
X230691Y576620D01*
D02*
G37*
G36*
X215691D02*
X213861Y576256D01*
X212310Y575220D01*
X211273Y573669D01*
X210909Y571839D01*
X211273Y570009D01*
X212310Y568457D01*
X213861Y567421D01*
X215691Y567057D01*
X217521Y567421D01*
X219072Y568457D01*
X220109Y570009D01*
X220473Y571839D01*
X220109Y573669D01*
X219072Y575220D01*
X217521Y576256D01*
X215691Y576620D01*
D02*
G37*
G36*
X200691D02*
X198861Y576256D01*
X197310Y575220D01*
X196273Y573669D01*
X195909Y571839D01*
X196273Y570009D01*
X197310Y568457D01*
X198861Y567421D01*
X200691Y567057D01*
X202521Y567421D01*
X204072Y568457D01*
X205109Y570009D01*
X205473Y571839D01*
X205109Y573669D01*
X204072Y575220D01*
X202521Y576256D01*
X200691Y576620D01*
D02*
G37*
G36*
X185691D02*
X183861Y576256D01*
X182310Y575220D01*
X181273Y573669D01*
X180909Y571839D01*
X181273Y570009D01*
X182310Y568457D01*
X183861Y567421D01*
X185691Y567057D01*
X187521Y567421D01*
X189072Y568457D01*
X190109Y570009D01*
X190473Y571839D01*
X190109Y573669D01*
X189072Y575220D01*
X187521Y576256D01*
X185691Y576620D01*
D02*
G37*
G36*
X170691D02*
X168861Y576256D01*
X167310Y575220D01*
X166273Y573669D01*
X165909Y571839D01*
X166273Y570009D01*
X167310Y568457D01*
X168861Y567421D01*
X170691Y567057D01*
X172521Y567421D01*
X174072Y568457D01*
X175109Y570009D01*
X175473Y571839D01*
X175109Y573669D01*
X174072Y575220D01*
X172521Y576256D01*
X170691Y576620D01*
D02*
G37*
G36*
X308491Y577997D02*
X306134Y577528D01*
X304137Y576193D01*
X302802Y574195D01*
X302333Y571839D01*
X302802Y569482D01*
X304137Y567484D01*
X306134Y566149D01*
X308491Y565680D01*
X310848Y566149D01*
X312846Y567484D01*
X314181Y569482D01*
X314650Y571839D01*
X314181Y574195D01*
X312846Y576193D01*
X310848Y577528D01*
X308491Y577997D01*
D02*
G37*
G36*
X1273100Y584758D02*
X1270448Y584408D01*
X1267976Y583385D01*
X1265854Y581756D01*
X1264225Y579634D01*
X1263201Y577162D01*
X1262852Y574510D01*
X1263201Y571858D01*
X1264225Y569386D01*
X1265854Y567264D01*
X1267976Y565635D01*
X1270448Y564612D01*
X1273100Y564262D01*
X1275752Y564612D01*
X1278224Y565635D01*
X1280346Y567264D01*
X1281975Y569386D01*
X1282998Y571858D01*
X1283348Y574510D01*
X1282998Y577162D01*
X1281975Y579634D01*
X1280346Y581756D01*
X1278224Y583385D01*
X1275752Y584408D01*
X1273100Y584758D01*
D02*
G37*
G36*
X-91427Y576025D02*
X-93396Y575766D01*
X-95230Y575006D01*
X-96805Y573797D01*
X-98014Y572222D01*
X-98773Y570388D01*
X-99033Y568420D01*
X-98773Y566451D01*
X-98014Y564617D01*
X-96805Y563042D01*
X-95230Y561834D01*
X-93396Y561074D01*
X-91427Y560815D01*
X-89459Y561074D01*
X-87625Y561834D01*
X-86050Y563042D01*
X-84841Y564617D01*
X-84082Y566451D01*
X-83822Y568420D01*
X-84082Y570388D01*
X-84841Y572222D01*
X-86050Y573797D01*
X-87625Y575006D01*
X-89459Y575766D01*
X-91427Y576025D01*
D02*
G37*
G36*
X215691Y561620D02*
X213861Y561256D01*
X212310Y560220D01*
X211273Y558669D01*
X211243Y558516D01*
X210551Y558146D01*
X208191Y558457D01*
X205831Y558146D01*
X205140Y558516D01*
X205109Y558669D01*
X204072Y560220D01*
X202521Y561256D01*
X200691Y561620D01*
X198861Y561256D01*
X197310Y560220D01*
X196273Y558669D01*
X195909Y556839D01*
X196273Y555009D01*
X197310Y553457D01*
X198861Y552421D01*
X199014Y552390D01*
X199384Y551698D01*
X199073Y549339D01*
X199384Y546979D01*
X199014Y546287D01*
X198861Y546256D01*
X197310Y545220D01*
X196273Y543669D01*
X195909Y541839D01*
X196273Y540009D01*
X197310Y538457D01*
X198861Y537421D01*
X200691Y537057D01*
X202521Y537421D01*
X204072Y538457D01*
X205109Y540009D01*
X205140Y540162D01*
X205831Y540531D01*
X208191Y540221D01*
X210551Y540531D01*
X211243Y540162D01*
X211273Y540009D01*
X212310Y538457D01*
X213861Y537421D01*
X215691Y537057D01*
X217521Y537421D01*
X219072Y538457D01*
X220109Y540009D01*
X220473Y541839D01*
X220109Y543669D01*
X219072Y545220D01*
X217521Y546256D01*
X217368Y546287D01*
X216999Y546979D01*
X217309Y549339D01*
X216999Y551698D01*
X217368Y552390D01*
X217521Y552421D01*
X219072Y553457D01*
X220109Y555009D01*
X220473Y556839D01*
X220109Y558669D01*
X219072Y560220D01*
X217521Y561256D01*
X215691Y561620D01*
D02*
G37*
G36*
X383891Y570397D02*
X381535Y569928D01*
X379537Y568593D01*
X378202Y566595D01*
X377733Y564239D01*
X378202Y561882D01*
X379537Y559884D01*
X381535Y558549D01*
X383891Y558080D01*
X386248Y558549D01*
X388246Y559884D01*
X389581Y561882D01*
X390050Y564239D01*
X389581Y566595D01*
X388246Y568593D01*
X386248Y569928D01*
X383891Y570397D01*
D02*
G37*
G36*
X71565Y572850D02*
X69599Y572459D01*
X67932Y571345D01*
X66818Y569678D01*
X66427Y567711D01*
X66818Y565745D01*
X67795Y564281D01*
X67922Y563461D01*
X67795Y562641D01*
X66818Y561178D01*
X66427Y559211D01*
X66818Y557245D01*
X67932Y555578D01*
X69599Y554464D01*
X71565Y554073D01*
X73532Y554464D01*
X75199Y555578D01*
X76313Y557245D01*
X76704Y559211D01*
X76313Y561178D01*
X75335Y562641D01*
X75208Y563461D01*
X75335Y564281D01*
X76313Y565745D01*
X76704Y567711D01*
X76313Y569678D01*
X75199Y571345D01*
X73532Y572459D01*
X71565Y572850D01*
D02*
G37*
G36*
X296791Y568377D02*
X294825Y567986D01*
X293158Y566872D01*
X292044Y565205D01*
X291653Y563239D01*
X292044Y561272D01*
X293158Y559605D01*
X294825Y558491D01*
X296706Y558117D01*
X296921Y558020D01*
X297712Y556988D01*
X297482Y555239D01*
X297589Y554425D01*
X297394Y554148D01*
X296434Y553470D01*
X294891Y553777D01*
X292925Y553386D01*
X291258Y552272D01*
X290144Y550605D01*
X289753Y548639D01*
X290144Y546672D01*
X291258Y545005D01*
X292925Y543891D01*
X294891Y543500D01*
X296858Y543891D01*
X298525Y545005D01*
X299639Y546672D01*
X299880Y547886D01*
X301270Y548420D01*
X301537Y548216D01*
X303492Y547406D01*
X305591Y547129D01*
X307690Y547406D01*
X309646Y548216D01*
X311325Y549504D01*
X312614Y551184D01*
X313424Y553140D01*
X313701Y555239D01*
X313424Y557337D01*
X312614Y559293D01*
X311325Y560973D01*
X309646Y562262D01*
X307690Y563072D01*
X305591Y563348D01*
X303492Y563072D01*
X303057Y562891D01*
X301827Y563756D01*
X301539Y565205D01*
X300425Y566872D01*
X298758Y567986D01*
X296791Y568377D01*
D02*
G37*
G36*
X245691Y561620D02*
X243861Y561256D01*
X242310Y560220D01*
X241273Y558669D01*
X240909Y556839D01*
X241273Y555009D01*
X242310Y553457D01*
X243861Y552421D01*
X245691Y552057D01*
X247521Y552421D01*
X249072Y553457D01*
X250109Y555009D01*
X250473Y556839D01*
X250109Y558669D01*
X249072Y560220D01*
X247521Y561256D01*
X245691Y561620D01*
D02*
G37*
G36*
X230691D02*
X228861Y561256D01*
X227310Y560220D01*
X226273Y558669D01*
X225909Y556839D01*
X226273Y555009D01*
X227310Y553457D01*
X228861Y552421D01*
X230691Y552057D01*
X232521Y552421D01*
X234072Y553457D01*
X235109Y555009D01*
X235473Y556839D01*
X235109Y558669D01*
X234072Y560220D01*
X232521Y561256D01*
X230691Y561620D01*
D02*
G37*
G36*
X185691D02*
X183861Y561256D01*
X182310Y560220D01*
X181273Y558669D01*
X180909Y556839D01*
X181273Y555009D01*
X182310Y553457D01*
X183861Y552421D01*
X185691Y552057D01*
X187521Y552421D01*
X189072Y553457D01*
X190109Y555009D01*
X190473Y556839D01*
X190109Y558669D01*
X189072Y560220D01*
X187521Y561256D01*
X185691Y561620D01*
D02*
G37*
G36*
X170691D02*
X168861Y561256D01*
X167310Y560220D01*
X166273Y558669D01*
X165909Y556839D01*
X166273Y555009D01*
X167310Y553457D01*
X168861Y552421D01*
X170691Y552057D01*
X172521Y552421D01*
X174072Y553457D01*
X175109Y555009D01*
X175473Y556839D01*
X175109Y558669D01*
X174072Y560220D01*
X172521Y561256D01*
X170691Y561620D01*
D02*
G37*
G36*
X1247700Y572058D02*
X1245048Y571708D01*
X1242576Y570685D01*
X1240454Y569056D01*
X1238825Y566934D01*
X1237801Y564462D01*
X1237452Y561810D01*
X1237801Y559158D01*
X1238825Y556686D01*
X1240454Y554564D01*
X1242576Y552935D01*
X1245048Y551912D01*
X1247700Y551562D01*
X1250352Y551912D01*
X1252824Y552935D01*
X1254946Y554564D01*
X1256575Y556686D01*
X1257598Y559158D01*
X1257948Y561810D01*
X1257598Y564462D01*
X1256575Y566934D01*
X1254946Y569056D01*
X1252824Y570685D01*
X1250352Y571708D01*
X1247700Y572058D01*
D02*
G37*
G36*
X92436Y560097D02*
X90080Y559628D01*
X88082Y558293D01*
X86747Y556295D01*
X86278Y553938D01*
X86747Y551582D01*
X88082Y549584D01*
X90080Y548249D01*
X92436Y547780D01*
X94793Y548249D01*
X96791Y549584D01*
X98126Y551582D01*
X98595Y553938D01*
X98126Y556295D01*
X96791Y558293D01*
X94793Y559628D01*
X92436Y560097D01*
D02*
G37*
G36*
X1273100Y559358D02*
X1270448Y559008D01*
X1267976Y557985D01*
X1265854Y556356D01*
X1264225Y554234D01*
X1263201Y551762D01*
X1262852Y549110D01*
X1263201Y546458D01*
X1264225Y543986D01*
X1265854Y541864D01*
X1267976Y540235D01*
X1270448Y539212D01*
X1273100Y538862D01*
X1275752Y539212D01*
X1278224Y540235D01*
X1280346Y541864D01*
X1281975Y543986D01*
X1282998Y546458D01*
X1283348Y549110D01*
X1282998Y551762D01*
X1281975Y554234D01*
X1280346Y556356D01*
X1278224Y557985D01*
X1275752Y559008D01*
X1273100Y559358D01*
D02*
G37*
G36*
X245691Y546620D02*
X243861Y546256D01*
X242310Y545220D01*
X241273Y543669D01*
X240909Y541839D01*
X241273Y540009D01*
X242310Y538457D01*
X243861Y537421D01*
X245691Y537057D01*
X247521Y537421D01*
X249072Y538457D01*
X250109Y540009D01*
X250473Y541839D01*
X250109Y543669D01*
X249072Y545220D01*
X247521Y546256D01*
X245691Y546620D01*
D02*
G37*
G36*
X230691D02*
X228861Y546256D01*
X227310Y545220D01*
X226273Y543669D01*
X225909Y541839D01*
X226273Y540009D01*
X227310Y538457D01*
X228861Y537421D01*
X230691Y537057D01*
X232521Y537421D01*
X234072Y538457D01*
X235109Y540009D01*
X235473Y541839D01*
X235109Y543669D01*
X234072Y545220D01*
X232521Y546256D01*
X230691Y546620D01*
D02*
G37*
G36*
X185691D02*
X183861Y546256D01*
X182310Y545220D01*
X181273Y543669D01*
X180909Y541839D01*
X181273Y540009D01*
X182310Y538457D01*
X183861Y537421D01*
X185691Y537057D01*
X187521Y537421D01*
X189072Y538457D01*
X190109Y540009D01*
X190473Y541839D01*
X190109Y543669D01*
X189072Y545220D01*
X187521Y546256D01*
X185691Y546620D01*
D02*
G37*
G36*
X170691D02*
X168861Y546256D01*
X167310Y545220D01*
X166273Y543669D01*
X165909Y541839D01*
X166273Y540009D01*
X167310Y538457D01*
X168861Y537421D01*
X170691Y537057D01*
X172521Y537421D01*
X174072Y538457D01*
X175109Y540009D01*
X175473Y541839D01*
X175109Y543669D01*
X174072Y545220D01*
X172521Y546256D01*
X170691Y546620D01*
D02*
G37*
G36*
X-91427Y552025D02*
X-93396Y551766D01*
X-95230Y551006D01*
X-96805Y549798D01*
X-98014Y548222D01*
X-98773Y546388D01*
X-99033Y544420D01*
X-98773Y542452D01*
X-98014Y540617D01*
X-96805Y539042D01*
X-95230Y537834D01*
X-93396Y537074D01*
X-91427Y536815D01*
X-89459Y537074D01*
X-87625Y537834D01*
X-86050Y539042D01*
X-84841Y540617D01*
X-84082Y542452D01*
X-83822Y544420D01*
X-84082Y546388D01*
X-84841Y548222D01*
X-86050Y549798D01*
X-87625Y551006D01*
X-89459Y551766D01*
X-91427Y552025D01*
D02*
G37*
G36*
X302891Y541977D02*
X300925Y541586D01*
X299258Y540472D01*
X298144Y538805D01*
X297752Y536839D01*
X298144Y534872D01*
X299258Y533205D01*
X300925Y532091D01*
X302891Y531700D01*
X304858Y532091D01*
X306525Y533205D01*
X307639Y534872D01*
X308030Y536839D01*
X307639Y538805D01*
X306525Y540472D01*
X304858Y541586D01*
X302891Y541977D01*
D02*
G37*
G36*
X368841Y534797D02*
X366485Y534328D01*
X364487Y532993D01*
X363152Y530995D01*
X362683Y528638D01*
X363152Y526282D01*
X364487Y524284D01*
X366485Y522949D01*
X368841Y522480D01*
X371198Y522949D01*
X373196Y524284D01*
X374531Y526282D01*
X375000Y528638D01*
X374531Y530995D01*
X373196Y532993D01*
X371198Y534328D01*
X368841Y534797D01*
D02*
G37*
G36*
X245691Y531620D02*
X243861Y531256D01*
X242310Y530220D01*
X241273Y528669D01*
X240909Y526839D01*
X241273Y525009D01*
X242310Y523457D01*
X243861Y522421D01*
X245691Y522057D01*
X247521Y522421D01*
X249072Y523457D01*
X250109Y525009D01*
X250473Y526839D01*
X250109Y528669D01*
X249072Y530220D01*
X247521Y531256D01*
X245691Y531620D01*
D02*
G37*
G36*
X230691D02*
X228861Y531256D01*
X227310Y530220D01*
X226273Y528669D01*
X225909Y526839D01*
X226273Y525009D01*
X227310Y523457D01*
X228861Y522421D01*
X230691Y522057D01*
X232521Y522421D01*
X234072Y523457D01*
X235109Y525009D01*
X235473Y526839D01*
X235109Y528669D01*
X234072Y530220D01*
X232521Y531256D01*
X230691Y531620D01*
D02*
G37*
G36*
X215691D02*
X213861Y531256D01*
X212310Y530220D01*
X211273Y528669D01*
X210909Y526839D01*
X211273Y525009D01*
X212310Y523457D01*
X213861Y522421D01*
X215691Y522057D01*
X217521Y522421D01*
X219072Y523457D01*
X220109Y525009D01*
X220473Y526839D01*
X220109Y528669D01*
X219072Y530220D01*
X217521Y531256D01*
X215691Y531620D01*
D02*
G37*
G36*
X200691D02*
X198861Y531256D01*
X197310Y530220D01*
X196273Y528669D01*
X195909Y526839D01*
X196273Y525009D01*
X197310Y523457D01*
X198861Y522421D01*
X200691Y522057D01*
X202521Y522421D01*
X204072Y523457D01*
X205109Y525009D01*
X205473Y526839D01*
X205109Y528669D01*
X204072Y530220D01*
X202521Y531256D01*
X200691Y531620D01*
D02*
G37*
G36*
X185691D02*
X183861Y531256D01*
X182310Y530220D01*
X181273Y528669D01*
X180909Y526839D01*
X181273Y525009D01*
X182310Y523457D01*
X183861Y522421D01*
X185691Y522057D01*
X187521Y522421D01*
X189072Y523457D01*
X190109Y525009D01*
X190473Y526839D01*
X190109Y528669D01*
X189072Y530220D01*
X187521Y531256D01*
X185691Y531620D01*
D02*
G37*
G36*
X170691D02*
X168861Y531256D01*
X167310Y530220D01*
X166273Y528669D01*
X165909Y526839D01*
X166273Y525009D01*
X167310Y523457D01*
X168861Y522421D01*
X170691Y522057D01*
X172521Y522421D01*
X174072Y523457D01*
X175109Y525009D01*
X175473Y526839D01*
X175109Y528669D01*
X174072Y530220D01*
X172521Y531256D01*
X170691Y531620D01*
D02*
G37*
G36*
X71565Y534550D02*
X69599Y534159D01*
X67932Y533045D01*
X66818Y531378D01*
X66427Y529411D01*
X66818Y527445D01*
X67795Y525981D01*
X67922Y525161D01*
X67795Y524341D01*
X66818Y522878D01*
X66427Y520911D01*
X66818Y518945D01*
X67932Y517278D01*
X69599Y516164D01*
X71565Y515773D01*
X73532Y516164D01*
X75199Y517278D01*
X76313Y518945D01*
X76704Y520911D01*
X76313Y522878D01*
X75335Y524341D01*
X75208Y525161D01*
X75335Y525981D01*
X76313Y527445D01*
X76704Y529411D01*
X76313Y531378D01*
X75199Y533045D01*
X73532Y534159D01*
X71565Y534550D01*
D02*
G37*
G36*
X108492Y524177D02*
X106525Y523786D01*
X104858Y522672D01*
X103744Y521005D01*
X103353Y519039D01*
X103744Y517072D01*
X104858Y515405D01*
X106525Y514291D01*
X108492Y513900D01*
X110458Y514291D01*
X112125Y515405D01*
X112273Y515626D01*
X113543D01*
X113758Y515305D01*
X115425Y514191D01*
X117391Y513800D01*
X119358Y514191D01*
X121025Y515305D01*
X122139Y516972D01*
X122530Y518939D01*
X122139Y520905D01*
X121025Y522572D01*
X119358Y523686D01*
X117391Y524077D01*
X115425Y523686D01*
X113758Y522572D01*
X113610Y522351D01*
X112340D01*
X112125Y522672D01*
X110458Y523786D01*
X108492Y524177D01*
D02*
G37*
G36*
X-91427Y528025D02*
X-93396Y527766D01*
X-95230Y527006D01*
X-96805Y525798D01*
X-98014Y524222D01*
X-98773Y522388D01*
X-99033Y520420D01*
X-98773Y518451D01*
X-98014Y516617D01*
X-96805Y515042D01*
X-95230Y513834D01*
X-93396Y513074D01*
X-91427Y512815D01*
X-89459Y513074D01*
X-87625Y513834D01*
X-86050Y515042D01*
X-84841Y516617D01*
X-84082Y518451D01*
X-83822Y520420D01*
X-84082Y522388D01*
X-84841Y524222D01*
X-86050Y525798D01*
X-87625Y527006D01*
X-89459Y527766D01*
X-91427Y528025D01*
D02*
G37*
G36*
X245691Y516620D02*
X243861Y516256D01*
X242310Y515220D01*
X241273Y513669D01*
X240909Y511839D01*
X241273Y510009D01*
X242310Y508457D01*
X243861Y507421D01*
X245691Y507057D01*
X247521Y507421D01*
X249072Y508457D01*
X250109Y510009D01*
X250473Y511839D01*
X250109Y513669D01*
X249072Y515220D01*
X247521Y516256D01*
X245691Y516620D01*
D02*
G37*
G36*
X230691D02*
X228861Y516256D01*
X227310Y515220D01*
X226273Y513669D01*
X225909Y511839D01*
X226273Y510009D01*
X227310Y508457D01*
X228861Y507421D01*
X230691Y507057D01*
X232521Y507421D01*
X234072Y508457D01*
X235109Y510009D01*
X235473Y511839D01*
X235109Y513669D01*
X234072Y515220D01*
X232521Y516256D01*
X230691Y516620D01*
D02*
G37*
G36*
X215691D02*
X213861Y516256D01*
X212310Y515220D01*
X211273Y513669D01*
X210909Y511839D01*
X211273Y510009D01*
X212310Y508457D01*
X213861Y507421D01*
X215691Y507057D01*
X217521Y507421D01*
X219072Y508457D01*
X220109Y510009D01*
X220473Y511839D01*
X220109Y513669D01*
X219072Y515220D01*
X217521Y516256D01*
X215691Y516620D01*
D02*
G37*
G36*
X200691D02*
X198861Y516256D01*
X197310Y515220D01*
X196273Y513669D01*
X195909Y511839D01*
X196273Y510009D01*
X197310Y508457D01*
X198861Y507421D01*
X200691Y507057D01*
X202521Y507421D01*
X204072Y508457D01*
X205109Y510009D01*
X205473Y511839D01*
X205109Y513669D01*
X204072Y515220D01*
X202521Y516256D01*
X200691Y516620D01*
D02*
G37*
G36*
X185691D02*
X183861Y516256D01*
X182310Y515220D01*
X181273Y513669D01*
X180909Y511839D01*
X181273Y510009D01*
X182310Y508457D01*
X183861Y507421D01*
X185691Y507057D01*
X187521Y507421D01*
X189072Y508457D01*
X190109Y510009D01*
X190473Y511839D01*
X190109Y513669D01*
X189072Y515220D01*
X187521Y516256D01*
X185691Y516620D01*
D02*
G37*
G36*
X170691D02*
X168861Y516256D01*
X167310Y515220D01*
X166273Y513669D01*
X165909Y511839D01*
X166273Y510009D01*
X167310Y508457D01*
X168861Y507421D01*
X170691Y507057D01*
X172521Y507421D01*
X174072Y508457D01*
X175109Y510009D01*
X175473Y511839D01*
X175109Y513669D01*
X174072Y515220D01*
X172521Y516256D01*
X170691Y516620D01*
D02*
G37*
G36*
X297191Y513797D02*
X294834Y513328D01*
X292837Y511993D01*
X291502Y509995D01*
X291033Y507639D01*
X291502Y505282D01*
X292020Y504507D01*
X291846Y504017D01*
X291335Y503246D01*
X289235Y502828D01*
X287237Y501493D01*
X285902Y499495D01*
X285433Y497139D01*
X285902Y494782D01*
X287237Y492784D01*
X289235Y491449D01*
X291591Y490980D01*
X293948Y491449D01*
X295946Y492784D01*
X297281Y494782D01*
X297750Y497139D01*
X297281Y499495D01*
X296763Y500271D01*
X296936Y500760D01*
X297448Y501531D01*
X299548Y501949D01*
X301546Y503284D01*
X302881Y505282D01*
X303350Y507639D01*
X302881Y509995D01*
X301546Y511993D01*
X299548Y513328D01*
X297191Y513797D01*
D02*
G37*
G36*
X1247700Y508558D02*
X1245048Y508209D01*
X1242576Y507185D01*
X1240454Y505556D01*
X1238825Y503434D01*
X1237801Y500962D01*
X1237452Y498310D01*
X1237801Y495658D01*
X1238825Y493186D01*
X1240454Y491064D01*
X1242576Y489435D01*
X1245048Y488411D01*
X1247700Y488062D01*
X1250352Y488411D01*
X1252824Y489435D01*
X1254946Y491064D01*
X1256575Y493186D01*
X1257598Y495658D01*
X1257948Y498310D01*
X1257598Y500962D01*
X1256575Y503434D01*
X1254946Y505556D01*
X1252824Y507185D01*
X1250352Y508209D01*
X1247700Y508558D01*
D02*
G37*
G36*
X71565Y499250D02*
X69599Y498859D01*
X67932Y497745D01*
X66818Y496078D01*
X66427Y494111D01*
X66818Y492145D01*
X67795Y490681D01*
X67922Y489861D01*
X67795Y489041D01*
X66818Y487578D01*
X66427Y485611D01*
X66818Y483645D01*
X67932Y481978D01*
X69599Y480864D01*
X71565Y480473D01*
X73532Y480864D01*
X75199Y481978D01*
X76313Y483645D01*
X76704Y485611D01*
X76313Y487578D01*
X75335Y489041D01*
X75208Y489861D01*
X75335Y490681D01*
X76313Y492145D01*
X76704Y494111D01*
X76313Y496078D01*
X75199Y497745D01*
X73532Y498859D01*
X71565Y499250D01*
D02*
G37*
G36*
X267391Y490797D02*
X265035Y490328D01*
X263037Y488993D01*
X261702Y486995D01*
X261233Y484639D01*
X261702Y482282D01*
X263037Y480284D01*
X265035Y478949D01*
X267391Y478480D01*
X269748Y478949D01*
X271746Y480284D01*
X273081Y482282D01*
X273549Y484639D01*
X273081Y486995D01*
X271746Y488993D01*
X269748Y490328D01*
X267391Y490797D01*
D02*
G37*
G36*
X1273100Y495858D02*
X1270448Y495508D01*
X1267976Y494485D01*
X1265854Y492856D01*
X1264225Y490734D01*
X1263201Y488262D01*
X1262852Y485610D01*
X1263201Y482958D01*
X1264225Y480486D01*
X1265854Y478364D01*
X1267976Y476735D01*
X1270448Y475712D01*
X1273100Y475362D01*
X1275752Y475712D01*
X1278224Y476735D01*
X1280346Y478364D01*
X1281975Y480486D01*
X1282998Y482958D01*
X1283348Y485610D01*
X1282998Y488262D01*
X1281975Y490734D01*
X1280346Y492856D01*
X1278224Y494485D01*
X1275752Y495508D01*
X1273100Y495858D01*
D02*
G37*
G36*
X467942Y486144D02*
X465973Y485885D01*
X464139Y485125D01*
X462564Y483916D01*
X461355Y482341D01*
X460596Y480507D01*
X460336Y478539D01*
X460596Y476570D01*
X461355Y474736D01*
X462564Y473161D01*
X464139Y471952D01*
X465973Y471193D01*
X467942Y470933D01*
X469910Y471193D01*
X471744Y471952D01*
X473319Y473161D01*
X474528Y474736D01*
X475288Y476570D01*
X475547Y478539D01*
X475288Y480507D01*
X474528Y482341D01*
X473319Y483916D01*
X471744Y485125D01*
X469910Y485885D01*
X467942Y486144D01*
D02*
G37*
G36*
X369436Y479297D02*
X367080Y478828D01*
X365082Y477493D01*
X363747Y475495D01*
X363278Y473139D01*
X363747Y470782D01*
X365082Y468784D01*
X367080Y467449D01*
X369436Y466980D01*
X371793Y467449D01*
X373791Y468784D01*
X375126Y470782D01*
X375595Y473139D01*
X375126Y475495D01*
X373791Y477493D01*
X371793Y478828D01*
X369436Y479297D01*
D02*
G37*
G36*
X1247700Y483158D02*
X1245048Y482808D01*
X1242576Y481785D01*
X1240454Y480156D01*
X1238825Y478034D01*
X1237801Y475562D01*
X1237452Y472910D01*
X1237801Y470258D01*
X1238825Y467786D01*
X1240454Y465664D01*
X1242576Y464035D01*
X1245048Y463012D01*
X1247700Y462662D01*
X1250352Y463012D01*
X1252824Y464035D01*
X1254946Y465664D01*
X1256575Y467786D01*
X1257598Y470258D01*
X1257948Y472910D01*
X1257598Y475562D01*
X1256575Y478034D01*
X1254946Y480156D01*
X1252824Y481785D01*
X1250352Y482808D01*
X1247700Y483158D01*
D02*
G37*
G36*
X71565Y474850D02*
X69599Y474459D01*
X67932Y473345D01*
X66818Y471678D01*
X66427Y469711D01*
X66818Y467745D01*
X67795Y466281D01*
X67922Y465461D01*
X67795Y464641D01*
X66818Y463178D01*
X66427Y461211D01*
X66818Y459245D01*
X67932Y457578D01*
X69599Y456464D01*
X71565Y456073D01*
X73532Y456464D01*
X75199Y457578D01*
X76313Y459245D01*
X76704Y461211D01*
X76313Y463178D01*
X75335Y464641D01*
X75208Y465461D01*
X75335Y466281D01*
X76313Y467745D01*
X76704Y469711D01*
X76313Y471678D01*
X75199Y473345D01*
X73532Y474459D01*
X71565Y474850D01*
D02*
G37*
G36*
X-48928Y473538D02*
X-51287Y473227D01*
X-53487Y472316D01*
X-55375Y470867D01*
X-56824Y468979D01*
X-57735Y466780D01*
X-58046Y464420D01*
X-57735Y462060D01*
X-56824Y459861D01*
X-55375Y457972D01*
X-53487Y456524D01*
X-51287Y455613D01*
X-48928Y455302D01*
X-46568Y455613D01*
X-44369Y456524D01*
X-42480Y457972D01*
X-41031Y459861D01*
X-40120Y462060D01*
X-39810Y464420D01*
X-40120Y466780D01*
X-41031Y468979D01*
X-42480Y470867D01*
X-44369Y472316D01*
X-46568Y473227D01*
X-48928Y473538D01*
D02*
G37*
G36*
X248091Y464377D02*
X246125Y463986D01*
X244458Y462872D01*
X243344Y461205D01*
X242952Y459239D01*
X243344Y457272D01*
X244458Y455605D01*
X246125Y454491D01*
X248091Y454100D01*
X250058Y454491D01*
X251725Y455605D01*
X252839Y457272D01*
X253230Y459239D01*
X252839Y461205D01*
X251725Y462872D01*
X250058Y463986D01*
X248091Y464377D01*
D02*
G37*
G36*
X467942Y469044D02*
X465973Y468784D01*
X464139Y468025D01*
X462564Y466816D01*
X461355Y465241D01*
X460596Y463407D01*
X460336Y461438D01*
X460596Y459470D01*
X461355Y457636D01*
X462564Y456061D01*
X464139Y454852D01*
X465973Y454093D01*
X467942Y453834D01*
X469910Y454093D01*
X471744Y454852D01*
X473319Y456061D01*
X474528Y457636D01*
X475288Y459470D01*
X475547Y461438D01*
X475288Y463407D01*
X474528Y465241D01*
X473319Y466816D01*
X471744Y468025D01*
X469910Y468784D01*
X467942Y469044D01*
D02*
G37*
G36*
X1273100Y470458D02*
X1270448Y470108D01*
X1267976Y469085D01*
X1265854Y467456D01*
X1264225Y465334D01*
X1263201Y462862D01*
X1262852Y460210D01*
X1263201Y457558D01*
X1264225Y455086D01*
X1265854Y452964D01*
X1267976Y451335D01*
X1270448Y450312D01*
X1273100Y449962D01*
X1275752Y450312D01*
X1278224Y451335D01*
X1280346Y452964D01*
X1281975Y455086D01*
X1282998Y457558D01*
X1283348Y460210D01*
X1282998Y462862D01*
X1281975Y465334D01*
X1280346Y467456D01*
X1278224Y469085D01*
X1275752Y470108D01*
X1273100Y470458D01*
D02*
G37*
G36*
X221791Y462077D02*
X219825Y461686D01*
X218158Y460572D01*
X217044Y458905D01*
X216653Y456939D01*
X217044Y454972D01*
X218158Y453305D01*
X219825Y452191D01*
X221791Y451800D01*
X223758Y452191D01*
X225225Y451702D01*
X225758Y450905D01*
X227425Y449791D01*
X229391Y449400D01*
X231358Y449791D01*
X233025Y450905D01*
X234139Y452572D01*
X234530Y454539D01*
X234139Y456505D01*
X233025Y458172D01*
X231358Y459286D01*
X229391Y459677D01*
X227425Y459286D01*
X225958Y459775D01*
X225425Y460572D01*
X223758Y461686D01*
X221791Y462077D01*
D02*
G37*
G36*
X163591Y462762D02*
X161623Y462503D01*
X159789Y461743D01*
X158214Y460534D01*
X157005Y458959D01*
X156245Y457125D01*
X155986Y455157D01*
X156245Y453189D01*
X157005Y451354D01*
X158214Y449779D01*
X159789Y448571D01*
X161623Y447811D01*
X163591Y447552D01*
X165560Y447811D01*
X167394Y448571D01*
X168969Y449779D01*
X170177Y451354D01*
X170937Y453189D01*
X171196Y455157D01*
X170937Y457125D01*
X170177Y458959D01*
X168969Y460534D01*
X167394Y461743D01*
X165560Y462503D01*
X163591Y462762D01*
D02*
G37*
G36*
X183791Y463077D02*
X181825Y462686D01*
X180158Y461572D01*
X179044Y459905D01*
X178652Y457939D01*
X179044Y455972D01*
X180158Y454305D01*
X181694Y453278D01*
X180844Y452005D01*
X180452Y450039D01*
X180844Y448072D01*
X181958Y446405D01*
X183625Y445291D01*
X185591Y444900D01*
X187558Y445291D01*
X189225Y446405D01*
X190339Y448072D01*
X190730Y450039D01*
X190339Y452005D01*
X189225Y453672D01*
X187688Y454699D01*
X188539Y455972D01*
X188930Y457939D01*
X188539Y459905D01*
X187425Y461572D01*
X185758Y462686D01*
X183791Y463077D01*
D02*
G37*
G36*
X364491Y452697D02*
X362135Y452228D01*
X360137Y450893D01*
X358802Y448895D01*
X358333Y446539D01*
X358802Y444182D01*
X360137Y442184D01*
X362135Y440849D01*
X364491Y440380D01*
X366848Y440849D01*
X368846Y442184D01*
X370181Y444182D01*
X370650Y446539D01*
X370181Y448895D01*
X368846Y450893D01*
X366848Y452228D01*
X364491Y452697D01*
D02*
G37*
G36*
X-65627Y457538D02*
X-67987Y457227D01*
X-70187Y456316D01*
X-72075Y454867D01*
X-73524Y452979D01*
X-74435Y450780D01*
X-74745Y448420D01*
X-74435Y446060D01*
X-73524Y443861D01*
X-72075Y441973D01*
X-70187Y440523D01*
X-67987Y439613D01*
X-65627Y439302D01*
X-63268Y439613D01*
X-61069Y440523D01*
X-59180Y441973D01*
X-57731Y443861D01*
X-56820Y446060D01*
X-56509Y448420D01*
X-56820Y450780D01*
X-57731Y452979D01*
X-59180Y454867D01*
X-61069Y456316D01*
X-63268Y457227D01*
X-65627Y457538D01*
D02*
G37*
G36*
X205691Y449577D02*
X203725Y449186D01*
X202058Y448072D01*
X200944Y446405D01*
X200553Y444439D01*
X200944Y442472D01*
X202058Y440805D01*
X203725Y439691D01*
X205691Y439300D01*
X207658Y439691D01*
X209325Y440805D01*
X210439Y442472D01*
X210830Y444439D01*
X210439Y446405D01*
X209325Y448072D01*
X207658Y449186D01*
X205691Y449577D01*
D02*
G37*
G36*
X1247700Y457758D02*
X1245048Y457408D01*
X1242576Y456385D01*
X1240454Y454756D01*
X1238825Y452634D01*
X1237801Y450162D01*
X1237452Y447510D01*
X1237801Y444858D01*
X1238825Y442386D01*
X1240454Y440264D01*
X1242576Y438635D01*
X1245048Y437612D01*
X1247700Y437262D01*
X1250352Y437612D01*
X1252824Y438635D01*
X1254946Y440264D01*
X1256575Y442386D01*
X1257598Y444858D01*
X1257948Y447510D01*
X1257598Y450162D01*
X1256575Y452634D01*
X1254946Y454756D01*
X1252824Y456385D01*
X1250352Y457408D01*
X1247700Y457758D01*
D02*
G37*
G36*
X-92038Y445559D02*
X-94005Y445167D01*
X-95672Y444053D01*
X-96786Y442386D01*
X-97177Y440420D01*
X-96786Y438453D01*
X-95672Y436786D01*
X-94005Y435672D01*
X-92038Y435281D01*
X-90072Y435672D01*
X-88405Y436786D01*
X-87291Y438453D01*
X-86900Y440420D01*
X-87291Y442386D01*
X-88405Y444053D01*
X-90072Y445167D01*
X-92038Y445559D01*
D02*
G37*
G36*
X481941Y440796D02*
X479585Y440327D01*
X477587Y438992D01*
X476252Y436994D01*
X475783Y434638D01*
X476252Y432281D01*
X477587Y430283D01*
X479585Y428948D01*
X481941Y428479D01*
X484298Y428948D01*
X486296Y430283D01*
X487631Y432281D01*
X488100Y434638D01*
X487631Y436994D01*
X486296Y438992D01*
X484298Y440327D01*
X481941Y440796D01*
D02*
G37*
G36*
X334592D02*
X332236Y440327D01*
X330238Y438992D01*
X328903Y436994D01*
X328434Y434638D01*
X328903Y432281D01*
X330238Y430283D01*
X332236Y428948D01*
X334592Y428479D01*
X336949Y428948D01*
X338947Y430283D01*
X340282Y432281D01*
X340751Y434638D01*
X340282Y436994D01*
X338947Y438992D01*
X336949Y440327D01*
X334592Y440796D01*
D02*
G37*
G36*
X1273100Y445058D02*
X1270448Y444709D01*
X1267976Y443685D01*
X1265854Y442056D01*
X1264225Y439934D01*
X1263201Y437462D01*
X1262852Y434810D01*
X1263201Y432158D01*
X1264225Y429686D01*
X1265854Y427564D01*
X1267976Y425935D01*
X1270448Y424911D01*
X1273100Y424562D01*
X1275752Y424911D01*
X1278224Y425935D01*
X1280346Y427564D01*
X1281975Y429686D01*
X1282998Y432158D01*
X1283348Y434810D01*
X1282998Y437462D01*
X1281975Y439934D01*
X1280346Y442056D01*
X1278224Y443685D01*
X1275752Y444709D01*
X1273100Y445058D01*
D02*
G37*
G36*
X296091Y432697D02*
X293735Y432228D01*
X291737Y430893D01*
X290402Y428895D01*
X289933Y426539D01*
X290402Y424182D01*
X291737Y422184D01*
X293735Y420849D01*
X296091Y420380D01*
X298448Y420849D01*
X300446Y422184D01*
X301781Y424182D01*
X302250Y426539D01*
X301781Y428895D01*
X300446Y430893D01*
X298448Y432228D01*
X296091Y432697D01*
D02*
G37*
G36*
X1247700Y432358D02*
X1245048Y432009D01*
X1242576Y430985D01*
X1240454Y429356D01*
X1238825Y427234D01*
X1237801Y424762D01*
X1237452Y422110D01*
X1237801Y419458D01*
X1238825Y416986D01*
X1240454Y414864D01*
X1242576Y413235D01*
X1245048Y412211D01*
X1247700Y411862D01*
X1250352Y412211D01*
X1252824Y413235D01*
X1254946Y414864D01*
X1256575Y416986D01*
X1257598Y419458D01*
X1257948Y422110D01*
X1257598Y424762D01*
X1256575Y427234D01*
X1254946Y429356D01*
X1252824Y430985D01*
X1250352Y432009D01*
X1247700Y432358D01*
D02*
G37*
G36*
X481941Y423798D02*
X479585Y423329D01*
X477587Y421994D01*
X476252Y419996D01*
X475783Y417640D01*
X476252Y415283D01*
X477587Y413285D01*
X479585Y411950D01*
X481941Y411481D01*
X484298Y411950D01*
X486296Y413285D01*
X487631Y415283D01*
X488100Y417640D01*
X487631Y419996D01*
X486296Y421994D01*
X484298Y423329D01*
X481941Y423798D01*
D02*
G37*
G36*
X334391D02*
X332034Y423329D01*
X330036Y421994D01*
X328701Y419996D01*
X328232Y417640D01*
X328701Y415283D01*
X330036Y413285D01*
X332034Y411950D01*
X334391Y411481D01*
X336747Y411950D01*
X338745Y413285D01*
X340080Y415283D01*
X340549Y417640D01*
X340080Y419996D01*
X338745Y421994D01*
X336747Y423329D01*
X334391Y423798D01*
D02*
G37*
G36*
X163591Y423341D02*
X161623Y423082D01*
X159789Y422322D01*
X158214Y421114D01*
X157005Y419538D01*
X156245Y417704D01*
X155986Y415736D01*
X156245Y413768D01*
X157005Y411934D01*
X158214Y410358D01*
X159789Y409150D01*
X161623Y408390D01*
X163591Y408131D01*
X165560Y408390D01*
X167394Y409150D01*
X168969Y410358D01*
X170177Y411934D01*
X170937Y413768D01*
X171196Y415736D01*
X170937Y417704D01*
X170177Y419538D01*
X168969Y421114D01*
X167394Y422322D01*
X165560Y423082D01*
X163591Y423341D01*
D02*
G37*
G36*
X-93028Y425538D02*
X-95387Y425227D01*
X-97586Y424316D01*
X-99475Y422867D01*
X-100924Y420979D01*
X-101835Y418780D01*
X-102146Y416420D01*
X-101835Y414060D01*
X-100924Y411861D01*
X-99475Y409972D01*
X-97586Y408523D01*
X-95387Y407613D01*
X-93028Y407302D01*
X-90668Y407613D01*
X-88469Y408523D01*
X-86580Y409972D01*
X-85131Y411861D01*
X-84220Y414060D01*
X-83910Y416420D01*
X-84220Y418780D01*
X-85131Y420979D01*
X-86580Y422867D01*
X-88469Y424316D01*
X-90668Y425227D01*
X-93028Y425538D01*
D02*
G37*
G36*
X419491Y418897D02*
X417135Y418428D01*
X415137Y417093D01*
X413802Y415095D01*
X413333Y412739D01*
X413802Y410382D01*
X415137Y408384D01*
X417135Y407049D01*
X419491Y406580D01*
X421848Y407049D01*
X423846Y408384D01*
X425181Y410382D01*
X425650Y412739D01*
X425181Y415095D01*
X423846Y417093D01*
X421848Y418428D01*
X419491Y418897D01*
D02*
G37*
G36*
X364491Y418044D02*
X362523Y417785D01*
X360689Y417025D01*
X359114Y415816D01*
X357905Y414241D01*
X357146Y412407D01*
X356886Y410439D01*
X357146Y408470D01*
X357905Y406636D01*
X359114Y405061D01*
X360689Y403853D01*
X362523Y403093D01*
X364491Y402834D01*
X366460Y403093D01*
X368294Y403853D01*
X369869Y405061D01*
X371078Y406636D01*
X371837Y408470D01*
X372096Y410439D01*
X371837Y412407D01*
X371078Y414241D01*
X369869Y415816D01*
X368294Y417025D01*
X366460Y417785D01*
X364491Y418044D01*
D02*
G37*
G36*
X1273100Y419658D02*
X1270448Y419309D01*
X1267976Y418285D01*
X1265854Y416656D01*
X1264225Y414534D01*
X1263201Y412062D01*
X1262852Y409410D01*
X1263201Y406758D01*
X1264225Y404286D01*
X1265854Y402164D01*
X1267976Y400535D01*
X1270448Y399511D01*
X1273100Y399162D01*
X1275752Y399511D01*
X1278224Y400535D01*
X1280346Y402164D01*
X1281975Y404286D01*
X1282998Y406758D01*
X1283348Y409410D01*
X1282998Y412062D01*
X1281975Y414534D01*
X1280346Y416656D01*
X1278224Y418285D01*
X1275752Y419309D01*
X1273100Y419658D01*
D02*
G37*
G36*
X520792Y406847D02*
X518435Y406378D01*
X516437Y405043D01*
X515102Y403045D01*
X514633Y400689D01*
X515102Y398332D01*
X516437Y396334D01*
X518435Y394999D01*
X520792Y394530D01*
X523148Y394999D01*
X525146Y396334D01*
X526481Y398332D01*
X526950Y400689D01*
X526481Y403045D01*
X525146Y405043D01*
X523148Y406378D01*
X520792Y406847D01*
D02*
G37*
G36*
X908005Y423030D02*
X870940D01*
X869363Y422717D01*
X868027Y421824D01*
X837514Y391311D01*
X837431Y391249D01*
X837327Y391183D01*
X837244Y391138D01*
X837198Y391118D01*
X837022Y391152D01*
X834666Y390684D01*
X832668Y389349D01*
X831333Y387351D01*
X830864Y384994D01*
X831333Y382637D01*
X832668Y380639D01*
X834666Y379305D01*
X837022Y378836D01*
X839379Y379305D01*
X841377Y380639D01*
X842712Y382637D01*
X843181Y384994D01*
X843146Y385169D01*
X843166Y385215D01*
X843211Y385298D01*
X843278Y385402D01*
X843339Y385486D01*
X860210Y402356D01*
X861412Y401947D01*
X861468Y401524D01*
X862228Y399690D01*
X863436Y398115D01*
X865011Y396906D01*
X866845Y396146D01*
X868814Y395887D01*
X870782Y396146D01*
X872616Y396906D01*
X874191Y398115D01*
X875400Y399690D01*
X876160Y401524D01*
X876419Y403492D01*
X876160Y405461D01*
X875400Y407295D01*
X874191Y408870D01*
X872616Y410078D01*
X870782Y410838D01*
X870359Y410894D01*
X869950Y412096D01*
X872646Y414792D01*
X892125D01*
Y400071D01*
Y387371D01*
X932605D01*
Y400071D01*
Y415151D01*
X916365D01*
X916171Y416127D01*
X915278Y417464D01*
X910918Y421824D01*
X909581Y422717D01*
X908005Y423030D01*
D02*
G37*
G36*
X-93028Y401538D02*
X-95387Y401227D01*
X-97586Y400316D01*
X-99475Y398867D01*
X-100924Y396979D01*
X-101835Y394780D01*
X-102146Y392420D01*
X-101835Y390060D01*
X-100924Y387861D01*
X-99475Y385973D01*
X-97586Y384524D01*
X-95387Y383613D01*
X-93028Y383302D01*
X-90668Y383613D01*
X-88469Y384524D01*
X-86580Y385973D01*
X-85131Y387861D01*
X-84220Y390060D01*
X-83910Y392420D01*
X-84220Y394780D01*
X-85131Y396979D01*
X-86580Y398867D01*
X-88469Y400316D01*
X-90668Y401227D01*
X-93028Y401538D01*
D02*
G37*
G36*
X717923Y394602D02*
X715566Y394133D01*
X713568Y392798D01*
X712233Y390801D01*
X711764Y388444D01*
X712233Y386087D01*
X713568Y384089D01*
X715566Y382754D01*
X717923Y382285D01*
X720279Y382754D01*
X722277Y384089D01*
X723612Y386087D01*
X724081Y388444D01*
X723612Y390801D01*
X722277Y392798D01*
X720279Y394133D01*
X717923Y394602D01*
D02*
G37*
G36*
X404191Y393097D02*
X401835Y392628D01*
X399837Y391293D01*
X398502Y389295D01*
X398033Y386939D01*
X398502Y384582D01*
X399837Y382584D01*
X401835Y381249D01*
X404191Y380780D01*
X406548Y381249D01*
X408546Y382584D01*
X409881Y384582D01*
X410350Y386939D01*
X409881Y389295D01*
X408546Y391293D01*
X406548Y392628D01*
X404191Y393097D01*
D02*
G37*
G36*
X334391Y392597D02*
X332035Y392128D01*
X330037Y390793D01*
X328702Y388795D01*
X328233Y386439D01*
X328702Y384082D01*
X330037Y382084D01*
X332035Y380749D01*
X334391Y380280D01*
X336748Y380749D01*
X338746Y382084D01*
X340081Y384082D01*
X340550Y386439D01*
X340081Y388795D01*
X338746Y390793D01*
X336748Y392128D01*
X334391Y392597D01*
D02*
G37*
G36*
X349991Y390197D02*
X347635Y389728D01*
X345637Y388393D01*
X344302Y386395D01*
X343833Y384039D01*
X344302Y381682D01*
X345637Y379684D01*
X347635Y378349D01*
X349991Y377880D01*
X352348Y378349D01*
X354346Y379684D01*
X355681Y381682D01*
X356150Y384039D01*
X355681Y386395D01*
X354346Y388393D01*
X352348Y389728D01*
X349991Y390197D01*
D02*
G37*
G36*
X380991Y392544D02*
X379023Y392285D01*
X377189Y391525D01*
X375614Y390316D01*
X374405Y388741D01*
X373646Y386907D01*
X373386Y384939D01*
X373646Y382970D01*
X374405Y381136D01*
X375614Y379561D01*
X377189Y378353D01*
X379023Y377593D01*
X380991Y377334D01*
X382960Y377593D01*
X384794Y378353D01*
X386369Y379561D01*
X387578Y381136D01*
X388337Y382970D01*
X388596Y384939D01*
X388337Y386907D01*
X387578Y388741D01*
X386369Y390316D01*
X384794Y391525D01*
X382960Y392285D01*
X380991Y392544D01*
D02*
G37*
G36*
X433491Y386097D02*
X431135Y385628D01*
X429137Y384293D01*
X427802Y382295D01*
X427333Y379939D01*
X427802Y377582D01*
X429137Y375584D01*
X431135Y374249D01*
X433491Y373780D01*
X435848Y374249D01*
X437846Y375584D01*
X439181Y377582D01*
X439650Y379939D01*
X439181Y382295D01*
X437846Y384293D01*
X435848Y385628D01*
X433491Y386097D01*
D02*
G37*
G36*
X1336600Y421871D02*
X1331691Y421388D01*
X1326971Y419956D01*
X1322621Y417631D01*
X1318808Y414502D01*
X1315679Y410689D01*
X1313354Y406339D01*
X1311922Y401619D01*
X1311439Y396710D01*
X1311922Y391801D01*
X1313354Y387081D01*
X1315679Y382731D01*
X1318808Y378918D01*
X1322621Y375789D01*
X1326971Y373464D01*
X1331691Y372032D01*
X1336600Y371549D01*
X1341509Y372032D01*
X1346229Y373464D01*
X1350579Y375789D01*
X1354392Y378918D01*
X1357521Y382731D01*
X1359846Y387081D01*
X1361278Y391801D01*
X1361761Y396710D01*
X1361278Y401619D01*
X1359846Y406339D01*
X1357521Y410689D01*
X1354392Y414502D01*
X1350579Y417631D01*
X1346229Y419956D01*
X1341509Y421388D01*
X1336600Y421871D01*
D02*
G37*
G36*
X47926Y390177D02*
X45305Y389832D01*
X42863Y388820D01*
X40766Y387211D01*
X39156Y385113D01*
X38145Y382671D01*
X37800Y380050D01*
X38145Y377429D01*
X39156Y374987D01*
X40766Y372890D01*
X42863Y371280D01*
X45305Y370269D01*
X47926Y369924D01*
X50547Y370269D01*
X52990Y371280D01*
X55087Y372890D01*
X56696Y374987D01*
X57708Y377429D01*
X58053Y380050D01*
X57708Y382671D01*
X56696Y385113D01*
X55087Y387211D01*
X52990Y388820D01*
X50547Y389832D01*
X47926Y390177D01*
D02*
G37*
G36*
X296091Y380797D02*
X293735Y380328D01*
X291737Y378993D01*
X290402Y376995D01*
X289933Y374639D01*
X290402Y372282D01*
X291737Y370284D01*
X293735Y368949D01*
X296091Y368480D01*
X298448Y368949D01*
X300446Y370284D01*
X301781Y372282D01*
X302250Y374639D01*
X301781Y376995D01*
X300446Y378993D01*
X298448Y380328D01*
X296091Y380797D01*
D02*
G37*
G36*
X943697Y379149D02*
X941728Y378890D01*
X939894Y378130D01*
X938319Y376921D01*
X937110Y375346D01*
X936351Y373512D01*
X936091Y371544D01*
X936351Y369575D01*
X937110Y367741D01*
X938319Y366166D01*
X939894Y364958D01*
X941728Y364198D01*
X943697Y363939D01*
X945665Y364198D01*
X947499Y364958D01*
X949074Y366166D01*
X950283Y367741D01*
X951042Y369575D01*
X951302Y371544D01*
X951042Y373512D01*
X950283Y375346D01*
X949074Y376921D01*
X947499Y378130D01*
X945665Y378890D01*
X943697Y379149D01*
D02*
G37*
G36*
X334891Y373997D02*
X332535Y373528D01*
X330537Y372193D01*
X329202Y370195D01*
X328733Y367839D01*
X329202Y365482D01*
X330537Y363484D01*
X332535Y362149D01*
X334891Y361680D01*
X337248Y362149D01*
X339246Y363484D01*
X340581Y365482D01*
X341050Y367839D01*
X340581Y370195D01*
X339246Y372193D01*
X337248Y373528D01*
X334891Y373997D01*
D02*
G37*
G36*
X481941Y388997D02*
X479585Y388528D01*
X477587Y387193D01*
X476252Y385195D01*
X475783Y382839D01*
X476252Y380482D01*
X477587Y378484D01*
X477794Y378346D01*
X478042Y377100D01*
X477544Y376355D01*
X477153Y374389D01*
X477544Y372422D01*
X477949Y371815D01*
X477702Y370570D01*
X477587Y370493D01*
X476252Y368495D01*
X475783Y366139D01*
X476252Y363782D01*
X477587Y361784D01*
X479585Y360449D01*
X481941Y359980D01*
X484298Y360449D01*
X486296Y361784D01*
X487631Y363782D01*
X488100Y366139D01*
X487631Y368495D01*
X486296Y370493D01*
X486624Y371801D01*
X487039Y372422D01*
X487430Y374389D01*
X487039Y376355D01*
X486532Y377114D01*
X486296Y378484D01*
X487631Y380482D01*
X488100Y382839D01*
X487631Y385195D01*
X486296Y387193D01*
X484298Y388528D01*
X481941Y388997D01*
D02*
G37*
G36*
X806873Y371502D02*
X804516Y371033D01*
X802518Y369698D01*
X801183Y367701D01*
X800714Y365344D01*
X801183Y362987D01*
X802518Y360989D01*
X804516Y359654D01*
X806873Y359185D01*
X809229Y359654D01*
X811227Y360989D01*
X812562Y362987D01*
X813031Y365344D01*
X812562Y367701D01*
X811227Y369698D01*
X809229Y371033D01*
X806873Y371502D01*
D02*
G37*
G36*
X783673Y371402D02*
X781316Y370933D01*
X779318Y369598D01*
X777983Y367601D01*
X777514Y365244D01*
X777983Y362887D01*
X779318Y360889D01*
X781316Y359554D01*
X783673Y359086D01*
X786029Y359554D01*
X788027Y360889D01*
X789362Y362887D01*
X789831Y365244D01*
X789362Y367601D01*
X788027Y369598D01*
X786029Y370933D01*
X783673Y371402D01*
D02*
G37*
G36*
X404191Y368397D02*
X401835Y367928D01*
X399837Y366593D01*
X398502Y364595D01*
X398033Y362239D01*
X398502Y359882D01*
X399837Y357884D01*
X401835Y356549D01*
X404191Y356080D01*
X406548Y356549D01*
X408546Y357884D01*
X409881Y359882D01*
X410350Y362239D01*
X409881Y364595D01*
X408546Y366593D01*
X406548Y367928D01*
X404191Y368397D01*
D02*
G37*
G36*
X1382300Y381876D02*
X1378918Y381431D01*
X1375767Y380125D01*
X1373061Y378049D01*
X1370985Y375343D01*
X1369679Y372192D01*
X1369234Y368810D01*
X1369679Y365428D01*
X1370985Y362277D01*
X1373061Y359571D01*
X1375767Y357495D01*
X1378918Y356189D01*
X1382300Y355744D01*
X1385682Y356189D01*
X1388833Y357495D01*
X1391539Y359571D01*
X1393615Y362277D01*
X1394921Y365428D01*
X1395366Y368810D01*
X1394921Y372192D01*
X1393615Y375343D01*
X1391539Y378049D01*
X1388833Y380125D01*
X1385682Y381431D01*
X1382300Y381876D01*
D02*
G37*
G36*
X380991Y367644D02*
X379023Y367385D01*
X377189Y366625D01*
X375614Y365416D01*
X374405Y363841D01*
X373646Y362007D01*
X373386Y360039D01*
X373646Y358070D01*
X374405Y356236D01*
X375614Y354661D01*
X377189Y353452D01*
X379023Y352693D01*
X380991Y352434D01*
X382960Y352693D01*
X384794Y353452D01*
X386369Y354661D01*
X387578Y356236D01*
X388337Y358070D01*
X388596Y360039D01*
X388337Y362007D01*
X387578Y363841D01*
X386369Y365416D01*
X384794Y366625D01*
X382960Y367385D01*
X380991Y367644D01*
D02*
G37*
G36*
X349391Y364597D02*
X347035Y364128D01*
X345037Y362793D01*
X343702Y360795D01*
X343233Y358439D01*
X343702Y356082D01*
X345037Y354084D01*
X347035Y352749D01*
X349391Y352280D01*
X351748Y352749D01*
X353746Y354084D01*
X355081Y356082D01*
X355550Y358439D01*
X355081Y360795D01*
X353746Y362793D01*
X351748Y364128D01*
X349391Y364597D01*
D02*
G37*
G36*
X838823Y371502D02*
X836466Y371033D01*
X834468Y369698D01*
X833133Y367701D01*
X832664Y365344D01*
X833133Y362987D01*
X834468Y360989D01*
Y360767D01*
X833468Y360098D01*
X832133Y358101D01*
X831664Y355744D01*
X832133Y353387D01*
X833468Y351389D01*
X835466Y350054D01*
X837823Y349585D01*
X840179Y350054D01*
X842177Y351389D01*
X843512Y353387D01*
X843981Y355744D01*
X843512Y358101D01*
X842177Y360098D01*
Y360321D01*
X843177Y360989D01*
X844512Y362987D01*
X844981Y365344D01*
X844512Y367701D01*
X843177Y369698D01*
X841179Y371033D01*
X838823Y371502D01*
D02*
G37*
G36*
X434391Y361397D02*
X432035Y360928D01*
X430037Y359593D01*
X428702Y357595D01*
X428233Y355239D01*
X428702Y352882D01*
X430037Y350884D01*
X432035Y349549D01*
X434391Y349080D01*
X436748Y349549D01*
X438746Y350884D01*
X440081Y352882D01*
X440550Y355239D01*
X440081Y357595D01*
X438746Y359593D01*
X436748Y360928D01*
X434391Y361397D01*
D02*
G37*
G36*
X298892Y358397D02*
X296535Y357928D01*
X294537Y356593D01*
X293202Y354595D01*
X292733Y352239D01*
X293202Y349882D01*
X294537Y347884D01*
X296535Y346549D01*
X298892Y346080D01*
X301248Y346549D01*
X303246Y347884D01*
X304581Y349882D01*
X305050Y352239D01*
X304581Y354595D01*
X303246Y356593D01*
X301248Y357928D01*
X298892Y358397D01*
D02*
G37*
G36*
X784523Y356452D02*
X782166Y355983D01*
X780168Y354648D01*
X778833Y352650D01*
X778364Y350294D01*
X778833Y347937D01*
X780168Y345939D01*
X782166Y344604D01*
X784523Y344136D01*
X786879Y344604D01*
X788877Y345939D01*
X790212Y347937D01*
X790681Y350294D01*
X790212Y352650D01*
X788877Y354648D01*
X786879Y355983D01*
X784523Y356452D01*
D02*
G37*
G36*
X137756Y358407D02*
X135788Y358148D01*
X133954Y357388D01*
X132379Y356180D01*
X131170Y354604D01*
X130410Y352770D01*
X130151Y350802D01*
X130410Y348834D01*
X131170Y346999D01*
X132379Y345424D01*
X133954Y344216D01*
X135788Y343456D01*
X137756Y343197D01*
X139725Y343456D01*
X141559Y344216D01*
X143134Y345424D01*
X144342Y346999D01*
X145102Y348834D01*
X145361Y350802D01*
X145102Y352770D01*
X144342Y354604D01*
X143134Y356180D01*
X141559Y357388D01*
X139725Y358148D01*
X137756Y358407D01*
D02*
G37*
G36*
X496991Y354597D02*
X494635Y354128D01*
X492637Y352793D01*
X491302Y350795D01*
X490833Y348439D01*
X491302Y346082D01*
X492637Y344084D01*
X494635Y342749D01*
X496991Y342280D01*
X499348Y342749D01*
X501346Y344084D01*
X502681Y346082D01*
X503150Y348439D01*
X502681Y350795D01*
X501346Y352793D01*
X499348Y354128D01*
X496991Y354597D01*
D02*
G37*
G36*
X-93028Y377538D02*
X-95387Y377227D01*
X-97586Y376316D01*
X-99475Y374867D01*
X-100924Y372979D01*
X-101835Y370780D01*
X-102146Y368420D01*
X-101835Y366060D01*
X-100924Y363861D01*
X-99475Y361973D01*
X-97586Y360523D01*
X-97044Y360299D01*
Y358924D01*
X-97787Y358616D01*
X-99675Y357167D01*
X-101124Y355279D01*
X-102035Y353080D01*
X-102346Y350720D01*
X-102035Y348360D01*
X-101124Y346161D01*
X-99675Y344272D01*
X-97787Y342823D01*
X-95588Y341913D01*
X-93228Y341602D01*
X-90868Y341913D01*
X-88669Y342823D01*
X-86780Y344272D01*
X-85331Y346161D01*
X-84420Y348360D01*
X-84110Y350720D01*
X-84420Y353080D01*
X-85331Y355279D01*
X-86780Y357167D01*
X-88669Y358616D01*
X-89211Y358841D01*
Y360216D01*
X-88469Y360523D01*
X-86580Y361973D01*
X-85131Y363861D01*
X-84220Y366060D01*
X-83910Y368420D01*
X-84220Y370780D01*
X-85131Y372979D01*
X-86580Y374867D01*
X-88469Y376316D01*
X-90668Y377227D01*
X-93028Y377538D01*
D02*
G37*
G36*
X-47727Y357238D02*
X-50087Y356927D01*
X-52287Y356016D01*
X-54175Y354567D01*
X-55624Y352679D01*
X-56535Y350480D01*
X-56845Y348120D01*
X-56535Y345760D01*
X-55624Y343561D01*
X-54175Y341673D01*
X-52287Y340223D01*
X-50087Y339313D01*
X-47727Y339002D01*
X-45368Y339313D01*
X-43169Y340223D01*
X-41280Y341673D01*
X-39831Y343561D01*
X-38920Y345760D01*
X-38609Y348120D01*
X-38920Y350480D01*
X-39831Y352679D01*
X-41280Y354567D01*
X-43169Y356016D01*
X-45368Y356927D01*
X-47727Y357238D01*
D02*
G37*
G36*
X899723Y346802D02*
X897366Y346333D01*
X895368Y344998D01*
X894033Y343000D01*
X893564Y340644D01*
X894033Y338287D01*
X895368Y336289D01*
X897366Y334954D01*
X899723Y334486D01*
X902079Y334954D01*
X904077Y336289D01*
X905412Y338287D01*
X905881Y340644D01*
X905412Y343000D01*
X904077Y344998D01*
X902079Y346333D01*
X899723Y346802D01*
D02*
G37*
G36*
X822723Y344652D02*
X820366Y344183D01*
X818368Y342848D01*
X817033Y340850D01*
X816564Y338494D01*
X817033Y336137D01*
X818368Y334139D01*
X820366Y332804D01*
X822723Y332336D01*
X825079Y332804D01*
X827077Y334139D01*
X828412Y336137D01*
X828881Y338494D01*
X828412Y340850D01*
X827077Y342848D01*
X825079Y344183D01*
X822723Y344652D01*
D02*
G37*
G36*
X404191Y341897D02*
X401835Y341428D01*
X399837Y340093D01*
X398502Y338095D01*
X398033Y335739D01*
X398502Y333382D01*
X399837Y331384D01*
X401835Y330049D01*
X404191Y329580D01*
X406548Y330049D01*
X408546Y331384D01*
X409881Y333382D01*
X410350Y335739D01*
X409881Y338095D01*
X408546Y340093D01*
X406548Y341428D01*
X404191Y341897D01*
D02*
G37*
G36*
X331891Y340997D02*
X329535Y340528D01*
X327537Y339193D01*
X326202Y337195D01*
X325733Y334839D01*
X326202Y332482D01*
X327537Y330484D01*
X329535Y329149D01*
X331891Y328680D01*
X334248Y329149D01*
X336246Y330484D01*
X337581Y332482D01*
X338050Y334839D01*
X337581Y337195D01*
X336246Y339193D01*
X334248Y340528D01*
X331891Y340997D01*
D02*
G37*
G36*
X1296810Y336368D02*
X1293536Y335937D01*
X1290486Y334674D01*
X1287866Y332664D01*
X1285856Y330044D01*
X1285220Y328508D01*
X1283950Y328760D01*
Y336260D01*
X1258870D01*
Y311180D01*
X1266369D01*
X1266622Y309910D01*
X1265086Y309274D01*
X1262466Y307264D01*
X1260456Y304644D01*
X1259193Y301594D01*
X1258762Y298320D01*
X1259193Y295046D01*
X1260456Y291996D01*
X1262466Y289376D01*
X1265086Y287366D01*
X1267643Y286307D01*
Y284933D01*
X1265086Y283874D01*
X1262466Y281864D01*
X1260456Y279244D01*
X1259193Y276194D01*
X1258762Y272920D01*
X1259193Y269646D01*
X1260456Y266596D01*
X1262466Y263976D01*
X1265086Y261966D01*
X1267643Y260907D01*
Y259533D01*
X1265086Y258474D01*
X1262466Y256464D01*
X1260456Y253844D01*
X1259193Y250794D01*
X1258762Y247520D01*
X1259193Y244246D01*
X1260456Y241196D01*
X1262466Y238576D01*
X1265086Y236566D01*
X1267643Y235507D01*
Y234133D01*
X1265086Y233074D01*
X1262466Y231064D01*
X1260456Y228444D01*
X1259193Y225394D01*
X1258762Y222120D01*
X1259193Y218846D01*
X1260456Y215796D01*
X1262466Y213176D01*
X1265086Y211166D01*
X1268136Y209903D01*
X1271410Y209472D01*
X1274684Y209903D01*
X1277734Y211166D01*
X1280354Y213176D01*
X1282364Y215796D01*
X1283423Y218353D01*
X1284797D01*
X1285856Y215796D01*
X1287866Y213176D01*
X1290486Y211166D01*
X1293536Y209903D01*
X1296810Y209472D01*
X1300084Y209903D01*
X1303134Y211166D01*
X1305754Y213176D01*
X1307764Y215796D01*
X1309027Y218846D01*
X1309458Y222120D01*
X1309027Y225394D01*
X1307764Y228444D01*
X1305754Y231064D01*
X1303134Y233074D01*
X1300577Y234133D01*
Y235507D01*
X1303134Y236566D01*
X1305754Y238576D01*
X1307764Y241196D01*
X1309027Y244246D01*
X1309458Y247520D01*
X1309027Y250794D01*
X1307764Y253844D01*
X1305754Y256464D01*
X1303134Y258474D01*
X1300577Y259533D01*
Y260907D01*
X1303134Y261966D01*
X1305754Y263976D01*
X1307764Y266596D01*
X1309027Y269646D01*
X1309458Y272920D01*
X1309027Y276194D01*
X1307764Y279244D01*
X1305754Y281864D01*
X1303134Y283874D01*
X1300577Y284933D01*
Y286307D01*
X1303134Y287366D01*
X1305754Y289376D01*
X1307764Y291996D01*
X1308312Y293320D01*
X1296810D01*
Y303320D01*
X1308312D01*
X1307764Y304644D01*
X1305754Y307264D01*
X1303134Y309274D01*
X1300577Y310333D01*
Y311707D01*
X1303134Y312766D01*
X1305754Y314776D01*
X1307764Y317396D01*
X1309027Y320446D01*
X1309458Y323720D01*
X1309027Y326994D01*
X1307764Y330044D01*
X1305754Y332664D01*
X1303134Y334674D01*
X1300084Y335937D01*
X1296810Y336368D01*
D02*
G37*
G36*
X380991Y342544D02*
X379023Y342285D01*
X377189Y341525D01*
X375614Y340316D01*
X374405Y338741D01*
X373646Y336907D01*
X373386Y334939D01*
X373646Y332970D01*
X374405Y331136D01*
X375614Y329561D01*
X377189Y328353D01*
X379023Y327593D01*
X380991Y327334D01*
X382960Y327593D01*
X384794Y328353D01*
X386369Y329561D01*
X387578Y331136D01*
X388337Y332970D01*
X388596Y334939D01*
X388337Y336907D01*
X387578Y338741D01*
X386369Y340316D01*
X384794Y341525D01*
X382960Y342285D01*
X380991Y342544D01*
D02*
G37*
G36*
X349591Y338197D02*
X347235Y337728D01*
X345237Y336393D01*
X343902Y334395D01*
X343433Y332039D01*
X343902Y329682D01*
X345237Y327684D01*
X347235Y326349D01*
X349591Y325880D01*
X351948Y326349D01*
X353946Y327684D01*
X355281Y329682D01*
X355750Y332039D01*
X355281Y334395D01*
X353946Y336393D01*
X351948Y337728D01*
X349591Y338197D01*
D02*
G37*
G36*
X436591Y336797D02*
X434235Y336328D01*
X432237Y334993D01*
X430902Y332995D01*
X430433Y330639D01*
X430902Y328282D01*
X432237Y326284D01*
X434235Y324949D01*
X436591Y324480D01*
X438948Y324949D01*
X440946Y326284D01*
X442281Y328282D01*
X442750Y330639D01*
X442281Y332995D01*
X440946Y334993D01*
X438948Y336328D01*
X436591Y336797D01*
D02*
G37*
G36*
X-67828Y334578D02*
X-70184Y334109D01*
X-72182Y332775D01*
X-73517Y330777D01*
X-73986Y328420D01*
X-73517Y326063D01*
X-72182Y324065D01*
X-70184Y322730D01*
X-67828Y322262D01*
X-65471Y322730D01*
X-63473Y324065D01*
X-62138Y326063D01*
X-61669Y328420D01*
X-62138Y330777D01*
X-63473Y332775D01*
X-65471Y334109D01*
X-67828Y334578D01*
D02*
G37*
G36*
X849723Y334202D02*
X847366Y333733D01*
X845368Y332398D01*
X844033Y330401D01*
X843564Y328044D01*
X844033Y325687D01*
X845368Y323689D01*
X847366Y322354D01*
X849723Y321885D01*
X852079Y322354D01*
X854077Y323689D01*
X855412Y325687D01*
X855881Y328044D01*
X855412Y330401D01*
X854077Y332398D01*
X852079Y333733D01*
X849723Y334202D01*
D02*
G37*
G36*
X296091Y329697D02*
X293735Y329228D01*
X291737Y327893D01*
X290402Y325895D01*
X289933Y323539D01*
X290402Y321182D01*
X291737Y319184D01*
X293735Y317849D01*
X296091Y317380D01*
X298448Y317849D01*
X300446Y319184D01*
X301781Y321182D01*
X302250Y323539D01*
X301781Y325895D01*
X300446Y327893D01*
X298448Y329228D01*
X296091Y329697D01*
D02*
G37*
G36*
X1213111Y332538D02*
X1210751Y332227D01*
X1208552Y331316D01*
X1206664Y329867D01*
X1205215Y327979D01*
X1204304Y325779D01*
X1203993Y323420D01*
X1204304Y321060D01*
X1205215Y318861D01*
X1206664Y316972D01*
X1208552Y315523D01*
X1210751Y314612D01*
X1213111Y314302D01*
X1215471Y314612D01*
X1217670Y315523D01*
X1219558Y316972D01*
X1221008Y318861D01*
X1221918Y321060D01*
X1222229Y323420D01*
X1221918Y325779D01*
X1221008Y327979D01*
X1219558Y329867D01*
X1217670Y331316D01*
X1215471Y332227D01*
X1213111Y332538D01*
D02*
G37*
G36*
X104756Y330307D02*
X102135Y329962D01*
X99693Y328950D01*
X97596Y327341D01*
X95986Y325243D01*
X94975Y322801D01*
X94630Y320180D01*
X94975Y317559D01*
X95986Y315117D01*
X97596Y313020D01*
X99693Y311410D01*
X102135Y310399D01*
X104756Y310054D01*
X107377Y310399D01*
X109820Y311410D01*
X111917Y313020D01*
X113526Y315117D01*
X114538Y317559D01*
X114883Y320180D01*
X114538Y322801D01*
X113526Y325243D01*
X111917Y327341D01*
X109820Y328950D01*
X107377Y329962D01*
X104756Y330307D01*
D02*
G37*
G36*
X332991Y321497D02*
X330635Y321028D01*
X328637Y319693D01*
X327302Y317695D01*
X326833Y315339D01*
X327302Y312982D01*
X328637Y310984D01*
X330635Y309649D01*
X332991Y309180D01*
X335348Y309649D01*
X337346Y310984D01*
X338681Y312982D01*
X339150Y315339D01*
X338681Y317695D01*
X337346Y319693D01*
X335348Y321028D01*
X332991Y321497D01*
D02*
G37*
G36*
X481941Y337997D02*
X479585Y337528D01*
X477587Y336193D01*
X476252Y334195D01*
X475783Y331839D01*
X476252Y329482D01*
X477587Y327484D01*
X477796Y326432D01*
X477344Y325755D01*
X476953Y323789D01*
X477344Y321822D01*
X477928Y320948D01*
X477686Y319260D01*
X477587Y319193D01*
X476252Y317195D01*
X475783Y314839D01*
X476252Y312482D01*
X477587Y310484D01*
X479585Y309149D01*
X481941Y308680D01*
X484298Y309149D01*
X486296Y310484D01*
X487631Y312482D01*
X488100Y314839D01*
X487631Y317195D01*
X486296Y319193D01*
X486163Y320810D01*
X486839Y321822D01*
X487230Y323789D01*
X486839Y325755D01*
X486156Y326778D01*
X486296Y327484D01*
X487631Y329482D01*
X488100Y331839D01*
X487631Y334195D01*
X486296Y336193D01*
X484298Y337528D01*
X481941Y337997D01*
D02*
G37*
G36*
X364491Y308397D02*
X362135Y307928D01*
X360137Y306593D01*
X358802Y304595D01*
X358333Y302239D01*
X358802Y299882D01*
X360137Y297884D01*
X362135Y296549D01*
X364491Y296080D01*
X366848Y296549D01*
X368846Y297884D01*
X370181Y299882D01*
X370650Y302239D01*
X370181Y304595D01*
X368846Y306593D01*
X366848Y307928D01*
X364491Y308397D01*
D02*
G37*
G36*
X908005Y321930D02*
X870940D01*
X869363Y321617D01*
X868027Y320724D01*
X837514Y290211D01*
X837431Y290149D01*
X837327Y290082D01*
X837244Y290038D01*
X837198Y290018D01*
X837022Y290052D01*
X834666Y289584D01*
X832668Y288249D01*
X831333Y286251D01*
X830864Y283894D01*
X831333Y281537D01*
X832668Y279539D01*
X834666Y278204D01*
X837022Y277736D01*
X839379Y278204D01*
X841377Y279539D01*
X842712Y281537D01*
X843181Y283894D01*
X843146Y284069D01*
X843166Y284115D01*
X843211Y284198D01*
X843278Y284302D01*
X843339Y284386D01*
X860210Y301256D01*
X861412Y300847D01*
X861468Y300424D01*
X862228Y298590D01*
X863436Y297015D01*
X865011Y295806D01*
X866845Y295046D01*
X868814Y294787D01*
X870782Y295046D01*
X872616Y295806D01*
X874191Y297015D01*
X875400Y298590D01*
X876160Y300424D01*
X876419Y302392D01*
X876160Y304361D01*
X875400Y306195D01*
X874191Y307770D01*
X872616Y308978D01*
X870782Y309738D01*
X870359Y309794D01*
X869950Y310996D01*
X872646Y313692D01*
X892125D01*
Y298971D01*
Y286271D01*
X932605D01*
Y298971D01*
Y314051D01*
X916365D01*
X916171Y315027D01*
X915278Y316364D01*
X910918Y320724D01*
X909581Y321617D01*
X908005Y321930D01*
D02*
G37*
G36*
X48756Y321307D02*
X46135Y320962D01*
X43693Y319950D01*
X41596Y318341D01*
X39987Y316243D01*
X38975Y313801D01*
X38630Y311180D01*
X38975Y308559D01*
X39987Y306117D01*
X41596Y304020D01*
X43693Y302410D01*
X43923Y302315D01*
Y301045D01*
X43693Y300950D01*
X41596Y299341D01*
X39987Y297243D01*
X38975Y294801D01*
X38630Y292180D01*
X38975Y289559D01*
X39987Y287117D01*
X41596Y285019D01*
X43693Y283410D01*
X46135Y282399D01*
X48756Y282054D01*
X51377Y282399D01*
X53820Y283410D01*
X55917Y285019D01*
X57526Y287117D01*
X58538Y289559D01*
X58883Y292180D01*
X58538Y294801D01*
X57526Y297243D01*
X55917Y299341D01*
X53820Y300950D01*
X53590Y301045D01*
Y302315D01*
X53820Y302410D01*
X55917Y304020D01*
X57526Y306117D01*
X58538Y308559D01*
X58883Y311180D01*
X58538Y313801D01*
X57526Y316243D01*
X55917Y318341D01*
X53820Y319950D01*
X51377Y320962D01*
X48756Y321307D01*
D02*
G37*
G36*
X717923Y293502D02*
X715566Y293033D01*
X713568Y291698D01*
X712233Y289701D01*
X711764Y287344D01*
X712233Y284987D01*
X713568Y282989D01*
X715566Y281654D01*
X717923Y281185D01*
X720279Y281654D01*
X722277Y282989D01*
X723612Y284987D01*
X724081Y287344D01*
X723612Y289701D01*
X722277Y291698D01*
X720279Y293033D01*
X717923Y293502D01*
D02*
G37*
G36*
X481941Y286997D02*
X479585Y286528D01*
X477587Y285193D01*
X476252Y283195D01*
X475783Y280839D01*
X476252Y278482D01*
X477587Y276484D01*
X479585Y275149D01*
X481941Y274680D01*
X484298Y275149D01*
X486296Y276484D01*
X487631Y278482D01*
X488100Y280839D01*
X487631Y283195D01*
X486296Y285193D01*
X484298Y286528D01*
X481941Y286997D01*
D02*
G37*
G36*
X331591D02*
X329235Y286528D01*
X327237Y285193D01*
X325902Y283195D01*
X325433Y280839D01*
X325902Y278482D01*
X327237Y276484D01*
X329235Y275149D01*
X331591Y274680D01*
X333948Y275149D01*
X335946Y276484D01*
X337281Y278482D01*
X337750Y280839D01*
X337281Y283195D01*
X335946Y285193D01*
X333948Y286528D01*
X331591Y286997D01*
D02*
G37*
G36*
X296091Y278697D02*
X293735Y278228D01*
X291737Y276893D01*
X290402Y274895D01*
X289933Y272539D01*
X290402Y270182D01*
X291737Y268184D01*
X293735Y266849D01*
X296091Y266380D01*
X298448Y266849D01*
X300446Y268184D01*
X301781Y270182D01*
X302250Y272539D01*
X301781Y274895D01*
X300446Y276893D01*
X298448Y278228D01*
X296091Y278697D01*
D02*
G37*
G36*
X943697Y278049D02*
X941728Y277790D01*
X939894Y277030D01*
X938319Y275821D01*
X937110Y274246D01*
X936351Y272412D01*
X936091Y270444D01*
X936351Y268475D01*
X937110Y266641D01*
X938319Y265066D01*
X939894Y263858D01*
X941728Y263098D01*
X943697Y262839D01*
X945665Y263098D01*
X947499Y263858D01*
X949074Y265066D01*
X950283Y266641D01*
X951042Y268475D01*
X951302Y270444D01*
X951042Y272412D01*
X950283Y274246D01*
X949074Y275821D01*
X947499Y277030D01*
X945665Y277790D01*
X943697Y278049D01*
D02*
G37*
G36*
X806873Y270402D02*
X804516Y269933D01*
X802518Y268598D01*
X801183Y266600D01*
X800714Y264244D01*
X801183Y261887D01*
X802518Y259889D01*
X804516Y258554D01*
X806873Y258085D01*
X809229Y258554D01*
X811227Y259889D01*
X812562Y261887D01*
X813031Y264244D01*
X812562Y266600D01*
X811227Y268598D01*
X809229Y269933D01*
X806873Y270402D01*
D02*
G37*
G36*
X783673Y270302D02*
X781316Y269833D01*
X779318Y268498D01*
X777983Y266500D01*
X777514Y264144D01*
X777983Y261787D01*
X779318Y259789D01*
X781316Y258454D01*
X783673Y257985D01*
X786029Y258454D01*
X788027Y259789D01*
X789362Y261787D01*
X789831Y264144D01*
X789362Y266500D01*
X788027Y268498D01*
X786029Y269833D01*
X783673Y270302D01*
D02*
G37*
G36*
X481941Y269997D02*
X479585Y269528D01*
X477587Y268193D01*
X476252Y266195D01*
X475783Y263839D01*
X476252Y261482D01*
X477587Y259484D01*
X479585Y258149D01*
X481941Y257680D01*
X484298Y258149D01*
X486296Y259484D01*
X487631Y261482D01*
X488100Y263839D01*
X487631Y266195D01*
X486296Y268193D01*
X484298Y269528D01*
X481941Y269997D01*
D02*
G37*
G36*
X333092D02*
X330735Y269528D01*
X328737Y268193D01*
X327402Y266195D01*
X326933Y263839D01*
X327402Y261482D01*
X328737Y259484D01*
X330735Y258149D01*
X333092Y257680D01*
X335448Y258149D01*
X337446Y259484D01*
X338781Y261482D01*
X339250Y263839D01*
X338781Y266195D01*
X337446Y268193D01*
X335448Y269528D01*
X333092Y269997D01*
D02*
G37*
G36*
X838823Y270402D02*
X836466Y269933D01*
X834468Y268598D01*
X833133Y266600D01*
X832664Y264244D01*
X833133Y261887D01*
X834468Y259889D01*
Y259667D01*
X833468Y258998D01*
X832133Y257001D01*
X831664Y254644D01*
X832133Y252287D01*
X833468Y250289D01*
X835466Y248954D01*
X837823Y248486D01*
X840179Y248954D01*
X842177Y250289D01*
X843512Y252287D01*
X843981Y254644D01*
X843512Y257001D01*
X842177Y258998D01*
Y259221D01*
X843177Y259889D01*
X844512Y261887D01*
X844981Y264244D01*
X844512Y266600D01*
X843177Y268598D01*
X841179Y269933D01*
X838823Y270402D01*
D02*
G37*
G36*
X784523Y255352D02*
X782166Y254883D01*
X780168Y253548D01*
X778833Y251551D01*
X778364Y249194D01*
X778833Y246837D01*
X780168Y244839D01*
X782166Y243504D01*
X784523Y243036D01*
X786879Y243504D01*
X788877Y244839D01*
X790212Y246837D01*
X790681Y249194D01*
X790212Y251551D01*
X788877Y253548D01*
X786879Y254883D01*
X784523Y255352D01*
D02*
G37*
G36*
X245858Y252078D02*
X243502Y251610D01*
X241504Y250275D01*
X240169Y248277D01*
X239700Y245920D01*
X240169Y243563D01*
X241504Y241565D01*
X243502Y240231D01*
X245858Y239762D01*
X248215Y240231D01*
X250213Y241565D01*
X251548Y243563D01*
X252017Y245920D01*
X251548Y248277D01*
X250213Y250275D01*
X248215Y251610D01*
X245858Y252078D01*
D02*
G37*
G36*
X899723Y245702D02*
X897366Y245233D01*
X895368Y243898D01*
X894033Y241901D01*
X893564Y239544D01*
X894033Y237187D01*
X895368Y235189D01*
X897366Y233854D01*
X899723Y233386D01*
X902079Y233854D01*
X904077Y235189D01*
X905412Y237187D01*
X905881Y239544D01*
X905412Y241901D01*
X904077Y243898D01*
X902079Y245233D01*
X899723Y245702D01*
D02*
G37*
G36*
X822723Y243552D02*
X820366Y243083D01*
X818368Y241748D01*
X817033Y239750D01*
X816564Y237394D01*
X817033Y235037D01*
X818368Y233039D01*
X820366Y231704D01*
X822723Y231236D01*
X825079Y231704D01*
X827077Y233039D01*
X828412Y235037D01*
X828881Y237394D01*
X828412Y239750D01*
X827077Y241748D01*
X825079Y243083D01*
X822723Y243552D01*
D02*
G37*
G36*
X338665Y241229D02*
X336305Y240919D01*
X334106Y240008D01*
X332218Y238559D01*
X330769Y236670D01*
X329858Y234471D01*
X329547Y232111D01*
X329858Y229751D01*
X330769Y227552D01*
X332218Y225664D01*
X334106Y224215D01*
X336305Y223304D01*
X338665Y222993D01*
X341025Y223304D01*
X343224Y224215D01*
X345113Y225664D01*
X346562Y227552D01*
X347472Y229751D01*
X347783Y232111D01*
X347472Y234471D01*
X346562Y236670D01*
X345113Y238559D01*
X343224Y240008D01*
X341025Y240919D01*
X338665Y241229D01*
D02*
G37*
G36*
X849723Y233102D02*
X847366Y232633D01*
X845368Y231298D01*
X844033Y229300D01*
X843564Y226944D01*
X844033Y224587D01*
X845368Y222589D01*
X847366Y221254D01*
X849723Y220786D01*
X852079Y221254D01*
X854077Y222589D01*
X855412Y224587D01*
X855881Y226944D01*
X855412Y229300D01*
X854077Y231298D01*
X852079Y232633D01*
X849723Y233102D01*
D02*
G37*
G36*
X130756Y234510D02*
X128658Y234234D01*
X126702Y233424D01*
X125022Y232135D01*
X123734Y230455D01*
X122923Y228500D01*
X122647Y226401D01*
X122923Y224302D01*
X123734Y222346D01*
X125022Y220667D01*
X126702Y219378D01*
X128658Y218568D01*
X130756Y218291D01*
X132855Y218568D01*
X134811Y219378D01*
X136490Y220667D01*
X137779Y222346D01*
X138589Y224302D01*
X138866Y226401D01*
X138589Y228500D01*
X137779Y230455D01*
X136490Y232135D01*
X134811Y233424D01*
X132855Y234234D01*
X130756Y234510D01*
D02*
G37*
G36*
X908005Y220833D02*
X870940D01*
X869363Y220519D01*
X868027Y219627D01*
X837512Y189111D01*
X837429Y189050D01*
X837325Y188983D01*
X837241Y188938D01*
X837196Y188918D01*
X837022Y188952D01*
X834666Y188484D01*
X832668Y187149D01*
X831333Y185151D01*
X830864Y182794D01*
X831333Y180437D01*
X832668Y178439D01*
X834666Y177104D01*
X837022Y176636D01*
X839379Y177104D01*
X841377Y178439D01*
X842712Y180437D01*
X843181Y182794D01*
X843146Y182971D01*
X843166Y183017D01*
X843211Y183100D01*
X843277Y183204D01*
X843339Y183288D01*
X860209Y200158D01*
X861412Y199750D01*
X861468Y199324D01*
X862228Y197490D01*
X863436Y195915D01*
X865011Y194706D01*
X866845Y193946D01*
X868814Y193687D01*
X870782Y193946D01*
X872616Y194706D01*
X874191Y195915D01*
X875400Y197490D01*
X876160Y199324D01*
X876419Y201292D01*
X876160Y203260D01*
X875400Y205095D01*
X874191Y206670D01*
X872616Y207878D01*
X870782Y208638D01*
X870356Y208694D01*
X869948Y209897D01*
X872646Y212595D01*
X892125D01*
Y197874D01*
Y185174D01*
X932605D01*
Y197874D01*
Y212954D01*
X916365D01*
X916171Y213930D01*
X915278Y215266D01*
X910918Y219627D01*
X909581Y220519D01*
X908005Y220833D01*
D02*
G37*
G36*
X94456Y187298D02*
X92097Y186987D01*
X89897Y186077D01*
X88106Y184702D01*
X86315Y186077D01*
X84116Y186987D01*
X81756Y187298D01*
X79397Y186987D01*
X77197Y186077D01*
X75406Y184702D01*
X73615Y186077D01*
X71416Y186987D01*
X69056Y187298D01*
X66697Y186987D01*
X64497Y186077D01*
X62706Y184702D01*
X60915Y186077D01*
X58716Y186987D01*
X56356Y187298D01*
X53997Y186987D01*
X51797Y186077D01*
X50006Y184702D01*
X48215Y186077D01*
X46016Y186987D01*
X43656Y187298D01*
X41297Y186987D01*
X39097Y186077D01*
X37306Y184702D01*
X35515Y186077D01*
X33316Y186987D01*
X30956Y187298D01*
X28596Y186987D01*
X26397Y186077D01*
X24606Y184702D01*
X22815Y186077D01*
X20616Y186987D01*
X18256Y187298D01*
X15897Y186987D01*
X13697Y186077D01*
X11809Y184627D01*
X10360Y182739D01*
X9449Y180540D01*
X9138Y178180D01*
X9449Y175820D01*
X10360Y173621D01*
X11734Y171830D01*
X10360Y170039D01*
X9449Y167840D01*
X9138Y165480D01*
X9449Y163120D01*
X10360Y160921D01*
X11809Y159033D01*
X13697Y157584D01*
X15897Y156673D01*
X18256Y156362D01*
X20616Y156673D01*
X22815Y157584D01*
X24606Y158958D01*
X26397Y157584D01*
X28596Y156673D01*
X30956Y156362D01*
X33316Y156673D01*
X35515Y157584D01*
X37306Y158958D01*
X39097Y157584D01*
X41297Y156673D01*
X43656Y156362D01*
X46016Y156673D01*
X48215Y157584D01*
X50006Y158958D01*
X51797Y157584D01*
X53997Y156673D01*
X56356Y156362D01*
X58716Y156673D01*
X60915Y157584D01*
X62706Y158958D01*
X64497Y157584D01*
X66697Y156673D01*
X69056Y156362D01*
X71416Y156673D01*
X73615Y157584D01*
X75406Y158958D01*
X77197Y157584D01*
X79397Y156673D01*
X81756Y156362D01*
X84116Y156673D01*
X86315Y157584D01*
X88106Y158958D01*
X89897Y157584D01*
X92097Y156673D01*
X94456Y156362D01*
X96816Y156673D01*
X99015Y157584D01*
X100904Y159033D01*
X102353Y160921D01*
X103264Y163120D01*
X103574Y165480D01*
X103264Y167840D01*
X102353Y170039D01*
X100978Y171830D01*
X102353Y173621D01*
X103264Y175820D01*
X103574Y178180D01*
X103264Y180540D01*
X102353Y182739D01*
X100904Y184627D01*
X99015Y186077D01*
X96816Y186987D01*
X94456Y187298D01*
D02*
G37*
G36*
X338466Y202029D02*
X336106Y201718D01*
X333907Y200807D01*
X332018Y199358D01*
X330569Y197470D01*
X329658Y195271D01*
X329348Y192911D01*
X329658Y190551D01*
X330569Y188352D01*
X332018Y186463D01*
X333907Y185014D01*
X336106Y184103D01*
X338466Y183793D01*
X340826Y184103D01*
X343025Y185014D01*
X344913Y186463D01*
X346362Y188352D01*
X347273Y190551D01*
X347584Y192911D01*
X347273Y195271D01*
X346362Y197470D01*
X344913Y199358D01*
X343025Y200807D01*
X340826Y201718D01*
X338466Y202029D01*
D02*
G37*
G36*
X717923Y192402D02*
X715566Y191933D01*
X713568Y190598D01*
X712233Y188601D01*
X711764Y186244D01*
X712233Y183887D01*
X713568Y181889D01*
X715566Y180554D01*
X717923Y180086D01*
X720279Y180554D01*
X722277Y181889D01*
X723612Y183887D01*
X724081Y186244D01*
X723612Y188601D01*
X722277Y190598D01*
X720279Y191933D01*
X717923Y192402D01*
D02*
G37*
G36*
X214765Y195438D02*
X212144Y195093D01*
X209702Y194081D01*
X207605Y192472D01*
X205995Y190374D01*
X204984Y187932D01*
X204639Y185311D01*
X204984Y182690D01*
X205995Y180248D01*
X207605Y178151D01*
X209702Y176541D01*
X212144Y175529D01*
X214765Y175184D01*
X217386Y175529D01*
X219828Y176541D01*
X221926Y178151D01*
X223535Y180248D01*
X224547Y182690D01*
X224892Y185311D01*
X224547Y187932D01*
X223535Y190374D01*
X221926Y192472D01*
X219828Y194081D01*
X217386Y195093D01*
X214765Y195438D01*
D02*
G37*
G36*
X141365D02*
X138744Y195093D01*
X136302Y194081D01*
X134204Y192472D01*
X132595Y190374D01*
X131583Y187932D01*
X131238Y185311D01*
X131583Y182690D01*
X132595Y180248D01*
X134204Y178151D01*
X136302Y176541D01*
X138744Y175529D01*
X141365Y175184D01*
X143986Y175529D01*
X146428Y176541D01*
X148526Y178151D01*
X150135Y180248D01*
X151147Y182690D01*
X151492Y185311D01*
X151147Y187932D01*
X150135Y190374D01*
X148526Y192472D01*
X146428Y194081D01*
X143986Y195093D01*
X141365Y195438D01*
D02*
G37*
G36*
X943697Y176949D02*
X941728Y176690D01*
X939894Y175930D01*
X938319Y174721D01*
X937110Y173146D01*
X936351Y171312D01*
X936091Y169344D01*
X936351Y167375D01*
X937110Y165541D01*
X938319Y163966D01*
X939894Y162758D01*
X941728Y161998D01*
X943697Y161739D01*
X945665Y161998D01*
X947499Y162758D01*
X949074Y163966D01*
X950283Y165541D01*
X951042Y167375D01*
X951302Y169344D01*
X951042Y171312D01*
X950283Y173146D01*
X949074Y174721D01*
X947499Y175930D01*
X945665Y176690D01*
X943697Y176949D01*
D02*
G37*
G36*
X806873Y169302D02*
X804516Y168833D01*
X802518Y167498D01*
X801183Y165501D01*
X800714Y163144D01*
X801183Y160787D01*
X802518Y158789D01*
X804516Y157454D01*
X806873Y156986D01*
X809229Y157454D01*
X811227Y158789D01*
X812562Y160787D01*
X813031Y163144D01*
X812562Y165501D01*
X811227Y167498D01*
X809229Y168833D01*
X806873Y169302D01*
D02*
G37*
G36*
X783673Y169202D02*
X781316Y168733D01*
X779318Y167398D01*
X777983Y165401D01*
X777514Y163044D01*
X777983Y160687D01*
X779318Y158689D01*
X781316Y157354D01*
X783673Y156885D01*
X786029Y157354D01*
X788027Y158689D01*
X789362Y160687D01*
X789831Y163044D01*
X789362Y165401D01*
X788027Y167398D01*
X786029Y168733D01*
X783673Y169202D01*
D02*
G37*
G36*
X838823Y169302D02*
X836466Y168833D01*
X834468Y167498D01*
X833133Y165501D01*
X832664Y163144D01*
X833133Y160787D01*
X834468Y158789D01*
Y158567D01*
X833468Y157898D01*
X832133Y155900D01*
X831664Y153544D01*
X832133Y151187D01*
X833468Y149189D01*
X835466Y147854D01*
X837823Y147386D01*
X840179Y147854D01*
X842177Y149189D01*
X843512Y151187D01*
X843981Y153544D01*
X843512Y155900D01*
X842177Y157898D01*
Y158121D01*
X843177Y158789D01*
X844512Y160787D01*
X844981Y163144D01*
X844512Y165501D01*
X843177Y167498D01*
X841179Y168833D01*
X838823Y169302D01*
D02*
G37*
G36*
X784523Y154252D02*
X782166Y153783D01*
X780168Y152448D01*
X778833Y150450D01*
X778364Y148094D01*
X778833Y145737D01*
X780168Y143739D01*
X782166Y142404D01*
X784523Y141936D01*
X786879Y142404D01*
X788877Y143739D01*
X790212Y145737D01*
X790681Y148094D01*
X790212Y150450D01*
X788877Y152448D01*
X786879Y153783D01*
X784523Y154252D01*
D02*
G37*
G36*
X650965Y943370D02*
X648608Y942901D01*
X646611Y941566D01*
X645276Y939568D01*
X644807Y937212D01*
X645276Y934855D01*
X646611Y932857D01*
X648060Y931888D01*
Y930435D01*
X646611Y929466D01*
X645276Y927468D01*
X645082Y926496D01*
X611432Y892845D01*
X610318Y891178D01*
X609926Y889212D01*
Y117076D01*
X608656Y116951D01*
X608355Y118468D01*
X607020Y120466D01*
X605022Y121801D01*
X602665Y122270D01*
X600308Y121801D01*
X598311Y120466D01*
X596976Y118468D01*
X596507Y116111D01*
X596976Y113755D01*
X598311Y111757D01*
X600308Y110422D01*
X602665Y109953D01*
X605022Y110422D01*
X607020Y111757D01*
X608355Y113755D01*
X608656Y115271D01*
X609926Y115211D01*
X610318Y113245D01*
X611432Y111578D01*
X631946Y91063D01*
X632317Y90599D01*
X632732Y89989D01*
X633088Y89363D01*
X633387Y88718D01*
X633631Y88050D01*
X633823Y87356D01*
X633961Y86631D01*
X634026Y86041D01*
Y35792D01*
X633476Y34968D01*
X633007Y32611D01*
X633476Y30255D01*
X634811Y28257D01*
X636809Y26922D01*
X639165Y26453D01*
X641522Y26922D01*
X643520Y28257D01*
X644855Y30255D01*
X645323Y32611D01*
X644855Y34968D01*
X644304Y35792D01*
Y40474D01*
X645574Y40859D01*
X646311Y39757D01*
X648308Y38422D01*
X650665Y37953D01*
X653022Y38422D01*
X655020Y39757D01*
X656355Y41755D01*
X656548Y42727D01*
X674299Y60478D01*
X675413Y62145D01*
X675804Y64111D01*
Y100111D01*
X675413Y102078D01*
X674299Y103745D01*
X668804Y109240D01*
Y136408D01*
X670074Y137329D01*
X671665Y137013D01*
X674022Y137482D01*
X676020Y138816D01*
X677355Y140814D01*
X677823Y143171D01*
X677355Y145528D01*
X676020Y147526D01*
X674022Y148861D01*
X671665Y149329D01*
X670074Y149013D01*
X668804Y149935D01*
Y930411D01*
X668413Y932378D01*
X667299Y934045D01*
X660499Y940845D01*
X658831Y941959D01*
X656865Y942350D01*
X654146D01*
X653322Y942901D01*
X650965Y943370D01*
D02*
G37*
G36*
X899723Y144602D02*
X897366Y144133D01*
X895368Y142798D01*
X894033Y140801D01*
X893564Y138444D01*
X894033Y136087D01*
X895368Y134089D01*
X897366Y132754D01*
X899723Y132285D01*
X902079Y132754D01*
X904077Y134089D01*
X905412Y136087D01*
X905881Y138444D01*
X905412Y140801D01*
X904077Y142798D01*
X902079Y144133D01*
X899723Y144602D01*
D02*
G37*
G36*
X822723Y142452D02*
X820366Y141983D01*
X818368Y140648D01*
X817033Y138651D01*
X816564Y136294D01*
X817033Y133937D01*
X818368Y131939D01*
X820366Y130604D01*
X822723Y130135D01*
X825079Y130604D01*
X827077Y131939D01*
X828412Y133937D01*
X828881Y136294D01*
X828412Y138651D01*
X827077Y140648D01*
X825079Y141983D01*
X822723Y142452D01*
D02*
G37*
G36*
X154004Y129046D02*
X151644Y128735D01*
X149445Y127824D01*
X147557Y126375D01*
X146108Y124487D01*
X145197Y122288D01*
X144886Y119928D01*
X145197Y117568D01*
X146108Y115369D01*
X147557Y113481D01*
X149445Y112031D01*
X151644Y111121D01*
X154004Y110810D01*
X156364Y111121D01*
X158563Y112031D01*
X160451Y113481D01*
X161901Y115369D01*
X162811Y117568D01*
X163122Y119928D01*
X162811Y122288D01*
X161901Y124487D01*
X160451Y126375D01*
X158563Y127824D01*
X156364Y128735D01*
X154004Y129046D01*
D02*
G37*
G36*
X279004Y129046D02*
X276644Y128735D01*
X274445Y127824D01*
X272557Y126375D01*
X271108Y124487D01*
X270197Y122288D01*
X269886Y119928D01*
X270197Y117568D01*
X271108Y115369D01*
X272557Y113481D01*
X274445Y112031D01*
X276644Y111121D01*
X279004Y110810D01*
X281364Y111121D01*
X283563Y112031D01*
X285451Y113481D01*
X286901Y115369D01*
X287811Y117568D01*
X288122Y119928D01*
X287811Y122288D01*
X286901Y124487D01*
X285451Y126375D01*
X283563Y127824D01*
X281364Y128735D01*
X279004Y129046D01*
D02*
G37*
G36*
X404004Y129046D02*
X401644Y128735D01*
X399445Y127824D01*
X397557Y126375D01*
X396108Y124487D01*
X395197Y122288D01*
X394886Y119928D01*
X395197Y117568D01*
X396108Y115369D01*
X397557Y113481D01*
X399445Y112031D01*
X401644Y111121D01*
X404004Y110810D01*
X406364Y111121D01*
X408563Y112031D01*
X410452Y113481D01*
X411900Y115369D01*
X412811Y117568D01*
X413122Y119928D01*
X412811Y122288D01*
X411900Y124487D01*
X410452Y126375D01*
X408563Y127824D01*
X406364Y128735D01*
X404004Y129046D01*
D02*
G37*
G36*
X29004D02*
X26644Y128735D01*
X24445Y127824D01*
X22557Y126375D01*
X21108Y124487D01*
X20197Y122288D01*
X19886Y119928D01*
X20197Y117568D01*
X21108Y115369D01*
X22557Y113481D01*
X24445Y112031D01*
X26644Y111121D01*
X29004Y110810D01*
X31364Y111121D01*
X33563Y112031D01*
X35451Y113481D01*
X36900Y115369D01*
X37811Y117568D01*
X38122Y119928D01*
X37811Y122288D01*
X36900Y124487D01*
X35451Y126375D01*
X33563Y127824D01*
X31364Y128735D01*
X29004Y129046D01*
D02*
G37*
G36*
X1253544Y120402D02*
X1251184Y120091D01*
X1248985Y119180D01*
X1247096Y117731D01*
X1245647Y115843D01*
X1244736Y113644D01*
X1244426Y111284D01*
X1244736Y108924D01*
X1245647Y106725D01*
X1247096Y104836D01*
X1248985Y103387D01*
X1251184Y102476D01*
X1253544Y102166D01*
X1255903Y102476D01*
X1258103Y103387D01*
X1259991Y104836D01*
X1261440Y106725D01*
X1262351Y108924D01*
X1262662Y111284D01*
X1262351Y113644D01*
X1261440Y115843D01*
X1259991Y117731D01*
X1258103Y119180D01*
X1255903Y120091D01*
X1253544Y120402D01*
D02*
G37*
G36*
X558316Y111270D02*
X555959Y110801D01*
X553961Y109466D01*
X552626Y107468D01*
X552157Y105111D01*
X552626Y102755D01*
X553961Y100757D01*
X555959Y99422D01*
X558316Y98953D01*
X560672Y99422D01*
X562670Y100757D01*
X564005Y102755D01*
X564474Y105111D01*
X564005Y107468D01*
X562670Y109466D01*
X560672Y110801D01*
X558316Y111270D01*
D02*
G37*
G36*
X496772Y116888D02*
X494413Y116577D01*
X492214Y115666D01*
X490325Y114217D01*
X488876Y112329D01*
X487965Y110130D01*
X487654Y107770D01*
X487965Y105410D01*
X488876Y103211D01*
X490325Y101322D01*
X492214Y99873D01*
X494413Y98962D01*
X496772Y98652D01*
X499132Y98962D01*
X501331Y99873D01*
X503220Y101322D01*
X504669Y103211D01*
X505580Y105410D01*
X505891Y107770D01*
X505580Y110130D01*
X504669Y112329D01*
X503220Y114217D01*
X501331Y115666D01*
X499132Y116577D01*
X496772Y116888D01*
D02*
G37*
G36*
X535465Y108769D02*
X533108Y108300D01*
X531111Y106965D01*
X529776Y104967D01*
X529307Y102610D01*
X529776Y100254D01*
X531111Y98256D01*
X533108Y96921D01*
X535465Y96452D01*
X537822Y96921D01*
X539820Y98256D01*
X541155Y100254D01*
X541623Y102610D01*
X541155Y104967D01*
X539820Y106965D01*
X537822Y108300D01*
X535465Y108769D01*
D02*
G37*
G36*
X868814Y107797D02*
X866845Y107538D01*
X865011Y106778D01*
X863436Y105570D01*
X862228Y103995D01*
X861468Y102161D01*
X861209Y100192D01*
X861468Y98224D01*
X862228Y96390D01*
X863436Y94815D01*
X865011Y93606D01*
X866845Y92846D01*
X868814Y92587D01*
X870782Y92846D01*
X872616Y93606D01*
X874191Y94815D01*
X875400Y96390D01*
X876160Y98224D01*
X876419Y100192D01*
X876160Y102161D01*
X875400Y103995D01*
X874191Y105570D01*
X872616Y106778D01*
X870782Y107538D01*
X868814Y107797D01*
D02*
G37*
G36*
X616765Y101069D02*
X614408Y100600D01*
X612411Y99265D01*
X611076Y97267D01*
X610607Y94910D01*
X611076Y92554D01*
X612411Y90556D01*
X614408Y89221D01*
X616765Y88752D01*
X619122Y89221D01*
X621120Y90556D01*
X622455Y92554D01*
X622924Y94910D01*
X622455Y97267D01*
X621120Y99265D01*
X619122Y100600D01*
X616765Y101069D01*
D02*
G37*
G36*
X849723Y132002D02*
X847366Y131533D01*
X845368Y130198D01*
X844033Y128201D01*
X843564Y125844D01*
X844033Y123487D01*
X845368Y121489D01*
X847366Y120154D01*
X849227Y119784D01*
X849539Y118803D01*
X849560Y118457D01*
X834110Y103007D01*
X833217Y101670D01*
X832903Y100094D01*
Y86508D01*
X832888Y86406D01*
X832862Y86285D01*
X832835Y86195D01*
X832816Y86148D01*
X832668Y86049D01*
X831333Y84051D01*
X830864Y81694D01*
X831333Y79337D01*
X832668Y77339D01*
X834666Y76005D01*
X837022Y75536D01*
X839379Y76005D01*
X841377Y77339D01*
X842712Y79337D01*
X843181Y81694D01*
X842712Y84051D01*
X841377Y86049D01*
X841229Y86148D01*
X841210Y86194D01*
X841183Y86285D01*
X841157Y86405D01*
X841142Y86508D01*
Y98388D01*
X854246Y111492D01*
X892125D01*
Y96771D01*
Y84071D01*
X932605D01*
Y96771D01*
Y111851D01*
X916365D01*
X916171Y112827D01*
X915278Y114164D01*
X910918Y118524D01*
X909581Y119417D01*
X908005Y119730D01*
X853731D01*
X853346Y121000D01*
X854077Y121489D01*
X855412Y123487D01*
X855881Y125844D01*
X855412Y128201D01*
X854077Y130198D01*
X852079Y131533D01*
X849723Y132002D01*
D02*
G37*
G36*
X717923Y91302D02*
X715566Y90833D01*
X713568Y89498D01*
X712233Y87500D01*
X711764Y85144D01*
X712233Y82787D01*
X713568Y80789D01*
X715566Y79454D01*
X717923Y78986D01*
X720279Y79454D01*
X722277Y80789D01*
X723612Y82787D01*
X724081Y85144D01*
X723612Y87500D01*
X722277Y89498D01*
X720279Y90833D01*
X717923Y91302D01*
D02*
G37*
G36*
X691756Y87338D02*
X689400Y86870D01*
X687402Y85535D01*
X686067Y83537D01*
X685598Y81180D01*
X686067Y78823D01*
X687402Y76826D01*
X689400Y75491D01*
X691756Y75022D01*
X694113Y75491D01*
X696111Y76826D01*
X697446Y78823D01*
X697915Y81180D01*
X697446Y83537D01*
X696111Y85535D01*
X694113Y86870D01*
X691756Y87338D01*
D02*
G37*
G36*
X154004Y91088D02*
X151644Y90777D01*
X149445Y89866D01*
X147557Y88417D01*
X146108Y86529D01*
X145197Y84330D01*
X144886Y81970D01*
X145197Y79610D01*
X146108Y77411D01*
X147557Y75522D01*
X149445Y74074D01*
X151644Y73163D01*
X154004Y72852D01*
X156364Y73163D01*
X158563Y74074D01*
X160451Y75522D01*
X161901Y77411D01*
X162811Y79610D01*
X163122Y81970D01*
X162811Y84330D01*
X161901Y86529D01*
X160451Y88417D01*
X158563Y89866D01*
X156364Y90777D01*
X154004Y91088D01*
D02*
G37*
G36*
X279004Y91088D02*
X276644Y90777D01*
X274445Y89866D01*
X272557Y88417D01*
X271108Y86529D01*
X270197Y84330D01*
X269886Y81970D01*
X270197Y79610D01*
X271108Y77411D01*
X272557Y75522D01*
X274445Y74073D01*
X276644Y73162D01*
X279004Y72852D01*
X281364Y73162D01*
X283563Y74073D01*
X285451Y75522D01*
X286901Y77411D01*
X287811Y79610D01*
X288122Y81970D01*
X287811Y84330D01*
X286901Y86529D01*
X285451Y88417D01*
X283563Y89866D01*
X281364Y90777D01*
X279004Y91088D01*
D02*
G37*
G36*
X404004Y91088D02*
X401644Y90777D01*
X399445Y89866D01*
X397557Y88417D01*
X396108Y86529D01*
X395197Y84330D01*
X394886Y81970D01*
X395197Y79610D01*
X396108Y77411D01*
X397557Y75522D01*
X399445Y74073D01*
X401644Y73162D01*
X404004Y72852D01*
X406364Y73162D01*
X408563Y74073D01*
X410452Y75522D01*
X411900Y77411D01*
X412811Y79610D01*
X413122Y81970D01*
X412811Y84330D01*
X411900Y86529D01*
X410452Y88417D01*
X408563Y89866D01*
X406364Y90777D01*
X404004Y91088D01*
D02*
G37*
G36*
X29004D02*
X26644Y90777D01*
X24445Y89866D01*
X22557Y88417D01*
X21108Y86529D01*
X20197Y84330D01*
X19886Y81970D01*
X20197Y79610D01*
X21108Y77411D01*
X22557Y75522D01*
X24445Y74073D01*
X26644Y73162D01*
X29004Y72852D01*
X31364Y73162D01*
X33563Y74073D01*
X35451Y75522D01*
X36900Y77411D01*
X37811Y79610D01*
X38122Y81970D01*
X37811Y84330D01*
X36900Y86529D01*
X35451Y88417D01*
X33563Y89866D01*
X31364Y90777D01*
X29004Y91088D01*
D02*
G37*
G36*
X609765Y79369D02*
X607408Y78900D01*
X605411Y77565D01*
X604076Y75567D01*
X603607Y73210D01*
X604076Y70854D01*
X605411Y68856D01*
X607408Y67521D01*
X609765Y67052D01*
X612122Y67521D01*
X614120Y68856D01*
X615455Y70854D01*
X615924Y73210D01*
X615455Y75567D01*
X614120Y77565D01*
X612122Y78900D01*
X609765Y79369D01*
D02*
G37*
G36*
X943697Y75849D02*
X941728Y75590D01*
X939894Y74830D01*
X938319Y73621D01*
X937110Y72046D01*
X936351Y70212D01*
X936091Y68244D01*
X936351Y66275D01*
X937110Y64441D01*
X938319Y62866D01*
X939894Y61658D01*
X941728Y60898D01*
X943697Y60639D01*
X945665Y60898D01*
X947499Y61658D01*
X949074Y62866D01*
X950283Y64441D01*
X951042Y66275D01*
X951302Y68244D01*
X951042Y70212D01*
X950283Y72046D01*
X949074Y73621D01*
X947499Y74830D01*
X945665Y75590D01*
X943697Y75849D01*
D02*
G37*
G36*
X806873Y68202D02*
X804516Y67733D01*
X802518Y66398D01*
X801183Y64401D01*
X800714Y62044D01*
X801183Y59687D01*
X802518Y57689D01*
X804516Y56354D01*
X806873Y55886D01*
X809229Y56354D01*
X811227Y57689D01*
X812562Y59687D01*
X813031Y62044D01*
X812562Y64401D01*
X811227Y66398D01*
X809229Y67733D01*
X806873Y68202D01*
D02*
G37*
G36*
X783673Y68102D02*
X781316Y67633D01*
X779318Y66298D01*
X777983Y64300D01*
X777514Y61944D01*
X777983Y59587D01*
X779318Y57589D01*
X781316Y56254D01*
X783673Y55785D01*
X786029Y56254D01*
X788027Y57589D01*
X789362Y59587D01*
X789831Y61944D01*
X789362Y64300D01*
X788027Y66298D01*
X786029Y67633D01*
X783673Y68102D01*
D02*
G37*
G36*
X128130Y70038D02*
X125770Y69727D01*
X123571Y68816D01*
X121683Y67367D01*
X120233Y65479D01*
X119323Y63280D01*
X119012Y60920D01*
X119323Y58560D01*
X120233Y56361D01*
X121683Y54473D01*
X123571Y53024D01*
X125770Y52113D01*
X128130Y51802D01*
X130490Y52113D01*
X132689Y53024D01*
X134577Y54473D01*
X136026Y56361D01*
X136937Y58560D01*
X137248Y60920D01*
X136937Y63280D01*
X136026Y65479D01*
X134577Y67367D01*
X132689Y68816D01*
X130490Y69727D01*
X128130Y70038D01*
D02*
G37*
G36*
X491810Y70038D02*
X489450Y69727D01*
X487251Y68816D01*
X485363Y67367D01*
X483914Y65479D01*
X483003Y63280D01*
X482692Y60920D01*
X483003Y58560D01*
X483914Y56361D01*
X485363Y54473D01*
X487251Y53024D01*
X489450Y52113D01*
X491810Y51802D01*
X494170Y52113D01*
X496369Y53024D01*
X498257Y54473D01*
X499706Y56361D01*
X500617Y58560D01*
X500928Y60920D01*
X500617Y63280D01*
X499706Y65479D01*
X498257Y67367D01*
X496369Y68816D01*
X494170Y69727D01*
X491810Y70038D01*
D02*
G37*
G36*
X370584D02*
X368224Y69727D01*
X366025Y68816D01*
X364137Y67367D01*
X362688Y65479D01*
X361777Y63280D01*
X361466Y60920D01*
X361777Y58560D01*
X362688Y56361D01*
X364137Y54473D01*
X366025Y53024D01*
X368224Y52113D01*
X370584Y51802D01*
X372944Y52113D01*
X375143Y53024D01*
X377032Y54473D01*
X378481Y56361D01*
X379392Y58560D01*
X379702Y60920D01*
X379392Y63280D01*
X378481Y65479D01*
X377032Y67367D01*
X375143Y68816D01*
X372944Y69727D01*
X370584Y70038D01*
D02*
G37*
G36*
X249359D02*
X246999Y69727D01*
X244799Y68816D01*
X242911Y67367D01*
X241462Y65479D01*
X240551Y63280D01*
X240240Y60920D01*
X240551Y58560D01*
X241462Y56361D01*
X242911Y54473D01*
X244799Y53024D01*
X246999Y52113D01*
X249359Y51802D01*
X251718Y52113D01*
X253918Y53024D01*
X255806Y54473D01*
X257255Y56361D01*
X258166Y58560D01*
X258477Y60920D01*
X258166Y63280D01*
X257255Y65479D01*
X255806Y67367D01*
X253918Y68816D01*
X251718Y69727D01*
X249359Y70038D01*
D02*
G37*
G36*
X838823Y68202D02*
X836466Y67733D01*
X834468Y66398D01*
X833133Y64401D01*
X832664Y62044D01*
X833133Y59687D01*
X834468Y57689D01*
Y57467D01*
X833468Y56798D01*
X832133Y54801D01*
X831664Y52444D01*
X832133Y50087D01*
X833468Y48089D01*
X835466Y46754D01*
X837823Y46286D01*
X840179Y46754D01*
X842177Y48089D01*
X843512Y50087D01*
X843981Y52444D01*
X843512Y54801D01*
X842177Y56798D01*
Y57021D01*
X843177Y57689D01*
X844512Y59687D01*
X844981Y62044D01*
X844512Y64401D01*
X843177Y66398D01*
X841179Y67733D01*
X838823Y68202D01*
D02*
G37*
G36*
X784523Y53152D02*
X782166Y52683D01*
X780168Y51348D01*
X778833Y49351D01*
X778364Y46994D01*
X778833Y44637D01*
X780168Y42639D01*
X782166Y41304D01*
X784523Y40835D01*
X786879Y41304D01*
X788877Y42639D01*
X790212Y44637D01*
X790681Y46994D01*
X790212Y49351D01*
X788877Y51348D01*
X786879Y52683D01*
X784523Y53152D01*
D02*
G37*
G36*
X899723Y43502D02*
X897366Y43033D01*
X895368Y41698D01*
X894033Y39701D01*
X893564Y37344D01*
X894033Y34987D01*
X895368Y32989D01*
X897366Y31654D01*
X899723Y31186D01*
X902079Y31654D01*
X904077Y32989D01*
X905412Y34987D01*
X905881Y37344D01*
X905412Y39701D01*
X904077Y41698D01*
X902079Y43033D01*
X899723Y43502D01*
D02*
G37*
G36*
X822723Y41352D02*
X820366Y40883D01*
X818368Y39548D01*
X817033Y37550D01*
X816564Y35194D01*
X817033Y32837D01*
X818368Y30839D01*
X820366Y29504D01*
X822723Y29035D01*
X825079Y29504D01*
X827077Y30839D01*
X828412Y32837D01*
X828881Y35194D01*
X828412Y37550D01*
X827077Y39548D01*
X825079Y40883D01*
X822723Y41352D01*
D02*
G37*
G36*
X849456Y37438D02*
X847100Y36970D01*
X845102Y35635D01*
X843767Y33637D01*
X843298Y31280D01*
X843767Y28923D01*
X845102Y26926D01*
X847100Y25591D01*
X849456Y25122D01*
X851813Y25591D01*
X853811Y26926D01*
X855146Y28923D01*
X855615Y31280D01*
X855146Y33637D01*
X853811Y35635D01*
X851813Y36970D01*
X849456Y37438D01*
D02*
G37*
G36*
X974133Y267512D02*
X973352Y267356D01*
X972691Y266915D01*
X972691Y266914D01*
X958491Y252715D01*
X958491Y252715D01*
X958049Y252053D01*
X957894Y251273D01*
X957893Y77579D01*
X957913Y77479D01*
X957903Y77379D01*
X957990Y77092D01*
X958048Y76798D01*
X958105Y76714D01*
X958134Y76617D01*
X958324Y76386D01*
X958491Y76137D01*
X958575Y76080D01*
X958639Y76002D01*
X958903Y75861D01*
X959152Y75695D01*
X959954Y74618D01*
X959685Y73267D01*
X959954Y71916D01*
X959152Y70840D01*
X958903Y70673D01*
X958639Y70532D01*
X958575Y70454D01*
X958491Y70398D01*
X958324Y70149D01*
X958134Y69917D01*
X958105Y69820D01*
X958048Y69736D01*
X957990Y69443D01*
X957903Y69156D01*
X957913Y69055D01*
X957893Y68956D01*
X957893Y33273D01*
X957893Y33272D01*
X958048Y32492D01*
X958491Y31830D01*
X958491Y31830D01*
X972291Y18031D01*
X972291Y18031D01*
X972952Y17589D01*
X973733Y17433D01*
X1212933Y17433D01*
X1213713Y17588D01*
X1214374Y18030D01*
X1214375Y18031D01*
X1230174Y33831D01*
X1230175Y33831D01*
X1230617Y34492D01*
X1230772Y35273D01*
X1230772Y256272D01*
X1230617Y257053D01*
X1230174Y257714D01*
X1220974Y266914D01*
X1220313Y267356D01*
X1219532Y267512D01*
X1214911D01*
X1214649Y267460D01*
X1214383Y267442D01*
X1214262Y267383D01*
X1214131Y267356D01*
X1213909Y267208D01*
X1213670Y267090D01*
X1213441Y266915D01*
X1211738Y266210D01*
X1209910Y265969D01*
X1208083Y266210D01*
X1206380Y266915D01*
X1206151Y267090D01*
X1205912Y267208D01*
X1205690Y267356D01*
X1205558Y267383D01*
X1205438Y267442D01*
X1205172Y267460D01*
X1204910Y267512D01*
X974133Y267512D01*
D02*
G37*
G36*
X14756Y29785D02*
X12788Y29526D01*
X10954Y28766D01*
X9379Y27558D01*
X8170Y25983D01*
X7410Y24148D01*
X7151Y22180D01*
X7410Y20212D01*
X8170Y18378D01*
X9379Y16803D01*
X10954Y15594D01*
X12788Y14834D01*
X14756Y14575D01*
X16725Y14834D01*
X18559Y15594D01*
X20134Y16803D01*
X21342Y18378D01*
X22102Y20212D01*
X22361Y22180D01*
X22102Y24148D01*
X21342Y25983D01*
X20134Y27558D01*
X18559Y28766D01*
X16725Y29526D01*
X14756Y29785D01*
D02*
G37*
%LPD*%
G36*
X913870Y978471D02*
X913940Y977571D01*
X913983Y977350D01*
X914034Y977170D01*
X914096Y977030D01*
X914166Y976930D01*
X914246Y976870D01*
X914335Y976850D01*
X910395D01*
X910484Y976870D01*
X910564Y976930D01*
X910635Y977030D01*
X910696Y977170D01*
X910748Y977350D01*
X910790Y977571D01*
X910823Y977831D01*
X910861Y978471D01*
X910865Y978851D01*
X913865D01*
X913870Y978471D01*
D02*
G37*
G36*
X841804Y951954D02*
X841558Y951695D01*
X841339Y951435D01*
X841145Y951174D01*
X840977Y950913D01*
X840836Y950650D01*
X840721Y950388D01*
X840632Y950124D01*
X840569Y949860D01*
X840533Y949595D01*
X840522Y949329D01*
X837057Y952794D01*
X837323Y952804D01*
X837588Y952841D01*
X837852Y952904D01*
X838116Y952993D01*
X838379Y953108D01*
X838641Y953249D01*
X838903Y953416D01*
X839163Y953610D01*
X839424Y953830D01*
X839683Y954076D01*
X841804Y951954D01*
D02*
G37*
G36*
X913870Y877371D02*
X913940Y876471D01*
X913983Y876251D01*
X914034Y876070D01*
X914096Y875930D01*
X914166Y875830D01*
X914246Y875770D01*
X914335Y875750D01*
X910395D01*
X910484Y875770D01*
X910564Y875830D01*
X910635Y875930D01*
X910696Y876070D01*
X910748Y876251D01*
X910790Y876471D01*
X910823Y876731D01*
X910861Y877371D01*
X910865Y877751D01*
X913865D01*
X913870Y877371D01*
D02*
G37*
G36*
X841804Y850854D02*
X841558Y850595D01*
X841339Y850335D01*
X841145Y850074D01*
X840977Y849813D01*
X840836Y849550D01*
X840721Y849288D01*
X840632Y849024D01*
X840569Y848760D01*
X840533Y848495D01*
X840522Y848229D01*
X837057Y851694D01*
X837323Y851704D01*
X837588Y851741D01*
X837852Y851804D01*
X838116Y851893D01*
X838379Y852008D01*
X838641Y852149D01*
X838903Y852316D01*
X839163Y852510D01*
X839424Y852730D01*
X839683Y852976D01*
X841804Y850854D01*
D02*
G37*
G36*
X913870Y776271D02*
X913940Y775371D01*
X913983Y775151D01*
X914034Y774970D01*
X914096Y774830D01*
X914166Y774730D01*
X914246Y774670D01*
X914335Y774650D01*
X910395D01*
X910484Y774670D01*
X910564Y774730D01*
X910635Y774830D01*
X910696Y774970D01*
X910748Y775151D01*
X910790Y775371D01*
X910823Y775631D01*
X910861Y776271D01*
X910865Y776651D01*
X913865D01*
X913870Y776271D01*
D02*
G37*
G36*
X841804Y749754D02*
X841558Y749495D01*
X841339Y749235D01*
X841145Y748974D01*
X840977Y748713D01*
X840836Y748450D01*
X840721Y748188D01*
X840632Y747924D01*
X840569Y747660D01*
X840533Y747395D01*
X840522Y747129D01*
X837057Y750594D01*
X837323Y750604D01*
X837588Y750641D01*
X837852Y750704D01*
X838116Y750793D01*
X838379Y750908D01*
X838641Y751049D01*
X838903Y751216D01*
X839163Y751410D01*
X839424Y751630D01*
X839683Y751876D01*
X841804Y749754D01*
D02*
G37*
G36*
X913870Y675171D02*
X913940Y674271D01*
X913983Y674051D01*
X914034Y673870D01*
X914096Y673730D01*
X914166Y673630D01*
X914246Y673570D01*
X914335Y673550D01*
X910395D01*
X910484Y673570D01*
X910564Y673630D01*
X910635Y673730D01*
X910696Y673870D01*
X910748Y674051D01*
X910790Y674271D01*
X910823Y674531D01*
X910861Y675171D01*
X910865Y675551D01*
X913865D01*
X913870Y675171D01*
D02*
G37*
G36*
X841804Y648654D02*
X841558Y648395D01*
X841339Y648135D01*
X841145Y647874D01*
X840977Y647613D01*
X840836Y647350D01*
X840721Y647088D01*
X840632Y646824D01*
X840569Y646560D01*
X840533Y646295D01*
X840522Y646029D01*
X837057Y649494D01*
X837323Y649504D01*
X837588Y649541D01*
X837852Y649604D01*
X838116Y649693D01*
X838379Y649808D01*
X838641Y649949D01*
X838903Y650116D01*
X839163Y650310D01*
X839424Y650530D01*
X839683Y650776D01*
X841804Y648654D01*
D02*
G37*
G36*
X913870Y414171D02*
X913940Y413270D01*
X913983Y413050D01*
X914034Y412870D01*
X914096Y412730D01*
X914166Y412630D01*
X914246Y412570D01*
X914335Y412550D01*
X910395D01*
X910484Y412570D01*
X910564Y412630D01*
X910635Y412730D01*
X910696Y412870D01*
X910748Y413050D01*
X910790Y413270D01*
X910823Y413531D01*
X910861Y414171D01*
X910865Y414551D01*
X913865D01*
X913870Y414171D01*
D02*
G37*
G36*
X841804Y387654D02*
X841558Y387395D01*
X841339Y387135D01*
X841145Y386874D01*
X840977Y386613D01*
X840836Y386351D01*
X840721Y386088D01*
X840632Y385824D01*
X840569Y385560D01*
X840533Y385295D01*
X840522Y385029D01*
X837057Y388494D01*
X837323Y388504D01*
X837588Y388541D01*
X837852Y388604D01*
X838116Y388693D01*
X838379Y388808D01*
X838641Y388949D01*
X838903Y389116D01*
X839163Y389310D01*
X839424Y389530D01*
X839683Y389776D01*
X841804Y387654D01*
D02*
G37*
G36*
X913870Y313071D02*
X913940Y312171D01*
X913983Y311950D01*
X914034Y311770D01*
X914096Y311630D01*
X914166Y311530D01*
X914246Y311470D01*
X914335Y311450D01*
X910395D01*
X910484Y311470D01*
X910564Y311530D01*
X910635Y311630D01*
X910696Y311770D01*
X910748Y311950D01*
X910790Y312171D01*
X910823Y312431D01*
X910861Y313071D01*
X910865Y313451D01*
X913865D01*
X913870Y313071D01*
D02*
G37*
G36*
X841804Y286554D02*
X841558Y286295D01*
X841339Y286035D01*
X841145Y285774D01*
X840977Y285513D01*
X840836Y285250D01*
X840721Y284988D01*
X840632Y284724D01*
X840569Y284460D01*
X840533Y284195D01*
X840522Y283929D01*
X837057Y287394D01*
X837323Y287404D01*
X837588Y287441D01*
X837852Y287504D01*
X838116Y287593D01*
X838379Y287708D01*
X838641Y287849D01*
X838903Y288016D01*
X839163Y288210D01*
X839424Y288430D01*
X839683Y288676D01*
X841804Y286554D01*
D02*
G37*
G36*
X913870Y211973D02*
X913940Y211073D01*
X913983Y210853D01*
X914034Y210673D01*
X914096Y210533D01*
X914166Y210433D01*
X914246Y210373D01*
X914335Y210353D01*
X910395D01*
X910484Y210373D01*
X910564Y210433D01*
X910635Y210533D01*
X910696Y210673D01*
X910748Y210853D01*
X910790Y211073D01*
X910823Y211333D01*
X910861Y211973D01*
X910865Y212353D01*
X913865D01*
X913870Y211973D01*
D02*
G37*
G36*
X841804Y185456D02*
X841558Y185197D01*
X841338Y184937D01*
X841144Y184676D01*
X840977Y184415D01*
X840836Y184152D01*
X840721Y183889D01*
X840632Y183626D01*
X840569Y183361D01*
X840533Y183097D01*
X840522Y182831D01*
X837056Y186294D01*
X837321Y186304D01*
X837586Y186341D01*
X837851Y186404D01*
X838114Y186493D01*
X838377Y186608D01*
X838639Y186749D01*
X838901Y186917D01*
X839162Y187111D01*
X839422Y187330D01*
X839681Y187576D01*
X841804Y185456D01*
D02*
G37*
G36*
X658526Y928283D02*
Y111250D01*
X655866D01*
X653900Y110859D01*
X652233Y109745D01*
X650481Y107993D01*
X649509Y107800D01*
X647511Y106465D01*
X646176Y104467D01*
X645707Y102110D01*
X646176Y99754D01*
X647511Y97756D01*
X647863Y97520D01*
X647478Y96250D01*
X644236D01*
X643645Y96315D01*
X642920Y96454D01*
X642226Y96645D01*
X641559Y96890D01*
X640914Y97189D01*
X640288Y97544D01*
X639677Y97959D01*
X639213Y98330D01*
X620204Y117340D01*
Y887083D01*
X652349Y919229D01*
X653322Y919422D01*
X655320Y920757D01*
X656655Y922755D01*
X657123Y925111D01*
X656655Y927468D01*
X655320Y929466D01*
X654569Y929967D01*
X654450Y930304D01*
X654602Y931296D01*
X655356Y931453D01*
X658526Y928283D01*
D02*
G37*
G36*
X637387Y96475D02*
X638138Y95874D01*
X638918Y95344D01*
X639728Y94884D01*
X640567Y94495D01*
X641435Y94177D01*
X642333Y93930D01*
X643259Y93753D01*
X644215Y93647D01*
X645201Y93611D01*
X646665Y88611D01*
X645715Y88561D01*
X644865Y88411D01*
X644115Y88161D01*
X643465Y87811D01*
X642915Y87361D01*
X642465Y86811D01*
X642115Y86161D01*
X641865Y85411D01*
X641715Y84561D01*
X641665Y83611D01*
X636665Y85076D01*
X636630Y86061D01*
X636524Y87017D01*
X636347Y87944D01*
X636100Y88841D01*
X635781Y89710D01*
X635392Y90549D01*
X634933Y91358D01*
X634402Y92139D01*
X633801Y92890D01*
X633130Y93611D01*
X636665Y97147D01*
X637387Y96475D01*
D02*
G37*
G36*
X665527Y91080D02*
Y66240D01*
X649281Y49994D01*
X648308Y49801D01*
X646311Y48466D01*
X645574Y47363D01*
X644304Y47749D01*
Y84329D01*
X644382Y84773D01*
X644501Y85130D01*
X644627Y85364D01*
X644755Y85521D01*
X644912Y85649D01*
X645146Y85775D01*
X645503Y85894D01*
X645948Y85973D01*
X655665D01*
X657632Y86364D01*
X659299Y87478D01*
X663049Y91228D01*
X664022Y91422D01*
X664406Y91679D01*
X665527Y91080D01*
D02*
G37*
G36*
X913870Y110871D02*
X913940Y109971D01*
X913983Y109750D01*
X914034Y109570D01*
X914096Y109430D01*
X914166Y109330D01*
X914246Y109270D01*
X914335Y109250D01*
X910395D01*
X910484Y109270D01*
X910564Y109330D01*
X910635Y109430D01*
X910696Y109570D01*
X910748Y109750D01*
X910790Y109971D01*
X910823Y110231D01*
X910861Y110871D01*
X910865Y111251D01*
X913865D01*
X913870Y110871D01*
D02*
G37*
G36*
X838532Y86599D02*
X838560Y86260D01*
X838608Y85938D01*
X838674Y85635D01*
X838760Y85350D01*
X838865Y85083D01*
X838988Y84833D01*
X839130Y84602D01*
X839292Y84389D01*
X839473Y84193D01*
X834573D01*
X834753Y84389D01*
X834914Y84602D01*
X835057Y84833D01*
X835181Y85083D01*
X835285Y85350D01*
X835370Y85635D01*
X835437Y85938D01*
X835484Y86260D01*
X835513Y86599D01*
X835523Y86956D01*
X838522D01*
X838532Y86599D01*
D02*
G37*
G36*
X1204910Y265473D02*
X1205351Y265134D01*
X1207551Y264223D01*
X1209910Y263912D01*
X1212270Y264223D01*
X1214469Y265134D01*
X1214911Y265473D01*
X1219532D01*
X1228733Y256272D01*
X1228733Y35273D01*
X1212933Y19472D01*
X973733Y19473D01*
X959932Y33272D01*
X959932Y68956D01*
X961202Y69341D01*
X961489Y68913D01*
X963487Y67578D01*
X965844Y67109D01*
X966795Y67298D01*
X968213Y66332D01*
X968475Y65016D01*
X969809Y63018D01*
X971807Y61683D01*
X974164Y61214D01*
X976521Y61683D01*
X978519Y63018D01*
X979854Y65016D01*
X980322Y67372D01*
X979854Y69729D01*
X978519Y71727D01*
X976521Y73062D01*
X974164Y73531D01*
X973213Y73342D01*
X971795Y74308D01*
X971533Y75624D01*
X970198Y77622D01*
X968200Y78957D01*
X965844Y79426D01*
X963487Y78957D01*
X961489Y77622D01*
X961202Y77193D01*
X959932Y77579D01*
X959933Y251273D01*
X974133Y265473D01*
X1204910Y265473D01*
D02*
G37*
%LPC*%
G36*
X1084643Y261282D02*
X1082545Y261005D01*
X1080589Y260195D01*
X1078909Y258907D01*
X1077621Y257227D01*
X1076811Y255271D01*
X1076534Y253172D01*
X1076740Y251611D01*
X1075752Y250731D01*
X1075637Y250693D01*
X1074642Y251105D01*
X1072543Y251382D01*
X1070445Y251105D01*
X1068489Y250295D01*
X1066809Y249007D01*
X1065521Y247327D01*
X1064710Y245371D01*
X1064434Y243272D01*
X1064710Y241174D01*
X1065521Y239218D01*
X1066809Y237538D01*
X1068489Y236250D01*
X1070445Y235439D01*
X1072543Y235163D01*
X1074642Y235439D01*
X1076598Y236250D01*
X1078278Y237538D01*
X1079566Y239218D01*
X1080377Y241174D01*
X1080653Y243272D01*
X1080447Y244834D01*
X1081435Y245714D01*
X1081550Y245751D01*
X1082545Y245339D01*
X1084643Y245063D01*
X1086742Y245339D01*
X1088698Y246150D01*
X1090378Y247438D01*
X1091666Y249118D01*
X1092477Y251074D01*
X1092753Y253172D01*
X1092477Y255271D01*
X1091666Y257227D01*
X1090378Y258907D01*
X1088698Y260195D01*
X1086742Y261005D01*
X1084643Y261282D01*
D02*
G37*
G36*
X1019643D02*
X1017545Y261005D01*
X1015589Y260195D01*
X1013909Y258907D01*
X1012621Y257227D01*
X1011811Y255271D01*
X1011534Y253172D01*
X1011740Y251611D01*
X1010752Y250731D01*
X1010637Y250693D01*
X1009642Y251105D01*
X1007544Y251382D01*
X1005445Y251105D01*
X1003489Y250295D01*
X1001809Y249007D01*
X1000521Y247327D01*
X999710Y245371D01*
X999434Y243272D01*
X999710Y241174D01*
X1000521Y239218D01*
X1001809Y237538D01*
X1003489Y236250D01*
X1005445Y235439D01*
X1007544Y235163D01*
X1009642Y235439D01*
X1011598Y236250D01*
X1013278Y237538D01*
X1014566Y239218D01*
X1015377Y241174D01*
X1015653Y243272D01*
X1015447Y244834D01*
X1016435Y245714D01*
X1016550Y245751D01*
X1017545Y245339D01*
X1019643Y245063D01*
X1021742Y245339D01*
X1023698Y246150D01*
X1025378Y247438D01*
X1026666Y249118D01*
X1027477Y251074D01*
X1027753Y253172D01*
X1027477Y255271D01*
X1026666Y257227D01*
X1025378Y258907D01*
X1023698Y260195D01*
X1021742Y261005D01*
X1019643Y261282D01*
D02*
G37*
G36*
X1103043D02*
X1100945Y261005D01*
X1098989Y260195D01*
X1097309Y258907D01*
X1096021Y257227D01*
X1095210Y255271D01*
X1094934Y253172D01*
X1095210Y251074D01*
X1096021Y249118D01*
X1097309Y247438D01*
X1098989Y246150D01*
X1100945Y245339D01*
X1103043Y245063D01*
X1105142Y245339D01*
X1106137Y245751D01*
X1106252Y245714D01*
X1107240Y244834D01*
X1107034Y243272D01*
X1107310Y241174D01*
X1108120Y239218D01*
X1109409Y237538D01*
X1111089Y236250D01*
X1113045Y235439D01*
X1115143Y235163D01*
X1117242Y235439D01*
X1119198Y236250D01*
X1120878Y237538D01*
X1122166Y239218D01*
X1122976Y241174D01*
X1123253Y243272D01*
X1122976Y245371D01*
X1122166Y247327D01*
X1120878Y249007D01*
X1119198Y250295D01*
X1117242Y251105D01*
X1115143Y251382D01*
X1113045Y251105D01*
X1112050Y250693D01*
X1111935Y250731D01*
X1110947Y251611D01*
X1111153Y253172D01*
X1110876Y255271D01*
X1110066Y257227D01*
X1108778Y258907D01*
X1107098Y260195D01*
X1105142Y261005D01*
X1103043Y261282D01*
D02*
G37*
G36*
X1038043D02*
X1035945Y261005D01*
X1033989Y260195D01*
X1032309Y258907D01*
X1031021Y257227D01*
X1030210Y255271D01*
X1029934Y253172D01*
X1030210Y251074D01*
X1031021Y249118D01*
X1032309Y247438D01*
X1033989Y246150D01*
X1035945Y245339D01*
X1038043Y245063D01*
X1040142Y245339D01*
X1041137Y245751D01*
X1041252Y245714D01*
X1042240Y244834D01*
X1042034Y243272D01*
X1042310Y241174D01*
X1043120Y239218D01*
X1044409Y237538D01*
X1046089Y236250D01*
X1048045Y235439D01*
X1050143Y235163D01*
X1052242Y235439D01*
X1054198Y236250D01*
X1055878Y237538D01*
X1057166Y239218D01*
X1057976Y241174D01*
X1058253Y243272D01*
X1057976Y245371D01*
X1057166Y247327D01*
X1055878Y249007D01*
X1054198Y250295D01*
X1052242Y251105D01*
X1050143Y251382D01*
X1048045Y251105D01*
X1047050Y250693D01*
X1046935Y250731D01*
X1045947Y251611D01*
X1046153Y253172D01*
X1045876Y255271D01*
X1045066Y257227D01*
X1043778Y258907D01*
X1042098Y260195D01*
X1040142Y261005D01*
X1038043Y261282D01*
D02*
G37*
G36*
X1168243Y223790D02*
X1165883Y223480D01*
X1163684Y222569D01*
X1161796Y221120D01*
X1160347Y219231D01*
X1159436Y217032D01*
X1159125Y214673D01*
X1159436Y212313D01*
X1160347Y210114D01*
X1161796Y208225D01*
X1163684Y206776D01*
X1165883Y205865D01*
X1168243Y205555D01*
X1170603Y205865D01*
X1172802Y206776D01*
X1174691Y208225D01*
X1176140Y210114D01*
X1177051Y212313D01*
X1177361Y214673D01*
X1177051Y217032D01*
X1176140Y219231D01*
X1174691Y221120D01*
X1172802Y222569D01*
X1170603Y223480D01*
X1168243Y223790D01*
D02*
G37*
G36*
X1079343Y204101D02*
X1077377Y203710D01*
X1075710Y202596D01*
X1074596Y200929D01*
X1074491Y200401D01*
X1073196D01*
X1073091Y200929D01*
X1071977Y202596D01*
X1070310Y203710D01*
X1068344Y204101D01*
X1066377Y203710D01*
X1064710Y202596D01*
X1063596Y200929D01*
X1063205Y198963D01*
X1063596Y196996D01*
X1064710Y195329D01*
X1066377Y194215D01*
X1068344Y193824D01*
X1070310Y194215D01*
X1071977Y195329D01*
X1073091Y196996D01*
X1073196Y197524D01*
X1074491D01*
X1074596Y196996D01*
X1075710Y195329D01*
X1077377Y194215D01*
X1079343Y193824D01*
X1081310Y194215D01*
X1082977Y195329D01*
X1084091Y196996D01*
X1084482Y198963D01*
X1084091Y200929D01*
X1082977Y202596D01*
X1081310Y203710D01*
X1079343Y204101D01*
D02*
G37*
G36*
X1009343D02*
X1007377Y203710D01*
X1005710Y202596D01*
X1004596Y200929D01*
X1004491Y200401D01*
X1003196D01*
X1003091Y200929D01*
X1001977Y202596D01*
X1000310Y203710D01*
X998344Y204101D01*
X996377Y203710D01*
X994710Y202596D01*
X993596Y200929D01*
X993205Y198963D01*
X993596Y196996D01*
X994710Y195329D01*
X996377Y194215D01*
X998344Y193824D01*
X1000310Y194215D01*
X1001977Y195329D01*
X1003091Y196996D01*
X1003196Y197524D01*
X1004491D01*
X1004596Y196996D01*
X1005710Y195329D01*
X1007377Y194215D01*
X1009343Y193824D01*
X1011310Y194215D01*
X1012977Y195329D01*
X1014091Y196996D01*
X1014482Y198963D01*
X1014091Y200929D01*
X1012977Y202596D01*
X1011310Y203710D01*
X1009343Y204101D01*
D02*
G37*
G36*
X1145643Y196190D02*
X1143283Y195880D01*
X1141084Y194969D01*
X1139196Y193520D01*
X1137747Y191631D01*
X1136836Y189432D01*
X1136525Y187072D01*
X1136836Y184713D01*
X1137747Y182514D01*
X1139196Y180625D01*
X1141084Y179176D01*
X1143283Y178265D01*
X1145643Y177955D01*
X1148003Y178265D01*
X1150202Y179176D01*
X1152091Y180625D01*
X1153540Y182514D01*
X1154451Y184713D01*
X1154761Y187072D01*
X1154451Y189432D01*
X1153540Y191631D01*
X1152091Y193520D01*
X1150202Y194969D01*
X1148003Y195880D01*
X1145643Y196190D01*
D02*
G37*
G36*
X1188833Y192890D02*
X1186473Y192580D01*
X1184274Y191669D01*
X1182385Y190220D01*
X1180936Y188331D01*
X1180025Y186132D01*
X1179715Y183773D01*
X1180025Y181413D01*
X1180936Y179214D01*
X1182385Y177325D01*
X1184274Y175876D01*
X1186473Y174965D01*
X1187729Y174800D01*
X1188364Y173700D01*
X1188022Y172873D01*
X1187711Y170514D01*
X1188022Y168154D01*
X1188933Y165955D01*
X1190382Y164066D01*
X1192270Y162617D01*
X1194469Y161706D01*
X1196829Y161396D01*
X1199189Y161706D01*
X1201388Y162617D01*
X1203276Y164066D01*
X1204725Y165955D01*
X1205636Y168154D01*
X1205947Y170514D01*
X1205636Y172873D01*
X1204725Y175073D01*
X1203276Y176961D01*
X1201388Y178410D01*
X1199189Y179321D01*
X1197933Y179486D01*
X1197298Y180586D01*
X1197640Y181413D01*
X1197951Y183773D01*
X1197640Y186132D01*
X1196729Y188331D01*
X1195280Y190220D01*
X1193392Y191669D01*
X1191192Y192580D01*
X1188833Y192890D01*
D02*
G37*
G36*
X1036344Y169678D02*
X1034375Y169418D01*
X1032541Y168659D01*
X1030966Y167450D01*
X1029757Y165875D01*
X1028997Y164041D01*
X1028738Y162073D01*
X1028997Y160104D01*
X1029757Y158270D01*
X1030966Y156695D01*
X1032541Y155486D01*
X1034375Y154726D01*
X1036344Y154467D01*
X1038312Y154726D01*
X1040146Y155486D01*
X1041721Y156695D01*
X1042930Y158270D01*
X1043689Y160104D01*
X1043949Y162073D01*
X1043689Y164041D01*
X1042930Y165875D01*
X1041721Y167450D01*
X1040146Y168659D01*
X1038312Y169418D01*
X1036344Y169678D01*
D02*
G37*
G36*
X985253Y171011D02*
X983287Y170620D01*
X981620Y169506D01*
X980506Y167839D01*
X980115Y165872D01*
X980506Y163906D01*
X981620Y162239D01*
X983287Y161125D01*
X983814Y161020D01*
Y159725D01*
X983287Y159620D01*
X981620Y158506D01*
X980506Y156839D01*
X980115Y154873D01*
X980506Y152906D01*
X981620Y151239D01*
X983287Y150125D01*
X985253Y149734D01*
X987220Y150125D01*
X988887Y151239D01*
X990001Y152906D01*
X990392Y154873D01*
X990001Y156839D01*
X988887Y158506D01*
X987220Y159620D01*
X986692Y159725D01*
Y161020D01*
X987220Y161125D01*
X988887Y162239D01*
X990001Y163906D01*
X990392Y165872D01*
X990001Y167839D01*
X988887Y169506D01*
X987220Y170620D01*
X985253Y171011D01*
D02*
G37*
G36*
X1196033Y146791D02*
X1193673Y146480D01*
X1191474Y145569D01*
X1189585Y144120D01*
X1188136Y142232D01*
X1187225Y140032D01*
X1186915Y137673D01*
X1187225Y135313D01*
X1188136Y133113D01*
X1189585Y131225D01*
X1191474Y129776D01*
X1193673Y128865D01*
X1196033Y128554D01*
X1198392Y128865D01*
X1200592Y129776D01*
X1202480Y131225D01*
X1203929Y133113D01*
X1204840Y135313D01*
X1205151Y137673D01*
X1204840Y140032D01*
X1203929Y142232D01*
X1202480Y144120D01*
X1200592Y145569D01*
X1198392Y146480D01*
X1196033Y146791D01*
D02*
G37*
G36*
X983044Y138011D02*
X981077Y137620D01*
X979410Y136506D01*
X978296Y134839D01*
X977905Y132872D01*
X978296Y130906D01*
X979410Y129239D01*
X981077Y128125D01*
X983044Y127734D01*
X985010Y128125D01*
X986677Y129239D01*
X987791Y130906D01*
X988182Y132872D01*
X987791Y134839D01*
X986677Y136506D01*
X985010Y137620D01*
X983044Y138011D01*
D02*
G37*
G36*
X1097143Y140211D02*
X1095177Y139820D01*
X1093510Y138706D01*
X1092396Y137039D01*
X1092005Y135072D01*
X1092396Y133106D01*
X1093510Y131439D01*
X1094151Y131011D01*
Y129740D01*
X1093800Y129506D01*
X1092686Y127839D01*
X1092295Y125872D01*
X1092686Y123906D01*
X1093800Y122239D01*
X1095467Y121125D01*
X1095995Y121020D01*
Y119725D01*
X1095467Y119620D01*
X1093800Y118506D01*
X1092686Y116839D01*
X1092295Y114873D01*
X1092686Y112906D01*
X1093800Y111239D01*
X1095467Y110125D01*
X1097434Y109734D01*
X1099400Y110125D01*
X1101067Y111239D01*
X1102181Y112906D01*
X1102572Y114873D01*
X1102181Y116839D01*
X1101067Y118506D01*
X1099400Y119620D01*
X1098873Y119725D01*
Y121020D01*
X1099400Y121125D01*
X1101067Y122239D01*
X1102181Y123906D01*
X1102572Y125872D01*
X1102181Y127839D01*
X1101067Y129506D01*
X1100426Y129934D01*
Y131204D01*
X1100777Y131439D01*
X1101891Y133106D01*
X1102282Y135072D01*
X1101891Y137039D01*
X1100777Y138706D01*
X1099110Y139820D01*
X1097143Y140211D01*
D02*
G37*
G36*
X1212965Y119160D02*
X1210344Y118815D01*
X1207902Y117803D01*
X1205805Y116194D01*
X1204196Y114097D01*
X1203184Y111655D01*
X1202839Y109033D01*
X1203184Y106412D01*
X1204196Y103970D01*
X1205805Y101873D01*
X1207902Y100264D01*
X1210344Y99252D01*
X1212965Y98907D01*
X1215586Y99252D01*
X1218029Y100264D01*
X1220126Y101873D01*
X1221735Y103970D01*
X1222747Y106412D01*
X1223092Y109033D01*
X1222747Y111655D01*
X1221735Y114097D01*
X1220126Y116194D01*
X1218029Y117803D01*
X1215586Y118815D01*
X1212965Y119160D01*
D02*
G37*
G36*
X1079343Y91921D02*
X1077377Y91530D01*
X1075710Y90416D01*
X1074596Y88749D01*
X1074491Y88221D01*
X1073196D01*
X1073091Y88749D01*
X1071977Y90416D01*
X1070310Y91530D01*
X1068344Y91921D01*
X1066377Y91530D01*
X1064710Y90416D01*
X1063596Y88749D01*
X1063205Y86782D01*
X1063596Y84816D01*
X1064710Y83149D01*
X1066377Y82035D01*
X1068344Y81644D01*
X1070310Y82035D01*
X1071977Y83149D01*
X1073091Y84816D01*
X1073196Y85343D01*
X1074491D01*
X1074596Y84816D01*
X1075710Y83149D01*
X1077377Y82035D01*
X1079343Y81644D01*
X1081310Y82035D01*
X1082977Y83149D01*
X1084091Y84816D01*
X1084482Y86782D01*
X1084091Y88749D01*
X1082977Y90416D01*
X1081310Y91530D01*
X1079343Y91921D01*
D02*
G37*
G36*
X1004343D02*
X1002377Y91530D01*
X1000710Y90416D01*
X999596Y88749D01*
X999491Y88221D01*
X998196D01*
X998091Y88749D01*
X996977Y90416D01*
X995310Y91530D01*
X993344Y91921D01*
X991377Y91530D01*
X989710Y90416D01*
X988596Y88749D01*
X988205Y86782D01*
X988596Y84816D01*
X989710Y83149D01*
X991377Y82035D01*
X993344Y81644D01*
X995310Y82035D01*
X996977Y83149D01*
X998091Y84816D01*
X998196Y85343D01*
X999491D01*
X999596Y84816D01*
X1000710Y83149D01*
X1002377Y82035D01*
X1004343Y81644D01*
X1006310Y82035D01*
X1007977Y83149D01*
X1009091Y84816D01*
X1009482Y86782D01*
X1009091Y88749D01*
X1007977Y90416D01*
X1006310Y91530D01*
X1004343Y91921D01*
D02*
G37*
G36*
X1051344Y89011D02*
X1049377Y88620D01*
X1047710Y87506D01*
X1046596Y85839D01*
X1046205Y83872D01*
X1046596Y81906D01*
X1047710Y80239D01*
X1049377Y79125D01*
X1051344Y78734D01*
X1053310Y79125D01*
X1054977Y80239D01*
X1056091Y81906D01*
X1056482Y83872D01*
X1056091Y85839D01*
X1054977Y87506D01*
X1053310Y88620D01*
X1051344Y89011D01*
D02*
G37*
G36*
X1192569Y86897D02*
X1190602Y86506D01*
X1188935Y85392D01*
X1187821Y83725D01*
X1187430Y81759D01*
X1187821Y79792D01*
X1188456Y78842D01*
X1188838Y77880D01*
X1188456Y76918D01*
X1187821Y75968D01*
X1187430Y74001D01*
X1187821Y72035D01*
X1188456Y71085D01*
X1188838Y70122D01*
X1188456Y69160D01*
X1187821Y68210D01*
X1187430Y66244D01*
X1187821Y64277D01*
X1188935Y62610D01*
X1190602Y61496D01*
X1192569Y61105D01*
X1194535Y61496D01*
X1196203Y62610D01*
X1197317Y64277D01*
X1197708Y66244D01*
X1197317Y68210D01*
X1196682Y69160D01*
X1196300Y70122D01*
X1196682Y71085D01*
X1197317Y72035D01*
X1197708Y74001D01*
X1197317Y75968D01*
X1196682Y76918D01*
X1196300Y77880D01*
X1196682Y78842D01*
X1197317Y79792D01*
X1197708Y81759D01*
X1197317Y83725D01*
X1196203Y85392D01*
X1194535Y86506D01*
X1192569Y86897D01*
D02*
G37*
G36*
X1002456Y56638D02*
X1000100Y56170D01*
X998102Y54835D01*
X997396Y53779D01*
X995869D01*
X995698Y54035D01*
X993700Y55370D01*
X991344Y55838D01*
X988987Y55370D01*
X986989Y54035D01*
X986196Y52848D01*
X984669D01*
X984611Y52935D01*
X982613Y54270D01*
X980256Y54738D01*
X977900Y54270D01*
X975902Y52935D01*
X974567Y50937D01*
X974098Y48580D01*
X974567Y46224D01*
X975902Y44226D01*
X977900Y42891D01*
X980256Y42422D01*
X982613Y42891D01*
X984611Y44226D01*
X985404Y45412D01*
X986931D01*
X986989Y45326D01*
X988987Y43991D01*
X991344Y43522D01*
X993700Y43991D01*
X995698Y45326D01*
X996404Y46381D01*
X997931D01*
X998102Y46126D01*
X1000100Y44791D01*
X1002456Y44322D01*
X1002714Y44373D01*
X1003653Y43265D01*
X1003298Y41480D01*
X1003767Y39123D01*
X1005102Y37126D01*
X1007100Y35791D01*
X1009456Y35322D01*
X1011813Y35791D01*
X1013811Y37126D01*
X1015146Y39123D01*
X1015615Y41480D01*
X1015146Y43837D01*
X1013811Y45835D01*
X1011813Y47170D01*
X1009456Y47639D01*
X1009199Y47587D01*
X1008260Y48695D01*
X1008615Y50480D01*
X1008146Y52837D01*
X1006811Y54835D01*
X1004813Y56170D01*
X1002456Y56638D01*
D02*
G37*
G36*
X1213272Y47849D02*
X1211304Y47590D01*
X1209470Y46830D01*
X1207895Y45621D01*
X1206686Y44046D01*
X1205926Y42212D01*
X1205667Y40244D01*
X1205926Y38275D01*
X1206686Y36441D01*
X1207895Y34866D01*
X1209470Y33658D01*
X1211304Y32898D01*
X1213272Y32639D01*
X1215241Y32898D01*
X1217075Y33658D01*
X1218650Y34866D01*
X1219858Y36441D01*
X1220618Y38275D01*
X1220877Y40244D01*
X1220618Y42212D01*
X1219858Y44046D01*
X1218650Y45621D01*
X1217075Y46830D01*
X1215241Y47590D01*
X1213272Y47849D01*
D02*
G37*
%LPD*%
D34*
X656865Y937212D02*
X663665Y930411D01*
X650965Y937212D02*
X656865D01*
X615065Y889212D02*
X650965Y925111D01*
X651865Y102110D02*
X655866Y106111D01*
X655665Y91111D02*
X661665Y97111D01*
X639165Y91111D02*
X655665D01*
X639165Y32611D02*
Y91111D01*
X655866Y106111D02*
X664665D01*
X650665Y44111D02*
X670665Y64111D01*
Y100111D01*
X664665Y106111D02*
X670665Y100111D01*
X615065Y115211D02*
X639165Y91111D01*
X615065Y115211D02*
Y889212D01*
X663665Y107111D02*
X664665Y106111D01*
X663665Y107111D02*
Y930411D01*
D35*
X852540Y115611D02*
X908005D01*
X837022Y100094D02*
X852540Y115611D01*
X837022Y81694D02*
Y100094D01*
X912365Y971911D02*
Y978851D01*
X908005Y983211D02*
X912365Y978851D01*
X870940Y983211D02*
X908005D01*
X837022Y949294D02*
X870940Y983211D01*
X912365Y870811D02*
Y877751D01*
X908005Y882111D02*
X912365Y877751D01*
X870940Y882111D02*
X908005D01*
X837022Y848194D02*
X870940Y882111D01*
X912365Y769711D02*
Y776651D01*
X908005Y781011D02*
X912365Y776651D01*
X870940Y781011D02*
X908005D01*
X837022Y747094D02*
X870940Y781011D01*
X912365Y668611D02*
Y675551D01*
X908005Y679911D02*
X912365Y675551D01*
X870940Y679911D02*
X908005D01*
X837022Y645994D02*
X870940Y679911D01*
X837022Y384994D02*
X870940Y418911D01*
X908005D01*
X912365Y414551D01*
Y407611D02*
Y414551D01*
X837022Y283894D02*
X870940Y317811D01*
X908005D01*
X912365Y313451D01*
Y306511D02*
Y313451D01*
X837022Y182796D02*
X870940Y216714D01*
X908005D01*
X912365Y212353D01*
Y205414D02*
Y212353D01*
Y104311D02*
Y111251D01*
X908005Y115611D02*
X912365Y111251D01*
D46*
X1296810Y298320D02*
D03*
D47*
X912365Y668611D02*
D03*
Y769711D02*
D03*
Y870811D02*
D03*
Y971911D02*
D03*
Y104311D02*
D03*
Y205414D02*
D03*
Y306511D02*
D03*
Y407611D02*
D03*
D51*
X307366Y176110D02*
D03*
Y213911D02*
D03*
X-78927Y630220D02*
D03*
X-69227Y348120D02*
D03*
X1209910Y273030D02*
D03*
X946533Y122672D02*
D03*
Y143973D02*
D03*
X94456Y165480D02*
D03*
Y178180D02*
D03*
X81756D02*
D03*
X69056D02*
D03*
X56356D02*
D03*
X43656D02*
D03*
X30956D02*
D03*
X18256D02*
D03*
Y165480D02*
D03*
X30956D02*
D03*
X43656D02*
D03*
X56356D02*
D03*
X69056D02*
D03*
X81756D02*
D03*
D52*
X650965Y925111D02*
D03*
Y937212D02*
D03*
X837022Y182794D02*
D03*
X933623Y156344D02*
D03*
X837022Y949294D02*
D03*
X933623Y922844D02*
D03*
X837022Y747094D02*
D03*
X933623Y720644D02*
D03*
X837022Y384994D02*
D03*
X933623Y358544D02*
D03*
X837022Y848194D02*
D03*
X933623Y821744D02*
D03*
X837022Y645994D02*
D03*
X933623Y619544D02*
D03*
X837022Y81694D02*
D03*
X933623Y55244D02*
D03*
X837022Y283894D02*
D03*
X596466Y92111D02*
D03*
X933623Y257444D02*
D03*
X661665Y97111D02*
D03*
X651865Y102110D02*
D03*
X639165Y32611D02*
D03*
X650665Y44111D02*
D03*
D53*
X114273Y930501D02*
D03*
X599565Y928111D02*
D03*
D54*
X1038143Y83973D02*
D03*
X1097843Y147172D02*
D03*
X983044Y142872D02*
D03*
X1036344Y199673D02*
D03*
D56*
X1155266Y38526D02*
D03*
X1172093D02*
D03*
M02*
