G04*
G04 #@! TF.GenerationSoftware,Altium Limited,Altium Designer,20.1.11 (218)*
G04*
G04 Layer_Color=32768*
%FSLAX44Y44*%
%MOMM*%
G71*
G04*
G04 #@! TF.SameCoordinates,E25B43FC-70F8-4359-BC63-D8F09BEAA3E7*
G04*
G04*
G04 #@! TF.FilePolarity,Positive*
G04*
G01*
G75*
%ADD11C,0.1270*%
D11*
X797453Y168006D02*
X813709D01*
X797453D02*
Y200772D01*
X813709D01*
Y168006D02*
Y200772D01*
X754591Y118618D02*
Y134874D01*
X787357D01*
Y118618D02*
Y134874D01*
X754591Y118618D02*
X787357D01*
X650382Y250910D02*
X666638D01*
X650382D02*
Y283676D01*
X666638D01*
Y250910D02*
Y283676D01*
X607520Y201522D02*
Y217778D01*
X640286D01*
Y201522D02*
Y217778D01*
X607520Y201522D02*
X640286D01*
X797702Y314410D02*
X813958D01*
X797702D02*
Y347176D01*
X813958D01*
Y314410D02*
Y347176D01*
X754840Y265022D02*
Y281278D01*
X787606D01*
Y265022D02*
Y281278D01*
X754840Y265022D02*
X787606D01*
X650382Y386800D02*
X666638D01*
X650382D02*
Y419566D01*
X666638D01*
Y386800D02*
Y419566D01*
X607520Y337412D02*
Y353668D01*
X640286D01*
Y337412D02*
Y353668D01*
X607520Y337412D02*
X640286D01*
X658002Y659850D02*
X674258D01*
X658002D02*
Y692616D01*
X674258D01*
Y659850D02*
Y692616D01*
X615140Y610462D02*
Y626718D01*
X647906D01*
Y610462D02*
Y626718D01*
X615140Y610462D02*
X647906D01*
X655462Y816060D02*
X671718D01*
X655462D02*
Y848826D01*
X671718D01*
Y816060D02*
Y848826D01*
X612600Y766672D02*
Y782928D01*
X645366D01*
Y766672D02*
Y782928D01*
X612600Y766672D02*
X645366D01*
X797453Y745856D02*
X813709D01*
X797453D02*
Y778622D01*
X813709D01*
Y745856D02*
Y778622D01*
X754591Y696468D02*
Y712724D01*
X787357D01*
Y696468D02*
Y712724D01*
X754591Y696468D02*
X787357D01*
X754591Y845058D02*
Y861314D01*
X787357D01*
Y845058D02*
Y861314D01*
X754591Y845058D02*
X787357D01*
X797453Y894446D02*
X813709D01*
X797453D02*
Y927212D01*
X813709D01*
Y894446D02*
Y927212D01*
X1005698Y217234D02*
Y250000D01*
X989442Y217234D02*
X1005698D01*
X989442D02*
Y250000D01*
X1005698D01*
Y359474D02*
Y392240D01*
X989442Y359474D02*
X1005698D01*
X989442D02*
Y392240D01*
X1005698D01*
X1015575Y649675D02*
Y682441D01*
X999319Y649675D02*
X1015575D01*
X999319D02*
Y682441D01*
X1015575D01*
Y791915D02*
Y824681D01*
X999319Y791915D02*
X1015575D01*
X999319D02*
Y824681D01*
X1015575D01*
M02*
