G04*
G04 #@! TF.GenerationSoftware,Altium Limited,Altium Designer,20.1.11 (218)*
G04*
G04 Layer_Color=128*
%FSLAX44Y44*%
%MOMM*%
G71*
G04*
G04 #@! TF.SameCoordinates,CA948749-C0CA-4A07-9612-D5345AABE6DD*
G04*
G04*
G04 #@! TF.FilePolarity,Positive*
G04*
G01*
G75*
%ADD25R,2.8000X0.5500*%
%ADD29R,0.7000X1.2000*%
%ADD30R,1.2000X0.8000*%
%ADD32R,0.8000X1.2000*%
%ADD37R,1.2000X0.7000*%
%ADD46R,0.7000X0.5000*%
%ADD47R,0.7000X0.6400*%
%ADD120R,0.8500X0.3500*%
%ADD122R,0.3000X1.6000*%
%ADD123R,1.6000X0.3000*%
%ADD124R,0.6400X0.7000*%
%ADD125R,0.5000X0.7000*%
%ADD126R,1.6500X0.3000*%
%ADD127R,0.7000X0.4000*%
%ADD138O,1.3984X0.2984*%
D25*
X-124528Y672420D02*
D03*
Y664420D02*
D03*
Y656420D02*
D03*
Y648420D02*
D03*
Y640420D02*
D03*
Y632420D02*
D03*
Y624420D02*
D03*
Y616420D02*
D03*
Y608420D02*
D03*
Y600420D02*
D03*
Y592420D02*
D03*
Y584420D02*
D03*
Y576420D02*
D03*
Y568420D02*
D03*
Y560420D02*
D03*
Y552420D02*
D03*
Y544420D02*
D03*
Y536420D02*
D03*
Y528420D02*
D03*
Y520420D02*
D03*
Y512420D02*
D03*
Y504420D02*
D03*
Y464420D02*
D03*
Y456420D02*
D03*
Y448420D02*
D03*
Y440420D02*
D03*
Y432420D02*
D03*
Y424420D02*
D03*
Y416420D02*
D03*
Y408420D02*
D03*
Y400420D02*
D03*
Y392420D02*
D03*
Y384420D02*
D03*
Y376420D02*
D03*
Y368420D02*
D03*
Y360420D02*
D03*
Y352420D02*
D03*
Y344420D02*
D03*
Y336420D02*
D03*
Y328420D02*
D03*
D29*
X424940Y341630D02*
D03*
X408940D02*
D03*
X302770D02*
D03*
X318770D02*
D03*
X424940Y391160D02*
D03*
X408940D02*
D03*
X302260Y389890D02*
D03*
X318260D02*
D03*
D30*
X673100Y168880D02*
D03*
Y182880D02*
D03*
X529590Y675640D02*
D03*
Y661640D02*
D03*
X701040Y715040D02*
D03*
Y701040D02*
D03*
X661670Y915700D02*
D03*
Y901700D02*
D03*
X523760Y258330D02*
D03*
Y244330D02*
D03*
X-58420Y425450D02*
D03*
Y439450D02*
D03*
X317500Y358140D02*
D03*
Y372140D02*
D03*
D32*
X704850Y280670D02*
D03*
X690850D02*
D03*
X552480Y349980D02*
D03*
X538480D02*
D03*
X567690Y782320D02*
D03*
X553690D02*
D03*
X-7620Y425450D02*
D03*
X6380D02*
D03*
X444500Y312420D02*
D03*
X458500D02*
D03*
X813231Y156576D02*
D03*
X799231D02*
D03*
X739571Y237856D02*
D03*
X725571D02*
D03*
X666160Y239480D02*
D03*
X652160D02*
D03*
X592500Y320760D02*
D03*
X578500D02*
D03*
X813480Y302980D02*
D03*
X799480D02*
D03*
X739820Y384260D02*
D03*
X725820D02*
D03*
X666160Y375370D02*
D03*
X652160D02*
D03*
X592500Y456650D02*
D03*
X578500D02*
D03*
X673780Y648420D02*
D03*
X659780D02*
D03*
X600120Y729700D02*
D03*
X586120D02*
D03*
X671240Y804630D02*
D03*
X657240D02*
D03*
X597580Y885910D02*
D03*
X583580D02*
D03*
X813231Y734426D02*
D03*
X799231D02*
D03*
X739571Y815706D02*
D03*
X725571D02*
D03*
X813231Y882975D02*
D03*
X799231D02*
D03*
X739571Y964296D02*
D03*
X725571D02*
D03*
X691281Y957946D02*
D03*
X705281D02*
D03*
X549290Y879560D02*
D03*
X563290D02*
D03*
X691281Y231506D02*
D03*
X705281D02*
D03*
X691281Y809356D02*
D03*
X705281D02*
D03*
X551830Y723350D02*
D03*
X565830D02*
D03*
X544210Y450300D02*
D03*
X558210D02*
D03*
X691530Y377910D02*
D03*
X705530D02*
D03*
X544210Y314410D02*
D03*
X558210D02*
D03*
D37*
X477520Y198630D02*
D03*
Y214630D02*
D03*
X427990Y325880D02*
D03*
Y309880D02*
D03*
X430530Y198630D02*
D03*
Y214630D02*
D03*
X476250Y325880D02*
D03*
Y309880D02*
D03*
D46*
X812581Y188516D02*
D03*
Y180516D02*
D03*
X798581Y188516D02*
D03*
Y180516D02*
D03*
X665510Y271420D02*
D03*
Y263420D02*
D03*
X651510Y271420D02*
D03*
Y263420D02*
D03*
X812830Y334920D02*
D03*
Y326920D02*
D03*
X798830Y334920D02*
D03*
Y326920D02*
D03*
X665510Y407310D02*
D03*
Y399310D02*
D03*
X651510Y407310D02*
D03*
Y399310D02*
D03*
X673130Y680360D02*
D03*
Y672360D02*
D03*
X659130Y680360D02*
D03*
Y672360D02*
D03*
X670590Y836570D02*
D03*
Y828570D02*
D03*
X656590Y836570D02*
D03*
Y828570D02*
D03*
X812581Y766366D02*
D03*
Y758366D02*
D03*
X798581Y766366D02*
D03*
Y758366D02*
D03*
X812581Y914956D02*
D03*
Y906956D02*
D03*
X798581Y914956D02*
D03*
Y906956D02*
D03*
D47*
X812581Y197766D02*
D03*
Y171266D02*
D03*
X798581Y197766D02*
D03*
Y171266D02*
D03*
X665510Y280670D02*
D03*
Y254170D02*
D03*
X651510Y280670D02*
D03*
Y254170D02*
D03*
X812830Y344170D02*
D03*
Y317670D02*
D03*
X798830Y344170D02*
D03*
Y317670D02*
D03*
X665510Y416560D02*
D03*
Y390060D02*
D03*
X651510Y416560D02*
D03*
Y390060D02*
D03*
X673130Y689610D02*
D03*
Y663110D02*
D03*
X659130Y689610D02*
D03*
Y663110D02*
D03*
X670590Y845820D02*
D03*
Y819320D02*
D03*
X656590Y845820D02*
D03*
Y819320D02*
D03*
X812581Y775616D02*
D03*
Y749116D02*
D03*
X798581Y775616D02*
D03*
Y749116D02*
D03*
X812581Y924206D02*
D03*
Y897706D02*
D03*
X798581Y924206D02*
D03*
Y897706D02*
D03*
D120*
X-42850Y426570D02*
D03*
Y433070D02*
D03*
X-20650Y426570D02*
D03*
Y439570D02*
D03*
X-42850D02*
D03*
D122*
X481272Y234645D02*
D03*
X474772D02*
D03*
X468272D02*
D03*
X461772D02*
D03*
X455272D02*
D03*
X448772D02*
D03*
X442272D02*
D03*
X435772D02*
D03*
X429272D02*
D03*
X422772D02*
D03*
X481272Y291645D02*
D03*
X474772D02*
D03*
X468272D02*
D03*
X461772D02*
D03*
X455272D02*
D03*
X448772D02*
D03*
X442272D02*
D03*
X435772D02*
D03*
X429272D02*
D03*
X422772D02*
D03*
D123*
X335190Y337310D02*
D03*
Y343810D02*
D03*
Y350310D02*
D03*
Y356810D02*
D03*
Y363310D02*
D03*
Y369810D02*
D03*
Y376310D02*
D03*
Y382810D02*
D03*
Y389310D02*
D03*
Y395810D02*
D03*
X392190Y337310D02*
D03*
Y343810D02*
D03*
Y350310D02*
D03*
Y356810D02*
D03*
Y363310D02*
D03*
Y369810D02*
D03*
Y376310D02*
D03*
Y382810D02*
D03*
Y389310D02*
D03*
Y395810D02*
D03*
D124*
X784351Y119746D02*
D03*
X757851D02*
D03*
X784351Y133746D02*
D03*
X757851D02*
D03*
X637280Y202650D02*
D03*
X610780D02*
D03*
X637280Y216650D02*
D03*
X610780D02*
D03*
X784600Y266150D02*
D03*
X758100D02*
D03*
X784600Y280150D02*
D03*
X758100D02*
D03*
X637280Y338540D02*
D03*
X610780D02*
D03*
X637280Y352540D02*
D03*
X610780D02*
D03*
X644900Y611590D02*
D03*
X618400D02*
D03*
X644900Y625590D02*
D03*
X618400D02*
D03*
X642360Y767800D02*
D03*
X615860D02*
D03*
X642360Y781800D02*
D03*
X615860D02*
D03*
X784351Y697596D02*
D03*
X757851D02*
D03*
X784351Y711596D02*
D03*
X757851D02*
D03*
X784351Y846186D02*
D03*
X757851D02*
D03*
X784351Y860186D02*
D03*
X757851D02*
D03*
D125*
X775101Y119746D02*
D03*
X767101D02*
D03*
X775101Y133746D02*
D03*
X767101D02*
D03*
X628030Y202650D02*
D03*
X620030D02*
D03*
X628030Y216650D02*
D03*
X620030D02*
D03*
X775350Y266150D02*
D03*
X767350D02*
D03*
X775350Y280150D02*
D03*
X767350D02*
D03*
X628030Y338540D02*
D03*
X620030D02*
D03*
X628030Y352540D02*
D03*
X620030D02*
D03*
X635650Y611590D02*
D03*
X627650D02*
D03*
X635650Y625590D02*
D03*
X627650D02*
D03*
X633110Y767800D02*
D03*
X625110D02*
D03*
X633110Y781800D02*
D03*
X625110D02*
D03*
X775101Y697596D02*
D03*
X767101D02*
D03*
X775101Y711596D02*
D03*
X767101D02*
D03*
X775101Y846186D02*
D03*
X767101D02*
D03*
X775101Y860186D02*
D03*
X767101D02*
D03*
D126*
X781050Y913130D02*
D03*
Y906630D02*
D03*
Y900130D02*
D03*
Y893630D02*
D03*
Y887130D02*
D03*
Y880630D02*
D03*
Y874130D02*
D03*
X725550Y913130D02*
D03*
Y906630D02*
D03*
Y900130D02*
D03*
Y893630D02*
D03*
Y887130D02*
D03*
Y880630D02*
D03*
Y874130D02*
D03*
X639059Y834744D02*
D03*
Y828244D02*
D03*
Y821744D02*
D03*
Y815244D02*
D03*
Y808744D02*
D03*
Y802244D02*
D03*
Y795744D02*
D03*
X583559Y834744D02*
D03*
Y828244D02*
D03*
Y821744D02*
D03*
Y815244D02*
D03*
Y808744D02*
D03*
Y802244D02*
D03*
Y795744D02*
D03*
X781050Y186690D02*
D03*
Y180190D02*
D03*
Y173690D02*
D03*
Y167190D02*
D03*
Y160690D02*
D03*
Y154190D02*
D03*
Y147690D02*
D03*
X725550Y186690D02*
D03*
Y180190D02*
D03*
Y173690D02*
D03*
Y167190D02*
D03*
Y160690D02*
D03*
Y154190D02*
D03*
Y147690D02*
D03*
X781050Y764540D02*
D03*
Y758040D02*
D03*
Y751540D02*
D03*
Y745040D02*
D03*
Y738540D02*
D03*
Y732040D02*
D03*
Y725540D02*
D03*
X725550Y764540D02*
D03*
Y758040D02*
D03*
Y751540D02*
D03*
Y745040D02*
D03*
Y738540D02*
D03*
Y732040D02*
D03*
Y725540D02*
D03*
X641599Y678534D02*
D03*
Y672034D02*
D03*
Y665534D02*
D03*
Y659034D02*
D03*
Y652534D02*
D03*
Y646034D02*
D03*
Y639534D02*
D03*
X586099Y678534D02*
D03*
Y672034D02*
D03*
Y665534D02*
D03*
Y659034D02*
D03*
Y652534D02*
D03*
Y646034D02*
D03*
Y639534D02*
D03*
X633979Y405484D02*
D03*
Y398984D02*
D03*
Y392484D02*
D03*
Y385984D02*
D03*
Y379484D02*
D03*
Y372984D02*
D03*
Y366484D02*
D03*
X578479Y405484D02*
D03*
Y398984D02*
D03*
Y392484D02*
D03*
Y385984D02*
D03*
Y379484D02*
D03*
Y372984D02*
D03*
Y366484D02*
D03*
X781299Y333094D02*
D03*
Y326594D02*
D03*
Y320094D02*
D03*
Y313594D02*
D03*
Y307094D02*
D03*
Y300594D02*
D03*
Y294094D02*
D03*
X725799Y333094D02*
D03*
Y326594D02*
D03*
Y320094D02*
D03*
Y313594D02*
D03*
Y307094D02*
D03*
Y300594D02*
D03*
Y294094D02*
D03*
X633979Y269594D02*
D03*
Y263094D02*
D03*
Y256594D02*
D03*
Y250094D02*
D03*
Y243594D02*
D03*
Y237094D02*
D03*
Y230594D02*
D03*
X578479Y269594D02*
D03*
Y263094D02*
D03*
Y256594D02*
D03*
Y250094D02*
D03*
Y243594D02*
D03*
Y237094D02*
D03*
Y230594D02*
D03*
D127*
X689921Y941586D02*
D03*
Y928586D02*
D03*
X710421D02*
D03*
Y935086D02*
D03*
Y941586D02*
D03*
X547930Y863200D02*
D03*
Y850200D02*
D03*
X568430D02*
D03*
Y856700D02*
D03*
Y863200D02*
D03*
X689921Y215146D02*
D03*
Y202146D02*
D03*
X710421D02*
D03*
Y208646D02*
D03*
Y215146D02*
D03*
X689921Y792996D02*
D03*
Y779996D02*
D03*
X710421D02*
D03*
Y786496D02*
D03*
Y792996D02*
D03*
X550470Y706990D02*
D03*
Y693990D02*
D03*
X570970D02*
D03*
Y700490D02*
D03*
Y706990D02*
D03*
X542850Y433940D02*
D03*
Y420940D02*
D03*
X563350D02*
D03*
Y427440D02*
D03*
Y433940D02*
D03*
X690170Y361550D02*
D03*
Y348550D02*
D03*
X710670D02*
D03*
Y355050D02*
D03*
Y361550D02*
D03*
X542850Y298050D02*
D03*
Y285050D02*
D03*
X563350D02*
D03*
Y291550D02*
D03*
Y298050D02*
D03*
D138*
X728031Y780106D02*
D03*
Y786606D02*
D03*
Y793106D02*
D03*
Y799606D02*
D03*
X768931Y780106D02*
D03*
Y786606D02*
D03*
Y793106D02*
D03*
Y799606D02*
D03*
Y948196D02*
D03*
Y941696D02*
D03*
Y935196D02*
D03*
Y928696D02*
D03*
X728031Y948196D02*
D03*
Y941696D02*
D03*
Y935196D02*
D03*
Y928696D02*
D03*
X586040Y850311D02*
D03*
Y856811D02*
D03*
Y863310D02*
D03*
Y869810D02*
D03*
X626940Y850311D02*
D03*
Y856811D02*
D03*
Y863310D02*
D03*
Y869810D02*
D03*
X629481Y713600D02*
D03*
Y707101D02*
D03*
Y700601D02*
D03*
Y694100D02*
D03*
X588581Y713600D02*
D03*
Y707101D02*
D03*
Y700601D02*
D03*
Y694100D02*
D03*
X580961Y421050D02*
D03*
Y427551D02*
D03*
Y434050D02*
D03*
Y440550D02*
D03*
X621861Y421050D02*
D03*
Y427551D02*
D03*
Y434050D02*
D03*
Y440550D02*
D03*
X769181Y368161D02*
D03*
Y361660D02*
D03*
Y355160D02*
D03*
Y348661D02*
D03*
X728280Y368161D02*
D03*
Y361660D02*
D03*
Y355160D02*
D03*
Y348661D02*
D03*
X580961Y285161D02*
D03*
Y291660D02*
D03*
Y298160D02*
D03*
Y304660D02*
D03*
X621861Y285161D02*
D03*
Y291660D02*
D03*
Y298160D02*
D03*
Y304660D02*
D03*
X768931Y221756D02*
D03*
Y215256D02*
D03*
Y208756D02*
D03*
Y202256D02*
D03*
X728031Y221756D02*
D03*
Y215256D02*
D03*
Y208756D02*
D03*
Y202256D02*
D03*
M02*
