G04 Layer_Color=128*
%FSLAX44Y44*%
%MOMM*%
G71*
G01*
G75*
%ADD10R,0.7000X1.2000*%
%ADD17R,1.2000X0.8000*%
%ADD18R,0.8000X1.2000*%
%ADD29R,2.8000X0.5500*%
%ADD58R,1.5500X1.3500*%
%ADD59R,1.0000X1.6000*%
%ADD60R,2.3000X2.2000*%
%ADD61R,1.6500X0.3000*%
%ADD62R,0.7000X0.4000*%
%ADD112O,0.2984X1.3984*%
D10*
X108492Y542339D02*
D03*
X92492D02*
D03*
X641165Y943612D02*
D03*
X625165D02*
D03*
X641165Y920111D02*
D03*
X625165D02*
D03*
X700623Y608394D02*
D03*
X716622D02*
D03*
X729623D02*
D03*
X745623D02*
D03*
X700623Y633944D02*
D03*
X716622D02*
D03*
X745622D02*
D03*
X729622D02*
D03*
X813623Y661944D02*
D03*
X797623D02*
D03*
X783223D02*
D03*
X767223D02*
D03*
X745622Y651144D02*
D03*
X729622D02*
D03*
X700623Y709494D02*
D03*
X716622D02*
D03*
X729623D02*
D03*
X745623D02*
D03*
X700623Y735044D02*
D03*
X716622D02*
D03*
X745622D02*
D03*
X729622D02*
D03*
X813623Y763044D02*
D03*
X797623D02*
D03*
X783223D02*
D03*
X767223D02*
D03*
X745622Y752244D02*
D03*
X729622D02*
D03*
X700623Y347394D02*
D03*
X716622D02*
D03*
X729623D02*
D03*
X745623D02*
D03*
X700623Y372944D02*
D03*
X716622D02*
D03*
X745622D02*
D03*
X729622D02*
D03*
X813623Y400944D02*
D03*
X797623D02*
D03*
X783223D02*
D03*
X767223D02*
D03*
X745622Y390144D02*
D03*
X729622D02*
D03*
X700623Y810594D02*
D03*
X716622D02*
D03*
X729623D02*
D03*
X745623D02*
D03*
X700623Y836144D02*
D03*
X716622D02*
D03*
X745622D02*
D03*
X729622D02*
D03*
X813623Y864144D02*
D03*
X797623D02*
D03*
X783223D02*
D03*
X767223D02*
D03*
X745622Y853344D02*
D03*
X729622D02*
D03*
X700623Y911694D02*
D03*
X716622D02*
D03*
X729623D02*
D03*
X745623D02*
D03*
X700623Y937244D02*
D03*
X716622D02*
D03*
X745622D02*
D03*
X729622D02*
D03*
X813623Y965244D02*
D03*
X797623D02*
D03*
X783223D02*
D03*
X767223D02*
D03*
X745622Y954444D02*
D03*
X729622D02*
D03*
X700623Y44094D02*
D03*
X716622D02*
D03*
X729623D02*
D03*
X745623D02*
D03*
X700623Y69644D02*
D03*
X716622D02*
D03*
X745622D02*
D03*
X729622D02*
D03*
X813623Y97644D02*
D03*
X797623D02*
D03*
X783223D02*
D03*
X767223D02*
D03*
X745622Y86844D02*
D03*
X729622D02*
D03*
X700623Y145194D02*
D03*
X716622D02*
D03*
X729623D02*
D03*
X745623D02*
D03*
X700623Y170744D02*
D03*
X716622D02*
D03*
X745622D02*
D03*
X729622D02*
D03*
X813623Y198744D02*
D03*
X797623D02*
D03*
X783223D02*
D03*
X767223D02*
D03*
X745622Y187944D02*
D03*
X729622D02*
D03*
X700623Y246294D02*
D03*
X716622D02*
D03*
X729623D02*
D03*
X745623D02*
D03*
X700623Y271844D02*
D03*
X716622D02*
D03*
X745622D02*
D03*
X729622D02*
D03*
X813623Y299844D02*
D03*
X797623D02*
D03*
X783223D02*
D03*
X767223D02*
D03*
X745622Y289044D02*
D03*
X729622D02*
D03*
D17*
X998543Y140273D02*
D03*
Y126272D02*
D03*
X1036343Y188472D02*
D03*
Y174473D02*
D03*
X1084743Y155273D02*
D03*
Y141272D02*
D03*
X998143Y167572D02*
D03*
Y153573D02*
D03*
X1084743Y124373D02*
D03*
Y110373D02*
D03*
X1066544Y97072D02*
D03*
Y111073D02*
D03*
D18*
X1037344Y97172D02*
D03*
X1051344D02*
D03*
X1011543Y185963D02*
D03*
X997543D02*
D03*
X1080844D02*
D03*
X1066843D02*
D03*
X1005944Y99172D02*
D03*
X991944D02*
D03*
X215891Y656739D02*
D03*
X229891D02*
D03*
X173491Y659739D02*
D03*
X187491D02*
D03*
X118391Y506339D02*
D03*
X104391D02*
D03*
Y566838D02*
D03*
X118391D02*
D03*
X173491Y438939D02*
D03*
X187491D02*
D03*
X215891Y441939D02*
D03*
X229891D02*
D03*
X334891Y571738D02*
D03*
X320891D02*
D03*
X334891Y544339D02*
D03*
X320891D02*
D03*
X334891Y507639D02*
D03*
X320891D02*
D03*
X450541Y327839D02*
D03*
X464542D02*
D03*
X450541Y412739D02*
D03*
X464542D02*
D03*
X464642Y352939D02*
D03*
X450642D02*
D03*
X323092Y374639D02*
D03*
X309091D02*
D03*
X323092Y348139D02*
D03*
X309091D02*
D03*
X323092Y323439D02*
D03*
X309091D02*
D03*
X464641Y377939D02*
D03*
X450642D02*
D03*
X323792Y774955D02*
D03*
X309792D02*
D03*
X323792Y748455D02*
D03*
X309792D02*
D03*
X323792Y723755D02*
D03*
X309792D02*
D03*
X464542Y752839D02*
D03*
X450541D02*
D03*
X464541Y777839D02*
D03*
X450541D02*
D03*
X925523Y601844D02*
D03*
X911523D02*
D03*
X925523Y702944D02*
D03*
X911523D02*
D03*
X925523Y340844D02*
D03*
X911523D02*
D03*
X925523Y804044D02*
D03*
X911523D02*
D03*
X925523Y905144D02*
D03*
X911523D02*
D03*
X925523Y37544D02*
D03*
X911523D02*
D03*
X925523Y138644D02*
D03*
X911523D02*
D03*
X925523Y239744D02*
D03*
X911523D02*
D03*
X450541Y727839D02*
D03*
X464541D02*
D03*
X450541Y812739D02*
D03*
X464541D02*
D03*
D29*
X-124528Y328420D02*
D03*
Y336420D02*
D03*
Y344420D02*
D03*
Y352420D02*
D03*
Y360420D02*
D03*
Y368420D02*
D03*
Y376420D02*
D03*
Y384420D02*
D03*
Y392420D02*
D03*
Y400420D02*
D03*
Y408420D02*
D03*
Y416420D02*
D03*
Y424420D02*
D03*
Y432420D02*
D03*
Y440420D02*
D03*
Y448420D02*
D03*
Y456420D02*
D03*
Y464420D02*
D03*
Y504420D02*
D03*
Y512420D02*
D03*
Y520420D02*
D03*
Y528420D02*
D03*
Y536420D02*
D03*
Y544420D02*
D03*
Y552420D02*
D03*
Y560420D02*
D03*
Y568420D02*
D03*
Y576420D02*
D03*
Y584420D02*
D03*
Y592420D02*
D03*
Y600420D02*
D03*
Y608420D02*
D03*
Y616420D02*
D03*
Y624420D02*
D03*
Y632420D02*
D03*
Y640420D02*
D03*
Y648420D02*
D03*
Y656420D02*
D03*
Y664420D02*
D03*
Y672420D02*
D03*
D58*
X-3000Y673000D02*
D03*
Y651000D02*
D03*
X53000Y673000D02*
D03*
Y651000D02*
D03*
D59*
X35000Y673000D02*
D03*
X15000D02*
D03*
D60*
X388391Y509639D02*
D03*
X445391D02*
D03*
X388391Y544338D02*
D03*
X445391D02*
D03*
D61*
X767223Y606844D02*
D03*
Y613344D02*
D03*
Y619844D02*
D03*
Y626344D02*
D03*
Y632844D02*
D03*
Y639344D02*
D03*
Y645844D02*
D03*
X822723Y606844D02*
D03*
Y613344D02*
D03*
Y619844D02*
D03*
Y626344D02*
D03*
Y632844D02*
D03*
Y639344D02*
D03*
Y645844D02*
D03*
X767223Y707944D02*
D03*
Y714444D02*
D03*
Y720944D02*
D03*
Y727444D02*
D03*
Y733944D02*
D03*
Y740444D02*
D03*
Y746944D02*
D03*
X822723Y707944D02*
D03*
Y714444D02*
D03*
Y720944D02*
D03*
Y727444D02*
D03*
Y733944D02*
D03*
Y740444D02*
D03*
Y746944D02*
D03*
X767223Y345844D02*
D03*
Y352344D02*
D03*
Y358844D02*
D03*
Y365344D02*
D03*
Y371844D02*
D03*
Y378344D02*
D03*
Y384844D02*
D03*
X822723Y345844D02*
D03*
Y352344D02*
D03*
Y358844D02*
D03*
Y365344D02*
D03*
Y371844D02*
D03*
Y378344D02*
D03*
Y384844D02*
D03*
X767223Y809044D02*
D03*
Y815544D02*
D03*
Y822044D02*
D03*
Y828544D02*
D03*
Y835044D02*
D03*
Y841544D02*
D03*
Y848044D02*
D03*
X822723Y809044D02*
D03*
Y815544D02*
D03*
Y822044D02*
D03*
Y828544D02*
D03*
Y835044D02*
D03*
Y841544D02*
D03*
Y848044D02*
D03*
X767223Y910144D02*
D03*
Y916644D02*
D03*
Y923144D02*
D03*
Y929644D02*
D03*
Y936144D02*
D03*
Y942644D02*
D03*
Y949144D02*
D03*
X822723Y910144D02*
D03*
Y916644D02*
D03*
Y923144D02*
D03*
Y929644D02*
D03*
Y936144D02*
D03*
Y942644D02*
D03*
Y949144D02*
D03*
X767223Y42544D02*
D03*
Y49044D02*
D03*
Y55544D02*
D03*
Y62044D02*
D03*
Y68544D02*
D03*
Y75044D02*
D03*
Y81544D02*
D03*
X822723Y42544D02*
D03*
Y49044D02*
D03*
Y55544D02*
D03*
Y62044D02*
D03*
Y68544D02*
D03*
Y75044D02*
D03*
Y81544D02*
D03*
X767223Y143644D02*
D03*
Y150144D02*
D03*
Y156644D02*
D03*
Y163144D02*
D03*
Y169644D02*
D03*
Y176144D02*
D03*
Y182644D02*
D03*
X822723Y143644D02*
D03*
Y150144D02*
D03*
Y156644D02*
D03*
Y163144D02*
D03*
Y169644D02*
D03*
Y176144D02*
D03*
Y182644D02*
D03*
X767223Y244744D02*
D03*
Y251244D02*
D03*
Y257744D02*
D03*
Y264244D02*
D03*
Y270744D02*
D03*
Y277244D02*
D03*
Y283744D02*
D03*
X822723Y244744D02*
D03*
Y251244D02*
D03*
Y257744D02*
D03*
Y264244D02*
D03*
Y270744D02*
D03*
Y277244D02*
D03*
Y283744D02*
D03*
D62*
X925272Y619544D02*
D03*
Y632544D02*
D03*
X904772D02*
D03*
Y626044D02*
D03*
Y619544D02*
D03*
X925272Y720644D02*
D03*
Y733644D02*
D03*
X904772D02*
D03*
Y727144D02*
D03*
Y720644D02*
D03*
X925272Y358544D02*
D03*
Y371544D02*
D03*
X904772D02*
D03*
Y365044D02*
D03*
Y358544D02*
D03*
X925272Y821744D02*
D03*
Y834744D02*
D03*
X904772D02*
D03*
Y828244D02*
D03*
Y821744D02*
D03*
X925272Y922844D02*
D03*
Y935844D02*
D03*
X904772D02*
D03*
Y929344D02*
D03*
Y922844D02*
D03*
X925272Y55244D02*
D03*
Y68244D02*
D03*
X904772D02*
D03*
Y61744D02*
D03*
Y55244D02*
D03*
X925272Y156344D02*
D03*
Y169344D02*
D03*
X904772D02*
D03*
Y162844D02*
D03*
Y156344D02*
D03*
X925272Y257444D02*
D03*
Y270444D02*
D03*
X904772D02*
D03*
Y263944D02*
D03*
Y257444D02*
D03*
D112*
X880722Y608744D02*
D03*
X874222D02*
D03*
X867722D02*
D03*
X861222D02*
D03*
X880722Y649644D02*
D03*
X874222D02*
D03*
X867722D02*
D03*
X861222D02*
D03*
X880722Y709844D02*
D03*
X874222D02*
D03*
X867722D02*
D03*
X861222D02*
D03*
X880722Y750744D02*
D03*
X874222D02*
D03*
X867722D02*
D03*
X861222D02*
D03*
X880722Y912044D02*
D03*
X874222D02*
D03*
X867722D02*
D03*
X861222D02*
D03*
X880722Y952944D02*
D03*
X874222D02*
D03*
X867722D02*
D03*
X861222D02*
D03*
X880722Y44444D02*
D03*
X874222D02*
D03*
X867722D02*
D03*
X861222D02*
D03*
X880722Y85344D02*
D03*
X874222D02*
D03*
X867722D02*
D03*
X861222D02*
D03*
X880722Y145544D02*
D03*
X874222D02*
D03*
X867722D02*
D03*
X861222D02*
D03*
X880722Y186444D02*
D03*
X874222D02*
D03*
X867722D02*
D03*
X861222D02*
D03*
X880722Y246644D02*
D03*
X874222D02*
D03*
X867722D02*
D03*
X861222D02*
D03*
X880722Y287544D02*
D03*
X874222D02*
D03*
X867722D02*
D03*
X861222D02*
D03*
X880722Y347744D02*
D03*
X874222D02*
D03*
X867722D02*
D03*
X861222D02*
D03*
X880722Y388644D02*
D03*
X874222D02*
D03*
X867722D02*
D03*
X861222D02*
D03*
X880722Y810944D02*
D03*
X874222D02*
D03*
X867722D02*
D03*
X861222D02*
D03*
X880722Y851844D02*
D03*
X874222D02*
D03*
X867722D02*
D03*
X861222D02*
D03*
M02*
