G04*
G04 #@! TF.GenerationSoftware,Altium Limited,Altium Designer,20.1.11 (218)*
G04*
G04 Layer_Color=32768*
%FSLAX44Y44*%
%MOMM*%
G71*
G04*
G04 #@! TF.SameCoordinates,E25B43FC-70F8-4359-BC63-D8F09BEAA3E7*
G04*
G04*
G04 #@! TF.FilePolarity,Positive*
G04*
G01*
G75*
%ADD13C,0.1000*%
%ADD16C,0.0762*%
%ADD139C,0.5080*%
%ADD140C,0.0500*%
D13*
X273130Y551180D02*
X283130D01*
X278130Y546180D02*
Y556180D01*
X196630Y469680D02*
Y632680D01*
X359630Y469680D02*
Y632680D01*
X196630Y469680D02*
X359630D01*
X196630Y632680D02*
X359630D01*
X104220Y73660D02*
X114220D01*
X109220Y68660D02*
Y78660D01*
X-36750Y433070D02*
X-26750D01*
X-31750Y428070D02*
Y438070D01*
X70130Y741760D02*
Y751760D01*
X65130Y746760D02*
X75130D01*
X338240Y798750D02*
Y808750D01*
X333240Y803750D02*
X343240D01*
X800581Y184516D02*
X810581D01*
X805581Y179516D02*
Y189516D01*
X771101Y121746D02*
Y131746D01*
X766101Y126746D02*
X776101D01*
X653510Y267420D02*
X663510D01*
X658510Y262420D02*
Y272420D01*
X624030Y204650D02*
Y214650D01*
X619030Y209650D02*
X629030D01*
X800830Y330920D02*
X810830D01*
X805830Y325920D02*
Y335920D01*
X771350Y268150D02*
Y278150D01*
X766350Y273150D02*
X776350D01*
X653510Y403310D02*
X663510D01*
X658510Y398310D02*
Y408310D01*
X624030Y340540D02*
Y350540D01*
X619030Y345540D02*
X629030D01*
X661130Y676360D02*
X671130D01*
X666130Y671360D02*
Y681360D01*
X631650Y613590D02*
Y623590D01*
X626650Y618590D02*
X636650D01*
X658590Y832570D02*
X668590D01*
X663590Y827570D02*
Y837570D01*
X629110Y769800D02*
Y779800D01*
X624110Y774800D02*
X634110D01*
X800581Y762366D02*
X810581D01*
X805581Y757366D02*
Y767366D01*
X771101Y699596D02*
Y709596D01*
X766101Y704596D02*
X776101D01*
X771101Y848186D02*
Y858186D01*
X766101Y853186D02*
X776101D01*
X800581Y910956D02*
X810581D01*
X805581Y905956D02*
Y915956D01*
X1005840Y107670D02*
Y117670D01*
X1000840Y112670D02*
X1010840D01*
X948690Y106400D02*
Y116400D01*
X943690Y111400D02*
X953690D01*
X890270Y106400D02*
Y116400D01*
X885270Y111400D02*
X895270D01*
X661670Y106400D02*
Y116400D01*
X656670Y111400D02*
X666670D01*
X997570Y228490D02*
Y238490D01*
X992570Y233490D02*
X1002570D01*
X997570Y370730D02*
Y380730D01*
X992570Y375730D02*
X1002570D01*
X1007447Y660931D02*
Y670931D01*
X1002447Y665931D02*
X1012447D01*
X1007447Y803171D02*
Y813171D01*
X1002447Y808171D02*
X1012447D01*
X219710Y938610D02*
Y948610D01*
X214710Y943610D02*
X224710D01*
X828120Y111400D02*
X838120D01*
X833120Y106400D02*
Y116400D01*
X769700Y111400D02*
X779700D01*
X774700Y106400D02*
Y116400D01*
X712550Y111400D02*
X722550D01*
X717550Y106400D02*
Y116400D01*
X602060Y111400D02*
X612060D01*
X607060Y106400D02*
Y116400D01*
X994373Y304179D02*
X1004373D01*
X999373Y299179D02*
Y309179D01*
X1004250Y736620D02*
X1014250D01*
X1009250Y731620D02*
Y741620D01*
X49927Y45017D02*
X59927D01*
X54927Y40017D02*
Y50018D01*
X46037Y24697D02*
Y64068D01*
X63817Y24697D02*
Y64068D01*
X46037Y24697D02*
X63817D01*
X46037Y64068D02*
X63817D01*
X96220Y919250D02*
X106220D01*
X101220Y914250D02*
Y924250D01*
X92330Y898930D02*
Y938300D01*
X110110Y898930D02*
Y938300D01*
X92330Y898930D02*
X110110D01*
X92330Y938300D02*
X110110D01*
X28020Y920750D02*
X38020D01*
X33020Y915750D02*
Y925750D01*
X24130Y900430D02*
Y939800D01*
X41910Y900430D02*
Y939800D01*
X24130Y900430D02*
X41910D01*
X24130Y939800D02*
X41910D01*
X700171Y930086D02*
Y940086D01*
X695171Y935086D02*
X705171D01*
X683921Y921586D02*
X716421D01*
X683921Y948586D02*
X716421D01*
X683921Y921586D02*
Y948586D01*
X716421Y921586D02*
Y948586D01*
X558180Y851700D02*
Y861700D01*
X553180Y856700D02*
X563180D01*
X541930Y843200D02*
X574430D01*
X541930Y870200D02*
X574430D01*
X541930Y843200D02*
Y870200D01*
X574430Y843200D02*
Y870200D01*
X700171Y203646D02*
Y213646D01*
X695171Y208646D02*
X705171D01*
X683921Y195146D02*
X716421D01*
X683921Y222146D02*
X716421D01*
X683921Y195146D02*
Y222146D01*
X716421Y195146D02*
Y222146D01*
X700171Y781496D02*
Y791496D01*
X695171Y786496D02*
X705171D01*
X683921Y772996D02*
X716421D01*
X683921Y799996D02*
X716421D01*
X683921Y772996D02*
Y799996D01*
X716421Y772996D02*
Y799996D01*
X560720Y695490D02*
Y705490D01*
X555720Y700490D02*
X565720D01*
X544470Y686990D02*
X576970D01*
X544470Y713990D02*
X576970D01*
X544470Y686990D02*
Y713990D01*
X576970Y686990D02*
Y713990D01*
X553100Y422440D02*
Y432440D01*
X548100Y427440D02*
X558100D01*
X536850Y413940D02*
X569350D01*
X536850Y440940D02*
X569350D01*
X536850Y413940D02*
Y440940D01*
X569350Y413940D02*
Y440940D01*
X700420Y350050D02*
Y360050D01*
X695420Y355050D02*
X705420D01*
X684170Y341550D02*
X716670D01*
X684170Y368550D02*
X716670D01*
X684170Y341550D02*
Y368550D01*
X716670Y341550D02*
Y368550D01*
X553100Y286550D02*
Y296550D01*
X548100Y291550D02*
X558100D01*
X536850Y278050D02*
X569350D01*
X536850Y305050D02*
X569350D01*
X536850Y278050D02*
Y305050D01*
X569350Y278050D02*
Y305050D01*
X790137Y54080D02*
X807917D01*
X790137Y93450D02*
X807917D01*
X790137Y54080D02*
Y93450D01*
X807917Y54080D02*
Y93450D01*
X799027Y68130D02*
Y78130D01*
X794027Y73130D02*
X804027D01*
X732790Y54250D02*
X750570D01*
X732790Y93620D02*
X750570D01*
X732790Y54250D02*
Y93620D01*
X750570Y54250D02*
Y93620D01*
X741680Y68300D02*
Y78300D01*
X736680Y73300D02*
X746680D01*
X676413Y54080D02*
X694193D01*
X676413Y93450D02*
X694193D01*
X676413Y54080D02*
Y93450D01*
X694193Y54080D02*
Y93450D01*
X685303Y68130D02*
Y78130D01*
X680303Y73130D02*
X690303D01*
X622300Y54250D02*
X640080D01*
X622300Y93620D02*
X640080D01*
X622300Y54250D02*
Y93620D01*
X640080Y54250D02*
Y93620D01*
X631190Y68300D02*
Y78300D01*
X626190Y73300D02*
X636190D01*
X1021393Y54080D02*
X1039173D01*
X1021393Y93450D02*
X1039173D01*
X1021393Y54080D02*
Y93450D01*
X1039173Y54080D02*
Y93450D01*
X1030283Y68130D02*
Y78130D01*
X1025283Y73130D02*
X1035283D01*
X964593Y54080D02*
X982373D01*
X964593Y93450D02*
X982373D01*
X964593Y54080D02*
Y93450D01*
X982373Y54080D02*
Y93450D01*
X973483Y68130D02*
Y78130D01*
X968483Y73130D02*
X978483D01*
X905510Y54250D02*
X923290D01*
X905510Y93620D02*
X923290D01*
X905510Y54250D02*
Y93620D01*
X923290Y54250D02*
Y93620D01*
X914400Y68300D02*
Y78300D01*
X909400Y73300D02*
X919400D01*
X848440Y54250D02*
X866220D01*
X848440Y93620D02*
X866220D01*
X848440Y54250D02*
Y93620D01*
X866220Y54250D02*
Y93620D01*
X857330Y68300D02*
Y78300D01*
X852330Y73300D02*
X862330D01*
X185097Y110417D02*
X359097D01*
X185097Y284417D02*
X359097D01*
X185097Y110417D02*
Y284417D01*
X359097Y110417D02*
Y284417D01*
X272097Y192418D02*
Y202418D01*
X267097Y197418D02*
X277097D01*
X559642Y532941D02*
X569642D01*
X564642Y527941D02*
Y537941D01*
X537142Y495441D02*
Y570441D01*
X592142Y495441D02*
Y570441D01*
X537142Y495441D02*
X592142D01*
X537142Y570441D02*
X592142D01*
D16*
X719231Y773856D02*
X777931D01*
X719231Y805856D02*
X777931D01*
X719231Y773856D02*
Y805856D01*
X777931Y773856D02*
Y805856D01*
Y922446D02*
Y954446D01*
X719231Y922446D02*
Y954446D01*
X777931D01*
X719231Y922446D02*
X777931D01*
X577240Y844061D02*
X635941D01*
X577240Y876060D02*
X635941D01*
X577240Y844061D02*
Y876060D01*
X635941Y844061D02*
Y876060D01*
X638480Y687850D02*
Y719850D01*
X579780Y687850D02*
Y719850D01*
X638480D01*
X579780Y687850D02*
X638480D01*
X572160Y414800D02*
X630860D01*
X572160Y446800D02*
X630860D01*
X572160Y414800D02*
Y446800D01*
X630860Y414800D02*
Y446800D01*
X778180Y342411D02*
Y374411D01*
X719480Y342411D02*
Y374411D01*
X778180D01*
X719480Y342411D02*
X778180D01*
X572160Y278911D02*
X630860D01*
X572160Y310910D02*
X630860D01*
X572160Y278911D02*
Y310910D01*
X630860Y278911D02*
Y310910D01*
X777931Y196006D02*
Y228006D01*
X719231Y196006D02*
Y228006D01*
X777931D01*
X719231Y196006D02*
X777931D01*
D139*
X748431Y790306D02*
D03*
Y938896D02*
D03*
X606440Y860510D02*
D03*
X608980Y704300D02*
D03*
X601360Y431250D02*
D03*
X748680Y358860D02*
D03*
X601360Y295360D02*
D03*
X748431Y212456D02*
D03*
D140*
X1358900Y20720D02*
Y70720D01*
X1333900Y45720D02*
X1383900D01*
X1393900Y10720D02*
Y80720D01*
X1323900Y10720D02*
X1393900D01*
X1323900D02*
Y80720D01*
X1393900D01*
X151720Y37660D02*
Y109660D01*
X66720Y37660D02*
Y109660D01*
Y37660D02*
X151720D01*
X66720Y109660D02*
X151720D01*
X-49750Y419570D02*
Y446570D01*
X-13750Y419570D02*
Y446570D01*
X-49750Y419570D02*
X-13750D01*
X-49750Y446570D02*
X-13750D01*
X301240Y776250D02*
X375240D01*
X301240Y831250D02*
X375240D01*
Y776250D02*
Y831250D01*
X301240Y776250D02*
Y831250D01*
X821681Y165266D02*
Y203766D01*
X789481Y165266D02*
Y203766D01*
X821681D01*
X789481Y165266D02*
X821681D01*
X751851Y110646D02*
X790351D01*
X751851Y142846D02*
X790351D01*
Y110646D02*
Y142846D01*
X751851Y110646D02*
Y142846D01*
X674610Y248170D02*
Y286670D01*
X642410Y248170D02*
Y286670D01*
X674610D01*
X642410Y248170D02*
X674610D01*
X604780Y193550D02*
X643280D01*
X604780Y225750D02*
X643280D01*
Y193550D02*
Y225750D01*
X604780Y193550D02*
Y225750D01*
X821930Y311670D02*
Y350170D01*
X789730Y311670D02*
Y350170D01*
X821930D01*
X789730Y311670D02*
X821930D01*
X752100Y257050D02*
X790600D01*
X752100Y289250D02*
X790600D01*
Y257050D02*
Y289250D01*
X752100Y257050D02*
Y289250D01*
X674610Y384060D02*
Y422560D01*
X642410Y384060D02*
Y422560D01*
X674610D01*
X642410Y384060D02*
X674610D01*
X604780Y329440D02*
X643280D01*
X604780Y361640D02*
X643280D01*
Y329440D02*
Y361640D01*
X604780Y329440D02*
Y361640D01*
X682230Y657110D02*
Y695610D01*
X650030Y657110D02*
Y695610D01*
X682230D01*
X650030Y657110D02*
X682230D01*
X612400Y602490D02*
X650900D01*
X612400Y634690D02*
X650900D01*
Y602490D02*
Y634690D01*
X612400Y602490D02*
Y634690D01*
X679690Y813320D02*
Y851820D01*
X647490Y813320D02*
Y851820D01*
X679690D01*
X647490Y813320D02*
X679690D01*
X609860Y758700D02*
X648360D01*
X609860Y790900D02*
X648360D01*
Y758700D02*
Y790900D01*
X609860Y758700D02*
Y790900D01*
X821681Y743116D02*
Y781616D01*
X789481Y743116D02*
Y781616D01*
X821681D01*
X789481Y743116D02*
X821681D01*
X751851Y688496D02*
X790351D01*
X751851Y720696D02*
X790351D01*
Y688496D02*
Y720696D01*
X751851Y688496D02*
Y720696D01*
Y837086D02*
X790351D01*
X751851Y869286D02*
X790351D01*
Y837086D02*
Y869286D01*
X751851Y837086D02*
Y869286D01*
X821681Y891706D02*
Y930206D01*
X789481Y891706D02*
Y930206D01*
X821681D01*
X789481Y891706D02*
X821681D01*
X991840Y94670D02*
X1019840D01*
X991840Y130670D02*
X1019840D01*
X991840Y94670D02*
Y130670D01*
X1019840Y94670D02*
Y130670D01*
X934690Y93400D02*
X962690D01*
X934690Y129400D02*
X962690D01*
X934690Y93400D02*
Y129400D01*
X962690Y93400D02*
Y129400D01*
X876270Y93400D02*
X904270D01*
X876270Y129400D02*
X904270D01*
X876270Y93400D02*
Y129400D01*
X904270Y93400D02*
Y129400D01*
X647670Y93400D02*
X675670D01*
X647670Y129400D02*
X675670D01*
X647670Y93400D02*
Y129400D01*
X675670Y93400D02*
Y129400D01*
X981470Y252740D02*
X1013670D01*
X981470Y214240D02*
X1013670D01*
X981470D02*
Y252740D01*
X1013670Y214240D02*
Y252740D01*
X981470Y394980D02*
X1013670D01*
X981470Y356480D02*
X1013670D01*
X981470D02*
Y394980D01*
X1013670Y356480D02*
Y394980D01*
X991347Y685181D02*
X1023547D01*
X991347Y646681D02*
X1023547D01*
X991347D02*
Y685181D01*
X1023547Y646681D02*
Y685181D01*
X991347Y827421D02*
X1023547D01*
X991347Y788921D02*
X1023547D01*
X991347D02*
Y827421D01*
X1023547Y788921D02*
Y827421D01*
X279240Y970250D02*
X409240D01*
X279240Y845250D02*
Y970250D01*
Y845250D02*
X409240D01*
Y970250D01*
X339240Y907750D02*
X349240D01*
X344240Y902750D02*
Y912750D01*
X847120Y93400D02*
Y129400D01*
X819120Y93400D02*
Y129400D01*
X847120D01*
X819120Y93400D02*
X847120D01*
X788700D02*
Y129400D01*
X760700Y93400D02*
Y129400D01*
X788700D01*
X760700Y93400D02*
X788700D01*
X731550D02*
Y129400D01*
X703550Y93400D02*
Y129400D01*
X731550D01*
X703550Y93400D02*
X731550D01*
X621060D02*
Y129400D01*
X593060Y93400D02*
Y129400D01*
X621060D01*
X593060Y93400D02*
X621060D01*
X1038373Y252679D02*
Y355679D01*
X960373Y252679D02*
Y355679D01*
Y252679D02*
X1038373D01*
X960373Y355679D02*
X1038373D01*
X1048250Y685120D02*
Y788120D01*
X970250Y685120D02*
Y788120D01*
Y685120D02*
X1048250D01*
X970250Y788120D02*
X1048250D01*
X1282700Y320040D02*
Y680720D01*
X1445260D01*
Y320040D02*
Y680720D01*
X1282700Y320040D02*
X1445260D01*
X1390260Y480140D02*
Y490140D01*
X1385260Y485140D02*
X1395260D01*
M02*
