G04*
G04 #@! TF.GenerationSoftware,Altium Limited,Altium Designer,20.1.11 (218)*
G04*
G04 Layer_Physical_Order=6*
G04 Layer_Color=16711680*
%FSLAX44Y44*%
%MOMM*%
G71*
G04*
G04 #@! TF.SameCoordinates,E25B43FC-70F8-4359-BC63-D8F09BEAA3E7*
G04*
G04*
G04 #@! TF.FilePolarity,Positive*
G04*
G01*
G75*
%ADD17C,0.5080*%
%ADD19C,0.2540*%
%ADD24R,2.8000X0.5500*%
%ADD28R,0.7000X1.2000*%
%ADD29R,1.2000X0.8000*%
%ADD31R,0.8000X1.2000*%
%ADD36R,1.2000X0.7000*%
%ADD45R,0.7000X0.5000*%
%ADD46R,0.7000X0.6400*%
%ADD97C,0.3000*%
%ADD98C,0.1778*%
%ADD99C,0.7620*%
%ADD101C,2.5400*%
%ADD102C,1.5000*%
%ADD103R,1.3000X1.3000*%
%ADD104C,1.3000*%
%ADD105R,1.0000X1.0000*%
%ADD106R,1.3000X1.3000*%
%ADD107C,1.5240*%
%ADD108R,1.4000X1.4000*%
%ADD109C,1.4000*%
%ADD110C,3.2500*%
%ADD111C,2.4000*%
%ADD112R,2.0000X2.0000*%
%ADD113C,2.0000*%
%ADD114C,0.4500*%
%ADD115C,0.6000*%
%ADD116C,0.5000*%
%ADD117C,0.8000*%
%ADD118R,0.8500X0.3500*%
%ADD119O,1.5000X0.4000*%
%ADD120R,0.3000X1.6000*%
%ADD121R,1.6000X0.3000*%
%ADD122R,0.6400X0.7000*%
%ADD123R,0.5000X0.7000*%
%ADD124R,1.6500X0.3000*%
%ADD125R,0.7000X0.4000*%
%ADD126C,0.4826*%
%ADD127C,0.4000*%
G36*
X69850Y839470D02*
X71120Y838200D01*
X248920D01*
X276365Y810755D01*
Y808140D01*
X276661Y806654D01*
X277503Y805393D01*
X285750Y797146D01*
Y723900D01*
X127000D01*
X40640Y637540D01*
X-109257Y637540D01*
Y642876D01*
X-107987Y643606D01*
X-106680Y643346D01*
X-105014Y643678D01*
X-103602Y644622D01*
X-102658Y646034D01*
X-102326Y647700D01*
X-102658Y649366D01*
X-103602Y650779D01*
X-105014Y651722D01*
X-106680Y652054D01*
X-106957Y651999D01*
X-107439Y652094D01*
X-109257D01*
Y652440D01*
X-138430D01*
X-138430Y660400D01*
X-109257D01*
Y660745D01*
X-107530D01*
X-106044Y661041D01*
X-104783Y661883D01*
X-103933Y662733D01*
X-103091Y663993D01*
X-102795Y665480D01*
Y667362D01*
X-102658Y667568D01*
X-102326Y669234D01*
X-102658Y670900D01*
X-103602Y672312D01*
X-105014Y673256D01*
X-105257Y673305D01*
X-106909Y674957D01*
X-108169Y675799D01*
X-108232Y675811D01*
X-108453Y676261D01*
X-107662Y677531D01*
X-98589D01*
X-98462Y677556D01*
X-98335Y677537D01*
X-97354Y677585D01*
X-96982Y677678D01*
X-96598D01*
X-94675Y678061D01*
X-94204Y678256D01*
X-93704Y678355D01*
X-91893Y679106D01*
X-91468Y679389D01*
X-90997Y679584D01*
X-89367Y680673D01*
X-89006Y681034D01*
X-88582Y681318D01*
X-87196Y682704D01*
X-87192Y682710D01*
X-25190Y682710D01*
X-5369Y702531D01*
X-190D01*
X1792Y702925D01*
X3472Y704048D01*
X4595Y705728D01*
X4989Y707710D01*
X4989Y868680D01*
X69850D01*
Y839470D01*
D02*
G37*
G36*
X358140Y778510D02*
X318770D01*
Y829310D01*
X358140D01*
Y778510D01*
D02*
G37*
%LPC*%
G36*
X146050Y836204D02*
X144384Y835872D01*
X142971Y834929D01*
X142028Y833516D01*
X141696Y831850D01*
X142028Y830184D01*
X142971Y828772D01*
X144384Y827828D01*
X146050Y827496D01*
X147716Y827828D01*
X149129Y828772D01*
X150072Y830184D01*
X150404Y831850D01*
X150072Y833516D01*
X149129Y834929D01*
X147716Y835872D01*
X146050Y836204D01*
D02*
G37*
G36*
X133350D02*
X131684Y835872D01*
X130272Y834929D01*
X129328Y833516D01*
X128996Y831850D01*
X129328Y830184D01*
X130272Y828772D01*
X131684Y827828D01*
X133350Y827496D01*
X135016Y827828D01*
X136428Y828772D01*
X137372Y830184D01*
X137704Y831850D01*
X137372Y833516D01*
X136428Y834929D01*
X135016Y835872D01*
X133350Y836204D01*
D02*
G37*
G36*
X82550Y831927D02*
X80229Y831621D01*
X78067Y830725D01*
X76210Y829300D01*
X74785Y827443D01*
X73889Y825281D01*
X73583Y822960D01*
X73889Y820639D01*
X74785Y818477D01*
X76210Y816620D01*
X78067Y815195D01*
X80229Y814299D01*
X82550Y813993D01*
X84871Y814299D01*
X87033Y815195D01*
X88890Y816620D01*
X90315Y818477D01*
X91211Y820639D01*
X91517Y822960D01*
X91211Y825281D01*
X90315Y827443D01*
X88890Y829300D01*
X87033Y830725D01*
X84871Y831621D01*
X82550Y831927D01*
D02*
G37*
G36*
X151130Y776090D02*
X147483Y775610D01*
X144085Y774203D01*
X141166Y771964D01*
X138927Y769045D01*
X137520Y765647D01*
X137039Y762000D01*
X137520Y758353D01*
X138927Y754955D01*
X141166Y752037D01*
X144085Y749797D01*
X147483Y748390D01*
X151130Y747909D01*
X154777Y748390D01*
X158175Y749797D01*
X161094Y752037D01*
X163333Y754955D01*
X164740Y758353D01*
X165221Y762000D01*
X164740Y765647D01*
X163333Y769045D01*
X161094Y771964D01*
X158175Y774203D01*
X154777Y775610D01*
X151130Y776090D01*
D02*
G37*
G36*
X87630Y754597D02*
X85602Y754330D01*
X83712Y753547D01*
X82088Y752302D01*
X80843Y750678D01*
X80060Y748788D01*
X79793Y746760D01*
X80060Y744732D01*
X80843Y742841D01*
X82088Y741218D01*
X83712Y739973D01*
X85602Y739190D01*
X87630Y738923D01*
X89658Y739190D01*
X91549Y739973D01*
X93172Y741218D01*
X94417Y742841D01*
X95200Y744732D01*
X95467Y746760D01*
X95200Y748788D01*
X94417Y750678D01*
X93172Y752302D01*
X91549Y753547D01*
X89658Y754330D01*
X87630Y754597D01*
D02*
G37*
%LPD*%
D17*
X-124528Y664420D02*
X-124318Y664630D01*
X-107530D01*
X-106680Y665480D01*
X-109656Y672210D02*
X-106680Y669234D01*
Y665480D02*
Y669234D01*
X-124318Y672210D02*
X-109656D01*
X-124528Y672420D02*
X-124318Y672210D01*
X-124528Y648420D02*
X-124318Y648210D01*
X-107439D01*
X-106929Y647700D01*
X-106680D01*
X-106720Y632420D02*
X-106680Y632460D01*
X-124528Y632420D02*
X-106720D01*
X-124528Y616420D02*
X-124318Y616210D01*
X-107189D01*
X-106929Y615950D01*
X-106680D01*
X-107350Y592420D02*
X-106680Y593090D01*
X-124528Y592420D02*
X-107350D01*
X-124528Y568420D02*
X-124318Y568630D01*
X-107259D01*
X-106929Y568960D01*
X-106680D01*
X-107090Y544420D02*
X-106680Y544830D01*
X-124528Y544420D02*
X-107090D01*
X-124528Y520420D02*
X-124388Y520560D01*
X-106820D01*
X-106680Y520700D01*
X-124528Y464420D02*
X-124508Y464400D01*
X-106700D01*
X-106680Y464380D01*
X-124528Y440420D02*
X-124392Y440555D01*
X-106815D01*
X-106680Y440690D01*
X-124528Y416420D02*
X-124457Y416490D01*
X-106750D01*
X-106680Y416560D01*
X-124528Y392420D02*
X-124522Y392425D01*
X-106685D01*
X-106680Y392430D01*
X-124528Y368420D02*
X-124468Y368360D01*
X-106740D01*
X-106680Y368300D01*
X-124528Y344420D02*
X-124403Y344295D01*
X-106805D01*
X-106680Y344170D01*
X280250Y808140D02*
Y872504D01*
Y808140D02*
X325120Y763270D01*
X384810D01*
D19*
X195580Y429260D02*
X218440D01*
X43180D02*
X195580D01*
Y444500D01*
X-20650Y439570D02*
X32870D01*
X43180Y429260D01*
X346710Y541020D02*
X359410Y553720D01*
X346710Y455930D02*
Y541020D01*
X337820Y447040D02*
X346710Y455930D01*
X236220Y447040D02*
X337820D01*
X218440Y429260D02*
X236220Y447040D01*
X396801Y439420D02*
X440690D01*
X678180Y717550D02*
X708660D01*
X346280Y395810D02*
X394970Y444500D01*
X398780Y434340D02*
X444500D01*
X374650Y358140D02*
Y410210D01*
X356060Y398679D02*
X396801Y439420D01*
X394970Y444500D02*
X438150D01*
X565150Y918210D02*
X705357D01*
X374650Y410210D02*
X398780Y434340D01*
X356060Y347170D02*
Y398679D01*
X335190Y395810D02*
X346280D01*
X407272Y319840D02*
X435042D01*
X403757Y323356D02*
X407272Y319840D01*
X444500Y302610D02*
Y312420D01*
Y302610D02*
X448542Y298568D01*
Y291875D02*
Y298568D01*
Y291875D02*
X448772Y291645D01*
X438018Y312420D02*
X444500D01*
X436530Y313908D02*
X438018Y312420D01*
X436530Y313908D02*
Y314432D01*
X435042Y315920D02*
X436530Y314432D01*
X407360Y315920D02*
X435042D01*
X405130Y313690D02*
X407360Y315920D01*
X450083Y320429D02*
X452491D01*
X436162Y320960D02*
X449552D01*
X450083Y320429D01*
X435042Y319840D02*
X436162Y320960D01*
X461772Y224282D02*
Y234645D01*
X452120Y214630D02*
X461772Y224282D01*
X444500Y190500D02*
X452120Y198120D01*
Y214630D01*
X442272Y234645D02*
X442502Y234415D01*
Y224248D02*
Y234415D01*
Y224248D02*
X452120Y214630D01*
X441960Y210060D02*
Y212090D01*
X430530Y198630D02*
X441960Y210060D01*
X386310Y395810D02*
X392190D01*
X386080Y396040D02*
X386310Y395810D01*
X386080Y396040D02*
Y406400D01*
X379730Y407670D02*
X401320Y429260D01*
X379730Y384298D02*
Y407670D01*
X401320Y429260D02*
X447040D01*
X430015Y256540D02*
X451184D01*
X680017Y193743D02*
X688421Y202146D01*
X425232Y282593D02*
Y282685D01*
X427990Y279030D02*
Y279836D01*
X372110Y262890D02*
X411052D01*
X436415D02*
X472440D01*
X423002Y284915D02*
Y291415D01*
Y284915D02*
X425232Y282685D01*
X428265Y254790D02*
X430015Y256540D01*
X410876Y273490D02*
X436592D01*
X436724Y267970D02*
X524270D01*
X209550Y256540D02*
X318500D01*
X320251Y254790D01*
X226060Y250190D02*
X429053D01*
X431593Y252730D02*
X441706D01*
X425232Y282593D02*
X427990Y279836D01*
X436592Y273490D02*
X438302Y271780D01*
X412454Y269680D02*
X435014D01*
X436724Y267970D01*
X411052Y262890D02*
X414032Y265870D01*
X320251Y254790D02*
X428265D01*
X422772Y291645D02*
X423002Y291415D01*
X478790Y271780D02*
X538480Y331470D01*
X364490Y273050D02*
X410436D01*
X524270Y267970D02*
X541350Y285050D01*
X368426Y268430D02*
X411204D01*
X676775Y190500D02*
X680017Y193743D01*
X410436Y273050D02*
X410876Y273490D01*
X438302Y271780D02*
X478790D01*
X411204Y268430D02*
X412454Y269680D01*
X414032Y265870D02*
X433436D01*
X436415Y262890D01*
X429053Y250190D02*
X431593Y252730D01*
X451184Y256540D02*
X453724Y254000D01*
X441706Y252730D02*
X446657Y247779D01*
X750570Y127327D02*
Y151130D01*
X757851Y119746D02*
Y120046D01*
X750570Y127327D02*
X757851Y120046D01*
X-43330Y432590D02*
X-42850Y433070D01*
X-47148Y432590D02*
X-43330D01*
X-47318Y432420D02*
X-47148Y432590D01*
X-124528Y432420D02*
X-47318D01*
X-7620Y423450D02*
Y425450D01*
Y423450D02*
X-1611Y417440D01*
X-1388D01*
X6380Y425450D02*
Y427450D01*
X370Y433459D02*
X6380Y427450D01*
X148Y433459D02*
X370D01*
X-20650Y426570D02*
X-8740D01*
X-7620Y425450D01*
X-58420Y439450D02*
X-58420Y439450D01*
X-58420Y439450D02*
Y447040D01*
X-58420Y439450D02*
X-58300Y439570D01*
X-42850D01*
X-55300Y426570D02*
X-42850D01*
X-56420Y425450D02*
X-55300Y426570D01*
X-53690Y420720D02*
Y422720D01*
X87630Y279400D02*
X102870D01*
X-53690Y420720D02*
X87630Y279400D01*
X-56420Y425450D02*
X-53690Y422720D01*
X424940Y391160D02*
Y392740D01*
X422710Y394970D02*
X424940Y392740D01*
X417830Y394970D02*
X422710D01*
X363220Y264160D02*
X364156D01*
X368426Y268430D01*
X688310Y278130D02*
X690850Y280670D01*
X681990Y278130D02*
X688310D01*
X676910Y288290D02*
X677537Y288917D01*
X683720D01*
X684363Y289560D01*
X538480Y331470D02*
X551180D01*
X601520Y331930D02*
X607060Y326390D01*
X551640Y331930D02*
X601520D01*
X551180Y331470D02*
X551640Y331930D01*
X697960Y289560D02*
X704850Y282670D01*
X684363Y289560D02*
X697960D01*
X708906Y307094D02*
X719049D01*
X704850Y282670D02*
X712390Y290210D01*
X716897Y304942D02*
X719049Y307094D01*
X712390Y300527D02*
X716805Y304942D01*
X704850Y280670D02*
Y282670D01*
X719049Y307094D02*
X725799D01*
X716805Y304942D02*
X716897D01*
X712390Y290210D02*
Y300527D01*
X704850Y311150D02*
X708906Y307094D01*
X489186Y420940D02*
X542850D01*
X487346Y419100D02*
X489186Y420940D01*
X486410Y419100D02*
X487346D01*
X392310Y369690D02*
X409060D01*
X410210Y370840D01*
X392190Y363310D02*
X407914D01*
X409274Y361950D01*
X410210D01*
X392190Y369810D02*
X392310Y369690D01*
X537940Y350520D02*
X538480Y349980D01*
X529590Y350520D02*
X537940D01*
X523760Y244330D02*
X525760D01*
X528490Y241600D01*
Y239600D02*
Y241600D01*
Y239600D02*
X528928Y239162D01*
Y236882D02*
Y239162D01*
Y236882D02*
X529590Y236220D01*
X661670Y892810D02*
Y901700D01*
X546646Y782320D02*
X553690D01*
X544106Y779780D02*
X546646Y782320D01*
X543560Y779780D02*
X544106D01*
X691816Y701040D02*
X701040D01*
X689804Y703052D02*
X691816Y701040D01*
X688868Y703052D02*
X689804D01*
X528510Y661640D02*
X529590D01*
X525780Y658910D02*
X528510Y661640D01*
X525780Y654050D02*
Y658910D01*
X497840Y504190D02*
Y850900D01*
X438150Y444500D02*
X497840Y504190D01*
X555852Y770890D02*
X570230Y785268D01*
X505460Y504190D02*
Y745490D01*
X440690Y439420D02*
X505460Y504190D01*
Y745490D02*
X530860Y770890D01*
X555852D01*
X511810Y707390D02*
X547370Y742950D01*
X444500Y434340D02*
X511810Y501650D01*
Y707390D01*
X447040Y429260D02*
X516890Y499110D01*
X527590Y675640D02*
X529590D01*
X516890Y664940D02*
X527590Y675640D01*
X516890Y499110D02*
Y664940D01*
X458500Y312420D02*
Y314420D01*
X452491Y320429D02*
X458500Y314420D01*
X467694Y279860D02*
X468630D01*
X463424Y275590D02*
X467694Y279860D01*
X439880Y275590D02*
X463424D01*
X435610Y279860D02*
X439880Y275590D01*
X427990Y325880D02*
X430490D01*
X432720Y328110D01*
Y330610D01*
X433678Y331568D01*
Y334618D01*
X434340Y335280D01*
X424940Y341630D02*
Y344130D01*
X422710Y346360D02*
X424940Y344130D01*
X418180Y346360D02*
X422710D01*
X417830Y346710D02*
X418180Y346360D01*
X392190Y337310D02*
X398690D01*
X407070Y328930D01*
X416560D01*
X302770Y341630D02*
Y344130D01*
X295910Y350990D02*
X302770Y344130D01*
X295910Y350990D02*
Y378460D01*
X347045Y350415D02*
X350520Y353890D01*
Y384810D01*
X315500Y372140D02*
X317500D01*
X311052Y367692D02*
X315500Y372140D01*
X308002Y367692D02*
X311052D01*
X307340Y367030D02*
X308002Y367692D01*
X319830Y369810D02*
X335190D01*
X317500Y372140D02*
X319830Y369810D01*
X323670Y376310D02*
X335190D01*
X319500Y372140D02*
X323670Y376310D01*
X317500Y372140D02*
X319500D01*
X343808Y382580D02*
X343945Y382443D01*
X347302D01*
X349669Y384810D01*
X350520D01*
X335190Y382810D02*
X335420Y382580D01*
X343808D01*
X328690Y382810D02*
X335190D01*
X346200Y337310D02*
X356060Y347170D01*
X522217Y339090D02*
X545590D01*
X481272Y298145D02*
X522217Y339090D01*
X545590D02*
X552480Y345980D01*
Y347980D02*
Y349980D01*
Y345980D02*
Y347980D01*
Y349980D02*
X566340Y363840D01*
Y378714D01*
X568626Y381000D01*
X673100Y168880D02*
X673100Y168880D01*
Y161290D02*
Y168880D01*
X542850Y450128D02*
Y452680D01*
Y433940D02*
Y450128D01*
X544038D01*
X535940D02*
X542850D01*
X544038D02*
X544210Y450300D01*
X580961Y440550D02*
Y459951D01*
X578500Y454650D02*
Y456650D01*
X573805Y449955D02*
X578500Y454650D01*
X570605Y449955D02*
X573805D01*
X570230Y449580D02*
X570605Y449955D01*
X918699Y532941D02*
X1058514Y672756D01*
Y704031D01*
X563402Y532941D02*
X918699D01*
X19050Y861060D02*
Y929640D01*
X578479Y263094D02*
Y269594D01*
X757825Y266425D02*
X758100Y266150D01*
X752115Y266425D02*
X757825D01*
X751840Y266700D02*
X752115Y266425D01*
X1059180Y791210D02*
X1064260Y796290D01*
X1059180Y772160D02*
X1064260Y767080D01*
X1059180Y772160D02*
Y791210D01*
Y762000D02*
X1064260Y767080D01*
X1059180Y742950D02*
X1064260Y737870D01*
X1059180Y742950D02*
Y762000D01*
Y732790D02*
X1064260Y737870D01*
X1059180Y722630D02*
Y732790D01*
X1064260Y709930D02*
Y717550D01*
X1059180Y722630D02*
X1064260Y717550D01*
Y709778D02*
Y709930D01*
X1058514Y704031D02*
X1064260Y709778D01*
X1049020Y282956D02*
X1055116Y276860D01*
X1049020Y299974D02*
X1055116Y306070D01*
X1049020Y282956D02*
Y299974D01*
X1055116Y306070D02*
Y312674D01*
X1051560Y316230D02*
X1055116Y312674D01*
X1055370Y333480D02*
Y334010D01*
X1051560Y329670D02*
X1055370Y333480D01*
X1051560Y316230D02*
Y329670D01*
X1050290Y339090D02*
X1055370Y334010D01*
X1050290Y358394D02*
X1055116Y363220D01*
X1050290Y339090D02*
Y358394D01*
X918699Y532941D02*
X1055116Y396523D01*
Y363220D02*
Y396523D01*
X819947Y740410D02*
X820818D01*
X813597Y734060D02*
X819947Y740410D01*
X822430Y175260D02*
X822960D01*
X820366Y173196D02*
X822430Y175260D01*
X814511Y173196D02*
X820366D01*
X798581Y188516D02*
Y197766D01*
X781050Y180190D02*
X787800D01*
X790260Y182650D01*
X791123D01*
X794029Y185556D01*
X794621D01*
X797581Y188516D01*
X798581D01*
X796651Y173196D02*
X798581Y171266D01*
X792249Y173196D02*
X796651D01*
X791755Y173690D02*
X792249Y173196D01*
X781050Y173690D02*
X791755D01*
X796351Y178286D01*
Y179286D01*
X797581Y180516D01*
X798581D01*
X813231Y156576D02*
X814135Y157480D01*
X821690D01*
X799231Y158576D02*
X803910Y163255D01*
Y163830D01*
X799231Y156576D02*
Y158576D01*
X790847Y166960D02*
X799231Y158576D01*
X781280Y166960D02*
X790847D01*
X781050Y167190D02*
X781280Y166960D01*
X743410Y110674D02*
X747404Y106680D01*
X743410Y110674D02*
Y178610D01*
X747404Y106680D02*
X759460D01*
X757851Y133746D02*
X759473Y135368D01*
Y141056D01*
X763270Y144853D01*
X767067Y133779D02*
X767101Y133746D01*
X767067Y133779D02*
Y141056D01*
X763270Y144853D02*
X767067Y141056D01*
X763270Y144853D02*
Y154940D01*
X769020Y160690D01*
X781050D01*
X770140Y154190D02*
X781050D01*
X768350Y152400D02*
X770140Y154190D01*
X768350Y146050D02*
Y152400D01*
Y146050D02*
X773871Y140529D01*
Y134976D02*
X775101Y133746D01*
X773871Y134976D02*
Y140529D01*
X775101Y133746D02*
X784351D01*
X725550Y186690D02*
X732300D01*
X734990Y184000D01*
Y182880D02*
Y184000D01*
X725550Y180190D02*
X732300D01*
X734990Y182880D01*
X739140D01*
X743410Y178610D01*
X765871Y118516D02*
X767101Y119746D01*
X765871Y113091D02*
Y118516D01*
X759460Y106680D02*
X765871Y113091D01*
X725550Y167190D02*
X725550Y167190D01*
X737800D01*
X737800Y167190D01*
X728031Y202256D02*
X728311Y202536D01*
X738810D01*
X739474Y203200D01*
X740410D01*
X739140Y237425D02*
X739571Y237856D01*
X739140Y228600D02*
Y237425D01*
X717550Y246380D02*
X728031Y235899D01*
Y221756D02*
Y235899D01*
X710421Y215146D02*
X710476Y215201D01*
X727976D01*
X728031Y215256D01*
X710421Y208646D02*
X710476Y208701D01*
X727976D01*
X728031Y208756D01*
X710313Y202038D02*
X710421Y202146D01*
X702418Y202038D02*
X710313D01*
X702310Y201930D02*
X702418Y202038D01*
X705281Y229506D02*
Y231506D01*
X700833Y225058D02*
X705281Y229506D01*
X700833Y222808D02*
Y225058D01*
X700171Y222146D02*
X700833Y222808D01*
X690377Y232410D02*
X691281Y231506D01*
X683260Y232410D02*
X690377D01*
X689921Y215146D02*
Y230146D01*
X691281Y231506D01*
X541840Y285050D02*
X542570Y285780D01*
X541840Y285050D02*
X542850D01*
X541350D02*
X541840D01*
X542570Y285780D02*
Y290550D01*
X542290Y290830D02*
X542570Y290550D01*
X542943Y275594D02*
X616563D01*
X541455Y277082D02*
Y277320D01*
Y277082D02*
X542943Y275594D01*
X616563D02*
X622563Y269594D01*
X633979D01*
X615965Y304660D02*
X621861D01*
X614227Y302922D02*
X615965Y304660D01*
X611532Y302922D02*
X614227D01*
X610870Y302260D02*
X611532Y302922D01*
X578479Y237094D02*
X589676D01*
X593090Y233680D01*
X645160Y224790D02*
Y226164D01*
Y210830D02*
Y224790D01*
X621861Y285161D02*
X626061D01*
X626735Y284486D01*
Y278775D02*
Y284486D01*
Y278775D02*
X627380Y278130D01*
X610780Y202650D02*
Y202950D01*
X608850Y204880D02*
X610780Y202950D01*
X605359Y204880D02*
X608850D01*
X602438Y207802D02*
X605359Y204880D01*
X601502Y207802D02*
X602438D01*
X578080Y230594D02*
X578479D01*
X577850Y230364D02*
X578080Y230594D01*
X577850Y223520D02*
Y230364D01*
X605790Y195580D02*
X622552D01*
X577850Y223520D02*
X605790Y195580D01*
X628030Y201650D02*
Y202650D01*
X625070Y198690D02*
X628030Y201650D01*
X625070Y198098D02*
Y198690D01*
X622552Y195580D02*
X625070Y198098D01*
X578479Y263094D02*
X590346D01*
X599900Y253540D01*
Y217868D02*
Y253540D01*
Y217868D02*
X603689Y214080D01*
X614226Y209496D02*
X616828Y206894D01*
Y206852D02*
X620030Y203650D01*
X607642Y209496D02*
X614226D01*
X603689Y213449D02*
Y214080D01*
X620030Y202650D02*
Y203650D01*
X616828Y206852D02*
Y206894D01*
X603689Y213449D02*
X607642Y209496D01*
X637280Y202650D02*
Y202950D01*
X645160Y210830D01*
X633979Y230594D02*
X640729D01*
X645160Y226164D01*
X665210Y280670D02*
X665510D01*
X658860Y287020D02*
X665210Y280670D01*
X636760Y287020D02*
X658860D01*
X634782Y285042D02*
X636760Y287020D01*
X633979Y285042D02*
X634782D01*
X621861Y291660D02*
Y298160D01*
X633979Y269594D02*
Y285042D01*
X627360Y291660D02*
X633979Y285042D01*
X621861Y291660D02*
X627360D01*
X650510Y271420D02*
X651510Y272420D01*
Y280670D01*
X633979Y263094D02*
X640729D01*
X643189Y265554D01*
X644052D01*
X646958Y268460D01*
X647550D01*
X650510Y271420D01*
X651510D01*
X649580Y256100D02*
X651510Y254170D01*
X645178Y256100D02*
X649580D01*
X644684Y256594D02*
X645178Y256100D01*
X633979Y256594D02*
X644684D01*
X649280Y261190D01*
Y262190D01*
X650510Y263420D01*
X651510D01*
X628030Y216650D02*
X637280D01*
X610780D02*
X612710Y218580D01*
Y221986D01*
X617002Y226278D01*
X633749Y243364D02*
X633979Y243594D01*
X624364Y243364D02*
X633749D01*
X617002Y236002D02*
X624364Y243364D01*
X617002Y226278D02*
X620030Y223250D01*
X617002Y226278D02*
Y236002D01*
X620030Y216650D02*
Y223250D01*
X621522Y228258D02*
X626800Y222980D01*
X627229Y237094D02*
X633979D01*
X625078Y234942D02*
X627229Y237094D01*
X624985Y234942D02*
X625078D01*
X621522Y231479D02*
X624985Y234942D01*
X621522Y228258D02*
Y231479D01*
X626800Y217880D02*
X628030Y216650D01*
X626800Y217880D02*
Y222980D01*
X578479Y230594D02*
Y237094D01*
X557530Y234950D02*
X569585D01*
X571729Y237094D01*
X578479D01*
X665480Y238800D02*
X666160Y239480D01*
X665480Y228600D02*
Y238800D01*
X652160Y239480D02*
X652780Y238860D01*
Y228600D02*
Y238860D01*
X652160Y239480D02*
Y241480D01*
X643776Y249864D02*
X652160Y241480D01*
X634209Y249864D02*
X643776D01*
X633979Y250094D02*
X634209Y249864D01*
X578479Y250094D02*
X585229D01*
X587689Y247634D01*
X588026D01*
X593090Y242570D01*
X580961Y285161D02*
X581240Y285440D01*
X591510D01*
X591820Y285750D01*
X592500Y318760D02*
Y320760D01*
X588672Y314932D02*
X592500Y318760D01*
X588672Y313082D02*
Y314932D01*
X588010Y312420D02*
X588672Y313082D01*
X577405Y304660D02*
X580961D01*
X576730Y305335D02*
X577405Y304660D01*
X576730Y305335D02*
Y319890D01*
X570230Y326390D02*
X576730Y319890D01*
X563350Y298050D02*
X563405Y298105D01*
X580905D01*
X580961Y298160D01*
X563350Y291550D02*
X563405Y291605D01*
X580905D01*
X580961Y291660D01*
X563065Y284765D02*
X563350Y285050D01*
X555275Y284765D02*
X563065D01*
X554990Y284480D02*
X555275Y284765D01*
X558210Y312410D02*
Y314410D01*
X553762Y307962D02*
X558210Y312410D01*
X553762Y305712D02*
Y307962D01*
X553100Y305050D02*
X553762Y305712D01*
X542850Y298050D02*
Y318060D01*
X548640Y323850D01*
X810986Y292100D02*
Y296766D01*
X815340Y301120D01*
X800832Y290292D02*
Y291228D01*
X803910Y294306D01*
X802210Y296006D02*
X803910Y294306D01*
X802210Y296006D02*
Y300250D01*
X799480Y302980D02*
X802210Y300250D01*
X810900Y315740D02*
X812830Y317670D01*
X809668Y315740D02*
X810900D01*
X806450Y312522D02*
X809668Y315740D01*
X806450Y312420D02*
Y312522D01*
X677590Y337470D02*
X688670Y348550D01*
X666510Y326390D02*
X677590Y337470D01*
X714466Y339090D02*
X735330D01*
X741326Y333094D01*
X709170Y348550D02*
X710670D01*
X706846Y343836D02*
X708440Y345430D01*
Y347820D02*
X709170Y348550D01*
X708440Y345430D02*
Y347820D01*
X706846Y342900D02*
Y343836D01*
X770890Y341630D02*
Y347986D01*
X755650Y363554D02*
X759977Y367881D01*
X755650Y358140D02*
Y363554D01*
X759977Y367881D02*
X768901D01*
X734060Y374650D02*
Y374780D01*
X741680Y382400D01*
X728280Y368161D02*
Y387561D01*
X728069Y387350D02*
X728280Y387561D01*
X716280Y387350D02*
X728069D01*
X768901Y367881D02*
X769181Y368161D01*
X725799Y300594D02*
X726029Y300364D01*
X742306D01*
X742950Y299720D01*
X769181Y348661D02*
X770216D01*
X770890Y347986D01*
X741326Y333094D02*
X781299D01*
X783278Y350520D02*
X806180D01*
X781299Y348542D02*
X783278Y350520D01*
X812530Y344170D02*
X812830D01*
X806180Y350520D02*
X812530Y344170D01*
X769181Y355160D02*
Y361660D01*
X781299Y333094D02*
Y348542D01*
X774680Y355160D02*
X781299Y348542D01*
X769181Y355160D02*
X774680D01*
X798830Y334920D02*
Y344170D01*
X781299Y326594D02*
X788049D01*
X790509Y329054D01*
X791372D01*
X794278Y331960D01*
X794870D01*
X797830Y334920D01*
X798830D01*
X793750Y320094D02*
X796106D01*
X781299D02*
X793750D01*
X797830Y326920D02*
X798830D01*
X793750Y322840D02*
X797830Y326920D01*
X793750Y320094D02*
Y322840D01*
X796106Y320094D02*
X798530Y317670D01*
X798830D01*
X813480Y302980D02*
X815340Y301120D01*
X796750Y305710D02*
X799480Y302980D01*
X796750Y305710D02*
Y309420D01*
X781299Y313594D02*
X792576D01*
X796750Y309420D01*
X725400Y294094D02*
X725799D01*
X725170Y293864D02*
X725400Y294094D01*
X725170Y281940D02*
Y293864D01*
X748030Y259080D02*
X769872D01*
X725170Y281940D02*
X748030Y259080D01*
X775350Y265150D02*
Y266150D01*
X772390Y262190D02*
X775350Y265150D01*
X772390Y261598D02*
Y262190D01*
X769872Y259080D02*
X772390Y261598D01*
X725799Y326594D02*
Y333094D01*
X751840Y275590D02*
Y312635D01*
X737881Y326594D02*
X751840Y312635D01*
X725799Y326594D02*
X737881D01*
X751840Y275590D02*
X754280Y273150D01*
X761392D01*
X767350Y266150D02*
Y267150D01*
X764148Y270352D02*
X767350Y267150D01*
X764148Y270352D02*
Y270394D01*
X761392Y273150D02*
X764148Y270394D01*
X792470Y274320D02*
Y288300D01*
X781299Y294094D02*
X788049D01*
X788279Y293864D01*
Y292491D02*
Y293864D01*
Y292491D02*
X792470Y288300D01*
X784600Y266150D02*
Y266450D01*
X792470Y274320D01*
X775350Y280150D02*
X784600D01*
X758100D02*
Y280450D01*
X762151Y284501D01*
Y285901D01*
X764540Y288290D01*
X781069Y306864D02*
X781299Y307094D01*
X771684Y306864D02*
X781069D01*
X764540Y299720D02*
X771684Y306864D01*
X764540Y288290D02*
Y299720D01*
Y288290D02*
X766120Y286710D01*
Y281380D02*
X767350Y280150D01*
X766120Y281380D02*
Y286710D01*
X770112Y290488D02*
X774120Y286480D01*
X774549Y300594D02*
X781299D01*
X772398Y298442D02*
X774549Y300594D01*
X772305Y298442D02*
X772398D01*
X770112Y296249D02*
X772305Y298442D01*
X770112Y290488D02*
Y296249D01*
X774120Y281380D02*
X775350Y280150D01*
X774120Y281380D02*
Y286480D01*
X728225Y355105D02*
X728280Y355160D01*
X710725Y355105D02*
X728225D01*
X710670Y355050D02*
X710725Y355105D01*
X728225Y361605D02*
X728280Y361660D01*
X710725Y361605D02*
X728225D01*
X710670Y361550D02*
X710725Y361605D01*
X725799Y294094D02*
Y300594D01*
X704850Y298450D02*
X706994Y300594D01*
X738925Y309880D02*
X745950D01*
X725799Y313594D02*
X732549D01*
X735009Y311134D01*
X737671D01*
X738925Y309880D01*
X739820Y384260D02*
X741680Y382400D01*
X728280Y348661D02*
X728560Y348940D01*
X740100D01*
X740410Y349250D01*
X705530Y377380D02*
Y377910D01*
Y377380D02*
X708260Y374650D01*
X712470D01*
X690170Y361550D02*
Y380290D01*
X697230Y387350D01*
X468272Y291645D02*
X468451Y291467D01*
Y280039D02*
Y291467D01*
Y280039D02*
X468630Y279860D01*
X445525Y279645D02*
X453172D01*
X455042Y291415D02*
X455272Y291645D01*
X455042Y281516D02*
Y291415D01*
X453172Y279645D02*
X455042Y281516D01*
X442502Y282668D02*
X445525Y279645D01*
X442272Y291645D02*
X442502Y291415D01*
Y282668D02*
Y291415D01*
X435691Y291564D02*
X435772Y291645D01*
X435691Y279941D02*
Y291564D01*
X435610Y279860D02*
X435691Y279941D01*
X461772Y291645D02*
Y307148D01*
X458500Y310420D02*
X461772Y307148D01*
X455272Y291645D02*
Y307192D01*
X458500Y310420D01*
Y312420D01*
X474772Y291645D02*
Y308402D01*
X476250Y309880D01*
Y318770D02*
Y325880D01*
X429272Y291645D02*
Y308598D01*
X427990Y309880D02*
X429272Y308598D01*
X539670Y388700D02*
X544830Y383540D01*
X538778Y388700D02*
X539670D01*
X534180Y393298D02*
X538778Y388700D01*
X534180Y393298D02*
Y402590D01*
X544340Y412750D02*
X593090D01*
X534180Y402590D02*
X544340Y412750D01*
X600356Y405484D02*
X633979D01*
X593090Y412750D02*
X600356Y405484D01*
X621721Y440690D02*
X621861Y440550D01*
X613410Y440690D02*
X621721D01*
X608330Y435610D02*
X613410Y440690D01*
X592694Y372984D02*
X593090Y373380D01*
X578479Y372984D02*
X592694D01*
X645160Y346720D02*
Y359410D01*
Y362053D01*
X640729Y366484D02*
X645160Y362053D01*
X621861Y421050D02*
X625426D01*
X626100Y420376D01*
Y415300D02*
Y420376D01*
Y415300D02*
X626110Y415290D01*
X665210Y416560D02*
X665510D01*
X659210Y422560D02*
X665210Y416560D01*
X635607Y422560D02*
X659210D01*
X633979Y420932D02*
X635607Y422560D01*
X621861Y427551D02*
Y434050D01*
X633979Y405484D02*
Y420932D01*
X627360Y427551D02*
X633979Y420932D01*
X621861Y427551D02*
X627360D01*
X651510Y407310D02*
Y416560D01*
X633979Y398984D02*
X640729D01*
X643189Y401444D01*
X644052D01*
X646958Y404350D01*
X647550D01*
X650510Y407310D01*
X651510D01*
X649580Y391990D02*
X651510Y390060D01*
X645178Y391990D02*
X649580D01*
X644684Y392484D02*
X645178Y391990D01*
X633979Y392484D02*
X644684D01*
X649280Y397080D01*
Y398080D01*
X650510Y399310D01*
X651510D01*
X578479Y385984D02*
X590004D01*
X592448Y383540D01*
X593090D01*
X725550Y745040D02*
X732300D01*
X734760Y742580D01*
X734852D01*
X738018Y739414D01*
Y737857D02*
Y739414D01*
Y737857D02*
X738680Y737195D01*
X738585Y890825D02*
X739247Y890163D01*
X725550Y893630D02*
X732300D01*
X735105Y890825D01*
X738585D01*
X583559Y815244D02*
X583789Y815014D01*
X593535D01*
X595856Y812693D01*
X596793D01*
X603250Y817880D02*
X603468Y818098D01*
X603250Y768350D02*
X609840Y761760D01*
X603250Y768350D02*
Y817880D01*
X586099Y659034D02*
X586329Y658804D01*
X596290D01*
X598504Y656590D01*
X599440D01*
X666160Y375370D02*
X666710Y375920D01*
X674370D01*
X655320Y361490D02*
Y362400D01*
X652160Y365560D02*
Y375370D01*
Y365560D02*
X655320Y362400D01*
X652160Y375370D02*
Y377370D01*
X643776Y385754D02*
X652160Y377370D01*
X634209Y385754D02*
X643776D01*
X633979Y385984D02*
X634209Y385754D01*
X633979Y366484D02*
X640729D01*
X637280Y338540D02*
Y338840D01*
X645160Y346720D01*
X628030Y352540D02*
X637280D01*
X610780D02*
Y352840D01*
X618490Y360550D01*
Y360680D01*
X633749Y379714D02*
X633979Y379484D01*
X623586Y379714D02*
X633749D01*
X623570Y379730D02*
X623586Y379714D01*
X618490Y360680D02*
Y374650D01*
X623570Y379730D01*
X620030Y352540D02*
Y359140D01*
X618490Y360680D02*
X620030Y359140D01*
X633749Y372754D02*
X633979Y372984D01*
X624214Y372754D02*
X633749D01*
X622300Y370840D02*
X624214Y372754D01*
X622300Y363370D02*
Y370840D01*
Y363370D02*
X626800Y358870D01*
Y353770D02*
X628030Y352540D01*
X626800Y353770D02*
Y358870D01*
X610780Y338540D02*
Y338840D01*
X608850Y340770D02*
X610780Y338840D01*
X606342Y340770D02*
X608850D01*
X598170Y348942D02*
X606342Y340770D01*
X598170Y348942D02*
Y349250D01*
X578479Y398984D02*
Y405484D01*
Y398984D02*
X596696D01*
X604520Y391160D01*
Y347980D02*
Y391160D01*
X607060Y345440D02*
X617220D01*
X604520Y347980D02*
X607060Y345440D01*
X618800Y339770D02*
X620030Y338540D01*
X618800Y339770D02*
Y343860D01*
X617220Y345440D02*
X618800Y343860D01*
X578479Y356241D02*
Y366484D01*
Y356241D02*
X590550Y344170D01*
X594858D02*
X607880Y331147D01*
X590550Y344170D02*
X594858D01*
X628030Y337540D02*
Y338540D01*
X625070Y334580D02*
X628030Y337540D01*
X625070Y333988D02*
Y334580D01*
X622230Y331147D02*
X625070Y333988D01*
X607880Y331147D02*
X622230D01*
X578479Y366484D02*
Y372984D01*
X557530Y370840D02*
X559674Y372984D01*
X580905Y427495D02*
X580961Y427551D01*
X563405Y427495D02*
X580905D01*
X563350Y427440D02*
X563405Y427495D01*
X580905Y433995D02*
X580961Y434050D01*
X563405Y433995D02*
X580905D01*
X563350Y433940D02*
X563405Y433995D01*
X592500Y456650D02*
X593090Y456060D01*
Y445770D02*
Y456060D01*
X580961Y421050D02*
X581240Y421330D01*
X592780D01*
X593090Y421640D01*
X563065Y420655D02*
X563350Y420940D01*
X555275Y420655D02*
X563065D01*
X554990Y420370D02*
X555275Y420655D01*
X558210Y448300D02*
Y450300D01*
X553762Y443852D02*
X558210Y448300D01*
X553762Y441602D02*
Y443852D01*
X553100Y440940D02*
X553762Y441602D01*
X481042Y234875D02*
X481272Y234645D01*
X481042Y234875D02*
Y244461D01*
X478790Y246714D02*
X481042Y244461D01*
X478790Y246714D02*
Y247650D01*
X422772Y234645D02*
Y234720D01*
X422542Y234950D02*
X422772Y234720D01*
X417830Y234950D02*
X422542D01*
X474772Y216860D02*
Y234645D01*
Y216860D02*
X477002Y214630D01*
X477520D01*
Y198630D02*
Y205740D01*
X429272Y215888D02*
Y234645D01*
Y215888D02*
X430530Y214630D01*
X641599Y639534D02*
X648349D01*
X652780Y635103D01*
X629481Y694100D02*
X633046D01*
X633720Y693426D01*
Y687080D02*
Y693426D01*
Y687080D02*
X633730Y687070D01*
X659130Y680360D02*
Y689610D01*
X641599Y672034D02*
X648349D01*
X650809Y674494D01*
X651672D01*
X654578Y677400D01*
X655170D01*
X658130Y680360D01*
X659130D01*
X652780Y665534D02*
X656406D01*
X641599D02*
X652780D01*
X658130Y672360D02*
X659130D01*
X652780Y667010D02*
X658130Y672360D01*
X652780Y665534D02*
Y667010D01*
X656406Y665534D02*
X658830Y663110D01*
X659130D01*
X673780Y648420D02*
X674500Y647700D01*
X681990D01*
X659780Y646420D02*
Y648420D01*
Y646420D02*
X665789Y640411D01*
X666012D01*
X659780Y648420D02*
Y650420D01*
X651396Y658804D02*
X659780Y650420D01*
X641829Y658804D02*
X651396D01*
X641599Y659034D02*
X641829Y658804D01*
X586099Y672034D02*
Y678534D01*
Y672034D02*
X586303Y671830D01*
X600925D01*
X605790Y610588D02*
Y666965D01*
X600925Y671830D02*
X605790Y666965D01*
X613888Y602490D02*
X622810D01*
X605790Y610588D02*
X613888Y602490D01*
X626420Y610360D02*
X627650Y611590D01*
X626420Y606100D02*
Y610360D01*
X622810Y602490D02*
X626420Y606100D01*
X618400Y611590D02*
Y611890D01*
X612400Y617890D02*
X618400Y611890D01*
X612400Y617890D02*
Y618590D01*
X652780Y619770D02*
Y635103D01*
X644900Y611890D02*
X652780Y619770D01*
X644900Y611590D02*
Y611890D01*
X635650Y625590D02*
X644900D01*
X626591Y638810D02*
Y644368D01*
Y626648D02*
Y638810D01*
X618400Y625590D02*
X620330Y627520D01*
Y632549D01*
X626591Y638810D01*
X634527Y652304D02*
X641369D01*
X626591Y626648D02*
X627650Y625590D01*
X626591Y644368D02*
X634527Y652304D01*
X641369D02*
X641599Y652534D01*
X630401Y633638D02*
X632690Y631349D01*
X634849Y646034D02*
X641599D01*
X632697Y643882D02*
X634849Y646034D01*
X632605Y643882D02*
X632697D01*
X630401Y641678D02*
X632605Y643882D01*
X630401Y633638D02*
Y641678D01*
X635650Y625590D02*
Y626590D01*
X632690Y629550D02*
X635650Y626590D01*
X632690Y629550D02*
Y631349D01*
X588581Y694100D02*
X588860Y694380D01*
X600400D01*
X600710Y694690D01*
X600120Y727700D02*
Y729700D01*
X594783Y722363D02*
X600120Y727700D01*
X594783Y720532D02*
Y722363D01*
X594120Y719870D02*
X594783Y720532D01*
X586120Y729700D02*
Y731700D01*
X591830Y737410D01*
X592207D01*
X588581Y713600D02*
Y727239D01*
X586120Y729700D02*
X588581Y727239D01*
X570685Y693705D02*
X570970Y693990D01*
X562895Y693705D02*
X570685D01*
X562610Y693420D02*
X562895Y693705D01*
X565830Y721350D02*
Y723350D01*
X561382Y716902D02*
X565830Y721350D01*
X561382Y714652D02*
Y716902D01*
X560720Y713990D02*
X561382Y714652D01*
X550470Y706990D02*
Y723767D01*
X558062Y731359D01*
X639059Y795744D02*
X645809D01*
X650240Y791313D01*
X660265Y751840D02*
X688421Y779996D01*
X768931Y780106D02*
X768946D01*
X769620Y779432D01*
Y773890D02*
Y779432D01*
X798581Y766366D02*
Y775616D01*
X781050Y758040D02*
X787800D01*
X790260Y760500D01*
X791123D01*
X794029Y763406D01*
X794621D01*
X797581Y766366D01*
X798581D01*
X796651Y751046D02*
X798581Y749116D01*
X792249Y751046D02*
X796651D01*
X791755Y751540D02*
X792249Y751046D01*
X781050Y751540D02*
X791755D01*
X796351Y756136D01*
Y757136D01*
X797581Y758366D01*
X798581D01*
X813231Y734426D02*
X813597Y734060D01*
X799231Y732426D02*
Y734426D01*
Y732426D02*
X804518Y727139D01*
Y725832D02*
Y727139D01*
Y725832D02*
X805180Y725170D01*
X799231Y734426D02*
Y736426D01*
X790847Y744810D02*
X799231Y736426D01*
X781280Y744810D02*
X790847D01*
X781050Y745040D02*
X781280Y744810D01*
X725550Y758040D02*
Y764540D01*
Y758040D02*
X739505D01*
X744220Y753325D01*
Y693420D02*
X746760Y690880D01*
X744220Y693420D02*
Y753325D01*
X746760Y690880D02*
X761427D01*
X767101Y696596D02*
Y697596D01*
X763899Y693394D02*
X767101Y696596D01*
X763899Y693352D02*
Y693394D01*
X761427Y690880D02*
X763899Y693352D01*
X757851Y697596D02*
Y697896D01*
X751851Y703896D02*
X757851Y697896D01*
X781050Y725540D02*
X787800D01*
X792480Y720860D01*
Y706025D02*
Y720860D01*
X784351Y697596D02*
Y697896D01*
X792480Y706025D01*
X775101Y711596D02*
X784351D01*
X757851D02*
X759546Y713291D01*
Y718906D01*
X763270Y722630D01*
X767101Y711596D02*
Y718799D01*
X763270Y722630D02*
X767101Y718799D01*
X763270Y722630D02*
Y731520D01*
X770290Y738540D02*
X781050D01*
X763270Y731520D02*
X770290Y738540D01*
X780820Y731810D02*
X781050Y732040D01*
X771180Y731810D02*
X780820D01*
X768350Y728980D02*
X771180Y731810D01*
X768350Y723900D02*
Y728980D01*
X773871Y712826D02*
X775101Y711596D01*
X773871Y712826D02*
Y718379D01*
X768350Y723900D02*
X773871Y718379D01*
X725571Y815706D02*
Y817706D01*
X731580Y823715D01*
X731803D01*
X726245Y799606D02*
X728031D01*
X725571Y800281D02*
X726245Y799606D01*
X725571Y800281D02*
Y815706D01*
X739571Y813706D02*
Y815706D01*
X733561Y807697D02*
X739571Y813706D01*
X733338Y807697D02*
X733561D01*
X728031Y780106D02*
X728195Y779943D01*
X740247D01*
X740410Y779780D01*
X727976Y786551D02*
X728031Y786606D01*
X710476Y786551D02*
X727976D01*
X710421Y786496D02*
X710476Y786551D01*
X710421Y792996D02*
X710476Y793051D01*
X727976D01*
X728031Y793106D01*
X710313Y779888D02*
X710421Y779996D01*
X702418Y779888D02*
X710313D01*
X702310Y779780D02*
X702418Y779888D01*
X705281Y809180D02*
Y809356D01*
Y809180D02*
X708011Y806450D01*
X712470D01*
X689921Y792996D02*
Y809773D01*
X697513Y817365D01*
X725550Y906630D02*
Y913130D01*
X565366Y928586D02*
X689921D01*
X682344Y903886D02*
X691901D01*
X675640Y910590D02*
X682344Y903886D01*
X744220Y913130D02*
X781050D01*
X763431Y948196D02*
X768931D01*
X755042Y939807D02*
X763431Y948196D01*
X755042Y934112D02*
Y939807D01*
X754380Y933450D02*
X755042Y934112D01*
X725550Y880630D02*
X725780Y880400D01*
X737580D01*
X737870Y880110D01*
X812281Y924206D02*
X812581D01*
X806541Y929946D02*
X812281Y924206D01*
X782418Y929946D02*
X806541D01*
X781050Y928578D02*
X782418Y929946D01*
X768931Y935196D02*
Y941696D01*
X781050Y913130D02*
Y928578D01*
X774431Y935196D02*
X781050Y928578D01*
X768931Y935196D02*
X774431D01*
X813231Y882975D02*
X813556Y882650D01*
X820420D01*
X799231Y880975D02*
Y882975D01*
Y880975D02*
X805240Y874966D01*
X805463D01*
X799231Y882975D02*
Y884975D01*
X790806Y893400D02*
X799231Y884975D01*
X781280Y893400D02*
X790806D01*
X781050Y893630D02*
X781280Y893400D01*
X775101Y845186D02*
Y846186D01*
X772141Y842226D02*
X775101Y845186D01*
X772141Y841634D02*
Y842226D01*
X766167Y835660D02*
X772141Y841634D01*
X725550Y862806D02*
Y874130D01*
Y862806D02*
X752696Y835660D01*
X766167D01*
X741830Y906630D02*
X745490Y902970D01*
X725550Y906630D02*
X741830D01*
X745490Y848254D02*
X753599Y840146D01*
X745490Y848254D02*
Y902970D01*
X767101Y845186D02*
Y846186D01*
X763899Y841984D02*
X767101Y845186D01*
X763899Y841942D02*
Y841984D01*
X762103Y840146D02*
X763899Y841942D01*
X753599Y840146D02*
X762103D01*
X755921Y848116D02*
X757851Y846186D01*
X755921Y848116D02*
Y850137D01*
X754577Y851480D02*
X755921Y850137D01*
X754577Y851480D02*
Y852417D01*
X765871Y861416D02*
X767101Y860186D01*
X765871Y861416D02*
Y866079D01*
X763270Y868680D02*
X765871Y866079D01*
X759781Y865191D02*
X763270Y868680D01*
X757851Y860186D02*
X759781Y862116D01*
Y865191D01*
X763270Y868680D02*
Y880110D01*
X770290Y887130D01*
X781050D01*
X774300Y880630D02*
X781050D01*
X772148Y878478D02*
X774300Y880630D01*
X772056Y878478D02*
X772148D01*
X769620Y876042D02*
X772056Y878478D01*
X769620Y870767D02*
Y876042D01*
X773871Y861416D02*
X775101Y860186D01*
X773871Y861416D02*
Y866516D01*
X769620Y870767D02*
X773871Y866516D01*
X775101Y860186D02*
X784351D01*
X725550Y874130D02*
Y880630D01*
X706745D02*
X725550D01*
X704601Y878486D02*
X706745Y880630D01*
X725571Y964296D02*
Y966296D01*
X731580Y972305D01*
X731803D01*
X726245Y948196D02*
X728031D01*
X725571Y948871D02*
X726245Y948196D01*
X725571Y948871D02*
Y964296D01*
X739571Y962296D02*
Y964296D01*
X733531Y956256D02*
X739571Y962296D01*
X733531Y955500D02*
Y956256D01*
X728031Y928696D02*
X728195Y928533D01*
X738977D01*
X739140Y928370D01*
X580936Y850311D02*
X586040D01*
X577902Y847277D02*
X580936Y850311D01*
X577902Y845446D02*
Y847277D01*
X577240Y844784D02*
X577902Y845446D01*
X710421Y928586D02*
X711921D01*
X715947Y924560D01*
X716280D01*
X705281Y957946D02*
X707727Y955500D01*
X713740D01*
X689921Y941586D02*
Y958363D01*
X697513Y965955D01*
X597580Y883910D02*
Y885910D01*
X591571Y877901D02*
X597580Y883910D01*
X591348Y877901D02*
X591571D01*
X583580Y885910D02*
Y887910D01*
X589590Y893919D01*
X589812D01*
X583580Y870485D02*
Y885910D01*
Y870485D02*
X584254Y869810D01*
X586040D01*
X568145Y849915D02*
X568430Y850200D01*
X561625Y849915D02*
X568145D01*
X561340Y849630D02*
X561625Y849915D01*
X563290Y877560D02*
Y879560D01*
X558842Y873112D02*
X563290Y877560D01*
X558842Y870862D02*
Y873112D01*
X558180Y870200D02*
X558842Y870862D01*
X549290Y879560D02*
Y881560D01*
X555299Y887569D01*
X555522D01*
X549290Y863930D02*
Y879560D01*
X548560Y863200D02*
X549290Y863930D01*
X547930Y863200D02*
X548560D01*
X585985Y856755D02*
X586040Y856811D01*
X568485Y856755D02*
X585985D01*
X568430Y856700D02*
X568485Y856755D01*
X585985Y863255D02*
X586040Y863310D01*
X568485Y863255D02*
X585985D01*
X568430Y863200D02*
X568485Y863255D01*
X583559Y828244D02*
Y834744D01*
Y828244D02*
X598816D01*
X603468Y823592D01*
Y818098D02*
Y823592D01*
X625110Y766800D02*
Y767800D01*
X621908Y763598D02*
X625110Y766800D01*
X621908Y763556D02*
Y763598D01*
X620112Y761760D02*
X621908Y763556D01*
X609840Y761760D02*
X620112D01*
X615860Y767800D02*
Y768100D01*
X609860Y774100D02*
X615860Y768100D01*
X609860Y774100D02*
Y774800D01*
X650240Y775980D02*
Y791313D01*
X642360Y767800D02*
Y768100D01*
X650240Y775980D01*
X625110Y781800D02*
Y782800D01*
X621030Y786880D02*
X625110Y782800D01*
X621030Y786880D02*
Y787270D01*
X615860Y781800D02*
Y782100D01*
X621030Y787270D01*
Y802640D01*
X627134Y808744D02*
X639059D01*
X621030Y802640D02*
X627134Y808744D01*
X633110Y781800D02*
X642360D01*
X631880Y783030D02*
X633110Y781800D01*
X631880Y783030D02*
Y787980D01*
X627380Y792480D02*
X631880Y787980D01*
X627380Y792480D02*
Y800100D01*
X638829Y802014D02*
X639059Y802244D01*
X629294Y802014D02*
X638829D01*
X627380Y800100D02*
X629294Y802014D01*
X671240Y802630D02*
Y804630D01*
X665231Y796621D02*
X671240Y802630D01*
X665008Y796621D02*
X665231D01*
X657240Y804630D02*
Y806630D01*
X663590Y812980D01*
Y813320D01*
X648856Y815014D02*
X657240Y806630D01*
X639289Y815014D02*
X648856D01*
X639059Y815244D02*
X639289Y815014D01*
X654660Y821250D02*
X656590Y819320D01*
X650258Y821250D02*
X654660D01*
X649764Y821744D02*
X650258Y821250D01*
X639059Y821744D02*
X649764D01*
X654360Y826340D01*
Y827340D01*
X655590Y828570D01*
X656590D01*
Y836570D02*
Y845820D01*
X639059Y828244D02*
X645809D01*
X648269Y830704D01*
X649132D01*
X652038Y833610D01*
X652630D01*
X655590Y836570D01*
X656590D01*
X385690Y376310D02*
X392190D01*
X383538Y374158D02*
X385690Y376310D01*
X383446Y374158D02*
X383538D01*
X380852Y371564D02*
X383446Y374158D01*
X380852Y367222D02*
Y371564D01*
X380190Y366560D02*
X380852Y367222D01*
X385690Y356810D02*
X392190D01*
X383538Y358962D02*
X385690Y356810D01*
X383446Y358962D02*
X383538D01*
X380852Y361556D02*
X383446Y358962D01*
X380852Y361556D02*
Y365898D01*
X380190Y366560D02*
X380852Y365898D01*
X424940Y391160D02*
X425195Y391415D01*
X424940Y340050D02*
Y341630D01*
X422710Y337820D02*
X424940Y340050D01*
X392190Y343810D02*
X398690D01*
X400870Y341630D01*
X408940D01*
X302260Y389890D02*
Y392390D01*
X304490Y394620D01*
X309530D01*
X309880Y394970D01*
X302770Y340050D02*
Y341630D01*
Y340050D02*
X305000Y337820D01*
X317500Y358140D02*
X325100D01*
X317500D02*
X319080Y359720D01*
X325100D01*
X335190Y350310D02*
X335295Y350415D01*
X347045D01*
X328690Y363310D02*
X335190D01*
X325100Y359720D02*
X328690Y363310D01*
X318840Y389310D02*
X335190D01*
X318260Y389890D02*
X318840Y389310D01*
X320950Y343810D02*
X335190D01*
X318770Y341630D02*
X320950Y343810D01*
X552450Y143510D02*
X562610Y153670D01*
X298450Y143510D02*
X552450D01*
X560070Y139700D02*
X568960Y148590D01*
X295758Y139700D02*
X560070D01*
X567690Y135890D02*
X575310Y143510D01*
X292100Y135890D02*
X567690D01*
X575310Y132080D02*
X581660Y138430D01*
X289560Y132080D02*
X575310D01*
X587394Y133350D02*
X588010D01*
X582314Y128270D02*
X587394Y133350D01*
X284903Y128270D02*
X582314D01*
X586432Y127000D02*
X695960D01*
X702310Y120650D01*
X283210Y124460D02*
X583892D01*
X586432Y127000D01*
X643890Y123190D02*
X647700Y119380D01*
X588010Y123190D02*
X643890D01*
X585470Y120650D02*
X588010Y123190D01*
X222250Y190923D02*
X284903Y128270D01*
X223368Y212090D02*
X295758Y139700D01*
X222035Y212090D02*
X223368D01*
X212752Y221373D02*
X222035Y212090D01*
X223540Y198100D02*
X289560Y132080D01*
X227330Y162560D02*
X230832D01*
X276552Y116840D01*
X593090D01*
X278130Y120650D02*
X585470D01*
X222250Y176530D02*
X278130Y120650D01*
X222673Y205317D02*
X292100Y135890D01*
X222250Y219710D02*
X298450Y143510D01*
X212090Y184150D02*
X212550Y183690D01*
Y177340D02*
Y183690D01*
Y177340D02*
X227330Y162560D01*
X212752Y205412D02*
X220063Y198100D01*
X223540D01*
X223520Y184150D02*
X283210Y124460D01*
X212752Y191323D02*
X219925Y184150D01*
X223520D01*
X222250Y219710D02*
X222250D01*
X222250Y205317D02*
X222673D01*
X212090Y198120D02*
X212752Y197458D01*
Y191323D02*
Y197458D01*
X212090Y212090D02*
X212752Y211428D01*
Y205412D02*
Y211428D01*
Y221373D02*
Y225398D01*
X212090Y226060D02*
X212752Y225398D01*
X-94725Y448420D02*
X-93980Y447675D01*
X-124528Y448420D02*
X-94725D01*
X-2670Y336420D02*
X-2540Y336550D01*
X-124528Y336420D02*
X-2670D01*
X578479Y392484D02*
X578506Y392457D01*
X593063D01*
X593090Y392430D01*
X725799Y320094D02*
X736546D01*
X740410Y316230D01*
X594360Y250190D02*
Y251126D01*
X591820Y253666D02*
X594360Y251126D01*
X591820Y253666D02*
Y254000D01*
X578479Y256594D02*
X589226D01*
X591820Y254000D01*
X725550Y173690D02*
X725780Y173920D01*
X735594D01*
X665510Y390060D02*
X665595Y389975D01*
X675555D01*
X675640Y389890D01*
X812581Y171266D02*
X814511Y173196D01*
X812830Y317670D02*
X813130D01*
X659271Y257644D02*
X660208D01*
X661751Y256100D01*
X663580D01*
X665510Y254170D01*
X673130Y663110D02*
X680550D01*
X680720Y662940D01*
X810651Y751046D02*
X812581Y749116D01*
X808064Y751046D02*
X810651D01*
X807287Y751823D02*
X808064Y751046D01*
X806351Y751823D02*
X807287D01*
X670590Y819320D02*
X672520Y821250D01*
X676169D01*
X677244Y822325D01*
X678180D01*
X586099Y665534D02*
X586126Y665507D01*
X599413D01*
X599440Y665480D01*
X725550Y751540D02*
X725735Y751725D01*
X737615D01*
X737800Y751910D01*
X583559Y821744D02*
X583789Y821974D01*
X596549D01*
X596900Y822325D01*
X725550Y900130D02*
X725700Y900280D01*
X737720D01*
X737870Y900430D01*
X499110Y862330D02*
X565366Y928586D01*
X557530Y383540D02*
X560070Y381000D01*
X568626D01*
X578249Y379714D02*
X578479Y379484D01*
X569912Y379714D02*
X578249D01*
X568626Y381000D02*
X569912Y379714D01*
X481272Y291645D02*
Y298145D01*
X607060Y326390D02*
X666510D01*
X467360Y191770D02*
Y219710D01*
X468272Y220622D01*
Y234645D01*
X704601Y164746D02*
X706787Y162560D01*
X713740D01*
X725320Y160920D02*
X725550Y160690D01*
X715380Y160920D02*
X725320D01*
X713740Y162560D02*
Y182880D01*
Y162560D02*
X715380Y160920D01*
X710700Y185920D02*
X713740Y182880D01*
X473210Y185920D02*
X710700D01*
X467360Y191770D02*
X473210Y185920D01*
X557530Y247650D02*
X558603Y246577D01*
X566223D01*
X578249Y243824D02*
X578479Y243594D01*
X568976Y243824D02*
X578249D01*
X566223Y246577D02*
X568976Y243824D01*
X566223Y246577D02*
Y266599D01*
X535940Y269240D02*
X563582D01*
X566223Y266599D01*
X528320Y261620D02*
X535940Y269240D01*
X492760Y251460D02*
X502920Y261620D01*
X528320D01*
X435610Y246380D02*
X435772Y246218D01*
Y234645D02*
Y246218D01*
X704601Y891186D02*
X705517Y890270D01*
X713740D01*
X725320Y887360D02*
X725550Y887130D01*
X716650Y887360D02*
X725320D01*
X713740Y890270D02*
X716650Y887360D01*
X713740Y890270D02*
Y909827D01*
X705357Y918210D02*
X713740Y909827D01*
X497840Y850900D02*
X565150Y918210D01*
X562610Y812800D02*
X566340Y809070D01*
X573468D01*
X573794Y808744D01*
X570230Y805180D02*
X573794Y808744D01*
X583559D01*
X570230Y785268D02*
Y805180D01*
X335190Y337310D02*
X346200D01*
X704601Y742596D02*
X708331Y738866D01*
X714894D01*
X715450Y738310D01*
X725320D02*
X725550Y738540D01*
X715450Y738310D02*
X725320D01*
X713740Y736600D02*
X715450Y738310D01*
X713740Y722630D02*
Y736600D01*
X708660Y717550D02*
X713740Y722630D01*
X652780Y742950D02*
X678180Y717550D01*
X547370Y742950D02*
X652780D01*
X391960Y350540D02*
X392190Y350310D01*
X382250Y350540D02*
X391960D01*
X374650Y358140D02*
X382250Y350540D01*
X574040Y652534D02*
X586099D01*
X569206D02*
X574040D01*
X381218Y382810D02*
X392190D01*
X379730Y384298D02*
X381218Y382810D01*
X534670Y679450D02*
X569623D01*
X574040Y675033D01*
Y652534D02*
Y675033D01*
X565150Y656590D02*
X569206Y652534D01*
X688670Y348550D02*
X690170D01*
X688421Y202146D02*
X689921D01*
X544830Y190500D02*
X676775D01*
X472440Y262890D02*
X544830Y190500D01*
X446657Y247779D02*
X447593D01*
X455042Y234875D02*
X455272Y234645D01*
X455042Y234875D02*
Y253618D01*
X454660Y254000D02*
X455042Y253618D01*
X453724Y254000D02*
X454660D01*
X448772Y234645D02*
Y246600D01*
X447593Y247779D02*
X448772Y246600D01*
X539050Y693990D02*
X550470D01*
X535940Y690880D02*
X539050Y693990D01*
X542290Y751840D02*
X660265D01*
X533400Y742950D02*
X542290Y751840D01*
X688421Y779996D02*
X689921D01*
X536510Y850200D02*
X547930D01*
X528320Y842010D02*
X536510Y850200D01*
X-124528Y328420D02*
X-124148Y328040D01*
X-77850D01*
X-77470Y327660D01*
D24*
X-124528Y672420D02*
D03*
Y664420D02*
D03*
Y656420D02*
D03*
Y648420D02*
D03*
Y640420D02*
D03*
Y632420D02*
D03*
Y624420D02*
D03*
Y616420D02*
D03*
Y608420D02*
D03*
Y600420D02*
D03*
Y592420D02*
D03*
Y584420D02*
D03*
Y576420D02*
D03*
Y568420D02*
D03*
Y560420D02*
D03*
Y552420D02*
D03*
Y544420D02*
D03*
Y536420D02*
D03*
Y528420D02*
D03*
Y520420D02*
D03*
Y512420D02*
D03*
Y504420D02*
D03*
Y464420D02*
D03*
Y456420D02*
D03*
Y448420D02*
D03*
Y440420D02*
D03*
Y432420D02*
D03*
Y424420D02*
D03*
Y416420D02*
D03*
Y408420D02*
D03*
Y400420D02*
D03*
Y392420D02*
D03*
Y384420D02*
D03*
Y376420D02*
D03*
Y368420D02*
D03*
Y360420D02*
D03*
Y352420D02*
D03*
Y344420D02*
D03*
Y336420D02*
D03*
Y328420D02*
D03*
D28*
X424940Y341630D02*
D03*
X408940D02*
D03*
X302770D02*
D03*
X318770D02*
D03*
X424940Y391160D02*
D03*
X408940D02*
D03*
X302260Y389890D02*
D03*
X318260D02*
D03*
D29*
X673100Y168880D02*
D03*
Y182880D02*
D03*
X529590Y675640D02*
D03*
Y661640D02*
D03*
X701040Y715040D02*
D03*
Y701040D02*
D03*
X661670Y915700D02*
D03*
Y901700D02*
D03*
X523760Y258330D02*
D03*
Y244330D02*
D03*
X-58420Y425450D02*
D03*
Y439450D02*
D03*
X317500Y358140D02*
D03*
Y372140D02*
D03*
D31*
X704850Y280670D02*
D03*
X690850D02*
D03*
X552480Y349980D02*
D03*
X538480D02*
D03*
X567690Y782320D02*
D03*
X553690D02*
D03*
X-7620Y425450D02*
D03*
X6380D02*
D03*
X444500Y312420D02*
D03*
X458500D02*
D03*
X813231Y156576D02*
D03*
X799231D02*
D03*
X739571Y237856D02*
D03*
X725571D02*
D03*
X666160Y239480D02*
D03*
X652160D02*
D03*
X592500Y320760D02*
D03*
X578500D02*
D03*
X813480Y302980D02*
D03*
X799480D02*
D03*
X739820Y384260D02*
D03*
X725820D02*
D03*
X666160Y375370D02*
D03*
X652160D02*
D03*
X592500Y456650D02*
D03*
X578500D02*
D03*
X673780Y648420D02*
D03*
X659780D02*
D03*
X600120Y729700D02*
D03*
X586120D02*
D03*
X671240Y804630D02*
D03*
X657240D02*
D03*
X597580Y885910D02*
D03*
X583580D02*
D03*
X813231Y734426D02*
D03*
X799231D02*
D03*
X739571Y815706D02*
D03*
X725571D02*
D03*
X813231Y882975D02*
D03*
X799231D02*
D03*
X739571Y964296D02*
D03*
X725571D02*
D03*
X691281Y957946D02*
D03*
X705281D02*
D03*
X549290Y879560D02*
D03*
X563290D02*
D03*
X691281Y231506D02*
D03*
X705281D02*
D03*
X691281Y809356D02*
D03*
X705281D02*
D03*
X551830Y723350D02*
D03*
X565830D02*
D03*
X544210Y450300D02*
D03*
X558210D02*
D03*
X691530Y377910D02*
D03*
X705530D02*
D03*
X544210Y314410D02*
D03*
X558210D02*
D03*
D36*
X477520Y198630D02*
D03*
Y214630D02*
D03*
X427990Y325880D02*
D03*
Y309880D02*
D03*
X430530Y198630D02*
D03*
Y214630D02*
D03*
X476250Y325880D02*
D03*
Y309880D02*
D03*
D45*
X812581Y188516D02*
D03*
Y180516D02*
D03*
X798581Y188516D02*
D03*
Y180516D02*
D03*
X665510Y271420D02*
D03*
Y263420D02*
D03*
X651510Y271420D02*
D03*
Y263420D02*
D03*
X812830Y334920D02*
D03*
Y326920D02*
D03*
X798830Y334920D02*
D03*
Y326920D02*
D03*
X665510Y407310D02*
D03*
Y399310D02*
D03*
X651510Y407310D02*
D03*
Y399310D02*
D03*
X673130Y680360D02*
D03*
Y672360D02*
D03*
X659130Y680360D02*
D03*
Y672360D02*
D03*
X670590Y836570D02*
D03*
Y828570D02*
D03*
X656590Y836570D02*
D03*
Y828570D02*
D03*
X812581Y766366D02*
D03*
Y758366D02*
D03*
X798581Y766366D02*
D03*
Y758366D02*
D03*
X812581Y914956D02*
D03*
Y906956D02*
D03*
X798581Y914956D02*
D03*
Y906956D02*
D03*
D46*
X812581Y197766D02*
D03*
Y171266D02*
D03*
X798581Y197766D02*
D03*
Y171266D02*
D03*
X665510Y280670D02*
D03*
Y254170D02*
D03*
X651510Y280670D02*
D03*
Y254170D02*
D03*
X812830Y344170D02*
D03*
Y317670D02*
D03*
X798830Y344170D02*
D03*
Y317670D02*
D03*
X665510Y416560D02*
D03*
Y390060D02*
D03*
X651510Y416560D02*
D03*
Y390060D02*
D03*
X673130Y689610D02*
D03*
Y663110D02*
D03*
X659130Y689610D02*
D03*
Y663110D02*
D03*
X670590Y845820D02*
D03*
Y819320D02*
D03*
X656590Y845820D02*
D03*
Y819320D02*
D03*
X812581Y775616D02*
D03*
Y749116D02*
D03*
X798581Y775616D02*
D03*
Y749116D02*
D03*
X812581Y924206D02*
D03*
Y897706D02*
D03*
X798581Y924206D02*
D03*
Y897706D02*
D03*
D97*
X790800Y126979D02*
Y144690D01*
X790351Y126529D02*
X790800Y126979D01*
X787800Y147690D02*
X790800Y144690D01*
X790351Y126046D02*
Y126529D01*
X784351Y120046D02*
X790351Y126046D01*
X689610Y191770D02*
X739140D01*
X744220Y186690D02*
X781050D01*
X739140Y191770D02*
X744220Y186690D01*
X768931Y202256D02*
X769158D01*
X769620Y201794D01*
Y194310D02*
Y201794D01*
X781050Y147690D02*
X787800D01*
X784351Y119746D02*
Y120046D01*
X768896Y221792D02*
X768931Y221756D01*
X758190Y221792D02*
X768896D01*
X755650Y218440D02*
Y219252D01*
X758190Y221792D01*
X737120Y154190D02*
X737870Y154940D01*
X725550Y154190D02*
X737120D01*
X812281Y197766D02*
X812581D01*
X810581Y199466D02*
X812281Y197766D01*
X810581Y199466D02*
Y202879D01*
X782402Y203736D02*
X809724D01*
X810581Y202879D01*
X781050Y202383D02*
X782402Y203736D01*
X768931Y208756D02*
Y215256D01*
X781050Y186690D02*
Y202383D01*
X774677Y208756D02*
X781050Y202383D01*
X768931Y208756D02*
X774677D01*
X704601Y152046D02*
X716656D01*
X718800Y154190D01*
X725550D01*
Y147690D02*
Y154190D01*
Y122810D02*
Y147690D01*
Y122810D02*
X746760Y101600D01*
X763270D01*
X775101Y113431D01*
Y119746D01*
X607976Y678534D02*
X641599D01*
X607060Y679450D02*
X607976Y678534D01*
X586099Y632050D02*
Y639534D01*
Y624565D02*
Y632050D01*
X623710Y713600D02*
X629481D01*
X620613Y710504D02*
X623710Y713600D01*
X617794Y710504D02*
X620613D01*
X617220Y709930D02*
X617794Y710504D01*
X672830Y689610D02*
X673130D01*
X666830Y695610D02*
X672830Y689610D01*
X642982Y695610D02*
X666830D01*
X641599Y694228D02*
X642982Y695610D01*
X629481Y700601D02*
Y707101D01*
X641599Y678534D02*
Y694228D01*
X635226Y700601D02*
X641599Y694228D01*
X629481Y700601D02*
X635226D01*
X586099Y639534D02*
Y646034D01*
X634650Y607980D02*
Y610590D01*
X635650Y611590D01*
X625120Y598450D02*
X634650Y607980D01*
X586099Y624565D02*
X612215Y598450D01*
X625120D01*
X565150Y643890D02*
X577205D01*
X579349Y646034D01*
X586099D01*
X588525Y700545D02*
X588581Y700601D01*
X571025Y700545D02*
X588525D01*
X570970Y700490D02*
X571025Y700545D01*
X570970Y706990D02*
X571025Y707045D01*
X588525D01*
X588581Y707101D01*
X392190Y389310D02*
X407090D01*
X408940Y391160D01*
X582930Y789940D02*
Y798365D01*
X583559Y798994D02*
Y802244D01*
Y795744D02*
Y798994D01*
X582930Y798365D02*
X583559Y798994D01*
X754133Y764540D02*
X781050D01*
X748133Y770540D02*
X754133Y764540D01*
X680720Y759460D02*
X691800Y770540D01*
X748133D01*
X686971Y747526D02*
X691901Y742596D01*
X685753Y747526D02*
X686971D01*
X680720Y752559D02*
X685753Y747526D01*
X680720Y752559D02*
Y759460D01*
X725550Y718820D02*
Y725540D01*
Y706377D02*
Y718820D01*
X768740Y799415D02*
X768931Y799606D01*
X759587Y799415D02*
X768740D01*
X757732Y797560D02*
X759587Y799415D01*
X756920Y797560D02*
X757732D01*
X768931Y786606D02*
Y793106D01*
X787800Y764540D02*
Y775453D01*
X768931Y786606D02*
X774677D01*
X785831Y775453D01*
X787800D01*
X812281Y775616D02*
X812581D01*
X805577Y782320D02*
X812281Y775616D01*
X794667Y782320D02*
X805577D01*
X781050Y764540D02*
X787800D01*
Y775453D02*
X794667Y782320D01*
X717780Y732040D02*
X725550D01*
Y725540D02*
Y732040D01*
Y706377D02*
X745087Y686840D01*
X766262D01*
X775101Y696596D02*
Y697596D01*
X772371Y693866D02*
X775101Y696596D01*
X772371Y692949D02*
Y693866D01*
X766262Y686840D02*
X772371Y692949D01*
X791210Y853345D02*
Y868680D01*
X768931Y928696D02*
X769158D01*
X769620Y928234D01*
Y922020D02*
Y928234D01*
X791210Y868680D02*
Y870720D01*
X781050Y874130D02*
X787800D01*
X791210Y870720D01*
X784351Y846186D02*
Y846486D01*
X791210Y853345D01*
X727976Y935141D02*
X728031Y935196D01*
X710476Y935141D02*
X727976D01*
X710421Y935086D02*
X710476Y935141D01*
X626940Y850311D02*
X627380Y849871D01*
Y843280D02*
Y849871D01*
X626871Y869880D02*
X626940Y869810D01*
X614750Y869880D02*
X626871D01*
X614680Y869950D02*
X614750Y869880D01*
X582930Y789940D02*
X583447Y789423D01*
Y782440D02*
Y789423D01*
X544980Y817730D02*
X549910Y812800D01*
X543763Y817730D02*
X544980D01*
X538480Y823013D02*
X543763Y817730D01*
X538480Y823013D02*
Y829310D01*
X546100Y836930D02*
X572078D01*
X538480Y829310D02*
X546100Y836930D01*
X574162Y839014D02*
X594079D01*
X572078Y836930D02*
X574162Y839014D01*
X611876Y856811D02*
X626940D01*
X594079Y839014D02*
X611876Y856811D01*
X632110Y766800D02*
X633110Y767800D01*
X608167Y757720D02*
X624947D01*
X632110Y764883D01*
X583559Y795744D02*
X590309D01*
X583447Y782440D02*
X608167Y757720D01*
X632110Y764883D02*
Y766800D01*
X639059Y839719D02*
Y850438D01*
X670290Y845820D02*
X670590D01*
X663940Y852170D02*
X670290Y845820D01*
X651510Y852170D02*
X663940D01*
X639059Y834744D02*
Y839719D01*
X651510Y852170D01*
X626940Y856811D02*
Y863310D01*
X632686Y856811D02*
X639059Y850438D01*
X626940Y856811D02*
X632686D01*
D98*
X-92497Y509944D02*
X-79631Y497078D01*
X-124528Y512420D02*
X-113278D01*
X-110801Y509944D02*
X-92497D01*
X-113278Y512420D02*
X-110801Y509944D01*
X-93759Y506896D02*
X-80893Y494030D01*
X-110801Y506896D02*
X-93759D01*
X-113278Y504420D02*
X-110801Y506896D01*
X-124528Y504420D02*
X-113278D01*
X-79631Y497078D02*
X-57658D01*
X-57150Y496570D01*
X-80893Y494030D02*
X-63507D01*
X-61967Y492490D01*
X-61230D01*
X-72662Y511302D02*
X-71634Y510274D01*
X-70897D01*
X-113278Y536420D02*
X-110801Y533944D01*
X-95909D01*
X-124528Y536420D02*
X-113278D01*
X-73267Y511302D02*
X-72662D01*
X-95909Y533944D02*
X-73267Y511302D01*
X-113278Y528420D02*
X-110801Y530896D01*
X-97171D01*
X-124528Y528420D02*
X-113278D01*
X-76721Y508521D02*
X-76200Y508000D01*
X-97171Y530896D02*
X-76721Y510446D01*
Y508521D02*
Y510446D01*
X-82801Y540541D02*
X-82280Y540020D01*
X-84726Y540541D02*
X-82801D01*
X-110801Y557944D02*
X-102129D01*
X-124528Y560420D02*
X-113278D01*
X-102129Y557944D02*
X-84726Y540541D01*
X-113278Y560420D02*
X-110801Y557944D01*
X-86881Y536461D02*
X-86360Y535940D01*
X-86881Y536461D02*
Y538386D01*
X-113278Y552420D02*
X-110801Y554896D01*
X-103391D01*
X-124528Y552420D02*
X-113278D01*
X-103391Y554896D02*
X-86881Y538386D01*
X-83278Y561519D02*
X-82006Y560247D01*
X-81270D01*
X-113278Y584420D02*
X-110801Y581944D01*
X-103820D01*
X-124528Y584420D02*
X-113278D01*
X-83395Y561519D02*
X-83278D01*
X-103820Y581944D02*
X-83395Y561519D01*
X-113278Y576420D02*
X-110801Y578896D01*
X-105083D01*
X-124528Y576420D02*
X-113278D01*
X-86737Y557907D02*
X-86360Y557530D01*
X-105083Y578896D02*
X-86737Y560550D01*
Y557907D02*
Y560550D01*
X-110801Y605944D02*
X-102420D01*
X-113278Y608420D02*
X-110801Y605944D01*
X-88133Y591657D02*
X-87735D01*
X-124528Y608420D02*
X-113278D01*
X-86325Y590247D02*
X-85588D01*
X-102420Y605944D02*
X-88133Y591657D01*
X-87735D02*
X-86325Y590247D01*
X-110801Y602896D02*
X-103683D01*
X-113278Y600420D02*
X-110801Y602896D01*
X-103683D02*
X-90547Y589760D01*
X-124528Y600420D02*
X-113278D01*
X-90547Y587117D02*
Y589760D01*
Y587117D02*
X-90170Y586740D01*
X733219Y255342D02*
X916846D01*
X668986Y268944D02*
X719616D01*
X721402Y267159D02*
X733219Y255342D01*
X719616Y268944D02*
X721402Y267159D01*
X854717Y653542D02*
X929945D01*
X833423Y674836D02*
X854717Y653542D01*
X676606Y674836D02*
X833423D01*
X855980Y656590D02*
X924595D01*
X834686Y677884D02*
X855980Y656590D01*
X676606Y677884D02*
X834686D01*
X934720Y773430D02*
X934871D01*
X936522Y775081D01*
X827921Y912480D02*
X936522Y803878D01*
Y775081D02*
Y803878D01*
X930910Y779490D02*
Y805180D01*
X826658Y909432D02*
X930910Y805180D01*
X812581Y906956D02*
X813581D01*
X812581Y914956D02*
X813581D01*
X816057Y912480D01*
X827921D01*
X813581Y906956D02*
X816057Y909432D01*
X826658D01*
X924846Y742785D02*
X932230D01*
X937260Y737755D01*
Y735330D02*
Y737755D01*
X854832Y812800D02*
X924846Y742785D01*
X930389Y737349D02*
X930910Y737870D01*
X926871Y737349D02*
X930389D01*
X926422Y736900D02*
X926871Y737349D01*
X766318Y809752D02*
X853570D01*
X926422Y736900D01*
X767580Y812800D02*
X854832D01*
X745024Y831046D02*
X755650Y820420D01*
X757656Y818413D02*
X766318Y809752D01*
X757656Y818413D02*
X757656D01*
X755650Y820420D02*
X757656Y818413D01*
X674066Y834094D02*
X746286D01*
X670590Y828570D02*
X671590D01*
X674066Y831046D01*
X745024D01*
X671590Y836570D02*
X674066Y834094D01*
X746286D02*
X767580Y812800D01*
X670590Y836570D02*
X671590D01*
X928370Y697230D02*
X929640D01*
X929640Y704850D02*
X937714Y696776D01*
X925061Y704850D02*
X929640D01*
X881373Y748538D02*
X925061Y704850D01*
X880110Y745490D02*
X928370Y697230D01*
X816057Y763890D02*
X821164D01*
X819902Y760842D02*
X835254Y745490D01*
X821164Y763890D02*
X836516Y748538D01*
X816057Y760842D02*
X819902D01*
X813581Y758366D02*
X816057Y760842D01*
X836516Y748538D02*
X881373D01*
X812581Y766366D02*
X813581D01*
X835254Y745490D02*
X880110D01*
X812581Y758366D02*
X813581D01*
Y766366D02*
X816057Y763890D01*
X937302Y652738D02*
Y653475D01*
X935990Y654787D02*
X937302Y653475D01*
X935990Y654787D02*
Y655320D01*
X932180Y659130D02*
X935990Y655320D01*
X924595Y656590D02*
X927135Y659130D01*
X932180D01*
X929945Y653542D02*
X930047Y653643D01*
X673130Y672360D02*
X674130D01*
X676606Y674836D01*
X674130Y680360D02*
X676606Y677884D01*
X673130Y680360D02*
X674130D01*
X923857Y220413D02*
X926482Y217788D01*
X922020Y220049D02*
X922384Y220413D01*
X923857D01*
X926482Y212505D02*
Y217788D01*
X896969Y182992D02*
X926482Y212505D01*
X816057Y182992D02*
X896969D01*
X921499Y213758D02*
X922020Y214279D01*
X919878Y213758D02*
X921499D01*
X892160Y186040D02*
X919878Y213758D01*
X813581Y180516D02*
X816057Y182992D01*
X812581Y180516D02*
X813581D01*
Y188516D02*
X816057Y186040D01*
X812581Y188516D02*
X813581D01*
X816057Y186040D02*
X892160D01*
X920611Y265184D02*
X921348D01*
X922700Y263832D01*
X922753D01*
X926364Y260221D01*
X920314Y252294D02*
X926364Y258344D01*
Y260221D01*
X731956Y252294D02*
X920314D01*
X916846Y255342D02*
X920927Y259423D01*
X922027Y299531D02*
Y299727D01*
X925830Y303530D01*
Y312920D01*
X920750Y305299D02*
Y313690D01*
X813830Y334920D02*
X816306Y332444D01*
X812830Y334920D02*
X813830D01*
Y326920D02*
X816306Y329396D01*
X812830Y326920D02*
X813830D01*
X905044Y329396D02*
X920750Y313690D01*
X816306Y329396D02*
X905044D01*
X906307Y332444D02*
X925830Y312920D01*
X816306Y332444D02*
X906307D01*
X921384Y340927D02*
X921490D01*
X925422Y344858D01*
X878366Y404834D02*
X925422Y357778D01*
Y344858D02*
Y357778D01*
X921013Y346684D02*
Y357877D01*
X877104Y401786D02*
X921013Y357877D01*
X718354Y265896D02*
X730250Y254000D01*
X731956Y252294D01*
X665510Y263420D02*
X666510D01*
X668986Y265896D01*
X666510Y271420D02*
X668986Y268944D01*
X665510Y271420D02*
X666510D01*
X668986Y265896D02*
X718354D01*
X668986Y404834D02*
X878366D01*
X665510Y399310D02*
X666510D01*
Y407310D02*
X668986Y404834D01*
Y401786D02*
X877104D01*
X665510Y407310D02*
X666510D01*
Y399310D02*
X668986Y401786D01*
X798581Y914956D02*
Y924206D01*
X781050Y906630D02*
X787800D01*
X794515Y913345D01*
X796970D01*
X798581Y914956D01*
X797581Y906956D02*
X798581D01*
X792134Y901509D02*
X797581Y906956D01*
X792134Y900130D02*
Y901509D01*
X796270Y900017D02*
X798581Y897706D01*
X792247Y900017D02*
X796270D01*
X792134Y900130D02*
X792247Y900017D01*
X781050Y900130D02*
X792134D01*
D99*
X149860Y960120D02*
X183870Y926110D01*
X219710D01*
X120723Y930983D02*
X149860Y960120D01*
X111833Y930983D02*
X120723D01*
X111760Y930910D02*
X111833Y930983D01*
D101*
X195580Y444500D02*
D03*
X64770Y449580D02*
D03*
Y485140D02*
D03*
X78740Y615950D02*
D03*
Y651510D02*
D03*
X402590Y582930D02*
D03*
X374650Y292100D02*
D03*
X377190Y607060D02*
D03*
X326390Y308610D02*
D03*
X166370Y355600D02*
D03*
X149860Y960120D02*
D03*
X99060Y405130D02*
D03*
X427990Y693420D02*
D03*
X151130Y762000D02*
D03*
X91440Y163830D02*
D03*
D102*
X278130Y551180D02*
D03*
D103*
X52630Y746760D02*
D03*
D104*
X87630D02*
D03*
X219710Y961110D02*
D03*
D105*
X704601Y152046D02*
D03*
X691901D02*
D03*
X704601Y164746D02*
D03*
X691901D02*
D03*
X704601Y177446D02*
D03*
X691901D02*
D03*
X544830Y260350D02*
D03*
X557530D02*
D03*
X544830Y247650D02*
D03*
X557530D02*
D03*
X544830Y234950D02*
D03*
X557530D02*
D03*
X704850Y298450D02*
D03*
X692150D02*
D03*
X704850Y311150D02*
D03*
X692150D02*
D03*
X704850Y323850D02*
D03*
X692150D02*
D03*
X544830Y396240D02*
D03*
X557530D02*
D03*
X544830Y383540D02*
D03*
X557530D02*
D03*
X544830Y370840D02*
D03*
X557530D02*
D03*
X565150Y643890D02*
D03*
X552450D02*
D03*
X565150Y656590D02*
D03*
X552450D02*
D03*
X565150Y669290D02*
D03*
X552450D02*
D03*
X562610Y800100D02*
D03*
X549910D02*
D03*
X562610Y812800D02*
D03*
X549910D02*
D03*
X562610Y825500D02*
D03*
X549910D02*
D03*
X691901Y755296D02*
D03*
X704601D02*
D03*
X691901Y742596D02*
D03*
X704601D02*
D03*
X691901Y729896D02*
D03*
X704601D02*
D03*
X691901Y903886D02*
D03*
X704601D02*
D03*
X691901Y891186D02*
D03*
X704601D02*
D03*
X691901Y878486D02*
D03*
X704601D02*
D03*
D106*
X219710Y926110D02*
D03*
D107*
X57150Y822960D02*
D03*
Y848360D02*
D03*
X82550Y822960D02*
D03*
Y848360D02*
D03*
D108*
X1362710Y457200D02*
D03*
Y614680D02*
D03*
D109*
X1344930Y447040D02*
D03*
X1362710Y436880D02*
D03*
X1344930Y426720D02*
D03*
X1362710Y416560D02*
D03*
X1344930Y406400D02*
D03*
X1362710Y396240D02*
D03*
X1344930Y386080D02*
D03*
Y543560D02*
D03*
X1362710Y553720D02*
D03*
X1344930Y563880D02*
D03*
X1362710Y574040D02*
D03*
X1344930Y584200D02*
D03*
X1362710Y594360D02*
D03*
X1344930Y604520D02*
D03*
D110*
X1388110Y358140D02*
D03*
Y642620D02*
D03*
D111*
X1353820Y340360D02*
D03*
Y660400D02*
D03*
D112*
X1314450Y210820D02*
D03*
D113*
X1339850D02*
D03*
X1314450Y185420D02*
D03*
X1339850D02*
D03*
X1314450Y160020D02*
D03*
X1339850D02*
D03*
X1314450Y134620D02*
D03*
X1339850D02*
D03*
X1314450Y109220D02*
D03*
X1339850D02*
D03*
D114*
X1273810Y184150D02*
D03*
X1250950Y107950D02*
D03*
X270630Y543680D02*
D03*
X285630Y513680D02*
D03*
Y528680D02*
D03*
Y543680D02*
D03*
Y588680D02*
D03*
Y573680D02*
D03*
Y558680D02*
D03*
X300630Y513680D02*
D03*
Y528680D02*
D03*
Y543680D02*
D03*
Y588680D02*
D03*
Y573680D02*
D03*
Y558680D02*
D03*
X315630Y513680D02*
D03*
Y528680D02*
D03*
Y543680D02*
D03*
Y588680D02*
D03*
Y573680D02*
D03*
Y558680D02*
D03*
X270630Y513680D02*
D03*
Y528680D02*
D03*
Y588680D02*
D03*
Y573680D02*
D03*
Y558680D02*
D03*
X255630Y513680D02*
D03*
Y528680D02*
D03*
Y543680D02*
D03*
Y588680D02*
D03*
Y573680D02*
D03*
Y558680D02*
D03*
X240630Y513680D02*
D03*
Y528680D02*
D03*
Y543680D02*
D03*
Y588680D02*
D03*
Y573680D02*
D03*
Y558680D02*
D03*
X292862Y438931D02*
D03*
X249702Y440951D02*
D03*
X330962Y438931D02*
D03*
X403757Y323356D02*
D03*
X405130Y313690D02*
D03*
X444500Y190500D02*
D03*
X386080Y406400D02*
D03*
X393334Y408036D02*
D03*
X403860Y406400D02*
D03*
X398780Y412750D02*
D03*
X342900Y407670D02*
D03*
X-61230Y492490D02*
D03*
X-57150Y496570D02*
D03*
X-70897Y510274D02*
D03*
X-76200Y508000D02*
D03*
X-82280Y540020D02*
D03*
X-86360Y535940D02*
D03*
X-81270Y560247D02*
D03*
X-86360Y557530D02*
D03*
X-85588Y590247D02*
D03*
X-90170Y586740D02*
D03*
X359410Y553720D02*
D03*
X248920Y633730D02*
D03*
X359410Y590550D02*
D03*
X363220Y584200D02*
D03*
X359410Y577850D02*
D03*
X829310Y260350D02*
D03*
X827462Y244532D02*
D03*
X835793Y285883D02*
D03*
X835884Y298314D02*
D03*
X842010Y312420D02*
D03*
X842028Y324987D02*
D03*
X845242Y356292D02*
D03*
X845820Y368300D02*
D03*
X849630Y774029D02*
D03*
X847033Y764597D02*
D03*
X853440Y732089D02*
D03*
X851605Y723195D02*
D03*
X854710Y690209D02*
D03*
X853440Y680720D02*
D03*
X850854Y646999D02*
D03*
X846346Y638181D02*
D03*
X535940Y450128D02*
D03*
X570230Y449580D02*
D03*
X563402Y532941D02*
D03*
X1327094Y600654D02*
D03*
X1320800Y614680D02*
D03*
X1327147Y430406D02*
D03*
X1319530Y430530D02*
D03*
X243117Y630785D02*
D03*
X255630Y630280D02*
D03*
X357794Y598587D02*
D03*
X356362Y538470D02*
D03*
X280670Y96520D02*
D03*
X751840Y266700D02*
D03*
X198882Y523890D02*
D03*
X179832Y531641D02*
D03*
X181102Y522751D02*
D03*
X198882Y573551D02*
D03*
X165862D02*
D03*
X181102D02*
D03*
X243332Y471951D02*
D03*
X254762Y470681D02*
D03*
X252222Y454474D02*
D03*
X275082Y471951D02*
D03*
X290322Y470681D02*
D03*
X289063Y454474D02*
D03*
X310642Y471951D02*
D03*
X334772Y454474D02*
D03*
X579368Y493607D02*
D03*
X578612Y480841D02*
D03*
X410972Y559581D02*
D03*
X442722Y560851D02*
D03*
X442702Y500641D02*
D03*
X543022Y570441D02*
D03*
X375412Y463061D02*
D03*
X356362Y506241D02*
D03*
X362712Y498751D02*
D03*
X372872Y499891D02*
D03*
X376682Y546881D02*
D03*
Y574821D02*
D03*
X374142Y560851D02*
D03*
X357632Y565931D02*
D03*
X275082Y630701D02*
D03*
X310642D02*
D03*
X325882Y648411D02*
D03*
X333502Y647211D02*
D03*
X297247Y648481D02*
D03*
X289063Y647211D02*
D03*
X261112Y648481D02*
D03*
X252222Y647211D02*
D03*
X290322Y630701D02*
D03*
X934720Y773430D02*
D03*
X930910Y779490D02*
D03*
X937260Y735330D02*
D03*
X930910Y737870D02*
D03*
X929640Y697230D02*
D03*
X937714Y696776D02*
D03*
X937302Y652738D02*
D03*
X930047Y653643D02*
D03*
X922020Y220049D02*
D03*
Y214279D02*
D03*
X920611Y265184D02*
D03*
X920927Y259423D02*
D03*
X922027Y299531D02*
D03*
X920750Y305299D02*
D03*
X921384Y340927D02*
D03*
X921013Y346684D02*
D03*
X822960Y175260D02*
D03*
X872490Y195580D02*
D03*
Y238760D02*
D03*
Y280670D02*
D03*
Y322580D02*
D03*
Y364490D02*
D03*
X971550Y254000D02*
D03*
X960120Y281940D02*
D03*
Y307340D02*
D03*
Y331470D02*
D03*
X942856Y365606D02*
D03*
X943610Y351790D02*
D03*
Y323850D02*
D03*
X942340Y335280D02*
D03*
Y306070D02*
D03*
X943610Y294640D02*
D03*
X942340Y276860D02*
D03*
X943610Y266700D02*
D03*
X1056640Y353060D02*
D03*
X1055116Y363220D02*
D03*
X1056640Y266700D02*
D03*
X1055116Y276860D02*
D03*
X1056156Y294640D02*
D03*
X1055116Y306070D02*
D03*
X1037590Y279400D02*
D03*
X1038373Y304179D02*
D03*
X1037590Y330200D02*
D03*
X1056640Y323850D02*
D03*
X1055370Y334010D02*
D03*
X882027Y797560D02*
D03*
Y755650D02*
D03*
Y713740D02*
D03*
X882650Y628650D02*
D03*
X882027Y671537D02*
D03*
X980440Y687070D02*
D03*
X970280Y713740D02*
D03*
X951230Y709930D02*
D03*
X953770Y698500D02*
D03*
X970280Y739140D02*
D03*
X951230Y727710D02*
D03*
X953770Y737870D02*
D03*
X953389Y767080D02*
D03*
X951230Y755650D02*
D03*
X970280Y763270D02*
D03*
X951230Y784860D02*
D03*
X953770Y796290D02*
D03*
X1066034Y784860D02*
D03*
X1064260Y796290D02*
D03*
X1066034Y698500D02*
D03*
X1064260Y709930D02*
D03*
X1066034Y727710D02*
D03*
X1064260Y737870D02*
D03*
X1066004Y755650D02*
D03*
X1064260Y767080D02*
D03*
D115*
X458470Y166370D02*
D03*
X244475Y784225D02*
D03*
X441960Y212090D02*
D03*
X280250Y872504D02*
D03*
X481330Y177800D02*
D03*
X425970Y260330D02*
D03*
X427990Y279030D02*
D03*
X405130Y242570D02*
D03*
X364490Y358140D02*
D03*
Y388620D02*
D03*
X275590Y410210D02*
D03*
X250190Y394970D02*
D03*
X1344930Y271780D02*
D03*
X750570Y151130D02*
D03*
X185000Y21604D02*
D03*
X159600D02*
D03*
X134200D02*
D03*
X121500Y47004D02*
D03*
X58000Y72404D02*
D03*
Y21604D02*
D03*
X32600Y72404D02*
D03*
Y21604D02*
D03*
X101600Y88900D02*
D03*
Y69850D02*
D03*
X77470Y43180D02*
D03*
X85090Y50800D02*
D03*
X69850D02*
D03*
X-1388Y417440D02*
D03*
X148Y433459D02*
D03*
X-58420Y447040D02*
D03*
X417830Y394970D02*
D03*
X364490Y273050D02*
D03*
X363220Y264160D02*
D03*
X372110Y262890D02*
D03*
X681990Y278130D02*
D03*
X676910Y288290D02*
D03*
X486410Y419100D02*
D03*
X410210Y370840D02*
D03*
Y361950D02*
D03*
X529590Y350520D02*
D03*
Y236220D02*
D03*
X661670Y892810D02*
D03*
X543560Y779780D02*
D03*
X688868Y703052D02*
D03*
X525780Y654050D02*
D03*
X227330Y391160D02*
D03*
X434340Y335280D02*
D03*
X417830Y346710D02*
D03*
X416560Y328930D02*
D03*
X295910Y378460D02*
D03*
X307340Y367030D02*
D03*
X350520Y384810D02*
D03*
X203200Y316230D02*
D03*
X673100Y161290D02*
D03*
X102870Y279400D02*
D03*
X196850Y95250D02*
D03*
X186690Y82550D02*
D03*
X177800Y95250D02*
D03*
X1324610Y416560D02*
D03*
X234950Y774700D02*
D03*
Y793750D02*
D03*
X254000Y774700D02*
D03*
Y793750D02*
D03*
X146050Y831850D02*
D03*
X133350D02*
D03*
Y844550D02*
D03*
Y857250D02*
D03*
Y869950D02*
D03*
X146050D02*
D03*
Y920750D02*
D03*
X133350D02*
D03*
Y908050D02*
D03*
Y895350D02*
D03*
Y882650D02*
D03*
X146050D02*
D03*
X167640Y671830D02*
D03*
Y659130D02*
D03*
Y646430D02*
D03*
X180340D02*
D03*
X193040D02*
D03*
X205740D02*
D03*
Y659130D02*
D03*
Y671830D02*
D03*
X242570Y673100D02*
D03*
X255270D02*
D03*
X267970D02*
D03*
Y685800D02*
D03*
Y698500D02*
D03*
Y711200D02*
D03*
X255270D02*
D03*
X242570D02*
D03*
X820818Y740410D02*
D03*
X1047750Y762160D02*
D03*
Y712160D02*
D03*
X1048250Y737160D02*
D03*
X-106680Y669234D02*
D03*
Y647700D02*
D03*
Y632460D02*
D03*
Y615950D02*
D03*
Y593090D02*
D03*
Y568960D02*
D03*
Y544830D02*
D03*
Y520700D02*
D03*
Y464380D02*
D03*
Y440690D02*
D03*
Y416560D02*
D03*
Y392430D02*
D03*
Y368300D02*
D03*
Y344170D02*
D03*
X790351Y126529D02*
D03*
X679450Y194310D02*
D03*
X689610Y191770D02*
D03*
X769620Y194310D02*
D03*
X755650Y218440D02*
D03*
X737870Y154940D02*
D03*
X821690Y157480D02*
D03*
X803910Y163830D02*
D03*
X737800Y167190D02*
D03*
X740410Y203200D02*
D03*
X739140Y228600D02*
D03*
X717550Y246380D02*
D03*
X702310Y201930D02*
D03*
X700171Y222146D02*
D03*
X683260Y232410D02*
D03*
X542290Y290830D02*
D03*
X541455Y277320D02*
D03*
X610870Y302260D02*
D03*
X593090Y233680D02*
D03*
X627380Y278130D02*
D03*
X645160Y224790D02*
D03*
X601502Y207802D02*
D03*
X665480Y228600D02*
D03*
X652780D02*
D03*
X593090Y242570D02*
D03*
X591820Y285750D02*
D03*
X588010Y312420D02*
D03*
X570230Y326390D02*
D03*
X554990Y284480D02*
D03*
X553100Y305050D02*
D03*
X548640Y323850D02*
D03*
X810986Y292100D02*
D03*
X800832Y290292D02*
D03*
X806450Y312420D02*
D03*
X677590Y337470D02*
D03*
X714466Y339090D02*
D03*
X706846Y342900D02*
D03*
X770890Y341630D02*
D03*
X755650Y358140D02*
D03*
X734060Y374650D02*
D03*
X716280Y387350D02*
D03*
X742950Y299720D02*
D03*
X792470Y288300D02*
D03*
X745950Y309880D02*
D03*
X740410Y349250D02*
D03*
X712470Y374650D02*
D03*
X697230Y387350D02*
D03*
X468630Y279860D02*
D03*
X476250Y318770D02*
D03*
X530860Y419100D02*
D03*
X608330Y435610D02*
D03*
X593090Y373380D02*
D03*
X645160Y359410D02*
D03*
X626110Y415290D02*
D03*
X593090Y383540D02*
D03*
X738680Y737195D02*
D03*
X739247Y890163D02*
D03*
X596793Y812693D02*
D03*
X599440Y656590D02*
D03*
X674370Y375920D02*
D03*
X655320Y361490D02*
D03*
X598170Y349250D02*
D03*
X593090Y445770D02*
D03*
Y421640D02*
D03*
X554990Y420370D02*
D03*
X553100Y440940D02*
D03*
X493570Y260105D02*
D03*
X518160Y191460D02*
D03*
X487680D02*
D03*
X478790Y247650D02*
D03*
X417830Y234950D02*
D03*
X477520Y205740D02*
D03*
X607060Y679450D02*
D03*
X617220Y709930D02*
D03*
X586099Y632050D02*
D03*
X633730Y687070D02*
D03*
X652780Y635103D02*
D03*
X681990Y647700D02*
D03*
X666012Y640411D02*
D03*
X612400Y618590D02*
D03*
X600710Y694690D02*
D03*
X594120Y719870D02*
D03*
X592207Y737410D02*
D03*
X562610Y693420D02*
D03*
X560720Y713990D02*
D03*
X558062Y731359D02*
D03*
X679450Y767890D02*
D03*
X756920Y797560D02*
D03*
X725550Y718820D02*
D03*
X769620Y773890D02*
D03*
X792480Y720860D02*
D03*
X805180Y725170D02*
D03*
X751851Y703896D02*
D03*
X731803Y823715D02*
D03*
X733338Y807697D02*
D03*
X740410Y779780D02*
D03*
X702310D02*
D03*
X712470Y806450D02*
D03*
X697513Y817365D02*
D03*
X678180Y928370D02*
D03*
X675640Y910590D02*
D03*
X744220Y913130D02*
D03*
X754380Y933450D02*
D03*
X737870Y880110D02*
D03*
X769620Y922020D02*
D03*
X791210Y868680D02*
D03*
X820420Y882650D02*
D03*
X805463Y874966D02*
D03*
X754577Y852417D02*
D03*
X731803Y972305D02*
D03*
X733531Y955500D02*
D03*
X739140Y928370D02*
D03*
X577240Y844784D02*
D03*
X716280Y924560D02*
D03*
X713740Y955500D02*
D03*
X697513Y965955D02*
D03*
X627380Y843280D02*
D03*
X650240Y791313D02*
D03*
X614680Y869950D02*
D03*
X582930Y789940D02*
D03*
X591348Y877901D02*
D03*
X589812Y893919D02*
D03*
X561340Y849630D02*
D03*
X558180Y870200D02*
D03*
X555522Y887569D02*
D03*
X609860Y774800D02*
D03*
X665008Y796621D02*
D03*
X663590Y813320D02*
D03*
X380190Y366560D02*
D03*
X309880Y394970D02*
D03*
X325100Y359720D02*
D03*
X508548Y943304D02*
D03*
X508000Y886460D02*
D03*
X511810Y901160D02*
D03*
X359573Y168777D02*
D03*
X378578Y171839D02*
D03*
X376540Y157940D02*
D03*
X359410Y191770D02*
D03*
X378578Y187570D02*
D03*
X376550Y201877D02*
D03*
X378460Y236220D02*
D03*
X375587Y223520D02*
D03*
X360680Y238760D02*
D03*
X261620Y285750D02*
D03*
X166569Y206697D02*
D03*
X165100Y161290D02*
D03*
X182880Y180340D02*
D03*
X210820Y167640D02*
D03*
X281940Y302634D02*
D03*
X299156Y301410D02*
D03*
X266700Y300990D02*
D03*
X170180Y190500D02*
D03*
X168910Y175260D02*
D03*
X1017340Y104670D02*
D03*
X1037590Y114300D02*
D03*
X980440D02*
D03*
X960190Y103400D02*
D03*
X922020Y113030D02*
D03*
X901770Y103400D02*
D03*
X864870Y114300D02*
D03*
X844620Y103400D02*
D03*
X786200D02*
D03*
X806450Y113030D02*
D03*
X729050Y103400D02*
D03*
X749300Y113030D02*
D03*
X673170Y103400D02*
D03*
X693420Y113030D02*
D03*
X618310Y105774D02*
D03*
X637540Y113030D02*
D03*
X562610Y153670D02*
D03*
X568960Y148590D02*
D03*
X575310Y143510D02*
D03*
X581660Y138430D02*
D03*
X588010Y133350D02*
D03*
X702310Y120650D02*
D03*
X647700Y119380D02*
D03*
X593090Y116840D02*
D03*
X222250Y219710D02*
D03*
X212090Y226060D02*
D03*
X222250Y205317D02*
D03*
X212090Y212090D02*
D03*
X222250Y190923D02*
D03*
X212090Y198120D02*
D03*
X222250Y176530D02*
D03*
X212090Y184150D02*
D03*
X168706Y250737D02*
D03*
X-93980Y447675D02*
D03*
X209550Y242570D02*
D03*
X152400D02*
D03*
X-2540Y336550D02*
D03*
X593090Y392430D02*
D03*
X740410Y316230D02*
D03*
X594360Y250190D02*
D03*
X737870Y175260D02*
D03*
X675640Y389890D02*
D03*
X659271Y257644D02*
D03*
X680720Y662940D02*
D03*
X806351Y751823D02*
D03*
X678180Y822325D02*
D03*
X806450Y900430D02*
D03*
X599440Y665480D02*
D03*
X737800Y751910D02*
D03*
X596900Y822325D02*
D03*
X737870Y900430D02*
D03*
X499110Y862330D02*
D03*
X492760Y251460D02*
D03*
X435610Y246380D02*
D03*
X492339Y178329D02*
D03*
Y169263D02*
D03*
Y160196D02*
D03*
X226060Y250190D02*
D03*
X209550Y256540D02*
D03*
X454660Y254000D02*
D03*
X447593Y247779D02*
D03*
X492339Y151130D02*
D03*
X535940Y690880D02*
D03*
X533400Y742950D02*
D03*
X528320Y842010D02*
D03*
X-30480Y326390D02*
D03*
X-48260D02*
D03*
X-77470Y327660D02*
D03*
X330200Y90170D02*
D03*
X312420D02*
D03*
X295910Y100330D02*
D03*
X240867Y108498D02*
D03*
X259080Y106680D02*
D03*
X246380Y38100D02*
D03*
X260350Y50800D02*
D03*
X243840Y91440D02*
D03*
D116*
X343740Y792750D02*
D03*
X332740D02*
D03*
X343740Y803750D02*
D03*
X332740D02*
D03*
X343740Y814750D02*
D03*
X332740D02*
D03*
D117*
X384810Y763270D02*
D03*
X19050Y929640D02*
D03*
X111760Y930910D02*
D03*
X-100330Y656590D02*
D03*
D118*
X-42850Y426570D02*
D03*
Y433070D02*
D03*
X-20650Y426570D02*
D03*
Y439570D02*
D03*
X-42850D02*
D03*
D119*
X728031Y780106D02*
D03*
Y786606D02*
D03*
Y793106D02*
D03*
Y799606D02*
D03*
X768931Y780106D02*
D03*
Y786606D02*
D03*
Y793106D02*
D03*
Y799606D02*
D03*
Y948196D02*
D03*
Y941696D02*
D03*
Y935196D02*
D03*
Y928696D02*
D03*
X728031Y948196D02*
D03*
Y941696D02*
D03*
Y935196D02*
D03*
Y928696D02*
D03*
X586040Y850311D02*
D03*
Y856811D02*
D03*
Y863310D02*
D03*
Y869810D02*
D03*
X626940Y850311D02*
D03*
Y856811D02*
D03*
Y863310D02*
D03*
Y869810D02*
D03*
X629481Y713600D02*
D03*
Y707101D02*
D03*
Y700601D02*
D03*
Y694100D02*
D03*
X588581Y713600D02*
D03*
Y707101D02*
D03*
Y700601D02*
D03*
Y694100D02*
D03*
X580961Y421050D02*
D03*
Y427551D02*
D03*
Y434050D02*
D03*
Y440550D02*
D03*
X621861Y421050D02*
D03*
Y427551D02*
D03*
Y434050D02*
D03*
Y440550D02*
D03*
X769181Y368161D02*
D03*
Y361660D02*
D03*
Y355160D02*
D03*
Y348661D02*
D03*
X728280Y368161D02*
D03*
Y361660D02*
D03*
Y355160D02*
D03*
Y348661D02*
D03*
X580961Y285161D02*
D03*
Y291660D02*
D03*
Y298160D02*
D03*
Y304660D02*
D03*
X621861Y285161D02*
D03*
Y291660D02*
D03*
Y298160D02*
D03*
Y304660D02*
D03*
X768931Y221756D02*
D03*
Y215256D02*
D03*
Y208756D02*
D03*
Y202256D02*
D03*
X728031Y221756D02*
D03*
Y215256D02*
D03*
Y208756D02*
D03*
Y202256D02*
D03*
D120*
X481272Y234645D02*
D03*
X474772D02*
D03*
X468272D02*
D03*
X461772D02*
D03*
X455272D02*
D03*
X448772D02*
D03*
X442272D02*
D03*
X435772D02*
D03*
X429272D02*
D03*
X422772D02*
D03*
X481272Y291645D02*
D03*
X474772D02*
D03*
X468272D02*
D03*
X461772D02*
D03*
X455272D02*
D03*
X448772D02*
D03*
X442272D02*
D03*
X435772D02*
D03*
X429272D02*
D03*
X422772D02*
D03*
D121*
X335190Y337310D02*
D03*
Y343810D02*
D03*
Y350310D02*
D03*
Y356810D02*
D03*
Y363310D02*
D03*
Y369810D02*
D03*
Y376310D02*
D03*
Y382810D02*
D03*
Y389310D02*
D03*
Y395810D02*
D03*
X392190Y337310D02*
D03*
Y343810D02*
D03*
Y350310D02*
D03*
Y356810D02*
D03*
Y363310D02*
D03*
Y369810D02*
D03*
Y376310D02*
D03*
Y382810D02*
D03*
Y389310D02*
D03*
Y395810D02*
D03*
D122*
X784351Y119746D02*
D03*
X757851D02*
D03*
X784351Y133746D02*
D03*
X757851D02*
D03*
X637280Y202650D02*
D03*
X610780D02*
D03*
X637280Y216650D02*
D03*
X610780D02*
D03*
X784600Y266150D02*
D03*
X758100D02*
D03*
X784600Y280150D02*
D03*
X758100D02*
D03*
X637280Y338540D02*
D03*
X610780D02*
D03*
X637280Y352540D02*
D03*
X610780D02*
D03*
X644900Y611590D02*
D03*
X618400D02*
D03*
X644900Y625590D02*
D03*
X618400D02*
D03*
X642360Y767800D02*
D03*
X615860D02*
D03*
X642360Y781800D02*
D03*
X615860D02*
D03*
X784351Y697596D02*
D03*
X757851D02*
D03*
X784351Y711596D02*
D03*
X757851D02*
D03*
X784351Y846186D02*
D03*
X757851D02*
D03*
X784351Y860186D02*
D03*
X757851D02*
D03*
D123*
X775101Y119746D02*
D03*
X767101D02*
D03*
X775101Y133746D02*
D03*
X767101D02*
D03*
X628030Y202650D02*
D03*
X620030D02*
D03*
X628030Y216650D02*
D03*
X620030D02*
D03*
X775350Y266150D02*
D03*
X767350D02*
D03*
X775350Y280150D02*
D03*
X767350D02*
D03*
X628030Y338540D02*
D03*
X620030D02*
D03*
X628030Y352540D02*
D03*
X620030D02*
D03*
X635650Y611590D02*
D03*
X627650D02*
D03*
X635650Y625590D02*
D03*
X627650D02*
D03*
X633110Y767800D02*
D03*
X625110D02*
D03*
X633110Y781800D02*
D03*
X625110D02*
D03*
X775101Y697596D02*
D03*
X767101D02*
D03*
X775101Y711596D02*
D03*
X767101D02*
D03*
X775101Y846186D02*
D03*
X767101D02*
D03*
X775101Y860186D02*
D03*
X767101D02*
D03*
D124*
X781050Y913130D02*
D03*
Y906630D02*
D03*
Y900130D02*
D03*
Y893630D02*
D03*
Y887130D02*
D03*
Y880630D02*
D03*
Y874130D02*
D03*
X725550Y913130D02*
D03*
Y906630D02*
D03*
Y900130D02*
D03*
Y893630D02*
D03*
Y887130D02*
D03*
Y880630D02*
D03*
Y874130D02*
D03*
X639059Y834744D02*
D03*
Y828244D02*
D03*
Y821744D02*
D03*
Y815244D02*
D03*
Y808744D02*
D03*
Y802244D02*
D03*
Y795744D02*
D03*
X583559Y834744D02*
D03*
Y828244D02*
D03*
Y821744D02*
D03*
Y815244D02*
D03*
Y808744D02*
D03*
Y802244D02*
D03*
Y795744D02*
D03*
X781050Y186690D02*
D03*
Y180190D02*
D03*
Y173690D02*
D03*
Y167190D02*
D03*
Y160690D02*
D03*
Y154190D02*
D03*
Y147690D02*
D03*
X725550Y186690D02*
D03*
Y180190D02*
D03*
Y173690D02*
D03*
Y167190D02*
D03*
Y160690D02*
D03*
Y154190D02*
D03*
Y147690D02*
D03*
X781050Y764540D02*
D03*
Y758040D02*
D03*
Y751540D02*
D03*
Y745040D02*
D03*
Y738540D02*
D03*
Y732040D02*
D03*
Y725540D02*
D03*
X725550Y764540D02*
D03*
Y758040D02*
D03*
Y751540D02*
D03*
Y745040D02*
D03*
Y738540D02*
D03*
Y732040D02*
D03*
Y725540D02*
D03*
X641599Y678534D02*
D03*
Y672034D02*
D03*
Y665534D02*
D03*
Y659034D02*
D03*
Y652534D02*
D03*
Y646034D02*
D03*
Y639534D02*
D03*
X586099Y678534D02*
D03*
Y672034D02*
D03*
Y665534D02*
D03*
Y659034D02*
D03*
Y652534D02*
D03*
Y646034D02*
D03*
Y639534D02*
D03*
X633979Y405484D02*
D03*
Y398984D02*
D03*
Y392484D02*
D03*
Y385984D02*
D03*
Y379484D02*
D03*
Y372984D02*
D03*
Y366484D02*
D03*
X578479Y405484D02*
D03*
Y398984D02*
D03*
Y392484D02*
D03*
Y385984D02*
D03*
Y379484D02*
D03*
Y372984D02*
D03*
Y366484D02*
D03*
X781299Y333094D02*
D03*
Y326594D02*
D03*
Y320094D02*
D03*
Y313594D02*
D03*
Y307094D02*
D03*
Y300594D02*
D03*
Y294094D02*
D03*
X725799Y333094D02*
D03*
Y326594D02*
D03*
Y320094D02*
D03*
Y313594D02*
D03*
Y307094D02*
D03*
Y300594D02*
D03*
Y294094D02*
D03*
X633979Y269594D02*
D03*
Y263094D02*
D03*
Y256594D02*
D03*
Y250094D02*
D03*
Y243594D02*
D03*
Y237094D02*
D03*
Y230594D02*
D03*
X578479Y269594D02*
D03*
Y263094D02*
D03*
Y256594D02*
D03*
Y250094D02*
D03*
Y243594D02*
D03*
Y237094D02*
D03*
Y230594D02*
D03*
D125*
X689921Y941586D02*
D03*
Y928586D02*
D03*
X710421D02*
D03*
Y935086D02*
D03*
Y941586D02*
D03*
X547930Y863200D02*
D03*
Y850200D02*
D03*
X568430D02*
D03*
Y856700D02*
D03*
Y863200D02*
D03*
X689921Y215146D02*
D03*
Y202146D02*
D03*
X710421D02*
D03*
Y208646D02*
D03*
Y215146D02*
D03*
X689921Y792996D02*
D03*
Y779996D02*
D03*
X710421D02*
D03*
Y786496D02*
D03*
Y792996D02*
D03*
X550470Y706990D02*
D03*
Y693990D02*
D03*
X570970D02*
D03*
Y700490D02*
D03*
Y706990D02*
D03*
X542850Y433940D02*
D03*
Y420940D02*
D03*
X563350D02*
D03*
Y427440D02*
D03*
Y433940D02*
D03*
X690170Y361550D02*
D03*
Y348550D02*
D03*
X710670D02*
D03*
Y355050D02*
D03*
Y361550D02*
D03*
X542850Y298050D02*
D03*
Y285050D02*
D03*
X563350D02*
D03*
Y291550D02*
D03*
Y298050D02*
D03*
D126*
X-124528Y656420D02*
X-124442Y656505D01*
X-100415D01*
X-100330Y656590D01*
D127*
X710421Y941586D02*
X722421D01*
X722531Y941696D01*
X728031D01*
M02*
