G04 Layer_Color=255*
%FSLAX44Y44*%
%MOMM*%
G71*
G01*
G75*
%ADD10R,0.7000X1.2000*%
%ADD11R,1.2000X0.7000*%
%ADD12O,1.8000X0.3000*%
%ADD13R,1.8000X2.0000*%
%ADD14O,0.3000X2.1000*%
%ADD15R,10.0000X10.0000*%
%ADD16O,2.1000X0.3000*%
%ADD17R,1.2000X0.8000*%
%ADD18R,0.8000X1.2000*%
%ADD19R,1.2000X1.1000*%
%ADD20R,0.6000X1.1000*%
%ADD21R,1.2000X2.1000*%
%ADD22R,2.1000X1.2000*%
%ADD23O,1.5000X0.2500*%
%ADD24R,1.6000X0.3000*%
%ADD25R,2.2000X2.3000*%
%ADD26O,2.2000X0.6000*%
%ADD27R,1.0000X0.9000*%
%ADD28O,0.3000X1.8000*%
%ADD29R,2.8000X0.5500*%
%ADD30O,0.6000X2.2000*%
%ADD31R,10.4900X9.9400*%
%ADD32R,1.0160X3.5040*%
%ADD33R,0.6500X3.0000*%
%ADD45R,2.0000X2.0000*%
%ADD46C,2.0000*%
%ADD47R,1.0000X1.0000*%
%ADD48C,1.5240*%
%ADD49C,4.5000*%
%ADD50C,2.0828*%
D10*
X322766Y176110D02*
D03*
X338766D02*
D03*
X322766Y213911D02*
D03*
X338766D02*
D03*
X1246911Y323420D02*
D03*
X1230911D02*
D03*
X439542Y461438D02*
D03*
X455542D02*
D03*
X352191Y498839D02*
D03*
X336191D02*
D03*
X324091D02*
D03*
X308091D02*
D03*
X342191Y521839D02*
D03*
X326191D02*
D03*
X342191Y538539D02*
D03*
X326191D02*
D03*
X326091Y555239D02*
D03*
X342091D02*
D03*
X664765Y72611D02*
D03*
X680765D02*
D03*
X551465Y118111D02*
D03*
X535465D02*
D03*
X551465Y72611D02*
D03*
X535465D02*
D03*
X664765Y908611D02*
D03*
X680765D02*
D03*
X664765Y954111D02*
D03*
X680765D02*
D03*
X551465D02*
D03*
X535465D02*
D03*
X551465Y908611D02*
D03*
X535465D02*
D03*
X808523Y338494D02*
D03*
X792523D02*
D03*
X808523Y237394D02*
D03*
X792523D02*
D03*
X808523Y136294D02*
D03*
X792523D02*
D03*
X808523Y35194D02*
D03*
X792523D02*
D03*
X808523Y902794D02*
D03*
X792523D02*
D03*
X808523Y801694D02*
D03*
X792523D02*
D03*
X454991Y663839D02*
D03*
X470991D02*
D03*
X454991Y263839D02*
D03*
X470991D02*
D03*
X305991Y663839D02*
D03*
X321991D02*
D03*
X321991Y263839D02*
D03*
X305991D02*
D03*
X509991Y663839D02*
D03*
X493991D02*
D03*
X509991Y263839D02*
D03*
X493991D02*
D03*
X509991Y680839D02*
D03*
X493991D02*
D03*
X509991Y280839D02*
D03*
X493991D02*
D03*
X305991Y680839D02*
D03*
X321991D02*
D03*
X321991Y280839D02*
D03*
X305991D02*
D03*
X470991Y680839D02*
D03*
X454991D02*
D03*
X470991Y280839D02*
D03*
X454991D02*
D03*
Y714839D02*
D03*
X470991D02*
D03*
X454991Y314839D02*
D03*
X470991D02*
D03*
X321991Y714839D02*
D03*
X305991D02*
D03*
X321991Y314839D02*
D03*
X305991D02*
D03*
X509941Y714839D02*
D03*
X493941D02*
D03*
X509941Y314839D02*
D03*
X493941D02*
D03*
X509991Y731839D02*
D03*
X493991D02*
D03*
X509991Y331839D02*
D03*
X493991D02*
D03*
X321991Y731839D02*
D03*
X305991D02*
D03*
X321991Y331839D02*
D03*
X305991D02*
D03*
X470991Y731839D02*
D03*
X454991D02*
D03*
X470991Y331839D02*
D03*
X454991D02*
D03*
Y766139D02*
D03*
X470991D02*
D03*
X454991Y366139D02*
D03*
X470991D02*
D03*
X321991Y766139D02*
D03*
X305991D02*
D03*
X321991Y366139D02*
D03*
X305991D02*
D03*
X509991Y766139D02*
D03*
X493991D02*
D03*
X509991Y366139D02*
D03*
X493991D02*
D03*
X509991Y782839D02*
D03*
X493991D02*
D03*
X509991Y382839D02*
D03*
X493991D02*
D03*
X321991Y782839D02*
D03*
X305991D02*
D03*
X321991Y382839D02*
D03*
X305991D02*
D03*
X470991Y782839D02*
D03*
X454991D02*
D03*
X470991Y382839D02*
D03*
X454991D02*
D03*
Y817639D02*
D03*
X470991D02*
D03*
X454991Y417640D02*
D03*
X470991D02*
D03*
X321991Y817639D02*
D03*
X305991D02*
D03*
X321991Y417640D02*
D03*
X305991D02*
D03*
X509991Y817639D02*
D03*
X493991D02*
D03*
X509991Y417640D02*
D03*
X493991D02*
D03*
X509942Y834638D02*
D03*
X493942D02*
D03*
X509942Y434638D02*
D03*
X493942D02*
D03*
X321991Y834638D02*
D03*
X305991D02*
D03*
X321991Y434638D02*
D03*
X305991D02*
D03*
X470942Y834638D02*
D03*
X454941D02*
D03*
X470942Y434638D02*
D03*
X454942D02*
D03*
X808523Y599494D02*
D03*
X792523D02*
D03*
X808523Y700594D02*
D03*
X792523D02*
D03*
X1239910Y272919D02*
D03*
X1223911D02*
D03*
D11*
X-47727Y378820D02*
D03*
Y362820D02*
D03*
X-69227Y378820D02*
D03*
Y362820D02*
D03*
X-26228Y362820D02*
D03*
Y378820D02*
D03*
X163591Y444056D02*
D03*
Y428056D02*
D03*
X187373Y886718D02*
D03*
Y870718D02*
D03*
X42565Y869744D02*
D03*
Y885744D02*
D03*
X131473Y870718D02*
D03*
Y886718D02*
D03*
X671665Y118111D02*
D03*
Y134111D02*
D03*
X333930Y23420D02*
D03*
Y39420D02*
D03*
X273216Y23420D02*
D03*
Y39420D02*
D03*
X455359Y23420D02*
D03*
Y39420D02*
D03*
X394644Y23420D02*
D03*
Y39420D02*
D03*
X91073Y23420D02*
D03*
Y39420D02*
D03*
X30359Y23420D02*
D03*
Y39420D02*
D03*
X212501Y23420D02*
D03*
Y39420D02*
D03*
X151787Y23420D02*
D03*
Y39420D02*
D03*
D12*
X965844Y192873D02*
D03*
Y182873D02*
D03*
Y187872D02*
D03*
Y197873D02*
D03*
X1116843Y82872D02*
D03*
Y87872D02*
D03*
Y92872D02*
D03*
Y97872D02*
D03*
Y102872D02*
D03*
Y107872D02*
D03*
Y112872D02*
D03*
Y117872D02*
D03*
Y122872D02*
D03*
Y127872D02*
D03*
Y132872D02*
D03*
Y137872D02*
D03*
Y142872D02*
D03*
Y147872D02*
D03*
Y152872D02*
D03*
Y157872D02*
D03*
Y162873D02*
D03*
Y167873D02*
D03*
Y172873D02*
D03*
Y177873D02*
D03*
Y182873D02*
D03*
Y187872D02*
D03*
Y192873D02*
D03*
Y197873D02*
D03*
Y202873D02*
D03*
X965844D02*
D03*
Y177873D02*
D03*
Y172873D02*
D03*
Y167873D02*
D03*
Y162873D02*
D03*
Y157872D02*
D03*
Y152872D02*
D03*
Y147872D02*
D03*
Y142872D02*
D03*
Y137872D02*
D03*
Y132872D02*
D03*
Y127872D02*
D03*
Y122872D02*
D03*
Y117872D02*
D03*
Y112872D02*
D03*
Y107872D02*
D03*
Y102872D02*
D03*
Y97872D02*
D03*
Y92872D02*
D03*
Y87872D02*
D03*
Y82872D02*
D03*
D13*
X1170843Y137872D02*
D03*
Y179673D02*
D03*
X1221643Y137673D02*
D03*
Y179673D02*
D03*
D14*
X195691Y615339D02*
D03*
X200691D02*
D03*
X210691D02*
D03*
X215691D02*
D03*
X230691D02*
D03*
X235691D02*
D03*
X245691D02*
D03*
X250691D02*
D03*
X255691D02*
D03*
X240691D02*
D03*
X225691D02*
D03*
X220691D02*
D03*
X205691D02*
D03*
X190691D02*
D03*
X185691D02*
D03*
X180691D02*
D03*
X175691D02*
D03*
X170691D02*
D03*
X165691D02*
D03*
X160691D02*
D03*
Y483339D02*
D03*
X165691D02*
D03*
X170691D02*
D03*
X175691D02*
D03*
X180691D02*
D03*
X185691D02*
D03*
X190691D02*
D03*
X205691D02*
D03*
X220691D02*
D03*
X225691D02*
D03*
X240691D02*
D03*
X255691D02*
D03*
X195691D02*
D03*
X200691D02*
D03*
X210691D02*
D03*
X215691D02*
D03*
X230691D02*
D03*
X235691D02*
D03*
X245691D02*
D03*
X250691D02*
D03*
D15*
X208191Y549339D02*
D03*
D16*
X142191Y586839D02*
D03*
Y581839D02*
D03*
Y576839D02*
D03*
Y571839D02*
D03*
Y566839D02*
D03*
Y561839D02*
D03*
Y556839D02*
D03*
Y551839D02*
D03*
Y546839D02*
D03*
Y541839D02*
D03*
Y536839D02*
D03*
Y531839D02*
D03*
Y526839D02*
D03*
Y521839D02*
D03*
Y516839D02*
D03*
Y511839D02*
D03*
Y506839D02*
D03*
Y501839D02*
D03*
X274191D02*
D03*
Y506839D02*
D03*
Y511839D02*
D03*
Y516839D02*
D03*
Y521839D02*
D03*
Y526839D02*
D03*
Y531839D02*
D03*
Y536839D02*
D03*
Y541839D02*
D03*
Y546839D02*
D03*
Y551839D02*
D03*
Y556839D02*
D03*
Y561839D02*
D03*
Y566839D02*
D03*
Y571839D02*
D03*
Y576839D02*
D03*
Y581839D02*
D03*
Y586839D02*
D03*
Y591839D02*
D03*
Y596839D02*
D03*
X142191Y591839D02*
D03*
Y596839D02*
D03*
D17*
X369436Y483539D02*
D03*
Y497539D02*
D03*
X255691Y367439D02*
D03*
Y381439D02*
D03*
X255691Y833339D02*
D03*
Y819339D02*
D03*
X255691Y781439D02*
D03*
Y767439D02*
D03*
Y729738D02*
D03*
Y715739D02*
D03*
Y679439D02*
D03*
Y665439D02*
D03*
X364491Y821339D02*
D03*
Y835339D02*
D03*
X794973Y359044D02*
D03*
Y373044D02*
D03*
Y257944D02*
D03*
Y271944D02*
D03*
Y156844D02*
D03*
Y170844D02*
D03*
Y55744D02*
D03*
Y69744D02*
D03*
Y923344D02*
D03*
Y937344D02*
D03*
Y822244D02*
D03*
Y836244D02*
D03*
X364491Y421339D02*
D03*
Y435339D02*
D03*
X255691Y315739D02*
D03*
Y329739D02*
D03*
X255691Y419339D02*
D03*
Y433339D02*
D03*
X255691Y265439D02*
D03*
Y279439D02*
D03*
X48756Y342180D02*
D03*
Y356180D02*
D03*
X794973Y620044D02*
D03*
Y634044D02*
D03*
Y721144D02*
D03*
Y735144D02*
D03*
X1253544Y137972D02*
D03*
Y123973D02*
D03*
D18*
X454041Y478539D02*
D03*
X440041D02*
D03*
X397891Y521839D02*
D03*
X383891D02*
D03*
X397892Y538539D02*
D03*
X383891D02*
D03*
X294291Y615339D02*
D03*
X280291D02*
D03*
X293091Y484539D02*
D03*
X279091D02*
D03*
X560265Y92111D02*
D03*
X546265D02*
D03*
X560265Y925711D02*
D03*
X546265D02*
D03*
X878822Y366544D02*
D03*
X892822D02*
D03*
X878822Y265444D02*
D03*
X892822D02*
D03*
X878822Y164344D02*
D03*
X892822D02*
D03*
X878822Y63244D02*
D03*
X892822D02*
D03*
X878822Y930844D02*
D03*
X892822D02*
D03*
X878822Y829744D02*
D03*
X892822D02*
D03*
X271501Y680839D02*
D03*
X285501D02*
D03*
X271501Y280839D02*
D03*
X285501D02*
D03*
Y714838D02*
D03*
X271501D02*
D03*
X285501Y314839D02*
D03*
X271502D02*
D03*
X271501Y731839D02*
D03*
X285501D02*
D03*
X271501Y331839D02*
D03*
X285501D02*
D03*
Y766138D02*
D03*
X271501D02*
D03*
X285501Y366138D02*
D03*
X271502D02*
D03*
X271501Y782839D02*
D03*
X285501D02*
D03*
X271501Y382839D02*
D03*
X285501D02*
D03*
Y817639D02*
D03*
X271501D02*
D03*
X285501Y417639D02*
D03*
X271502D02*
D03*
X271501Y834638D02*
D03*
X285501D02*
D03*
X271501Y434638D02*
D03*
X285501D02*
D03*
Y663838D02*
D03*
X271501D02*
D03*
X285501Y263839D02*
D03*
X271502D02*
D03*
X123756Y336180D02*
D03*
X137756D02*
D03*
X878822Y627544D02*
D03*
X892822D02*
D03*
X878822Y728644D02*
D03*
X892822D02*
D03*
X1200275Y101810D02*
D03*
X1186275D02*
D03*
X1186165Y40291D02*
D03*
X1200165D02*
D03*
D19*
X131473Y909501D02*
D03*
Y930501D02*
D03*
X42465Y910744D02*
D03*
Y931744D02*
D03*
X187373Y909501D02*
D03*
Y930501D02*
D03*
X353423Y39420D02*
D03*
Y60420D02*
D03*
X292810Y39420D02*
D03*
Y60420D02*
D03*
X474649Y39420D02*
D03*
Y60420D02*
D03*
X414036Y39420D02*
D03*
Y60420D02*
D03*
X110969Y39420D02*
D03*
Y60420D02*
D03*
X50359Y39420D02*
D03*
Y60420D02*
D03*
X232197Y39420D02*
D03*
Y60420D02*
D03*
X171584Y39420D02*
D03*
Y60420D02*
D03*
D20*
X865623Y353344D02*
D03*
X846623D02*
D03*
Y379344D02*
D03*
X856123D02*
D03*
X865623D02*
D03*
Y252244D02*
D03*
X846623D02*
D03*
Y278244D02*
D03*
X856123D02*
D03*
X865623D02*
D03*
Y151144D02*
D03*
X846623D02*
D03*
Y177144D02*
D03*
X856123D02*
D03*
X865623D02*
D03*
Y50044D02*
D03*
X846623D02*
D03*
Y76044D02*
D03*
X856123D02*
D03*
X865623D02*
D03*
Y917644D02*
D03*
X846623D02*
D03*
Y943644D02*
D03*
X856123D02*
D03*
X865623D02*
D03*
Y816544D02*
D03*
X846623D02*
D03*
Y842544D02*
D03*
X856123D02*
D03*
X865623D02*
D03*
X865623Y715444D02*
D03*
X846623D02*
D03*
Y741444D02*
D03*
X856123D02*
D03*
X865623D02*
D03*
X865623Y614344D02*
D03*
X846623D02*
D03*
Y640344D02*
D03*
X856123D02*
D03*
X865623D02*
D03*
D21*
X193065Y185311D02*
D03*
X163065D02*
D03*
D22*
X539241Y841839D02*
D03*
Y811839D02*
D03*
X539242Y257239D02*
D03*
Y287239D02*
D03*
X539241Y441839D02*
D03*
Y411839D02*
D03*
X539241Y789839D02*
D03*
Y759839D02*
D03*
X539241Y687238D02*
D03*
Y657239D02*
D03*
X539241Y738839D02*
D03*
Y708839D02*
D03*
X539241Y389839D02*
D03*
Y359839D02*
D03*
Y338839D02*
D03*
Y308839D02*
D03*
D23*
X419491Y312839D02*
D03*
Y317839D02*
D03*
Y322839D02*
D03*
Y327839D02*
D03*
Y332839D02*
D03*
Y337839D02*
D03*
Y342839D02*
D03*
Y347839D02*
D03*
Y352839D02*
D03*
Y357839D02*
D03*
Y362839D02*
D03*
Y367839D02*
D03*
Y372839D02*
D03*
Y377839D02*
D03*
Y382839D02*
D03*
Y387839D02*
D03*
Y392839D02*
D03*
Y397839D02*
D03*
Y402839D02*
D03*
X364491Y312839D02*
D03*
Y317839D02*
D03*
Y322839D02*
D03*
Y327839D02*
D03*
Y332839D02*
D03*
Y337839D02*
D03*
Y342839D02*
D03*
Y347839D02*
D03*
Y352839D02*
D03*
Y357839D02*
D03*
Y362839D02*
D03*
Y367839D02*
D03*
Y372839D02*
D03*
Y377839D02*
D03*
Y382839D02*
D03*
Y387839D02*
D03*
Y392839D02*
D03*
Y397839D02*
D03*
Y402839D02*
D03*
X419491Y712839D02*
D03*
Y717839D02*
D03*
Y722839D02*
D03*
Y727839D02*
D03*
Y732839D02*
D03*
Y737839D02*
D03*
Y742839D02*
D03*
Y747839D02*
D03*
Y752839D02*
D03*
Y757839D02*
D03*
Y762839D02*
D03*
Y767839D02*
D03*
Y772839D02*
D03*
Y777839D02*
D03*
Y782839D02*
D03*
Y787839D02*
D03*
Y792839D02*
D03*
Y797839D02*
D03*
Y802839D02*
D03*
X364491Y712839D02*
D03*
Y717839D02*
D03*
Y722839D02*
D03*
Y727839D02*
D03*
Y732839D02*
D03*
Y737839D02*
D03*
Y742839D02*
D03*
Y747839D02*
D03*
Y752839D02*
D03*
Y757839D02*
D03*
Y762839D02*
D03*
Y767839D02*
D03*
Y772839D02*
D03*
Y777839D02*
D03*
Y782839D02*
D03*
Y787839D02*
D03*
Y792839D02*
D03*
Y797839D02*
D03*
Y802839D02*
D03*
D24*
X636665Y66111D02*
D03*
Y72611D02*
D03*
Y79111D02*
D03*
Y85611D02*
D03*
Y92111D02*
D03*
Y98611D02*
D03*
Y105111D02*
D03*
Y111611D02*
D03*
Y118111D02*
D03*
Y124611D02*
D03*
X579665Y66111D02*
D03*
Y72611D02*
D03*
Y79111D02*
D03*
Y85611D02*
D03*
Y92111D02*
D03*
Y98611D02*
D03*
Y105111D02*
D03*
Y111611D02*
D03*
Y118111D02*
D03*
Y124611D02*
D03*
X636665Y902111D02*
D03*
Y908611D02*
D03*
Y915111D02*
D03*
Y921611D02*
D03*
Y928111D02*
D03*
Y934611D02*
D03*
Y941111D02*
D03*
Y947611D02*
D03*
Y954111D02*
D03*
Y960611D02*
D03*
X579665Y902111D02*
D03*
Y908611D02*
D03*
Y915111D02*
D03*
Y921611D02*
D03*
Y928111D02*
D03*
Y934611D02*
D03*
Y941111D02*
D03*
Y947611D02*
D03*
Y954111D02*
D03*
Y960611D02*
D03*
D25*
X130756Y245680D02*
D03*
Y302680D02*
D03*
D26*
X425472Y120070D02*
D03*
Y107370D02*
D03*
Y94670D02*
D03*
Y81970D02*
D03*
X473473Y120070D02*
D03*
Y107370D02*
D03*
Y94670D02*
D03*
Y81970D02*
D03*
X300473Y120070D02*
D03*
Y107370D02*
D03*
Y94670D02*
D03*
Y81970D02*
D03*
X348473Y120070D02*
D03*
Y107370D02*
D03*
Y94670D02*
D03*
Y81970D02*
D03*
X175473Y120070D02*
D03*
Y107370D02*
D03*
Y94670D02*
D03*
Y81970D02*
D03*
X223472Y120070D02*
D03*
Y107370D02*
D03*
Y94670D02*
D03*
Y81970D02*
D03*
X50472Y120070D02*
D03*
Y107370D02*
D03*
Y94670D02*
D03*
Y81970D02*
D03*
X98472Y120070D02*
D03*
Y107370D02*
D03*
Y94670D02*
D03*
Y81970D02*
D03*
D27*
X388404Y109836D02*
D03*
Y94074D02*
D03*
X263460Y109836D02*
D03*
Y94074D02*
D03*
X138516Y109836D02*
D03*
Y94074D02*
D03*
X13572Y109836D02*
D03*
Y94074D02*
D03*
D28*
X1101344Y218372D02*
D03*
X1096344D02*
D03*
X1091344D02*
D03*
X1086344D02*
D03*
X1081344D02*
D03*
X1076344D02*
D03*
X1071344D02*
D03*
X1066344D02*
D03*
X1061344D02*
D03*
X1056344D02*
D03*
X1051344D02*
D03*
X1046343D02*
D03*
X1041344D02*
D03*
X1036344D02*
D03*
X1031344D02*
D03*
X1026344D02*
D03*
X1021343D02*
D03*
X1016344D02*
D03*
X1011344D02*
D03*
X1006344D02*
D03*
X1001344D02*
D03*
X996344D02*
D03*
X991344D02*
D03*
X986344D02*
D03*
X981344D02*
D03*
Y67372D02*
D03*
X986344D02*
D03*
X991344D02*
D03*
X996344D02*
D03*
X1001344D02*
D03*
X1006344D02*
D03*
X1011344D02*
D03*
X1016344D02*
D03*
X1021343D02*
D03*
X1026344D02*
D03*
X1031344D02*
D03*
X1036344D02*
D03*
X1041344D02*
D03*
X1046343D02*
D03*
X1051344D02*
D03*
X1056344D02*
D03*
X1061344D02*
D03*
X1066344D02*
D03*
X1071344D02*
D03*
X1076344D02*
D03*
X1081344D02*
D03*
X1086344D02*
D03*
X1091344D02*
D03*
X1096344D02*
D03*
X1101344D02*
D03*
D29*
X-124528Y328420D02*
D03*
Y336420D02*
D03*
Y344420D02*
D03*
Y352420D02*
D03*
Y360420D02*
D03*
Y368420D02*
D03*
Y376420D02*
D03*
Y384420D02*
D03*
Y392420D02*
D03*
Y400420D02*
D03*
Y408420D02*
D03*
Y416420D02*
D03*
Y424420D02*
D03*
Y432420D02*
D03*
Y440420D02*
D03*
Y448420D02*
D03*
Y456420D02*
D03*
Y464420D02*
D03*
Y504420D02*
D03*
Y512420D02*
D03*
Y520420D02*
D03*
Y528420D02*
D03*
Y536420D02*
D03*
Y544420D02*
D03*
Y552420D02*
D03*
Y560420D02*
D03*
Y568420D02*
D03*
Y576420D02*
D03*
Y584420D02*
D03*
Y592420D02*
D03*
Y600420D02*
D03*
Y608420D02*
D03*
Y616420D02*
D03*
Y624420D02*
D03*
Y632420D02*
D03*
Y640420D02*
D03*
Y648420D02*
D03*
Y656420D02*
D03*
Y664420D02*
D03*
Y672420D02*
D03*
D30*
X414642Y502639D02*
D03*
X427342D02*
D03*
X440042D02*
D03*
X452742D02*
D03*
X414642Y550639D02*
D03*
X427342D02*
D03*
X440042D02*
D03*
X452742D02*
D03*
D31*
X56356Y195180D02*
D03*
D32*
X30956Y305180D02*
D03*
X81756D02*
D03*
D33*
X85756Y343180D02*
D03*
Y380180D02*
D03*
X12426Y380050D02*
D03*
Y343050D02*
D03*
D45*
X83000Y649200D02*
D03*
X1271410Y323720D02*
D03*
D46*
X83000Y674600D02*
D03*
Y776200D02*
D03*
Y801600D02*
D03*
Y827000D02*
D03*
Y700000D02*
D03*
Y750800D02*
D03*
X1296810Y323720D02*
D03*
X1271410Y298320D02*
D03*
X1296810D02*
D03*
X1271410Y272920D02*
D03*
X1296810D02*
D03*
X1271410Y247520D02*
D03*
X1296810D02*
D03*
X1271410Y222120D02*
D03*
X1296810D02*
D03*
D47*
X899665Y668611D02*
D03*
Y655911D02*
D03*
X912365Y668611D02*
D03*
Y655911D02*
D03*
X925065Y668611D02*
D03*
Y655911D02*
D03*
Y757011D02*
D03*
Y769711D02*
D03*
X912365Y757011D02*
D03*
Y769711D02*
D03*
X899665Y757011D02*
D03*
Y769711D02*
D03*
Y870811D02*
D03*
Y858111D02*
D03*
X912365Y870811D02*
D03*
Y858111D02*
D03*
X925065Y870811D02*
D03*
Y858111D02*
D03*
Y959211D02*
D03*
Y971911D02*
D03*
X912365Y959211D02*
D03*
Y971911D02*
D03*
X899665Y959211D02*
D03*
Y971911D02*
D03*
Y104311D02*
D03*
Y91611D02*
D03*
X912365Y104311D02*
D03*
Y91611D02*
D03*
X925065Y104311D02*
D03*
Y91611D02*
D03*
Y192714D02*
D03*
Y205414D02*
D03*
X912365Y192714D02*
D03*
Y205414D02*
D03*
X899665Y192714D02*
D03*
Y205414D02*
D03*
Y306511D02*
D03*
Y293811D02*
D03*
X912365Y306511D02*
D03*
Y293811D02*
D03*
X925065Y306511D02*
D03*
Y293811D02*
D03*
Y394911D02*
D03*
Y407611D02*
D03*
X912365Y394911D02*
D03*
Y407611D02*
D03*
X899665Y394911D02*
D03*
Y407611D02*
D03*
D48*
X1273100Y549110D02*
D03*
X1247700Y561810D02*
D03*
X1273100Y599910D02*
D03*
X1247700Y612610D02*
D03*
X1273100Y625310D02*
D03*
X1247700Y638010D02*
D03*
Y498310D02*
D03*
X1273100Y485610D02*
D03*
X1247700Y472910D02*
D03*
X1273100Y460210D02*
D03*
X1247700Y447510D02*
D03*
X1273100Y434810D02*
D03*
X1247700Y422110D02*
D03*
X1273100Y409410D02*
D03*
Y574510D02*
D03*
X1247700Y587210D02*
D03*
D49*
X1336600Y396710D02*
D03*
Y650710D02*
D03*
D50*
X1382300Y368810D02*
D03*
Y678610D02*
D03*
M02*
