G04*
G04 #@! TF.GenerationSoftware,Altium Limited,Altium Designer,20.1.11 (218)*
G04*
G04 Layer_Color=32768*
%FSLAX44Y44*%
%MOMM*%
G71*
G04*
G04 #@! TF.SameCoordinates,E9406FBE-0CF5-42A4-9056-286B0C8E7C04*
G04*
G04*
G04 #@! TF.FilePolarity,Positive*
G04*
G01*
G75*
%ADD11C,0.1270*%
%ADD140C,0.0508*%
D11*
X797453Y168006D02*
X813709D01*
X797453D02*
Y200772D01*
X813709D01*
Y168006D02*
Y200772D01*
X754591Y118618D02*
Y134874D01*
X787357D01*
Y118618D02*
Y134874D01*
X754591Y118618D02*
X787357D01*
X650382Y250910D02*
X666638D01*
X650382D02*
Y283676D01*
X666638D01*
Y250910D02*
Y283676D01*
X607520Y201522D02*
Y217778D01*
X640286D01*
Y201522D02*
Y217778D01*
X607520Y201522D02*
X640286D01*
X797702Y314410D02*
X813958D01*
X797702D02*
Y347176D01*
X813958D01*
Y314410D02*
Y347176D01*
X754840Y265022D02*
Y281278D01*
X787606D01*
Y265022D02*
Y281278D01*
X754840Y265022D02*
X787606D01*
X650382Y386800D02*
X666638D01*
X650382D02*
Y419566D01*
X666638D01*
Y386800D02*
Y419566D01*
X607520Y337412D02*
Y353668D01*
X640286D01*
Y337412D02*
Y353668D01*
X607520Y337412D02*
X640286D01*
X658002Y659850D02*
X674258D01*
X658002D02*
Y692616D01*
X674258D01*
Y659850D02*
Y692616D01*
X615140Y610462D02*
Y626718D01*
X647906D01*
Y610462D02*
Y626718D01*
X615140Y610462D02*
X647906D01*
X655462Y816060D02*
X671718D01*
X655462D02*
Y848826D01*
X671718D01*
Y816060D02*
Y848826D01*
X612600Y766672D02*
Y782928D01*
X645366D01*
Y766672D02*
Y782928D01*
X612600Y766672D02*
X645366D01*
X797453Y745856D02*
X813709D01*
X797453D02*
Y778622D01*
X813709D01*
Y745856D02*
Y778622D01*
X754591Y696468D02*
Y712724D01*
X787357D01*
Y696468D02*
Y712724D01*
X754591Y696468D02*
X787357D01*
X754591Y845058D02*
Y861314D01*
X787357D01*
Y845058D02*
Y861314D01*
X754591Y845058D02*
X787357D01*
X797453Y894446D02*
X813709D01*
X797453D02*
Y927212D01*
X813709D01*
Y894446D02*
Y927212D01*
X1005698Y217234D02*
Y250000D01*
X989442Y217234D02*
X1005698D01*
X989442D02*
Y250000D01*
X1005698D01*
Y359474D02*
Y392240D01*
X989442Y359474D02*
X1005698D01*
X989442D02*
Y392240D01*
X1005698D01*
X1015575Y649675D02*
Y682441D01*
X999319Y649675D02*
X1015575D01*
X999319D02*
Y682441D01*
X1015575D01*
Y791915D02*
Y824681D01*
X999319Y791915D02*
X1015575D01*
X999319D02*
Y824681D01*
X1015575D01*
D140*
X-44450Y647700D02*
X-3810D01*
Y624840D02*
Y647700D01*
X-44450Y624840D02*
X-3810D01*
X-44450D02*
Y647700D01*
X99060D02*
Y670560D01*
Y647700D02*
X139700D01*
Y670560D01*
X99060D02*
X139700D01*
X99060Y646430D02*
X139700D01*
Y623570D02*
Y646430D01*
X99060Y623570D02*
X139700D01*
X99060D02*
Y646430D01*
Y459740D02*
Y482600D01*
Y459740D02*
X139700D01*
Y482600D01*
X99060D02*
X139700D01*
X99060Y458470D02*
X139700D01*
Y435610D02*
Y458470D01*
X99060Y435610D02*
X139700D01*
X99060D02*
Y458470D01*
X-44450Y648970D02*
Y671830D01*
Y648970D02*
X-3810D01*
Y671830D01*
X-44450D02*
X-3810D01*
X29210Y613410D02*
Y636270D01*
Y613410D02*
X69850D01*
Y636270D01*
X29210D02*
X69850D01*
X29205Y611698D02*
X69845D01*
Y588838D02*
Y611698D01*
X29205Y588838D02*
X69845D01*
X29205D02*
Y611698D01*
X-44450Y595630D02*
Y618490D01*
Y595630D02*
X-3810D01*
Y618490D01*
X-44450D02*
X-3810D01*
X-44450Y594360D02*
X-3810D01*
Y571500D02*
Y594360D01*
X-44450Y571500D02*
X-3810D01*
X-44450D02*
Y594360D01*
X99060Y577850D02*
Y600710D01*
Y577850D02*
X139700D01*
Y600710D01*
X99060D02*
X139700D01*
X99060Y576580D02*
X139700D01*
Y553720D02*
Y576580D01*
X99060Y553720D02*
X139700D01*
X99060D02*
Y576580D01*
X30480Y547370D02*
Y570230D01*
Y547370D02*
X71120D01*
Y570230D01*
X30480D02*
X71120D01*
X30480Y546100D02*
X71120D01*
Y523240D02*
Y546100D01*
X30480Y523240D02*
X71120D01*
X30480D02*
Y546100D01*
X-44450Y537210D02*
Y560070D01*
Y537210D02*
X-3810D01*
Y560070D01*
X-44450D02*
X-3810D01*
X-44455Y536219D02*
X-3815D01*
Y513359D02*
Y536219D01*
X-44455Y513359D02*
X-3815D01*
X-44455D02*
Y536219D01*
X99060Y518160D02*
Y541020D01*
Y518160D02*
X139700D01*
Y541020D01*
X99060D02*
X139700D01*
X99060Y516890D02*
X139700D01*
Y494030D02*
Y516890D01*
X99060Y494030D02*
X139700D01*
X99060D02*
Y516890D01*
X31750Y482600D02*
Y505460D01*
Y482600D02*
X72390D01*
Y505460D01*
X31750D02*
X72390D01*
X31750Y481330D02*
X72390D01*
Y458470D02*
Y481330D01*
X31750Y458470D02*
X72390D01*
X31750D02*
Y481330D01*
M02*
