G04 Layer_Color=8388736*
%FSLAX44Y44*%
%MOMM*%
G71*
G01*
G75*
%ADD68R,0.9032X1.4032*%
%ADD69R,1.4032X0.9032*%
%ADD70O,2.0032X0.5032*%
%ADD71R,2.0032X2.2032*%
%ADD72O,0.5032X2.3032*%
%ADD73R,10.2032X10.2032*%
%ADD74O,2.3032X0.5032*%
%ADD75R,1.4032X1.0032*%
%ADD76R,1.0032X1.4032*%
%ADD77R,1.4032X1.3032*%
%ADD78R,0.8032X1.3032*%
%ADD79R,1.4032X2.3032*%
%ADD80R,2.3032X1.4032*%
%ADD81O,1.7032X0.4532*%
%ADD82R,1.8032X0.5032*%
%ADD83R,2.4032X2.5032*%
%ADD84O,2.4032X0.8032*%
%ADD85R,1.2032X1.1032*%
%ADD86O,0.5032X2.0032*%
%ADD87R,2.9000X0.6500*%
%ADD88O,0.8032X2.4032*%
%ADD89R,10.6932X10.1432*%
%ADD90R,1.2192X3.7072*%
%ADD91R,0.8532X3.2032*%
%ADD92R,2.2032X2.2032*%
%ADD93C,2.2032*%
%ADD94R,1.2032X1.2032*%
%ADD95C,1.7272*%
%ADD96C,4.7032*%
%ADD97C,2.2860*%
%ADD98C,1.5032*%
%ADD99C,0.9032*%
%ADD100C,1.2032*%
%ADD101C,0.7032*%
%ADD102C,1.3032*%
%ADD103C,1.7032*%
%ADD104C,0.5400*%
D68*
X322766Y176110D02*
D03*
X338766D02*
D03*
X322766Y213911D02*
D03*
X338766D02*
D03*
X1246911Y323420D02*
D03*
X1230911D02*
D03*
X439542Y461438D02*
D03*
X455542D02*
D03*
X352191Y498839D02*
D03*
X336191D02*
D03*
X324091D02*
D03*
X308091D02*
D03*
X342191Y521839D02*
D03*
X326191D02*
D03*
X342191Y538539D02*
D03*
X326191D02*
D03*
X326091Y555239D02*
D03*
X342091D02*
D03*
X664765Y72611D02*
D03*
X680765D02*
D03*
X551465Y118111D02*
D03*
X535465D02*
D03*
X551465Y72611D02*
D03*
X535465D02*
D03*
X664765Y908611D02*
D03*
X680765D02*
D03*
X664765Y954111D02*
D03*
X680765D02*
D03*
X551465D02*
D03*
X535465D02*
D03*
X551465Y908611D02*
D03*
X535465D02*
D03*
X808523Y338494D02*
D03*
X792523D02*
D03*
X808523Y237394D02*
D03*
X792523D02*
D03*
X808523Y136294D02*
D03*
X792523D02*
D03*
X808523Y35194D02*
D03*
X792523D02*
D03*
X808523Y902794D02*
D03*
X792523D02*
D03*
X808523Y801694D02*
D03*
X792523D02*
D03*
X454991Y663839D02*
D03*
X470991D02*
D03*
X454991Y263839D02*
D03*
X470991D02*
D03*
X305991Y663839D02*
D03*
X321991D02*
D03*
X321991Y263839D02*
D03*
X305991D02*
D03*
X509991Y663839D02*
D03*
X493991D02*
D03*
X509991Y263839D02*
D03*
X493991D02*
D03*
X509991Y680839D02*
D03*
X493991D02*
D03*
X509991Y280839D02*
D03*
X493991D02*
D03*
X305991Y680839D02*
D03*
X321991D02*
D03*
X321991Y280839D02*
D03*
X305991D02*
D03*
X470991Y680839D02*
D03*
X454991D02*
D03*
X470991Y280839D02*
D03*
X454991D02*
D03*
Y714839D02*
D03*
X470991D02*
D03*
X454991Y314839D02*
D03*
X470991D02*
D03*
X321991Y714839D02*
D03*
X305991D02*
D03*
X321991Y314839D02*
D03*
X305991D02*
D03*
X509941Y714839D02*
D03*
X493941D02*
D03*
X509941Y314839D02*
D03*
X493941D02*
D03*
X509991Y731839D02*
D03*
X493991D02*
D03*
X509991Y331839D02*
D03*
X493991D02*
D03*
X321991Y731839D02*
D03*
X305991D02*
D03*
X321991Y331839D02*
D03*
X305991D02*
D03*
X470991Y731839D02*
D03*
X454991D02*
D03*
X470991Y331839D02*
D03*
X454991D02*
D03*
Y766139D02*
D03*
X470991D02*
D03*
X454991Y366139D02*
D03*
X470991D02*
D03*
X321991Y766139D02*
D03*
X305991D02*
D03*
X321991Y366139D02*
D03*
X305991D02*
D03*
X509991Y766139D02*
D03*
X493991D02*
D03*
X509991Y366139D02*
D03*
X493991D02*
D03*
X509991Y782839D02*
D03*
X493991D02*
D03*
X509991Y382839D02*
D03*
X493991D02*
D03*
X321991Y782839D02*
D03*
X305991D02*
D03*
X321991Y382839D02*
D03*
X305991D02*
D03*
X470991Y782839D02*
D03*
X454991D02*
D03*
X470991Y382839D02*
D03*
X454991D02*
D03*
Y817639D02*
D03*
X470991D02*
D03*
X454991Y417640D02*
D03*
X470991D02*
D03*
X321991Y817639D02*
D03*
X305991D02*
D03*
X321991Y417640D02*
D03*
X305991D02*
D03*
X509991Y817639D02*
D03*
X493991D02*
D03*
X509991Y417640D02*
D03*
X493991D02*
D03*
X509942Y834638D02*
D03*
X493942D02*
D03*
X509942Y434638D02*
D03*
X493942D02*
D03*
X321991Y834638D02*
D03*
X305991D02*
D03*
X321991Y434638D02*
D03*
X305991D02*
D03*
X470942Y834638D02*
D03*
X454941D02*
D03*
X470942Y434638D02*
D03*
X454942D02*
D03*
X808523Y599494D02*
D03*
X792523D02*
D03*
X808523Y700594D02*
D03*
X792523D02*
D03*
X1239910Y272919D02*
D03*
X1223911D02*
D03*
D69*
X-47727Y378820D02*
D03*
Y362820D02*
D03*
X-69227Y378820D02*
D03*
Y362820D02*
D03*
X-26228Y362820D02*
D03*
Y378820D02*
D03*
X163591Y444056D02*
D03*
Y428056D02*
D03*
X187373Y886718D02*
D03*
Y870718D02*
D03*
X42565Y869744D02*
D03*
Y885744D02*
D03*
X131473Y870718D02*
D03*
Y886718D02*
D03*
X671665Y118111D02*
D03*
Y134111D02*
D03*
X333930Y23420D02*
D03*
Y39420D02*
D03*
X273216Y23420D02*
D03*
Y39420D02*
D03*
X455359Y23420D02*
D03*
Y39420D02*
D03*
X394644Y23420D02*
D03*
Y39420D02*
D03*
X91073Y23420D02*
D03*
Y39420D02*
D03*
X30359Y23420D02*
D03*
Y39420D02*
D03*
X212501Y23420D02*
D03*
Y39420D02*
D03*
X151787Y23420D02*
D03*
Y39420D02*
D03*
D70*
X965844Y192873D02*
D03*
Y182873D02*
D03*
Y187872D02*
D03*
Y197873D02*
D03*
X1116843Y82872D02*
D03*
Y87872D02*
D03*
Y92872D02*
D03*
Y97872D02*
D03*
Y102872D02*
D03*
Y107872D02*
D03*
Y112872D02*
D03*
Y117872D02*
D03*
Y122872D02*
D03*
Y127872D02*
D03*
Y132872D02*
D03*
Y137872D02*
D03*
Y142872D02*
D03*
Y147872D02*
D03*
Y152872D02*
D03*
Y157872D02*
D03*
Y162873D02*
D03*
Y167873D02*
D03*
Y172873D02*
D03*
Y177873D02*
D03*
Y182873D02*
D03*
Y187872D02*
D03*
Y192873D02*
D03*
Y197873D02*
D03*
Y202873D02*
D03*
X965844D02*
D03*
Y177873D02*
D03*
Y172873D02*
D03*
Y167873D02*
D03*
Y162873D02*
D03*
Y157872D02*
D03*
Y152872D02*
D03*
Y147872D02*
D03*
Y142872D02*
D03*
Y137872D02*
D03*
Y132872D02*
D03*
Y127872D02*
D03*
Y122872D02*
D03*
Y117872D02*
D03*
Y112872D02*
D03*
Y107872D02*
D03*
Y102872D02*
D03*
Y97872D02*
D03*
Y92872D02*
D03*
Y87872D02*
D03*
Y82872D02*
D03*
D71*
X1170843Y137872D02*
D03*
Y179673D02*
D03*
X1221643Y137673D02*
D03*
Y179673D02*
D03*
D72*
X195691Y615339D02*
D03*
X200691D02*
D03*
X210691D02*
D03*
X215691D02*
D03*
X230691D02*
D03*
X235691D02*
D03*
X245691D02*
D03*
X250691D02*
D03*
X255691D02*
D03*
X240691D02*
D03*
X225691D02*
D03*
X220691D02*
D03*
X205691D02*
D03*
X190691D02*
D03*
X185691D02*
D03*
X180691D02*
D03*
X175691D02*
D03*
X170691D02*
D03*
X165691D02*
D03*
X160691D02*
D03*
Y483339D02*
D03*
X165691D02*
D03*
X170691D02*
D03*
X175691D02*
D03*
X180691D02*
D03*
X185691D02*
D03*
X190691D02*
D03*
X205691D02*
D03*
X220691D02*
D03*
X225691D02*
D03*
X240691D02*
D03*
X255691D02*
D03*
X195691D02*
D03*
X200691D02*
D03*
X210691D02*
D03*
X215691D02*
D03*
X230691D02*
D03*
X235691D02*
D03*
X245691D02*
D03*
X250691D02*
D03*
D73*
X208191Y549339D02*
D03*
D74*
X142191Y586839D02*
D03*
Y581839D02*
D03*
Y576839D02*
D03*
Y571839D02*
D03*
Y566839D02*
D03*
Y561839D02*
D03*
Y556839D02*
D03*
Y551839D02*
D03*
Y546839D02*
D03*
Y541839D02*
D03*
Y536839D02*
D03*
Y531839D02*
D03*
Y526839D02*
D03*
Y521839D02*
D03*
Y516839D02*
D03*
Y511839D02*
D03*
Y506839D02*
D03*
Y501839D02*
D03*
X274191D02*
D03*
Y506839D02*
D03*
Y511839D02*
D03*
Y516839D02*
D03*
Y521839D02*
D03*
Y526839D02*
D03*
Y531839D02*
D03*
Y536839D02*
D03*
Y541839D02*
D03*
Y546839D02*
D03*
Y551839D02*
D03*
Y556839D02*
D03*
Y561839D02*
D03*
Y566839D02*
D03*
Y571839D02*
D03*
Y576839D02*
D03*
Y581839D02*
D03*
Y586839D02*
D03*
Y591839D02*
D03*
Y596839D02*
D03*
X142191Y591839D02*
D03*
Y596839D02*
D03*
D75*
X369436Y483539D02*
D03*
Y497539D02*
D03*
X255691Y367439D02*
D03*
Y381439D02*
D03*
X255691Y833339D02*
D03*
Y819339D02*
D03*
X255691Y781439D02*
D03*
Y767439D02*
D03*
Y729738D02*
D03*
Y715739D02*
D03*
Y679439D02*
D03*
Y665439D02*
D03*
X364491Y821339D02*
D03*
Y835339D02*
D03*
X794973Y359044D02*
D03*
Y373044D02*
D03*
Y257944D02*
D03*
Y271944D02*
D03*
Y156844D02*
D03*
Y170844D02*
D03*
Y55744D02*
D03*
Y69744D02*
D03*
Y923344D02*
D03*
Y937344D02*
D03*
Y822244D02*
D03*
Y836244D02*
D03*
X364491Y421339D02*
D03*
Y435339D02*
D03*
X255691Y315739D02*
D03*
Y329739D02*
D03*
X255691Y419339D02*
D03*
Y433339D02*
D03*
X255691Y265439D02*
D03*
Y279439D02*
D03*
X48756Y342180D02*
D03*
Y356180D02*
D03*
X794973Y620044D02*
D03*
Y634044D02*
D03*
Y721144D02*
D03*
Y735144D02*
D03*
X1253544Y137972D02*
D03*
Y123973D02*
D03*
D76*
X454041Y478539D02*
D03*
X440041D02*
D03*
X397891Y521839D02*
D03*
X383891D02*
D03*
X397892Y538539D02*
D03*
X383891D02*
D03*
X294291Y615339D02*
D03*
X280291D02*
D03*
X293091Y484539D02*
D03*
X279091D02*
D03*
X560265Y92111D02*
D03*
X546265D02*
D03*
X560265Y925711D02*
D03*
X546265D02*
D03*
X878822Y366544D02*
D03*
X892822D02*
D03*
X878822Y265444D02*
D03*
X892822D02*
D03*
X878822Y164344D02*
D03*
X892822D02*
D03*
X878822Y63244D02*
D03*
X892822D02*
D03*
X878822Y930844D02*
D03*
X892822D02*
D03*
X878822Y829744D02*
D03*
X892822D02*
D03*
X271501Y680839D02*
D03*
X285501D02*
D03*
X271501Y280839D02*
D03*
X285501D02*
D03*
Y714838D02*
D03*
X271501D02*
D03*
X285501Y314839D02*
D03*
X271502D02*
D03*
X271501Y731839D02*
D03*
X285501D02*
D03*
X271501Y331839D02*
D03*
X285501D02*
D03*
Y766138D02*
D03*
X271501D02*
D03*
X285501Y366138D02*
D03*
X271502D02*
D03*
X271501Y782839D02*
D03*
X285501D02*
D03*
X271501Y382839D02*
D03*
X285501D02*
D03*
Y817639D02*
D03*
X271501D02*
D03*
X285501Y417639D02*
D03*
X271502D02*
D03*
X271501Y834638D02*
D03*
X285501D02*
D03*
X271501Y434638D02*
D03*
X285501D02*
D03*
Y663838D02*
D03*
X271501D02*
D03*
X285501Y263839D02*
D03*
X271502D02*
D03*
X123756Y336180D02*
D03*
X137756D02*
D03*
X878822Y627544D02*
D03*
X892822D02*
D03*
X878822Y728644D02*
D03*
X892822D02*
D03*
X1200275Y101810D02*
D03*
X1186275D02*
D03*
X1186165Y40291D02*
D03*
X1200165D02*
D03*
D77*
X131473Y909501D02*
D03*
Y930501D02*
D03*
X42465Y910744D02*
D03*
Y931744D02*
D03*
X187373Y909501D02*
D03*
Y930501D02*
D03*
X353423Y39420D02*
D03*
Y60420D02*
D03*
X292810Y39420D02*
D03*
Y60420D02*
D03*
X474649Y39420D02*
D03*
Y60420D02*
D03*
X414036Y39420D02*
D03*
Y60420D02*
D03*
X110969Y39420D02*
D03*
Y60420D02*
D03*
X50359Y39420D02*
D03*
Y60420D02*
D03*
X232197Y39420D02*
D03*
Y60420D02*
D03*
X171584Y39420D02*
D03*
Y60420D02*
D03*
D78*
X865623Y353344D02*
D03*
X846623D02*
D03*
Y379344D02*
D03*
X856123D02*
D03*
X865623D02*
D03*
Y252244D02*
D03*
X846623D02*
D03*
Y278244D02*
D03*
X856123D02*
D03*
X865623D02*
D03*
Y151144D02*
D03*
X846623D02*
D03*
Y177144D02*
D03*
X856123D02*
D03*
X865623D02*
D03*
Y50044D02*
D03*
X846623D02*
D03*
Y76044D02*
D03*
X856123D02*
D03*
X865623D02*
D03*
Y917644D02*
D03*
X846623D02*
D03*
Y943644D02*
D03*
X856123D02*
D03*
X865623D02*
D03*
Y816544D02*
D03*
X846623D02*
D03*
Y842544D02*
D03*
X856123D02*
D03*
X865623D02*
D03*
X865623Y715444D02*
D03*
X846623D02*
D03*
Y741444D02*
D03*
X856123D02*
D03*
X865623D02*
D03*
X865623Y614344D02*
D03*
X846623D02*
D03*
Y640344D02*
D03*
X856123D02*
D03*
X865623D02*
D03*
D79*
X193065Y185311D02*
D03*
X163065D02*
D03*
D80*
X539241Y841839D02*
D03*
Y811839D02*
D03*
X539242Y257239D02*
D03*
Y287239D02*
D03*
X539241Y441839D02*
D03*
Y411839D02*
D03*
X539241Y789839D02*
D03*
Y759839D02*
D03*
X539241Y687238D02*
D03*
Y657239D02*
D03*
X539241Y738839D02*
D03*
Y708839D02*
D03*
X539241Y389839D02*
D03*
Y359839D02*
D03*
Y338839D02*
D03*
Y308839D02*
D03*
D81*
X419491Y312839D02*
D03*
Y317839D02*
D03*
Y322839D02*
D03*
Y327839D02*
D03*
Y332839D02*
D03*
Y337839D02*
D03*
Y342839D02*
D03*
Y347839D02*
D03*
Y352839D02*
D03*
Y357839D02*
D03*
Y362839D02*
D03*
Y367839D02*
D03*
Y372839D02*
D03*
Y377839D02*
D03*
Y382839D02*
D03*
Y387839D02*
D03*
Y392839D02*
D03*
Y397839D02*
D03*
Y402839D02*
D03*
X364491Y312839D02*
D03*
Y317839D02*
D03*
Y322839D02*
D03*
Y327839D02*
D03*
Y332839D02*
D03*
Y337839D02*
D03*
Y342839D02*
D03*
Y347839D02*
D03*
Y352839D02*
D03*
Y357839D02*
D03*
Y362839D02*
D03*
Y367839D02*
D03*
Y372839D02*
D03*
Y377839D02*
D03*
Y382839D02*
D03*
Y387839D02*
D03*
Y392839D02*
D03*
Y397839D02*
D03*
Y402839D02*
D03*
X419491Y712839D02*
D03*
Y717839D02*
D03*
Y722839D02*
D03*
Y727839D02*
D03*
Y732839D02*
D03*
Y737839D02*
D03*
Y742839D02*
D03*
Y747839D02*
D03*
Y752839D02*
D03*
Y757839D02*
D03*
Y762839D02*
D03*
Y767839D02*
D03*
Y772839D02*
D03*
Y777839D02*
D03*
Y782839D02*
D03*
Y787839D02*
D03*
Y792839D02*
D03*
Y797839D02*
D03*
Y802839D02*
D03*
X364491Y712839D02*
D03*
Y717839D02*
D03*
Y722839D02*
D03*
Y727839D02*
D03*
Y732839D02*
D03*
Y737839D02*
D03*
Y742839D02*
D03*
Y747839D02*
D03*
Y752839D02*
D03*
Y757839D02*
D03*
Y762839D02*
D03*
Y767839D02*
D03*
Y772839D02*
D03*
Y777839D02*
D03*
Y782839D02*
D03*
Y787839D02*
D03*
Y792839D02*
D03*
Y797839D02*
D03*
Y802839D02*
D03*
D82*
X636665Y66111D02*
D03*
Y72611D02*
D03*
Y79111D02*
D03*
Y85611D02*
D03*
Y92111D02*
D03*
Y98611D02*
D03*
Y105111D02*
D03*
Y111611D02*
D03*
Y118111D02*
D03*
Y124611D02*
D03*
X579665Y66111D02*
D03*
Y72611D02*
D03*
Y79111D02*
D03*
Y85611D02*
D03*
Y92111D02*
D03*
Y98611D02*
D03*
Y105111D02*
D03*
Y111611D02*
D03*
Y118111D02*
D03*
Y124611D02*
D03*
X636665Y902111D02*
D03*
Y908611D02*
D03*
Y915111D02*
D03*
Y921611D02*
D03*
Y928111D02*
D03*
Y934611D02*
D03*
Y941111D02*
D03*
Y947611D02*
D03*
Y954111D02*
D03*
Y960611D02*
D03*
X579665Y902111D02*
D03*
Y908611D02*
D03*
Y915111D02*
D03*
Y921611D02*
D03*
Y928111D02*
D03*
Y934611D02*
D03*
Y941111D02*
D03*
Y947611D02*
D03*
Y954111D02*
D03*
Y960611D02*
D03*
D83*
X130756Y245680D02*
D03*
Y302680D02*
D03*
D84*
X425472Y120070D02*
D03*
Y107370D02*
D03*
Y94670D02*
D03*
Y81970D02*
D03*
X473473Y120070D02*
D03*
Y107370D02*
D03*
Y94670D02*
D03*
Y81970D02*
D03*
X300473Y120070D02*
D03*
Y107370D02*
D03*
Y94670D02*
D03*
Y81970D02*
D03*
X348473Y120070D02*
D03*
Y107370D02*
D03*
Y94670D02*
D03*
Y81970D02*
D03*
X175473Y120070D02*
D03*
Y107370D02*
D03*
Y94670D02*
D03*
Y81970D02*
D03*
X223472Y120070D02*
D03*
Y107370D02*
D03*
Y94670D02*
D03*
Y81970D02*
D03*
X50472Y120070D02*
D03*
Y107370D02*
D03*
Y94670D02*
D03*
Y81970D02*
D03*
X98472Y120070D02*
D03*
Y107370D02*
D03*
Y94670D02*
D03*
Y81970D02*
D03*
D85*
X388404Y109836D02*
D03*
Y94074D02*
D03*
X263460Y109836D02*
D03*
Y94074D02*
D03*
X138516Y109836D02*
D03*
Y94074D02*
D03*
X13572Y109836D02*
D03*
Y94074D02*
D03*
D86*
X1101344Y218372D02*
D03*
X1096344D02*
D03*
X1091344D02*
D03*
X1086344D02*
D03*
X1081344D02*
D03*
X1076344D02*
D03*
X1071344D02*
D03*
X1066344D02*
D03*
X1061344D02*
D03*
X1056344D02*
D03*
X1051344D02*
D03*
X1046343D02*
D03*
X1041344D02*
D03*
X1036344D02*
D03*
X1031344D02*
D03*
X1026344D02*
D03*
X1021343D02*
D03*
X1016344D02*
D03*
X1011344D02*
D03*
X1006344D02*
D03*
X1001344D02*
D03*
X996344D02*
D03*
X991344D02*
D03*
X986344D02*
D03*
X981344D02*
D03*
Y67372D02*
D03*
X986344D02*
D03*
X991344D02*
D03*
X996344D02*
D03*
X1001344D02*
D03*
X1006344D02*
D03*
X1011344D02*
D03*
X1016344D02*
D03*
X1021343D02*
D03*
X1026344D02*
D03*
X1031344D02*
D03*
X1036344D02*
D03*
X1041344D02*
D03*
X1046343D02*
D03*
X1051344D02*
D03*
X1056344D02*
D03*
X1061344D02*
D03*
X1066344D02*
D03*
X1071344D02*
D03*
X1076344D02*
D03*
X1081344D02*
D03*
X1086344D02*
D03*
X1091344D02*
D03*
X1096344D02*
D03*
X1101344D02*
D03*
D87*
X-124528Y328420D02*
D03*
Y336420D02*
D03*
Y344420D02*
D03*
Y352420D02*
D03*
Y360420D02*
D03*
Y368420D02*
D03*
Y376420D02*
D03*
Y384420D02*
D03*
Y392420D02*
D03*
Y400420D02*
D03*
Y408420D02*
D03*
Y416420D02*
D03*
Y424420D02*
D03*
Y432420D02*
D03*
Y440420D02*
D03*
Y448420D02*
D03*
Y456420D02*
D03*
Y464420D02*
D03*
Y504420D02*
D03*
Y512420D02*
D03*
Y520420D02*
D03*
Y528420D02*
D03*
Y536420D02*
D03*
Y544420D02*
D03*
Y552420D02*
D03*
Y560420D02*
D03*
Y568420D02*
D03*
Y576420D02*
D03*
Y584420D02*
D03*
Y592420D02*
D03*
Y600420D02*
D03*
Y608420D02*
D03*
Y616420D02*
D03*
Y624420D02*
D03*
Y632420D02*
D03*
Y640420D02*
D03*
Y648420D02*
D03*
Y656420D02*
D03*
Y664420D02*
D03*
Y672420D02*
D03*
D88*
X414642Y502639D02*
D03*
X427342D02*
D03*
X440042D02*
D03*
X452742D02*
D03*
X414642Y550639D02*
D03*
X427342D02*
D03*
X440042D02*
D03*
X452742D02*
D03*
D89*
X56356Y195180D02*
D03*
D90*
X30956Y305180D02*
D03*
X81756D02*
D03*
D91*
X85756Y343180D02*
D03*
Y380180D02*
D03*
X12426Y380050D02*
D03*
Y343050D02*
D03*
D92*
X83000Y649200D02*
D03*
X1271410Y323720D02*
D03*
D93*
X83000Y674600D02*
D03*
Y776200D02*
D03*
Y801600D02*
D03*
Y827000D02*
D03*
Y700000D02*
D03*
Y750800D02*
D03*
X1296810Y323720D02*
D03*
X1271410Y298320D02*
D03*
X1296810D02*
D03*
X1271410Y272920D02*
D03*
X1296810D02*
D03*
X1271410Y247520D02*
D03*
X1296810D02*
D03*
X1271410Y222120D02*
D03*
X1296810D02*
D03*
D94*
X899665Y668611D02*
D03*
Y655911D02*
D03*
X912365Y668611D02*
D03*
Y655911D02*
D03*
X925065Y668611D02*
D03*
Y655911D02*
D03*
Y757011D02*
D03*
Y769711D02*
D03*
X912365Y757011D02*
D03*
Y769711D02*
D03*
X899665Y757011D02*
D03*
Y769711D02*
D03*
Y870811D02*
D03*
Y858111D02*
D03*
X912365Y870811D02*
D03*
Y858111D02*
D03*
X925065Y870811D02*
D03*
Y858111D02*
D03*
Y959211D02*
D03*
Y971911D02*
D03*
X912365Y959211D02*
D03*
Y971911D02*
D03*
X899665Y959211D02*
D03*
Y971911D02*
D03*
Y104311D02*
D03*
Y91611D02*
D03*
X912365Y104311D02*
D03*
Y91611D02*
D03*
X925065Y104311D02*
D03*
Y91611D02*
D03*
Y192714D02*
D03*
Y205414D02*
D03*
X912365Y192714D02*
D03*
Y205414D02*
D03*
X899665Y192714D02*
D03*
Y205414D02*
D03*
Y306511D02*
D03*
Y293811D02*
D03*
X912365Y306511D02*
D03*
Y293811D02*
D03*
X925065Y306511D02*
D03*
Y293811D02*
D03*
Y394911D02*
D03*
Y407611D02*
D03*
X912365Y394911D02*
D03*
Y407611D02*
D03*
X899665Y394911D02*
D03*
Y407611D02*
D03*
D95*
X1273100Y549110D02*
D03*
X1247700Y561810D02*
D03*
X1273100Y599910D02*
D03*
X1247700Y612610D02*
D03*
X1273100Y625310D02*
D03*
X1247700Y638010D02*
D03*
Y498310D02*
D03*
X1273100Y485610D02*
D03*
X1247700Y472910D02*
D03*
X1273100Y460210D02*
D03*
X1247700Y447510D02*
D03*
X1273100Y434810D02*
D03*
X1247700Y422110D02*
D03*
X1273100Y409410D02*
D03*
Y574510D02*
D03*
X1247700Y587210D02*
D03*
D96*
X1336600Y396710D02*
D03*
Y650710D02*
D03*
D97*
X1382300Y368810D02*
D03*
Y678610D02*
D03*
D98*
X-25000Y674000D02*
D03*
X307366Y176110D02*
D03*
Y213911D02*
D03*
X-78927Y630220D02*
D03*
X-53927Y640920D02*
D03*
X-48928Y464420D02*
D03*
X-93028Y416420D02*
D03*
Y392420D02*
D03*
Y368420D02*
D03*
X-93228Y350720D02*
D03*
X-47727Y348120D02*
D03*
X-69227D02*
D03*
X1209910Y273030D02*
D03*
X1145643Y187072D02*
D03*
X1168243Y214673D02*
D03*
X1213111Y323420D02*
D03*
X404004Y81970D02*
D03*
X279004Y81970D02*
D03*
Y119928D02*
D03*
X154004Y81970D02*
D03*
Y119928D02*
D03*
X29004Y81970D02*
D03*
Y119928D02*
D03*
X404004D02*
D03*
X496772Y107770D02*
D03*
X-65627Y448420D02*
D03*
X1196829Y170514D02*
D03*
X1253544Y111284D02*
D03*
X1196033Y137673D02*
D03*
X1188833Y183773D02*
D03*
X946533Y122672D02*
D03*
Y143973D02*
D03*
X491810Y60920D02*
D03*
X370584D02*
D03*
X249359D02*
D03*
X128130Y60920D02*
D03*
X94456Y165480D02*
D03*
Y178180D02*
D03*
X81756D02*
D03*
X69056D02*
D03*
X56356D02*
D03*
X43656D02*
D03*
X30956D02*
D03*
X18256D02*
D03*
Y165480D02*
D03*
X30956D02*
D03*
X43656D02*
D03*
X56356D02*
D03*
X69056D02*
D03*
X81756D02*
D03*
X338665Y232111D02*
D03*
X338466Y192911D02*
D03*
D99*
X-100227Y648420D02*
D03*
Y664420D02*
D03*
Y672420D02*
D03*
X680867Y896211D02*
D03*
X717272Y657344D02*
D03*
X-67828Y328420D02*
D03*
X650965Y925111D02*
D03*
Y937212D02*
D03*
X899723Y138444D02*
D03*
X717923Y186244D02*
D03*
X783673Y163044D02*
D03*
X784523Y148094D02*
D03*
X822723Y136294D02*
D03*
X837823Y153544D02*
D03*
X806873Y163144D02*
D03*
X838823Y163144D02*
D03*
X837022Y182794D02*
D03*
X933623Y156344D02*
D03*
X849723Y125844D02*
D03*
X899723Y904944D02*
D03*
X717923Y952744D02*
D03*
X783673Y929544D02*
D03*
X784523Y914594D02*
D03*
X822723Y902794D02*
D03*
X837823Y920044D02*
D03*
X806873Y929644D02*
D03*
X838823Y929644D02*
D03*
X837022Y949294D02*
D03*
X933623Y922844D02*
D03*
X849723Y892344D02*
D03*
X899723Y702744D02*
D03*
X717923Y750544D02*
D03*
X783673Y727344D02*
D03*
X784523Y712394D02*
D03*
X822723Y700594D02*
D03*
X837823Y717844D02*
D03*
X806873Y727444D02*
D03*
X838823Y727444D02*
D03*
X837022Y747094D02*
D03*
X933623Y720644D02*
D03*
X849723Y690144D02*
D03*
X899723Y340644D02*
D03*
X717923Y388444D02*
D03*
X783673Y365244D02*
D03*
X784523Y350294D02*
D03*
X822723Y338494D02*
D03*
X837823Y355744D02*
D03*
X806873Y365344D02*
D03*
X838823Y365344D02*
D03*
X837022Y384994D02*
D03*
X933623Y358544D02*
D03*
X849723Y328044D02*
D03*
X899723Y803844D02*
D03*
X717923Y851644D02*
D03*
X783673Y828444D02*
D03*
X784523Y813494D02*
D03*
X822723Y801694D02*
D03*
X837823Y818944D02*
D03*
X806873Y828544D02*
D03*
X838823Y828544D02*
D03*
X837022Y848194D02*
D03*
X933623Y821744D02*
D03*
X849723Y791244D02*
D03*
X899723Y601644D02*
D03*
X783673Y626244D02*
D03*
X784523Y611294D02*
D03*
X822723Y599494D02*
D03*
X837823Y616744D02*
D03*
X806873Y626344D02*
D03*
X838823Y626344D02*
D03*
X837022Y645994D02*
D03*
X933623Y619544D02*
D03*
X849723Y589044D02*
D03*
X899723Y37344D02*
D03*
X717923Y85144D02*
D03*
X783673Y61944D02*
D03*
X784523Y46994D02*
D03*
X822723Y35194D02*
D03*
X837823Y52444D02*
D03*
X806873Y62044D02*
D03*
X838823Y62044D02*
D03*
X837022Y81694D02*
D03*
X933623Y55244D02*
D03*
X419491Y412739D02*
D03*
X404191Y386939D02*
D03*
X837823Y254644D02*
D03*
X520792Y400689D02*
D03*
X520991Y800189D02*
D03*
X837022Y283894D02*
D03*
X616765Y94910D02*
D03*
X609765Y73210D02*
D03*
X558316Y105111D02*
D03*
X596466Y92111D02*
D03*
X535465Y102610D02*
D03*
X693165Y954111D02*
D03*
X607165Y911611D02*
D03*
X608565Y956711D02*
D03*
X616965Y931311D02*
D03*
X535265Y935911D02*
D03*
X563365Y941011D02*
D03*
X92436Y553938D02*
D03*
X286891Y602839D02*
D03*
X368841Y528638D02*
D03*
X383891Y564239D02*
D03*
X414642Y577138D02*
D03*
X291591Y497139D02*
D03*
X267391Y484639D02*
D03*
X280291Y629539D02*
D03*
X297191Y507639D02*
D03*
X308491Y571839D02*
D03*
X349991Y784039D02*
D03*
X783673Y264144D02*
D03*
X806873Y264244D02*
D03*
X849723Y226944D02*
D03*
X899723Y239544D02*
D03*
X717923Y287344D02*
D03*
X822723Y237394D02*
D03*
X784523Y249194D02*
D03*
X838823Y264244D02*
D03*
X933623Y257444D02*
D03*
X419491Y812739D02*
D03*
X496991Y748439D02*
D03*
X436591Y730639D02*
D03*
X434391Y755238D02*
D03*
X433491Y779939D02*
D03*
X364491Y846538D02*
D03*
X349591Y732038D02*
D03*
X349391Y758438D02*
D03*
X296091Y672539D02*
D03*
Y723539D02*
D03*
Y774639D02*
D03*
Y826539D02*
D03*
X298891Y752239D02*
D03*
X404191Y735739D02*
D03*
Y762239D02*
D03*
Y786939D02*
D03*
X364491Y702238D02*
D03*
X369436Y473139D02*
D03*
X364491Y446539D02*
D03*
X296091Y374639D02*
D03*
X349991Y384039D02*
D03*
X298892Y352239D02*
D03*
X349391Y358439D02*
D03*
X296091Y323539D02*
D03*
X349591Y332039D02*
D03*
X433491Y379939D02*
D03*
X496991Y348439D02*
D03*
X434391Y355239D02*
D03*
X436591Y330639D02*
D03*
X404191Y335739D02*
D03*
Y362239D02*
D03*
X364491Y302239D02*
D03*
X296091Y272539D02*
D03*
Y426539D02*
D03*
X334592Y434638D02*
D03*
X481941D02*
D03*
X334391Y417640D02*
D03*
X481941D02*
D03*
X333092Y263839D02*
D03*
X481941D02*
D03*
X331591Y280839D02*
D03*
X481941D02*
D03*
X332991Y315339D02*
D03*
X481941Y314839D02*
D03*
X331891Y334839D02*
D03*
X481941Y331839D02*
D03*
X334891Y367839D02*
D03*
X481941Y366139D02*
D03*
X334391Y386439D02*
D03*
X481941Y382839D02*
D03*
X691756Y81180D02*
D03*
X671665Y143171D02*
D03*
X849456Y31280D02*
D03*
X1009456Y41480D02*
D03*
X1002456Y50480D02*
D03*
X991344Y49680D02*
D03*
X980256Y48580D02*
D03*
X974164Y67372D02*
D03*
X965844Y73267D02*
D03*
X661665Y97111D02*
D03*
X651865Y102110D02*
D03*
X602665Y116111D02*
D03*
X639165Y32611D02*
D03*
X650665Y44111D02*
D03*
X245858Y245920D02*
D03*
X334390Y817639D02*
D03*
X481941D02*
D03*
X334592Y834638D02*
D03*
X481941D02*
D03*
X334891Y767839D02*
D03*
X481941Y766139D02*
D03*
X334391Y786439D02*
D03*
X481941Y782839D02*
D03*
X333464Y715121D02*
D03*
X481941Y714839D02*
D03*
X331891Y734839D02*
D03*
X481941Y731839D02*
D03*
X330291Y680839D02*
D03*
X481941D02*
D03*
X333091Y663839D02*
D03*
X481941D02*
D03*
X314491Y588039D02*
D03*
X304891Y589438D02*
D03*
X294791Y592739D02*
D03*
D100*
X868814Y967792D02*
D03*
Y866692D02*
D03*
Y765592D02*
D03*
Y664492D02*
D03*
Y403492D02*
D03*
Y302392D02*
D03*
Y201292D02*
D03*
Y100192D02*
D03*
X1036344Y162073D02*
D03*
X-43127Y616520D02*
D03*
X-91427Y592420D02*
D03*
Y568420D02*
D03*
Y544420D02*
D03*
Y520420D02*
D03*
X943697Y371544D02*
D03*
Y270444D02*
D03*
Y169344D02*
D03*
Y68244D02*
D03*
X380991Y384939D02*
D03*
X42565Y856544D02*
D03*
X59665Y931744D02*
D03*
X131473Y857401D02*
D03*
X114273Y930501D02*
D03*
X170173D02*
D03*
X187373Y857401D02*
D03*
X163591Y415736D02*
D03*
X163591Y455157D02*
D03*
X599565Y928111D02*
D03*
X467942Y461438D02*
D03*
Y478539D02*
D03*
X364491Y810439D02*
D03*
X380991Y784939D02*
D03*
Y760039D02*
D03*
Y734939D02*
D03*
X364491Y410439D02*
D03*
X380991Y334939D02*
D03*
Y360039D02*
D03*
X137756Y350802D02*
D03*
X14756Y22180D02*
D03*
X943697Y935844D02*
D03*
Y834744D02*
D03*
Y733644D02*
D03*
Y632544D02*
D03*
X1213272Y40244D02*
D03*
D101*
X1051344Y83872D02*
D03*
X1038143Y83973D02*
D03*
X1068344Y86782D02*
D03*
X1079343D02*
D03*
X1097843Y147172D02*
D03*
X1097143Y135072D02*
D03*
X1097434Y114873D02*
D03*
Y125872D02*
D03*
X993344Y86782D02*
D03*
X1004343D02*
D03*
X983044Y132872D02*
D03*
Y142872D02*
D03*
X985253Y165872D02*
D03*
Y154873D02*
D03*
X1036344Y199673D02*
D03*
X1009343Y198963D02*
D03*
X998344D02*
D03*
X1068344D02*
D03*
X1079343D02*
D03*
X-97227Y632420D02*
D03*
X177091Y636539D02*
D03*
X482092Y323789D02*
D03*
X482292Y374389D02*
D03*
X482391Y723689D02*
D03*
X482291Y774689D02*
D03*
X248091Y639439D02*
D03*
X187491Y647339D02*
D03*
X183491Y640838D02*
D03*
X221791Y641739D02*
D03*
X205691Y654239D02*
D03*
X108492Y579639D02*
D03*
X117391Y579739D02*
D03*
X108492Y519039D02*
D03*
X117391Y518939D02*
D03*
X183791Y457939D02*
D03*
X185591Y450039D02*
D03*
X205691Y444439D02*
D03*
X221791Y456939D02*
D03*
X229391Y454539D02*
D03*
X248091Y459239D02*
D03*
X294891Y548639D02*
D03*
X302891Y536839D02*
D03*
X296791Y563239D02*
D03*
X229391Y644139D02*
D03*
X-92038Y440420D02*
D03*
X71565Y461211D02*
D03*
Y469711D02*
D03*
Y485611D02*
D03*
Y494111D02*
D03*
Y520911D02*
D03*
Y529411D02*
D03*
Y586411D02*
D03*
Y594911D02*
D03*
Y559211D02*
D03*
Y567711D02*
D03*
D102*
X1050143Y243272D02*
D03*
X1072543D02*
D03*
X1084643Y253172D02*
D03*
X1103043D02*
D03*
X1115143Y243272D02*
D03*
X305591Y555239D02*
D03*
X130756Y226401D02*
D03*
X1007544Y243272D02*
D03*
X1019643Y253172D02*
D03*
X1038043D02*
D03*
D103*
X1155266Y38526D02*
D03*
X1172093D02*
D03*
X1212965Y109033D02*
D03*
X214765Y185311D02*
D03*
X141365D02*
D03*
X48756Y292180D02*
D03*
Y311180D02*
D03*
X104756Y320180D02*
D03*
X47926Y380050D02*
D03*
D104*
X1192569Y81759D02*
D03*
Y66244D02*
D03*
Y74001D02*
D03*
M02*
