G04*
G04 #@! TF.GenerationSoftware,Altium Limited,Altium Designer,20.1.11 (218)*
G04*
G04 Layer_Color=16711935*
%FSLAX44Y44*%
%MOMM*%
G71*
G04*
G04 #@! TF.SameCoordinates,CA948749-C0CA-4A07-9612-D5345AABE6DD*
G04*
G04*
G04 #@! TF.FilePolarity,Positive*
G04*
G01*
G75*
%ADD11C,0.1270*%
%ADD19C,0.2540*%
G36*
X593377Y1091205D02*
X593932Y1091158D01*
X594071D01*
X594210Y1091112D01*
X594395D01*
X594857Y1091019D01*
X595367Y1090927D01*
X595505D01*
X595783Y1090834D01*
X596153Y1090742D01*
X596524Y1090603D01*
X596616Y1090557D01*
X596755Y1090510D01*
X596986Y1090371D01*
X597125Y1090279D01*
X597171D01*
X597218Y1090186D01*
X597310Y1089955D01*
X597356Y1089862D01*
X597449Y1089631D01*
Y1089585D01*
X597495Y1089492D01*
X597542Y1089353D01*
Y1089168D01*
Y1089122D01*
X597588Y1088983D01*
Y1088752D01*
Y1088474D01*
Y1088428D01*
Y1088382D01*
Y1088104D01*
Y1087780D01*
X597542Y1087456D01*
Y1087410D01*
X597495Y1087225D01*
X597449Y1086993D01*
X597403Y1086808D01*
Y1086762D01*
X597356Y1086669D01*
X597310Y1086577D01*
X597218Y1086484D01*
X597171D01*
X597125Y1086438D01*
X596847Y1086392D01*
X596709D01*
X596477Y1086438D01*
X596246Y1086484D01*
X596199Y1086530D01*
X596014Y1086577D01*
X595690Y1086669D01*
X595320Y1086762D01*
X595274D01*
X595228Y1086808D01*
X594950Y1086854D01*
X594534Y1086993D01*
X594024Y1087086D01*
X593978D01*
X593886Y1087132D01*
X593747D01*
X593562Y1087178D01*
X593053Y1087225D01*
X592081D01*
X591803Y1087178D01*
X591433Y1087132D01*
X590970Y1087086D01*
X590507Y1086993D01*
X590045Y1086808D01*
X589628Y1086623D01*
X589582Y1086577D01*
X589443Y1086530D01*
X589258Y1086392D01*
X588980Y1086206D01*
X588702Y1085975D01*
X588378Y1085651D01*
X588101Y1085327D01*
X587823Y1084957D01*
X587777Y1084911D01*
X587730Y1084772D01*
X587592Y1084540D01*
X587453Y1084263D01*
X587268Y1083939D01*
X587083Y1083522D01*
X586944Y1083059D01*
X586805Y1082550D01*
Y1082504D01*
X586759Y1082319D01*
X586712Y1082041D01*
X586620Y1081671D01*
X586574Y1081255D01*
X586527Y1080792D01*
X586435Y1079681D01*
X586527Y1079727D01*
X586759Y1079866D01*
X587083Y1080051D01*
X587453Y1080236D01*
X587499D01*
X587545Y1080283D01*
X587823Y1080422D01*
X588193Y1080560D01*
X588656Y1080699D01*
X588702D01*
X588795Y1080745D01*
X588934Y1080792D01*
X589119Y1080838D01*
X589582Y1080977D01*
X590137Y1081069D01*
X590183D01*
X590276Y1081116D01*
X590415D01*
X590646Y1081162D01*
X591155Y1081208D01*
X592127D01*
X592497Y1081162D01*
X592960D01*
X593469Y1081069D01*
X594024Y1080977D01*
X594580Y1080838D01*
X595135Y1080653D01*
X595181Y1080607D01*
X595367Y1080560D01*
X595644Y1080422D01*
X595968Y1080236D01*
X596338Y1080005D01*
X596709Y1079774D01*
X597079Y1079450D01*
X597449Y1079079D01*
X597495Y1079033D01*
X597588Y1078894D01*
X597773Y1078709D01*
X597958Y1078431D01*
X598143Y1078061D01*
X598375Y1077645D01*
X598560Y1077182D01*
X598745Y1076673D01*
Y1076627D01*
X598837Y1076441D01*
X598884Y1076164D01*
X598976Y1075747D01*
X599069Y1075285D01*
X599115Y1074775D01*
X599208Y1074174D01*
Y1073526D01*
Y1073433D01*
Y1073202D01*
X599161Y1072832D01*
X599115Y1072369D01*
X599069Y1071814D01*
X598976Y1071166D01*
X598791Y1070564D01*
X598606Y1069916D01*
X598560Y1069824D01*
X598513Y1069639D01*
X598375Y1069315D01*
X598143Y1068944D01*
X597912Y1068482D01*
X597634Y1067972D01*
X597264Y1067463D01*
X596847Y1067001D01*
X596801Y1066954D01*
X596662Y1066815D01*
X596385Y1066584D01*
X596061Y1066307D01*
X595644Y1066029D01*
X595135Y1065705D01*
X594580Y1065381D01*
X593978Y1065103D01*
X593886Y1065057D01*
X593700Y1065011D01*
X593330Y1064918D01*
X592868Y1064779D01*
X592266Y1064640D01*
X591618Y1064548D01*
X590831Y1064502D01*
X590045Y1064455D01*
X589720D01*
X589397Y1064502D01*
X588980D01*
X588471Y1064548D01*
X587962Y1064640D01*
X586898Y1064872D01*
X586851D01*
X586666Y1064964D01*
X586435Y1065011D01*
X586111Y1065150D01*
X585787Y1065335D01*
X585370Y1065520D01*
X584584Y1066029D01*
X584537Y1066075D01*
X584445Y1066168D01*
X584260Y1066353D01*
X584028Y1066538D01*
X583797Y1066815D01*
X583519Y1067140D01*
X583010Y1067880D01*
X582964Y1067926D01*
X582918Y1068065D01*
X582779Y1068297D01*
X582686Y1068620D01*
X582501Y1068991D01*
X582362Y1069407D01*
X582038Y1070379D01*
Y1070425D01*
X581992Y1070610D01*
X581899Y1070888D01*
X581853Y1071258D01*
X581761Y1071721D01*
X581668Y1072230D01*
X581575Y1072785D01*
X581529Y1073387D01*
Y1073480D01*
Y1073665D01*
X581483Y1073989D01*
Y1074405D01*
X581437Y1074914D01*
Y1075516D01*
X581390Y1076164D01*
Y1076812D01*
Y1076904D01*
Y1077089D01*
Y1077367D01*
Y1077784D01*
X581437Y1078246D01*
Y1078802D01*
X581529Y1080005D01*
Y1080098D01*
X581575Y1080283D01*
Y1080607D01*
X581668Y1081023D01*
X581714Y1081532D01*
X581807Y1082087D01*
X582085Y1083244D01*
Y1083337D01*
X582177Y1083522D01*
X582270Y1083846D01*
X582408Y1084216D01*
X582594Y1084725D01*
X582779Y1085235D01*
X583288Y1086299D01*
X583334Y1086345D01*
X583427Y1086530D01*
X583612Y1086808D01*
X583843Y1087178D01*
X584121Y1087595D01*
X584445Y1088011D01*
X584861Y1088428D01*
X585278Y1088844D01*
X585324Y1088891D01*
X585509Y1089029D01*
X585787Y1089214D01*
X586111Y1089492D01*
X586574Y1089770D01*
X587083Y1090048D01*
X587638Y1090325D01*
X588286Y1090603D01*
X588378Y1090649D01*
X588610Y1090695D01*
X588980Y1090788D01*
X589489Y1090927D01*
X590091Y1091066D01*
X590785Y1091158D01*
X591572Y1091205D01*
X592451Y1091251D01*
X592914D01*
X593377Y1091205D01*
D02*
G37*
G36*
X711064Y1084540D02*
X711480Y1084494D01*
X711943Y1084448D01*
X712452Y1084355D01*
X712961Y1084170D01*
X713424Y1083985D01*
X713470Y1083939D01*
X713609Y1083892D01*
X713840Y1083754D01*
X714118Y1083568D01*
X714442Y1083337D01*
X714766Y1083013D01*
X715090Y1082689D01*
X715368Y1082319D01*
X715414Y1082273D01*
X715506Y1082134D01*
X715645Y1081902D01*
X715784Y1081625D01*
X715969Y1081301D01*
X716154Y1080884D01*
X716339Y1080422D01*
X716478Y1079912D01*
Y1079866D01*
X716524Y1079681D01*
X716571Y1079403D01*
X716663Y1079033D01*
X716710Y1078570D01*
X716756Y1078108D01*
X716802Y1076997D01*
Y1065566D01*
Y1065520D01*
Y1065427D01*
X716756Y1065335D01*
X716663Y1065196D01*
X716617D01*
X716571Y1065103D01*
X716432Y1065057D01*
X716247Y1064964D01*
X716200D01*
X716062Y1064918D01*
X715830D01*
X715506Y1064872D01*
X715414D01*
X715182Y1064826D01*
X714812Y1064779D01*
X713840D01*
X713424Y1064826D01*
X713054Y1064872D01*
X712961D01*
X712776Y1064918D01*
X712544D01*
X712267Y1064964D01*
X712221D01*
X712128Y1065011D01*
X711989Y1065103D01*
X711897Y1065196D01*
Y1065242D01*
X711850Y1065288D01*
X711804Y1065566D01*
Y1076164D01*
Y1076210D01*
Y1076303D01*
Y1076488D01*
Y1076719D01*
X711711Y1077228D01*
X711619Y1077784D01*
Y1077830D01*
X711573Y1077923D01*
X711526Y1078061D01*
X711480Y1078200D01*
X711295Y1078617D01*
X711064Y1079033D01*
Y1079079D01*
X711017Y1079126D01*
X710832Y1079357D01*
X710555Y1079635D01*
X710184Y1079866D01*
X710092Y1079912D01*
X709860Y1080051D01*
X709444Y1080144D01*
X708935Y1080190D01*
X708796D01*
X708611Y1080144D01*
X708379Y1080098D01*
X708102Y1080005D01*
X707824Y1079866D01*
X707454Y1079681D01*
X707130Y1079450D01*
X707084Y1079403D01*
X706991Y1079311D01*
X706760Y1079172D01*
X706528Y1078941D01*
X706251Y1078663D01*
X705880Y1078293D01*
X705510Y1077876D01*
X705140Y1077413D01*
Y1065566D01*
Y1065520D01*
Y1065427D01*
X705094Y1065335D01*
X705001Y1065196D01*
X704955D01*
X704908Y1065103D01*
X704770Y1065057D01*
X704585Y1064964D01*
X704538D01*
X704399Y1064918D01*
X704122D01*
X703798Y1064872D01*
X703705D01*
X703474Y1064826D01*
X703104Y1064779D01*
X702224D01*
X701808Y1064826D01*
X701391Y1064872D01*
X701299D01*
X701114Y1064918D01*
X700882D01*
X700651Y1064964D01*
X700604D01*
X700512Y1065011D01*
X700373Y1065103D01*
X700234Y1065196D01*
Y1065242D01*
X700188Y1065288D01*
X700142Y1065566D01*
Y1076164D01*
Y1076210D01*
Y1076303D01*
Y1076488D01*
Y1076719D01*
X700049Y1077228D01*
X699957Y1077784D01*
Y1077830D01*
X699910Y1077923D01*
X699864Y1078061D01*
X699818Y1078200D01*
X699633Y1078617D01*
X699401Y1079033D01*
Y1079079D01*
X699355Y1079126D01*
X699170Y1079357D01*
X698892Y1079635D01*
X698522Y1079866D01*
X698429Y1079912D01*
X698198Y1080051D01*
X697782Y1080144D01*
X697272Y1080190D01*
X697134D01*
X696948Y1080144D01*
X696717Y1080098D01*
X696393Y1080005D01*
X696115Y1079866D01*
X695745Y1079681D01*
X695421Y1079450D01*
X695375Y1079403D01*
X695283Y1079311D01*
X695097Y1079172D01*
X694820Y1078941D01*
X694542Y1078663D01*
X694218Y1078293D01*
X693848Y1077876D01*
X693478Y1077413D01*
Y1065566D01*
Y1065520D01*
Y1065427D01*
X693431Y1065335D01*
X693339Y1065196D01*
X693292D01*
X693246Y1065103D01*
X693107Y1065057D01*
X692922Y1064964D01*
X692876D01*
X692737Y1064918D01*
X692459D01*
X692135Y1064872D01*
X692043D01*
X691812Y1064826D01*
X691441Y1064779D01*
X690516D01*
X690099Y1064826D01*
X689683Y1064872D01*
X689590D01*
X689405Y1064918D01*
X689174D01*
X688942Y1064964D01*
X688896D01*
X688803Y1065011D01*
X688665Y1065103D01*
X688526Y1065196D01*
Y1065242D01*
X688480Y1065288D01*
X688433Y1065566D01*
Y1083383D01*
Y1083430D01*
Y1083522D01*
X688526Y1083754D01*
Y1083800D01*
X688618Y1083846D01*
X688711Y1083892D01*
X688850Y1083985D01*
X688896D01*
X689035Y1084031D01*
X689266Y1084078D01*
X689544Y1084124D01*
X689636D01*
X689822Y1084170D01*
X690145Y1084216D01*
X690932D01*
X691302Y1084170D01*
X691626Y1084124D01*
X691719D01*
X691858Y1084078D01*
X692089Y1084031D01*
X692274Y1083985D01*
X692321D01*
X692413Y1083939D01*
X692506Y1083846D01*
X692598Y1083754D01*
X692645Y1083707D01*
X692691Y1083661D01*
X692737Y1083522D01*
Y1083383D01*
Y1081347D01*
X692783Y1081440D01*
X693015Y1081625D01*
X693292Y1081902D01*
X693663Y1082273D01*
X694079Y1082643D01*
X694588Y1083059D01*
X695097Y1083430D01*
X695653Y1083754D01*
X695699Y1083800D01*
X695930Y1083892D01*
X696208Y1084031D01*
X696578Y1084170D01*
X697041Y1084309D01*
X697596Y1084448D01*
X698152Y1084540D01*
X698753Y1084587D01*
X699124D01*
X699401Y1084540D01*
X700003Y1084494D01*
X700697Y1084309D01*
X700743D01*
X700836Y1084263D01*
X701021Y1084216D01*
X701206Y1084124D01*
X701715Y1083939D01*
X702271Y1083661D01*
X702317D01*
X702409Y1083568D01*
X702687Y1083383D01*
X703057Y1083059D01*
X703474Y1082643D01*
X703520Y1082597D01*
X703566Y1082550D01*
X703659Y1082411D01*
X703752Y1082226D01*
X704029Y1081810D01*
X704307Y1081255D01*
X704353Y1081301D01*
X704446Y1081393D01*
X704631Y1081579D01*
X704816Y1081764D01*
X705325Y1082273D01*
X705880Y1082736D01*
X705927Y1082782D01*
X706019Y1082828D01*
X706158Y1082967D01*
X706389Y1083106D01*
X706852Y1083430D01*
X707408Y1083754D01*
X707454D01*
X707546Y1083846D01*
X707685Y1083892D01*
X707870Y1083985D01*
X708333Y1084170D01*
X708888Y1084355D01*
X708935D01*
X709027Y1084401D01*
X709166Y1084448D01*
X709351Y1084494D01*
X709860Y1084540D01*
X710416Y1084587D01*
X710740D01*
X711064Y1084540D01*
D02*
G37*
G36*
X677743D02*
X678159Y1084494D01*
X678622Y1084448D01*
X679131Y1084355D01*
X679640Y1084170D01*
X680103Y1083985D01*
X680149Y1083939D01*
X680288Y1083892D01*
X680519Y1083754D01*
X680797Y1083568D01*
X681121Y1083337D01*
X681445Y1083013D01*
X681769Y1082689D01*
X682047Y1082319D01*
X682093Y1082273D01*
X682186Y1082134D01*
X682324Y1081902D01*
X682463Y1081625D01*
X682648Y1081301D01*
X682833Y1080884D01*
X683019Y1080422D01*
X683157Y1079912D01*
Y1079866D01*
X683204Y1079681D01*
X683250Y1079403D01*
X683343Y1079033D01*
X683389Y1078570D01*
X683435Y1078108D01*
X683481Y1076997D01*
Y1065566D01*
Y1065520D01*
Y1065427D01*
X683435Y1065335D01*
X683343Y1065196D01*
X683296D01*
X683250Y1065103D01*
X683111Y1065057D01*
X682926Y1064964D01*
X682880D01*
X682741Y1064918D01*
X682510D01*
X682186Y1064872D01*
X682093D01*
X681862Y1064826D01*
X681491Y1064779D01*
X680519D01*
X680103Y1064826D01*
X679733Y1064872D01*
X679640D01*
X679455Y1064918D01*
X679224D01*
X678946Y1064964D01*
X678900D01*
X678807Y1065011D01*
X678668Y1065103D01*
X678576Y1065196D01*
Y1065242D01*
X678530Y1065288D01*
X678483Y1065566D01*
Y1076164D01*
Y1076210D01*
Y1076303D01*
Y1076488D01*
Y1076719D01*
X678391Y1077228D01*
X678298Y1077784D01*
Y1077830D01*
X678252Y1077923D01*
X678206Y1078061D01*
X678159Y1078200D01*
X677974Y1078617D01*
X677743Y1079033D01*
Y1079079D01*
X677697Y1079126D01*
X677511Y1079357D01*
X677234Y1079635D01*
X676863Y1079866D01*
X676771Y1079912D01*
X676540Y1080051D01*
X676123Y1080144D01*
X675614Y1080190D01*
X675475D01*
X675290Y1080144D01*
X675059Y1080098D01*
X674781Y1080005D01*
X674503Y1079866D01*
X674133Y1079681D01*
X673809Y1079450D01*
X673763Y1079403D01*
X673670Y1079311D01*
X673439Y1079172D01*
X673207Y1078941D01*
X672930Y1078663D01*
X672560Y1078293D01*
X672189Y1077876D01*
X671819Y1077413D01*
Y1065566D01*
Y1065520D01*
Y1065427D01*
X671773Y1065335D01*
X671680Y1065196D01*
X671634D01*
X671588Y1065103D01*
X671449Y1065057D01*
X671264Y1064964D01*
X671217D01*
X671079Y1064918D01*
X670801D01*
X670477Y1064872D01*
X670385D01*
X670153Y1064826D01*
X669783Y1064779D01*
X668904D01*
X668487Y1064826D01*
X668071Y1064872D01*
X667978D01*
X667793Y1064918D01*
X667561D01*
X667330Y1064964D01*
X667284D01*
X667191Y1065011D01*
X667052Y1065103D01*
X666914Y1065196D01*
Y1065242D01*
X666867Y1065288D01*
X666821Y1065566D01*
Y1076164D01*
Y1076210D01*
Y1076303D01*
Y1076488D01*
Y1076719D01*
X666728Y1077228D01*
X666636Y1077784D01*
Y1077830D01*
X666590Y1077923D01*
X666543Y1078061D01*
X666497Y1078200D01*
X666312Y1078617D01*
X666080Y1079033D01*
Y1079079D01*
X666034Y1079126D01*
X665849Y1079357D01*
X665572Y1079635D01*
X665201Y1079866D01*
X665109Y1079912D01*
X664877Y1080051D01*
X664461Y1080144D01*
X663952Y1080190D01*
X663813D01*
X663628Y1080144D01*
X663396Y1080098D01*
X663072Y1080005D01*
X662795Y1079866D01*
X662424Y1079681D01*
X662101Y1079450D01*
X662054Y1079403D01*
X661962Y1079311D01*
X661777Y1079172D01*
X661499Y1078941D01*
X661221Y1078663D01*
X660897Y1078293D01*
X660527Y1077876D01*
X660157Y1077413D01*
Y1065566D01*
Y1065520D01*
Y1065427D01*
X660111Y1065335D01*
X660018Y1065196D01*
X659972D01*
X659926Y1065103D01*
X659787Y1065057D01*
X659602Y1064964D01*
X659555D01*
X659416Y1064918D01*
X659139D01*
X658815Y1064872D01*
X658722D01*
X658491Y1064826D01*
X658121Y1064779D01*
X657195D01*
X656778Y1064826D01*
X656362Y1064872D01*
X656269D01*
X656084Y1064918D01*
X655853D01*
X655621Y1064964D01*
X655575D01*
X655483Y1065011D01*
X655344Y1065103D01*
X655205Y1065196D01*
Y1065242D01*
X655159Y1065288D01*
X655113Y1065566D01*
Y1083383D01*
Y1083430D01*
Y1083522D01*
X655205Y1083754D01*
Y1083800D01*
X655298Y1083846D01*
X655390Y1083892D01*
X655529Y1083985D01*
X655575D01*
X655714Y1084031D01*
X655946Y1084078D01*
X656223Y1084124D01*
X656316D01*
X656501Y1084170D01*
X656825Y1084216D01*
X657611D01*
X657982Y1084170D01*
X658306Y1084124D01*
X658398D01*
X658537Y1084078D01*
X658768Y1084031D01*
X658954Y1083985D01*
X659000D01*
X659092Y1083939D01*
X659185Y1083846D01*
X659277Y1083754D01*
X659324Y1083707D01*
X659370Y1083661D01*
X659416Y1083522D01*
Y1083383D01*
Y1081347D01*
X659463Y1081440D01*
X659694Y1081625D01*
X659972Y1081902D01*
X660342Y1082273D01*
X660759Y1082643D01*
X661267Y1083059D01*
X661777Y1083430D01*
X662332Y1083754D01*
X662378Y1083800D01*
X662610Y1083892D01*
X662887Y1084031D01*
X663258Y1084170D01*
X663720Y1084309D01*
X664276Y1084448D01*
X664831Y1084540D01*
X665433Y1084587D01*
X665803D01*
X666080Y1084540D01*
X666682Y1084494D01*
X667376Y1084309D01*
X667423D01*
X667515Y1084263D01*
X667700Y1084216D01*
X667885Y1084124D01*
X668394Y1083939D01*
X668950Y1083661D01*
X668996D01*
X669089Y1083568D01*
X669366Y1083383D01*
X669737Y1083059D01*
X670153Y1082643D01*
X670199Y1082597D01*
X670246Y1082550D01*
X670338Y1082411D01*
X670431Y1082226D01*
X670708Y1081810D01*
X670986Y1081255D01*
X671032Y1081301D01*
X671125Y1081393D01*
X671310Y1081579D01*
X671495Y1081764D01*
X672004Y1082273D01*
X672560Y1082736D01*
X672606Y1082782D01*
X672698Y1082828D01*
X672837Y1082967D01*
X673069Y1083106D01*
X673531Y1083430D01*
X674087Y1083754D01*
X674133D01*
X674226Y1083846D01*
X674364Y1083892D01*
X674550Y1083985D01*
X675012Y1084170D01*
X675568Y1084355D01*
X675614D01*
X675706Y1084401D01*
X675845Y1084448D01*
X676031Y1084494D01*
X676540Y1084540D01*
X677095Y1084587D01*
X677419D01*
X677743Y1084540D01*
D02*
G37*
G36*
X575606Y1090742D02*
X575698Y1090649D01*
X575744Y1090603D01*
X575791Y1090557D01*
X575883Y1090418D01*
X575976Y1090233D01*
Y1090186D01*
X576022Y1090048D01*
X576068Y1089862D01*
X576115Y1089585D01*
Y1089492D01*
X576161Y1089307D01*
X576207Y1088983D01*
Y1088567D01*
Y1088520D01*
Y1088382D01*
Y1088150D01*
X576161Y1087919D01*
X576115Y1087317D01*
X576068Y1087039D01*
X575976Y1086808D01*
X575929Y1086715D01*
X575837Y1086577D01*
X575606Y1086392D01*
X575513Y1086345D01*
X575374Y1086299D01*
X566211D01*
Y1080745D01*
X566350D01*
X566489Y1080792D01*
X566627D01*
X567090Y1080838D01*
X567831D01*
X568016Y1080884D01*
X569404D01*
X569774Y1080838D01*
X570283D01*
X570839Y1080745D01*
X571487Y1080653D01*
X572135Y1080560D01*
X572736Y1080375D01*
X572829D01*
X573014Y1080283D01*
X573338Y1080144D01*
X573708Y1080005D01*
X574125Y1079774D01*
X574587Y1079542D01*
X575050Y1079218D01*
X575467Y1078894D01*
X575513Y1078848D01*
X575652Y1078709D01*
X575837Y1078524D01*
X576115Y1078246D01*
X576392Y1077923D01*
X576670Y1077506D01*
X576948Y1077043D01*
X577179Y1076534D01*
X577225Y1076488D01*
X577271Y1076303D01*
X577364Y1075979D01*
X577503Y1075609D01*
X577595Y1075146D01*
X577688Y1074590D01*
X577734Y1073989D01*
X577781Y1073295D01*
Y1073202D01*
Y1072924D01*
X577734Y1072554D01*
X577688Y1072045D01*
X577595Y1071443D01*
X577457Y1070842D01*
X577271Y1070194D01*
X577040Y1069546D01*
X576994Y1069453D01*
X576901Y1069268D01*
X576716Y1068944D01*
X576485Y1068574D01*
X576207Y1068111D01*
X575837Y1067649D01*
X575420Y1067186D01*
X574958Y1066723D01*
X574911Y1066677D01*
X574726Y1066538D01*
X574449Y1066353D01*
X574078Y1066075D01*
X573615Y1065797D01*
X573060Y1065520D01*
X572458Y1065242D01*
X571764Y1065011D01*
X571672D01*
X571440Y1064918D01*
X571070Y1064826D01*
X570561Y1064733D01*
X569959Y1064640D01*
X569265Y1064548D01*
X568479Y1064502D01*
X567645Y1064455D01*
X567229D01*
X566905Y1064502D01*
X566535D01*
X566165Y1064548D01*
X565332Y1064640D01*
X565285D01*
X565146Y1064687D01*
X564961D01*
X564684Y1064733D01*
X564082Y1064826D01*
X563388Y1064964D01*
X563342D01*
X563249Y1065011D01*
X563110Y1065057D01*
X562925Y1065103D01*
X562462Y1065242D01*
X562000Y1065427D01*
X561907Y1065473D01*
X561722Y1065566D01*
X561444Y1065705D01*
X561259Y1065844D01*
Y1065890D01*
X561166Y1065936D01*
X561028Y1066168D01*
Y1066214D01*
X560981Y1066307D01*
X560889Y1066584D01*
Y1066630D01*
Y1066769D01*
X560843Y1066954D01*
Y1067186D01*
Y1067278D01*
Y1067463D01*
Y1067741D01*
Y1068111D01*
Y1068158D01*
Y1068204D01*
Y1068435D01*
Y1068759D01*
Y1069037D01*
Y1069129D01*
X560889Y1069268D01*
X560935Y1069500D01*
X560981Y1069685D01*
Y1069731D01*
X561028Y1069824D01*
X561120Y1069916D01*
X561166Y1070009D01*
X561213Y1070055D01*
X561259Y1070101D01*
X561352Y1070148D01*
X561537D01*
X561629Y1070101D01*
X561814Y1070055D01*
X562092Y1069916D01*
X562185Y1069870D01*
X562370Y1069777D01*
X562740Y1069592D01*
X563157Y1069361D01*
X563203D01*
X563295Y1069315D01*
X563434Y1069268D01*
X563619Y1069176D01*
X564128Y1069037D01*
X564776Y1068852D01*
X564823D01*
X564961Y1068805D01*
X565146D01*
X565424Y1068759D01*
X565748Y1068713D01*
X566165D01*
X566627Y1068667D01*
X567507D01*
X567784Y1068713D01*
X568479Y1068759D01*
X569173Y1068898D01*
X569219D01*
X569358Y1068944D01*
X569497Y1068991D01*
X569728Y1069083D01*
X570283Y1069315D01*
X570793Y1069639D01*
X570839Y1069685D01*
X570885Y1069731D01*
X571163Y1070009D01*
X571487Y1070425D01*
X571811Y1070981D01*
Y1071027D01*
X571857Y1071120D01*
X571950Y1071305D01*
X571996Y1071536D01*
X572088Y1071814D01*
X572135Y1072138D01*
X572181Y1072924D01*
Y1072971D01*
Y1073063D01*
Y1073248D01*
X572135Y1073480D01*
X572042Y1074035D01*
X571857Y1074590D01*
Y1074637D01*
X571811Y1074729D01*
X571718Y1074868D01*
X571626Y1075053D01*
X571348Y1075470D01*
X570931Y1075886D01*
X570885Y1075932D01*
X570839Y1075979D01*
X570654Y1076071D01*
X570468Y1076164D01*
X570237Y1076303D01*
X569959Y1076441D01*
X569265Y1076673D01*
X569219D01*
X569080Y1076719D01*
X568849Y1076766D01*
X568571Y1076812D01*
X568201Y1076858D01*
X567784Y1076904D01*
X567322Y1076951D01*
X566118D01*
X565424Y1076904D01*
X564684Y1076812D01*
X564545D01*
X564360Y1076766D01*
X564128D01*
X563573Y1076719D01*
X562925Y1076673D01*
X562832D01*
X562601Y1076719D01*
X562323Y1076812D01*
X562092Y1076951D01*
X562046Y1076997D01*
X562000Y1077228D01*
X561907Y1077552D01*
X561861Y1078061D01*
Y1089261D01*
Y1089307D01*
Y1089400D01*
X561907Y1089724D01*
X562000Y1090094D01*
X562138Y1090418D01*
X562185Y1090464D01*
X562370Y1090603D01*
X562694Y1090742D01*
X563157Y1090788D01*
X575467D01*
X575606Y1090742D01*
D02*
G37*
G36*
X642617Y1091205D02*
X643080D01*
X643635Y1091112D01*
X644237Y1091019D01*
X644839Y1090881D01*
X645394Y1090695D01*
X645440D01*
X645672Y1090603D01*
X645949Y1090464D01*
X646273Y1090325D01*
X647106Y1089862D01*
X647523Y1089585D01*
X647893Y1089261D01*
X647939Y1089214D01*
X648078Y1089122D01*
X648263Y1088937D01*
X648448Y1088659D01*
X648726Y1088335D01*
X648957Y1088011D01*
X649189Y1087595D01*
X649420Y1087132D01*
X649466Y1087086D01*
X649513Y1086900D01*
X649605Y1086669D01*
X649698Y1086345D01*
X649790Y1085929D01*
X649837Y1085466D01*
X649929Y1084957D01*
Y1084448D01*
Y1084401D01*
Y1084216D01*
Y1083985D01*
X649883Y1083661D01*
Y1083291D01*
X649837Y1082874D01*
X649652Y1081949D01*
Y1081902D01*
X649605Y1081717D01*
X649559Y1081486D01*
X649420Y1081162D01*
X649281Y1080792D01*
X649143Y1080329D01*
X648911Y1079820D01*
X648633Y1079311D01*
X648587Y1079265D01*
X648495Y1079079D01*
X648309Y1078802D01*
X648078Y1078385D01*
X647800Y1077923D01*
X647430Y1077413D01*
X647014Y1076858D01*
X646505Y1076210D01*
X646458Y1076118D01*
X646273Y1075932D01*
X645949Y1075562D01*
X645533Y1075099D01*
X645024Y1074498D01*
X644376Y1073850D01*
X643635Y1073063D01*
X642849Y1072276D01*
X639841Y1069176D01*
X650161D01*
X650253Y1069129D01*
X650392Y1069037D01*
X650438Y1068991D01*
X650485Y1068944D01*
X650670Y1068667D01*
X650716Y1068620D01*
X650762Y1068482D01*
X650808Y1068297D01*
X650855Y1068019D01*
Y1067926D01*
X650901Y1067741D01*
X650947Y1067417D01*
Y1067047D01*
Y1067001D01*
Y1066954D01*
Y1066677D01*
X650901Y1066353D01*
X650855Y1066029D01*
Y1065983D01*
X650808Y1065797D01*
X650762Y1065566D01*
X650716Y1065335D01*
Y1065288D01*
X650670Y1065196D01*
X650577Y1065103D01*
X650438Y1065011D01*
X650346Y1064964D01*
X650114Y1064918D01*
X634703D01*
X634472Y1064964D01*
X634426D01*
X634287Y1065057D01*
X634102Y1065150D01*
X633917Y1065288D01*
X633871Y1065335D01*
X633824Y1065473D01*
X633732Y1065659D01*
X633639Y1065936D01*
Y1066029D01*
Y1066260D01*
X633593Y1066630D01*
Y1067093D01*
Y1067140D01*
Y1067186D01*
Y1067463D01*
Y1067834D01*
X633639Y1068204D01*
Y1068250D01*
Y1068297D01*
X633685Y1068528D01*
X633732Y1068805D01*
X633824Y1069083D01*
X633871Y1069129D01*
X633963Y1069315D01*
X634102Y1069546D01*
X634241Y1069777D01*
X634287Y1069824D01*
X634426Y1070009D01*
X634657Y1070286D01*
X634935Y1070564D01*
X639424Y1075377D01*
X639470Y1075423D01*
X639655Y1075609D01*
X639887Y1075886D01*
X640211Y1076210D01*
X640535Y1076627D01*
X640905Y1077043D01*
X641229Y1077460D01*
X641553Y1077923D01*
X641599Y1077969D01*
X641692Y1078108D01*
X641830Y1078339D01*
X642016Y1078617D01*
X642432Y1079311D01*
X642849Y1080005D01*
Y1080051D01*
X642941Y1080190D01*
X642987Y1080375D01*
X643126Y1080607D01*
X643311Y1081162D01*
X643496Y1081764D01*
Y1081810D01*
X643543Y1081902D01*
Y1082041D01*
X643589Y1082273D01*
X643635Y1082736D01*
X643682Y1083291D01*
Y1083337D01*
Y1083383D01*
X643635Y1083707D01*
X643589Y1084078D01*
X643450Y1084540D01*
Y1084587D01*
X643404Y1084633D01*
X643265Y1084911D01*
X643080Y1085235D01*
X642802Y1085558D01*
X642756Y1085651D01*
X642525Y1085836D01*
X642201Y1086068D01*
X641784Y1086253D01*
X641738D01*
X641692Y1086299D01*
X641553Y1086345D01*
X641368Y1086392D01*
X640905Y1086484D01*
X640303Y1086530D01*
X639887D01*
X639609Y1086484D01*
X638961Y1086392D01*
X638221Y1086206D01*
X638174D01*
X638082Y1086160D01*
X637897Y1086114D01*
X637665Y1086021D01*
X637156Y1085836D01*
X636601Y1085558D01*
X636555D01*
X636508Y1085512D01*
X636184Y1085327D01*
X635814Y1085096D01*
X635444Y1084864D01*
X635351Y1084818D01*
X635166Y1084725D01*
X634935Y1084633D01*
X634750Y1084587D01*
X634657D01*
X634426Y1084679D01*
Y1084725D01*
X634333Y1084772D01*
X634287Y1084911D01*
X634194Y1085096D01*
Y1085142D01*
X634148Y1085281D01*
Y1085512D01*
X634102Y1085836D01*
Y1085929D01*
Y1086160D01*
X634056Y1086530D01*
Y1086993D01*
Y1087086D01*
Y1087271D01*
Y1087502D01*
Y1087734D01*
Y1087780D01*
X634102Y1087919D01*
X634148Y1088289D01*
Y1088335D01*
X634194Y1088428D01*
X634287Y1088659D01*
X634333Y1088705D01*
X634380Y1088798D01*
X634657Y1089076D01*
X634703Y1089122D01*
X634889Y1089261D01*
X635166Y1089446D01*
X635583Y1089677D01*
X635629D01*
X635722Y1089724D01*
X635860Y1089816D01*
X636046Y1089909D01*
X636601Y1090140D01*
X637249Y1090371D01*
X637295D01*
X637434Y1090418D01*
X637619Y1090510D01*
X637897Y1090603D01*
X638174Y1090695D01*
X638545Y1090788D01*
X639378Y1090973D01*
X639424D01*
X639609Y1091019D01*
X639841Y1091066D01*
X640164Y1091112D01*
X640535Y1091158D01*
X640951Y1091205D01*
X641877Y1091251D01*
X642201D01*
X642617Y1091205D01*
D02*
G37*
G36*
X550846Y1090927D02*
X550939D01*
X551124Y1090881D01*
X551355Y1090834D01*
X551587Y1090788D01*
X551633D01*
X551726Y1090742D01*
X551818Y1090695D01*
X551911Y1090603D01*
X551957Y1090557D01*
X552003Y1090325D01*
Y1068991D01*
X556261D01*
X556400Y1068944D01*
X556492Y1068852D01*
X556539D01*
X556585Y1068759D01*
X556677Y1068667D01*
X556770Y1068482D01*
Y1068435D01*
X556816Y1068297D01*
X556863Y1068111D01*
X556909Y1067834D01*
Y1067787D01*
X556955Y1067602D01*
X557001Y1067278D01*
Y1066908D01*
Y1066862D01*
Y1066815D01*
Y1066584D01*
X556955Y1066260D01*
X556909Y1065936D01*
Y1065890D01*
X556863Y1065705D01*
X556816Y1065520D01*
X556724Y1065335D01*
Y1065288D01*
X556677Y1065196D01*
X556585Y1065103D01*
X556492Y1065011D01*
X556400Y1064964D01*
X556168Y1064918D01*
X541822D01*
X541637Y1065011D01*
X541544Y1065103D01*
X541452Y1065196D01*
X541359Y1065335D01*
Y1065381D01*
X541313Y1065520D01*
X541267Y1065705D01*
X541220Y1065936D01*
Y1066029D01*
Y1066214D01*
X541174Y1066538D01*
Y1066908D01*
Y1066954D01*
Y1067001D01*
Y1067232D01*
Y1067556D01*
X541220Y1067834D01*
Y1067926D01*
X541267Y1068065D01*
X541313Y1068297D01*
X541359Y1068482D01*
Y1068528D01*
X541405Y1068620D01*
X541498Y1068759D01*
X541591Y1068852D01*
X541637Y1068898D01*
X541683Y1068944D01*
X541776Y1068991D01*
X546774D01*
Y1085836D01*
X542609Y1083522D01*
X542516Y1083476D01*
X542331Y1083383D01*
X542100Y1083291D01*
X541822Y1083244D01*
X541498D01*
X541359Y1083337D01*
Y1083383D01*
X541267Y1083476D01*
X541220Y1083661D01*
X541174Y1083939D01*
Y1084031D01*
Y1084263D01*
X541128Y1084587D01*
Y1085096D01*
Y1085142D01*
Y1085188D01*
Y1085373D01*
Y1085651D01*
Y1085882D01*
Y1085929D01*
Y1086068D01*
X541220Y1086438D01*
Y1086484D01*
X541267Y1086577D01*
X541452Y1086808D01*
X541498Y1086854D01*
X541544Y1086900D01*
X541822Y1087086D01*
X547375Y1090695D01*
X547422Y1090742D01*
X547607Y1090834D01*
X547653D01*
X547746Y1090881D01*
X548070D01*
X548208Y1090927D01*
X548717D01*
X548903Y1090973D01*
X550476D01*
X550846Y1090927D01*
D02*
G37*
G36*
X622625Y1091205D02*
X623226Y1091158D01*
X623921Y1091019D01*
X624661Y1090881D01*
X625401Y1090649D01*
X626096Y1090325D01*
X626188Y1090279D01*
X626373Y1090140D01*
X626697Y1089955D01*
X627114Y1089631D01*
X627530Y1089261D01*
X627993Y1088844D01*
X628456Y1088289D01*
X628872Y1087687D01*
X628919Y1087595D01*
X629058Y1087363D01*
X629196Y1087039D01*
X629428Y1086530D01*
X629659Y1085929D01*
X629891Y1085188D01*
X630122Y1084401D01*
X630307Y1083522D01*
Y1083476D01*
Y1083430D01*
X630353Y1083291D01*
Y1083106D01*
X630400Y1082874D01*
X630446Y1082597D01*
X630538Y1081902D01*
X630585Y1081069D01*
X630677Y1080144D01*
X630723Y1079079D01*
Y1077923D01*
Y1077876D01*
Y1077784D01*
Y1077598D01*
Y1077413D01*
Y1077136D01*
X630677Y1076812D01*
Y1076071D01*
X630585Y1075192D01*
X630492Y1074266D01*
X630400Y1073295D01*
X630215Y1072323D01*
Y1072276D01*
Y1072230D01*
X630168Y1072091D01*
X630122Y1071906D01*
X629983Y1071443D01*
X629798Y1070842D01*
X629567Y1070194D01*
X629289Y1069453D01*
X628965Y1068759D01*
X628548Y1068065D01*
X628502Y1067972D01*
X628363Y1067787D01*
X628086Y1067463D01*
X627762Y1067093D01*
X627345Y1066630D01*
X626836Y1066214D01*
X626281Y1065751D01*
X625633Y1065381D01*
X625540Y1065335D01*
X625309Y1065242D01*
X624939Y1065103D01*
X624383Y1064918D01*
X623735Y1064733D01*
X622995Y1064594D01*
X622162Y1064502D01*
X621190Y1064455D01*
X620774D01*
X620265Y1064502D01*
X619663Y1064548D01*
X618969Y1064687D01*
X618228Y1064826D01*
X617488Y1065057D01*
X616794Y1065335D01*
X616701Y1065381D01*
X616516Y1065520D01*
X616192Y1065705D01*
X615775Y1066029D01*
X615359Y1066399D01*
X614896Y1066862D01*
X614433Y1067371D01*
X614017Y1067972D01*
X613971Y1068065D01*
X613832Y1068297D01*
X613693Y1068667D01*
X613461Y1069129D01*
X613230Y1069731D01*
X612999Y1070472D01*
X612767Y1071258D01*
X612582Y1072138D01*
Y1072184D01*
Y1072230D01*
X612536Y1072369D01*
Y1072554D01*
X612490Y1072785D01*
Y1073063D01*
X612397Y1073757D01*
X612351Y1074590D01*
X612258Y1075516D01*
X612212Y1076580D01*
Y1077737D01*
Y1077784D01*
Y1077876D01*
Y1078015D01*
Y1078246D01*
Y1078524D01*
X612258Y1078848D01*
Y1079588D01*
X612351Y1080422D01*
X612443Y1081393D01*
X612536Y1082319D01*
X612721Y1083291D01*
Y1083337D01*
X612767Y1083383D01*
Y1083522D01*
X612814Y1083707D01*
X612952Y1084170D01*
X613138Y1084772D01*
X613323Y1085466D01*
X613600Y1086160D01*
X613971Y1086900D01*
X614341Y1087595D01*
X614387Y1087687D01*
X614526Y1087872D01*
X614804Y1088196D01*
X615128Y1088613D01*
X615544Y1089029D01*
X616053Y1089492D01*
X616609Y1089909D01*
X617256Y1090279D01*
X617349Y1090325D01*
X617580Y1090418D01*
X617997Y1090603D01*
X618506Y1090788D01*
X619154Y1090927D01*
X619894Y1091112D01*
X620774Y1091205D01*
X621699Y1091251D01*
X622162D01*
X622625Y1091205D01*
D02*
G37*
G36*
X607075Y1070657D02*
X607492Y1070610D01*
X607584D01*
X607769Y1070518D01*
X608047Y1070425D01*
X608325Y1070286D01*
X608371Y1070240D01*
X608510Y1070148D01*
X608648Y1069962D01*
X608787Y1069685D01*
X608834Y1069592D01*
X608880Y1069407D01*
X608926Y1069037D01*
X608973Y1068574D01*
Y1068528D01*
Y1068435D01*
Y1068297D01*
Y1068111D01*
X608926Y1067649D01*
X608880Y1067140D01*
Y1067093D01*
Y1067047D01*
X608834Y1066723D01*
X608741Y1066353D01*
X608602Y1065890D01*
Y1065844D01*
X608556Y1065797D01*
X608463Y1065566D01*
X608325Y1065196D01*
X608139Y1064826D01*
Y1064779D01*
X608093Y1064733D01*
X607954Y1064455D01*
X607723Y1064085D01*
X607445Y1063669D01*
X604761Y1059827D01*
Y1059781D01*
X604669Y1059735D01*
X604437Y1059503D01*
X604391D01*
X604298Y1059411D01*
X604021Y1059318D01*
X603974D01*
X603882Y1059272D01*
X603650Y1059226D01*
X603419Y1059180D01*
X603373D01*
X603188Y1059133D01*
X602910Y1059087D01*
X602262D01*
X601938Y1059133D01*
X601614Y1059180D01*
X601568D01*
X601429Y1059226D01*
X601244Y1059272D01*
X601105Y1059318D01*
X601012Y1059411D01*
X600920Y1059596D01*
Y1059642D01*
Y1059689D01*
X600966Y1059827D01*
X601059Y1059966D01*
X603512Y1065427D01*
Y1068574D01*
Y1068620D01*
Y1068713D01*
Y1068991D01*
X603558Y1069315D01*
X603650Y1069685D01*
X603697Y1069777D01*
X603743Y1069916D01*
X603928Y1070101D01*
X604113Y1070286D01*
X604160Y1070333D01*
X604345Y1070425D01*
X604622Y1070518D01*
X604992Y1070610D01*
X605085D01*
X605363Y1070657D01*
X605779Y1070703D01*
X606705D01*
X607075Y1070657D01*
D02*
G37*
G36*
X719591Y1041205D02*
X720147Y1041158D01*
X720286D01*
X720424Y1041112D01*
X720610D01*
X721072Y1041019D01*
X721581Y1040927D01*
X721720D01*
X721998Y1040834D01*
X722368Y1040742D01*
X722738Y1040603D01*
X722831Y1040557D01*
X722970Y1040510D01*
X723201Y1040371D01*
X723340Y1040279D01*
X723386D01*
X723433Y1040186D01*
X723525Y1039955D01*
X723571Y1039862D01*
X723664Y1039631D01*
Y1039585D01*
X723710Y1039492D01*
X723756Y1039353D01*
Y1039168D01*
Y1039122D01*
X723803Y1038983D01*
Y1038752D01*
Y1038474D01*
Y1038428D01*
Y1038382D01*
Y1038104D01*
Y1037780D01*
X723756Y1037456D01*
Y1037410D01*
X723710Y1037225D01*
X723664Y1036993D01*
X723618Y1036808D01*
Y1036762D01*
X723571Y1036669D01*
X723525Y1036577D01*
X723433Y1036484D01*
X723386D01*
X723340Y1036438D01*
X723062Y1036392D01*
X722924D01*
X722692Y1036438D01*
X722461Y1036484D01*
X722414Y1036530D01*
X722229Y1036577D01*
X721905Y1036669D01*
X721535Y1036762D01*
X721489D01*
X721443Y1036808D01*
X721165Y1036854D01*
X720748Y1036993D01*
X720239Y1037086D01*
X720193D01*
X720100Y1037132D01*
X719962D01*
X719777Y1037178D01*
X719268Y1037225D01*
X718296D01*
X718018Y1037178D01*
X717648Y1037132D01*
X717185Y1037086D01*
X716722Y1036993D01*
X716259Y1036808D01*
X715843Y1036623D01*
X715797Y1036577D01*
X715658Y1036530D01*
X715473Y1036392D01*
X715195Y1036206D01*
X714917Y1035975D01*
X714593Y1035651D01*
X714316Y1035327D01*
X714038Y1034957D01*
X713992Y1034911D01*
X713945Y1034772D01*
X713807Y1034540D01*
X713668Y1034263D01*
X713483Y1033939D01*
X713298Y1033522D01*
X713159Y1033059D01*
X713020Y1032550D01*
Y1032504D01*
X712974Y1032319D01*
X712927Y1032041D01*
X712835Y1031671D01*
X712788Y1031255D01*
X712742Y1030792D01*
X712650Y1029681D01*
X712742Y1029727D01*
X712974Y1029866D01*
X713298Y1030051D01*
X713668Y1030236D01*
X713714D01*
X713760Y1030283D01*
X714038Y1030422D01*
X714408Y1030560D01*
X714871Y1030699D01*
X714917D01*
X715010Y1030745D01*
X715149Y1030792D01*
X715334Y1030838D01*
X715797Y1030977D01*
X716352Y1031069D01*
X716398D01*
X716491Y1031116D01*
X716630D01*
X716861Y1031162D01*
X717370Y1031208D01*
X718342D01*
X718712Y1031162D01*
X719175D01*
X719684Y1031069D01*
X720239Y1030977D01*
X720795Y1030838D01*
X721350Y1030653D01*
X721396Y1030607D01*
X721581Y1030560D01*
X721859Y1030422D01*
X722183Y1030236D01*
X722553Y1030005D01*
X722924Y1029774D01*
X723294Y1029450D01*
X723664Y1029079D01*
X723710Y1029033D01*
X723803Y1028894D01*
X723988Y1028709D01*
X724173Y1028431D01*
X724358Y1028061D01*
X724590Y1027645D01*
X724775Y1027182D01*
X724960Y1026673D01*
Y1026627D01*
X725052Y1026441D01*
X725099Y1026164D01*
X725191Y1025747D01*
X725284Y1025285D01*
X725330Y1024775D01*
X725423Y1024174D01*
Y1023526D01*
Y1023433D01*
Y1023202D01*
X725376Y1022832D01*
X725330Y1022369D01*
X725284Y1021814D01*
X725191Y1021166D01*
X725006Y1020564D01*
X724821Y1019916D01*
X724775Y1019824D01*
X724728Y1019639D01*
X724590Y1019315D01*
X724358Y1018944D01*
X724127Y1018482D01*
X723849Y1017972D01*
X723479Y1017463D01*
X723062Y1017001D01*
X723016Y1016954D01*
X722877Y1016815D01*
X722600Y1016584D01*
X722276Y1016307D01*
X721859Y1016029D01*
X721350Y1015705D01*
X720795Y1015381D01*
X720193Y1015103D01*
X720100Y1015057D01*
X719915Y1015011D01*
X719545Y1014918D01*
X719082Y1014779D01*
X718481Y1014640D01*
X717833Y1014548D01*
X717046Y1014502D01*
X716259Y1014455D01*
X715935D01*
X715611Y1014502D01*
X715195D01*
X714686Y1014548D01*
X714177Y1014640D01*
X713112Y1014872D01*
X713066D01*
X712881Y1014964D01*
X712650Y1015011D01*
X712326Y1015150D01*
X712002Y1015335D01*
X711585Y1015520D01*
X710798Y1016029D01*
X710752Y1016075D01*
X710660Y1016168D01*
X710474Y1016353D01*
X710243Y1016538D01*
X710012Y1016815D01*
X709734Y1017140D01*
X709225Y1017880D01*
X709179Y1017926D01*
X709132Y1018065D01*
X708994Y1018297D01*
X708901Y1018620D01*
X708716Y1018991D01*
X708577Y1019407D01*
X708253Y1020379D01*
Y1020425D01*
X708207Y1020610D01*
X708114Y1020888D01*
X708068Y1021258D01*
X707975Y1021721D01*
X707883Y1022230D01*
X707790Y1022785D01*
X707744Y1023387D01*
Y1023480D01*
Y1023665D01*
X707698Y1023989D01*
Y1024405D01*
X707652Y1024914D01*
Y1025516D01*
X707605Y1026164D01*
Y1026812D01*
Y1026904D01*
Y1027089D01*
Y1027367D01*
Y1027784D01*
X707652Y1028246D01*
Y1028802D01*
X707744Y1030005D01*
Y1030098D01*
X707790Y1030283D01*
Y1030607D01*
X707883Y1031023D01*
X707929Y1031532D01*
X708022Y1032087D01*
X708299Y1033244D01*
Y1033337D01*
X708392Y1033522D01*
X708484Y1033846D01*
X708623Y1034216D01*
X708809Y1034725D01*
X708994Y1035235D01*
X709503Y1036299D01*
X709549Y1036345D01*
X709641Y1036530D01*
X709827Y1036808D01*
X710058Y1037178D01*
X710336Y1037595D01*
X710660Y1038011D01*
X711076Y1038428D01*
X711493Y1038844D01*
X711539Y1038891D01*
X711724Y1039029D01*
X712002Y1039214D01*
X712326Y1039492D01*
X712788Y1039770D01*
X713298Y1040048D01*
X713853Y1040325D01*
X714501Y1040603D01*
X714593Y1040649D01*
X714825Y1040695D01*
X715195Y1040788D01*
X715704Y1040927D01*
X716306Y1041066D01*
X717000Y1041158D01*
X717787Y1041205D01*
X718666Y1041251D01*
X719129D01*
X719591Y1041205D01*
D02*
G37*
G36*
X785169Y1034540D02*
X785585Y1034494D01*
X786048Y1034448D01*
X786557Y1034355D01*
X787066Y1034170D01*
X787529Y1033985D01*
X787575Y1033939D01*
X787714Y1033892D01*
X787945Y1033754D01*
X788223Y1033568D01*
X788547Y1033337D01*
X788871Y1033013D01*
X789195Y1032689D01*
X789472Y1032319D01*
X789519Y1032273D01*
X789611Y1032134D01*
X789750Y1031902D01*
X789889Y1031625D01*
X790074Y1031301D01*
X790259Y1030884D01*
X790444Y1030422D01*
X790583Y1029912D01*
Y1029866D01*
X790629Y1029681D01*
X790676Y1029403D01*
X790768Y1029033D01*
X790815Y1028570D01*
X790861Y1028108D01*
X790907Y1026997D01*
Y1015566D01*
Y1015520D01*
Y1015427D01*
X790861Y1015335D01*
X790768Y1015196D01*
X790722D01*
X790676Y1015103D01*
X790537Y1015057D01*
X790352Y1014964D01*
X790305D01*
X790167Y1014918D01*
X789935D01*
X789611Y1014872D01*
X789519D01*
X789287Y1014826D01*
X788917Y1014779D01*
X787945D01*
X787529Y1014826D01*
X787159Y1014872D01*
X787066D01*
X786881Y1014918D01*
X786649D01*
X786372Y1014964D01*
X786326D01*
X786233Y1015011D01*
X786094Y1015103D01*
X786002Y1015196D01*
Y1015242D01*
X785955Y1015288D01*
X785909Y1015566D01*
Y1026164D01*
Y1026210D01*
Y1026303D01*
Y1026488D01*
Y1026719D01*
X785816Y1027228D01*
X785724Y1027784D01*
Y1027830D01*
X785678Y1027923D01*
X785631Y1028061D01*
X785585Y1028200D01*
X785400Y1028617D01*
X785169Y1029033D01*
Y1029079D01*
X785122Y1029126D01*
X784937Y1029357D01*
X784659Y1029635D01*
X784289Y1029866D01*
X784197Y1029912D01*
X783965Y1030051D01*
X783549Y1030144D01*
X783040Y1030190D01*
X782901D01*
X782716Y1030144D01*
X782484Y1030098D01*
X782207Y1030005D01*
X781929Y1029866D01*
X781559Y1029681D01*
X781235Y1029450D01*
X781189Y1029403D01*
X781096Y1029311D01*
X780865Y1029172D01*
X780633Y1028941D01*
X780356Y1028663D01*
X779985Y1028293D01*
X779615Y1027876D01*
X779245Y1027413D01*
Y1015566D01*
Y1015520D01*
Y1015427D01*
X779199Y1015335D01*
X779106Y1015196D01*
X779060D01*
X779013Y1015103D01*
X778875Y1015057D01*
X778689Y1014964D01*
X778643D01*
X778504Y1014918D01*
X778227D01*
X777903Y1014872D01*
X777810D01*
X777579Y1014826D01*
X777209Y1014779D01*
X776329D01*
X775913Y1014826D01*
X775496Y1014872D01*
X775404D01*
X775219Y1014918D01*
X774987D01*
X774756Y1014964D01*
X774709D01*
X774617Y1015011D01*
X774478Y1015103D01*
X774339Y1015196D01*
Y1015242D01*
X774293Y1015288D01*
X774247Y1015566D01*
Y1026164D01*
Y1026210D01*
Y1026303D01*
Y1026488D01*
Y1026719D01*
X774154Y1027228D01*
X774062Y1027784D01*
Y1027830D01*
X774015Y1027923D01*
X773969Y1028061D01*
X773923Y1028200D01*
X773738Y1028617D01*
X773506Y1029033D01*
Y1029079D01*
X773460Y1029126D01*
X773275Y1029357D01*
X772997Y1029635D01*
X772627Y1029866D01*
X772534Y1029912D01*
X772303Y1030051D01*
X771887Y1030144D01*
X771377Y1030190D01*
X771239D01*
X771053Y1030144D01*
X770822Y1030098D01*
X770498Y1030005D01*
X770220Y1029866D01*
X769850Y1029681D01*
X769526Y1029450D01*
X769480Y1029403D01*
X769387Y1029311D01*
X769202Y1029172D01*
X768925Y1028941D01*
X768647Y1028663D01*
X768323Y1028293D01*
X767953Y1027876D01*
X767583Y1027413D01*
Y1015566D01*
Y1015520D01*
Y1015427D01*
X767536Y1015335D01*
X767444Y1015196D01*
X767397D01*
X767351Y1015103D01*
X767212Y1015057D01*
X767027Y1014964D01*
X766981D01*
X766842Y1014918D01*
X766564D01*
X766240Y1014872D01*
X766148D01*
X765917Y1014826D01*
X765546Y1014779D01*
X764621D01*
X764204Y1014826D01*
X763788Y1014872D01*
X763695D01*
X763510Y1014918D01*
X763279D01*
X763047Y1014964D01*
X763001D01*
X762908Y1015011D01*
X762770Y1015103D01*
X762631Y1015196D01*
Y1015242D01*
X762585Y1015288D01*
X762538Y1015566D01*
Y1033383D01*
Y1033430D01*
Y1033522D01*
X762631Y1033754D01*
Y1033800D01*
X762723Y1033846D01*
X762816Y1033892D01*
X762955Y1033985D01*
X763001D01*
X763140Y1034031D01*
X763371Y1034078D01*
X763649Y1034124D01*
X763741D01*
X763926Y1034170D01*
X764250Y1034216D01*
X765037D01*
X765407Y1034170D01*
X765731Y1034124D01*
X765824D01*
X765963Y1034078D01*
X766194Y1034031D01*
X766379Y1033985D01*
X766426D01*
X766518Y1033939D01*
X766611Y1033846D01*
X766703Y1033754D01*
X766749Y1033707D01*
X766796Y1033661D01*
X766842Y1033522D01*
Y1033383D01*
Y1031347D01*
X766888Y1031440D01*
X767120Y1031625D01*
X767397Y1031902D01*
X767768Y1032273D01*
X768184Y1032643D01*
X768693Y1033059D01*
X769202Y1033430D01*
X769758Y1033754D01*
X769804Y1033800D01*
X770035Y1033892D01*
X770313Y1034031D01*
X770683Y1034170D01*
X771146Y1034309D01*
X771701Y1034448D01*
X772257Y1034540D01*
X772858Y1034587D01*
X773229D01*
X773506Y1034540D01*
X774108Y1034494D01*
X774802Y1034309D01*
X774848D01*
X774941Y1034263D01*
X775126Y1034216D01*
X775311Y1034124D01*
X775820Y1033939D01*
X776376Y1033661D01*
X776422D01*
X776514Y1033568D01*
X776792Y1033383D01*
X777162Y1033059D01*
X777579Y1032643D01*
X777625Y1032597D01*
X777671Y1032550D01*
X777764Y1032411D01*
X777857Y1032226D01*
X778134Y1031810D01*
X778412Y1031255D01*
X778458Y1031301D01*
X778551Y1031393D01*
X778736Y1031579D01*
X778921Y1031764D01*
X779430Y1032273D01*
X779985Y1032736D01*
X780032Y1032782D01*
X780124Y1032828D01*
X780263Y1032967D01*
X780494Y1033106D01*
X780957Y1033430D01*
X781513Y1033754D01*
X781559D01*
X781651Y1033846D01*
X781790Y1033892D01*
X781975Y1033985D01*
X782438Y1034170D01*
X782993Y1034355D01*
X783040D01*
X783132Y1034401D01*
X783271Y1034448D01*
X783456Y1034494D01*
X783965Y1034540D01*
X784521Y1034587D01*
X784845D01*
X785169Y1034540D01*
D02*
G37*
G36*
X751848D02*
X752264Y1034494D01*
X752727Y1034448D01*
X753236Y1034355D01*
X753745Y1034170D01*
X754208Y1033985D01*
X754254Y1033939D01*
X754393Y1033892D01*
X754624Y1033754D01*
X754902Y1033568D01*
X755226Y1033337D01*
X755550Y1033013D01*
X755874Y1032689D01*
X756152Y1032319D01*
X756198Y1032273D01*
X756291Y1032134D01*
X756429Y1031902D01*
X756568Y1031625D01*
X756753Y1031301D01*
X756938Y1030884D01*
X757124Y1030422D01*
X757262Y1029912D01*
Y1029866D01*
X757309Y1029681D01*
X757355Y1029403D01*
X757448Y1029033D01*
X757494Y1028570D01*
X757540Y1028108D01*
X757586Y1026997D01*
Y1015566D01*
Y1015520D01*
Y1015427D01*
X757540Y1015335D01*
X757448Y1015196D01*
X757401D01*
X757355Y1015103D01*
X757216Y1015057D01*
X757031Y1014964D01*
X756985D01*
X756846Y1014918D01*
X756615D01*
X756291Y1014872D01*
X756198D01*
X755967Y1014826D01*
X755596Y1014779D01*
X754624D01*
X754208Y1014826D01*
X753838Y1014872D01*
X753745D01*
X753560Y1014918D01*
X753329D01*
X753051Y1014964D01*
X753005D01*
X752912Y1015011D01*
X752773Y1015103D01*
X752681Y1015196D01*
Y1015242D01*
X752635Y1015288D01*
X752588Y1015566D01*
Y1026164D01*
Y1026210D01*
Y1026303D01*
Y1026488D01*
Y1026719D01*
X752496Y1027228D01*
X752403Y1027784D01*
Y1027830D01*
X752357Y1027923D01*
X752311Y1028061D01*
X752264Y1028200D01*
X752079Y1028617D01*
X751848Y1029033D01*
Y1029079D01*
X751802Y1029126D01*
X751616Y1029357D01*
X751339Y1029635D01*
X750968Y1029866D01*
X750876Y1029912D01*
X750645Y1030051D01*
X750228Y1030144D01*
X749719Y1030190D01*
X749580D01*
X749395Y1030144D01*
X749164Y1030098D01*
X748886Y1030005D01*
X748608Y1029866D01*
X748238Y1029681D01*
X747914Y1029450D01*
X747868Y1029403D01*
X747775Y1029311D01*
X747544Y1029172D01*
X747312Y1028941D01*
X747035Y1028663D01*
X746665Y1028293D01*
X746294Y1027876D01*
X745924Y1027413D01*
Y1015566D01*
Y1015520D01*
Y1015427D01*
X745878Y1015335D01*
X745785Y1015196D01*
X745739D01*
X745693Y1015103D01*
X745554Y1015057D01*
X745369Y1014964D01*
X745322D01*
X745184Y1014918D01*
X744906D01*
X744582Y1014872D01*
X744489D01*
X744258Y1014826D01*
X743888Y1014779D01*
X743008D01*
X742592Y1014826D01*
X742176Y1014872D01*
X742083D01*
X741898Y1014918D01*
X741666D01*
X741435Y1014964D01*
X741389D01*
X741296Y1015011D01*
X741157Y1015103D01*
X741019Y1015196D01*
Y1015242D01*
X740972Y1015288D01*
X740926Y1015566D01*
Y1026164D01*
Y1026210D01*
Y1026303D01*
Y1026488D01*
Y1026719D01*
X740833Y1027228D01*
X740741Y1027784D01*
Y1027830D01*
X740695Y1027923D01*
X740648Y1028061D01*
X740602Y1028200D01*
X740417Y1028617D01*
X740185Y1029033D01*
Y1029079D01*
X740139Y1029126D01*
X739954Y1029357D01*
X739676Y1029635D01*
X739306Y1029866D01*
X739214Y1029912D01*
X738982Y1030051D01*
X738566Y1030144D01*
X738057Y1030190D01*
X737918D01*
X737733Y1030144D01*
X737501Y1030098D01*
X737177Y1030005D01*
X736900Y1029866D01*
X736529Y1029681D01*
X736206Y1029450D01*
X736159Y1029403D01*
X736067Y1029311D01*
X735882Y1029172D01*
X735604Y1028941D01*
X735326Y1028663D01*
X735002Y1028293D01*
X734632Y1027876D01*
X734262Y1027413D01*
Y1015566D01*
Y1015520D01*
Y1015427D01*
X734215Y1015335D01*
X734123Y1015196D01*
X734077D01*
X734030Y1015103D01*
X733892Y1015057D01*
X733707Y1014964D01*
X733660D01*
X733521Y1014918D01*
X733244D01*
X732920Y1014872D01*
X732827D01*
X732596Y1014826D01*
X732226Y1014779D01*
X731300D01*
X730883Y1014826D01*
X730467Y1014872D01*
X730374D01*
X730189Y1014918D01*
X729958D01*
X729726Y1014964D01*
X729680D01*
X729588Y1015011D01*
X729449Y1015103D01*
X729310Y1015196D01*
Y1015242D01*
X729264Y1015288D01*
X729217Y1015566D01*
Y1033383D01*
Y1033430D01*
Y1033522D01*
X729310Y1033754D01*
Y1033800D01*
X729403Y1033846D01*
X729495Y1033892D01*
X729634Y1033985D01*
X729680D01*
X729819Y1034031D01*
X730051Y1034078D01*
X730328Y1034124D01*
X730421D01*
X730606Y1034170D01*
X730930Y1034216D01*
X731717D01*
X732087Y1034170D01*
X732411Y1034124D01*
X732503D01*
X732642Y1034078D01*
X732874Y1034031D01*
X733059Y1033985D01*
X733105D01*
X733197Y1033939D01*
X733290Y1033846D01*
X733382Y1033754D01*
X733429Y1033707D01*
X733475Y1033661D01*
X733521Y1033522D01*
Y1033383D01*
Y1031347D01*
X733568Y1031440D01*
X733799Y1031625D01*
X734077Y1031902D01*
X734447Y1032273D01*
X734864Y1032643D01*
X735372Y1033059D01*
X735882Y1033430D01*
X736437Y1033754D01*
X736483Y1033800D01*
X736715Y1033892D01*
X736992Y1034031D01*
X737363Y1034170D01*
X737825Y1034309D01*
X738381Y1034448D01*
X738936Y1034540D01*
X739538Y1034587D01*
X739908D01*
X740185Y1034540D01*
X740787Y1034494D01*
X741481Y1034309D01*
X741528D01*
X741620Y1034263D01*
X741805Y1034216D01*
X741990Y1034124D01*
X742499Y1033939D01*
X743055Y1033661D01*
X743101D01*
X743194Y1033568D01*
X743471Y1033383D01*
X743841Y1033059D01*
X744258Y1032643D01*
X744304Y1032597D01*
X744351Y1032550D01*
X744443Y1032411D01*
X744536Y1032226D01*
X744813Y1031810D01*
X745091Y1031255D01*
X745137Y1031301D01*
X745230Y1031393D01*
X745415Y1031579D01*
X745600Y1031764D01*
X746109Y1032273D01*
X746665Y1032736D01*
X746711Y1032782D01*
X746803Y1032828D01*
X746942Y1032967D01*
X747174Y1033106D01*
X747636Y1033430D01*
X748192Y1033754D01*
X748238D01*
X748331Y1033846D01*
X748469Y1033892D01*
X748654Y1033985D01*
X749117Y1034170D01*
X749673Y1034355D01*
X749719D01*
X749811Y1034401D01*
X749950Y1034448D01*
X750135Y1034494D01*
X750645Y1034540D01*
X751200Y1034587D01*
X751524D01*
X751848Y1034540D01*
D02*
G37*
G36*
X697840Y1040927D02*
X697933D01*
X698118Y1040881D01*
X698350Y1040834D01*
X698581Y1040788D01*
X698627D01*
X698720Y1040742D01*
X698812Y1040695D01*
X698905Y1040603D01*
X698951Y1040557D01*
X698997Y1040325D01*
Y1018991D01*
X703255D01*
X703394Y1018944D01*
X703486Y1018852D01*
X703533D01*
X703579Y1018759D01*
X703671Y1018667D01*
X703764Y1018482D01*
Y1018435D01*
X703810Y1018297D01*
X703857Y1018111D01*
X703903Y1017834D01*
Y1017787D01*
X703949Y1017602D01*
X703996Y1017278D01*
Y1016908D01*
Y1016862D01*
Y1016815D01*
Y1016584D01*
X703949Y1016260D01*
X703903Y1015936D01*
Y1015890D01*
X703857Y1015705D01*
X703810Y1015520D01*
X703718Y1015335D01*
Y1015288D01*
X703671Y1015196D01*
X703579Y1015103D01*
X703486Y1015011D01*
X703394Y1014964D01*
X703163Y1014918D01*
X688816D01*
X688631Y1015011D01*
X688538Y1015103D01*
X688446Y1015196D01*
X688353Y1015335D01*
Y1015381D01*
X688307Y1015520D01*
X688261Y1015705D01*
X688214Y1015936D01*
Y1016029D01*
Y1016214D01*
X688168Y1016538D01*
Y1016908D01*
Y1016954D01*
Y1017001D01*
Y1017232D01*
Y1017556D01*
X688214Y1017834D01*
Y1017926D01*
X688261Y1018065D01*
X688307Y1018297D01*
X688353Y1018482D01*
Y1018528D01*
X688400Y1018620D01*
X688492Y1018759D01*
X688585Y1018852D01*
X688631Y1018898D01*
X688677Y1018944D01*
X688770Y1018991D01*
X693768D01*
Y1035836D01*
X689603Y1033522D01*
X689510Y1033476D01*
X689325Y1033383D01*
X689094Y1033291D01*
X688816Y1033244D01*
X688492D01*
X688353Y1033337D01*
Y1033383D01*
X688261Y1033476D01*
X688214Y1033661D01*
X688168Y1033939D01*
Y1034031D01*
Y1034263D01*
X688122Y1034587D01*
Y1035096D01*
Y1035142D01*
Y1035188D01*
Y1035373D01*
Y1035651D01*
Y1035882D01*
Y1035929D01*
Y1036068D01*
X688214Y1036438D01*
Y1036484D01*
X688261Y1036577D01*
X688446Y1036808D01*
X688492Y1036854D01*
X688538Y1036900D01*
X688816Y1037086D01*
X694370Y1040695D01*
X694416Y1040742D01*
X694601Y1040834D01*
X694647D01*
X694740Y1040881D01*
X695064D01*
X695202Y1040927D01*
X695712D01*
X695897Y1040973D01*
X697470D01*
X697840Y1040927D01*
D02*
G37*
G36*
X666510D02*
X666602D01*
X666787Y1040881D01*
X667019Y1040834D01*
X667250Y1040788D01*
X667296D01*
X667389Y1040742D01*
X667482Y1040695D01*
X667574Y1040603D01*
X667620Y1040557D01*
X667667Y1040325D01*
Y1018991D01*
X671924D01*
X672063Y1018944D01*
X672156Y1018852D01*
X672202D01*
X672248Y1018759D01*
X672341Y1018667D01*
X672433Y1018482D01*
Y1018435D01*
X672480Y1018297D01*
X672526Y1018111D01*
X672572Y1017834D01*
Y1017787D01*
X672618Y1017602D01*
X672665Y1017278D01*
Y1016908D01*
Y1016862D01*
Y1016815D01*
Y1016584D01*
X672618Y1016260D01*
X672572Y1015936D01*
Y1015890D01*
X672526Y1015705D01*
X672480Y1015520D01*
X672387Y1015335D01*
Y1015288D01*
X672341Y1015196D01*
X672248Y1015103D01*
X672156Y1015011D01*
X672063Y1014964D01*
X671832Y1014918D01*
X657485D01*
X657300Y1015011D01*
X657208Y1015103D01*
X657115Y1015196D01*
X657022Y1015335D01*
Y1015381D01*
X656976Y1015520D01*
X656930Y1015705D01*
X656884Y1015936D01*
Y1016029D01*
Y1016214D01*
X656837Y1016538D01*
Y1016908D01*
Y1016954D01*
Y1017001D01*
Y1017232D01*
Y1017556D01*
X656884Y1017834D01*
Y1017926D01*
X656930Y1018065D01*
X656976Y1018297D01*
X657022Y1018482D01*
Y1018528D01*
X657069Y1018620D01*
X657161Y1018759D01*
X657254Y1018852D01*
X657300Y1018898D01*
X657346Y1018944D01*
X657439Y1018991D01*
X662437D01*
Y1035836D01*
X658272Y1033522D01*
X658179Y1033476D01*
X657994Y1033383D01*
X657763Y1033291D01*
X657485Y1033244D01*
X657161D01*
X657022Y1033337D01*
Y1033383D01*
X656930Y1033476D01*
X656884Y1033661D01*
X656837Y1033939D01*
Y1034031D01*
Y1034263D01*
X656791Y1034587D01*
Y1035096D01*
Y1035142D01*
Y1035188D01*
Y1035373D01*
Y1035651D01*
Y1035882D01*
Y1035929D01*
Y1036068D01*
X656884Y1036438D01*
Y1036484D01*
X656930Y1036577D01*
X657115Y1036808D01*
X657161Y1036854D01*
X657208Y1036900D01*
X657485Y1037086D01*
X663039Y1040695D01*
X663085Y1040742D01*
X663270Y1040834D01*
X663316D01*
X663409Y1040881D01*
X663733D01*
X663872Y1040927D01*
X664381D01*
X664566Y1040973D01*
X666139D01*
X666510Y1040927D01*
D02*
G37*
G36*
X624951D02*
X625044D01*
X625229Y1040881D01*
X625460Y1040834D01*
X625692Y1040788D01*
X625738D01*
X625831Y1040742D01*
X625923Y1040695D01*
X626016Y1040603D01*
X626062Y1040557D01*
X626108Y1040325D01*
Y1018991D01*
X630366D01*
X630505Y1018944D01*
X630597Y1018852D01*
X630644D01*
X630690Y1018759D01*
X630782Y1018667D01*
X630875Y1018482D01*
Y1018435D01*
X630921Y1018297D01*
X630967Y1018111D01*
X631014Y1017834D01*
Y1017787D01*
X631060Y1017602D01*
X631106Y1017278D01*
Y1016908D01*
Y1016862D01*
Y1016815D01*
Y1016584D01*
X631060Y1016260D01*
X631014Y1015936D01*
Y1015890D01*
X630967Y1015705D01*
X630921Y1015520D01*
X630829Y1015335D01*
Y1015288D01*
X630782Y1015196D01*
X630690Y1015103D01*
X630597Y1015011D01*
X630505Y1014964D01*
X630273Y1014918D01*
X615927D01*
X615742Y1015011D01*
X615649Y1015103D01*
X615557Y1015196D01*
X615464Y1015335D01*
Y1015381D01*
X615418Y1015520D01*
X615372Y1015705D01*
X615325Y1015936D01*
Y1016029D01*
Y1016214D01*
X615279Y1016538D01*
Y1016908D01*
Y1016954D01*
Y1017001D01*
Y1017232D01*
Y1017556D01*
X615325Y1017834D01*
Y1017926D01*
X615372Y1018065D01*
X615418Y1018297D01*
X615464Y1018482D01*
Y1018528D01*
X615510Y1018620D01*
X615603Y1018759D01*
X615695Y1018852D01*
X615742Y1018898D01*
X615788Y1018944D01*
X615881Y1018991D01*
X620879D01*
Y1035836D01*
X616714Y1033522D01*
X616621Y1033476D01*
X616436Y1033383D01*
X616205Y1033291D01*
X615927Y1033244D01*
X615603D01*
X615464Y1033337D01*
Y1033383D01*
X615372Y1033476D01*
X615325Y1033661D01*
X615279Y1033939D01*
Y1034031D01*
Y1034263D01*
X615233Y1034587D01*
Y1035096D01*
Y1035142D01*
Y1035188D01*
Y1035373D01*
Y1035651D01*
Y1035882D01*
Y1035929D01*
Y1036068D01*
X615325Y1036438D01*
Y1036484D01*
X615372Y1036577D01*
X615557Y1036808D01*
X615603Y1036854D01*
X615649Y1036900D01*
X615927Y1037086D01*
X621480Y1040695D01*
X621527Y1040742D01*
X621712Y1040834D01*
X621758D01*
X621851Y1040881D01*
X622175D01*
X622313Y1040927D01*
X622822D01*
X623008Y1040973D01*
X624581D01*
X624951Y1040927D01*
D02*
G37*
G36*
X647304Y1040881D02*
X647859Y1040834D01*
X647998D01*
X648276Y1040788D01*
X648646Y1040742D01*
X649016Y1040695D01*
X649109D01*
X649294Y1040649D01*
X649479Y1040557D01*
X649664Y1040418D01*
X649710Y1040371D01*
X649803Y1040325D01*
X649849Y1040186D01*
X649896Y1040048D01*
Y1024498D01*
X652256D01*
X652395Y1024452D01*
X652580Y1024266D01*
X652672Y1024174D01*
X652765Y1023989D01*
X652811Y1023896D01*
X652857Y1023757D01*
X652904Y1023618D01*
Y1023387D01*
X652950Y1023110D01*
X652996Y1022739D01*
Y1022369D01*
Y1022323D01*
Y1022184D01*
Y1021999D01*
X652950Y1021767D01*
X652904Y1021258D01*
X652857Y1021027D01*
X652765Y1020796D01*
X652719Y1020703D01*
X652626Y1020564D01*
X652441Y1020379D01*
X652348Y1020333D01*
X652209Y1020286D01*
X649896D01*
Y1015566D01*
Y1015520D01*
Y1015473D01*
X649849Y1015335D01*
X649757Y1015196D01*
X649710D01*
X649664Y1015103D01*
X649525Y1015057D01*
X649294Y1014964D01*
X649248D01*
X649109Y1014918D01*
X648877D01*
X648553Y1014872D01*
X648461D01*
X648230Y1014826D01*
X647813Y1014779D01*
X646888D01*
X646517Y1014826D01*
X646101Y1014872D01*
X646008D01*
X645823Y1014918D01*
X645592D01*
X645314Y1014964D01*
X645268D01*
X645175Y1015011D01*
X645036Y1015103D01*
X644944Y1015196D01*
Y1015242D01*
X644898Y1015335D01*
X644851Y1015566D01*
Y1020286D01*
X634762D01*
X634439Y1020333D01*
X634392D01*
X634300Y1020425D01*
X634207Y1020518D01*
X634068Y1020657D01*
Y1020703D01*
X633976Y1020842D01*
X633929Y1021027D01*
X633837Y1021351D01*
Y1021397D01*
Y1021443D01*
Y1021721D01*
X633791Y1022091D01*
Y1022647D01*
Y1022693D01*
Y1022739D01*
Y1023017D01*
Y1023341D01*
Y1023711D01*
Y1023757D01*
Y1023804D01*
X633837Y1024035D01*
Y1024313D01*
X633883Y1024590D01*
Y1024637D01*
X633929Y1024822D01*
X634022Y1025053D01*
X634068Y1025285D01*
X634114Y1025331D01*
X634161Y1025516D01*
X634300Y1025747D01*
X634439Y1026025D01*
X642491Y1040186D01*
Y1040233D01*
X642583Y1040279D01*
X642676Y1040418D01*
X642815Y1040510D01*
X642861Y1040557D01*
X643000Y1040603D01*
X643185Y1040649D01*
X643463Y1040742D01*
X643555D01*
X643787Y1040788D01*
X644111Y1040834D01*
X644574Y1040881D01*
X644851D01*
X645036Y1040927D01*
X646749D01*
X647304Y1040881D01*
D02*
G37*
G36*
X681180Y1020657D02*
X681597Y1020610D01*
X681689D01*
X681874Y1020518D01*
X682152Y1020425D01*
X682430Y1020286D01*
X682476Y1020240D01*
X682615Y1020148D01*
X682754Y1019962D01*
X682892Y1019685D01*
X682939Y1019592D01*
X682985Y1019407D01*
X683031Y1019037D01*
X683077Y1018574D01*
Y1018528D01*
Y1018435D01*
Y1018297D01*
Y1018111D01*
X683031Y1017649D01*
X682985Y1017140D01*
Y1017093D01*
Y1017047D01*
X682939Y1016723D01*
X682846Y1016353D01*
X682707Y1015890D01*
Y1015844D01*
X682661Y1015797D01*
X682568Y1015566D01*
X682430Y1015196D01*
X682244Y1014826D01*
Y1014779D01*
X682198Y1014733D01*
X682059Y1014455D01*
X681828Y1014085D01*
X681550Y1013669D01*
X678866Y1009827D01*
Y1009781D01*
X678773Y1009735D01*
X678542Y1009503D01*
X678496D01*
X678403Y1009411D01*
X678126Y1009318D01*
X678079D01*
X677987Y1009272D01*
X677755Y1009226D01*
X677524Y1009180D01*
X677478D01*
X677293Y1009133D01*
X677015Y1009087D01*
X676367D01*
X676043Y1009133D01*
X675719Y1009180D01*
X675673D01*
X675534Y1009226D01*
X675349Y1009272D01*
X675210Y1009318D01*
X675117Y1009411D01*
X675025Y1009596D01*
Y1009642D01*
Y1009689D01*
X675071Y1009827D01*
X675164Y1009966D01*
X677617Y1015427D01*
Y1018574D01*
Y1018620D01*
Y1018713D01*
Y1018991D01*
X677663Y1019315D01*
X677755Y1019685D01*
X677802Y1019777D01*
X677848Y1019916D01*
X678033Y1020101D01*
X678218Y1020286D01*
X678264Y1020333D01*
X678450Y1020425D01*
X678727Y1020518D01*
X679098Y1020610D01*
X679190D01*
X679468Y1020657D01*
X679884Y1020703D01*
X680810D01*
X681180Y1020657D01*
D02*
G37*
G36*
X1521665Y585616D02*
X1521804Y585523D01*
Y585477D01*
X1521897Y585431D01*
X1521943Y585292D01*
X1522036Y585107D01*
Y585061D01*
X1522082Y584922D01*
Y584690D01*
X1522128Y584366D01*
Y584274D01*
X1522175Y584042D01*
X1522221Y583672D01*
Y582700D01*
X1522175Y582284D01*
X1522128Y581914D01*
Y581821D01*
X1522082Y581636D01*
Y581404D01*
X1522036Y581127D01*
Y581081D01*
X1521989Y580988D01*
X1521897Y580849D01*
X1521804Y580757D01*
X1521758D01*
X1521712Y580710D01*
X1521434Y580664D01*
X1510836D01*
X1510790D01*
X1510697D01*
X1510512D01*
X1510281D01*
X1509772Y580572D01*
X1509216Y580479D01*
X1509170D01*
X1509078Y580433D01*
X1508939Y580386D01*
X1508800Y580340D01*
X1508383Y580155D01*
X1507967Y579924D01*
X1507921D01*
X1507874Y579877D01*
X1507643Y579692D01*
X1507365Y579414D01*
X1507134Y579044D01*
X1507088Y578952D01*
X1506949Y578720D01*
X1506856Y578304D01*
X1506810Y577795D01*
Y577656D01*
X1506856Y577471D01*
X1506902Y577239D01*
X1506995Y576962D01*
X1507134Y576684D01*
X1507319Y576314D01*
X1507550Y575990D01*
X1507597Y575944D01*
X1507689Y575851D01*
X1507828Y575620D01*
X1508059Y575388D01*
X1508337Y575111D01*
X1508707Y574740D01*
X1509124Y574370D01*
X1509587Y574000D01*
X1521434D01*
X1521480D01*
X1521573D01*
X1521665Y573954D01*
X1521804Y573861D01*
Y573815D01*
X1521897Y573769D01*
X1521943Y573630D01*
X1522036Y573445D01*
Y573398D01*
X1522082Y573259D01*
Y572982D01*
X1522128Y572658D01*
Y572565D01*
X1522175Y572334D01*
X1522221Y571964D01*
Y571084D01*
X1522175Y570668D01*
X1522128Y570251D01*
Y570159D01*
X1522082Y569974D01*
Y569742D01*
X1522036Y569511D01*
Y569465D01*
X1521989Y569372D01*
X1521897Y569233D01*
X1521804Y569094D01*
X1521758D01*
X1521712Y569048D01*
X1521434Y569002D01*
X1510836D01*
X1510790D01*
X1510697D01*
X1510512D01*
X1510281D01*
X1509772Y568909D01*
X1509216Y568817D01*
X1509170D01*
X1509078Y568770D01*
X1508939Y568724D01*
X1508800Y568678D01*
X1508383Y568493D01*
X1507967Y568261D01*
X1507921D01*
X1507874Y568215D01*
X1507643Y568030D01*
X1507365Y567752D01*
X1507134Y567382D01*
X1507088Y567290D01*
X1506949Y567058D01*
X1506856Y566642D01*
X1506810Y566133D01*
Y565994D01*
X1506856Y565808D01*
X1506902Y565577D01*
X1506995Y565253D01*
X1507134Y564976D01*
X1507319Y564605D01*
X1507550Y564281D01*
X1507597Y564235D01*
X1507689Y564142D01*
X1507828Y563957D01*
X1508059Y563680D01*
X1508337Y563402D01*
X1508707Y563078D01*
X1509124Y562708D01*
X1509587Y562338D01*
X1521434D01*
X1521480D01*
X1521573D01*
X1521665Y562291D01*
X1521804Y562199D01*
Y562152D01*
X1521897Y562106D01*
X1521943Y561967D01*
X1522036Y561782D01*
Y561736D01*
X1522082Y561597D01*
Y561320D01*
X1522128Y560996D01*
Y560903D01*
X1522175Y560672D01*
X1522221Y560301D01*
Y559376D01*
X1522175Y558959D01*
X1522128Y558543D01*
Y558450D01*
X1522082Y558265D01*
Y558034D01*
X1522036Y557802D01*
Y557756D01*
X1521989Y557663D01*
X1521897Y557525D01*
X1521804Y557386D01*
X1521758D01*
X1521712Y557340D01*
X1521434Y557293D01*
X1503617D01*
X1503570D01*
X1503478D01*
X1503246Y557386D01*
X1503200D01*
X1503154Y557478D01*
X1503108Y557571D01*
X1503015Y557710D01*
Y557756D01*
X1502969Y557895D01*
X1502923Y558126D01*
X1502876Y558404D01*
Y558497D01*
X1502830Y558682D01*
X1502784Y559006D01*
Y559792D01*
X1502830Y560163D01*
X1502876Y560486D01*
Y560579D01*
X1502923Y560718D01*
X1502969Y560949D01*
X1503015Y561134D01*
Y561181D01*
X1503061Y561273D01*
X1503154Y561366D01*
X1503246Y561458D01*
X1503293Y561505D01*
X1503339Y561551D01*
X1503478Y561597D01*
X1503617D01*
X1505653D01*
X1505560Y561643D01*
X1505375Y561875D01*
X1505098Y562152D01*
X1504727Y562523D01*
X1504357Y562939D01*
X1503941Y563448D01*
X1503570Y563957D01*
X1503246Y564513D01*
X1503200Y564559D01*
X1503108Y564790D01*
X1502969Y565068D01*
X1502830Y565438D01*
X1502691Y565901D01*
X1502552Y566456D01*
X1502460Y567012D01*
X1502413Y567613D01*
Y567984D01*
X1502460Y568261D01*
X1502506Y568863D01*
X1502691Y569557D01*
Y569603D01*
X1502737Y569696D01*
X1502784Y569881D01*
X1502876Y570066D01*
X1503061Y570575D01*
X1503339Y571131D01*
Y571177D01*
X1503432Y571269D01*
X1503617Y571547D01*
X1503941Y571917D01*
X1504357Y572334D01*
X1504403Y572380D01*
X1504450Y572426D01*
X1504588Y572519D01*
X1504774Y572612D01*
X1505190Y572889D01*
X1505746Y573167D01*
X1505699Y573213D01*
X1505607Y573306D01*
X1505421Y573491D01*
X1505236Y573676D01*
X1504727Y574185D01*
X1504265Y574740D01*
X1504218Y574787D01*
X1504172Y574879D01*
X1504033Y575018D01*
X1503894Y575249D01*
X1503570Y575712D01*
X1503246Y576268D01*
Y576314D01*
X1503154Y576406D01*
X1503108Y576545D01*
X1503015Y576730D01*
X1502830Y577193D01*
X1502645Y577748D01*
Y577795D01*
X1502599Y577887D01*
X1502552Y578026D01*
X1502506Y578211D01*
X1502460Y578720D01*
X1502413Y579276D01*
Y579600D01*
X1502460Y579924D01*
X1502506Y580340D01*
X1502552Y580803D01*
X1502645Y581312D01*
X1502830Y581821D01*
X1503015Y582284D01*
X1503061Y582330D01*
X1503108Y582469D01*
X1503246Y582700D01*
X1503432Y582978D01*
X1503663Y583302D01*
X1503987Y583626D01*
X1504311Y583950D01*
X1504681Y584227D01*
X1504727Y584274D01*
X1504866Y584366D01*
X1505098Y584505D01*
X1505375Y584644D01*
X1505699Y584829D01*
X1506116Y585014D01*
X1506579Y585199D01*
X1507088Y585338D01*
X1507134D01*
X1507319Y585384D01*
X1507597Y585431D01*
X1507967Y585523D01*
X1508430Y585570D01*
X1508892Y585616D01*
X1510003Y585662D01*
X1521434D01*
X1521480D01*
X1521573D01*
X1521665Y585616D01*
D02*
G37*
G36*
Y552295D02*
X1521804Y552203D01*
Y552156D01*
X1521897Y552110D01*
X1521943Y551971D01*
X1522036Y551786D01*
Y551740D01*
X1522082Y551601D01*
Y551370D01*
X1522128Y551046D01*
Y550953D01*
X1522175Y550722D01*
X1522221Y550351D01*
Y549380D01*
X1522175Y548963D01*
X1522128Y548593D01*
Y548500D01*
X1522082Y548315D01*
Y548084D01*
X1522036Y547806D01*
Y547760D01*
X1521989Y547667D01*
X1521897Y547528D01*
X1521804Y547436D01*
X1521758D01*
X1521712Y547390D01*
X1521434Y547343D01*
X1510836D01*
X1510790D01*
X1510697D01*
X1510512D01*
X1510281D01*
X1509772Y547251D01*
X1509216Y547158D01*
X1509170D01*
X1509078Y547112D01*
X1508939Y547066D01*
X1508800Y547019D01*
X1508383Y546834D01*
X1507967Y546603D01*
X1507921D01*
X1507874Y546557D01*
X1507643Y546371D01*
X1507365Y546094D01*
X1507134Y545723D01*
X1507088Y545631D01*
X1506949Y545400D01*
X1506856Y544983D01*
X1506810Y544474D01*
Y544335D01*
X1506856Y544150D01*
X1506902Y543919D01*
X1506995Y543641D01*
X1507134Y543363D01*
X1507319Y542993D01*
X1507550Y542669D01*
X1507597Y542623D01*
X1507689Y542530D01*
X1507828Y542299D01*
X1508059Y542067D01*
X1508337Y541790D01*
X1508707Y541420D01*
X1509124Y541049D01*
X1509587Y540679D01*
X1521434D01*
X1521480D01*
X1521573D01*
X1521665Y540633D01*
X1521804Y540540D01*
Y540494D01*
X1521897Y540448D01*
X1521943Y540309D01*
X1522036Y540124D01*
Y540078D01*
X1522082Y539939D01*
Y539661D01*
X1522128Y539337D01*
Y539244D01*
X1522175Y539013D01*
X1522221Y538643D01*
Y537764D01*
X1522175Y537347D01*
X1522128Y536931D01*
Y536838D01*
X1522082Y536653D01*
Y536422D01*
X1522036Y536190D01*
Y536144D01*
X1521989Y536051D01*
X1521897Y535912D01*
X1521804Y535774D01*
X1521758D01*
X1521712Y535727D01*
X1521434Y535681D01*
X1510836D01*
X1510790D01*
X1510697D01*
X1510512D01*
X1510281D01*
X1509772Y535588D01*
X1509216Y535496D01*
X1509170D01*
X1509078Y535450D01*
X1508939Y535403D01*
X1508800Y535357D01*
X1508383Y535172D01*
X1507967Y534941D01*
X1507921D01*
X1507874Y534894D01*
X1507643Y534709D01*
X1507365Y534431D01*
X1507134Y534061D01*
X1507088Y533969D01*
X1506949Y533737D01*
X1506856Y533321D01*
X1506810Y532812D01*
Y532673D01*
X1506856Y532488D01*
X1506902Y532256D01*
X1506995Y531932D01*
X1507134Y531655D01*
X1507319Y531285D01*
X1507550Y530961D01*
X1507597Y530914D01*
X1507689Y530822D01*
X1507828Y530637D01*
X1508059Y530359D01*
X1508337Y530081D01*
X1508707Y529757D01*
X1509124Y529387D01*
X1509587Y529017D01*
X1521434D01*
X1521480D01*
X1521573D01*
X1521665Y528971D01*
X1521804Y528878D01*
Y528832D01*
X1521897Y528786D01*
X1521943Y528647D01*
X1522036Y528462D01*
Y528415D01*
X1522082Y528276D01*
Y527999D01*
X1522128Y527675D01*
Y527582D01*
X1522175Y527351D01*
X1522221Y526981D01*
Y526055D01*
X1522175Y525639D01*
X1522128Y525222D01*
Y525130D01*
X1522082Y524944D01*
Y524713D01*
X1522036Y524482D01*
Y524435D01*
X1521989Y524343D01*
X1521897Y524204D01*
X1521804Y524065D01*
X1521758D01*
X1521712Y524019D01*
X1521434Y523973D01*
X1503617D01*
X1503570D01*
X1503478D01*
X1503246Y524065D01*
X1503200D01*
X1503154Y524158D01*
X1503108Y524250D01*
X1503015Y524389D01*
Y524435D01*
X1502969Y524574D01*
X1502923Y524805D01*
X1502876Y525083D01*
Y525176D01*
X1502830Y525361D01*
X1502784Y525685D01*
Y526472D01*
X1502830Y526842D01*
X1502876Y527166D01*
Y527258D01*
X1502923Y527397D01*
X1502969Y527629D01*
X1503015Y527814D01*
Y527860D01*
X1503061Y527952D01*
X1503154Y528045D01*
X1503246Y528138D01*
X1503293Y528184D01*
X1503339Y528230D01*
X1503478Y528276D01*
X1503617D01*
X1505653D01*
X1505560Y528323D01*
X1505375Y528554D01*
X1505098Y528832D01*
X1504727Y529202D01*
X1504357Y529618D01*
X1503941Y530128D01*
X1503570Y530637D01*
X1503246Y531192D01*
X1503200Y531238D01*
X1503108Y531470D01*
X1502969Y531747D01*
X1502830Y532118D01*
X1502691Y532580D01*
X1502552Y533136D01*
X1502460Y533691D01*
X1502413Y534293D01*
Y534663D01*
X1502460Y534941D01*
X1502506Y535542D01*
X1502691Y536236D01*
Y536283D01*
X1502737Y536375D01*
X1502784Y536560D01*
X1502876Y536745D01*
X1503061Y537254D01*
X1503339Y537810D01*
Y537856D01*
X1503432Y537949D01*
X1503617Y538226D01*
X1503941Y538597D01*
X1504357Y539013D01*
X1504403Y539059D01*
X1504450Y539106D01*
X1504588Y539198D01*
X1504774Y539291D01*
X1505190Y539568D01*
X1505746Y539846D01*
X1505699Y539892D01*
X1505607Y539985D01*
X1505421Y540170D01*
X1505236Y540355D01*
X1504727Y540864D01*
X1504265Y541420D01*
X1504218Y541466D01*
X1504172Y541558D01*
X1504033Y541697D01*
X1503894Y541929D01*
X1503570Y542392D01*
X1503246Y542947D01*
Y542993D01*
X1503154Y543086D01*
X1503108Y543224D01*
X1503015Y543410D01*
X1502830Y543872D01*
X1502645Y544428D01*
Y544474D01*
X1502599Y544567D01*
X1502552Y544705D01*
X1502506Y544891D01*
X1502460Y545400D01*
X1502413Y545955D01*
Y546279D01*
X1502460Y546603D01*
X1502506Y547019D01*
X1502552Y547482D01*
X1502645Y547991D01*
X1502830Y548500D01*
X1503015Y548963D01*
X1503061Y549009D01*
X1503108Y549148D01*
X1503246Y549380D01*
X1503432Y549657D01*
X1503663Y549981D01*
X1503987Y550305D01*
X1504311Y550629D01*
X1504681Y550907D01*
X1504727Y550953D01*
X1504866Y551046D01*
X1505098Y551184D01*
X1505375Y551323D01*
X1505699Y551508D01*
X1506116Y551693D01*
X1506579Y551879D01*
X1507088Y552018D01*
X1507134D01*
X1507319Y552064D01*
X1507597Y552110D01*
X1507967Y552203D01*
X1508430Y552249D01*
X1508892Y552295D01*
X1510003Y552341D01*
X1521434D01*
X1521480D01*
X1521573D01*
X1521665Y552295D01*
D02*
G37*
G36*
X1499498Y519761D02*
X1499544D01*
X1499729Y519715D01*
X1500007Y519669D01*
X1500285Y519622D01*
X1500331D01*
X1500516Y519576D01*
X1500747Y519530D01*
X1500979Y519437D01*
X1501025D01*
X1501210Y519391D01*
X1501441Y519298D01*
X1501719Y519160D01*
X1521434Y510644D01*
X1521480D01*
X1521573Y510552D01*
X1521850Y510320D01*
Y510274D01*
X1521943Y510181D01*
X1521989Y509996D01*
X1522082Y509765D01*
Y509719D01*
X1522128Y509534D01*
Y509256D01*
X1522175Y508886D01*
Y508515D01*
X1522221Y508145D01*
Y506988D01*
X1522175Y506433D01*
X1522128Y505877D01*
Y505785D01*
X1522082Y505554D01*
X1522036Y505276D01*
X1521943Y504998D01*
X1521897Y504952D01*
X1521850Y504859D01*
X1521712Y504767D01*
X1521573Y504674D01*
X1521526D01*
X1521434Y504720D01*
X1521249Y504767D01*
X1521017Y504859D01*
X1500794Y514069D01*
Y503101D01*
X1500747Y502916D01*
X1500562Y502684D01*
X1500470Y502592D01*
X1500285Y502499D01*
X1500238D01*
X1500192Y502453D01*
X1500053D01*
X1499868Y502407D01*
X1499590Y502360D01*
X1499313D01*
X1498943Y502314D01*
X1498526D01*
X1498480D01*
X1498433D01*
X1498156D01*
X1497832D01*
X1497508Y502360D01*
X1497415D01*
X1497230Y502407D01*
X1496999Y502453D01*
X1496767Y502499D01*
X1496721Y502545D01*
X1496629Y502592D01*
X1496490Y502684D01*
X1496351Y502777D01*
X1496305Y502823D01*
X1496258Y502869D01*
X1496212Y503008D01*
Y518743D01*
X1496258Y518928D01*
X1496305Y519113D01*
Y519160D01*
X1496397Y519252D01*
X1496490Y519391D01*
X1496629Y519483D01*
X1496675Y519530D01*
X1496814Y519576D01*
X1496999Y519622D01*
X1497323Y519715D01*
X1497415D01*
X1497600Y519761D01*
X1497971Y519807D01*
X1498480D01*
X1498526D01*
X1498572D01*
X1498804D01*
X1499128D01*
X1499498Y519761D01*
D02*
G37*
G36*
X1510188Y499537D02*
X1510929D01*
X1511808Y499445D01*
X1512734Y499352D01*
X1513705Y499260D01*
X1514677Y499075D01*
X1514724D01*
X1514770D01*
X1514909Y499028D01*
X1515094Y498982D01*
X1515557Y498843D01*
X1516158Y498658D01*
X1516806Y498427D01*
X1517547Y498149D01*
X1518241Y497825D01*
X1518935Y497408D01*
X1519028Y497362D01*
X1519213Y497223D01*
X1519537Y496946D01*
X1519907Y496622D01*
X1520370Y496205D01*
X1520786Y495696D01*
X1521249Y495141D01*
X1521619Y494493D01*
X1521665Y494400D01*
X1521758Y494169D01*
X1521897Y493799D01*
X1522082Y493243D01*
X1522267Y492595D01*
X1522406Y491855D01*
X1522498Y491022D01*
X1522545Y490050D01*
Y489634D01*
X1522498Y489125D01*
X1522452Y488523D01*
X1522313Y487829D01*
X1522175Y487088D01*
X1521943Y486348D01*
X1521665Y485654D01*
X1521619Y485561D01*
X1521480Y485376D01*
X1521295Y485052D01*
X1520971Y484636D01*
X1520601Y484219D01*
X1520138Y483756D01*
X1519629Y483293D01*
X1519028Y482877D01*
X1518935Y482831D01*
X1518703Y482692D01*
X1518333Y482553D01*
X1517870Y482322D01*
X1517269Y482090D01*
X1516528Y481859D01*
X1515742Y481627D01*
X1514862Y481442D01*
X1514816D01*
X1514770D01*
X1514631Y481396D01*
X1514446D01*
X1514214Y481350D01*
X1513937D01*
X1513243Y481257D01*
X1512410Y481211D01*
X1511484Y481118D01*
X1510420Y481072D01*
X1509263D01*
X1509216D01*
X1509124D01*
X1508985D01*
X1508754D01*
X1508476D01*
X1508152Y481118D01*
X1507411D01*
X1506579Y481211D01*
X1505607Y481303D01*
X1504681Y481396D01*
X1503709Y481581D01*
X1503663D01*
X1503617Y481627D01*
X1503478D01*
X1503293Y481674D01*
X1502830Y481813D01*
X1502228Y481998D01*
X1501534Y482183D01*
X1500840Y482460D01*
X1500099Y482831D01*
X1499405Y483201D01*
X1499313Y483247D01*
X1499128Y483386D01*
X1498804Y483664D01*
X1498387Y483988D01*
X1497971Y484404D01*
X1497508Y484913D01*
X1497091Y485468D01*
X1496721Y486116D01*
X1496675Y486209D01*
X1496582Y486440D01*
X1496397Y486857D01*
X1496212Y487366D01*
X1496073Y488014D01*
X1495888Y488754D01*
X1495795Y489634D01*
X1495749Y490559D01*
Y491022D01*
X1495795Y491485D01*
X1495842Y492086D01*
X1495981Y492781D01*
X1496120Y493521D01*
X1496351Y494262D01*
X1496675Y494956D01*
X1496721Y495048D01*
X1496860Y495233D01*
X1497045Y495557D01*
X1497369Y495974D01*
X1497739Y496390D01*
X1498156Y496853D01*
X1498711Y497316D01*
X1499313Y497732D01*
X1499405Y497779D01*
X1499637Y497918D01*
X1499961Y498056D01*
X1500470Y498288D01*
X1501071Y498519D01*
X1501812Y498751D01*
X1502599Y498982D01*
X1503478Y499167D01*
X1503524D01*
X1503570D01*
X1503709Y499213D01*
X1503894D01*
X1504126Y499260D01*
X1504403Y499306D01*
X1505098Y499398D01*
X1505931Y499445D01*
X1506856Y499537D01*
X1507921Y499584D01*
X1509078D01*
X1509124D01*
X1509216D01*
X1509402D01*
X1509587D01*
X1509864D01*
X1510188Y499537D01*
D02*
G37*
G36*
X1519351Y477786D02*
X1519861Y477740D01*
X1519907D01*
X1519953D01*
X1520277Y477694D01*
X1520647Y477601D01*
X1521110Y477462D01*
X1521156D01*
X1521203Y477416D01*
X1521434Y477323D01*
X1521804Y477185D01*
X1522175Y477000D01*
X1522221D01*
X1522267Y476953D01*
X1522545Y476814D01*
X1522915Y476583D01*
X1523331Y476305D01*
X1527173Y473621D01*
X1527219D01*
X1527265Y473529D01*
X1527496Y473297D01*
Y473251D01*
X1527589Y473158D01*
X1527682Y472881D01*
Y472834D01*
X1527728Y472742D01*
X1527774Y472510D01*
X1527820Y472279D01*
Y472233D01*
X1527867Y472048D01*
X1527913Y471770D01*
Y471122D01*
X1527867Y470798D01*
X1527820Y470474D01*
Y470428D01*
X1527774Y470289D01*
X1527728Y470104D01*
X1527682Y469965D01*
X1527589Y469873D01*
X1527404Y469780D01*
X1527358D01*
X1527311D01*
X1527173Y469826D01*
X1527034Y469919D01*
X1521573Y472372D01*
X1518426D01*
X1518380D01*
X1518287D01*
X1518009D01*
X1517685Y472418D01*
X1517315Y472510D01*
X1517223Y472557D01*
X1517084Y472603D01*
X1516899Y472788D01*
X1516714Y472973D01*
X1516667Y473020D01*
X1516575Y473205D01*
X1516482Y473482D01*
X1516390Y473853D01*
Y473945D01*
X1516343Y474223D01*
X1516297Y474639D01*
Y475565D01*
X1516343Y475935D01*
X1516390Y476352D01*
Y476444D01*
X1516482Y476629D01*
X1516575Y476907D01*
X1516714Y477185D01*
X1516760Y477231D01*
X1516852Y477370D01*
X1517038Y477509D01*
X1517315Y477647D01*
X1517408Y477694D01*
X1517593Y477740D01*
X1517963Y477786D01*
X1518426Y477832D01*
X1518472D01*
X1518565D01*
X1518703D01*
X1518889D01*
X1519351Y477786D01*
D02*
G37*
G36*
X1510188Y468207D02*
X1510929D01*
X1511808Y468114D01*
X1512734Y468021D01*
X1513705Y467929D01*
X1514677Y467744D01*
X1514724D01*
X1514770D01*
X1514909Y467697D01*
X1515094Y467651D01*
X1515557Y467512D01*
X1516158Y467327D01*
X1516806Y467096D01*
X1517547Y466818D01*
X1518241Y466494D01*
X1518935Y466078D01*
X1519028Y466031D01*
X1519213Y465893D01*
X1519537Y465615D01*
X1519907Y465291D01*
X1520370Y464874D01*
X1520786Y464365D01*
X1521249Y463810D01*
X1521619Y463162D01*
X1521665Y463070D01*
X1521758Y462838D01*
X1521897Y462468D01*
X1522082Y461913D01*
X1522267Y461265D01*
X1522406Y460524D01*
X1522498Y459691D01*
X1522545Y458719D01*
Y458303D01*
X1522498Y457794D01*
X1522452Y457192D01*
X1522313Y456498D01*
X1522175Y455758D01*
X1521943Y455017D01*
X1521665Y454323D01*
X1521619Y454230D01*
X1521480Y454045D01*
X1521295Y453721D01*
X1520971Y453305D01*
X1520601Y452888D01*
X1520138Y452425D01*
X1519629Y451963D01*
X1519028Y451546D01*
X1518935Y451500D01*
X1518703Y451361D01*
X1518333Y451222D01*
X1517870Y450991D01*
X1517269Y450759D01*
X1516528Y450528D01*
X1515742Y450297D01*
X1514862Y450112D01*
X1514816D01*
X1514770D01*
X1514631Y450065D01*
X1514446D01*
X1514214Y450019D01*
X1513937D01*
X1513243Y449926D01*
X1512410Y449880D01*
X1511484Y449788D01*
X1510420Y449741D01*
X1509263D01*
X1509216D01*
X1509124D01*
X1508985D01*
X1508754D01*
X1508476D01*
X1508152Y449788D01*
X1507411D01*
X1506579Y449880D01*
X1505607Y449973D01*
X1504681Y450065D01*
X1503709Y450250D01*
X1503663D01*
X1503617Y450297D01*
X1503478D01*
X1503293Y450343D01*
X1502830Y450482D01*
X1502228Y450667D01*
X1501534Y450852D01*
X1500840Y451130D01*
X1500099Y451500D01*
X1499405Y451870D01*
X1499313Y451916D01*
X1499128Y452055D01*
X1498804Y452333D01*
X1498387Y452657D01*
X1497971Y453073D01*
X1497508Y453582D01*
X1497091Y454138D01*
X1496721Y454786D01*
X1496675Y454878D01*
X1496582Y455110D01*
X1496397Y455526D01*
X1496212Y456035D01*
X1496073Y456683D01*
X1495888Y457424D01*
X1495795Y458303D01*
X1495749Y459229D01*
Y459691D01*
X1495795Y460154D01*
X1495842Y460756D01*
X1495981Y461450D01*
X1496120Y462190D01*
X1496351Y462931D01*
X1496675Y463625D01*
X1496721Y463717D01*
X1496860Y463903D01*
X1497045Y464227D01*
X1497369Y464643D01*
X1497739Y465060D01*
X1498156Y465522D01*
X1498711Y465985D01*
X1499313Y466402D01*
X1499405Y466448D01*
X1499637Y466587D01*
X1499961Y466726D01*
X1500470Y466957D01*
X1501071Y467188D01*
X1501812Y467420D01*
X1502599Y467651D01*
X1503478Y467836D01*
X1503524D01*
X1503570D01*
X1503709Y467883D01*
X1503894D01*
X1504126Y467929D01*
X1504403Y467975D01*
X1505098Y468068D01*
X1505931Y468114D01*
X1506856Y468207D01*
X1507921Y468253D01*
X1509078D01*
X1509124D01*
X1509216D01*
X1509402D01*
X1509587D01*
X1509864D01*
X1510188Y468207D01*
D02*
G37*
G36*
Y447427D02*
X1510929D01*
X1511808Y447335D01*
X1512734Y447242D01*
X1513705Y447150D01*
X1514677Y446965D01*
X1514724D01*
X1514770D01*
X1514909Y446918D01*
X1515094Y446872D01*
X1515557Y446733D01*
X1516158Y446548D01*
X1516806Y446317D01*
X1517547Y446039D01*
X1518241Y445715D01*
X1518935Y445299D01*
X1519028Y445252D01*
X1519213Y445113D01*
X1519537Y444836D01*
X1519907Y444512D01*
X1520370Y444095D01*
X1520786Y443586D01*
X1521249Y443031D01*
X1521619Y442383D01*
X1521665Y442290D01*
X1521758Y442059D01*
X1521897Y441689D01*
X1522082Y441133D01*
X1522267Y440486D01*
X1522406Y439745D01*
X1522498Y438912D01*
X1522545Y437940D01*
Y437524D01*
X1522498Y437015D01*
X1522452Y436413D01*
X1522313Y435719D01*
X1522175Y434978D01*
X1521943Y434238D01*
X1521665Y433544D01*
X1521619Y433451D01*
X1521480Y433266D01*
X1521295Y432942D01*
X1520971Y432526D01*
X1520601Y432109D01*
X1520138Y431646D01*
X1519629Y431184D01*
X1519028Y430767D01*
X1518935Y430721D01*
X1518703Y430582D01*
X1518333Y430443D01*
X1517870Y430212D01*
X1517269Y429980D01*
X1516528Y429749D01*
X1515742Y429518D01*
X1514862Y429332D01*
X1514816D01*
X1514770D01*
X1514631Y429286D01*
X1514446D01*
X1514214Y429240D01*
X1513937D01*
X1513243Y429147D01*
X1512410Y429101D01*
X1511484Y429008D01*
X1510420Y428962D01*
X1509263D01*
X1509216D01*
X1509124D01*
X1508985D01*
X1508754D01*
X1508476D01*
X1508152Y429008D01*
X1507411D01*
X1506579Y429101D01*
X1505607Y429193D01*
X1504681Y429286D01*
X1503709Y429471D01*
X1503663D01*
X1503617Y429518D01*
X1503478D01*
X1503293Y429564D01*
X1502830Y429703D01*
X1502228Y429888D01*
X1501534Y430073D01*
X1500840Y430350D01*
X1500099Y430721D01*
X1499405Y431091D01*
X1499313Y431137D01*
X1499128Y431276D01*
X1498804Y431554D01*
X1498387Y431878D01*
X1497971Y432294D01*
X1497508Y432803D01*
X1497091Y433359D01*
X1496721Y434007D01*
X1496675Y434099D01*
X1496582Y434330D01*
X1496397Y434747D01*
X1496212Y435256D01*
X1496073Y435904D01*
X1495888Y436644D01*
X1495795Y437524D01*
X1495749Y438449D01*
Y438912D01*
X1495795Y439375D01*
X1495842Y439977D01*
X1495981Y440671D01*
X1496120Y441411D01*
X1496351Y442152D01*
X1496675Y442846D01*
X1496721Y442938D01*
X1496860Y443123D01*
X1497045Y443447D01*
X1497369Y443864D01*
X1497739Y444280D01*
X1498156Y444743D01*
X1498711Y445206D01*
X1499313Y445622D01*
X1499405Y445669D01*
X1499637Y445808D01*
X1499961Y445947D01*
X1500470Y446178D01*
X1501071Y446409D01*
X1501812Y446641D01*
X1502599Y446872D01*
X1503478Y447057D01*
X1503524D01*
X1503570D01*
X1503709Y447103D01*
X1503894D01*
X1504126Y447150D01*
X1504403Y447196D01*
X1505098Y447289D01*
X1505931Y447335D01*
X1506856Y447427D01*
X1507921Y447474D01*
X1509078D01*
X1509124D01*
X1509216D01*
X1509402D01*
X1509587D01*
X1509864D01*
X1510188Y447427D01*
D02*
G37*
G36*
X1520740Y425815D02*
X1521064Y425769D01*
X1521110D01*
X1521295Y425723D01*
X1521480Y425676D01*
X1521665Y425584D01*
X1521712D01*
X1521804Y425537D01*
X1521897Y425445D01*
X1521989Y425352D01*
X1522036Y425260D01*
X1522082Y425028D01*
Y410682D01*
X1521989Y410497D01*
X1521897Y410404D01*
X1521804Y410312D01*
X1521665Y410219D01*
X1521619D01*
X1521480Y410173D01*
X1521295Y410127D01*
X1521064Y410080D01*
X1520971D01*
X1520786D01*
X1520462Y410034D01*
X1520092D01*
X1520046D01*
X1519999D01*
X1519768D01*
X1519444D01*
X1519166Y410080D01*
X1519074D01*
X1518935Y410127D01*
X1518703Y410173D01*
X1518518Y410219D01*
X1518472D01*
X1518380Y410266D01*
X1518241Y410358D01*
X1518148Y410451D01*
X1518102Y410497D01*
X1518056Y410543D01*
X1518009Y410636D01*
Y415634D01*
X1501164D01*
X1503478Y411469D01*
X1503524Y411376D01*
X1503617Y411191D01*
X1503709Y410960D01*
X1503755Y410682D01*
Y410358D01*
X1503663Y410219D01*
X1503617D01*
X1503524Y410127D01*
X1503339Y410080D01*
X1503061Y410034D01*
X1502969D01*
X1502737D01*
X1502413Y409988D01*
X1501904D01*
X1501858D01*
X1501812D01*
X1501627D01*
X1501349D01*
X1501118D01*
X1501071D01*
X1500932D01*
X1500562Y410080D01*
X1500516D01*
X1500423Y410127D01*
X1500192Y410312D01*
X1500146Y410358D01*
X1500099Y410404D01*
X1499914Y410682D01*
X1496305Y416236D01*
X1496258Y416282D01*
X1496166Y416467D01*
Y416513D01*
X1496120Y416606D01*
Y416930D01*
X1496073Y417068D01*
Y417578D01*
X1496027Y417763D01*
Y419336D01*
X1496073Y419706D01*
Y419799D01*
X1496120Y419984D01*
X1496166Y420215D01*
X1496212Y420447D01*
Y420493D01*
X1496258Y420586D01*
X1496305Y420678D01*
X1496397Y420771D01*
X1496443Y420817D01*
X1496675Y420863D01*
X1518009D01*
Y425121D01*
X1518056Y425260D01*
X1518148Y425352D01*
Y425399D01*
X1518241Y425445D01*
X1518333Y425537D01*
X1518518Y425630D01*
X1518565D01*
X1518703Y425676D01*
X1518889Y425723D01*
X1519166Y425769D01*
X1519213D01*
X1519398Y425815D01*
X1519722Y425862D01*
X1520092D01*
X1520138D01*
X1520184D01*
X1520416D01*
X1520740Y425815D01*
D02*
G37*
%LPC*%
G36*
X590600Y1077228D02*
X590276D01*
X589906Y1077182D01*
X589489Y1077089D01*
X589397D01*
X589165Y1077043D01*
X588841Y1076951D01*
X588425Y1076812D01*
X588332Y1076766D01*
X588101Y1076673D01*
X587823Y1076580D01*
X587453Y1076395D01*
X587360Y1076349D01*
X587175Y1076256D01*
X586898Y1076071D01*
X586574Y1075840D01*
Y1075747D01*
Y1075470D01*
Y1075099D01*
X586620Y1074590D01*
Y1074035D01*
X586666Y1073433D01*
X586712Y1072832D01*
X586805Y1072276D01*
Y1072230D01*
X586851Y1072045D01*
X586898Y1071767D01*
X586990Y1071443D01*
X587175Y1070703D01*
X587360Y1070333D01*
X587499Y1070009D01*
Y1069962D01*
X587592Y1069870D01*
X587684Y1069731D01*
X587823Y1069546D01*
X588193Y1069129D01*
X588656Y1068805D01*
X588702D01*
X588795Y1068759D01*
X588934Y1068713D01*
X589165Y1068667D01*
X589674Y1068528D01*
X590322Y1068482D01*
X590646D01*
X590877Y1068528D01*
X591386Y1068620D01*
X591896Y1068805D01*
X591942D01*
X592034Y1068852D01*
X592312Y1069037D01*
X592682Y1069315D01*
X593053Y1069731D01*
Y1069777D01*
X593145Y1069870D01*
X593191Y1069962D01*
X593330Y1070148D01*
X593562Y1070610D01*
X593747Y1071212D01*
Y1071258D01*
X593793Y1071351D01*
X593839Y1071536D01*
X593886Y1071767D01*
X593978Y1072323D01*
X594024Y1073017D01*
Y1073063D01*
Y1073202D01*
Y1073387D01*
Y1073618D01*
X593932Y1074220D01*
X593839Y1074822D01*
Y1074868D01*
X593793Y1074961D01*
X593747Y1075099D01*
X593700Y1075285D01*
X593515Y1075701D01*
X593238Y1076118D01*
Y1076164D01*
X593191Y1076210D01*
X592960Y1076441D01*
X592636Y1076719D01*
X592173Y1076951D01*
X592127D01*
X592081Y1076997D01*
X591942Y1077043D01*
X591757Y1077089D01*
X591248Y1077182D01*
X590600Y1077228D01*
D02*
G37*
G36*
X621468Y1087086D02*
X621283D01*
X621051Y1087039D01*
X620774Y1086993D01*
X620172Y1086854D01*
X619848Y1086669D01*
X619524Y1086484D01*
X619478Y1086438D01*
X619385Y1086392D01*
X619246Y1086253D01*
X619108Y1086068D01*
X618922Y1085836D01*
X618691Y1085512D01*
X618506Y1085188D01*
X618321Y1084772D01*
Y1084725D01*
X618228Y1084587D01*
X618182Y1084309D01*
X618089Y1083985D01*
X617951Y1083615D01*
X617858Y1083106D01*
X617766Y1082550D01*
X617673Y1081949D01*
Y1081856D01*
Y1081625D01*
X617627Y1081301D01*
Y1080792D01*
X617580Y1080236D01*
Y1079542D01*
X617534Y1078802D01*
Y1077969D01*
Y1077923D01*
Y1077830D01*
Y1077691D01*
Y1077506D01*
Y1076997D01*
X617580Y1076395D01*
Y1075655D01*
X617627Y1074868D01*
X617673Y1074128D01*
X617719Y1073387D01*
Y1073295D01*
X617766Y1073110D01*
X617812Y1072739D01*
X617904Y1072369D01*
X617997Y1071906D01*
X618089Y1071397D01*
X618274Y1070934D01*
X618413Y1070518D01*
Y1070472D01*
X618506Y1070333D01*
X618599Y1070148D01*
X618737Y1069916D01*
X619108Y1069453D01*
X619339Y1069222D01*
X619617Y1069037D01*
X619663D01*
X619756Y1068991D01*
X619894Y1068898D01*
X620126Y1068852D01*
X620357Y1068759D01*
X620681Y1068667D01*
X621375Y1068620D01*
X621653D01*
X621838Y1068667D01*
X622301Y1068713D01*
X622764Y1068852D01*
X622810D01*
X622856Y1068898D01*
X623134Y1069037D01*
X623458Y1069268D01*
X623782Y1069592D01*
Y1069639D01*
X623874Y1069685D01*
X624059Y1069962D01*
X624291Y1070333D01*
X624522Y1070842D01*
Y1070888D01*
X624568Y1070981D01*
X624615Y1071166D01*
X624707Y1071351D01*
X624892Y1071906D01*
X625031Y1072600D01*
Y1072647D01*
X625078Y1072785D01*
Y1072971D01*
X625124Y1073248D01*
X625170Y1073618D01*
X625216Y1073989D01*
X625309Y1074868D01*
Y1074914D01*
Y1075099D01*
X625355Y1075331D01*
Y1075701D01*
Y1076118D01*
X625401Y1076580D01*
Y1077089D01*
Y1077645D01*
Y1077737D01*
Y1077969D01*
Y1078293D01*
Y1078755D01*
X625355Y1079265D01*
Y1079774D01*
X625263Y1080884D01*
Y1080931D01*
Y1081116D01*
X625216Y1081393D01*
X625170Y1081717D01*
X625124Y1082134D01*
X625078Y1082504D01*
X624939Y1083337D01*
Y1083383D01*
X624892Y1083522D01*
X624846Y1083707D01*
X624800Y1083939D01*
X624661Y1084540D01*
X624430Y1085096D01*
Y1085142D01*
X624383Y1085235D01*
X624244Y1085512D01*
X624013Y1085882D01*
X623689Y1086253D01*
X623597Y1086345D01*
X623411Y1086530D01*
X623088Y1086715D01*
X622717Y1086900D01*
X622671D01*
X622625Y1086947D01*
X622347Y1086993D01*
X621977Y1087039D01*
X621468Y1087086D01*
D02*
G37*
G36*
X716815Y1027228D02*
X716491D01*
X716121Y1027182D01*
X715704Y1027089D01*
X715611D01*
X715380Y1027043D01*
X715056Y1026951D01*
X714640Y1026812D01*
X714547Y1026766D01*
X714316Y1026673D01*
X714038Y1026580D01*
X713668Y1026395D01*
X713575Y1026349D01*
X713390Y1026256D01*
X713112Y1026071D01*
X712788Y1025840D01*
Y1025747D01*
Y1025470D01*
Y1025099D01*
X712835Y1024590D01*
Y1024035D01*
X712881Y1023433D01*
X712927Y1022832D01*
X713020Y1022276D01*
Y1022230D01*
X713066Y1022045D01*
X713112Y1021767D01*
X713205Y1021443D01*
X713390Y1020703D01*
X713575Y1020333D01*
X713714Y1020009D01*
Y1019962D01*
X713807Y1019870D01*
X713899Y1019731D01*
X714038Y1019546D01*
X714408Y1019129D01*
X714871Y1018805D01*
X714917D01*
X715010Y1018759D01*
X715149Y1018713D01*
X715380Y1018667D01*
X715889Y1018528D01*
X716537Y1018482D01*
X716861D01*
X717092Y1018528D01*
X717601Y1018620D01*
X718111Y1018805D01*
X718157D01*
X718249Y1018852D01*
X718527Y1019037D01*
X718897Y1019315D01*
X719268Y1019731D01*
Y1019777D01*
X719360Y1019870D01*
X719406Y1019962D01*
X719545Y1020148D01*
X719777Y1020610D01*
X719962Y1021212D01*
Y1021258D01*
X720008Y1021351D01*
X720054Y1021536D01*
X720100Y1021767D01*
X720193Y1022323D01*
X720239Y1023017D01*
Y1023063D01*
Y1023202D01*
Y1023387D01*
Y1023618D01*
X720147Y1024220D01*
X720054Y1024822D01*
Y1024868D01*
X720008Y1024961D01*
X719962Y1025099D01*
X719915Y1025285D01*
X719730Y1025701D01*
X719453Y1026118D01*
Y1026164D01*
X719406Y1026210D01*
X719175Y1026441D01*
X718851Y1026719D01*
X718388Y1026951D01*
X718342D01*
X718296Y1026997D01*
X718157Y1027043D01*
X717972Y1027089D01*
X717463Y1027182D01*
X716815Y1027228D01*
D02*
G37*
G36*
X644851Y1036392D02*
X644805D01*
X638002Y1024498D01*
X644851D01*
Y1036392D01*
D02*
G37*
G36*
X1510420Y494262D02*
X1509911D01*
X1509355D01*
X1509263D01*
X1509031D01*
X1508707D01*
X1508244D01*
X1507735Y494215D01*
X1507226D01*
X1506116Y494123D01*
X1506069D01*
X1505884D01*
X1505607Y494076D01*
X1505283Y494030D01*
X1504866Y493984D01*
X1504496Y493938D01*
X1503663Y493799D01*
X1503617D01*
X1503478Y493753D01*
X1503293Y493706D01*
X1503061Y493660D01*
X1502460Y493521D01*
X1501904Y493290D01*
X1501858D01*
X1501765Y493243D01*
X1501488Y493105D01*
X1501118Y492873D01*
X1500747Y492549D01*
X1500655Y492457D01*
X1500470Y492271D01*
X1500285Y491948D01*
X1500099Y491577D01*
Y491531D01*
X1500053Y491485D01*
X1500007Y491207D01*
X1499961Y490837D01*
X1499914Y490328D01*
Y490143D01*
X1499961Y489911D01*
X1500007Y489634D01*
X1500146Y489032D01*
X1500331Y488708D01*
X1500516Y488384D01*
X1500562Y488338D01*
X1500609Y488245D01*
X1500747Y488106D01*
X1500932Y487968D01*
X1501164Y487783D01*
X1501488Y487551D01*
X1501812Y487366D01*
X1502228Y487181D01*
X1502275D01*
X1502413Y487088D01*
X1502691Y487042D01*
X1503015Y486950D01*
X1503385Y486811D01*
X1503894Y486718D01*
X1504450Y486626D01*
X1505051Y486533D01*
X1505144D01*
X1505375D01*
X1505699Y486487D01*
X1506208D01*
X1506764Y486440D01*
X1507458D01*
X1508198Y486394D01*
X1509031D01*
X1509078D01*
X1509170D01*
X1509309D01*
X1509494D01*
X1510003D01*
X1510605Y486440D01*
X1511345D01*
X1512132Y486487D01*
X1512872Y486533D01*
X1513613Y486579D01*
X1513705D01*
X1513891Y486626D01*
X1514261Y486672D01*
X1514631Y486764D01*
X1515094Y486857D01*
X1515603Y486950D01*
X1516066Y487135D01*
X1516482Y487273D01*
X1516528D01*
X1516667Y487366D01*
X1516852Y487458D01*
X1517084Y487597D01*
X1517547Y487968D01*
X1517778Y488199D01*
X1517963Y488477D01*
Y488523D01*
X1518009Y488615D01*
X1518102Y488754D01*
X1518148Y488986D01*
X1518241Y489217D01*
X1518333Y489541D01*
X1518380Y490235D01*
Y490513D01*
X1518333Y490698D01*
X1518287Y491161D01*
X1518148Y491624D01*
Y491670D01*
X1518102Y491716D01*
X1517963Y491994D01*
X1517732Y492318D01*
X1517408Y492642D01*
X1517361D01*
X1517315Y492734D01*
X1517038Y492919D01*
X1516667Y493151D01*
X1516158Y493382D01*
X1516112D01*
X1516019Y493428D01*
X1515834Y493475D01*
X1515649Y493567D01*
X1515094Y493753D01*
X1514400Y493891D01*
X1514353D01*
X1514214Y493938D01*
X1514029D01*
X1513752Y493984D01*
X1513382Y494030D01*
X1513011Y494076D01*
X1512132Y494169D01*
X1512086D01*
X1511901D01*
X1511669Y494215D01*
X1511299D01*
X1510882D01*
X1510420Y494262D01*
D02*
G37*
G36*
Y462931D02*
X1509911D01*
X1509355D01*
X1509263D01*
X1509031D01*
X1508707D01*
X1508244D01*
X1507735Y462884D01*
X1507226D01*
X1506116Y462792D01*
X1506069D01*
X1505884D01*
X1505607Y462746D01*
X1505283Y462699D01*
X1504866Y462653D01*
X1504496Y462607D01*
X1503663Y462468D01*
X1503617D01*
X1503478Y462422D01*
X1503293Y462375D01*
X1503061Y462329D01*
X1502460Y462190D01*
X1501904Y461959D01*
X1501858D01*
X1501765Y461913D01*
X1501488Y461774D01*
X1501118Y461542D01*
X1500747Y461218D01*
X1500655Y461126D01*
X1500470Y460941D01*
X1500285Y460617D01*
X1500099Y460247D01*
Y460200D01*
X1500053Y460154D01*
X1500007Y459876D01*
X1499961Y459506D01*
X1499914Y458997D01*
Y458812D01*
X1499961Y458581D01*
X1500007Y458303D01*
X1500146Y457701D01*
X1500331Y457377D01*
X1500516Y457053D01*
X1500562Y457007D01*
X1500609Y456914D01*
X1500747Y456776D01*
X1500932Y456637D01*
X1501164Y456452D01*
X1501488Y456220D01*
X1501812Y456035D01*
X1502228Y455850D01*
X1502275D01*
X1502413Y455758D01*
X1502691Y455711D01*
X1503015Y455619D01*
X1503385Y455480D01*
X1503894Y455387D01*
X1504450Y455295D01*
X1505051Y455202D01*
X1505144D01*
X1505375D01*
X1505699Y455156D01*
X1506208D01*
X1506764Y455110D01*
X1507458D01*
X1508198Y455063D01*
X1509031D01*
X1509078D01*
X1509170D01*
X1509309D01*
X1509494D01*
X1510003D01*
X1510605Y455110D01*
X1511345D01*
X1512132Y455156D01*
X1512872Y455202D01*
X1513613Y455248D01*
X1513705D01*
X1513891Y455295D01*
X1514261Y455341D01*
X1514631Y455434D01*
X1515094Y455526D01*
X1515603Y455619D01*
X1516066Y455804D01*
X1516482Y455943D01*
X1516528D01*
X1516667Y456035D01*
X1516852Y456128D01*
X1517084Y456267D01*
X1517547Y456637D01*
X1517778Y456868D01*
X1517963Y457146D01*
Y457192D01*
X1518009Y457285D01*
X1518102Y457424D01*
X1518148Y457655D01*
X1518241Y457886D01*
X1518333Y458210D01*
X1518380Y458904D01*
Y459182D01*
X1518333Y459367D01*
X1518287Y459830D01*
X1518148Y460293D01*
Y460339D01*
X1518102Y460385D01*
X1517963Y460663D01*
X1517732Y460987D01*
X1517408Y461311D01*
X1517361D01*
X1517315Y461404D01*
X1517038Y461589D01*
X1516667Y461820D01*
X1516158Y462052D01*
X1516112D01*
X1516019Y462098D01*
X1515834Y462144D01*
X1515649Y462237D01*
X1515094Y462422D01*
X1514400Y462561D01*
X1514353D01*
X1514214Y462607D01*
X1514029D01*
X1513752Y462653D01*
X1513382Y462699D01*
X1513011Y462746D01*
X1512132Y462838D01*
X1512086D01*
X1511901D01*
X1511669Y462884D01*
X1511299D01*
X1510882D01*
X1510420Y462931D01*
D02*
G37*
G36*
Y442152D02*
X1509911D01*
X1509355D01*
X1509263D01*
X1509031D01*
X1508707D01*
X1508244D01*
X1507735Y442105D01*
X1507226D01*
X1506116Y442013D01*
X1506069D01*
X1505884D01*
X1505607Y441967D01*
X1505283Y441920D01*
X1504866Y441874D01*
X1504496Y441828D01*
X1503663Y441689D01*
X1503617D01*
X1503478Y441642D01*
X1503293Y441596D01*
X1503061Y441550D01*
X1502460Y441411D01*
X1501904Y441180D01*
X1501858D01*
X1501765Y441133D01*
X1501488Y440995D01*
X1501118Y440763D01*
X1500747Y440439D01*
X1500655Y440347D01*
X1500470Y440162D01*
X1500285Y439838D01*
X1500099Y439467D01*
Y439421D01*
X1500053Y439375D01*
X1500007Y439097D01*
X1499961Y438727D01*
X1499914Y438218D01*
Y438033D01*
X1499961Y437801D01*
X1500007Y437524D01*
X1500146Y436922D01*
X1500331Y436598D01*
X1500516Y436274D01*
X1500562Y436228D01*
X1500609Y436135D01*
X1500747Y435997D01*
X1500932Y435858D01*
X1501164Y435673D01*
X1501488Y435441D01*
X1501812Y435256D01*
X1502228Y435071D01*
X1502275D01*
X1502413Y434978D01*
X1502691Y434932D01*
X1503015Y434840D01*
X1503385Y434701D01*
X1503894Y434608D01*
X1504450Y434516D01*
X1505051Y434423D01*
X1505144D01*
X1505375D01*
X1505699Y434377D01*
X1506208D01*
X1506764Y434330D01*
X1507458D01*
X1508198Y434284D01*
X1509031D01*
X1509078D01*
X1509170D01*
X1509309D01*
X1509494D01*
X1510003D01*
X1510605Y434330D01*
X1511345D01*
X1512132Y434377D01*
X1512872Y434423D01*
X1513613Y434469D01*
X1513705D01*
X1513891Y434516D01*
X1514261Y434562D01*
X1514631Y434654D01*
X1515094Y434747D01*
X1515603Y434840D01*
X1516066Y435025D01*
X1516482Y435163D01*
X1516528D01*
X1516667Y435256D01*
X1516852Y435349D01*
X1517084Y435487D01*
X1517547Y435858D01*
X1517778Y436089D01*
X1517963Y436367D01*
Y436413D01*
X1518009Y436506D01*
X1518102Y436644D01*
X1518148Y436876D01*
X1518241Y437107D01*
X1518333Y437431D01*
X1518380Y438125D01*
Y438403D01*
X1518333Y438588D01*
X1518287Y439051D01*
X1518148Y439514D01*
Y439560D01*
X1518102Y439606D01*
X1517963Y439884D01*
X1517732Y440208D01*
X1517408Y440532D01*
X1517361D01*
X1517315Y440624D01*
X1517038Y440810D01*
X1516667Y441041D01*
X1516158Y441272D01*
X1516112D01*
X1516019Y441319D01*
X1515834Y441365D01*
X1515649Y441457D01*
X1515094Y441642D01*
X1514400Y441781D01*
X1514353D01*
X1514214Y441828D01*
X1514029D01*
X1513752Y441874D01*
X1513382Y441920D01*
X1513011Y441967D01*
X1512132Y442059D01*
X1512086D01*
X1511901D01*
X1511669Y442105D01*
X1511299D01*
X1510882D01*
X1510420Y442152D01*
D02*
G37*
%LPD*%
D11*
X-70728Y723710D02*
G03*
X-74728Y727710I-4000J0D01*
G01*
X-70728Y717710D02*
G03*
X-60728Y707710I10000J0D01*
G01*
X-74728Y273210D02*
G03*
X-70728Y277210I0J4000D01*
G01*
X-96528Y472460D02*
G03*
X-96528Y496460I0J12000D01*
G01*
X-60728Y293210D02*
G03*
X-70728Y283210I0J-10000D01*
G01*
X-98526Y682710D02*
G03*
X-88526Y692710I0J10000D01*
G01*
Y308210D02*
G03*
X-98526Y318210I-10000J0D01*
G01*
X1410970Y1000460D02*
X1410970Y460D01*
X-127Y1000460D02*
X1410970D01*
X-127Y460D02*
X1410970D01*
X-148527Y682710D02*
X-140733D01*
X-148527Y496460D02*
X-140733D01*
X-148527Y472460D02*
X-140733D01*
X-148527Y318210D02*
X-140733D01*
X-70728Y277210D02*
Y283210D01*
X-88526Y692710D02*
Y727710D01*
X-70728Y717710D02*
Y723710D01*
X-148527Y496460D02*
Y682710D01*
Y318210D02*
Y472460D01*
X-88526Y273210D02*
Y308210D01*
Y727710D02*
X-74728D01*
X-88526Y273210D02*
X-74728D01*
X-60728Y707710D02*
X-127D01*
X-140733Y682710D02*
X-98526D01*
X-140733Y496460D02*
X-96528D01*
X-140733Y472460D02*
X-96528D01*
X-140733Y318210D02*
X-98526D01*
X-60728Y293210D02*
X-127D01*
Y707710D02*
Y1000460D01*
Y460D02*
Y293210D01*
D19*
X1411410Y1000920D02*
X1411600Y1000730D01*
X-148590Y1081000D02*
X-133350Y1086080D01*
X-148590Y1081000D02*
X-133350Y1075920D01*
X1396360D02*
X1411600Y1081000D01*
X1396360Y1086080D02*
X1411600Y1081000D01*
X-148590D02*
X538588D01*
X719342D02*
X1411600D01*
X-148590Y685250D02*
Y1083540D01*
X1411600Y1003270D02*
Y1083540D01*
X-190Y1031000D02*
X15050Y1036080D01*
X-190Y1031000D02*
X15050Y1025920D01*
X1396170D02*
X1411410Y1031000D01*
X1396170Y1036080D02*
X1411410Y1031000D01*
X-190D02*
X612693D01*
X793447D02*
X1411410D01*
X-190Y1003460D02*
Y1033540D01*
X1411410Y1003460D02*
Y1033540D01*
X1500920Y15240D02*
X1506000Y0D01*
X1511080Y15240D01*
X1506000Y1000730D02*
X1511080Y985490D01*
X1500920D02*
X1506000Y1000730D01*
Y0D02*
Y407448D01*
Y588202D02*
Y1000730D01*
X1414140Y0D02*
X1508540D01*
X1414140Y1000730D02*
X1508540D01*
M02*
