G04*
G04 #@! TF.GenerationSoftware,Altium Limited,Altium Designer,20.1.11 (218)*
G04*
G04 Layer_Color=16711935*
%FSLAX44Y44*%
%MOMM*%
G71*
G04*
G04 #@! TF.SameCoordinates,E25B43FC-70F8-4359-BC63-D8F09BEAA3E7*
G04*
G04*
G04 #@! TF.FilePolarity,Positive*
G04*
G01*
G75*
%ADD13C,0.1000*%
%ADD19C,0.2540*%
%ADD20C,0.2032*%
%ADD137C,0.1524*%
%ADD138C,0.1016*%
G36*
X1376400Y20720D02*
Y55720D01*
X1341400D01*
Y20720D01*
X1376400D01*
D02*
G37*
D13*
X110130Y746760D02*
G03*
X110130Y746760I-40000J0D01*
G01*
X259710Y943610D02*
G03*
X259710Y943610I-40000J0D01*
G01*
X1017873Y264179D02*
G03*
X1017873Y264179I-5000J0D01*
G01*
X1027750Y696620D02*
G03*
X1027750Y696620I-5000J0D01*
G01*
X1327400Y14220D02*
X1390400D01*
X1327400D02*
Y77220D01*
X1390400D01*
Y14220D02*
Y77220D01*
X407740Y846790D02*
Y968710D01*
X280740Y846790D02*
X407740D01*
X280740Y968710D02*
X407740D01*
X280740Y846790D02*
Y968710D01*
X976873Y255179D02*
X1021873D01*
X976873Y353179D02*
X1021873D01*
X976873Y255179D02*
Y353179D01*
X1021873Y255179D02*
Y353179D01*
X986750Y687620D02*
X1031750D01*
X986750Y785620D02*
X1031750D01*
X986750Y687620D02*
Y785620D01*
X1031750Y687620D02*
Y785620D01*
X1442720Y337820D02*
Y662940D01*
X1285240Y337820D02*
X1442720D01*
X1285240D02*
Y662940D01*
X1442720D01*
X1338565Y68552D02*
X1337399Y69718D01*
X1335066D01*
X1333900Y68552D01*
Y67385D01*
X1335066Y66219D01*
X1337399D01*
X1338565Y65053D01*
Y63886D01*
X1337399Y62720D01*
X1335066D01*
X1333900Y63886D01*
X1344397Y62720D02*
X1342064D01*
X1340898Y63886D01*
Y66219D01*
X1342064Y67385D01*
X1344397D01*
X1345563Y66219D01*
Y65053D01*
X1340898D01*
X1347896Y67385D02*
Y62720D01*
Y65053D01*
X1349062Y66219D01*
X1350228Y67385D01*
X1351394D01*
X1354893Y62720D02*
X1357226D01*
X1356060D01*
Y67385D01*
X1354893D01*
X1361891D02*
X1364224D01*
X1365390Y66219D01*
Y62720D01*
X1361891D01*
X1360725Y63886D01*
X1361891Y65053D01*
X1365390D01*
X1367722Y62720D02*
X1370055D01*
X1368889D01*
Y69718D01*
X1367722D01*
X1373554Y62720D02*
Y69718D01*
X1378219Y62720D01*
Y69718D01*
X1380552Y67385D02*
Y62720D01*
Y65053D01*
X1381718Y66219D01*
X1382884Y67385D01*
X1384050D01*
D19*
X101600Y854710D02*
Y863092D01*
X27940Y822960D02*
X38100D01*
Y808228D02*
Y822960D01*
X106680Y863092D02*
Y868680D01*
X101600Y863092D02*
X106680D01*
X33020Y808228D02*
X38100D01*
X33020Y868680D02*
X106680D01*
X33020Y802640D02*
Y808228D01*
X106680Y802640D02*
Y808228D01*
X33020Y802640D02*
X106680D01*
X33020Y863092D02*
Y868680D01*
X101600Y808228D02*
X106680D01*
X33020Y863092D02*
X38100D01*
Y848360D02*
Y863092D01*
X101600Y808228D02*
Y816610D01*
X27940Y848360D02*
X38100D01*
X106680Y816610D02*
Y854710D01*
X101600Y816610D02*
X106680D01*
X101600Y854710D02*
X106680D01*
X27940Y822960D02*
Y848360D01*
D20*
X213883Y941581D02*
X215576Y939889D01*
X218961D01*
X220654Y941581D01*
Y948352D01*
X218961Y950045D01*
X215576D01*
X213883Y948352D01*
X203726Y939889D02*
X207112Y941581D01*
X210497Y944967D01*
Y948352D01*
X208804Y950045D01*
X205419D01*
X203726Y948352D01*
Y946660D01*
X205419Y944967D01*
X210497D01*
X200340Y950045D02*
X196955D01*
X198648D01*
Y939889D01*
X200340Y941581D01*
X68101Y750894D02*
X66409Y749202D01*
Y745816D01*
X68101Y744123D01*
X74872D01*
X76565Y745816D01*
Y749202D01*
X74872Y750894D01*
X66409Y761051D02*
X68101Y757666D01*
X71487Y754280D01*
X74872D01*
X76565Y755973D01*
Y759358D01*
X74872Y761051D01*
X73180D01*
X71487Y759358D01*
Y754280D01*
X68101Y764437D02*
X66409Y766130D01*
Y769515D01*
X68101Y771208D01*
X74872D01*
X76565Y769515D01*
Y766130D01*
X74872Y764437D01*
X68101D01*
D137*
X72467Y840660D02*
X64850Y835582D01*
X72467D02*
X64850Y840660D01*
X71198Y833043D02*
X72467Y831773D01*
Y829234D01*
X71198Y827964D01*
X69928D01*
X68659Y829234D01*
Y830503D01*
Y829234D01*
X67389Y827964D01*
X66120D01*
X64850Y829234D01*
Y831773D01*
X66120Y833043D01*
D138*
X1376378Y537956D02*
Y534570D01*
Y536263D01*
X1384842D01*
X1386535Y534570D01*
Y532878D01*
X1384842Y531185D01*
X1386535Y541342D02*
Y544727D01*
Y543034D01*
X1376378D01*
X1378071Y541342D01*
X960269Y291313D02*
Y299777D01*
X958576Y301470D01*
X955191D01*
X953498Y299777D01*
Y291313D01*
X950112Y301470D02*
X946727D01*
X948419D01*
Y291313D01*
X950112Y293006D01*
X941648Y291313D02*
Y301470D01*
X936570D01*
X934877Y299777D01*
Y298084D01*
X936570Y296392D01*
X941648D01*
X936570D01*
X934877Y294699D01*
Y293006D01*
X936570Y291313D01*
X941648D01*
X357105Y864414D02*
X346949D01*
Y857643D01*
Y847486D02*
Y854258D01*
X353720Y847486D01*
X355413D01*
X357105Y849179D01*
Y852565D01*
X355413Y854258D01*
X970146Y723755D02*
Y732218D01*
X968454Y733911D01*
X965068D01*
X963375Y732218D01*
Y723755D01*
X959990Y733911D02*
X956604D01*
X958297D01*
Y723755D01*
X959990Y725447D01*
X951526Y733911D02*
Y727140D01*
X948140Y723755D01*
X944754Y727140D01*
Y733911D01*
Y728833D01*
X951526D01*
M02*
